<?xml version="1.0" encoding="UTF-8" standalone="no"?>
<!DOCTYPE svg PUBLIC "-//W3C//DTD SVG 1.1//EN"
 "http://www.w3.org/Graphics/SVG/1.1/DTD/svg11.dtd">
<!-- Generated by graphviz version 2.40.1 (20161225.0304)
 -->
<!-- Title: dependencies Pages: 1 -->
<svg width="746pt" height="284pt"
 viewBox="0.00 0.00 746.00 284.00" xmlns="http://www.w3.org/2000/svg" xmlns:xlink="http://www.w3.org/1999/xlink">
<g id="graph0" class="graph" transform="scale(1 1) rotate(0) translate(4 280)">
<title>dependencies</title>
<polygon fill="#ffffff" stroke="transparent" points="-4,4 -4,-280 742,-280 742,4 -4,4"/>
<text text-anchor="start" x="348.0091" y="-42.4" font-family="sans-serif" font-weight="bold" font-size="14.00" fill="#000000">Legend</text>
<polygon fill="#ffffb3" stroke="transparent" points="135,-10 135,-30 155,-30 155,-10 135,-10"/>
<text text-anchor="start" x="158.629" y="-15.4" font-family="sans-serif" font-size="14.00" fill="#000000"> &#160;Declarations</text>
<polygon fill="#8dd3c7" stroke="transparent" points="248,-10 248,-30 268,-30 268,-10 248,-10"/>
<text text-anchor="start" x="271.7251" y="-15.4" font-family="sans-serif" font-size="14.00" fill="#000000"> &#160;Module</text>
<polygon fill="#80b1d3" stroke="transparent" points="334,-10 334,-30 354,-30 354,-10 334,-10"/>
<text text-anchor="start" x="357.7812" y="-15.4" font-family="sans-serif" font-size="14.00" fill="#000000"> &#160;Bootstrap</text>
<polygon fill="#fdb462" stroke="transparent" points="431,-10 431,-30 451,-30 451,-10 431,-10"/>
<text text-anchor="start" x="454.6732" y="-15.4" font-family="sans-serif" font-size="14.00" fill="#000000"> &#160;Providers</text>
<polygon fill="#fb8072" stroke="transparent" points="527,-10 527,-30 547,-30 547,-10 527,-10"/>
<text text-anchor="start" x="550.7258" y="-15.4" font-family="sans-serif" font-size="14.00" fill="#000000"> &#160;Exports</text>
<g id="clust1" class="cluster">
<title>cluster_RegistrationContentModule</title>
<polygon fill="none" stroke="#000000" stroke-dasharray="1,5" points="8,-70 8,-268 730,-268 730,-70 8,-70"/>
</g>
<g id="clust2" class="cluster">
<title>cluster_RegistrationContentModule_declarations</title>
<polygon fill="none" stroke="#000000" points="512,-78 512,-130 722,-130 722,-78 512,-78"/>
</g>
<g id="clust4" class="cluster">
<title>cluster_RegistrationContentModule_imports</title>
<polygon fill="none" stroke="#000000" points="16,-78 16,-130 504,-130 504,-78 16,-78"/>
</g>
<g id="clust5" class="cluster">
<title>cluster_RegistrationContentModule_exports</title>
<polygon fill="none" stroke="#000000" points="219,-208 219,-260 433,-260 433,-208 219,-208"/>
</g>
<!-- RegistrationContentComponent -->
<g id="node1" class="node">
<title>RegistrationContentComponent</title>
<polygon fill="#ffffb3" stroke="#000000" points="714.0982,-122 519.9018,-122 519.9018,-86 714.0982,-86 714.0982,-122"/>
<text text-anchor="middle" x="617" y="-99.8" font-family="Times,serif" font-size="14.00" fill="#000000">RegistrationContentComponent</text>
</g>
<!-- RegistrationContentModule -->
<g id="node2" class="node">
<title>RegistrationContentModule</title>
<polygon fill="#8dd3c7" stroke="#000000" points="412.3159,-187 409.3159,-191 388.3159,-191 385.3159,-187 239.6841,-187 239.6841,-151 412.3159,-151 412.3159,-187"/>
<text text-anchor="middle" x="326" y="-164.8" font-family="Times,serif" font-size="14.00" fill="#000000">RegistrationContentModule</text>
</g>
<!-- RegistrationContentComponent&#45;&gt;RegistrationContentModule -->
<g id="edge1" class="edge">
<title>RegistrationContentComponent&#45;&gt;RegistrationContentModule</title>
<path fill="none" stroke="#000000" d="M617,-122.1061C617,-141.3391 617,-169 617,-169 617,-169 422.5217,-169 422.5217,-169"/>
<polygon fill="#000000" stroke="#000000" points="422.5217,-165.5001 412.5217,-169 422.5217,-172.5001 422.5217,-165.5001"/>
</g>
<!-- RegistrationContentComponent  -->
<g id="node6" class="node">
<title>RegistrationContentComponent </title>
<polygon fill="#fb8072" stroke="#000000" points="424.5986,-252 227.4014,-252 227.4014,-216 424.5986,-216 424.5986,-252"/>
<text text-anchor="middle" x="326" y="-229.8" font-family="Times,serif" font-size="14.00" fill="#000000">RegistrationContentComponent </text>
</g>
<!-- RegistrationContentModule&#45;&gt;RegistrationContentComponent  -->
<g id="edge5" class="edge">
<title>RegistrationContentModule&#45;&gt;RegistrationContentComponent </title>
<path fill="none" stroke="#000000" stroke-dasharray="5,2" d="M326,-187.1061C326,-187.1061 326,-205.991 326,-205.991"/>
<polygon fill="#000000" stroke="#000000" points="322.5001,-205.9909 326,-215.991 329.5001,-205.991 322.5001,-205.9909"/>
</g>
<!-- LabeledSlideToggleModule -->
<g id="node3" class="node">
<title>LabeledSlideToggleModule</title>
<polygon fill="#8dd3c7" stroke="#000000" points="495.573,-122 492.573,-126 471.573,-126 468.573,-122 322.427,-122 322.427,-86 495.573,-86 495.573,-122"/>
<text text-anchor="middle" x="409" y="-99.8" font-family="Times,serif" font-size="14.00" fill="#000000">LabeledSlideToggleModule</text>
</g>
<!-- LabeledSlideToggleModule&#45;&gt;RegistrationContentModule -->
<g id="edge2" class="edge">
<title>LabeledSlideToggleModule&#45;&gt;RegistrationContentModule</title>
<path fill="none" stroke="#000000" d="M367.3107,-122.1061C367.3107,-122.1061 367.3107,-140.991 367.3107,-140.991"/>
<polygon fill="#000000" stroke="#000000" points="363.8107,-140.9909 367.3107,-150.991 370.8107,-140.991 363.8107,-140.9909"/>
</g>
<!-- NameInputModule -->
<g id="node4" class="node">
<title>NameInputModule</title>
<polygon fill="#8dd3c7" stroke="#000000" points="304.0283,-122 301.0283,-126 280.0283,-126 277.0283,-122 181.9717,-122 181.9717,-86 304.0283,-86 304.0283,-122"/>
<text text-anchor="middle" x="243" y="-99.8" font-family="Times,serif" font-size="14.00" fill="#000000">NameInputModule</text>
</g>
<!-- NameInputModule&#45;&gt;RegistrationContentModule -->
<g id="edge3" class="edge">
<title>NameInputModule&#45;&gt;RegistrationContentModule</title>
<path fill="none" stroke="#000000" d="M272.053,-122.1061C272.053,-122.1061 272.053,-140.991 272.053,-140.991"/>
<polygon fill="#000000" stroke="#000000" points="268.553,-140.9909 272.053,-150.991 275.553,-140.991 268.553,-140.9909"/>
</g>
<!-- OrganSelectorModule -->
<g id="node5" class="node">
<title>OrganSelectorModule</title>
<polygon fill="#8dd3c7" stroke="#000000" points="164.4004,-122 161.4004,-126 140.4004,-126 137.4004,-122 23.5996,-122 23.5996,-86 164.4004,-86 164.4004,-122"/>
<text text-anchor="middle" x="94" y="-99.8" font-family="Times,serif" font-size="14.00" fill="#000000">OrganSelectorModule</text>
</g>
<!-- OrganSelectorModule&#45;&gt;RegistrationContentModule -->
<g id="edge4" class="edge">
<title>OrganSelectorModule&#45;&gt;RegistrationContentModule</title>
<path fill="none" stroke="#000000" d="M94,-122.1061C94,-141.3391 94,-169 94,-169 94,-169 229.6118,-169 229.6118,-169"/>
<polygon fill="#000000" stroke="#000000" points="229.6118,-172.5001 239.6118,-169 229.6117,-165.5001 229.6118,-172.5001"/>
</g>
</g>
</svg>
