<?xml version="1.0" encoding="UTF-8" standalone="no"?>
<!DOCTYPE svg PUBLIC "-//W3C//DTD SVG 1.1//EN"
 "http://www.w3.org/Graphics/SVG/1.1/DTD/svg11.dtd">
<!-- Generated by graphviz version 2.47.3 (20210619.1520)
 -->
<!-- Title: dependencies Pages: 1 -->
<svg width="390pt" height="247pt"
 viewBox="0.00 0.00 390.00 246.80" xmlns="http://www.w3.org/2000/svg" xmlns:xlink="http://www.w3.org/1999/xlink">
<g id="graph0" class="graph" transform="scale(1 1) rotate(0) translate(4 242.8)">
<title>dependencies</title>
<polygon fill="white" stroke="transparent" points="-4,4 -4,-242.8 386,-242.8 386,4 -4,4"/>
<text text-anchor="middle" x="191" y="-8.2" font-family="sans-serif" font-size="14.00">dependencies</text>
<g id="clust1" class="cluster">
<title>cluster_StageNavModule</title>
<polygon fill="none" stroke="black" stroke-dasharray="1,5" points="8,-32.8 8,-230.8 374,-230.8 374,-32.8 8,-32.8"/>
</g>
<g id="clust5" class="cluster">
<title>cluster_StageNavModule_exports</title>
<polygon fill="none" stroke="black" points="121,-170.8 121,-222.8 277,-222.8 277,-170.8 121,-170.8"/>
</g>
<g id="clust2" class="cluster">
<title>cluster_StageNavModule_declarations</title>
<polygon fill="none" stroke="black" points="214,-40.8 214,-92.8 366,-92.8 366,-40.8 214,-40.8"/>
</g>
<g id="clust4" class="cluster">
<title>cluster_StageNavModule_imports</title>
<polygon fill="none" stroke="black" points="16,-40.8 16,-92.8 206,-92.8 206,-40.8 16,-40.8"/>
</g>
<!-- StageNavComponent -->
<g id="node1" class="node">
<title>StageNavComponent</title>
<polygon fill="#ffffb3" stroke="black" points="357.76,-84.8 222.24,-84.8 222.24,-48.8 357.76,-48.8 357.76,-84.8"/>
<text text-anchor="middle" x="290" y="-62.6" font-family="Times,serif" font-size="14.00">StageNavComponent</text>
</g>
<!-- StageNavModule -->
<g id="node2" class="node">
<title>StageNavModule</title>
<polygon fill="#8dd3c7" stroke="black" points="255.97,-149.8 252.97,-153.8 231.97,-153.8 228.97,-149.8 142.03,-149.8 142.03,-113.8 255.97,-113.8 255.97,-149.8"/>
<text text-anchor="middle" x="199" y="-127.6" font-family="Times,serif" font-size="14.00">StageNavModule</text>
</g>
<!-- StageNavComponent&#45;&gt;StageNavModule -->
<g id="edge1" class="edge">
<title>StageNavComponent&#45;&gt;StageNavModule</title>
<path fill="none" stroke="black" d="M239.05,-84.91C239.05,-84.91 239.05,-103.79 239.05,-103.79"/>
<polygon fill="black" stroke="black" points="235.55,-103.79 239.05,-113.79 242.55,-103.79 235.55,-103.79"/>
</g>
<!-- StageNavComponent  -->
<g id="node4" class="node">
<title>StageNavComponent </title>
<polygon fill="#fb8072" stroke="black" points="268.76,-214.8 129.24,-214.8 129.24,-178.8 268.76,-178.8 268.76,-214.8"/>
<text text-anchor="middle" x="199" y="-192.6" font-family="Times,serif" font-size="14.00">StageNavComponent </text>
</g>
<!-- StageNavModule&#45;&gt;StageNavComponent  -->
<g id="edge3" class="edge">
<title>StageNavModule&#45;&gt;StageNavComponent </title>
<path fill="none" stroke="black" stroke-dasharray="5,2" d="M199,-149.91C199,-149.91 199,-168.79 199,-168.79"/>
<polygon fill="black" stroke="black" points="195.5,-168.79 199,-178.79 202.5,-168.79 195.5,-168.79"/>
</g>
<!-- LabeledSlideToggleModule -->
<g id="node3" class="node">
<title>LabeledSlideToggleModule</title>
<polygon fill="#8dd3c7" stroke="black" points="197.57,-84.8 194.57,-88.8 173.57,-88.8 170.57,-84.8 24.43,-84.8 24.43,-48.8 197.57,-48.8 197.57,-84.8"/>
<text text-anchor="middle" x="111" y="-62.6" font-family="Times,serif" font-size="14.00">LabeledSlideToggleModule</text>
</g>
<!-- LabeledSlideToggleModule&#45;&gt;StageNavModule -->
<g id="edge2" class="edge">
<title>LabeledSlideToggleModule&#45;&gt;StageNavModule</title>
<path fill="none" stroke="black" d="M169.77,-84.91C169.77,-84.91 169.77,-103.79 169.77,-103.79"/>
<polygon fill="black" stroke="black" points="166.27,-103.79 169.77,-113.79 173.27,-103.79 166.27,-103.79"/>
</g>
</g>
</svg>
