<?xml version="1.0" encoding="UTF-8" standalone="no"?>
<!DOCTYPE svg PUBLIC "-//W3C//DTD SVG 1.1//EN"
 "http://www.w3.org/Graphics/SVG/1.1/DTD/svg11.dtd">
<!-- Generated by graphviz version 2.40.1 (20161225.0304)
 -->
<!-- Title: dependencies Pages: 1 -->
<svg width="504pt" height="284pt"
 viewBox="0.00 0.00 504.00 284.00" xmlns="http://www.w3.org/2000/svg" xmlns:xlink="http://www.w3.org/1999/xlink">
<g id="graph0" class="graph" transform="scale(1 1) rotate(0) translate(4 280)">
<title>dependencies</title>
<polygon fill="#ffffff" stroke="transparent" points="-4,4 -4,-280 500,-280 500,4 -4,4"/>
<text text-anchor="start" x="227.0091" y="-42.4" font-family="sans-serif" font-weight="bold" font-size="14.00" fill="#000000">Legend</text>
<polygon fill="#ffffb3" stroke="transparent" points="14,-10 14,-30 34,-30 34,-10 14,-10"/>
<text text-anchor="start" x="37.629" y="-15.4" font-family="sans-serif" font-size="14.00" fill="#000000"> &#160;Declarations</text>
<polygon fill="#8dd3c7" stroke="transparent" points="127,-10 127,-30 147,-30 147,-10 127,-10"/>
<text text-anchor="start" x="150.7251" y="-15.4" font-family="sans-serif" font-size="14.00" fill="#000000"> &#160;Module</text>
<polygon fill="#80b1d3" stroke="transparent" points="213,-10 213,-30 233,-30 233,-10 213,-10"/>
<text text-anchor="start" x="236.7812" y="-15.4" font-family="sans-serif" font-size="14.00" fill="#000000"> &#160;Bootstrap</text>
<polygon fill="#fdb462" stroke="transparent" points="310,-10 310,-30 330,-30 330,-10 310,-10"/>
<text text-anchor="start" x="333.6732" y="-15.4" font-family="sans-serif" font-size="14.00" fill="#000000"> &#160;Providers</text>
<polygon fill="#fb8072" stroke="transparent" points="406,-10 406,-30 426,-30 426,-10 406,-10"/>
<text text-anchor="start" x="429.7258" y="-15.4" font-family="sans-serif" font-size="14.00" fill="#000000"> &#160;Exports</text>
<g id="clust1" class="cluster">
<title>cluster_StageNavModule</title>
<polygon fill="none" stroke="#000000" stroke-dasharray="1,5" points="65,-70 65,-268 431,-268 431,-70 65,-70"/>
</g>
<g id="clust2" class="cluster">
<title>cluster_StageNavModule_declarations</title>
<polygon fill="none" stroke="#000000" points="271,-78 271,-130 423,-130 423,-78 271,-78"/>
</g>
<g id="clust4" class="cluster">
<title>cluster_StageNavModule_imports</title>
<polygon fill="none" stroke="#000000" points="73,-78 73,-130 263,-130 263,-78 73,-78"/>
</g>
<g id="clust5" class="cluster">
<title>cluster_StageNavModule_exports</title>
<polygon fill="none" stroke="#000000" points="178,-208 178,-260 334,-260 334,-208 178,-208"/>
</g>
<!-- StageNavComponent -->
<g id="node1" class="node">
<title>StageNavComponent</title>
<polygon fill="#ffffb3" stroke="#000000" points="414.7562,-122 279.2438,-122 279.2438,-86 414.7562,-86 414.7562,-122"/>
<text text-anchor="middle" x="347" y="-99.8" font-family="Times,serif" font-size="14.00" fill="#000000">StageNavComponent</text>
</g>
<!-- StageNavModule -->
<g id="node2" class="node">
<title>StageNavModule</title>
<polygon fill="#8dd3c7" stroke="#000000" points="312.9734,-187 309.9734,-191 288.9734,-191 285.9734,-187 199.0266,-187 199.0266,-151 312.9734,-151 312.9734,-187"/>
<text text-anchor="middle" x="256" y="-164.8" font-family="Times,serif" font-size="14.00" fill="#000000">StageNavModule</text>
</g>
<!-- StageNavComponent&#45;&gt;StageNavModule -->
<g id="edge1" class="edge">
<title>StageNavComponent&#45;&gt;StageNavModule</title>
<path fill="none" stroke="#000000" d="M296.0544,-122.1061C296.0544,-122.1061 296.0544,-140.991 296.0544,-140.991"/>
<polygon fill="#000000" stroke="#000000" points="292.5544,-140.9909 296.0544,-150.991 299.5544,-140.991 292.5544,-140.9909"/>
</g>
<!-- StageNavComponent  -->
<g id="node4" class="node">
<title>StageNavComponent </title>
<polygon fill="#fb8072" stroke="#000000" points="325.7562,-252 186.2438,-252 186.2438,-216 325.7562,-216 325.7562,-252"/>
<text text-anchor="middle" x="256" y="-229.8" font-family="Times,serif" font-size="14.00" fill="#000000">StageNavComponent </text>
</g>
<!-- StageNavModule&#45;&gt;StageNavComponent  -->
<g id="edge3" class="edge">
<title>StageNavModule&#45;&gt;StageNavComponent </title>
<path fill="none" stroke="#000000" stroke-dasharray="5,2" d="M256,-187.1061C256,-187.1061 256,-205.991 256,-205.991"/>
<polygon fill="#000000" stroke="#000000" points="252.5001,-205.9909 256,-215.991 259.5001,-205.991 252.5001,-205.9909"/>
</g>
<!-- LabeledSlideToggleModule -->
<g id="node3" class="node">
<title>LabeledSlideToggleModule</title>
<polygon fill="#8dd3c7" stroke="#000000" points="254.573,-122 251.573,-126 230.573,-126 227.573,-122 81.427,-122 81.427,-86 254.573,-86 254.573,-122"/>
<text text-anchor="middle" x="168" y="-99.8" font-family="Times,serif" font-size="14.00" fill="#000000">LabeledSlideToggleModule</text>
</g>
<!-- LabeledSlideToggleModule&#45;&gt;StageNavModule -->
<g id="edge2" class="edge">
<title>LabeledSlideToggleModule&#45;&gt;StageNavModule</title>
<path fill="none" stroke="#000000" d="M226.7749,-122.1061C226.7749,-122.1061 226.7749,-140.991 226.7749,-140.991"/>
<polygon fill="#000000" stroke="#000000" points="223.275,-140.9909 226.7749,-150.991 230.275,-140.991 223.275,-140.9909"/>
</g>
</g>
</svg>
