<?xml version="1.0" encoding="UTF-8" standalone="no"?>
<!DOCTYPE svg PUBLIC "-//W3C//DTD SVG 1.1//EN"
 "http://www.w3.org/Graphics/SVG/1.1/DTD/svg11.dtd">
<!-- Generated by graphviz version 2.47.3 (20210619.1520)
 -->
<!-- Title: dependencies Pages: 1 -->
<svg width="390pt" height="247pt"
 viewBox="0.00 0.00 390.00 246.80" xmlns="http://www.w3.org/2000/svg" xmlns:xlink="http://www.w3.org/1999/xlink">
<g id="graph0" class="graph" transform="scale(1 1) rotate(0) translate(4 242.8)">
<title>dependencies</title>
<polygon fill="white" stroke="transparent" points="-4,4 -4,-242.8 386,-242.8 386,4 -4,4"/>
<text text-anchor="middle" x="191" y="-8.2" font-family="sans-serif" font-size="14.00">dependencies</text>
<g id="clust1" class="cluster">
<title>cluster_StageNavModule</title>
<polygon fill="none" stroke="black" stroke-dasharray="1,5" points="8,-32.8 8,-230.8 374,-230.8 374,-32.8 8,-32.8"/>
</g>
<g id="clust4" class="cluster">
<title>cluster_StageNavModule_imports</title>
<polygon fill="none" stroke="black" points="176,-40.8 176,-92.8 366,-92.8 366,-40.8 176,-40.8"/>
</g>
<g id="clust5" class="cluster">
<title>cluster_StageNavModule_exports</title>
<polygon fill="none" stroke="black" points="104,-170.8 104,-222.8 260,-222.8 260,-170.8 104,-170.8"/>
</g>
<g id="clust2" class="cluster">
<title>cluster_StageNavModule_declarations</title>
<polygon fill="none" stroke="black" points="16,-40.8 16,-92.8 168,-92.8 168,-40.8 16,-40.8"/>
</g>
<!-- StageNavComponent -->
<g id="node1" class="node">
<title>StageNavComponent</title>
<polygon fill="#ffffb3" stroke="black" points="159.76,-84.8 24.24,-84.8 24.24,-48.8 159.76,-48.8 159.76,-84.8"/>
<text text-anchor="middle" x="92" y="-62.6" font-family="Times,serif" font-size="14.00">StageNavComponent</text>
</g>
<!-- StageNavModule -->
<g id="node2" class="node">
<title>StageNavModule</title>
<polygon fill="#8dd3c7" stroke="black" points="238.97,-149.8 235.97,-153.8 214.97,-153.8 211.97,-149.8 125.03,-149.8 125.03,-113.8 238.97,-113.8 238.97,-149.8"/>
<text text-anchor="middle" x="182" y="-127.6" font-family="Times,serif" font-size="14.00">StageNavModule</text>
</g>
<!-- StageNavComponent&#45;&gt;StageNavModule -->
<g id="edge1" class="edge">
<title>StageNavComponent&#45;&gt;StageNavModule</title>
<path fill="none" stroke="black" d="M142.45,-84.91C142.45,-84.91 142.45,-103.79 142.45,-103.79"/>
<polygon fill="black" stroke="black" points="138.95,-103.79 142.45,-113.79 145.95,-103.79 138.95,-103.79"/>
</g>
<!-- StageNavComponent  -->
<g id="node4" class="node">
<title>StageNavComponent </title>
<polygon fill="#fb8072" stroke="black" points="251.76,-214.8 112.24,-214.8 112.24,-178.8 251.76,-178.8 251.76,-214.8"/>
<text text-anchor="middle" x="182" y="-192.6" font-family="Times,serif" font-size="14.00">StageNavComponent </text>
</g>
<!-- StageNavModule&#45;&gt;StageNavComponent  -->
<g id="edge3" class="edge">
<title>StageNavModule&#45;&gt;StageNavComponent </title>
<path fill="none" stroke="black" stroke-dasharray="5,2" d="M182,-149.91C182,-149.91 182,-168.79 182,-168.79"/>
<polygon fill="black" stroke="black" points="178.5,-168.79 182,-178.79 185.5,-168.79 178.5,-168.79"/>
</g>
<!-- LabeledSlideToggleModule -->
<g id="node3" class="node">
<title>LabeledSlideToggleModule</title>
<polygon fill="#8dd3c7" stroke="black" points="357.57,-84.8 354.57,-88.8 333.57,-88.8 330.57,-84.8 184.43,-84.8 184.43,-48.8 357.57,-48.8 357.57,-84.8"/>
<text text-anchor="middle" x="271" y="-62.6" font-family="Times,serif" font-size="14.00">LabeledSlideToggleModule</text>
</g>
<!-- LabeledSlideToggleModule&#45;&gt;StageNavModule -->
<g id="edge2" class="edge">
<title>LabeledSlideToggleModule&#45;&gt;StageNavModule</title>
<path fill="none" stroke="black" d="M211.73,-84.91C211.73,-84.91 211.73,-103.79 211.73,-103.79"/>
<polygon fill="black" stroke="black" points="208.23,-103.79 211.73,-113.79 215.23,-103.79 208.23,-103.79"/>
</g>
</g>
</svg>
