<svg xmlns="http://www.w3.org/2000/svg" viewBox="0 0 30 30"><defs><style>.cls-1{stroke:#000;stroke-miterlimit:10;}</style></defs><g id="approved"><g id="ovary_left" data-name="ovary left"><path class="cls-1" d="M13.53,15.39l6.1-6,.26,1.22s-4.8,2.79-6.17,5.6C13.29,14.86,13.53,15.39,13.53,15.39Z"/><path d="M27.14,2.81c-3.52-.6-3.94,2.85-5.79,3A3.6,3.6,0,0,1,19,5.05l-.87,2.57s1.05,1,1.12,1.67-.57,3.08.39,4.9S22,17.3,22.3,18.64s.07,1.82.77,4.9a11.11,11.11,0,0,0,2.1,4.66h2Z"/><ellipse cx="11.8" cy="18.04" rx="3.53" ry="4.78" transform="translate(-6.5 6.65) rotate(-24.92)"/><path d="M8.35,10.42c1,.86,1.57,1.41,2.19,2a2.73,2.73,0,0,0-2.22.82,4.53,4.53,0,0,0-1.14,1.51A21.52,21.52,0,0,1,4.3,10.87C.28,5,5.77,1.14,12.11,2.27a24.06,24.06,0,0,1,7.51,3.17L18.44,8a15.5,15.5,0,0,0-6.19-3.3C7.88,3.63,3.62,6.27,8.35,10.42Z"/></g></g></svg>