<svg xmlns="http://www.w3.org/2000/svg" viewBox="0 0 30 30"><g id="fallopian_tube_right" data-name="fallopian tube right"><path d="M1.55,3.87c3.27-.56,3.66,2.65,5.38,2.76A3.31,3.31,0,0,0,9.12,6l.8,2.38s-1,.91-1,1.55.53,2.86-.37,4.55S6.36,17.31,6,18.55,6,20.24,5.33,23.1a10.24,10.24,0,0,1-1.95,4.31H1.55Z"/><path d="M21,13.49c-1.11,1-2.06,1-3.11,1.46a3.14,3.14,0,0,1,2.54.94c.65.55,1.8.44,2.14,1.06-.05-1.48,1.79-2.76,2.47-3.75C29.59,6.47,23.3,2,16,3.35A22.14,22.14,0,0,0,8.32,6.43l.73,3a16.45,16.45,0,0,1,6.82-3.34C20.89,4.89,26.37,8.73,21,13.49Z"/><path d="M18.18,14.81c-.06,0-4.76,1-4.76,1-2.33.89-1,1.61,1.72,1.25,2.12-.29,3.89-1,3.85-.55s-3.47,2.28-3.08,2.95,4.21-2.06,4.56-1.41a4.36,4.36,0,0,1,.48,1c.58,1.29,1.14,2.84,1.64,2a2.62,2.62,0,0,0,0-2.45,2.72,2.72,0,0,1,0-1.63L22,15.49Z"/></g></svg>