<svg xmlns="http://www.w3.org/2000/svg" viewBox="0 0 30 30">
    <defs>
        <style>
            .cls-2-placenta{fill:currentColor;stroke:none;stroke-miterlimit:10}
            .cls-1-placenta{fill:#fff}
        </style>
    </defs>
    <g id="Placenta_2" data-name="Placenta 2">
        <path class="cls-2-placenta" d="M27.94 13.63c.77 4.28.93 7.79-2 10.55-2.39 2.24-3.87 3.72-6.5 4.75-3 1.19-8-.71-10.87-1.41-3.91-1-5.27-3.23-6.76-7C.47 17.05.7 10.46 4.31 12.73c6.1 3.84 6.72 4.52 10.12 3.8 8.83-1.88 12.48-8.66 13.51-2.9Z"/>
        <path class="cls-1-placenta" d="M14.21 21.13a9.09 9.09 0 0 0 0 1.12 21.59 21.59 0 0 0 .35 4.59.3.3 0 0 1-.23.36.28.28 0 0 1-.33-.2s0-.08 0-.17a18.52 18.52 0 0 1-.54-3.35c-.12.17-.25.33-.38.5s-.24.36-.34.52c-.27.45-.34 1.73-1.05 1.83-.16 0-.45 0-.47-.17s.25-.33.36-.45c.29-.3.4-1.08.66-1.52l.06-.09a3.53 3.53 0 0 0-1.86.3.29.29 0 0 1-.39-.14.31.31 0 0 1 .14-.41 4.24 4.24 0 0 1 2.23-.35h.26c.29-.38.56-.75.75-1v-.72a4.49 4.49 0 0 1 .21-1.41 9.3 9.3 0 0 1 .75-1.59 6.17 6.17 0 0 0-1.22.9A4.77 4.77 0 0 1 9 21.11H7a.3.3 0 0 1 0-.6 19.37 19.37 0 0 1 2 0c.48 0 1.73-.15 1.73-.15a5.35 5.35 0 0 0 1.47-.65 6.21 6.21 0 0 1-3.43-1.63.32.32 0 0 1 0-.43.3.3 0 0 1 .42 0 5.46 5.46 0 0 0 3.71 1.53 8.15 8.15 0 0 1 2.3-1.48c.09-.12.12-.28.23-.36s.73-.73.93-.51a1.66 1.66 0 0 1 .17.84c-.15.3-.62.25-.86.5A4 4 0 0 0 14.45 20"/>
        <path class="cls-1-placenta" d="M18.27 20.84a11 11 0 0 1 .09 1.16c0 .51 0 1.08.12 1.79a.29.29 0 0 0 .31.24.27.27 0 0 0 .25-.29c-.08-.7-.11-1.26-.13-1.76a4.25 4.25 0 0 0-1.57-3.72 6.39 6.39 0 0 1-.87-1.07 8.43 8.43 0 0 0 1.48.61 4.6 4.6 0 0 0 1.31.12h.27a4.37 4.37 0 0 0 .76-.08c.4-.07 1.43-.37 2-.48a4.4 4.4 0 0 1 1.07 0 .26.26 0 0 0 .19-.33.27.27 0 0 0-.34-.18 16.73 16.73 0 0 1-3.54.39 6.32 6.32 0 0 1-.93-.08A4.26 4.26 0 0 1 22 15.18a.27.27 0 1 0 0-.53A4.85 4.85 0 0 0 18.17 17c-1.14-.35-1.46-.81-1.47-.27 0 .73-.87.61-.76.68a3 3 0 0 0 1 1.19 4.91 4.91 0 0 1-1.23 3.4.22.22 0 0 0-.06.15.25.25 0 0 0 .1.22.29.29 0 0 0 .39 0 5.59 5.59 0 0 0 1.32-3.19 3.22 3.22 0 0 1 .61.95"/>
        <path class="cls-1-placenta" d="M17 15.11a10.47 10.47 0 0 0 .69 1c.69.69-.42 1.66-.93 2a2 2 0 0 1-2.2-.3c-.06-.1 0-.53-.14-1.25Z"/>
        <path class="cls-2-placenta" d="M27.77 5.05a5.21 5.21 0 0 1-.44-2.42 1.49 1.49 0 0 0-.46-1.12 4.64 4.64 0 0 0-3.08-.75.69.69 0 0 0-.69.71.68.68 0 0 0 .74.66 3.5 3.5 0 0 1 2 .36s0 0 0 .09a6.51 6.51 0 0 0 .54 3 2.39 2.39 0 0 1 .25 1C26.61 7.46 25.17 8 24.26 8c-.47 0-.72-.41-1.19-1.29a9.59 9.59 0 0 0-.61-1.06 2.59 2.59 0 0 0-2.71-.68c-1.39.29-2.91 1.24-3.17 2.71-.1.53-.27.58-.33.6a2.81 2.81 0 0 1-1-.06A5 5 0 0 0 14 8.08c-.12 0-.13 0-.17-.08A2.49 2.49 0 0 1 14 6.26c.85-.55.67-1.2.59-1.38-.43-1.06-2.67-1.33-4.07-1.12a5 5 0 0 0-3.14 2 6.69 6.69 0 0 1-.57.6 2.39 2.39 0 0 0-.66 3.22 8.22 8.22 0 0 1 .57 2.31 1.74 1.74 0 0 0 .7 1.32c.86.63 2.15.4 3.18.22a6.61 6.61 0 0 1 .78-.1c.44 0 .46.05.64.5a1.89 1.89 0 0 0 1.53 1.51 2.12 2.12 0 0 1 1.66 2.2c.06.35.73.23 1.11.15s1-.58 1-.93c0-.08-.31-1.61-3.06-2.61h-.15c-.51-.13-.58-.37-.74-.78A1.91 1.91 0 0 0 11.38 12a6.72 6.72 0 0 0-1.07.13c-.64.11-1.7.3-2.06 0 0 0-.12-.08-.14-.34a9.1 9.1 0 0 0-.66-2.65C7.1 8.2 7 8 7.75 7.4a9.68 9.68 0 0 0 .69-.73 3.73 3.73 0 0 1 2.27-1.55 5.31 5.31 0 0 1 2.29.17 3.57 3.57 0 0 0-.49 3.09 1.57 1.57 0 0 0 1.7 1.07 3.73 3.73 0 0 1 .83.08 3.66 3.66 0 0 0 1.68 0A1.91 1.91 0 0 0 18 7.87c.14-.8 1.14-1.4 2.06-1.59.68-.14 1.13 0 1.22.1a7.84 7.84 0 0 1 .52.9c.46.88 1 2 2.38 2.06 1.77.11 3.82-1 3.94-2.67a3.55 3.55 0 0 0-.35-1.62Z"/>
    </g>
</svg>
