<?xml version="1.0" encoding="UTF-8" standalone="no"?>
<!DOCTYPE svg PUBLIC "-//W3C//DTD SVG 1.1//EN"
 "http://www.w3.org/Graphics/SVG/1.1/DTD/svg11.dtd">
<!-- Generated by graphviz version 2.40.1 (20161225.0304)
 -->
<!-- Title: dependencies Pages: 1 -->
<svg width="758pt" height="211pt"
 viewBox="0.00 0.00 758.00 211.00" xmlns="http://www.w3.org/2000/svg" xmlns:xlink="http://www.w3.org/1999/xlink">
<g id="graph0" class="graph" transform="scale(1 1) rotate(0) translate(4 207)">
<title>dependencies</title>
<polygon fill="#ffffff" stroke="transparent" points="-4,4 -4,-207 754,-207 754,4 -4,4"/>
<text text-anchor="start" x="354.0091" y="-42.4" font-family="sans-serif" font-weight="bold" font-size="14.00" fill="#000000">Legend</text>
<polygon fill="#ffffb3" stroke="transparent" points="141,-10 141,-30 161,-30 161,-10 141,-10"/>
<text text-anchor="start" x="164.629" y="-15.4" font-family="sans-serif" font-size="14.00" fill="#000000"> &#160;Declarations</text>
<polygon fill="#8dd3c7" stroke="transparent" points="254,-10 254,-30 274,-30 274,-10 254,-10"/>
<text text-anchor="start" x="277.7251" y="-15.4" font-family="sans-serif" font-size="14.00" fill="#000000"> &#160;Module</text>
<polygon fill="#80b1d3" stroke="transparent" points="340,-10 340,-30 360,-30 360,-10 340,-10"/>
<text text-anchor="start" x="363.7812" y="-15.4" font-family="sans-serif" font-size="14.00" fill="#000000"> &#160;Bootstrap</text>
<polygon fill="#fdb462" stroke="transparent" points="437,-10 437,-30 457,-30 457,-10 437,-10"/>
<text text-anchor="start" x="460.6732" y="-15.4" font-family="sans-serif" font-size="14.00" fill="#000000"> &#160;Providers</text>
<polygon fill="#fb8072" stroke="transparent" points="533,-10 533,-30 553,-30 553,-10 533,-10"/>
<text text-anchor="start" x="556.7258" y="-15.4" font-family="sans-serif" font-size="14.00" fill="#000000"> &#160;Exports</text>
<g id="clust1" class="cluster">
<title>cluster_BodyModule</title>
<polygon fill="none" stroke="#000000" stroke-dasharray="1,5" points="8,-70 8,-195 742,-195 742,-70 8,-70"/>
</g>
<g id="clust2" class="cluster">
<title>cluster_BodyModule_declarations</title>
<polygon fill="none" stroke="#000000" points="606,-78 606,-130 734,-130 734,-78 606,-78"/>
</g>
<g id="clust4" class="cluster">
<title>cluster_BodyModule_imports</title>
<polygon fill="none" stroke="#000000" points="198,-78 198,-130 598,-130 598,-78 198,-78"/>
</g>
<g id="clust7" class="cluster">
<title>cluster_BodyModule_providers</title>
<polygon fill="none" stroke="#000000" points="16,-78 16,-130 190,-130 190,-78 16,-78"/>
</g>
<!-- BodyComponent -->
<g id="node1" class="node">
<title>BodyComponent</title>
<polygon fill="#ffffb3" stroke="#000000" points="725.6695,-122 614.3305,-122 614.3305,-86 725.6695,-86 725.6695,-122"/>
<text text-anchor="middle" x="670" y="-99.8" font-family="Times,serif" font-size="14.00" fill="#000000">BodyComponent</text>
</g>
<!-- BodyModule -->
<g id="node2" class="node">
<title>BodyModule</title>
<polygon fill="#8dd3c7" stroke="#000000" points="430.8865,-187 427.8865,-191 406.8865,-191 403.8865,-187 341.1135,-187 341.1135,-151 430.8865,-151 430.8865,-187"/>
<text text-anchor="middle" x="386" y="-164.8" font-family="Times,serif" font-size="14.00" fill="#000000">BodyModule</text>
</g>
<!-- BodyComponent&#45;&gt;BodyModule -->
<g id="edge1" class="edge">
<title>BodyComponent&#45;&gt;BodyModule</title>
<path fill="none" stroke="#000000" d="M670,-122.2843C670,-143.3211 670,-175 670,-175 670,-175 441.0006,-175 441.0006,-175"/>
<polygon fill="#000000" stroke="#000000" points="441.0007,-171.5001 431.0006,-175 441.0006,-178.5001 441.0007,-171.5001"/>
</g>
<!-- BodyRoutingModule -->
<g id="node3" class="node">
<title>BodyRoutingModule</title>
<polygon fill="#8dd3c7" stroke="#000000" points="589.5042,-122 586.5042,-126 565.5042,-126 562.5042,-122 454.4958,-122 454.4958,-86 589.5042,-86 589.5042,-122"/>
<text text-anchor="middle" x="522" y="-99.8" font-family="Times,serif" font-size="14.00" fill="#000000">BodyRoutingModule</text>
</g>
<!-- BodyRoutingModule&#45;&gt;BodyModule -->
<g id="edge2" class="edge">
<title>BodyRoutingModule&#45;&gt;BodyModule</title>
<path fill="none" stroke="#000000" d="M522,-122.0225C522,-139.3734 522,-163 522,-163 522,-163 440.9084,-163 440.9084,-163"/>
<polygon fill="#000000" stroke="#000000" points="440.9084,-159.5001 430.9084,-163 440.9084,-166.5001 440.9084,-159.5001"/>
</g>
<!-- CalloutModule -->
<g id="node4" class="node">
<title>CalloutModule</title>
<polygon fill="#8dd3c7" stroke="#000000" points="436.2731,-122 433.2731,-126 412.2731,-126 409.2731,-122 335.7269,-122 335.7269,-86 436.2731,-86 436.2731,-122"/>
<text text-anchor="middle" x="386" y="-99.8" font-family="Times,serif" font-size="14.00" fill="#000000">CalloutModule</text>
</g>
<!-- CalloutModule&#45;&gt;BodyModule -->
<g id="edge3" class="edge">
<title>CalloutModule&#45;&gt;BodyModule</title>
<path fill="none" stroke="#000000" d="M386,-122.1061C386,-122.1061 386,-140.991 386,-140.991"/>
<polygon fill="#000000" stroke="#000000" points="382.5001,-140.9909 386,-150.991 389.5001,-140.991 382.5001,-140.9909"/>
</g>
<!-- MetadataModule -->
<g id="node5" class="node">
<title>MetadataModule</title>
<polygon fill="#8dd3c7" stroke="#000000" points="317.6346,-122 314.6346,-126 293.6346,-126 290.6346,-122 206.3654,-122 206.3654,-86 317.6346,-86 317.6346,-122"/>
<text text-anchor="middle" x="262" y="-99.8" font-family="Times,serif" font-size="14.00" fill="#000000">MetadataModule</text>
</g>
<!-- MetadataModule&#45;&gt;BodyModule -->
<g id="edge4" class="edge">
<title>MetadataModule&#45;&gt;BodyModule</title>
<path fill="none" stroke="#000000" d="M262,-122.0225C262,-139.3734 262,-163 262,-163 262,-163 330.8824,-163 330.8824,-163"/>
<polygon fill="#000000" stroke="#000000" points="330.8824,-166.5001 340.8824,-163 330.8823,-159.5001 330.8824,-166.5001"/>
</g>
<!-- BodyDataService -->
<g id="node6" class="node">
<title>BodyDataService</title>
<ellipse fill="#fdb462" stroke="#000000" cx="103" cy="-104" rx="79.2922" ry="18"/>
<text text-anchor="middle" x="103" y="-99.8" font-family="Times,serif" font-size="14.00" fill="#000000">BodyDataService</text>
</g>
<!-- BodyDataService&#45;&gt;BodyModule -->
<g id="edge5" class="edge">
<title>BodyDataService&#45;&gt;BodyModule</title>
<path fill="none" stroke="#000000" d="M103,-122.2843C103,-143.3211 103,-175 103,-175 103,-175 330.8449,-175 330.8449,-175"/>
<polygon fill="#000000" stroke="#000000" points="330.8449,-178.5001 340.8449,-175 330.8448,-171.5001 330.8449,-178.5001"/>
</g>
</g>
</svg>
