<?xml version="1.0" encoding="UTF-8" standalone="no"?>
<!DOCTYPE svg PUBLIC "-//W3C//DTD SVG 1.1//EN"
 "http://www.w3.org/Graphics/SVG/1.1/DTD/svg11.dtd">
<!-- Generated by graphviz version 2.47.3 (20210619.1520)
 -->
<!-- Title: dependencies Pages: 1 -->
<svg width="208pt" height="247pt"
 viewBox="0.00 0.00 208.00 246.80" xmlns="http://www.w3.org/2000/svg" xmlns:xlink="http://www.w3.org/1999/xlink">
<g id="graph0" class="graph" transform="scale(1 1) rotate(0) translate(4 242.8)">
<title>dependencies</title>
<polygon fill="white" stroke="transparent" points="-4,4 -4,-242.8 204,-242.8 204,4 -4,4"/>
<text text-anchor="middle" x="100" y="-8.2" font-family="sans-serif" font-size="14.00">dependencies</text>
<g id="clust1" class="cluster">
<title>cluster_StoreDebugModule</title>
<polygon fill="none" stroke="black" stroke-dasharray="1,5" points="8,-32.8 8,-230.8 192,-230.8 192,-32.8 8,-32.8"/>
</g>
<g id="clust5" class="cluster">
<title>cluster_StoreDebugModule_exports</title>
<polygon fill="none" stroke="black" points="16,-170.8 16,-222.8 184,-222.8 184,-170.8 16,-170.8"/>
</g>
<g id="clust2" class="cluster">
<title>cluster_StoreDebugModule_declarations</title>
<polygon fill="none" stroke="black" points="18,-40.8 18,-92.8 182,-92.8 182,-40.8 18,-40.8"/>
</g>
<!-- StoreDebugComponent -->
<g id="node1" class="node">
<title>StoreDebugComponent</title>
<polygon fill="#ffffb3" stroke="black" points="174.2,-84.8 25.8,-84.8 25.8,-48.8 174.2,-48.8 174.2,-84.8"/>
<text text-anchor="middle" x="100" y="-62.6" font-family="Times,serif" font-size="14.00">StoreDebugComponent</text>
</g>
<!-- StoreDebugModule -->
<g id="node2" class="node">
<title>StoreDebugModule</title>
<polygon fill="#8dd3c7" stroke="black" points="163.42,-149.8 160.42,-153.8 139.42,-153.8 136.42,-149.8 36.58,-149.8 36.58,-113.8 163.42,-113.8 163.42,-149.8"/>
<text text-anchor="middle" x="100" y="-127.6" font-family="Times,serif" font-size="14.00">StoreDebugModule</text>
</g>
<!-- StoreDebugComponent&#45;&gt;StoreDebugModule -->
<g id="edge1" class="edge">
<title>StoreDebugComponent&#45;&gt;StoreDebugModule</title>
<path fill="none" stroke="black" d="M100,-84.91C100,-84.91 100,-103.79 100,-103.79"/>
<polygon fill="black" stroke="black" points="96.5,-103.79 100,-113.79 103.5,-103.79 96.5,-103.79"/>
</g>
<!-- StoreDebugComponent  -->
<g id="node3" class="node">
<title>StoreDebugComponent </title>
<polygon fill="#fb8072" stroke="black" points="175.7,-214.8 24.3,-214.8 24.3,-178.8 175.7,-178.8 175.7,-214.8"/>
<text text-anchor="middle" x="100" y="-192.6" font-family="Times,serif" font-size="14.00">StoreDebugComponent </text>
</g>
<!-- StoreDebugModule&#45;&gt;StoreDebugComponent  -->
<g id="edge2" class="edge">
<title>StoreDebugModule&#45;&gt;StoreDebugComponent </title>
<path fill="none" stroke="black" stroke-dasharray="5,2" d="M100,-149.91C100,-149.91 100,-168.79 100,-168.79"/>
<polygon fill="black" stroke="black" points="96.5,-168.79 100,-178.79 103.5,-168.79 96.5,-168.79"/>
</g>
</g>
</svg>
