<?xml version="1.0" encoding="UTF-8" standalone="no"?>
<!DOCTYPE svg PUBLIC "-//W3C//DTD SVG 1.1//EN"
 "http://www.w3.org/Graphics/SVG/1.1/DTD/svg11.dtd">
<!-- Generated by graphviz version 2.47.0 (20210316.0004)
 -->
<!-- Title: dependencies Pages: 1 -->
<svg width="592pt" height="349pt"
 viewBox="0.00 0.00 592.00 349.00" xmlns="http://www.w3.org/2000/svg" xmlns:xlink="http://www.w3.org/1999/xlink">
<g id="graph0" class="graph" transform="scale(1 1) rotate(0) translate(4 345)">
<title>dependencies</title>
<polygon fill="white" stroke="transparent" points="-4,4 -4,-345 588,-345 588,4 -4,4"/>
<text text-anchor="start" x="271.01" y="-42.4" font-family="Times-12" font-weight="bold" font-size="14.00">Legend</text>
<polygon fill="#ffffb3" stroke="transparent" points="58,-10 58,-30 78,-30 78,-10 58,-10"/>
<text text-anchor="start" x="81.63" y="-15.4" font-family="Times-12" font-size="14.00"> &#160;Declarations</text>
<polygon fill="#8dd3c7" stroke="transparent" points="171,-10 171,-30 191,-30 191,-10 171,-10"/>
<text text-anchor="start" x="194.73" y="-15.4" font-family="Times-12" font-size="14.00"> &#160;Module</text>
<polygon fill="#80b1d3" stroke="transparent" points="257,-10 257,-30 277,-30 277,-10 257,-10"/>
<text text-anchor="start" x="280.78" y="-15.4" font-family="Times-12" font-size="14.00"> &#160;Bootstrap</text>
<polygon fill="#fdb462" stroke="transparent" points="354,-10 354,-30 374,-30 374,-10 354,-10"/>
<text text-anchor="start" x="377.67" y="-15.4" font-family="Times-12" font-size="14.00"> &#160;Providers</text>
<polygon fill="#fb8072" stroke="transparent" points="450,-10 450,-30 470,-30 470,-10 450,-10"/>
<text text-anchor="start" x="473.73" y="-15.4" font-family="Times-12" font-size="14.00"> &#160;Exports</text>
<g id="clust1" class="cluster">
<title>cluster_OntologySelectionModule</title>
<polygon fill="none" stroke="black" stroke-dasharray="1,5" points="8,-70 8,-333 576,-333 576,-70 8,-70"/>
</g>
<g id="clust4" class="cluster">
<title>cluster_OntologySelectionModule_imports</title>
<polygon fill="none" stroke="black" points="246,-143 246,-195 568,-195 568,-143 246,-143"/>
</g>
<g id="clust5" class="cluster">
<title>cluster_OntologySelectionModule_exports</title>
<polygon fill="none" stroke="black" points="220,-273 220,-325 426,-325 426,-273 220,-273"/>
</g>
<g id="clust3" class="cluster">
<title>cluster_OntologySelectionModule_OntologySelectionComponent_providers</title>
<polygon fill="none" stroke="black" points="16,-78 16,-195 238,-195 238,-78 16,-78"/>
</g>
<!-- OntologySelectionComponent -->
<g id="node1" class="node">
<title>OntologySelectionComponent</title>
<polygon fill="#ffffb3" stroke="black" points="225.32,-187 38.68,-187 38.68,-151 225.32,-151 225.32,-187"/>
<text text-anchor="middle" x="132" y="-164.8" font-family="Times,serif" font-size="14.00">OntologySelectionComponent</text>
</g>
<!-- OntologySelectionModule -->
<g id="node2" class="node">
<title>OntologySelectionModule</title>
<polygon fill="#8dd3c7" stroke="black" points="405.04,-252 402.04,-256 381.04,-256 378.04,-252 240.96,-252 240.96,-216 405.04,-216 405.04,-252"/>
<text text-anchor="middle" x="323" y="-229.8" font-family="Times,serif" font-size="14.00">OntologySelectionModule</text>
</g>
<!-- OntologySelectionComponent&#45;&gt;OntologySelectionModule -->
<g id="edge1" class="edge">
<title>OntologySelectionComponent&#45;&gt;OntologySelectionModule</title>
<path fill="none" stroke="black" d="M225.38,-169C238.35,-169 247.35,-169 247.35,-169 247.35,-169 247.35,-205.89 247.35,-205.89"/>
<polygon fill="black" stroke="black" points="243.85,-205.89 247.35,-215.89 250.85,-205.89 243.85,-205.89"/>
</g>
<!-- OntologySelectionComponent  -->
<g id="node6" class="node">
<title>OntologySelectionComponent </title>
<polygon fill="#fb8072" stroke="black" points="417.82,-317 228.18,-317 228.18,-281 417.82,-281 417.82,-317"/>
<text text-anchor="middle" x="323" y="-294.8" font-family="Times,serif" font-size="14.00">OntologySelectionComponent </text>
</g>
<!-- OntologySelectionModule&#45;&gt;OntologySelectionComponent  -->
<g id="edge5" class="edge">
<title>OntologySelectionModule&#45;&gt;OntologySelectionComponent </title>
<path fill="none" stroke="black" stroke-dasharray="5,2" d="M323,-252.11C323,-252.11 323,-270.99 323,-270.99"/>
<polygon fill="black" stroke="black" points="319.5,-270.99 323,-280.99 326.5,-270.99 319.5,-270.99"/>
</g>
<!-- OntologySearchService -->
<g id="node3" class="node">
<title>OntologySearchService</title>
<ellipse fill="#fdb462" stroke="black" cx="127" cy="-104" rx="102.99" ry="18"/>
<text text-anchor="middle" x="127" y="-99.8" font-family="Times,serif" font-size="14.00">OntologySearchService</text>
</g>
<!-- OntologySearchService&#45;&gt;OntologySelectionComponent -->
<g id="edge2" class="edge">
<title>OntologySearchService&#45;&gt;OntologySelectionComponent</title>
<path fill="none" stroke="black" d="M132,-122.11C132,-122.11 132,-140.99 132,-140.99"/>
<polygon fill="black" stroke="black" points="128.5,-140.99 132,-150.99 135.5,-140.99 128.5,-140.99"/>
</g>
<!-- OntologySearchModule -->
<g id="node4" class="node">
<title>OntologySearchModule</title>
<polygon fill="#8dd3c7" stroke="black" points="560.03,-187 557.03,-191 536.03,-191 533.03,-187 409.97,-187 409.97,-151 560.03,-151 560.03,-187"/>
<text text-anchor="middle" x="485" y="-164.8" font-family="Times,serif" font-size="14.00">OntologySearchModule</text>
</g>
<!-- OntologySearchModule&#45;&gt;OntologySelectionModule -->
<g id="edge3" class="edge">
<title>OntologySearchModule&#45;&gt;OntologySelectionModule</title>
<path fill="none" stroke="black" d="M413.82,-187.11C413.82,-206.34 413.82,-234 413.82,-234 413.82,-234 412.95,-234 412.95,-234"/>
<polygon fill="black" stroke="black" points="415.11,-230.5 405.11,-234 415.11,-237.5 415.11,-230.5"/>
</g>
<!-- OntologyTreeModule -->
<g id="node5" class="node">
<title>OntologyTreeModule</title>
<polygon fill="#8dd3c7" stroke="black" points="392.08,-187 389.08,-191 368.08,-191 365.08,-187 253.92,-187 253.92,-151 392.08,-151 392.08,-187"/>
<text text-anchor="middle" x="323" y="-164.8" font-family="Times,serif" font-size="14.00">OntologyTreeModule</text>
</g>
<!-- OntologyTreeModule&#45;&gt;OntologySelectionModule -->
<g id="edge4" class="edge">
<title>OntologyTreeModule&#45;&gt;OntologySelectionModule</title>
<path fill="none" stroke="black" d="M323,-187.11C323,-187.11 323,-205.99 323,-205.99"/>
<polygon fill="black" stroke="black" points="319.5,-205.99 323,-215.99 326.5,-205.99 319.5,-205.99"/>
</g>
</g>
</svg>
