<?xml version="1.0" encoding="UTF-8" standalone="no"?>
<!DOCTYPE svg PUBLIC "-//W3C//DTD SVG 1.1//EN"
 "http://www.w3.org/Graphics/SVG/1.1/DTD/svg11.dtd">
<!-- Generated by graphviz version 2.47.0 (20210316.0004)
 -->
<!-- Title: dependencies Pages: 1 -->
<svg width="572pt" height="349pt"
 viewBox="0.00 0.00 572.00 349.00" xmlns="http://www.w3.org/2000/svg" xmlns:xlink="http://www.w3.org/1999/xlink">
<g id="graph0" class="graph" transform="scale(1 1) rotate(0) translate(4 345)">
<title>dependencies</title>
<polygon fill="white" stroke="transparent" points="-4,4 -4,-345 568,-345 568,4 -4,4"/>
<text text-anchor="start" x="261.01" y="-42.4" font-family="Times-12" font-weight="bold" font-size="14.00">Legend</text>
<polygon fill="#ffffb3" stroke="transparent" points="48,-10 48,-30 68,-30 68,-10 48,-10"/>
<text text-anchor="start" x="71.63" y="-15.4" font-family="Times-12" font-size="14.00"> &#160;Declarations</text>
<polygon fill="#8dd3c7" stroke="transparent" points="161,-10 161,-30 181,-30 181,-10 161,-10"/>
<text text-anchor="start" x="184.73" y="-15.4" font-family="Times-12" font-size="14.00"> &#160;Module</text>
<polygon fill="#80b1d3" stroke="transparent" points="247,-10 247,-30 267,-30 267,-10 247,-10"/>
<text text-anchor="start" x="270.78" y="-15.4" font-family="Times-12" font-size="14.00"> &#160;Bootstrap</text>
<polygon fill="#fdb462" stroke="transparent" points="344,-10 344,-30 364,-30 364,-10 344,-10"/>
<text text-anchor="start" x="367.67" y="-15.4" font-family="Times-12" font-size="14.00"> &#160;Providers</text>
<polygon fill="#fb8072" stroke="transparent" points="440,-10 440,-30 460,-30 460,-10 440,-10"/>
<text text-anchor="start" x="463.73" y="-15.4" font-family="Times-12" font-size="14.00"> &#160;Exports</text>
<g id="clust1" class="cluster">
<title>cluster_OntologySelectionModule</title>
<polygon fill="none" stroke="black" stroke-dasharray="1,5" points="8,-70 8,-333 556,-333 556,-70 8,-70"/>
</g>
<g id="clust5" class="cluster">
<title>cluster_OntologySelectionModule_exports</title>
<polygon fill="none" stroke="black" points="152,-273 152,-325 358,-325 358,-273 152,-273"/>
</g>
<g id="clust2" class="cluster">
<title>cluster_OntologySelectionModule_declarations</title>
<polygon fill="none" stroke="black" points="346,-143 346,-195 548,-195 548,-143 346,-143"/>
</g>
<g id="clust3" class="cluster">
<title>cluster_OntologySelectionModule_OntologySelectionComponent_providers</title>
<polygon fill="none" stroke="black" points="326,-78 326,-130 548,-130 548,-78 326,-78"/>
</g>
<g id="clust4" class="cluster">
<title>cluster_OntologySelectionModule_imports</title>
<polygon fill="none" stroke="black" points="16,-143 16,-195 338,-195 338,-143 16,-143"/>
</g>
<!-- OntologySelectionComponent -->
<g id="node1" class="node">
<title>OntologySelectionComponent</title>
<polygon fill="#ffffb3" stroke="black" points="540.32,-187 353.68,-187 353.68,-151 540.32,-151 540.32,-187"/>
<text text-anchor="middle" x="447" y="-164.8" font-family="Times,serif" font-size="14.00">OntologySelectionComponent</text>
</g>
<!-- OntologySelectionModule -->
<g id="node2" class="node">
<title>OntologySelectionModule</title>
<polygon fill="#8dd3c7" stroke="black" points="337.04,-252 334.04,-256 313.04,-256 310.04,-252 172.96,-252 172.96,-216 337.04,-216 337.04,-252"/>
<text text-anchor="middle" x="255" y="-229.8" font-family="Times,serif" font-size="14.00">OntologySelectionModule</text>
</g>
<!-- OntologySelectionComponent&#45;&gt;OntologySelectionModule -->
<g id="edge1" class="edge">
<title>OntologySelectionComponent&#45;&gt;OntologySelectionModule</title>
<path fill="none" stroke="black" d="M447,-187.11C447,-206.34 447,-234 447,-234 447,-234 347.26,-234 347.26,-234"/>
<polygon fill="black" stroke="black" points="347.26,-230.5 337.26,-234 347.26,-237.5 347.26,-230.5"/>
</g>
<!-- OntologySelectionComponent  -->
<g id="node6" class="node">
<title>OntologySelectionComponent </title>
<polygon fill="#fb8072" stroke="black" points="349.82,-317 160.18,-317 160.18,-281 349.82,-281 349.82,-317"/>
<text text-anchor="middle" x="255" y="-294.8" font-family="Times,serif" font-size="14.00">OntologySelectionComponent </text>
</g>
<!-- OntologySelectionModule&#45;&gt;OntologySelectionComponent  -->
<g id="edge5" class="edge">
<title>OntologySelectionModule&#45;&gt;OntologySelectionComponent </title>
<path fill="none" stroke="black" stroke-dasharray="5,2" d="M255,-252.11C255,-252.11 255,-270.99 255,-270.99"/>
<polygon fill="black" stroke="black" points="251.5,-270.99 255,-280.99 258.5,-270.99 251.5,-270.99"/>
</g>
<!-- OntologySearchService -->
<g id="node3" class="node">
<title>OntologySearchService</title>
<ellipse fill="#fdb462" stroke="black" cx="437" cy="-104" rx="102.99" ry="18"/>
<text text-anchor="middle" x="437" y="-99.8" font-family="Times,serif" font-size="14.00">OntologySearchService</text>
</g>
<!-- OntologySearchService&#45;&gt;OntologySelectionComponent -->
<g id="edge2" class="edge">
<title>OntologySearchService&#45;&gt;OntologySelectionComponent</title>
<path fill="none" stroke="black" d="M446.79,-122.11C446.79,-122.11 446.79,-140.99 446.79,-140.99"/>
<polygon fill="black" stroke="black" points="443.29,-140.99 446.79,-150.99 450.29,-140.99 443.29,-140.99"/>
</g>
<!-- OntologySearchModule -->
<g id="node4" class="node">
<title>OntologySearchModule</title>
<polygon fill="#8dd3c7" stroke="black" points="330.03,-187 327.03,-191 306.03,-191 303.03,-187 179.97,-187 179.97,-151 330.03,-151 330.03,-187"/>
<text text-anchor="middle" x="255" y="-164.8" font-family="Times,serif" font-size="14.00">OntologySearchModule</text>
</g>
<!-- OntologySearchModule&#45;&gt;OntologySelectionModule -->
<g id="edge3" class="edge">
<title>OntologySearchModule&#45;&gt;OntologySelectionModule</title>
<path fill="none" stroke="black" d="M255,-187.11C255,-187.11 255,-205.99 255,-205.99"/>
<polygon fill="black" stroke="black" points="251.5,-205.99 255,-215.99 258.5,-205.99 251.5,-205.99"/>
</g>
<!-- OntologyTreeModule -->
<g id="node5" class="node">
<title>OntologyTreeModule</title>
<polygon fill="#8dd3c7" stroke="black" points="162.08,-187 159.08,-191 138.08,-191 135.08,-187 23.92,-187 23.92,-151 162.08,-151 162.08,-187"/>
<text text-anchor="middle" x="93" y="-164.8" font-family="Times,serif" font-size="14.00">OntologyTreeModule</text>
</g>
<!-- OntologyTreeModule&#45;&gt;OntologySelectionModule -->
<g id="edge4" class="edge">
<title>OntologyTreeModule&#45;&gt;OntologySelectionModule</title>
<path fill="none" stroke="black" d="M162.12,-169C170.53,-169 176.23,-169 176.23,-169 176.23,-169 176.23,-205.89 176.23,-205.89"/>
<polygon fill="black" stroke="black" points="172.73,-205.89 176.23,-215.89 179.73,-205.89 172.73,-205.89"/>
</g>
</g>
</svg>
