<?xml version="1.0" encoding="UTF-8" standalone="no"?>
<!DOCTYPE svg PUBLIC "-//W3C//DTD SVG 1.1//EN"
 "http://www.w3.org/Graphics/SVG/1.1/DTD/svg11.dtd">
<!-- Generated by graphviz version 2.47.3 (20210619.1520)
 -->
<!-- Title: dependencies Pages: 1 -->
<svg width="572pt" height="312pt"
 viewBox="0.00 0.00 572.00 311.80" xmlns="http://www.w3.org/2000/svg" xmlns:xlink="http://www.w3.org/1999/xlink">
<g id="graph0" class="graph" transform="scale(1 1) rotate(0) translate(4 307.8)">
<title>dependencies</title>
<polygon fill="white" stroke="transparent" points="-4,4 -4,-307.8 568,-307.8 568,4 -4,4"/>
<text text-anchor="middle" x="282" y="-8.2" font-family="sans-serif" font-size="14.00">dependencies</text>
<g id="clust1" class="cluster">
<title>cluster_OntologySelectionModule</title>
<polygon fill="none" stroke="black" stroke-dasharray="1,5" points="8,-32.8 8,-295.8 556,-295.8 556,-32.8 8,-32.8"/>
</g>
<g id="clust2" class="cluster">
<title>cluster_OntologySelectionModule_declarations</title>
<polygon fill="none" stroke="black" points="16,-105.8 16,-157.8 218,-157.8 218,-105.8 16,-105.8"/>
</g>
<g id="clust4" class="cluster">
<title>cluster_OntologySelectionModule_imports</title>
<polygon fill="none" stroke="black" points="226,-105.8 226,-157.8 548,-157.8 548,-105.8 226,-105.8"/>
</g>
<g id="clust5" class="cluster">
<title>cluster_OntologySelectionModule_exports</title>
<polygon fill="none" stroke="black" points="200,-235.8 200,-287.8 406,-287.8 406,-235.8 200,-235.8"/>
</g>
<g id="clust3" class="cluster">
<title>cluster_OntologySelectionModule_OntologySelectionComponent_providers</title>
<polygon fill="none" stroke="black" points="16,-40.8 16,-92.8 238,-92.8 238,-40.8 16,-40.8"/>
</g>
<!-- OntologySelectionComponent -->
<g id="node1" class="node">
<title>OntologySelectionComponent</title>
<polygon fill="#ffffb3" stroke="black" points="210.32,-149.8 23.68,-149.8 23.68,-113.8 210.32,-113.8 210.32,-149.8"/>
<text text-anchor="middle" x="117" y="-127.6" font-family="Times,serif" font-size="14.00">OntologySelectionComponent</text>
</g>
<!-- OntologySelectionModule -->
<g id="node2" class="node">
<title>OntologySelectionModule</title>
<polygon fill="#8dd3c7" stroke="black" points="385.04,-214.8 382.04,-218.8 361.04,-218.8 358.04,-214.8 220.96,-214.8 220.96,-178.8 385.04,-178.8 385.04,-214.8"/>
<text text-anchor="middle" x="303" y="-192.6" font-family="Times,serif" font-size="14.00">OntologySelectionModule</text>
</g>
<!-- OntologySelectionComponent&#45;&gt;OntologySelectionModule -->
<g id="edge1" class="edge">
<title>OntologySelectionComponent&#45;&gt;OntologySelectionModule</title>
<path fill="none" stroke="black" d="M210.19,-131.8C219.29,-131.8 225.24,-131.8 225.24,-131.8 225.24,-131.8 225.24,-168.69 225.24,-168.69"/>
<polygon fill="black" stroke="black" points="221.74,-168.69 225.24,-178.69 228.74,-168.69 221.74,-168.69"/>
</g>
<!-- OntologySelectionComponent  -->
<g id="node6" class="node">
<title>OntologySelectionComponent </title>
<polygon fill="#fb8072" stroke="black" points="397.82,-279.8 208.18,-279.8 208.18,-243.8 397.82,-243.8 397.82,-279.8"/>
<text text-anchor="middle" x="303" y="-257.6" font-family="Times,serif" font-size="14.00">OntologySelectionComponent </text>
</g>
<!-- OntologySelectionModule&#45;&gt;OntologySelectionComponent  -->
<g id="edge5" class="edge">
<title>OntologySelectionModule&#45;&gt;OntologySelectionComponent </title>
<path fill="none" stroke="black" stroke-dasharray="5,2" d="M303,-214.91C303,-214.91 303,-233.79 303,-233.79"/>
<polygon fill="black" stroke="black" points="299.5,-233.79 303,-243.79 306.5,-233.79 299.5,-233.79"/>
</g>
<!-- OntologySearchService -->
<g id="node3" class="node">
<title>OntologySearchService</title>
<ellipse fill="#fdb462" stroke="black" cx="127" cy="-66.8" rx="102.99" ry="18"/>
<text text-anchor="middle" x="127" y="-62.6" font-family="Times,serif" font-size="14.00">OntologySearchService</text>
</g>
<!-- OntologySearchService&#45;&gt;OntologySelectionComponent -->
<g id="edge2" class="edge">
<title>OntologySearchService&#45;&gt;OntologySelectionComponent</title>
<path fill="none" stroke="black" d="M117.21,-84.91C117.21,-84.91 117.21,-103.79 117.21,-103.79"/>
<polygon fill="black" stroke="black" points="113.71,-103.79 117.21,-113.79 120.71,-103.79 113.71,-103.79"/>
</g>
<!-- OntologySearchModule -->
<g id="node4" class="node">
<title>OntologySearchModule</title>
<polygon fill="#8dd3c7" stroke="black" points="540.03,-149.8 537.03,-153.8 516.03,-153.8 513.03,-149.8 389.97,-149.8 389.97,-113.8 540.03,-113.8 540.03,-149.8"/>
<text text-anchor="middle" x="465" y="-127.6" font-family="Times,serif" font-size="14.00">OntologySearchModule</text>
</g>
<!-- OntologySearchModule&#45;&gt;OntologySelectionModule -->
<g id="edge3" class="edge">
<title>OntologySearchModule&#45;&gt;OntologySelectionModule</title>
<path fill="none" stroke="black" d="M393.82,-149.91C393.82,-169.14 393.82,-196.8 393.82,-196.8 393.82,-196.8 392.95,-196.8 392.95,-196.8"/>
<polygon fill="black" stroke="black" points="395.11,-193.3 385.11,-196.8 395.11,-200.3 395.11,-193.3"/>
</g>
<!-- OntologyTreeModule -->
<g id="node5" class="node">
<title>OntologyTreeModule</title>
<polygon fill="#8dd3c7" stroke="black" points="372.08,-149.8 369.08,-153.8 348.08,-153.8 345.08,-149.8 233.92,-149.8 233.92,-113.8 372.08,-113.8 372.08,-149.8"/>
<text text-anchor="middle" x="303" y="-127.6" font-family="Times,serif" font-size="14.00">OntologyTreeModule</text>
</g>
<!-- OntologyTreeModule&#45;&gt;OntologySelectionModule -->
<g id="edge4" class="edge">
<title>OntologyTreeModule&#45;&gt;OntologySelectionModule</title>
<path fill="none" stroke="black" d="M303,-149.91C303,-149.91 303,-168.79 303,-168.79"/>
<polygon fill="black" stroke="black" points="299.5,-168.79 303,-178.79 306.5,-168.79 299.5,-168.79"/>
</g>
</g>
</svg>
