<?xml version="1.0" encoding="UTF-8" standalone="no"?>
<!DOCTYPE svg PUBLIC "-//W3C//DTD SVG 1.1//EN"
 "http://www.w3.org/Graphics/SVG/1.1/DTD/svg11.dtd">
<!-- Generated by graphviz version 2.47.3 (20210619.1520)
 -->
<!-- Title: dependencies Pages: 1 -->
<svg width="592pt" height="312pt"
 viewBox="0.00 0.00 592.00 311.80" xmlns="http://www.w3.org/2000/svg" xmlns:xlink="http://www.w3.org/1999/xlink">
<g id="graph0" class="graph" transform="scale(1 1) rotate(0) translate(4 307.8)">
<title>dependencies</title>
<polygon fill="white" stroke="transparent" points="-4,4 -4,-307.8 588,-307.8 588,4 -4,4"/>
<text text-anchor="middle" x="292" y="-8.2" font-family="sans-serif" font-size="14.00">dependencies</text>
<g id="clust1" class="cluster">
<title>cluster_OntologySelectionModule</title>
<polygon fill="none" stroke="black" stroke-dasharray="1,5" points="8,-32.8 8,-295.8 576,-295.8 576,-32.8 8,-32.8"/>
</g>
<g id="clust3" class="cluster">
<title>cluster_OntologySelectionModule_OntologySelectionComponent_providers</title>
<polygon fill="none" stroke="black" points="346,-40.8 346,-157.8 568,-157.8 568,-40.8 346,-40.8"/>
</g>
<g id="clust4" class="cluster">
<title>cluster_OntologySelectionModule_imports</title>
<polygon fill="none" stroke="black" points="16,-105.8 16,-157.8 338,-157.8 338,-105.8 16,-105.8"/>
</g>
<g id="clust5" class="cluster">
<title>cluster_OntologySelectionModule_exports</title>
<polygon fill="none" stroke="black" points="152,-235.8 152,-287.8 358,-287.8 358,-235.8 152,-235.8"/>
</g>
<!-- OntologySelectionComponent -->
<g id="node1" class="node">
<title>OntologySelectionComponent</title>
<polygon fill="#ffffb3" stroke="black" points="545.32,-149.8 358.68,-149.8 358.68,-113.8 545.32,-113.8 545.32,-149.8"/>
<text text-anchor="middle" x="452" y="-127.6" font-family="Times,serif" font-size="14.00">OntologySelectionComponent</text>
</g>
<!-- OntologySelectionModule -->
<g id="node2" class="node">
<title>OntologySelectionModule</title>
<polygon fill="#8dd3c7" stroke="black" points="337.04,-214.8 334.04,-218.8 313.04,-218.8 310.04,-214.8 172.96,-214.8 172.96,-178.8 337.04,-178.8 337.04,-214.8"/>
<text text-anchor="middle" x="255" y="-192.6" font-family="Times,serif" font-size="14.00">OntologySelectionModule</text>
</g>
<!-- OntologySelectionComponent&#45;&gt;OntologySelectionModule -->
<g id="edge1" class="edge">
<title>OntologySelectionComponent&#45;&gt;OntologySelectionModule</title>
<path fill="none" stroke="black" d="M358.84,-131.8C344.19,-131.8 333.77,-131.8 333.77,-131.8 333.77,-131.8 333.77,-168.69 333.77,-168.69"/>
<polygon fill="black" stroke="black" points="330.27,-168.69 333.77,-178.69 337.27,-168.69 330.27,-168.69"/>
</g>
<!-- OntologySelectionComponent  -->
<g id="node6" class="node">
<title>OntologySelectionComponent </title>
<polygon fill="#fb8072" stroke="black" points="349.82,-279.8 160.18,-279.8 160.18,-243.8 349.82,-243.8 349.82,-279.8"/>
<text text-anchor="middle" x="255" y="-257.6" font-family="Times,serif" font-size="14.00">OntologySelectionComponent </text>
</g>
<!-- OntologySelectionModule&#45;&gt;OntologySelectionComponent  -->
<g id="edge5" class="edge">
<title>OntologySelectionModule&#45;&gt;OntologySelectionComponent </title>
<path fill="none" stroke="black" stroke-dasharray="5,2" d="M255,-214.91C255,-214.91 255,-233.79 255,-233.79"/>
<polygon fill="black" stroke="black" points="251.5,-233.79 255,-243.79 258.5,-233.79 251.5,-233.79"/>
</g>
<!-- OntologySearchService -->
<g id="node3" class="node">
<title>OntologySearchService</title>
<ellipse fill="#fdb462" stroke="black" cx="457" cy="-66.8" rx="102.99" ry="18"/>
<text text-anchor="middle" x="457" y="-62.6" font-family="Times,serif" font-size="14.00">OntologySearchService</text>
</g>
<!-- OntologySearchService&#45;&gt;OntologySelectionComponent -->
<g id="edge2" class="edge">
<title>OntologySearchService&#45;&gt;OntologySelectionComponent</title>
<path fill="none" stroke="black" d="M452,-84.91C452,-84.91 452,-103.79 452,-103.79"/>
<polygon fill="black" stroke="black" points="448.5,-103.79 452,-113.79 455.5,-103.79 448.5,-103.79"/>
</g>
<!-- OntologySearchModule -->
<g id="node4" class="node">
<title>OntologySearchModule</title>
<polygon fill="#8dd3c7" stroke="black" points="330.03,-149.8 327.03,-153.8 306.03,-153.8 303.03,-149.8 179.97,-149.8 179.97,-113.8 330.03,-113.8 330.03,-149.8"/>
<text text-anchor="middle" x="255" y="-127.6" font-family="Times,serif" font-size="14.00">OntologySearchModule</text>
</g>
<!-- OntologySearchModule&#45;&gt;OntologySelectionModule -->
<g id="edge3" class="edge">
<title>OntologySearchModule&#45;&gt;OntologySelectionModule</title>
<path fill="none" stroke="black" d="M255,-149.91C255,-149.91 255,-168.79 255,-168.79"/>
<polygon fill="black" stroke="black" points="251.5,-168.79 255,-178.79 258.5,-168.79 251.5,-168.79"/>
</g>
<!-- OntologyTreeModule -->
<g id="node5" class="node">
<title>OntologyTreeModule</title>
<polygon fill="#8dd3c7" stroke="black" points="162.08,-149.8 159.08,-153.8 138.08,-153.8 135.08,-149.8 23.92,-149.8 23.92,-113.8 162.08,-113.8 162.08,-149.8"/>
<text text-anchor="middle" x="93" y="-127.6" font-family="Times,serif" font-size="14.00">OntologyTreeModule</text>
</g>
<!-- OntologyTreeModule&#45;&gt;OntologySelectionModule -->
<g id="edge4" class="edge">
<title>OntologyTreeModule&#45;&gt;OntologySelectionModule</title>
<path fill="none" stroke="black" d="M162.12,-131.8C170.53,-131.8 176.23,-131.8 176.23,-131.8 176.23,-131.8 176.23,-168.69 176.23,-168.69"/>
<polygon fill="black" stroke="black" points="172.73,-168.69 176.23,-178.69 179.73,-168.69 172.73,-168.69"/>
</g>
</g>
</svg>
