<?xml version="1.0" encoding="UTF-8" standalone="no"?>
<!DOCTYPE svg PUBLIC "-//W3C//DTD SVG 1.1//EN"
 "http://www.w3.org/Graphics/SVG/1.1/DTD/svg11.dtd">
<!-- Generated by graphviz version 2.47.0 (20210316.0004)
 -->
<!-- Title: dependencies Pages: 1 -->
<svg width="572pt" height="349pt"
 viewBox="0.00 0.00 572.00 349.00" xmlns="http://www.w3.org/2000/svg" xmlns:xlink="http://www.w3.org/1999/xlink">
<g id="graph0" class="graph" transform="scale(1 1) rotate(0) translate(4 345)">
<title>dependencies</title>
<polygon fill="white" stroke="transparent" points="-4,4 -4,-345 568,-345 568,4 -4,4"/>
<text text-anchor="start" x="261.01" y="-42.4" font-family="Times-12" font-weight="bold" font-size="14.00">Legend</text>
<polygon fill="#ffffb3" stroke="transparent" points="48,-10 48,-30 68,-30 68,-10 48,-10"/>
<text text-anchor="start" x="71.63" y="-15.4" font-family="Times-12" font-size="14.00"> &#160;Declarations</text>
<polygon fill="#8dd3c7" stroke="transparent" points="161,-10 161,-30 181,-30 181,-10 161,-10"/>
<text text-anchor="start" x="184.73" y="-15.4" font-family="Times-12" font-size="14.00"> &#160;Module</text>
<polygon fill="#80b1d3" stroke="transparent" points="247,-10 247,-30 267,-30 267,-10 247,-10"/>
<text text-anchor="start" x="270.78" y="-15.4" font-family="Times-12" font-size="14.00"> &#160;Bootstrap</text>
<polygon fill="#fdb462" stroke="transparent" points="344,-10 344,-30 364,-30 364,-10 344,-10"/>
<text text-anchor="start" x="367.67" y="-15.4" font-family="Times-12" font-size="14.00"> &#160;Providers</text>
<polygon fill="#fb8072" stroke="transparent" points="440,-10 440,-30 460,-30 460,-10 440,-10"/>
<text text-anchor="start" x="463.73" y="-15.4" font-family="Times-12" font-size="14.00"> &#160;Exports</text>
<g id="clust1" class="cluster">
<title>cluster_OntologySelectionModule</title>
<polygon fill="none" stroke="black" stroke-dasharray="1,5" points="8,-70 8,-333 556,-333 556,-70 8,-70"/>
</g>
<g id="clust4" class="cluster">
<title>cluster_OntologySelectionModule_imports</title>
<polygon fill="none" stroke="black" points="226,-143 226,-195 548,-195 548,-143 226,-143"/>
</g>
<g id="clust5" class="cluster">
<title>cluster_OntologySelectionModule_exports</title>
<polygon fill="none" stroke="black" points="200,-273 200,-325 406,-325 406,-273 200,-273"/>
</g>
<g id="clust2" class="cluster">
<title>cluster_OntologySelectionModule_declarations</title>
<polygon fill="none" stroke="black" points="16,-143 16,-195 218,-195 218,-143 16,-143"/>
</g>
<g id="clust3" class="cluster">
<title>cluster_OntologySelectionModule_OntologySelectionComponent_providers</title>
<polygon fill="none" stroke="black" points="16,-78 16,-130 238,-130 238,-78 16,-78"/>
</g>
<!-- OntologySelectionComponent -->
<g id="node1" class="node">
<title>OntologySelectionComponent</title>
<polygon fill="#ffffb3" stroke="black" points="210.32,-187 23.68,-187 23.68,-151 210.32,-151 210.32,-187"/>
<text text-anchor="middle" x="117" y="-164.8" font-family="Times,serif" font-size="14.00">OntologySelectionComponent</text>
</g>
<!-- OntologySelectionModule -->
<g id="node2" class="node">
<title>OntologySelectionModule</title>
<polygon fill="#8dd3c7" stroke="black" points="385.04,-252 382.04,-256 361.04,-256 358.04,-252 220.96,-252 220.96,-216 385.04,-216 385.04,-252"/>
<text text-anchor="middle" x="303" y="-229.8" font-family="Times,serif" font-size="14.00">OntologySelectionModule</text>
</g>
<!-- OntologySelectionComponent&#45;&gt;OntologySelectionModule -->
<g id="edge1" class="edge">
<title>OntologySelectionComponent&#45;&gt;OntologySelectionModule</title>
<path fill="none" stroke="black" d="M210.19,-169C219.29,-169 225.24,-169 225.24,-169 225.24,-169 225.24,-205.89 225.24,-205.89"/>
<polygon fill="black" stroke="black" points="221.74,-205.89 225.24,-215.89 228.74,-205.89 221.74,-205.89"/>
</g>
<!-- OntologySelectionComponent  -->
<g id="node6" class="node">
<title>OntologySelectionComponent </title>
<polygon fill="#fb8072" stroke="black" points="397.82,-317 208.18,-317 208.18,-281 397.82,-281 397.82,-317"/>
<text text-anchor="middle" x="303" y="-294.8" font-family="Times,serif" font-size="14.00">OntologySelectionComponent </text>
</g>
<!-- OntologySelectionModule&#45;&gt;OntologySelectionComponent  -->
<g id="edge5" class="edge">
<title>OntologySelectionModule&#45;&gt;OntologySelectionComponent </title>
<path fill="none" stroke="black" stroke-dasharray="5,2" d="M303,-252.11C303,-252.11 303,-270.99 303,-270.99"/>
<polygon fill="black" stroke="black" points="299.5,-270.99 303,-280.99 306.5,-270.99 299.5,-270.99"/>
</g>
<!-- OntologySearchService -->
<g id="node3" class="node">
<title>OntologySearchService</title>
<ellipse fill="#fdb462" stroke="black" cx="127" cy="-104" rx="102.99" ry="18"/>
<text text-anchor="middle" x="127" y="-99.8" font-family="Times,serif" font-size="14.00">OntologySearchService</text>
</g>
<!-- OntologySearchService&#45;&gt;OntologySelectionComponent -->
<g id="edge2" class="edge">
<title>OntologySearchService&#45;&gt;OntologySelectionComponent</title>
<path fill="none" stroke="black" d="M117.21,-122.11C117.21,-122.11 117.21,-140.99 117.21,-140.99"/>
<polygon fill="black" stroke="black" points="113.71,-140.99 117.21,-150.99 120.71,-140.99 113.71,-140.99"/>
</g>
<!-- OntologySearchModule -->
<g id="node4" class="node">
<title>OntologySearchModule</title>
<polygon fill="#8dd3c7" stroke="black" points="540.03,-187 537.03,-191 516.03,-191 513.03,-187 389.97,-187 389.97,-151 540.03,-151 540.03,-187"/>
<text text-anchor="middle" x="465" y="-164.8" font-family="Times,serif" font-size="14.00">OntologySearchModule</text>
</g>
<!-- OntologySearchModule&#45;&gt;OntologySelectionModule -->
<g id="edge3" class="edge">
<title>OntologySearchModule&#45;&gt;OntologySelectionModule</title>
<path fill="none" stroke="black" d="M393.82,-187.11C393.82,-206.34 393.82,-234 393.82,-234 393.82,-234 392.95,-234 392.95,-234"/>
<polygon fill="black" stroke="black" points="395.11,-230.5 385.11,-234 395.11,-237.5 395.11,-230.5"/>
</g>
<!-- OntologyTreeModule -->
<g id="node5" class="node">
<title>OntologyTreeModule</title>
<polygon fill="#8dd3c7" stroke="black" points="372.08,-187 369.08,-191 348.08,-191 345.08,-187 233.92,-187 233.92,-151 372.08,-151 372.08,-187"/>
<text text-anchor="middle" x="303" y="-164.8" font-family="Times,serif" font-size="14.00">OntologyTreeModule</text>
</g>
<!-- OntologyTreeModule&#45;&gt;OntologySelectionModule -->
<g id="edge4" class="edge">
<title>OntologyTreeModule&#45;&gt;OntologySelectionModule</title>
<path fill="none" stroke="black" d="M303,-187.11C303,-187.11 303,-205.99 303,-205.99"/>
<polygon fill="black" stroke="black" points="299.5,-205.99 303,-215.99 306.5,-205.99 299.5,-205.99"/>
</g>
</g>
</svg>
