<?xml version="1.0" encoding="UTF-8" standalone="no"?>
<!DOCTYPE svg PUBLIC "-//W3C//DTD SVG 1.1//EN"
 "http://www.w3.org/Graphics/SVG/1.1/DTD/svg11.dtd">
<!-- Generated by graphviz version 2.47.3 (20210619.1520)
 -->
<!-- Title: dependencies Pages: 1 -->
<svg width="362pt" height="247pt"
 viewBox="0.00 0.00 362.00 246.80" xmlns="http://www.w3.org/2000/svg" xmlns:xlink="http://www.w3.org/1999/xlink">
<g id="graph0" class="graph" transform="scale(1 1) rotate(0) translate(4 242.8)">
<title>dependencies</title>
<polygon fill="white" stroke="transparent" points="-4,4 -4,-242.8 358,-242.8 358,4 -4,4"/>
<text text-anchor="middle" x="177" y="-8.2" font-family="sans-serif" font-size="14.00">dependencies</text>
<g id="clust1" class="cluster">
<title>cluster_SlicesInputModule</title>
<polygon fill="none" stroke="black" stroke-dasharray="1,5" points="8,-32.8 8,-230.8 346,-230.8 346,-32.8 8,-32.8"/>
</g>
<g id="clust2" class="cluster">
<title>cluster_SlicesInputModule_declarations</title>
<polygon fill="none" stroke="black" points="178,-40.8 178,-92.8 338,-92.8 338,-40.8 178,-40.8"/>
</g>
<g id="clust5" class="cluster">
<title>cluster_SlicesInputModule_exports</title>
<polygon fill="none" stroke="black" points="95,-170.8 95,-222.8 259,-222.8 259,-170.8 95,-170.8"/>
</g>
<g id="clust4" class="cluster">
<title>cluster_SlicesInputModule_imports</title>
<polygon fill="none" stroke="black" points="16,-40.8 16,-92.8 170,-92.8 170,-40.8 16,-40.8"/>
</g>
<!-- SlicesInputComponent -->
<g id="node1" class="node">
<title>SlicesInputComponent</title>
<polygon fill="#ffffb3" stroke="black" points="330.32,-84.8 185.68,-84.8 185.68,-48.8 330.32,-48.8 330.32,-84.8"/>
<text text-anchor="middle" x="258" y="-62.6" font-family="Times,serif" font-size="14.00">SlicesInputComponent</text>
</g>
<!-- SlicesInputModule -->
<g id="node2" class="node">
<title>SlicesInputModule</title>
<polygon fill="#8dd3c7" stroke="black" points="238.04,-149.8 235.04,-153.8 214.04,-153.8 211.04,-149.8 115.96,-149.8 115.96,-113.8 238.04,-113.8 238.04,-149.8"/>
<text text-anchor="middle" x="177" y="-127.6" font-family="Times,serif" font-size="14.00">SlicesInputModule</text>
</g>
<!-- SlicesInputComponent&#45;&gt;SlicesInputModule -->
<g id="edge1" class="edge">
<title>SlicesInputComponent&#45;&gt;SlicesInputModule</title>
<path fill="none" stroke="black" d="M212.05,-84.91C212.05,-84.91 212.05,-103.79 212.05,-103.79"/>
<polygon fill="black" stroke="black" points="208.55,-103.79 212.05,-113.79 215.55,-103.79 208.55,-103.79"/>
</g>
<!-- SlicesInputComponent  -->
<g id="node4" class="node">
<title>SlicesInputComponent </title>
<polygon fill="#fb8072" stroke="black" points="250.82,-214.8 103.18,-214.8 103.18,-178.8 250.82,-178.8 250.82,-214.8"/>
<text text-anchor="middle" x="177" y="-192.6" font-family="Times,serif" font-size="14.00">SlicesInputComponent </text>
</g>
<!-- SlicesInputModule&#45;&gt;SlicesInputComponent  -->
<g id="edge3" class="edge">
<title>SlicesInputModule&#45;&gt;SlicesInputComponent </title>
<path fill="none" stroke="black" stroke-dasharray="5,2" d="M177,-149.91C177,-149.91 177,-168.79 177,-168.79"/>
<polygon fill="black" stroke="black" points="173.5,-168.79 177,-178.79 180.5,-168.79 173.5,-168.79"/>
</g>
<!-- NumbersOnlyModule -->
<g id="node3" class="node">
<title>NumbersOnlyModule</title>
<polygon fill="#8dd3c7" stroke="black" points="162.36,-84.8 159.36,-88.8 138.36,-88.8 135.36,-84.8 23.64,-84.8 23.64,-48.8 162.36,-48.8 162.36,-84.8"/>
<text text-anchor="middle" x="93" y="-62.6" font-family="Times,serif" font-size="14.00">NumbersOnlyModule</text>
</g>
<!-- NumbersOnlyModule&#45;&gt;SlicesInputModule -->
<g id="edge2" class="edge">
<title>NumbersOnlyModule&#45;&gt;SlicesInputModule</title>
<path fill="none" stroke="black" d="M139.08,-84.91C139.08,-84.91 139.08,-103.79 139.08,-103.79"/>
<polygon fill="black" stroke="black" points="135.58,-103.79 139.08,-113.79 142.58,-103.79 135.58,-103.79"/>
</g>
</g>
</svg>
