<?xml version="1.0" encoding="UTF-8" standalone="no"?>
<!DOCTYPE svg PUBLIC "-//W3C//DTD SVG 1.1//EN"
 "http://www.w3.org/Graphics/SVG/1.1/DTD/svg11.dtd">
<!-- Generated by graphviz version 2.47.3 (20210619.1520)
 -->
<!-- Title: dependencies Pages: 1 -->
<svg width="342pt" height="247pt"
 viewBox="0.00 0.00 342.00 246.80" xmlns="http://www.w3.org/2000/svg" xmlns:xlink="http://www.w3.org/1999/xlink">
<g id="graph0" class="graph" transform="scale(1 1) rotate(0) translate(4 242.8)">
<title>dependencies</title>
<polygon fill="white" stroke="transparent" points="-4,4 -4,-242.8 338,-242.8 338,4 -4,4"/>
<text text-anchor="middle" x="167" y="-8.2" font-family="sans-serif" font-size="14.00">dependencies</text>
<g id="clust1" class="cluster">
<title>cluster_InfoButtonModule</title>
<polygon fill="none" stroke="black" stroke-dasharray="1,5" points="8,-32.8 8,-230.8 326,-230.8 326,-32.8 8,-32.8"/>
</g>
<g id="clust5" class="cluster">
<title>cluster_InfoButtonModule_exports</title>
<polygon fill="none" stroke="black" points="86,-170.8 86,-222.8 248,-222.8 248,-170.8 86,-170.8"/>
</g>
<g id="clust4" class="cluster">
<title>cluster_InfoButtonModule_imports</title>
<polygon fill="none" stroke="black" points="182,-40.8 182,-92.8 318,-92.8 318,-40.8 182,-40.8"/>
</g>
<g id="clust2" class="cluster">
<title>cluster_InfoButtonModule_declarations</title>
<polygon fill="none" stroke="black" points="16,-40.8 16,-92.8 174,-92.8 174,-40.8 16,-40.8"/>
</g>
<!-- InfoButtonComponent -->
<g id="node1" class="node">
<title>InfoButtonComponent</title>
<polygon fill="#ffffb3" stroke="black" points="166.27,-84.8 23.73,-84.8 23.73,-48.8 166.27,-48.8 166.27,-84.8"/>
<text text-anchor="middle" x="95" y="-62.6" font-family="Times,serif" font-size="14.00">InfoButtonComponent</text>
</g>
<!-- InfoButtonModule -->
<g id="node2" class="node">
<title>InfoButtonModule</title>
<polygon fill="#8dd3c7" stroke="black" points="227.49,-149.8 224.49,-153.8 203.49,-153.8 200.49,-149.8 106.51,-149.8 106.51,-113.8 227.49,-113.8 227.49,-149.8"/>
<text text-anchor="middle" x="167" y="-127.6" font-family="Times,serif" font-size="14.00">InfoButtonModule</text>
</g>
<!-- InfoButtonComponent&#45;&gt;InfoButtonModule -->
<g id="edge1" class="edge">
<title>InfoButtonComponent&#45;&gt;InfoButtonModule</title>
<path fill="none" stroke="black" d="M136.45,-84.91C136.45,-84.91 136.45,-103.79 136.45,-103.79"/>
<polygon fill="black" stroke="black" points="132.95,-103.79 136.45,-113.79 139.95,-103.79 132.95,-103.79"/>
</g>
<!-- InfoButtonComponent  -->
<g id="node4" class="node">
<title>InfoButtonComponent </title>
<polygon fill="#fb8072" stroke="black" points="240.27,-214.8 93.73,-214.8 93.73,-178.8 240.27,-178.8 240.27,-214.8"/>
<text text-anchor="middle" x="167" y="-192.6" font-family="Times,serif" font-size="14.00">InfoButtonComponent </text>
</g>
<!-- InfoButtonModule&#45;&gt;InfoButtonComponent  -->
<g id="edge3" class="edge">
<title>InfoButtonModule&#45;&gt;InfoButtonComponent </title>
<path fill="none" stroke="black" stroke-dasharray="5,2" d="M167,-149.91C167,-149.91 167,-168.79 167,-168.79"/>
<polygon fill="black" stroke="black" points="163.5,-168.79 167,-178.79 170.5,-168.79 163.5,-168.79"/>
</g>
<!-- InfoDialogModule -->
<g id="node3" class="node">
<title>InfoDialogModule</title>
<polygon fill="#8dd3c7" stroke="black" points="310.47,-84.8 307.47,-88.8 286.47,-88.8 283.47,-84.8 189.53,-84.8 189.53,-48.8 310.47,-48.8 310.47,-84.8"/>
<text text-anchor="middle" x="250" y="-62.6" font-family="Times,serif" font-size="14.00">InfoDialogModule</text>
</g>
<!-- InfoDialogModule&#45;&gt;InfoButtonModule -->
<g id="edge2" class="edge">
<title>InfoDialogModule&#45;&gt;InfoButtonModule</title>
<path fill="none" stroke="black" d="M208.5,-84.91C208.5,-84.91 208.5,-103.79 208.5,-103.79"/>
<polygon fill="black" stroke="black" points="205,-103.79 208.5,-113.79 212,-103.79 205,-103.79"/>
</g>
</g>
</svg>
