<?xml version="1.0" encoding="utf-8"?>
<!-- Generator: Adobe Illustrator 25.2.0, SVG Export Plug-In . SVG Version: 6.00 Build 0)  -->
<svg version="1.1" id="Layer_1" xmlns="http://www.w3.org/2000/svg" xmlns:xlink="http://www.w3.org/1999/xlink" x="0px" y="0px"
	 viewBox="0 0 361.3 24" style="enable-background:new 0 0 361.3 24;" xml:space="preserve">
<style type="text/css">
	.st0{fill:none;}
	.st1{fill:#8289A3;transform:translate(-100px, 0)}
	.st2{fill:#FFFFFF;}
</style>
<rect x="-1.7" y="0.1" class="st0" width="363" height="24"/>
<path class="st1" d="M118.3,8.1h-1.9c-0.1-0.7-0.4-1.4-0.8-2c-0.4-0.6-0.9-1.2-1.4-1.6c-0.6-0.5-1.2-0.8-1.9-1.1
	c-2-0.7-4.2-0.5-6,0.7c-1.1,0.8-2.1,1.8-2.6,3.1c-0.7,1.5-1,3.2-1,4.9c0,1.7,0.3,3.4,1,4.9c0.6,1.2,1.5,2.3,2.6,3
	c1.1,0.7,2.4,1,3.6,1c0.8,0,1.6-0.1,2.3-0.4c1.4-0.5,2.6-1.4,3.4-2.6c0.4-0.6,0.6-1.3,0.8-2h1.9c-0.2,1-0.5,1.9-1,2.7
	c-1,1.7-2.5,3-4.3,3.7c-1,0.4-2,0.5-3.1,0.5c-1.7,0-3.3-0.4-4.7-1.3c-1.4-0.9-2.5-2.2-3.2-3.8c-0.8-1.8-1.2-3.8-1.2-5.7
	c0-2,0.4-3.9,1.2-5.7c0.7-1.5,1.8-2.8,3.2-3.8c1.4-0.9,3.1-1.4,4.8-1.3c1.1,0,2.1,0.2,3.1,0.5c0.9,0.3,1.8,0.8,2.5,1.5
	c0.7,0.6,1.3,1.4,1.8,2.2C117.8,6.2,118.2,7.2,118.3,8.1z"/>
<path class="st1" d="M138.6,8.1h-1.9c-0.1-0.7-0.4-1.4-0.8-2c-0.4-0.6-0.8-1.2-1.4-1.6c-0.6-0.5-1.2-0.8-1.9-1.1
	c-2-0.7-4.2-0.5-6,0.7c-1.1,0.8-2,1.8-2.6,3.1c-0.7,1.5-1,3.2-1,4.9c0,1.7,0.3,3.4,1,4.9c0.6,1.2,1.5,2.3,2.6,3c1.1,0.7,2.4,1,3.6,1
	c0.8,0,1.6-0.1,2.3-0.4c0.7-0.2,1.3-0.6,1.9-1.1c0.6-0.4,1-1,1.4-1.6c0.4-0.6,0.6-1.3,0.8-2h1.9c-0.2,1-0.5,1.9-1,2.7
	c-0.9,1.7-2.5,3-4.3,3.7c-1,0.4-2,0.5-3.1,0.5c-1.7,0-3.3-0.4-4.7-1.3c-1.4-0.9-2.5-2.2-3.2-3.8c-0.8-1.8-1.2-3.8-1.2-5.7
	c0-2,0.4-3.9,1.2-5.7c0.7-1.5,1.8-2.8,3.2-3.8c1.4-0.9,3-1.4,4.7-1.3c1.1,0,2.1,0.2,3.1,0.5c0.9,0.3,1.8,0.8,2.5,1.5
	C137.3,4.5,138.3,6.2,138.6,8.1L138.6,8.1z"/>
<path class="st1" d="M142.4,22.6V1.5h12.2v1.7h-10.3v7.9h9.3v1.7h-9.3v9.7H142.4z"/>
<path class="st1" d="M166.1,22.6V1.5h6.9c1.3,0,2.6,0.2,3.8,0.8c1,0.5,1.7,1.3,2.2,2.2c0.5,1,0.8,2.1,0.8,3.3c0,1.1-0.2,2.3-0.8,3.3
	c-0.5,0.9-1.3,1.7-2.3,2.2c-1.2,0.6-2.4,0.8-3.7,0.8h-5.8v-1.8h5.7c0.9,0,1.9-0.2,2.8-0.5c0.7-0.3,1.3-0.9,1.6-1.6
	c0.4-0.7,0.6-1.6,0.5-2.4c0-0.8-0.2-1.7-0.6-2.4c-0.4-0.7-0.9-1.3-1.6-1.6c-0.9-0.4-1.8-0.6-2.8-0.6h-4.8v19.4H166.1z M175.4,13.1
	l5.2,9.5h-2.2l-5.1-9.5H175.4z"/>
<path class="st1" d="M183.7,22.6V1.5H196v1.7h-10.4v7.9h9.7v1.7h-9.7v8h10.5v1.7L183.7,22.6z"/>
<path class="st1" d="M214.8,8.1c-0.2-0.7-0.5-1.4-0.8-2c-0.4-0.6-0.8-1.2-1.4-1.6c-0.6-0.5-1.2-0.8-1.9-1.1
	c-0.8-0.3-1.6-0.4-2.4-0.4c-1.3,0-2.6,0.4-3.7,1.1c-1.1,0.8-2,1.8-2.6,3.1c-0.7,1.5-1,3.2-0.9,4.9c0,1.7,0.3,3.3,0.9,4.9
	c0.6,1.3,1.5,2.3,2.6,3.1c1.1,0.7,2.4,1.1,3.8,1.1c1.2,0,2.4-0.3,3.4-0.9c1-0.6,1.8-1.4,2.3-2.5c0.6-1.2,0.9-2.5,0.8-3.8l0.6,0.2
	h-6.7v-1.7h8v1.7c0,1.6-0.3,3.2-1.1,4.7c-0.7,1.3-1.7,2.3-3,3c-1.3,0.7-2.8,1.1-4.4,1.1c-1.7,0-3.4-0.4-4.8-1.3
	c-1.4-0.9-2.5-2.2-3.2-3.8c-0.8-1.8-1.2-3.8-1.1-5.7c0-1.5,0.2-3,0.7-4.5c0.4-1.3,1-2.4,1.9-3.4c0.8-0.9,1.8-1.6,2.9-2.1
	c1.2-0.5,2.4-0.8,3.7-0.8c1.1,0,2.2,0.2,3.2,0.5c0.9,0.3,1.8,0.8,2.5,1.5c0.7,0.6,1.3,1.4,1.8,2.2c0.5,0.8,0.8,1.7,1,2.6L214.8,8.1z
	"/>
<path class="st1" d="M222.9,1.5v21.1H221V1.5H222.9z"/>
<path class="st1" d="M239.2,6.8c-0.1-1.1-0.7-2.1-1.6-2.8c-1-0.7-2.2-1.1-3.5-1c-0.9,0-1.8,0.2-2.6,0.5c-0.7,0.3-1.3,0.8-1.8,1.4
	c-0.4,0.6-0.6,1.3-0.6,2c0,0.5,0.1,1,0.4,1.5c0.3,0.4,0.6,0.8,1,1.1c0.4,0.3,0.9,0.6,1.4,0.8c0.5,0.2,1,0.4,1.5,0.5l2.2,0.6
	c0.7,0.2,1.4,0.4,2,0.7c0.7,0.3,1.3,0.6,1.9,1.1c0.6,0.4,1,1,1.4,1.6c0.4,0.7,0.5,1.5,0.5,2.3c0,1.1-0.3,2.1-0.9,3
	c-0.6,0.9-1.5,1.7-2.5,2.1c-1.2,0.6-2.6,0.8-3.9,0.8c-1.3,0-2.6-0.2-3.7-0.7c-1-0.4-1.9-1.1-2.5-2c-0.6-0.9-0.9-1.9-1-2.9h2
	c0,0.8,0.3,1.5,0.8,2.1c0.5,0.6,1.2,1,1.9,1.3c1.7,0.6,3.7,0.6,5.4-0.1c0.8-0.3,1.4-0.8,1.9-1.5c0.5-0.6,0.7-1.4,0.7-2.2
	c0-0.6-0.2-1.3-0.6-1.8c-0.4-0.5-1-0.9-1.6-1.2c-0.7-0.4-1.5-0.7-2.3-0.9l-2.5-0.8c-1.4-0.4-2.8-1.1-3.9-2.1
	c-0.9-0.9-1.4-2.1-1.4-3.3c0-1.1,0.3-2.1,0.9-3c0.6-0.9,1.5-1.6,2.5-2c1.1-0.5,2.3-0.7,3.5-0.7c1.2,0,2.4,0.2,3.5,0.7
	c1,0.4,1.8,1.1,2.4,2c0.6,0.8,1,1.8,1,2.9L239.2,6.8z"/>
<path class="st1" d="M244,3.2V1.5h15.3v1.7h-6.7v19.4h-1.9V3.2H244z"/>
<path class="st1" d="M262.9,22.6V1.5h6.8c1.3,0,2.6,0.2,3.8,0.8c1,0.5,1.8,1.3,2.3,2.2c0.5,1,0.8,2.1,0.8,3.3c0,1.1-0.2,2.3-0.8,3.3
	c-0.5,0.9-1.3,1.7-2.3,2.2c-1.2,0.6-2.4,0.8-3.7,0.8H264v-1.8h5.7c0.9,0,1.9-0.2,2.8-0.5c0.7-0.3,1.3-0.9,1.6-1.6
	c0.4-0.7,0.6-1.6,0.5-2.4c0-0.8-0.2-1.7-0.5-2.4c-0.4-0.7-0.9-1.3-1.6-1.6c-0.9-0.4-1.8-0.6-2.8-0.6h-4.8v19.4H262.9z M272.2,13.1
	l5.2,9.5h-2.2l-5.2-9.5H272.2z"/>
<path class="st1" d="M280.5,22.6h-2l7.7-21.1h2.1l7.7,21.1h-2L287.3,4h-0.1L280.5,22.6z M282,14.5h10.5v1.7H282V14.5z"/>
<path class="st1" d="M295,3.2V1.5h15.3v1.7h-6.7v19.4h-1.9V3.2H295z"/>
<path class="st1" d="M315.9,1.5v21.1h-1.9V1.5H315.9z"/>
<path class="st1" d="M338,12.1c0,2-0.4,3.9-1.2,5.7c-0.7,1.5-1.8,2.8-3.2,3.8c-2.9,1.8-6.5,1.8-9.4,0c-1.4-0.9-2.5-2.2-3.1-3.8
	c-0.8-1.8-1.2-3.8-1.2-5.7c0-2,0.4-3.9,1.2-5.7c0.7-1.5,1.8-2.8,3.2-3.8c2.9-1.8,6.5-1.8,9.4,0c1.4,0.9,2.5,2.2,3.2,3.8
	C337.7,8.1,338.1,10.1,338,12.1z M336.1,12.1c0-1.7-0.3-3.3-1-4.9c-0.5-1.3-1.4-2.3-2.6-3.1c-2.3-1.4-5.2-1.4-7.4,0
	c-1.1,0.8-2,1.8-2.6,3.1c-0.7,1.5-1,3.2-1,4.9c0,1.7,0.3,3.3,1,4.9c0.6,1.3,1.5,2.3,2.7,3.1c2.3,1.4,5.2,1.4,7.4,0
	c1.1-0.8,2-1.8,2.6-3.1C335.9,15.4,336.2,13.7,336.1,12.1L336.1,12.1z"/>
<path class="st1" d="M358.4,1.5v21.1h-1.9L344.1,5h-0.2v17.6H342V1.5h1.9l12.5,17.7h0.2V1.5H358.4z"/>
</svg>
