<svg width="405" height="40" viewBox="0 0 405 40" fill="none" xmlns="http://www.w3.org/2000/svg">
<path d="M16.4375 7.20312V32.5H9.85938V21.875H7.89062V32.5H1.3125V7.20312H7.89062V16.25H9.85938V7.20312H16.4375ZM33.3594 11.7656V32.5H26.9375L27.0469 30.7812C26.6094 31.4792 26.0677 32.0052 25.4219 32.3594C24.7865 32.7031 24.0521 32.875 23.2188 32.875C22.2708 32.875 21.4844 32.7083 20.8594 32.375C20.2344 32.0417 19.7708 31.599 19.4688 31.0469C19.1771 30.4948 18.9948 29.9219 18.9219 29.3281C18.849 28.724 18.8125 27.5312 18.8125 25.75V11.7656H25.125V25.875C25.125 27.4896 25.1719 28.4479 25.2656 28.75C25.3698 29.0521 25.6406 29.2031 26.0781 29.2031C26.5469 29.2031 26.8229 29.0469 26.9062 28.7344C27 28.4219 27.0469 27.4167 27.0469 25.7188V11.7656H33.3594ZM35.8125 7.20312H42.375C44.4479 7.20312 46.0156 7.36458 47.0781 7.6875C48.151 8.01042 49.0156 8.66667 49.6719 9.65625C50.3281 10.6354 50.6562 12.2188 50.6562 14.4062C50.6562 15.8854 50.4219 16.9167 49.9531 17.5C49.4948 18.0833 48.5833 18.5312 47.2188 18.8438C48.7396 19.1875 49.7708 19.7604 50.3125 20.5625C50.8542 21.3542 51.125 22.5729 51.125 24.2188V26.5625C51.125 28.2708 50.9271 29.5365 50.5312 30.3594C50.1458 31.1823 49.526 31.7448 48.6719 32.0469C47.8177 32.349 46.0677 32.5 43.4219 32.5H35.8125V7.20312ZM42.3906 11.5312V17.1562C42.6719 17.1458 42.8906 17.1406 43.0469 17.1406C43.6927 17.1406 44.1042 16.9844 44.2812 16.6719C44.4583 16.349 44.5469 15.4375 44.5469 13.9375C44.5469 13.1458 44.474 12.5938 44.3281 12.2812C44.1823 11.9583 43.9896 11.7552 43.75 11.6719C43.5208 11.5885 43.0677 11.5417 42.3906 11.5312ZM42.3906 21.0938V28.1719C43.3177 28.1406 43.9062 27.9948 44.1562 27.7344C44.4167 27.474 44.5469 26.8333 44.5469 25.8125V23.4531C44.5469 22.3698 44.4323 21.7135 44.2031 21.4844C43.974 21.2552 43.3698 21.125 42.3906 21.0938ZM73.7969 7.20312V32.5H68.0469V15.4219L65.75 32.5H61.6719L59.25 15.8125V32.5H53.5V7.20312H62.0156C62.2656 8.72396 62.5312 10.5156 62.8125 12.5781L63.7188 19.0156L65.2188 7.20312H73.7969ZM87.7969 7.20312L91.5625 32.5H84.8281L84.5 27.9531H82.1406L81.75 32.5H74.9375L78.2812 7.20312H87.7969ZM84.3125 23.4688C83.9792 20.6042 83.6458 17.0677 83.3125 12.8594C82.6458 17.6927 82.2292 21.2292 82.0625 23.4688H84.3125ZM92.6875 7.20312H99.3125C101.104 7.20312 102.479 7.34375 103.438 7.625C104.406 7.90625 105.13 8.3125 105.609 8.84375C106.099 9.375 106.427 10.0208 106.594 10.7812C106.771 11.5312 106.859 12.6979 106.859 14.2812V16.4844C106.859 18.099 106.693 19.276 106.359 20.0156C106.026 20.7552 105.411 21.3229 104.516 21.7188C103.63 22.1146 102.469 22.3125 101.031 22.3125H99.2656V32.5H92.6875V7.20312ZM99.2656 11.5312V17.9688C99.4531 17.9792 99.6146 17.9844 99.75 17.9844C100.354 17.9844 100.771 17.8385 101 17.5469C101.24 17.2448 101.359 16.625 101.359 15.6875V13.6094C101.359 12.7448 101.224 12.1823 100.953 11.9219C100.682 11.6615 100.12 11.5312 99.2656 11.5312Z" fill="white"/>
<path d="M119.091 31.5V8.22727H121.216V18.8977H134.42V8.22727H136.545V31.5H134.42V20.8068H121.216V31.5H119.091ZM141.916 31.5V8.22727H149.427C151.079 8.22727 152.458 8.52651 153.564 9.125C154.677 9.71591 155.514 10.5379 156.075 11.5909C156.643 12.6364 156.927 13.8371 156.927 15.1932C156.927 16.5492 156.643 17.7462 156.075 18.7841C155.514 19.822 154.681 20.6326 153.575 21.2159C152.469 21.7992 151.098 22.0909 149.461 22.0909H143.064V20.1477H149.405C150.617 20.1477 151.624 19.947 152.427 19.5455C153.238 19.1439 153.84 18.572 154.234 17.8295C154.636 17.0871 154.836 16.2083 154.836 15.1932C154.836 14.178 154.636 13.2917 154.234 12.5341C153.833 11.7689 153.227 11.178 152.416 10.7614C151.613 10.3447 150.598 10.1364 149.37 10.1364H144.041V31.5H141.916ZM152.177 21L157.905 31.5H155.45L149.78 21H152.177ZM161.338 31.5H159.11L167.576 8.22727H169.849L178.315 31.5H176.088L168.792 10.9886H168.633L161.338 31.5ZM162.94 22.5795H174.485V24.4886H162.94V22.5795ZM189.703 31.5V8.22727H197.215C198.866 8.22727 200.245 8.52651 201.351 9.125C202.465 9.71591 203.302 10.5379 203.863 11.5909C204.431 12.6364 204.715 13.8371 204.715 15.1932C204.715 16.5492 204.431 17.7462 203.863 18.7841C203.302 19.822 202.469 20.6326 201.363 21.2159C200.256 21.7992 198.885 22.0909 197.249 22.0909H190.851V20.1477H197.192C198.404 20.1477 199.412 19.947 200.215 19.5455C201.025 19.1439 201.628 18.572 202.022 17.8295C202.423 17.0871 202.624 16.2083 202.624 15.1932C202.624 14.178 202.423 13.2917 202.022 12.5341C201.62 11.7689 201.014 11.178 200.203 10.7614C199.4 10.3447 198.385 10.1364 197.158 10.1364H191.828V31.5H189.703ZM199.965 21L205.692 31.5H203.238L197.567 21H199.965ZM209.091 31.5V8.22727H222.591V10.1364H211.216V18.8977H221.875V20.8068H211.216V29.5909H222.818V31.5H209.091ZM243.393 15.5C243.181 14.7273 242.87 14.0038 242.461 13.3295C242.052 12.6477 241.545 12.053 240.939 11.5455C240.34 11.0303 239.647 10.6288 238.859 10.3409C238.079 10.053 237.208 9.90909 236.245 9.90909C234.73 9.90909 233.374 10.303 232.177 11.0909C230.98 11.8788 230.033 13.0152 229.336 14.5C228.647 15.9848 228.302 17.7727 228.302 19.8636C228.302 21.947 228.651 23.7311 229.348 25.2159C230.045 26.7008 230.999 27.8409 232.211 28.6364C233.431 29.4242 234.825 29.8182 236.393 29.8182C237.825 29.8182 239.09 29.5 240.189 28.8636C241.287 28.2273 242.143 27.3182 242.757 26.1364C243.378 24.9545 243.681 23.5492 243.666 21.9205L244.348 22.1364H236.893V20.2273H245.734V22.1364C245.734 24.1212 245.333 25.8371 244.53 27.2841C243.727 28.7311 242.624 29.8485 241.223 30.6364C239.821 31.4242 238.211 31.8182 236.393 31.8182C234.363 31.8182 232.586 31.3295 231.064 30.3523C229.541 29.3674 228.355 27.9811 227.507 26.1932C226.666 24.3977 226.245 22.2879 226.245 19.8636C226.245 18.0379 226.488 16.3902 226.973 14.9205C227.458 13.4508 228.143 12.1932 229.03 11.1477C229.923 10.1023 230.98 9.30303 232.2 8.75C233.42 8.18939 234.768 7.90909 236.245 7.90909C237.518 7.90909 238.681 8.10985 239.734 8.51136C240.795 8.91288 241.727 9.46591 242.53 10.1705C243.34 10.8674 244.003 11.6742 244.518 12.5909C245.041 13.5 245.393 14.4697 245.575 15.5H243.393ZM252.335 8.22727V31.5H250.21V8.22727H252.335ZM270.359 14.0455C270.23 12.75 269.658 11.7197 268.643 10.9545C267.627 10.1894 266.351 9.80682 264.813 9.80682C263.73 9.80682 262.775 9.99242 261.949 10.3636C261.131 10.7348 260.487 11.25 260.018 11.9091C259.555 12.5606 259.324 13.303 259.324 14.1364C259.324 14.75 259.457 15.2879 259.722 15.75C259.987 16.2121 260.343 16.6098 260.79 16.9432C261.245 17.2689 261.745 17.5492 262.29 17.7841C262.843 18.0189 263.4 18.2159 263.961 18.375L266.415 19.0795C267.158 19.2841 267.9 19.5455 268.643 19.8636C269.385 20.1818 270.063 20.5833 270.677 21.0682C271.298 21.5455 271.794 22.1326 272.165 22.8295C272.544 23.5189 272.734 24.3485 272.734 25.3182C272.734 26.5606 272.412 27.678 271.768 28.6705C271.124 29.6629 270.199 30.4508 268.995 31.0341C267.79 31.6098 266.347 31.8977 264.665 31.8977C263.082 31.8977 261.707 31.6364 260.54 31.1136C259.374 30.5833 258.457 29.8523 257.79 28.9205C257.124 27.9886 256.749 26.9091 256.665 25.6818H258.847C258.923 26.5985 259.226 27.375 259.756 28.0114C260.287 28.6477 260.976 29.1326 261.824 29.4659C262.673 29.7917 263.62 29.9545 264.665 29.9545C265.824 29.9545 266.855 29.7614 267.756 29.375C268.665 28.9811 269.377 28.4356 269.893 27.7386C270.415 27.0341 270.677 26.2159 270.677 25.2841C270.677 24.4962 270.472 23.8371 270.063 23.3068C269.654 22.7689 269.082 22.3182 268.347 21.9545C267.62 21.5909 266.775 21.2689 265.813 20.9886L263.029 20.1705C261.203 19.625 259.787 18.8712 258.779 17.9091C257.771 16.947 257.268 15.7197 257.268 14.2273C257.268 12.9773 257.601 11.8788 258.268 10.9318C258.942 9.97727 259.851 9.23485 260.995 8.70454C262.146 8.16667 263.438 7.89773 264.87 7.89773C266.317 7.89773 267.597 8.16288 268.711 8.69318C269.824 9.22348 270.707 9.95454 271.359 10.8864C272.018 11.8106 272.37 12.8636 272.415 14.0455H270.359ZM275.638 10.1364V8.22727H292.513V10.1364H285.138V31.5H283.013V10.1364H275.638ZM296.497 31.5V8.22727H304.009C305.66 8.22727 307.039 8.52651 308.145 9.125C309.259 9.71591 310.096 10.5379 310.656 11.5909C311.224 12.6364 311.509 13.8371 311.509 15.1932C311.509 16.5492 311.224 17.7462 310.656 18.7841C310.096 19.822 309.262 20.6326 308.156 21.2159C307.05 21.7992 305.679 22.0909 304.043 22.0909H297.645V20.1477H303.986C305.198 20.1477 306.205 19.947 307.009 19.5455C307.819 19.1439 308.421 18.572 308.815 17.8295C309.217 17.0871 309.418 16.2083 309.418 15.1932C309.418 14.178 309.217 13.2917 308.815 12.5341C308.414 11.7689 307.808 11.178 306.997 10.7614C306.194 10.3447 305.179 10.1364 303.952 10.1364H298.622V31.5H296.497ZM306.759 21L312.486 31.5H310.031L304.361 21H306.759ZM315.919 31.5H313.691L322.157 8.22727H324.43L332.896 31.5H330.669L323.373 10.9886H323.214L315.919 31.5ZM317.521 22.5795H329.066V24.4886H317.521V22.5795ZM331.957 10.1364V8.22727H348.832V10.1364H341.457V31.5H339.332V10.1364H331.957ZM354.941 8.22727V31.5H352.816V8.22727H354.941ZM379.408 19.8636C379.408 22.2879 378.976 24.3977 378.113 26.1932C377.249 27.9811 376.059 29.3674 374.544 30.3523C373.037 31.3295 371.302 31.8182 369.34 31.8182C367.378 31.8182 365.639 31.3295 364.124 30.3523C362.616 29.3674 361.431 27.9811 360.567 26.1932C359.711 24.3977 359.283 22.2879 359.283 19.8636C359.283 17.4394 359.711 15.3333 360.567 13.5455C361.431 11.75 362.62 10.3636 364.135 9.38636C365.65 8.40151 367.385 7.90909 369.34 7.90909C371.302 7.90909 373.037 8.40151 374.544 9.38636C376.059 10.3636 377.249 11.75 378.113 13.5455C378.976 15.3333 379.408 17.4394 379.408 19.8636ZM377.34 19.8636C377.34 17.7803 376.991 15.9962 376.294 14.5114C375.597 13.0189 374.647 11.8788 373.442 11.0909C372.238 10.303 370.87 9.90909 369.34 9.90909C367.817 9.90909 366.453 10.303 365.249 11.0909C364.044 11.8788 363.09 13.0152 362.385 14.5C361.688 15.9848 361.34 17.7727 361.34 19.8636C361.34 21.947 361.688 23.7311 362.385 25.2159C363.082 26.7008 364.033 27.8409 365.238 28.6364C366.442 29.4242 367.809 29.8182 369.34 29.8182C370.87 29.8182 372.238 29.4242 373.442 28.6364C374.654 27.8485 375.609 26.7121 376.306 25.2273C377.003 23.7348 377.347 21.947 377.34 19.8636ZM401.872 8.22727V31.5H399.804L386.054 12.0114H385.872V31.5H383.747V8.22727H385.804L399.599 27.7386H399.781V8.22727H401.872Z" fill="#C2CAE6"/>
</svg>
