<?xml version="1.0" encoding="UTF-8"?><svg xmlns="http://www.w3.org/2000/svg" viewBox="0 0 344.06 118.25"><defs><style>.f{fill:#f7dff1;}.g{fill:#efcee2;}.h{fill:#ce8fbe;}.i{fill:#a7a9af;}.j{fill:#d8a7cc;}.k,.l{fill:#a561b5;}.m{fill:#c995c3;}.n{fill:#231f20;}.o{fill:#fefefe;}.p{fill:#878686;}.q{fill:#774a9e;}.r{fill:#505252;}.l{stroke:#774a9e;stroke-miterlimit:10;}</style></defs><g id="a"><rect class="j" x="13" y="6.95" width="102.88" height="102.88"/></g><g id="b"><path class="f" d="M13.8,6.95h25.47l-3.26,8.27s-.61,1.28-1.77,1.46-12.25,1.84-12.25,1.84c-.22,.08-.87,0-1.46-.48-.23-.19-.52-.65-1.07-1.51-.63-.97-1.62-2.79-2.8-4.75-1.44-2.37-2.85-4.83-2.85-4.83Z"/><path class="f" d="M13,60.42l6.84,6.84s1.48,1.27,.75,3.33l-5.26,15.01s-1.11,1.53-2.33,1.68v-26.85Z"/><polygon class="f" points="13 100.69 13 109.83 32.29 109.83 31.54 108.59 21.43 99.91 13 100.69"/><path class="f" d="M71.28,109.83h35.03l4.37-20.4-3.69,1.37-26.84,2.6c-.87,.08-.97,.02-1.3,.47l-.54,.92-7.02,15.03Z"/><polygon class="f" points="52.77 7.06 48.41 18.22 63.78 30.86 83.78 23.21 87.76 6.94 52.77 7.06"/><polygon class="f" points="104.21 6.95 115.88 6.95 115.69 38.64 99.55 27.37 104.21 6.95"/><polygon points="65.98 44.6 88.01 38.55 114.54 54.38 107.59 76.68 79.77 78.23 59.64 59.58 65.98 44.6"/><polygon class="f" points="21.22 30.86 40.01 27.44 53.4 37.67 46.82 56.84 29.59 59.2 15.36 44.84 21.22 30.86"/><polygon class="f" points="31.54 71.72 49.22 68.74 65.77 83.57 56.28 107.44 45.87 106.45 27.26 87.78 31.54 71.72"/></g><g id="c"><path class="h" d="M13,16.89s2.02,4.78,4.98,5.58,.92,1.76,17.35-1.25c.33-.06,1.92-.86,2.18-1.08,.36-.29,1.09-.65,1.69-1.34,.84-.97,1.59-2.47,2.29-4.25l3-7.6h-2.24c-.26,.73-.63,1.57-.92,2.33-.48,1.26-.98,2.52-1.51,3.76s-1.09,2.36-1.8,3.44c-.22,.33-.45,.66-.69,.97-.61,.79-1.27,1.33-2.23,1.53-1.2,.25-2.4,.48-3.6,.7-1.48,.27-2.97,.53-4.46,.76-1.76,.27-3.55,.52-5.33,.49-.97-.02-2-.09-2.92-.47-1.09-.45-1.67-1.36-2.37-2.26-.44-.57-.87-1.16-1.28-1.76s-.77-1.19-1.13-1.8c-.18-.31-.35-.61-.52-.93-.12-.22-.49-.69-.49-.94v4.11Z"/><path class="h" d="M61.87,36.75l-18.58-15.19c-.56-.44-.88-1.11-.88-1.82v-1.35c0-.88,.16-1.75,.47-2.57l3.32-8.89,2.13,.04-3.68,9.82c-.16,.42-.25,.87-.25,1.33v.64c0,.72,.33,1.4,.9,1.85l17.23,13.6c.45,.36,1.06,.45,1.59,.23l21.7-7.69c.84-.33,1.51-1.99,1.73-2.86l4.22-16.94,2.06,.02-4.4,17.66c-.34,1.34-1.13,3.25-2.41,3.78l-22.99,8.66c-.73,.29-1.55,.17-2.16-.32Z"/><path class="h" d="M115.88,44.09l-1.08-.1c-.52-.05-1.02-.17-1.5-.38l-1.23-.53-14.35-10.07c-1.58-1.12-3.33-2.25-3.9-4.11-.51-1.69-.06-4.41,.33-6.13l3.61-15.83h2.09l-3.73,16.36c-.34,1.51-.95,3.06-.5,4.54,.48,1.59,2.12,2.69,3.48,3.65l13.05,9.19c.57,.38,1.2,.67,1.86,.85l1.86,.5v2.05Z"/><path class="h" d="M46.32,25.93c-.38-.26-.73-.58-1.06-.9-1.03-1-2.22-1.85-3.57-2.36-2.4-.91-5.02-.67-7.49-.23-1.71,.31-3.37,.82-5.08,1.13-1.63,.29-3.33,.47-4.9,.89-1.58,.41-4,1.19-5.35,2.1-3.58,2.42-4.77,6.4-5.62,10.47-.13,.59-.19,1.2-.18,1.8,.06,2.86-.75,11.01,.81,11.88,2.9,2.51,10.43,10.66,13.59,12.63,3.37,2.76,14.05-.68,18.6-1.2,.97-.11,1.9-.39,2.72-.91,1.42-.9,2.76-2.31,3.23-3.58,7.13-18.03,12.17-19.5-5.7-31.72Zm9.9,15.1c-.03,.27-.06,.53-.1,.79-.03,.2-.07,.41-.11,.61-.03,.15-.06,.3-.1,.44-.04,.18-.09,.36-.14,.53-.02,.11-.06,.21-.09,.32-.57,1.77-1.47,3.73-2.41,5.89-.43,1-.88,2.05-1.3,3.14-.32,.8-.56,1.48-.79,2.07-.03,.08-.06,.17-.1,.25-.05,.11-.09,.23-.14,.33-.35,.85-.71,1.53-1.26,2.21-.56,.7-1.33,1.74-2.53,2.13-2.54,.82-8.05,1.68-12.12,2.25-1.14,.16-2.28,.13-3.39-.06h-.02c-1.87-.32-3.66-1.1-5.2-2.28l-1.32-1.02c-.21-.15-.4-.32-.59-.5l-.09-.09-.03-.02-.1-.1-.5-.48-.36-.35c-.23-.22-.47-.46-.73-.71l-1.43-1.39-1.23-1.22c-.79-.8-1.61-1.63-2.39-2.46l-.46-.5c-.31-.33-.6-.66-.89-.98l-.03-.04-.04-.04c-1.39-1.57-2.49-2.99-2.82-3.88-.01-.04-.03-.09-.04-.14v-.03c-.04-.11-.06-.21-.06-.29v-.06c.1-.52,.09-1.18,.12-1.81v-.02c.03-.45,.08-.89,.21-1.24,.95-2.55,1.66-4.8,2.29-6.74l.75-2.19c.16-.45,.32-.87,.49-1.27,.94-2.29,1.99-3.77,3.77-4.35,.06-.02,.29-.07,.67-.16,.04-.01,.09-.02,.13-.03l.52-.11,1.83-.4c.35-.08,.73-.16,1.11-.24l1.21-.26c1.03-.22,2.14-.46,3.24-.7l2.58-.55c.4-.09,.79-.17,1.17-.25l.08-.02c.34-.07,.66-.14,.97-.21l2.33-.5c.28-.06,.55-.1,.81-.13,.72-.07,1.45-.02,2.16,.15,.04,.01,.08,.02,.13,.03,.68,.18,1.34,.47,1.93,.85,.2,.13,.4,.26,.58,.41l.28,.22c3.02,2.41,11.42,9.13,11.42,9.13,.68,.49,1.18,1.13,1.53,1.86,.01,.01,.01,.03,.02,.05,.1,.21,.19,.44,.25,.67,.04,.11,.07,.21,.1,.32t.01,.02c.04,.18,.08,.35,.11,.53,.16,.84,.18,1.72,.11,2.58-.01,0-.01,.02,0,.04Z"/><path class="h" d="M70.19,83.02l-1.22-2.41-14.3-13.51-2.49-2.15c-.55-.36-1.83-.81-2.47-.95l-.59-.1c-.6-.13-2.39-.23-2.99-.1l-13.19,2.75c-1.53,.34-4.67,3.23-5.11,4.71l-4.34,12.64c-1.22,4.11,.18,7.61,2.64,9.85l16.78,16.07h8.73c2.09,.01,3.57,.01,4.53,.02h3.7l1.34-1.76,6.18-13.24,2.79-6.14c.45-1.42,.67-4.35,.01-5.68Zm-1.85,3.65l-4.14,9.56-3.54,7.84-.86,1.89-1.55,2.59c-.05,.1-1.16-.03-1.27-.03-2.06-.05-4.13-.09-6.19-.14-1.09-.03-2.19-.05-3.29-.08-.44-.01-.88-.02-1.33-.03-.53-.01-1.06,.12-1.56-.11-.45-.21-.77-.61-1.12-.92-.56-.53-1.12-1.06-1.68-1.58-.92-.86-1.84-1.71-2.76-2.57-2.17-2.02-4.34-4.04-6.51-6.06-1.85-1.72-3.7-3.45-5.55-5.17-1.14-1.21-1.85-2.67-1.94-4.49-.03-.39-.03-.74,0-1.03l4.4-13.97c.21-.71,1.2-1.98,2.17-2.82,.09-.07,.17-.14,.24-.2,.4-.33,.79-.57,1.1-.63l.09-.02,14.4-2.79c.42-.09,.85-.09,1.28-.01l.19,.04c.49,.1,.94,.29,1.36,.56l3.41,2.54,13.4,12.68,.36,.34,.64,1.28c.52,1.04,.61,2.23,.25,3.33Zm-25.43,23.15c-.08,0,.05,.05,0,0h0Z"/><path class="h" d="M36.48,109.83h0c-.06-.25-.01-.05-1.06-2.46-.25-.57-.62-1.09-1.1-1.49l-11.47-9.86c-.3-.25-.68-.36-1.07-.33l-8.79,.91v-2.05l8.99-.88c.48-.04,1.57,.18,1.92,.5l11.8,9.95c.88,.77,2.18,2.73,2.42,3.88l.41,1.84h-2.06Z"/><path class="h" d="M13,93.45v-2.05l3.33-1.19c.96-.44,1.71-1.27,2.04-2.27l5.86-15.08c.8-.84,.86-5.42-.51-7.23l-10.71-10.96-.02-2.64,12.4,12.11c1.39,1.48,1.87,6.72,1.1,8.48l-5.5,15.32c-.45,1.33-1.92,2.75-3.8,4.2l-4.2,1.31Z"/><path class="h" d="M67.48,109.83h-2.36c1.25-2.65,2.35-5.29,3.59-7.94l2.81-5.96c.8-1.69,1.45-3.71,2.72-5.09,2.69-2.93,7.2-2.58,10.88-2.92l12.18-1.12,7.4-.68c.16-.03,.32-.04,.46-.09,2.12-.84,4.68-2.17,6.72-1.55,.28,.08,.76,.14,1.53,.53,1.13,.57,2.46,1.64,2.46,2.2v9.19l-2.9,13.42h-2.2s1.24-4.89,2.23-9.58c.89-4.2,1.53-8.23,1.53-8.23,.22-1.42,.3-2.79-.72-4.02-.44-.53-.72-.81-1.56-1.19-.35-.16-.87-.26-1.25-.34-1.08-.22-3.32,1.14-4.62,1.51l-.97,.21c-.44,.1-.93,.15-1.33,.19l-24.71,2.22c-1.09,.11-2,.39-3.37,1.48-.09,.07-.16,.15-.21,.25l-8.32,17.5Z"/><path class="n" d="M115.81,77.21c0,.21-.06,.42-.17,.61l.17-.61Z"/><path class="h" d="M56.61,56.27v.02c-1.2,4.09,.33,6.27,1.48,7.48l19.29,18.34c1,1.07,2.41,1.62,3.88,1.52l26.53-1.88c1.25-.09,2.52-1.12,3.45-1.88,1.59-1.3,2.64-3.69,3.23-5.61,.19-.6,.34-1.21,.53-1.81l.87-2.76-.06,6.87c-.01,1.44-.99,2.65-1.71,3.85l-1.26,1.48c-1.29,1.05-3.22,2.07-4.54,2.17l-25.23,2.29c-.15,.01-1.59,0-1.74,0-1.68,0-3.95-.77-5.11-2.01l-19.97-19.01c-1.78-1.58-3.09-6.72-2.02-9.21l5.56-13.27c.7-1.67,3.46-3.64,5.2-4.15l20.64-5.91c2.31-.73,4.92-.51,6.7,.17,.23,.09,.44,.2,.64,.32l22.3,13.1c.37,.22,.6,.19,.6,.63v.43c0,.94,.46,2.35-.35,1.89l-25.18-14.33q-.88-.41-2.81-.31l-21.44,6.2c-1.73,.5-3.54,1.55-4.24,3.21l-5.24,12.18Z"/></g><g id="d"><path class="g" d="M62.44,34.08c-5.68-5.17-12.57-9.01-17.88-14.5-.72-3.23,3.1-9.5,3.89-12.64l4.32,.11c-.19,.8-1.51,4.23-2.59,6.62-1.16,2.6-2.06,4.15-1.63,4.52,4.89,4.2,15.23,12.67,15.23,12.67,13.36-5.45,20-7.65,20-7.65,.61-2.58,1.58-6.47,3.98-16.27h4c-.8,2.69-3.03,14.2-5.03,18.89-.42,.98-.93,.85-1.51,1.13-1.11-.04-22.2,8.95-22.79,7.13Z"/><path class="g" d="M42.25,6.94h-2.98l-3.16,8.04c-.22,.78-1.12,1.71-1.96,1.72l-10.78,1.64c-1.93,.41-2.73,.1-3.44-.98L13.86,7.06h-.86v5.72l2.11,3.57,1.26,2.09c.34,.47,2.19,2.02,2.72,2.23l.7,.19c.31,.12,1.06,.33,1.4,.31l1.88-.16,2-.27,5.09-.78,5.58-1.41c.5-.13,.97-.36,1.37-.68h0c.18-.15,.3-.26,.47-.41,.98-.87,1.86-3.43,2.79-5.79l1.87-4.74Z"/><path class="g" d="M67.09,81.72c-.11-.14-.22-.27-.35-.41-2.87-3.13-15.13-14.17-15.13-14.17,0,0-2.37-1.84-4.94-1.35l-13.08,2.66-.54,.25-.83,.39s-.14,.1-.36,.26c-.07,.06-.15,.13-.24,.2-.71,.58-1.84,1.65-2.23,2.81-.59,1.74-4.2,13.05-4.2,13.05,0,0-.1,.35-.14,.93-.03,.29-.03,.64,0,1.03,.07,1,.37,2.29,1.27,3.55l12.73,12.17,5.25,5.02c.3,.29,.66,.51,1.05,.66,1.04,.38,3.29,1.06,6.29,1.06,2.09,0,3.57,0,4.53,.01,.95,.01,1.38,.01,1.38,.01,0,0,.01,0,.02-.01,.15-.15,1.44-1.43,2.56-4.58l.53-1.19,7.31-16.59s1.49-2.79-.88-5.76Zm-2.88,4.96l-8.05,17.43c-.87,2.53-2.93,2.33-2.93,2.33l-5.21-.7-17.4-16.17c-2.13-2.02-1.44-3.32-1.44-3.32l3.8-11.81c.08-1.09,1.56-1.98,1.56-1.98l11.77-2.47c2.07-.42,3.09,.62,3.09,.62l13.67,12.79c1.57,.94,1.14,3.28,1.14,3.28Z"/><path class="g" d="M56.11,38.41c-.04-.18-.07-.35-.11-.53t-.01-.02c-.03-.11-.06-.21-.1-.32-.06-.23-.15-.46-.25-.67-.01-.02-.01-.04-.02-.05-.45-1-1.13-1.83-1.75-2.46l-11.2-8.53-.28-.22c-.18-.15-.38-.28-.58-.41-1.31-.87-2.67-1.21-4.22-1.03-.26,.03-.53,.07-.81,.13l-2.33,.5-.97,.21-.08,.02-1.17,.25-2.58,.55-3.24,.7-1.21,.26-1.11,.24-1.83,.4-.52,.11s-.09,.02-.13,.03c-1.91,.49-3.55,2.55-4.44,4.51-.17,.37-.32,.74-.43,1.09l-.06,.18-.75,2.19-2.29,6.74c-.04,.36-.13,.79-.21,1.24v.02c-.11,.61-.2,1.26-.12,1.85v.02c.01,.1,.03,.2,.06,.29v.03s.03,.1,.04,.14c.48,1.61,1.81,2.9,2.82,3.88l.04,.04,.03,.04,.89,.98,.46,.5,.96,1.06,1.43,1.4,1.23,1.22,1.43,1.39,.73,.71,.36,.35,.5,.48,.1,.1,.03,.02,2,1.61c1.21,1.18,3.49,2.19,5.2,2.28h.02c.08,.01,.16,.01,.23,.01,.47,0,3.07,.09,3.54-.01l10.04-1.93c2.48-.53,4.47-2.31,5.49-4.6,.05-.1,.09-.22,.14-.33,.04-.08,.07-.17,.1-.25l2.09-5.21,2.5-6.21c.05-.17,.1-.35,.14-.53,.04-.14,.07-.29,.1-.44,.04-.2,.08-.41,.11-.61,.04-.26,.07-.52,.1-.79-.01-.02-.01-.03,0-.04,.06-.85,.03-1.72-.11-2.58Zm-3.97,3.19l-4.91,11.93c-.57,1.59-1.35,2.42-3,2.77l-10.65,1.8c-1.22,.26-3.51-.41-4.41-1.28l-10.65-9.8c-1.13-.53-1.56-2.93-.89-4.51l3.07-8.3c.4-1.25,1.37-2.9,2.66-3.17l13.53-2.9c.31-.06,.61-.09,.91-.09,.96,0,1.91,.32,2.68,.92l10.88,8.61c1.17,.92,1.29,2.62,.78,4.02Z"/><path class="g" d="M71.28,109.83h-3.8l8.05-16.93c.92-1.95,2.34-2.1,4.48-2.34l24.82-2.3,2.19-.51c.11-.03,.23-.07,.33-.12l1.14-.49c.94-.36,1.68-.81,2.63-.6,1.36,.3,2.83,1.46,3.04,2,.09,.23,.46,1.06,.51,1.69,.09,1.05-.19,2.06-.26,2.51l-1.39,7.38-2.43,9.73h-4.15l4-19.08,.23-1.32c-.36,.15-.42,.27-1.59,.67-.17,.06-.59,.25-.76,.32l-1.35,.38-27.71,2.69c-.67,.28-1.42,2.27-2.05,3.59l-5.96,12.75Z"/><path class="g" d="M13.02,54.67l10.71,10.96s1.62,2.75,.9,6.14-5.81,15.02-5.81,15.02c0,0-.83,2.5-2.27,3.3l-3.64,1.31,.1-4.13s1.05-.09,2.26-1.57l5.57-15.82s.3-1.9-1.52-3.15l-6.41-6.41,.12-5.65Z"/><path class="g" d="M13,100.69l8.38-.83,10.16,8.72s.62,.72,.75,1.24h4.19l-1.06-2.46s-.81-1.25-1.27-1.64l-11.11-9.55s-.64-.57-1.25-.48l-8.79,.91v4.1Z"/><path class="g" d="M99.86,6.95h4.35l-4.66,20.42c-.02,.1,.02,.19,.11,.26l.05,.04,.08,.06,.11,.08,.14,.1,.17,.12,.2,.14,.22,.16,.25,.17,.27,.19,.29,.2,.31,.22,.33,.23,.35,.24,.36,.25,.38,.27,.39,.27,.4,.28,.41,.29,.42,.3,.43,.3,.44,.31,.44,.31,.45,.31,.45,.32,.45,.32,.45,.32,.45,.32,.45,.32,.44,.31,.44,.31,.43,.3,.43,.3,.42,.29,.41,.29,.39,.28,.38,.27,.37,.26,.35,.25,.33,.23,.32,.22,.3,.21,.28,.19,.25,.18,.23,.16,.2,.14,.18,.13,.15,.11,.12,.09,.09,.06s.05,.04,.06,.04c.02,.01,.05,.02,.08,.03,.04,0,.08,.01,.12,0,.04-.02,.08-.04,.12-.07,.05-.07,.09-.13,.13-.2l.04-.09s.02-.03,.02-.04v3.74l-2.52-.72-.75-.35-.89-.59-14.41-10.22s-2.78-1.64-1.46-5.66l4-17.54Z"/><g><path class="p" d="M95.81,38.09l-3.91-2.23c-.06-.03-.12-.07-.18-.1-1.25-.63-3.71-1.13-4.96-.8l-21.68,6.61c-1.53,.42-2.78,1.56-3.33,3.05l-4.91,11.13-.23,.52c-.08,.26-.14,.52-.19,.76-.03,.08-.04,.17-.05,.26-.24,1.67,.05,4,.85,5.36,.04,.06,.08,.13,.12,.19,.06,.09,.13,.18,.2,.26,.05,.06,.1,.12,.16,.17l17.43,16.67c.14,.14,.28,.27,.41,.4l.8,.76s.06,.05,.09,.07c.64,.57,1.32,1.08,2.23,1.56,.75,.86,2.44,.87,3.14,.84,.18-.01,.3-.02,.31-.02l26-1.94c.14,0,.3-.02,.47-.06,.01,0,.03,0,.04,0,1.21-.28,3.18-1.4,4.42-3.89,.03-.05,.06-.1,.08-.15,.51-1.05,1.11-2.66,1.63-4.16t.01-.02c.56-1.63,1.02-3.14,1.12-3.65v-20.15l-20.07-11.43Zm18.34,19.11l-6.3,18.67c-.05,.23-1.46,1.13-1.7,1.14l-23.86,2.05c-.24,0-1.63-.01-2.35-.3-.91-.36-1.17-1.04-1.39-1.26l-16.77-15.98c-.57,.2-2.07-2.4-1.66-3.14l5.39-12.37c.1-.29,.34-.5,.63-.58l22.03-6.05c.1-.03,.2-.04,.3-.04,.19,0,.39,.05,.56,.15l24.01,14.48c.65,.41,1.33,2.49,1.11,3.23Z"/><path class="i" d="M114.15,57.2l-6.3,18.67c-.05,.23-1.46,1.13-1.7,1.14l-23.86,2.05c-.24,0-1.63-.01-2.35-.3-.91-.36-1.17-1.04-1.39-1.26l-16.77-15.98c-.57,.2-2.07-2.4-1.66-3.14l5.39-12.37c.1-.29,.34-.5,.63-.58l22.03-6.05c.1-.03,.2-.04,.3-.04,.19,0,.39,.05,.56,.15l24.01,14.48c.65,.41,1.33,2.49,1.11,3.23Z"/></g></g><g id="e"><circle class="l" cx="34.01" cy="45.1" r="4.98"/><circle class="l" cx="78.74" cy="55.81" r="4.98"/><g><path class="k" d="M31.58,9.62c0,2.75-2.23,4.98-4.99,4.98s-4.98-2.23-4.98-4.98c0-.98,.29-1.9,.78-2.67h8.41c.49,.77,.78,1.69,.78,2.67Z"/><path class="q" d="M26.59,15.1c-3.02,0-5.48-2.46-5.48-5.48,0-1.04,.09-1.56,.65-2.44l.15-.23h9.3l.15,.23c.56,.88,.73,1.4,.73,2.44,0,3.02-2.46,5.48-5.49,5.48Zm-3.92-7.65c-.37,.67-.56,1.41-.56,2.17,0,2.47,2.01,4.48,4.48,4.48s4.49-2.01,4.49-4.48c0-.76-.19-1.5-.56-2.17h-7.84Z"/></g><circle class="l" cx="69.12" cy="13.17" r="4.98"/><circle class="l" cx="108.19" cy="24.05" r="4.98"/><circle class="l" cx="52.24" cy="89.48" r="4.98"/><circle class="l" cx="96.97" cy="102.93" r="4.98"/><circle class="r" cx="99.78" cy="46.16" r="2.57"/><circle class="r" cx="77.1" cy="85.23" r="2.57"/><circle class="r" cx="53.4" cy="61.75" r="2.02"/><circle class="r" cx="112.08" cy="79.54" r="1.73"/><circle class="r" cx="98.17" cy="78.08" r="1.73"/><circle class="r" cx="68.58" cy="61.54" r="1.63"/><circle class="r" cx="83.28" cy="40.56" r="2.02"/><circle class="r" cx="72.3" cy="43.59" r="1.86"/><circle class="r" cx="60.61" cy="50.29" r="1.86"/><circle class="r" cx="93.01" cy="63.77" r="1.86"/><circle class="r" cx="113.93" cy="54.65" r="1.86"/><circle class="r" cx="99.99" cy="69.15" r="2.84"/><circle class="r" cx="86.55" cy="74.36" r="1.16"/><circle class="r" cx="107.75" cy="63.46" r="1.51"/><circle class="r" cx="109.14" cy="72.23" r="1.51"/><circle class="r" cx="113.93" cy="66.04" r=".85"/><circle class="r" cx="80.05" cy="68.71" r="1.16"/><circle class="r" cx="65" cy="41.41" r="1.16"/><ellipse class="r" cx="104.6" cy="55.81" rx="3.02" ry="2.25" transform="translate(-1.65 108.42) rotate(-54.43)"/><ellipse class="r" cx="91.05" cy="35.62" rx="2.15" ry="2.88" transform="translate(9.11 88.95) rotate(-54.43)"/><circle class="m" cx="108.19" cy="22.05" r="1.5"/><circle class="m" cx="69.85" cy="11.21" r="1.5"/><circle class="m" cx="25.09" cy="11.21" r="1.5"/><circle class="m" cx="36" cy="44.07" r="1.5"/><circle class="m" cx="53.8" cy="88" r="1.5"/><circle class="m" cx="96.43" cy="100.68" r="1.5"/><circle class="m" cx="80.05" cy="57.31" r="1.5"/><g><path class="o" d="M141.41,69.37c-.18,8.9,6.24,11.63,14.11,11.63,4.54,0,11.45-2.48,11.45-8.78,0-4.91-4.91-6.84-8.9-7.81l-9.63-2.36c-5.09-1.27-9.75-3.69-9.75-10.42,0-4.24,2.73-12.17,14.9-12.17,8.54,0,16.05,4.6,15.99,13.44h-4.12c-.24-6.6-5.69-9.93-11.81-9.93-5.63,0-10.84,2.18-10.84,8.6,0,4.06,3.03,5.75,6.54,6.6l10.54,2.6c6.12,1.64,11.2,4.3,11.2,11.39,0,2.97-1.21,12.35-16.53,12.35-10.24,0-17.75-4.6-17.26-15.14h4.12Z"/><path class="o" d="M179.14,69.01c.06,5.57,2.97,12.29,10.29,12.29,5.57,0,8.6-3.27,9.81-7.99h3.82c-1.64,7.09-5.75,11.2-13.63,11.2-9.93,0-14.11-7.63-14.11-16.53,0-8.24,4.18-16.53,14.11-16.53s14.05,8.78,13.75,17.56h-24.04Zm20.23-3.21c-.18-5.75-3.75-11.14-9.93-11.14s-9.69,5.45-10.29,11.14h20.23Z"/><path class="o" d="M208.27,52.35h3.82v5.39h.12c1.39-3.75,5.57-6.3,9.99-6.3,8.78,0,11.45,4.6,11.45,12.05v20.11h-3.82v-19.5c0-5.39-1.76-9.45-7.93-9.45s-9.69,4.6-9.81,10.72v18.23h-3.82v-31.25Z"/><path class="o" d="M241.52,40.36h4.6l25.19,36.58h.12V40.36h4.12v43.24h-4.6l-25.19-36.58h-.12v36.58h-4.12V40.36Z"/><path class="o" d="M285.73,69.01c.06,5.57,2.97,12.29,10.29,12.29,5.57,0,8.6-3.27,9.81-7.99h3.82c-1.64,7.09-5.75,11.2-13.63,11.2-9.93,0-14.11-7.63-14.11-16.53,0-8.24,4.18-16.53,14.11-16.53s14.05,8.78,13.75,17.56h-24.04Zm20.23-3.21c-.18-5.75-3.75-11.14-9.93-11.14s-9.69,5.45-10.29,11.14h20.23Z"/><path class="o" d="M320.98,52.35h6.36v3.21h-6.36v21.08c0,2.48,.36,3.94,3.09,4.12,1.09,0,2.18-.06,3.27-.18v3.27c-1.15,0-2.24,.12-3.39,.12-5.09,0-6.84-1.7-6.78-7.03v-21.38h-5.45v-3.21h5.45v-9.39h3.82v9.39Z"/></g></g></svg>