<?xml version="1.0" encoding="UTF-8" standalone="no"?>
<!DOCTYPE svg PUBLIC "-//W3C//DTD SVG 1.1//EN"
 "http://www.w3.org/Graphics/SVG/1.1/DTD/svg11.dtd">
<!-- Generated by graphviz version 2.40.1 (20161225.0304)
 -->
<!-- Title: dependencies Pages: 1 -->
<svg width="638pt" height="284pt"
 viewBox="0.00 0.00 638.00 284.00" xmlns="http://www.w3.org/2000/svg" xmlns:xlink="http://www.w3.org/1999/xlink">
<g id="graph0" class="graph" transform="scale(1 1) rotate(0) translate(4 280)">
<title>dependencies</title>
<polygon fill="#ffffff" stroke="transparent" points="-4,4 -4,-280 634,-280 634,4 -4,4"/>
<text text-anchor="start" x="294.0091" y="-42.4" font-family="sans-serif" font-weight="bold" font-size="14.00" fill="#000000">Legend</text>
<polygon fill="#ffffb3" stroke="transparent" points="81,-10 81,-30 101,-30 101,-10 81,-10"/>
<text text-anchor="start" x="104.629" y="-15.4" font-family="sans-serif" font-size="14.00" fill="#000000"> &#160;Declarations</text>
<polygon fill="#8dd3c7" stroke="transparent" points="194,-10 194,-30 214,-30 214,-10 194,-10"/>
<text text-anchor="start" x="217.7251" y="-15.4" font-family="sans-serif" font-size="14.00" fill="#000000"> &#160;Module</text>
<polygon fill="#80b1d3" stroke="transparent" points="280,-10 280,-30 300,-30 300,-10 280,-10"/>
<text text-anchor="start" x="303.7812" y="-15.4" font-family="sans-serif" font-size="14.00" fill="#000000"> &#160;Bootstrap</text>
<polygon fill="#fdb462" stroke="transparent" points="377,-10 377,-30 397,-30 397,-10 377,-10"/>
<text text-anchor="start" x="400.6732" y="-15.4" font-family="sans-serif" font-size="14.00" fill="#000000"> &#160;Providers</text>
<polygon fill="#fb8072" stroke="transparent" points="473,-10 473,-30 493,-30 493,-10 473,-10"/>
<text text-anchor="start" x="496.7258" y="-15.4" font-family="sans-serif" font-size="14.00" fill="#000000"> &#160;Exports</text>
<g id="clust1" class="cluster">
<title>cluster_ImageViewerLayersModule</title>
<polygon fill="none" stroke="#000000" stroke-dasharray="1,5" points="8,-70 8,-268 622,-268 622,-70 8,-70"/>
</g>
<g id="clust2" class="cluster">
<title>cluster_ImageViewerLayersModule_declarations</title>
<polygon fill="none" stroke="#000000" points="402,-78 402,-130 614,-130 614,-78 402,-78"/>
</g>
<g id="clust4" class="cluster">
<title>cluster_ImageViewerLayersModule_imports</title>
<polygon fill="none" stroke="#000000" points="16,-78 16,-130 394,-130 394,-78 16,-78"/>
</g>
<g id="clust5" class="cluster">
<title>cluster_ImageViewerLayersModule_exports</title>
<polygon fill="none" stroke="#000000" points="188,-208 188,-260 404,-260 404,-208 188,-208"/>
</g>
<!-- ImageViewerLayersComponent -->
<g id="node1" class="node">
<title>ImageViewerLayersComponent</title>
<polygon fill="#ffffb3" stroke="#000000" points="605.5938,-122 410.4062,-122 410.4062,-86 605.5938,-86 605.5938,-122"/>
<text text-anchor="middle" x="508" y="-99.8" font-family="Times,serif" font-size="14.00" fill="#000000">ImageViewerLayersComponent</text>
</g>
<!-- ImageViewerLayersModule -->
<g id="node2" class="node">
<title>ImageViewerLayersModule</title>
<polygon fill="#8dd3c7" stroke="#000000" points="382.8109,-187 379.8109,-191 358.8109,-191 355.8109,-187 209.1891,-187 209.1891,-151 382.8109,-151 382.8109,-187"/>
<text text-anchor="middle" x="296" y="-164.8" font-family="Times,serif" font-size="14.00" fill="#000000">ImageViewerLayersModule</text>
</g>
<!-- ImageViewerLayersComponent&#45;&gt;ImageViewerLayersModule -->
<g id="edge1" class="edge">
<title>ImageViewerLayersComponent&#45;&gt;ImageViewerLayersModule</title>
<path fill="none" stroke="#000000" d="M508,-122.1061C508,-141.3391 508,-169 508,-169 508,-169 392.8402,-169 392.8402,-169"/>
<polygon fill="#000000" stroke="#000000" points="392.8402,-165.5001 382.8402,-169 392.8402,-172.5001 392.8402,-165.5001"/>
</g>
<!-- ImageViewerLayersComponent  -->
<g id="node5" class="node">
<title>ImageViewerLayersComponent </title>
<polygon fill="#fb8072" stroke="#000000" points="395.5934,-252 196.4066,-252 196.4066,-216 395.5934,-216 395.5934,-252"/>
<text text-anchor="middle" x="296" y="-229.8" font-family="Times,serif" font-size="14.00" fill="#000000">ImageViewerLayersComponent </text>
</g>
<!-- ImageViewerLayersModule&#45;&gt;ImageViewerLayersComponent  -->
<g id="edge4" class="edge">
<title>ImageViewerLayersModule&#45;&gt;ImageViewerLayersComponent </title>
<path fill="none" stroke="#000000" stroke-dasharray="5,2" d="M296,-187.1061C296,-187.1061 296,-205.991 296,-205.991"/>
<polygon fill="#000000" stroke="#000000" points="292.5001,-205.9909 296,-215.991 299.5001,-205.991 292.5001,-205.9909"/>
</g>
<!-- ColorPickerLauncherModule -->
<g id="node3" class="node">
<title>ColorPickerLauncherModule</title>
<polygon fill="#8dd3c7" stroke="#000000" points="386.0576,-122 383.0576,-126 362.0576,-126 359.0576,-122 205.9424,-122 205.9424,-86 386.0576,-86 386.0576,-122"/>
<text text-anchor="middle" x="296" y="-99.8" font-family="Times,serif" font-size="14.00" fill="#000000">ColorPickerLauncherModule</text>
</g>
<!-- ColorPickerLauncherModule&#45;&gt;ImageViewerLayersModule -->
<g id="edge2" class="edge">
<title>ColorPickerLauncherModule&#45;&gt;ImageViewerLayersModule</title>
<path fill="none" stroke="#000000" d="M296,-122.1061C296,-122.1061 296,-140.991 296,-140.991"/>
<polygon fill="#000000" stroke="#000000" points="292.5001,-140.9909 296,-150.991 299.5001,-140.991 292.5001,-140.9909"/>
</g>
<!-- SchemeDropdownModule -->
<g id="node4" class="node">
<title>SchemeDropdownModule</title>
<polygon fill="#8dd3c7" stroke="#000000" points="187.7408,-122 184.7408,-126 163.7408,-126 160.7408,-122 24.2592,-122 24.2592,-86 187.7408,-86 187.7408,-122"/>
<text text-anchor="middle" x="106" y="-99.8" font-family="Times,serif" font-size="14.00" fill="#000000">SchemeDropdownModule</text>
</g>
<!-- SchemeDropdownModule&#45;&gt;ImageViewerLayersModule -->
<g id="edge3" class="edge">
<title>SchemeDropdownModule&#45;&gt;ImageViewerLayersModule</title>
<path fill="none" stroke="#000000" d="M106,-122.1061C106,-141.3391 106,-169 106,-169 106,-169 199.0627,-169 199.0627,-169"/>
<polygon fill="#000000" stroke="#000000" points="199.0627,-172.5001 209.0627,-169 199.0626,-165.5001 199.0627,-172.5001"/>
</g>
</g>
</svg>
