<?xml version="1.0" encoding="UTF-8" standalone="no"?>
<!DOCTYPE svg PUBLIC "-//W3C//DTD SVG 1.1//EN"
 "http://www.w3.org/Graphics/SVG/1.1/DTD/svg11.dtd">
<!-- Generated by graphviz version 2.47.0 (20210316.0004)
 -->
<!-- Title: dependencies Pages: 1 -->
<svg width="504pt" height="284pt"
 viewBox="0.00 0.00 504.00 284.00" xmlns="http://www.w3.org/2000/svg" xmlns:xlink="http://www.w3.org/1999/xlink">
<g id="graph0" class="graph" transform="scale(1 1) rotate(0) translate(4 280)">
<title>dependencies</title>
<polygon fill="white" stroke="transparent" points="-4,4 -4,-280 500,-280 500,4 -4,4"/>
<text text-anchor="start" x="227.01" y="-42.4" font-family="Times-12" font-weight="bold" font-size="14.00">Legend</text>
<polygon fill="#ffffb3" stroke="transparent" points="14,-10 14,-30 34,-30 34,-10 14,-10"/>
<text text-anchor="start" x="37.63" y="-15.4" font-family="Times-12" font-size="14.00"> &#160;Declarations</text>
<polygon fill="#8dd3c7" stroke="transparent" points="127,-10 127,-30 147,-30 147,-10 127,-10"/>
<text text-anchor="start" x="150.73" y="-15.4" font-family="Times-12" font-size="14.00"> &#160;Module</text>
<polygon fill="#80b1d3" stroke="transparent" points="213,-10 213,-30 233,-30 233,-10 213,-10"/>
<text text-anchor="start" x="236.78" y="-15.4" font-family="Times-12" font-size="14.00"> &#160;Bootstrap</text>
<polygon fill="#fdb462" stroke="transparent" points="310,-10 310,-30 330,-30 330,-10 310,-10"/>
<text text-anchor="start" x="333.67" y="-15.4" font-family="Times-12" font-size="14.00"> &#160;Providers</text>
<polygon fill="#fb8072" stroke="transparent" points="406,-10 406,-30 426,-30 426,-10 406,-10"/>
<text text-anchor="start" x="429.73" y="-15.4" font-family="Times-12" font-size="14.00"> &#160;Exports</text>
<g id="clust1" class="cluster">
<title>cluster_StageNavModule</title>
<polygon fill="none" stroke="black" stroke-dasharray="1,5" points="65,-70 65,-268 431,-268 431,-70 65,-70"/>
</g>
<g id="clust4" class="cluster">
<title>cluster_StageNavModule_imports</title>
<polygon fill="none" stroke="black" points="233,-78 233,-130 423,-130 423,-78 233,-78"/>
</g>
<g id="clust2" class="cluster">
<title>cluster_StageNavModule_declarations</title>
<polygon fill="none" stroke="black" points="73,-78 73,-130 225,-130 225,-78 73,-78"/>
</g>
<g id="clust5" class="cluster">
<title>cluster_StageNavModule_exports</title>
<polygon fill="none" stroke="black" points="161,-208 161,-260 317,-260 317,-208 161,-208"/>
</g>
<!-- StageNavComponent -->
<g id="node1" class="node">
<title>StageNavComponent</title>
<polygon fill="#ffffb3" stroke="black" points="216.76,-122 81.24,-122 81.24,-86 216.76,-86 216.76,-122"/>
<text text-anchor="middle" x="149" y="-99.8" font-family="Times,serif" font-size="14.00">StageNavComponent</text>
</g>
<!-- StageNavModule -->
<g id="node2" class="node">
<title>StageNavModule</title>
<polygon fill="#8dd3c7" stroke="black" points="295.97,-187 292.97,-191 271.97,-191 268.97,-187 182.03,-187 182.03,-151 295.97,-151 295.97,-187"/>
<text text-anchor="middle" x="239" y="-164.8" font-family="Times,serif" font-size="14.00">StageNavModule</text>
</g>
<!-- StageNavComponent&#45;&gt;StageNavModule -->
<g id="edge1" class="edge">
<title>StageNavComponent&#45;&gt;StageNavModule</title>
<path fill="none" stroke="black" d="M199.45,-122.11C199.45,-122.11 199.45,-140.99 199.45,-140.99"/>
<polygon fill="black" stroke="black" points="195.95,-140.99 199.45,-150.99 202.95,-140.99 195.95,-140.99"/>
</g>
<!-- StageNavComponent  -->
<g id="node4" class="node">
<title>StageNavComponent </title>
<polygon fill="#fb8072" stroke="black" points="308.76,-252 169.24,-252 169.24,-216 308.76,-216 308.76,-252"/>
<text text-anchor="middle" x="239" y="-229.8" font-family="Times,serif" font-size="14.00">StageNavComponent </text>
</g>
<!-- StageNavModule&#45;&gt;StageNavComponent  -->
<g id="edge3" class="edge">
<title>StageNavModule&#45;&gt;StageNavComponent </title>
<path fill="none" stroke="black" stroke-dasharray="5,2" d="M239,-187.11C239,-187.11 239,-205.99 239,-205.99"/>
<polygon fill="black" stroke="black" points="235.5,-205.99 239,-215.99 242.5,-205.99 235.5,-205.99"/>
</g>
<!-- LabeledSlideToggleModule -->
<g id="node3" class="node">
<title>LabeledSlideToggleModule</title>
<polygon fill="#8dd3c7" stroke="black" points="414.57,-122 411.57,-126 390.57,-126 387.57,-122 241.43,-122 241.43,-86 414.57,-86 414.57,-122"/>
<text text-anchor="middle" x="328" y="-99.8" font-family="Times,serif" font-size="14.00">LabeledSlideToggleModule</text>
</g>
<!-- LabeledSlideToggleModule&#45;&gt;StageNavModule -->
<g id="edge2" class="edge">
<title>LabeledSlideToggleModule&#45;&gt;StageNavModule</title>
<path fill="none" stroke="black" d="M268.73,-122.11C268.73,-122.11 268.73,-140.99 268.73,-140.99"/>
<polygon fill="black" stroke="black" points="265.23,-140.99 268.73,-150.99 272.23,-140.99 265.23,-140.99"/>
</g>
</g>
</svg>
