<?xml version="1.0" encoding="UTF-8" standalone="no"?>
<!DOCTYPE svg PUBLIC "-//W3C//DTD SVG 1.1//EN"
 "http://www.w3.org/Graphics/SVG/1.1/DTD/svg11.dtd">
<!-- Generated by graphviz version 2.47.3 (20210619.1520)
 -->
<!-- Title: dependencies Pages: 1 -->
<svg width="220pt" height="247pt"
 viewBox="0.00 0.00 220.00 246.80" xmlns="http://www.w3.org/2000/svg" xmlns:xlink="http://www.w3.org/1999/xlink">
<g id="graph0" class="graph" transform="scale(1 1) rotate(0) translate(4 242.8)">
<title>dependencies</title>
<polygon fill="white" stroke="transparent" points="-4,4 -4,-242.8 216,-242.8 216,4 -4,4"/>
<text text-anchor="middle" x="106" y="-8.2" font-family="sans-serif" font-size="14.00">dependencies</text>
<g id="clust1" class="cluster">
<title>cluster_ReviewModalModule</title>
<polygon fill="none" stroke="black" stroke-dasharray="1,5" points="8,-32.8 8,-230.8 204,-230.8 204,-32.8 8,-32.8"/>
</g>
<g id="clust5" class="cluster">
<title>cluster_ReviewModalModule_exports</title>
<polygon fill="none" stroke="black" points="16,-170.8 16,-222.8 196,-222.8 196,-170.8 16,-170.8"/>
</g>
<g id="clust2" class="cluster">
<title>cluster_ReviewModalModule_declarations</title>
<polygon fill="none" stroke="black" points="18,-40.8 18,-92.8 194,-92.8 194,-40.8 18,-40.8"/>
</g>
<!-- ReviewModalComponent -->
<g id="node1" class="node">
<title>ReviewModalComponent</title>
<polygon fill="#ffffb3" stroke="black" points="186.15,-84.8 25.85,-84.8 25.85,-48.8 186.15,-48.8 186.15,-84.8"/>
<text text-anchor="middle" x="106" y="-62.6" font-family="Times,serif" font-size="14.00">ReviewModalComponent</text>
</g>
<!-- ReviewModalModule -->
<g id="node2" class="node">
<title>ReviewModalModule</title>
<polygon fill="#8dd3c7" stroke="black" points="175.36,-149.8 172.36,-153.8 151.36,-153.8 148.36,-149.8 36.64,-149.8 36.64,-113.8 175.36,-113.8 175.36,-149.8"/>
<text text-anchor="middle" x="106" y="-127.6" font-family="Times,serif" font-size="14.00">ReviewModalModule</text>
</g>
<!-- ReviewModalComponent&#45;&gt;ReviewModalModule -->
<g id="edge1" class="edge">
<title>ReviewModalComponent&#45;&gt;ReviewModalModule</title>
<path fill="none" stroke="black" d="M106,-84.91C106,-84.91 106,-103.79 106,-103.79"/>
<polygon fill="black" stroke="black" points="102.5,-103.79 106,-113.79 109.5,-103.79 102.5,-103.79"/>
</g>
<!-- ReviewModalComponent  -->
<g id="node3" class="node">
<title>ReviewModalComponent </title>
<polygon fill="#fb8072" stroke="black" points="188.15,-214.8 23.85,-214.8 23.85,-178.8 188.15,-178.8 188.15,-214.8"/>
<text text-anchor="middle" x="106" y="-192.6" font-family="Times,serif" font-size="14.00">ReviewModalComponent </text>
</g>
<!-- ReviewModalModule&#45;&gt;ReviewModalComponent  -->
<g id="edge2" class="edge">
<title>ReviewModalModule&#45;&gt;ReviewModalComponent </title>
<path fill="none" stroke="black" stroke-dasharray="5,2" d="M106,-149.91C106,-149.91 106,-168.79 106,-168.79"/>
<polygon fill="black" stroke="black" points="102.5,-168.79 106,-178.79 109.5,-168.79 102.5,-168.79"/>
</g>
</g>
</svg>
