<svg xmlns="http://www.w3.org/2000/svg" viewBox="0 0 30 30"><defs><style>.cls-1{fill:none;}</style></defs><g id="kidney_copy" data-name="kidney copy"><rect id="base" class="cls-1" width="30" height="30"/><path d="M11.74,13a4.82,4.82,0,0,1-.5-2.1s-1.56.37-2.59-1.61c-1.21-2.35-.26-4.75,2.29-6.06,4.5-2.31,8.41,3,9.58,5.26s2.76,8.75-1.27,10.82c-2.34,1.21-4.77,1.26-6-1.19a3.08,3.08,0,0,1,.41-3.74A3.29,3.29,0,0,1,11.74,13Z"/><path d="M10.65,12.32a3.78,3.78,0,0,0,.28.94,2.75,2.75,0,0,0-1.17,2.21v12.4h-1V15.47A3.66,3.66,0,0,1,10.65,12.32Z"/></g></svg>