<?xml version="1.0" encoding="UTF-8" standalone="no"?>
<!DOCTYPE svg PUBLIC "-//W3C//DTD SVG 1.1//EN"
 "http://www.w3.org/Graphics/SVG/1.1/DTD/svg11.dtd">
<!-- Generated by graphviz version 2.47.3 (20210619.1520)
 -->
<!-- Title: dependencies Pages: 1 -->
<svg width="218pt" height="247pt"
 viewBox="0.00 0.00 218.00 246.80" xmlns="http://www.w3.org/2000/svg" xmlns:xlink="http://www.w3.org/1999/xlink">
<g id="graph0" class="graph" transform="scale(1 1) rotate(0) translate(4 242.8)">
<title>dependencies</title>
<polygon fill="white" stroke="transparent" points="-4,4 -4,-242.8 214,-242.8 214,4 -4,4"/>
<text text-anchor="middle" x="105" y="-8.2" font-family="sans-serif" font-size="14.00">dependencies</text>
<g id="clust1" class="cluster">
<title>cluster_CallToActionModule</title>
<polygon fill="none" stroke="black" stroke-dasharray="1,5" points="8,-32.8 8,-230.8 202,-230.8 202,-32.8 8,-32.8"/>
</g>
<g id="clust2" class="cluster">
<title>cluster_CallToActionModule_declarations</title>
<polygon fill="none" stroke="black" points="18,-40.8 18,-92.8 192,-92.8 192,-40.8 18,-40.8"/>
</g>
<g id="clust5" class="cluster">
<title>cluster_CallToActionModule_exports</title>
<polygon fill="none" stroke="black" points="16,-170.8 16,-222.8 194,-222.8 194,-170.8 16,-170.8"/>
</g>
<!-- CallToActionComponent -->
<g id="node1" class="node">
<title>CallToActionComponent</title>
<polygon fill="#ffffb3" stroke="black" points="184.32,-84.8 25.68,-84.8 25.68,-48.8 184.32,-48.8 184.32,-84.8"/>
<text text-anchor="middle" x="105" y="-62.6" font-family="Times,serif" font-size="14.00">CallToActionComponent</text>
</g>
<!-- CallToActionModule -->
<g id="node2" class="node">
<title>CallToActionModule</title>
<polygon fill="#8dd3c7" stroke="black" points="173.04,-149.8 170.04,-153.8 149.04,-153.8 146.04,-149.8 36.96,-149.8 36.96,-113.8 173.04,-113.8 173.04,-149.8"/>
<text text-anchor="middle" x="105" y="-127.6" font-family="Times,serif" font-size="14.00">CallToActionModule</text>
</g>
<!-- CallToActionComponent&#45;&gt;CallToActionModule -->
<g id="edge1" class="edge">
<title>CallToActionComponent&#45;&gt;CallToActionModule</title>
<path fill="none" stroke="black" d="M105,-84.91C105,-84.91 105,-103.79 105,-103.79"/>
<polygon fill="black" stroke="black" points="101.5,-103.79 105,-113.79 108.5,-103.79 101.5,-103.79"/>
</g>
<!-- CallToActionComponent  -->
<g id="node3" class="node">
<title>CallToActionComponent </title>
<polygon fill="#fb8072" stroke="black" points="185.82,-214.8 24.18,-214.8 24.18,-178.8 185.82,-178.8 185.82,-214.8"/>
<text text-anchor="middle" x="105" y="-192.6" font-family="Times,serif" font-size="14.00">CallToActionComponent </text>
</g>
<!-- CallToActionModule&#45;&gt;CallToActionComponent  -->
<g id="edge2" class="edge">
<title>CallToActionModule&#45;&gt;CallToActionComponent </title>
<path fill="none" stroke="black" stroke-dasharray="5,2" d="M105,-149.91C105,-149.91 105,-168.79 105,-168.79"/>
<polygon fill="black" stroke="black" points="101.5,-168.79 105,-178.79 108.5,-168.79 101.5,-168.79"/>
</g>
</g>
</svg>
