<?xml version="1.0" encoding="UTF-8" standalone="no"?>
<!DOCTYPE svg PUBLIC "-//W3C//DTD SVG 1.1//EN"
 "http://www.w3.org/Graphics/SVG/1.1/DTD/svg11.dtd">
<!-- Generated by graphviz version 2.47.3 (20210619.1520)
 -->
<!-- Title: dependencies Pages: 1 -->
<svg width="588pt" height="247pt"
 viewBox="0.00 0.00 588.00 246.80" xmlns="http://www.w3.org/2000/svg" xmlns:xlink="http://www.w3.org/1999/xlink">
<g id="graph0" class="graph" transform="scale(1 1) rotate(0) translate(4 242.8)">
<title>dependencies</title>
<polygon fill="white" stroke="transparent" points="-4,4 -4,-242.8 584,-242.8 584,4 -4,4"/>
<text text-anchor="middle" x="290" y="-8.2" font-family="sans-serif" font-size="14.00">dependencies</text>
<g id="clust1" class="cluster">
<title>cluster_RegistrationContentModule</title>
<polygon fill="none" stroke="black" stroke-dasharray="1,5" points="8,-32.8 8,-230.8 572,-230.8 572,-32.8 8,-32.8"/>
</g>
<g id="clust2" class="cluster">
<title>cluster_RegistrationContentModule_declarations</title>
<polygon fill="none" stroke="black" points="354,-40.8 354,-92.8 564,-92.8 564,-40.8 354,-40.8"/>
</g>
<g id="clust5" class="cluster">
<title>cluster_RegistrationContentModule_exports</title>
<polygon fill="none" stroke="black" points="144,-170.8 144,-222.8 358,-222.8 358,-170.8 144,-170.8"/>
</g>
<g id="clust4" class="cluster">
<title>cluster_RegistrationContentModule_imports</title>
<polygon fill="none" stroke="black" points="16,-40.8 16,-92.8 346,-92.8 346,-40.8 16,-40.8"/>
</g>
<!-- RegistrationContentComponent -->
<g id="node1" class="node">
<title>RegistrationContentComponent</title>
<polygon fill="#ffffb3" stroke="black" points="556.1,-84.8 361.9,-84.8 361.9,-48.8 556.1,-48.8 556.1,-84.8"/>
<text text-anchor="middle" x="459" y="-62.6" font-family="Times,serif" font-size="14.00">RegistrationContentComponent</text>
</g>
<!-- RegistrationContentModule -->
<g id="node2" class="node">
<title>RegistrationContentModule</title>
<polygon fill="#8dd3c7" stroke="black" points="337.32,-149.8 334.32,-153.8 313.32,-153.8 310.32,-149.8 164.68,-149.8 164.68,-113.8 337.32,-113.8 337.32,-149.8"/>
<text text-anchor="middle" x="251" y="-127.6" font-family="Times,serif" font-size="14.00">RegistrationContentModule</text>
</g>
<!-- RegistrationContentComponent&#45;&gt;RegistrationContentModule -->
<g id="edge1" class="edge">
<title>RegistrationContentComponent&#45;&gt;RegistrationContentModule</title>
<path fill="none" stroke="black" d="M459,-84.91C459,-104.14 459,-131.8 459,-131.8 459,-131.8 347.4,-131.8 347.4,-131.8"/>
<polygon fill="black" stroke="black" points="347.4,-128.3 337.4,-131.8 347.4,-135.3 347.4,-128.3"/>
</g>
<!-- RegistrationContentComponent  -->
<g id="node5" class="node">
<title>RegistrationContentComponent </title>
<polygon fill="#fb8072" stroke="black" points="349.6,-214.8 152.4,-214.8 152.4,-178.8 349.6,-178.8 349.6,-214.8"/>
<text text-anchor="middle" x="251" y="-192.6" font-family="Times,serif" font-size="14.00">RegistrationContentComponent </text>
</g>
<!-- RegistrationContentModule&#45;&gt;RegistrationContentComponent  -->
<g id="edge4" class="edge">
<title>RegistrationContentModule&#45;&gt;RegistrationContentComponent </title>
<path fill="none" stroke="black" stroke-dasharray="5,2" d="M251,-149.91C251,-149.91 251,-168.79 251,-168.79"/>
<polygon fill="black" stroke="black" points="247.5,-168.79 251,-178.79 254.5,-168.79 247.5,-168.79"/>
</g>
<!-- LabeledSlideToggleModule -->
<g id="node3" class="node">
<title>LabeledSlideToggleModule</title>
<polygon fill="#8dd3c7" stroke="black" points="337.57,-84.8 334.57,-88.8 313.57,-88.8 310.57,-84.8 164.43,-84.8 164.43,-48.8 337.57,-48.8 337.57,-84.8"/>
<text text-anchor="middle" x="251" y="-62.6" font-family="Times,serif" font-size="14.00">LabeledSlideToggleModule</text>
</g>
<!-- LabeledSlideToggleModule&#45;&gt;RegistrationContentModule -->
<g id="edge2" class="edge">
<title>LabeledSlideToggleModule&#45;&gt;RegistrationContentModule</title>
<path fill="none" stroke="black" d="M251,-84.91C251,-84.91 251,-103.79 251,-103.79"/>
<polygon fill="black" stroke="black" points="247.5,-103.79 251,-113.79 254.5,-103.79 247.5,-103.79"/>
</g>
<!-- NameInputModule -->
<g id="node4" class="node">
<title>NameInputModule</title>
<polygon fill="#8dd3c7" stroke="black" points="146.03,-84.8 143.03,-88.8 122.03,-88.8 119.03,-84.8 23.97,-84.8 23.97,-48.8 146.03,-48.8 146.03,-84.8"/>
<text text-anchor="middle" x="85" y="-62.6" font-family="Times,serif" font-size="14.00">NameInputModule</text>
</g>
<!-- NameInputModule&#45;&gt;RegistrationContentModule -->
<g id="edge3" class="edge">
<title>NameInputModule&#45;&gt;RegistrationContentModule</title>
<path fill="none" stroke="black" d="M85,-84.91C85,-104.14 85,-131.8 85,-131.8 85,-131.8 154.6,-131.8 154.6,-131.8"/>
<polygon fill="black" stroke="black" points="154.6,-135.3 164.6,-131.8 154.6,-128.3 154.6,-135.3"/>
</g>
</g>
</svg>
