<?xml version="1.0" encoding="UTF-8" standalone="no"?>
<!DOCTYPE svg PUBLIC "-//W3C//DTD SVG 1.1//EN"
 "http://www.w3.org/Graphics/SVG/1.1/DTD/svg11.dtd">
<!-- Generated by graphviz version 2.47.0 (20210316.0004)
 -->
<!-- Title: dependencies Pages: 1 -->
<svg width="588pt" height="284pt"
 viewBox="0.00 0.00 588.00 284.00" xmlns="http://www.w3.org/2000/svg" xmlns:xlink="http://www.w3.org/1999/xlink">
<g id="graph0" class="graph" transform="scale(1 1) rotate(0) translate(4 280)">
<title>dependencies</title>
<polygon fill="white" stroke="transparent" points="-4,4 -4,-280 584,-280 584,4 -4,4"/>
<text text-anchor="start" x="269.01" y="-42.4" font-family="Times-12" font-weight="bold" font-size="14.00">Legend</text>
<polygon fill="#ffffb3" stroke="transparent" points="56,-10 56,-30 76,-30 76,-10 56,-10"/>
<text text-anchor="start" x="79.63" y="-15.4" font-family="Times-12" font-size="14.00"> &#160;Declarations</text>
<polygon fill="#8dd3c7" stroke="transparent" points="169,-10 169,-30 189,-30 189,-10 169,-10"/>
<text text-anchor="start" x="192.73" y="-15.4" font-family="Times-12" font-size="14.00"> &#160;Module</text>
<polygon fill="#80b1d3" stroke="transparent" points="255,-10 255,-30 275,-30 275,-10 255,-10"/>
<text text-anchor="start" x="278.78" y="-15.4" font-family="Times-12" font-size="14.00"> &#160;Bootstrap</text>
<polygon fill="#fdb462" stroke="transparent" points="352,-10 352,-30 372,-30 372,-10 352,-10"/>
<text text-anchor="start" x="375.67" y="-15.4" font-family="Times-12" font-size="14.00"> &#160;Providers</text>
<polygon fill="#fb8072" stroke="transparent" points="448,-10 448,-30 468,-30 468,-10 448,-10"/>
<text text-anchor="start" x="471.73" y="-15.4" font-family="Times-12" font-size="14.00"> &#160;Exports</text>
<g id="clust1" class="cluster">
<title>cluster_RegistrationContentModule</title>
<polygon fill="none" stroke="black" stroke-dasharray="1,5" points="8,-70 8,-268 572,-268 572,-70 8,-70"/>
</g>
<g id="clust2" class="cluster">
<title>cluster_RegistrationContentModule_declarations</title>
<polygon fill="none" stroke="black" points="354,-78 354,-130 564,-130 564,-78 354,-78"/>
</g>
<g id="clust5" class="cluster">
<title>cluster_RegistrationContentModule_exports</title>
<polygon fill="none" stroke="black" points="144,-208 144,-260 358,-260 358,-208 144,-208"/>
</g>
<g id="clust4" class="cluster">
<title>cluster_RegistrationContentModule_imports</title>
<polygon fill="none" stroke="black" points="16,-78 16,-130 346,-130 346,-78 16,-78"/>
</g>
<!-- RegistrationContentComponent -->
<g id="node1" class="node">
<title>RegistrationContentComponent</title>
<polygon fill="#ffffb3" stroke="black" points="556.1,-122 361.9,-122 361.9,-86 556.1,-86 556.1,-122"/>
<text text-anchor="middle" x="459" y="-99.8" font-family="Times,serif" font-size="14.00">RegistrationContentComponent</text>
</g>
<!-- RegistrationContentModule -->
<g id="node2" class="node">
<title>RegistrationContentModule</title>
<polygon fill="#8dd3c7" stroke="black" points="337.32,-187 334.32,-191 313.32,-191 310.32,-187 164.68,-187 164.68,-151 337.32,-151 337.32,-187"/>
<text text-anchor="middle" x="251" y="-164.8" font-family="Times,serif" font-size="14.00">RegistrationContentModule</text>
</g>
<!-- RegistrationContentComponent&#45;&gt;RegistrationContentModule -->
<g id="edge1" class="edge">
<title>RegistrationContentComponent&#45;&gt;RegistrationContentModule</title>
<path fill="none" stroke="black" d="M459,-122.11C459,-141.34 459,-169 459,-169 459,-169 347.4,-169 347.4,-169"/>
<polygon fill="black" stroke="black" points="347.4,-165.5 337.4,-169 347.4,-172.5 347.4,-165.5"/>
</g>
<!-- RegistrationContentComponent  -->
<g id="node5" class="node">
<title>RegistrationContentComponent </title>
<polygon fill="#fb8072" stroke="black" points="349.6,-252 152.4,-252 152.4,-216 349.6,-216 349.6,-252"/>
<text text-anchor="middle" x="251" y="-229.8" font-family="Times,serif" font-size="14.00">RegistrationContentComponent </text>
</g>
<!-- RegistrationContentModule&#45;&gt;RegistrationContentComponent  -->
<g id="edge4" class="edge">
<title>RegistrationContentModule&#45;&gt;RegistrationContentComponent </title>
<path fill="none" stroke="black" stroke-dasharray="5,2" d="M251,-187.11C251,-187.11 251,-205.99 251,-205.99"/>
<polygon fill="black" stroke="black" points="247.5,-205.99 251,-215.99 254.5,-205.99 247.5,-205.99"/>
</g>
<!-- LabeledSlideToggleModule -->
<g id="node3" class="node">
<title>LabeledSlideToggleModule</title>
<polygon fill="#8dd3c7" stroke="black" points="337.57,-122 334.57,-126 313.57,-126 310.57,-122 164.43,-122 164.43,-86 337.57,-86 337.57,-122"/>
<text text-anchor="middle" x="251" y="-99.8" font-family="Times,serif" font-size="14.00">LabeledSlideToggleModule</text>
</g>
<!-- LabeledSlideToggleModule&#45;&gt;RegistrationContentModule -->
<g id="edge2" class="edge">
<title>LabeledSlideToggleModule&#45;&gt;RegistrationContentModule</title>
<path fill="none" stroke="black" d="M251,-122.11C251,-122.11 251,-140.99 251,-140.99"/>
<polygon fill="black" stroke="black" points="247.5,-140.99 251,-150.99 254.5,-140.99 247.5,-140.99"/>
</g>
<!-- NameInputModule -->
<g id="node4" class="node">
<title>NameInputModule</title>
<polygon fill="#8dd3c7" stroke="black" points="146.03,-122 143.03,-126 122.03,-126 119.03,-122 23.97,-122 23.97,-86 146.03,-86 146.03,-122"/>
<text text-anchor="middle" x="85" y="-99.8" font-family="Times,serif" font-size="14.00">NameInputModule</text>
</g>
<!-- NameInputModule&#45;&gt;RegistrationContentModule -->
<g id="edge3" class="edge">
<title>NameInputModule&#45;&gt;RegistrationContentModule</title>
<path fill="none" stroke="black" d="M85,-122.11C85,-141.34 85,-169 85,-169 85,-169 154.6,-169 154.6,-169"/>
<polygon fill="black" stroke="black" points="154.6,-172.5 164.6,-169 154.6,-165.5 154.6,-172.5"/>
</g>
</g>
</svg>
