<?xml version="1.0" encoding="UTF-8" standalone="no"?>
<!DOCTYPE svg PUBLIC "-//W3C//DTD SVG 1.1//EN"
 "http://www.w3.org/Graphics/SVG/1.1/DTD/svg11.dtd">
<!-- Generated by graphviz version 2.47.0 (20210316.0004)
 -->
<!-- Title: dependencies Pages: 1 -->
<svg width="588pt" height="284pt"
 viewBox="0.00 0.00 588.00 284.00" xmlns="http://www.w3.org/2000/svg" xmlns:xlink="http://www.w3.org/1999/xlink">
<g id="graph0" class="graph" transform="scale(1 1) rotate(0) translate(4 280)">
<title>dependencies</title>
<polygon fill="white" stroke="transparent" points="-4,4 -4,-280 584,-280 584,4 -4,4"/>
<text text-anchor="start" x="269.01" y="-42.4" font-family="Times-12" font-weight="bold" font-size="14.00">Legend</text>
<polygon fill="#ffffb3" stroke="transparent" points="56,-10 56,-30 76,-30 76,-10 56,-10"/>
<text text-anchor="start" x="79.63" y="-15.4" font-family="Times-12" font-size="14.00"> &#160;Declarations</text>
<polygon fill="#8dd3c7" stroke="transparent" points="169,-10 169,-30 189,-30 189,-10 169,-10"/>
<text text-anchor="start" x="192.73" y="-15.4" font-family="Times-12" font-size="14.00"> &#160;Module</text>
<polygon fill="#80b1d3" stroke="transparent" points="255,-10 255,-30 275,-30 275,-10 255,-10"/>
<text text-anchor="start" x="278.78" y="-15.4" font-family="Times-12" font-size="14.00"> &#160;Bootstrap</text>
<polygon fill="#fdb462" stroke="transparent" points="352,-10 352,-30 372,-30 372,-10 352,-10"/>
<text text-anchor="start" x="375.67" y="-15.4" font-family="Times-12" font-size="14.00"> &#160;Providers</text>
<polygon fill="#fb8072" stroke="transparent" points="448,-10 448,-30 468,-30 468,-10 448,-10"/>
<text text-anchor="start" x="471.73" y="-15.4" font-family="Times-12" font-size="14.00"> &#160;Exports</text>
<g id="clust1" class="cluster">
<title>cluster_RegistrationContentModule</title>
<polygon fill="none" stroke="black" stroke-dasharray="1,5" points="8,-70 8,-268 572,-268 572,-70 8,-70"/>
</g>
<g id="clust4" class="cluster">
<title>cluster_RegistrationContentModule_imports</title>
<polygon fill="none" stroke="black" points="234,-78 234,-130 564,-130 564,-78 234,-78"/>
</g>
<g id="clust2" class="cluster">
<title>cluster_RegistrationContentModule_declarations</title>
<polygon fill="none" stroke="black" points="16,-78 16,-130 226,-130 226,-78 16,-78"/>
</g>
<g id="clust5" class="cluster">
<title>cluster_RegistrationContentModule_exports</title>
<polygon fill="none" stroke="black" points="196,-208 196,-260 410,-260 410,-208 196,-208"/>
</g>
<!-- RegistrationContentComponent -->
<g id="node1" class="node">
<title>RegistrationContentComponent</title>
<polygon fill="#ffffb3" stroke="black" points="218.1,-122 23.9,-122 23.9,-86 218.1,-86 218.1,-122"/>
<text text-anchor="middle" x="121" y="-99.8" font-family="Times,serif" font-size="14.00">RegistrationContentComponent</text>
</g>
<!-- RegistrationContentModule -->
<g id="node2" class="node">
<title>RegistrationContentModule</title>
<polygon fill="#8dd3c7" stroke="black" points="389.32,-187 386.32,-191 365.32,-191 362.32,-187 216.68,-187 216.68,-151 389.32,-151 389.32,-187"/>
<text text-anchor="middle" x="303" y="-164.8" font-family="Times,serif" font-size="14.00">RegistrationContentModule</text>
</g>
<!-- RegistrationContentComponent&#45;&gt;RegistrationContentModule -->
<g id="edge1" class="edge">
<title>RegistrationContentComponent&#45;&gt;RegistrationContentModule</title>
<path fill="none" stroke="black" d="M210.52,-122.11C210.52,-141.34 210.52,-169 210.52,-169 210.52,-169 211.13,-169 211.13,-169"/>
<polygon fill="black" stroke="black" points="206.59,-172.5 216.59,-169 206.59,-165.5 206.59,-172.5"/>
</g>
<!-- RegistrationContentComponent  -->
<g id="node5" class="node">
<title>RegistrationContentComponent </title>
<polygon fill="#fb8072" stroke="black" points="401.6,-252 204.4,-252 204.4,-216 401.6,-216 401.6,-252"/>
<text text-anchor="middle" x="303" y="-229.8" font-family="Times,serif" font-size="14.00">RegistrationContentComponent </text>
</g>
<!-- RegistrationContentModule&#45;&gt;RegistrationContentComponent  -->
<g id="edge4" class="edge">
<title>RegistrationContentModule&#45;&gt;RegistrationContentComponent </title>
<path fill="none" stroke="black" stroke-dasharray="5,2" d="M303,-187.11C303,-187.11 303,-205.99 303,-205.99"/>
<polygon fill="black" stroke="black" points="299.5,-205.99 303,-215.99 306.5,-205.99 299.5,-205.99"/>
</g>
<!-- LabeledSlideToggleModule -->
<g id="node3" class="node">
<title>LabeledSlideToggleModule</title>
<polygon fill="#8dd3c7" stroke="black" points="555.57,-122 552.57,-126 531.57,-126 528.57,-122 382.43,-122 382.43,-86 555.57,-86 555.57,-122"/>
<text text-anchor="middle" x="469" y="-99.8" font-family="Times,serif" font-size="14.00">LabeledSlideToggleModule</text>
</g>
<!-- LabeledSlideToggleModule&#45;&gt;RegistrationContentModule -->
<g id="edge2" class="edge">
<title>LabeledSlideToggleModule&#45;&gt;RegistrationContentModule</title>
<path fill="none" stroke="black" d="M395.48,-122.11C395.48,-141.34 395.48,-169 395.48,-169 395.48,-169 394.87,-169 394.87,-169"/>
<polygon fill="black" stroke="black" points="399.41,-165.5 389.41,-169 399.41,-172.5 399.41,-165.5"/>
</g>
<!-- NameInputModule -->
<g id="node4" class="node">
<title>NameInputModule</title>
<polygon fill="#8dd3c7" stroke="black" points="364.03,-122 361.03,-126 340.03,-126 337.03,-122 241.97,-122 241.97,-86 364.03,-86 364.03,-122"/>
<text text-anchor="middle" x="303" y="-99.8" font-family="Times,serif" font-size="14.00">NameInputModule</text>
</g>
<!-- NameInputModule&#45;&gt;RegistrationContentModule -->
<g id="edge3" class="edge">
<title>NameInputModule&#45;&gt;RegistrationContentModule</title>
<path fill="none" stroke="black" d="M303,-122.11C303,-122.11 303,-140.99 303,-140.99"/>
<polygon fill="black" stroke="black" points="299.5,-140.99 303,-150.99 306.5,-140.99 299.5,-140.99"/>
</g>
</g>
</svg>
