<?xml version="1.0" encoding="UTF-8" standalone="no"?>
<!DOCTYPE svg PUBLIC "-//W3C//DTD SVG 1.1//EN"
 "http://www.w3.org/Graphics/SVG/1.1/DTD/svg11.dtd">
<!-- Generated by graphviz version 2.47.0 (20210316.0004)
 -->
<!-- Title: dependencies Pages: 1 -->
<svg width="504pt" height="284pt"
 viewBox="0.00 0.00 504.00 284.00" xmlns="http://www.w3.org/2000/svg" xmlns:xlink="http://www.w3.org/1999/xlink">
<g id="graph0" class="graph" transform="scale(1 1) rotate(0) translate(4 280)">
<title>dependencies</title>
<polygon fill="white" stroke="transparent" points="-4,4 -4,-280 500,-280 500,4 -4,4"/>
<text text-anchor="start" x="227.01" y="-42.4" font-family="Times-12" font-weight="bold" font-size="14.00">Legend</text>
<polygon fill="#ffffb3" stroke="transparent" points="14,-10 14,-30 34,-30 34,-10 14,-10"/>
<text text-anchor="start" x="37.63" y="-15.4" font-family="Times-12" font-size="14.00"> &#160;Declarations</text>
<polygon fill="#8dd3c7" stroke="transparent" points="127,-10 127,-30 147,-30 147,-10 127,-10"/>
<text text-anchor="start" x="150.73" y="-15.4" font-family="Times-12" font-size="14.00"> &#160;Module</text>
<polygon fill="#80b1d3" stroke="transparent" points="213,-10 213,-30 233,-30 233,-10 213,-10"/>
<text text-anchor="start" x="236.78" y="-15.4" font-family="Times-12" font-size="14.00"> &#160;Bootstrap</text>
<polygon fill="#fdb462" stroke="transparent" points="310,-10 310,-30 330,-30 330,-10 310,-10"/>
<text text-anchor="start" x="333.67" y="-15.4" font-family="Times-12" font-size="14.00"> &#160;Providers</text>
<polygon fill="#fb8072" stroke="transparent" points="406,-10 406,-30 426,-30 426,-10 406,-10"/>
<text text-anchor="start" x="429.73" y="-15.4" font-family="Times-12" font-size="14.00"> &#160;Exports</text>
<g id="clust1" class="cluster">
<title>cluster_RegistrationContentModule</title>
<polygon fill="none" stroke="black" stroke-dasharray="1,5" points="33,-70 33,-268 463,-268 463,-70 33,-70"/>
</g>
<g id="clust5" class="cluster">
<title>cluster_RegistrationContentModule_exports</title>
<polygon fill="none" stroke="black" points="141,-208 141,-260 355,-260 355,-208 141,-208"/>
</g>
<g id="clust4" class="cluster">
<title>cluster_RegistrationContentModule_imports</title>
<polygon fill="none" stroke="black" points="259,-78 259,-130 455,-130 455,-78 259,-78"/>
</g>
<g id="clust2" class="cluster">
<title>cluster_RegistrationContentModule_declarations</title>
<polygon fill="none" stroke="black" points="41,-78 41,-130 251,-130 251,-78 41,-78"/>
</g>
<!-- RegistrationContentComponent -->
<g id="node1" class="node">
<title>RegistrationContentComponent</title>
<polygon fill="#ffffb3" stroke="black" points="243.1,-122 48.9,-122 48.9,-86 243.1,-86 243.1,-122"/>
<text text-anchor="middle" x="146" y="-99.8" font-family="Times,serif" font-size="14.00">RegistrationContentComponent</text>
</g>
<!-- RegistrationContentModule -->
<g id="node2" class="node">
<title>RegistrationContentModule</title>
<polygon fill="#8dd3c7" stroke="black" points="334.32,-187 331.32,-191 310.32,-191 307.32,-187 161.68,-187 161.68,-151 334.32,-151 334.32,-187"/>
<text text-anchor="middle" x="248" y="-164.8" font-family="Times,serif" font-size="14.00">RegistrationContentModule</text>
</g>
<!-- RegistrationContentComponent&#45;&gt;RegistrationContentModule -->
<g id="edge1" class="edge">
<title>RegistrationContentComponent&#45;&gt;RegistrationContentModule</title>
<path fill="none" stroke="black" d="M202.45,-122.11C202.45,-122.11 202.45,-140.99 202.45,-140.99"/>
<polygon fill="black" stroke="black" points="198.95,-140.99 202.45,-150.99 205.95,-140.99 198.95,-140.99"/>
</g>
<!-- RegistrationContentComponent  -->
<g id="node4" class="node">
<title>RegistrationContentComponent </title>
<polygon fill="#fb8072" stroke="black" points="346.6,-252 149.4,-252 149.4,-216 346.6,-216 346.6,-252"/>
<text text-anchor="middle" x="248" y="-229.8" font-family="Times,serif" font-size="14.00">RegistrationContentComponent </text>
</g>
<!-- RegistrationContentModule&#45;&gt;RegistrationContentComponent  -->
<g id="edge3" class="edge">
<title>RegistrationContentModule&#45;&gt;RegistrationContentComponent </title>
<path fill="none" stroke="black" stroke-dasharray="5,2" d="M248,-187.11C248,-187.11 248,-205.99 248,-205.99"/>
<polygon fill="black" stroke="black" points="244.5,-205.99 248,-215.99 251.5,-205.99 244.5,-205.99"/>
</g>
<!-- RegistrationMetadataModule -->
<g id="node3" class="node">
<title>RegistrationMetadataModule</title>
<polygon fill="#8dd3c7" stroke="black" points="447.07,-122 444.07,-126 423.07,-126 420.07,-122 266.93,-122 266.93,-86 447.07,-86 447.07,-122"/>
<text text-anchor="middle" x="357" y="-99.8" font-family="Times,serif" font-size="14.00">RegistrationMetadataModule</text>
</g>
<!-- RegistrationMetadataModule&#45;&gt;RegistrationContentModule -->
<g id="edge2" class="edge">
<title>RegistrationMetadataModule&#45;&gt;RegistrationContentModule</title>
<path fill="none" stroke="black" d="M300.56,-122.11C300.56,-122.11 300.56,-140.99 300.56,-140.99"/>
<polygon fill="black" stroke="black" points="297.06,-140.99 300.56,-150.99 304.06,-140.99 297.06,-140.99"/>
</g>
</g>
</svg>
