<?xml version="1.0" encoding="UTF-8" standalone="no"?>
<!DOCTYPE svg PUBLIC "-//W3C//DTD SVG 1.1//EN"
 "http://www.w3.org/Graphics/SVG/1.1/DTD/svg11.dtd">
<!-- Generated by graphviz version 2.47.3 (20210619.1520)
 -->
<!-- Title: dependencies Pages: 1 -->
<svg width="258pt" height="247pt"
 viewBox="0.00 0.00 258.00 246.80" xmlns="http://www.w3.org/2000/svg" xmlns:xlink="http://www.w3.org/1999/xlink">
<g id="graph0" class="graph" transform="scale(1 1) rotate(0) translate(4 242.8)">
<title>dependencies</title>
<polygon fill="white" stroke="transparent" points="-4,4 -4,-242.8 254,-242.8 254,4 -4,4"/>
<text text-anchor="middle" x="125" y="-8.2" font-family="sans-serif" font-size="14.00">dependencies</text>
<g id="clust1" class="cluster">
<title>cluster_TermOccurrenceListModule</title>
<polygon fill="none" stroke="black" stroke-dasharray="1,5" points="8,-32.8 8,-230.8 242,-230.8 242,-32.8 8,-32.8"/>
</g>
<g id="clust2" class="cluster">
<title>cluster_TermOccurrenceListModule_declarations</title>
<polygon fill="none" stroke="black" points="18,-40.8 18,-92.8 232,-92.8 232,-40.8 18,-40.8"/>
</g>
<g id="clust5" class="cluster">
<title>cluster_TermOccurrenceListModule_exports</title>
<polygon fill="none" stroke="black" points="16,-170.8 16,-222.8 234,-222.8 234,-170.8 16,-170.8"/>
</g>
<!-- TermOccurrenceListComponent -->
<g id="node1" class="node">
<title>TermOccurrenceListComponent</title>
<polygon fill="#ffffb3" stroke="black" points="223.93,-84.8 26.07,-84.8 26.07,-48.8 223.93,-48.8 223.93,-84.8"/>
<text text-anchor="middle" x="125" y="-62.6" font-family="Times,serif" font-size="14.00">TermOccurrenceListComponent</text>
</g>
<!-- TermOccurrenceListModule -->
<g id="node2" class="node">
<title>TermOccurrenceListModule</title>
<polygon fill="#8dd3c7" stroke="black" points="213.15,-149.8 210.15,-153.8 189.15,-153.8 186.15,-149.8 36.85,-149.8 36.85,-113.8 213.15,-113.8 213.15,-149.8"/>
<text text-anchor="middle" x="125" y="-127.6" font-family="Times,serif" font-size="14.00">TermOccurrenceListModule</text>
</g>
<!-- TermOccurrenceListComponent&#45;&gt;TermOccurrenceListModule -->
<g id="edge1" class="edge">
<title>TermOccurrenceListComponent&#45;&gt;TermOccurrenceListModule</title>
<path fill="none" stroke="black" d="M125,-84.91C125,-84.91 125,-103.79 125,-103.79"/>
<polygon fill="black" stroke="black" points="121.5,-103.79 125,-113.79 128.5,-103.79 121.5,-103.79"/>
</g>
<!-- TermOccurrenceListComponent  -->
<g id="node3" class="node">
<title>TermOccurrenceListComponent </title>
<polygon fill="#fb8072" stroke="black" points="225.93,-214.8 24.07,-214.8 24.07,-178.8 225.93,-178.8 225.93,-214.8"/>
<text text-anchor="middle" x="125" y="-192.6" font-family="Times,serif" font-size="14.00">TermOccurrenceListComponent </text>
</g>
<!-- TermOccurrenceListModule&#45;&gt;TermOccurrenceListComponent  -->
<g id="edge2" class="edge">
<title>TermOccurrenceListModule&#45;&gt;TermOccurrenceListComponent </title>
<path fill="none" stroke="black" stroke-dasharray="5,2" d="M125,-149.91C125,-149.91 125,-168.79 125,-168.79"/>
<polygon fill="black" stroke="black" points="121.5,-168.79 125,-178.79 128.5,-168.79 121.5,-168.79"/>
</g>
</g>
</svg>
