<?xml version="1.0" encoding="UTF-8" standalone="no"?>
<!DOCTYPE svg PUBLIC "-//W3C//DTD SVG 1.1//EN"
 "http://www.w3.org/Graphics/SVG/1.1/DTD/svg11.dtd">
<!-- Generated by graphviz version 2.40.1 (20161225.0304)
 -->
<!-- Title: dependencies Pages: 1 -->
<svg width="900pt" height="211pt"
 viewBox="0.00 0.00 900.00 211.00" xmlns="http://www.w3.org/2000/svg" xmlns:xlink="http://www.w3.org/1999/xlink">
<g id="graph0" class="graph" transform="scale(1 1) rotate(0) translate(4 207)">
<title>dependencies</title>
<polygon fill="#ffffff" stroke="transparent" points="-4,4 -4,-207 896,-207 896,4 -4,4"/>
<text text-anchor="start" x="425.0091" y="-42.4" font-family="sans-serif" font-weight="bold" font-size="14.00" fill="#000000">Legend</text>
<polygon fill="#ffffb3" stroke="transparent" points="212,-10 212,-30 232,-30 232,-10 212,-10"/>
<text text-anchor="start" x="235.629" y="-15.4" font-family="sans-serif" font-size="14.00" fill="#000000"> &#160;Declarations</text>
<polygon fill="#8dd3c7" stroke="transparent" points="325,-10 325,-30 345,-30 345,-10 325,-10"/>
<text text-anchor="start" x="348.7251" y="-15.4" font-family="sans-serif" font-size="14.00" fill="#000000"> &#160;Module</text>
<polygon fill="#80b1d3" stroke="transparent" points="411,-10 411,-30 431,-30 431,-10 411,-10"/>
<text text-anchor="start" x="434.7812" y="-15.4" font-family="sans-serif" font-size="14.00" fill="#000000"> &#160;Bootstrap</text>
<polygon fill="#fdb462" stroke="transparent" points="508,-10 508,-30 528,-30 528,-10 508,-10"/>
<text text-anchor="start" x="531.6732" y="-15.4" font-family="sans-serif" font-size="14.00" fill="#000000"> &#160;Providers</text>
<polygon fill="#fb8072" stroke="transparent" points="604,-10 604,-30 624,-30 624,-10 604,-10"/>
<text text-anchor="start" x="627.7258" y="-15.4" font-family="sans-serif" font-size="14.00" fill="#000000"> &#160;Exports</text>
<g id="clust1" class="cluster">
<title>cluster_TissuesBrowserModule</title>
<polygon fill="none" stroke="#000000" stroke-dasharray="1,5" points="8,-70 8,-195 884,-195 884,-70 8,-70"/>
</g>
<g id="clust2" class="cluster">
<title>cluster_TissuesBrowserModule_declarations</title>
<polygon fill="none" stroke="#000000" points="690,-78 690,-130 876,-130 876,-78 690,-78"/>
</g>
<g id="clust4" class="cluster">
<title>cluster_TissuesBrowserModule_imports</title>
<polygon fill="none" stroke="#000000" points="280,-78 280,-130 682,-130 682,-78 280,-78"/>
</g>
<g id="clust7" class="cluster">
<title>cluster_TissuesBrowserModule_providers</title>
<polygon fill="none" stroke="#000000" points="16,-78 16,-130 272,-130 272,-78 16,-78"/>
</g>
<!-- TissuesBrowserComponent -->
<g id="node1" class="node">
<title>TissuesBrowserComponent</title>
<polygon fill="#ffffb3" stroke="#000000" points="868.2478,-122 697.7522,-122 697.7522,-86 868.2478,-86 868.2478,-122"/>
<text text-anchor="middle" x="783" y="-99.8" font-family="Times,serif" font-size="14.00" fill="#000000">TissuesBrowserComponent</text>
</g>
<!-- TissuesBrowserModule -->
<g id="node2" class="node">
<title>TissuesBrowserModule</title>
<polygon fill="#8dd3c7" stroke="#000000" points="560.465,-187 557.465,-191 536.465,-191 533.465,-187 411.535,-187 411.535,-151 560.465,-151 560.465,-187"/>
<text text-anchor="middle" x="486" y="-164.8" font-family="Times,serif" font-size="14.00" fill="#000000">TissuesBrowserModule</text>
</g>
<!-- TissuesBrowserComponent&#45;&gt;TissuesBrowserModule -->
<g id="edge1" class="edge">
<title>TissuesBrowserComponent&#45;&gt;TissuesBrowserModule</title>
<path fill="none" stroke="#000000" d="M783,-122.1061C783,-141.3391 783,-169 783,-169 783,-169 570.5623,-169 570.5623,-169"/>
<polygon fill="#000000" stroke="#000000" points="570.5623,-165.5001 560.5623,-169 570.5622,-172.5001 570.5623,-165.5001"/>
</g>
<!-- TissuesBrowserGridModule -->
<g id="node3" class="node">
<title>TissuesBrowserGridModule</title>
<polygon fill="#8dd3c7" stroke="#000000" points="674.1232,-122 671.1232,-126 650.1232,-126 647.1232,-122 499.8768,-122 499.8768,-86 674.1232,-86 674.1232,-122"/>
<text text-anchor="middle" x="587" y="-99.8" font-family="Times,serif" font-size="14.00" fill="#000000">TissuesBrowserGridModule</text>
</g>
<!-- TissuesBrowserGridModule&#45;&gt;TissuesBrowserModule -->
<g id="edge2" class="edge">
<title>TissuesBrowserGridModule&#45;&gt;TissuesBrowserModule</title>
<path fill="none" stroke="#000000" d="M530.0856,-122.1061C530.0856,-122.1061 530.0856,-140.991 530.0856,-140.991"/>
<polygon fill="#000000" stroke="#000000" points="526.5856,-140.9909 530.0856,-150.991 533.5856,-140.991 526.5856,-140.9909"/>
</g>
<!-- TissuesBrowserRoutingModule -->
<g id="node4" class="node">
<title>TissuesBrowserRoutingModule</title>
<polygon fill="#8dd3c7" stroke="#000000" points="482.0828,-122 479.0828,-126 458.0828,-126 455.0828,-122 287.9172,-122 287.9172,-86 482.0828,-86 482.0828,-122"/>
<text text-anchor="middle" x="385" y="-99.8" font-family="Times,serif" font-size="14.00" fill="#000000">TissuesBrowserRoutingModule</text>
</g>
<!-- TissuesBrowserRoutingModule&#45;&gt;TissuesBrowserModule -->
<g id="edge3" class="edge">
<title>TissuesBrowserRoutingModule&#45;&gt;TissuesBrowserModule</title>
<path fill="none" stroke="#000000" d="M446.7795,-122.1061C446.7795,-122.1061 446.7795,-140.991 446.7795,-140.991"/>
<polygon fill="#000000" stroke="#000000" points="443.2795,-140.9909 446.7795,-150.991 450.2795,-140.991 443.2795,-140.9909"/>
</g>
<!-- TissuesBrowserDataService -->
<g id="node5" class="node">
<title>TissuesBrowserDataService</title>
<ellipse fill="#fdb462" stroke="#000000" cx="144" cy="-104" rx="119.7947" ry="18"/>
<text text-anchor="middle" x="144" y="-99.8" font-family="Times,serif" font-size="14.00" fill="#000000">TissuesBrowserDataService</text>
</g>
<!-- TissuesBrowserDataService&#45;&gt;TissuesBrowserModule -->
<g id="edge4" class="edge">
<title>TissuesBrowserDataService&#45;&gt;TissuesBrowserModule</title>
<path fill="none" stroke="#000000" d="M144,-122.1061C144,-141.3391 144,-169 144,-169 144,-169 401.3693,-169 401.3693,-169"/>
<polygon fill="#000000" stroke="#000000" points="401.3693,-172.5001 411.3693,-169 401.3692,-165.5001 401.3693,-172.5001"/>
</g>
</g>
</svg>
