<?xml version="1.0" encoding="UTF-8" standalone="no"?>
<!DOCTYPE svg PUBLIC "-//W3C//DTD SVG 1.1//EN"
 "http://www.w3.org/Graphics/SVG/1.1/DTD/svg11.dtd">
<!-- Generated by graphviz version 2.47.0 (20210316.0004)
 -->
<!-- Title: dependencies Pages: 1 -->
<svg width="522pt" height="284pt"
 viewBox="0.00 0.00 522.00 284.00" xmlns="http://www.w3.org/2000/svg" xmlns:xlink="http://www.w3.org/1999/xlink">
<g id="graph0" class="graph" transform="scale(1 1) rotate(0) translate(4 280)">
<title>dependencies</title>
<polygon fill="white" stroke="transparent" points="-4,4 -4,-280 518,-280 518,4 -4,4"/>
<text text-anchor="start" x="236.01" y="-42.4" font-family="Times-12" font-weight="bold" font-size="14.00">Legend</text>
<polygon fill="#ffffb3" stroke="transparent" points="23,-10 23,-30 43,-30 43,-10 23,-10"/>
<text text-anchor="start" x="46.63" y="-15.4" font-family="Times-12" font-size="14.00"> &#160;Declarations</text>
<polygon fill="#8dd3c7" stroke="transparent" points="136,-10 136,-30 156,-30 156,-10 136,-10"/>
<text text-anchor="start" x="159.73" y="-15.4" font-family="Times-12" font-size="14.00"> &#160;Module</text>
<polygon fill="#80b1d3" stroke="transparent" points="222,-10 222,-30 242,-30 242,-10 222,-10"/>
<text text-anchor="start" x="245.78" y="-15.4" font-family="Times-12" font-size="14.00"> &#160;Bootstrap</text>
<polygon fill="#fdb462" stroke="transparent" points="319,-10 319,-30 339,-30 339,-10 319,-10"/>
<text text-anchor="start" x="342.67" y="-15.4" font-family="Times-12" font-size="14.00"> &#160;Providers</text>
<polygon fill="#fb8072" stroke="transparent" points="415,-10 415,-30 435,-30 435,-10 415,-10"/>
<text text-anchor="start" x="438.73" y="-15.4" font-family="Times-12" font-size="14.00"> &#160;Exports</text>
<g id="clust1" class="cluster">
<title>cluster_ContentModule</title>
<polygon fill="none" stroke="black" stroke-dasharray="1,5" points="8,-70 8,-268 506,-268 506,-70 8,-70"/>
</g>
<g id="clust2" class="cluster">
<title>cluster_ContentModule_declarations</title>
<polygon fill="none" stroke="black" points="356,-78 356,-130 498,-130 498,-78 356,-78"/>
</g>
<g id="clust4" class="cluster">
<title>cluster_ContentModule_imports</title>
<polygon fill="none" stroke="black" points="16,-78 16,-130 348,-130 348,-78 16,-78"/>
</g>
<g id="clust5" class="cluster">
<title>cluster_ContentModule_exports</title>
<polygon fill="none" stroke="black" points="210,-208 210,-260 356,-260 356,-208 210,-208"/>
</g>
<!-- ContentComponent -->
<g id="node1" class="node">
<title>ContentComponent</title>
<polygon fill="#ffffb3" stroke="black" points="489.67,-122 364.33,-122 364.33,-86 489.67,-86 489.67,-122"/>
<text text-anchor="middle" x="427" y="-99.8" font-family="Times,serif" font-size="14.00">ContentComponent</text>
</g>
<!-- ContentModule -->
<g id="node2" class="node">
<title>ContentModule</title>
<polygon fill="#8dd3c7" stroke="black" points="334.88,-187 331.88,-191 310.88,-191 307.88,-187 231.12,-187 231.12,-151 334.88,-151 334.88,-187"/>
<text text-anchor="middle" x="283" y="-164.8" font-family="Times,serif" font-size="14.00">ContentModule</text>
</g>
<!-- ContentComponent&#45;&gt;ContentModule -->
<g id="edge1" class="edge">
<title>ContentComponent&#45;&gt;ContentModule</title>
<path fill="none" stroke="black" d="M427,-122.11C427,-141.34 427,-169 427,-169 427,-169 344.99,-169 344.99,-169"/>
<polygon fill="black" stroke="black" points="344.99,-165.5 334.99,-169 344.99,-172.5 344.99,-165.5"/>
</g>
<!-- ContentComponent  -->
<g id="node5" class="node">
<title>ContentComponent </title>
<polygon fill="#fb8072" stroke="black" points="347.66,-252 218.34,-252 218.34,-216 347.66,-216 347.66,-252"/>
<text text-anchor="middle" x="283" y="-229.8" font-family="Times,serif" font-size="14.00">ContentComponent </text>
</g>
<!-- ContentModule&#45;&gt;ContentComponent  -->
<g id="edge4" class="edge">
<title>ContentModule&#45;&gt;ContentComponent </title>
<path fill="none" stroke="black" stroke-dasharray="5,2" d="M283,-187.11C283,-187.11 283,-205.99 283,-205.99"/>
<polygon fill="black" stroke="black" points="279.5,-205.99 283,-215.99 286.5,-205.99 279.5,-205.99"/>
</g>
<!-- StageNavModule -->
<g id="node3" class="node">
<title>StageNavModule</title>
<polygon fill="#8dd3c7" stroke="black" points="339.97,-122 336.97,-126 315.97,-126 312.97,-122 226.03,-122 226.03,-86 339.97,-86 339.97,-122"/>
<text text-anchor="middle" x="283" y="-99.8" font-family="Times,serif" font-size="14.00">StageNavModule</text>
</g>
<!-- StageNavModule&#45;&gt;ContentModule -->
<g id="edge2" class="edge">
<title>StageNavModule&#45;&gt;ContentModule</title>
<path fill="none" stroke="black" d="M283,-122.11C283,-122.11 283,-140.99 283,-140.99"/>
<polygon fill="black" stroke="black" points="279.5,-140.99 283,-150.99 286.5,-140.99 279.5,-140.99"/>
</g>
<!-- VideoModalLauncherModule -->
<g id="node4" class="node">
<title>VideoModalLauncherModule</title>
<polygon fill="#8dd3c7" stroke="black" points="207.67,-122 204.67,-126 183.67,-126 180.67,-122 24.33,-122 24.33,-86 207.67,-86 207.67,-122"/>
<text text-anchor="middle" x="116" y="-99.8" font-family="Times,serif" font-size="14.00">VideoModalLauncherModule</text>
</g>
<!-- VideoModalLauncherModule&#45;&gt;ContentModule -->
<g id="edge3" class="edge">
<title>VideoModalLauncherModule&#45;&gt;ContentModule</title>
<path fill="none" stroke="black" d="M116,-122.11C116,-141.34 116,-169 116,-169 116,-169 221.08,-169 221.08,-169"/>
<polygon fill="black" stroke="black" points="221.08,-172.5 231.08,-169 221.08,-165.5 221.08,-172.5"/>
</g>
</g>
</svg>
