<?xml version="1.0" encoding="UTF-8" standalone="no"?>
<!DOCTYPE svg PUBLIC "-//W3C//DTD SVG 1.1//EN"
 "http://www.w3.org/Graphics/SVG/1.1/DTD/svg11.dtd">
<!-- Generated by graphviz version 2.47.3 (20210619.1520)
 -->
<!-- Title: dependencies Pages: 1 -->
<svg width="522pt" height="247pt"
 viewBox="0.00 0.00 522.00 246.80" xmlns="http://www.w3.org/2000/svg" xmlns:xlink="http://www.w3.org/1999/xlink">
<g id="graph0" class="graph" transform="scale(1 1) rotate(0) translate(4 242.8)">
<title>dependencies</title>
<polygon fill="white" stroke="transparent" points="-4,4 -4,-242.8 518,-242.8 518,4 -4,4"/>
<text text-anchor="middle" x="257" y="-8.2" font-family="sans-serif" font-size="14.00">dependencies</text>
<g id="clust1" class="cluster">
<title>cluster_ContentModule</title>
<polygon fill="none" stroke="black" stroke-dasharray="1,5" points="8,-32.8 8,-230.8 506,-230.8 506,-32.8 8,-32.8"/>
</g>
<g id="clust5" class="cluster">
<title>cluster_ContentModule_exports</title>
<polygon fill="none" stroke="black" points="193,-170.8 193,-222.8 339,-222.8 339,-170.8 193,-170.8"/>
</g>
<g id="clust4" class="cluster">
<title>cluster_ContentModule_imports</title>
<polygon fill="none" stroke="black" points="166,-40.8 166,-92.8 498,-92.8 498,-40.8 166,-40.8"/>
</g>
<g id="clust2" class="cluster">
<title>cluster_ContentModule_declarations</title>
<polygon fill="none" stroke="black" points="16,-40.8 16,-92.8 158,-92.8 158,-40.8 16,-40.8"/>
</g>
<!-- ContentComponent -->
<g id="node1" class="node">
<title>ContentComponent</title>
<polygon fill="#ffffb3" stroke="black" points="149.67,-84.8 24.33,-84.8 24.33,-48.8 149.67,-48.8 149.67,-84.8"/>
<text text-anchor="middle" x="87" y="-62.6" font-family="Times,serif" font-size="14.00">ContentComponent</text>
</g>
<!-- ContentModule -->
<g id="node2" class="node">
<title>ContentModule</title>
<polygon fill="#8dd3c7" stroke="black" points="317.88,-149.8 314.88,-153.8 293.88,-153.8 290.88,-149.8 214.12,-149.8 214.12,-113.8 317.88,-113.8 317.88,-149.8"/>
<text text-anchor="middle" x="266" y="-127.6" font-family="Times,serif" font-size="14.00">ContentModule</text>
</g>
<!-- ContentComponent&#45;&gt;ContentModule -->
<g id="edge1" class="edge">
<title>ContentComponent&#45;&gt;ContentModule</title>
<path fill="none" stroke="black" d="M87,-84.91C87,-104.14 87,-131.8 87,-131.8 87,-131.8 203.74,-131.8 203.74,-131.8"/>
<polygon fill="black" stroke="black" points="203.74,-135.3 213.74,-131.8 203.74,-128.3 203.74,-135.3"/>
</g>
<!-- ContentComponent  -->
<g id="node5" class="node">
<title>ContentComponent </title>
<polygon fill="#fb8072" stroke="black" points="330.66,-214.8 201.34,-214.8 201.34,-178.8 330.66,-178.8 330.66,-214.8"/>
<text text-anchor="middle" x="266" y="-192.6" font-family="Times,serif" font-size="14.00">ContentComponent </text>
</g>
<!-- ContentModule&#45;&gt;ContentComponent  -->
<g id="edge4" class="edge">
<title>ContentModule&#45;&gt;ContentComponent </title>
<path fill="none" stroke="black" stroke-dasharray="5,2" d="M266,-149.91C266,-149.91 266,-168.79 266,-168.79"/>
<polygon fill="black" stroke="black" points="262.5,-168.79 266,-178.79 269.5,-168.79 262.5,-168.79"/>
</g>
<!-- StageNavModule -->
<g id="node3" class="node">
<title>StageNavModule</title>
<polygon fill="#8dd3c7" stroke="black" points="489.97,-84.8 486.97,-88.8 465.97,-88.8 462.97,-84.8 376.03,-84.8 376.03,-48.8 489.97,-48.8 489.97,-84.8"/>
<text text-anchor="middle" x="433" y="-62.6" font-family="Times,serif" font-size="14.00">StageNavModule</text>
</g>
<!-- StageNavModule&#45;&gt;ContentModule -->
<g id="edge2" class="edge">
<title>StageNavModule&#45;&gt;ContentModule</title>
<path fill="none" stroke="black" d="M433,-84.91C433,-104.14 433,-131.8 433,-131.8 433,-131.8 327.92,-131.8 327.92,-131.8"/>
<polygon fill="black" stroke="black" points="327.92,-128.3 317.92,-131.8 327.92,-135.3 327.92,-128.3"/>
</g>
<!-- VideoModalLauncherModule -->
<g id="node4" class="node">
<title>VideoModalLauncherModule</title>
<polygon fill="#8dd3c7" stroke="black" points="357.67,-84.8 354.67,-88.8 333.67,-88.8 330.67,-84.8 174.33,-84.8 174.33,-48.8 357.67,-48.8 357.67,-84.8"/>
<text text-anchor="middle" x="266" y="-62.6" font-family="Times,serif" font-size="14.00">VideoModalLauncherModule</text>
</g>
<!-- VideoModalLauncherModule&#45;&gt;ContentModule -->
<g id="edge3" class="edge">
<title>VideoModalLauncherModule&#45;&gt;ContentModule</title>
<path fill="none" stroke="black" d="M266,-84.91C266,-84.91 266,-103.79 266,-103.79"/>
<polygon fill="black" stroke="black" points="262.5,-103.79 266,-113.79 269.5,-103.79 262.5,-103.79"/>
</g>
</g>
</svg>
