<?xml version="1.0" encoding="UTF-8" standalone="no"?>
<!DOCTYPE svg PUBLIC "-//W3C//DTD SVG 1.1//EN"
 "http://www.w3.org/Graphics/SVG/1.1/DTD/svg11.dtd">
<!-- Generated by graphviz version 2.47.0 (20210316.0004)
 -->
<!-- Title: dependencies Pages: 1 -->
<svg width="522pt" height="284pt"
 viewBox="0.00 0.00 522.00 284.00" xmlns="http://www.w3.org/2000/svg" xmlns:xlink="http://www.w3.org/1999/xlink">
<g id="graph0" class="graph" transform="scale(1 1) rotate(0) translate(4 280)">
<title>dependencies</title>
<polygon fill="white" stroke="transparent" points="-4,4 -4,-280 518,-280 518,4 -4,4"/>
<text text-anchor="start" x="236.01" y="-42.4" font-family="Times-12" font-weight="bold" font-size="14.00">Legend</text>
<polygon fill="#ffffb3" stroke="transparent" points="23,-10 23,-30 43,-30 43,-10 23,-10"/>
<text text-anchor="start" x="46.63" y="-15.4" font-family="Times-12" font-size="14.00"> &#160;Declarations</text>
<polygon fill="#8dd3c7" stroke="transparent" points="136,-10 136,-30 156,-30 156,-10 136,-10"/>
<text text-anchor="start" x="159.73" y="-15.4" font-family="Times-12" font-size="14.00"> &#160;Module</text>
<polygon fill="#80b1d3" stroke="transparent" points="222,-10 222,-30 242,-30 242,-10 222,-10"/>
<text text-anchor="start" x="245.78" y="-15.4" font-family="Times-12" font-size="14.00"> &#160;Bootstrap</text>
<polygon fill="#fdb462" stroke="transparent" points="319,-10 319,-30 339,-30 339,-10 319,-10"/>
<text text-anchor="start" x="342.67" y="-15.4" font-family="Times-12" font-size="14.00"> &#160;Providers</text>
<polygon fill="#fb8072" stroke="transparent" points="415,-10 415,-30 435,-30 435,-10 415,-10"/>
<text text-anchor="start" x="438.73" y="-15.4" font-family="Times-12" font-size="14.00"> &#160;Exports</text>
<g id="clust1" class="cluster">
<title>cluster_ContentModule</title>
<polygon fill="none" stroke="black" stroke-dasharray="1,5" points="8,-70 8,-268 506,-268 506,-70 8,-70"/>
</g>
<g id="clust4" class="cluster">
<title>cluster_ContentModule_imports</title>
<polygon fill="none" stroke="black" points="166,-78 166,-130 498,-130 498,-78 166,-78"/>
</g>
<g id="clust5" class="cluster">
<title>cluster_ContentModule_exports</title>
<polygon fill="none" stroke="black" points="193,-208 193,-260 339,-260 339,-208 193,-208"/>
</g>
<g id="clust2" class="cluster">
<title>cluster_ContentModule_declarations</title>
<polygon fill="none" stroke="black" points="16,-78 16,-130 158,-130 158,-78 16,-78"/>
</g>
<!-- ContentComponent -->
<g id="node1" class="node">
<title>ContentComponent</title>
<polygon fill="#ffffb3" stroke="black" points="149.67,-122 24.33,-122 24.33,-86 149.67,-86 149.67,-122"/>
<text text-anchor="middle" x="87" y="-99.8" font-family="Times,serif" font-size="14.00">ContentComponent</text>
</g>
<!-- ContentModule -->
<g id="node2" class="node">
<title>ContentModule</title>
<polygon fill="#8dd3c7" stroke="black" points="317.88,-187 314.88,-191 293.88,-191 290.88,-187 214.12,-187 214.12,-151 317.88,-151 317.88,-187"/>
<text text-anchor="middle" x="266" y="-164.8" font-family="Times,serif" font-size="14.00">ContentModule</text>
</g>
<!-- ContentComponent&#45;&gt;ContentModule -->
<g id="edge1" class="edge">
<title>ContentComponent&#45;&gt;ContentModule</title>
<path fill="none" stroke="black" d="M87,-122.11C87,-141.34 87,-169 87,-169 87,-169 203.74,-169 203.74,-169"/>
<polygon fill="black" stroke="black" points="203.74,-172.5 213.74,-169 203.74,-165.5 203.74,-172.5"/>
</g>
<!-- ContentComponent  -->
<g id="node5" class="node">
<title>ContentComponent </title>
<polygon fill="#fb8072" stroke="black" points="330.66,-252 201.34,-252 201.34,-216 330.66,-216 330.66,-252"/>
<text text-anchor="middle" x="266" y="-229.8" font-family="Times,serif" font-size="14.00">ContentComponent </text>
</g>
<!-- ContentModule&#45;&gt;ContentComponent  -->
<g id="edge4" class="edge">
<title>ContentModule&#45;&gt;ContentComponent </title>
<path fill="none" stroke="black" stroke-dasharray="5,2" d="M266,-187.11C266,-187.11 266,-205.99 266,-205.99"/>
<polygon fill="black" stroke="black" points="262.5,-205.99 266,-215.99 269.5,-205.99 262.5,-205.99"/>
</g>
<!-- StageNavModule -->
<g id="node3" class="node">
<title>StageNavModule</title>
<polygon fill="#8dd3c7" stroke="black" points="489.97,-122 486.97,-126 465.97,-126 462.97,-122 376.03,-122 376.03,-86 489.97,-86 489.97,-122"/>
<text text-anchor="middle" x="433" y="-99.8" font-family="Times,serif" font-size="14.00">StageNavModule</text>
</g>
<!-- StageNavModule&#45;&gt;ContentModule -->
<g id="edge2" class="edge">
<title>StageNavModule&#45;&gt;ContentModule</title>
<path fill="none" stroke="black" d="M433,-122.11C433,-141.34 433,-169 433,-169 433,-169 327.92,-169 327.92,-169"/>
<polygon fill="black" stroke="black" points="327.92,-165.5 317.92,-169 327.92,-172.5 327.92,-165.5"/>
</g>
<!-- VideoModalLauncherModule -->
<g id="node4" class="node">
<title>VideoModalLauncherModule</title>
<polygon fill="#8dd3c7" stroke="black" points="357.67,-122 354.67,-126 333.67,-126 330.67,-122 174.33,-122 174.33,-86 357.67,-86 357.67,-122"/>
<text text-anchor="middle" x="266" y="-99.8" font-family="Times,serif" font-size="14.00">VideoModalLauncherModule</text>
</g>
<!-- VideoModalLauncherModule&#45;&gt;ContentModule -->
<g id="edge3" class="edge">
<title>VideoModalLauncherModule&#45;&gt;ContentModule</title>
<path fill="none" stroke="black" d="M266,-122.11C266,-122.11 266,-140.99 266,-140.99"/>
<polygon fill="black" stroke="black" points="262.5,-140.99 266,-150.99 269.5,-140.99 262.5,-140.99"/>
</g>
</g>
</svg>
