<?xml version="1.0" encoding="UTF-8" standalone="no"?>
<!DOCTYPE svg PUBLIC "-//W3C//DTD SVG 1.1//EN"
 "http://www.w3.org/Graphics/SVG/1.1/DTD/svg11.dtd">
<!-- Generated by graphviz version 2.40.1 (20161225.0304)
 -->
<!-- Title: dependencies Pages: 1 -->
<svg width="570pt" height="284pt"
 viewBox="0.00 0.00 570.00 284.00" xmlns="http://www.w3.org/2000/svg" xmlns:xlink="http://www.w3.org/1999/xlink">
<g id="graph0" class="graph" transform="scale(1 1) rotate(0) translate(4 280)">
<title>dependencies</title>
<polygon fill="#ffffff" stroke="transparent" points="-4,4 -4,-280 566,-280 566,4 -4,4"/>
<text text-anchor="start" x="260.0091" y="-42.4" font-family="sans-serif" font-weight="bold" font-size="14.00" fill="#000000">Legend</text>
<polygon fill="#ffffb3" stroke="transparent" points="47,-10 47,-30 67,-30 67,-10 47,-10"/>
<text text-anchor="start" x="70.629" y="-15.4" font-family="sans-serif" font-size="14.00" fill="#000000"> &#160;Declarations</text>
<polygon fill="#8dd3c7" stroke="transparent" points="160,-10 160,-30 180,-30 180,-10 160,-10"/>
<text text-anchor="start" x="183.7251" y="-15.4" font-family="sans-serif" font-size="14.00" fill="#000000"> &#160;Module</text>
<polygon fill="#80b1d3" stroke="transparent" points="246,-10 246,-30 266,-30 266,-10 246,-10"/>
<text text-anchor="start" x="269.7812" y="-15.4" font-family="sans-serif" font-size="14.00" fill="#000000"> &#160;Bootstrap</text>
<polygon fill="#fdb462" stroke="transparent" points="343,-10 343,-30 363,-30 363,-10 343,-10"/>
<text text-anchor="start" x="366.6732" y="-15.4" font-family="sans-serif" font-size="14.00" fill="#000000"> &#160;Providers</text>
<polygon fill="#fb8072" stroke="transparent" points="439,-10 439,-30 459,-30 459,-10 439,-10"/>
<text text-anchor="start" x="462.7258" y="-15.4" font-family="sans-serif" font-size="14.00" fill="#000000"> &#160;Exports</text>
<g id="clust1" class="cluster">
<title>cluster_DonorCardModule</title>
<polygon fill="none" stroke="#000000" stroke-dasharray="1,5" points="8,-70 8,-268 554,-268 554,-70 8,-70"/>
</g>
<g id="clust2" class="cluster">
<title>cluster_DonorCardModule_declarations</title>
<polygon fill="none" stroke="#000000" points="386,-78 386,-130 546,-130 546,-78 386,-78"/>
</g>
<g id="clust4" class="cluster">
<title>cluster_DonorCardModule_imports</title>
<polygon fill="none" stroke="#000000" points="16,-78 16,-130 378,-130 378,-78 16,-78"/>
</g>
<g id="clust5" class="cluster">
<title>cluster_DonorCardModule_exports</title>
<polygon fill="none" stroke="#000000" points="203,-208 203,-260 367,-260 367,-208 203,-208"/>
</g>
<!-- DonorCardComponent -->
<g id="node1" class="node">
<title>DonorCardComponent</title>
<polygon fill="#ffffb3" stroke="#000000" points="538.3117,-122 393.6883,-122 393.6883,-86 538.3117,-86 538.3117,-122"/>
<text text-anchor="middle" x="466" y="-99.8" font-family="Times,serif" font-size="14.00" fill="#000000">DonorCardComponent</text>
</g>
<!-- DonorCardModule -->
<g id="node2" class="node">
<title>DonorCardModule</title>
<polygon fill="#8dd3c7" stroke="#000000" points="346.0297,-187 343.0297,-191 322.0297,-191 319.0297,-187 223.9703,-187 223.9703,-151 346.0297,-151 346.0297,-187"/>
<text text-anchor="middle" x="285" y="-164.8" font-family="Times,serif" font-size="14.00" fill="#000000">DonorCardModule</text>
</g>
<!-- DonorCardComponent&#45;&gt;DonorCardModule -->
<g id="edge1" class="edge">
<title>DonorCardComponent&#45;&gt;DonorCardModule</title>
<path fill="none" stroke="#000000" d="M466,-122.1061C466,-141.3391 466,-169 466,-169 466,-169 356.2783,-169 356.2783,-169"/>
<polygon fill="#000000" stroke="#000000" points="356.2784,-165.5001 346.2783,-169 356.2783,-172.5001 356.2784,-165.5001"/>
</g>
<!-- DonorCardComponent  -->
<g id="node5" class="node">
<title>DonorCardComponent </title>
<polygon fill="#fb8072" stroke="#000000" points="358.8115,-252 211.1885,-252 211.1885,-216 358.8115,-216 358.8115,-252"/>
<text text-anchor="middle" x="285" y="-229.8" font-family="Times,serif" font-size="14.00" fill="#000000">DonorCardComponent </text>
</g>
<!-- DonorCardModule&#45;&gt;DonorCardComponent  -->
<g id="edge4" class="edge">
<title>DonorCardModule&#45;&gt;DonorCardComponent </title>
<path fill="none" stroke="#000000" stroke-dasharray="5,2" d="M285,-187.1061C285,-187.1061 285,-205.991 285,-205.991"/>
<polygon fill="#000000" stroke="#000000" points="281.5001,-205.9909 285,-215.991 288.5001,-205.991 281.5001,-205.9909"/>
</g>
<!-- ThumbnailCarouselModule -->
<g id="node3" class="node">
<title>ThumbnailCarouselModule</title>
<polygon fill="#8dd3c7" stroke="#000000" points="370.2506,-122 367.2506,-126 346.2506,-126 343.2506,-122 199.7494,-122 199.7494,-86 370.2506,-86 370.2506,-122"/>
<text text-anchor="middle" x="285" y="-99.8" font-family="Times,serif" font-size="14.00" fill="#000000">ThumbnailCarouselModule</text>
</g>
<!-- ThumbnailCarouselModule&#45;&gt;DonorCardModule -->
<g id="edge2" class="edge">
<title>ThumbnailCarouselModule&#45;&gt;DonorCardModule</title>
<path fill="none" stroke="#000000" d="M285,-122.1061C285,-122.1061 285,-140.991 285,-140.991"/>
<polygon fill="#000000" stroke="#000000" points="281.5001,-140.9909 285,-150.991 288.5001,-140.991 281.5001,-140.9909"/>
</g>
<!-- TissueSectionVisModule -->
<g id="node4" class="node">
<title>TissueSectionVisModule</title>
<polygon fill="#8dd3c7" stroke="#000000" points="181.5323,-122 178.5323,-126 157.5323,-126 154.5323,-122 24.4677,-122 24.4677,-86 181.5323,-86 181.5323,-122"/>
<text text-anchor="middle" x="103" y="-99.8" font-family="Times,serif" font-size="14.00" fill="#000000">TissueSectionVisModule</text>
</g>
<!-- TissueSectionVisModule&#45;&gt;DonorCardModule -->
<g id="edge3" class="edge">
<title>TissueSectionVisModule&#45;&gt;DonorCardModule</title>
<path fill="none" stroke="#000000" d="M103,-122.1061C103,-141.3391 103,-169 103,-169 103,-169 213.8903,-169 213.8903,-169"/>
<polygon fill="#000000" stroke="#000000" points="213.8904,-172.5001 223.8903,-169 213.8903,-165.5001 213.8904,-172.5001"/>
</g>
</g>
</svg>
