<?xml version="1.0" encoding="UTF-8" standalone="no"?>
<!DOCTYPE svg PUBLIC "-//W3C//DTD SVG 1.1//EN"
 "http://www.w3.org/Graphics/SVG/1.1/DTD/svg11.dtd">
<!-- Generated by graphviz version 2.40.1 (20161225.0304)
 -->
<!-- Title: dependencies Pages: 1 -->
<svg width="504pt" height="284pt"
 viewBox="0.00 0.00 504.00 284.00" xmlns="http://www.w3.org/2000/svg" xmlns:xlink="http://www.w3.org/1999/xlink">
<g id="graph0" class="graph" transform="scale(1 1) rotate(0) translate(4 280)">
<title>dependencies</title>
<polygon fill="#ffffff" stroke="transparent" points="-4,4 -4,-280 500,-280 500,4 -4,4"/>
<text text-anchor="start" x="227.0091" y="-42.4" font-family="sans-serif" font-weight="bold" font-size="14.00" fill="#000000">Legend</text>
<polygon fill="#ffffb3" stroke="transparent" points="14,-10 14,-30 34,-30 34,-10 14,-10"/>
<text text-anchor="start" x="37.629" y="-15.4" font-family="sans-serif" font-size="14.00" fill="#000000"> &#160;Declarations</text>
<polygon fill="#8dd3c7" stroke="transparent" points="127,-10 127,-30 147,-30 147,-10 127,-10"/>
<text text-anchor="start" x="150.7251" y="-15.4" font-family="sans-serif" font-size="14.00" fill="#000000"> &#160;Module</text>
<polygon fill="#80b1d3" stroke="transparent" points="213,-10 213,-30 233,-30 233,-10 213,-10"/>
<text text-anchor="start" x="236.7812" y="-15.4" font-family="sans-serif" font-size="14.00" fill="#000000"> &#160;Bootstrap</text>
<polygon fill="#fdb462" stroke="transparent" points="310,-10 310,-30 330,-30 330,-10 310,-10"/>
<text text-anchor="start" x="333.6732" y="-15.4" font-family="sans-serif" font-size="14.00" fill="#000000"> &#160;Providers</text>
<polygon fill="#fb8072" stroke="transparent" points="406,-10 406,-30 426,-30 426,-10 406,-10"/>
<text text-anchor="start" x="429.7258" y="-15.4" font-family="sans-serif" font-size="14.00" fill="#000000"> &#160;Exports</text>
<g id="clust1" class="cluster">
<title>cluster_DonorCardModule</title>
<polygon fill="none" stroke="#000000" stroke-dasharray="1,5" points="63,-70 63,-268 433,-268 433,-70 63,-70"/>
</g>
<g id="clust2" class="cluster">
<title>cluster_DonorCardModule_declarations</title>
<polygon fill="none" stroke="#000000" points="265,-78 265,-130 425,-130 425,-78 265,-78"/>
</g>
<g id="clust4" class="cluster">
<title>cluster_DonorCardModule_imports</title>
<polygon fill="none" stroke="#000000" points="71,-78 71,-130 257,-130 257,-78 71,-78"/>
</g>
<g id="clust5" class="cluster">
<title>cluster_DonorCardModule_exports</title>
<polygon fill="none" stroke="#000000" points="171,-208 171,-260 335,-260 335,-208 171,-208"/>
</g>
<!-- DonorCardComponent -->
<g id="node1" class="node">
<title>DonorCardComponent</title>
<polygon fill="#ffffb3" stroke="#000000" points="417.3117,-122 272.6883,-122 272.6883,-86 417.3117,-86 417.3117,-122"/>
<text text-anchor="middle" x="345" y="-99.8" font-family="Times,serif" font-size="14.00" fill="#000000">DonorCardComponent</text>
</g>
<!-- DonorCardModule -->
<g id="node2" class="node">
<title>DonorCardModule</title>
<polygon fill="#8dd3c7" stroke="#000000" points="314.0297,-187 311.0297,-191 290.0297,-191 287.0297,-187 191.9703,-187 191.9703,-151 314.0297,-151 314.0297,-187"/>
<text text-anchor="middle" x="253" y="-164.8" font-family="Times,serif" font-size="14.00" fill="#000000">DonorCardModule</text>
</g>
<!-- DonorCardComponent&#45;&gt;DonorCardModule -->
<g id="edge1" class="edge">
<title>DonorCardComponent&#45;&gt;DonorCardModule</title>
<path fill="none" stroke="#000000" d="M293.5544,-122.1061C293.5544,-122.1061 293.5544,-140.991 293.5544,-140.991"/>
<polygon fill="#000000" stroke="#000000" points="290.0544,-140.9909 293.5544,-150.991 297.0544,-140.991 290.0544,-140.9909"/>
</g>
<!-- DonorCardComponent  -->
<g id="node4" class="node">
<title>DonorCardComponent </title>
<polygon fill="#fb8072" stroke="#000000" points="326.8115,-252 179.1885,-252 179.1885,-216 326.8115,-216 326.8115,-252"/>
<text text-anchor="middle" x="253" y="-229.8" font-family="Times,serif" font-size="14.00" fill="#000000">DonorCardComponent </text>
</g>
<!-- DonorCardModule&#45;&gt;DonorCardComponent  -->
<g id="edge3" class="edge">
<title>DonorCardModule&#45;&gt;DonorCardComponent </title>
<path fill="none" stroke="#000000" stroke-dasharray="5,2" d="M253,-187.1061C253,-187.1061 253,-205.991 253,-205.991"/>
<polygon fill="#000000" stroke="#000000" points="249.5001,-205.9909 253,-215.991 256.5001,-205.991 249.5001,-205.9909"/>
</g>
<!-- ThumbnailCarouselModule -->
<g id="node3" class="node">
<title>ThumbnailCarouselModule</title>
<polygon fill="#8dd3c7" stroke="#000000" points="249.2506,-122 246.2506,-126 225.2506,-126 222.2506,-122 78.7494,-122 78.7494,-86 249.2506,-86 249.2506,-122"/>
<text text-anchor="middle" x="164" y="-99.8" font-family="Times,serif" font-size="14.00" fill="#000000">ThumbnailCarouselModule</text>
</g>
<!-- ThumbnailCarouselModule&#45;&gt;DonorCardModule -->
<g id="edge2" class="edge">
<title>ThumbnailCarouselModule&#45;&gt;DonorCardModule</title>
<path fill="none" stroke="#000000" d="M220.5554,-122.1061C220.5554,-122.1061 220.5554,-140.991 220.5554,-140.991"/>
<polygon fill="#000000" stroke="#000000" points="217.0555,-140.9909 220.5554,-150.991 224.0555,-140.991 217.0555,-140.9909"/>
</g>
</g>
</svg>
