<?xml version="1.0" encoding="UTF-8" standalone="no"?>
<!DOCTYPE svg PUBLIC "-//W3C//DTD SVG 1.1//EN"
 "http://www.w3.org/Graphics/SVG/1.1/DTD/svg11.dtd">
<!-- Generated by graphviz version 2.47.3 (20210619.1520)
 -->
<!-- Title: dependencies Pages: 1 -->
<svg width="288pt" height="247pt"
 viewBox="0.00 0.00 288.00 246.80" xmlns="http://www.w3.org/2000/svg" xmlns:xlink="http://www.w3.org/1999/xlink">
<g id="graph0" class="graph" transform="scale(1 1) rotate(0) translate(4 242.8)">
<title>dependencies</title>
<polygon fill="white" stroke="transparent" points="-4,4 -4,-242.8 284,-242.8 284,4 -4,4"/>
<text text-anchor="middle" x="140" y="-8.2" font-family="sans-serif" font-size="14.00">dependencies</text>
<g id="clust1" class="cluster">
<title>cluster_SpatialSearchKeyboardUIModule</title>
<polygon fill="none" stroke="black" stroke-dasharray="1,5" points="8,-32.8 8,-230.8 272,-230.8 272,-32.8 8,-32.8"/>
</g>
<g id="clust5" class="cluster">
<title>cluster_SpatialSearchKeyboardUIModule_exports</title>
<polygon fill="none" stroke="black" points="16,-170.8 16,-222.8 264,-222.8 264,-170.8 16,-170.8"/>
</g>
<g id="clust2" class="cluster">
<title>cluster_SpatialSearchKeyboardUIModule_declarations</title>
<polygon fill="none" stroke="black" points="18,-40.8 18,-92.8 262,-92.8 262,-40.8 18,-40.8"/>
</g>
<!-- SpatialSearchKeyboardUIComponent -->
<g id="node1" class="node">
<title>SpatialSearchKeyboardUIComponent</title>
<polygon fill="#ffffb3" stroke="black" points="254.27,-84.8 25.73,-84.8 25.73,-48.8 254.27,-48.8 254.27,-84.8"/>
<text text-anchor="middle" x="140" y="-62.6" font-family="Times,serif" font-size="14.00">SpatialSearchKeyboardUIComponent</text>
</g>
<!-- SpatialSearchKeyboardUIModule -->
<g id="node2" class="node">
<title>SpatialSearchKeyboardUIModule</title>
<polygon fill="#8dd3c7" stroke="black" points="243.48,-149.8 240.48,-153.8 219.48,-153.8 216.48,-149.8 36.52,-149.8 36.52,-113.8 243.48,-113.8 243.48,-149.8"/>
<text text-anchor="middle" x="140" y="-127.6" font-family="Times,serif" font-size="14.00">SpatialSearchKeyboardUIModule</text>
</g>
<!-- SpatialSearchKeyboardUIComponent&#45;&gt;SpatialSearchKeyboardUIModule -->
<g id="edge1" class="edge">
<title>SpatialSearchKeyboardUIComponent&#45;&gt;SpatialSearchKeyboardUIModule</title>
<path fill="none" stroke="black" d="M140,-84.91C140,-84.91 140,-103.79 140,-103.79"/>
<polygon fill="black" stroke="black" points="136.5,-103.79 140,-113.79 143.5,-103.79 136.5,-103.79"/>
</g>
<!-- SpatialSearchKeyboardUIComponent  -->
<g id="node3" class="node">
<title>SpatialSearchKeyboardUIComponent </title>
<polygon fill="#fb8072" stroke="black" points="255.77,-214.8 24.23,-214.8 24.23,-178.8 255.77,-178.8 255.77,-214.8"/>
<text text-anchor="middle" x="140" y="-192.6" font-family="Times,serif" font-size="14.00">SpatialSearchKeyboardUIComponent </text>
</g>
<!-- SpatialSearchKeyboardUIModule&#45;&gt;SpatialSearchKeyboardUIComponent  -->
<g id="edge2" class="edge">
<title>SpatialSearchKeyboardUIModule&#45;&gt;SpatialSearchKeyboardUIComponent </title>
<path fill="none" stroke="black" stroke-dasharray="5,2" d="M140,-149.91C140,-149.91 140,-168.79 140,-168.79"/>
<polygon fill="black" stroke="black" points="136.5,-168.79 140,-178.79 143.5,-168.79 136.5,-168.79"/>
</g>
</g>
</svg>
