<?xml version="1.0" encoding="UTF-8" standalone="no"?>
<!DOCTYPE svg PUBLIC "-//W3C//DTD SVG 1.1//EN"
 "http://www.w3.org/Graphics/SVG/1.1/DTD/svg11.dtd">
<!-- Generated by graphviz version 2.40.1 (20161225.0304)
 -->
<!-- Title: dependencies Pages: 1 -->
<svg width="504pt" height="284pt"
 viewBox="0.00 0.00 504.00 284.00" xmlns="http://www.w3.org/2000/svg" xmlns:xlink="http://www.w3.org/1999/xlink">
<g id="graph0" class="graph" transform="scale(1 1) rotate(0) translate(4 280)">
<title>dependencies</title>
<polygon fill="#ffffff" stroke="transparent" points="-4,4 -4,-280 500,-280 500,4 -4,4"/>
<text text-anchor="start" x="227.0091" y="-42.4" font-family="sans-serif" font-weight="bold" font-size="14.00" fill="#000000">Legend</text>
<polygon fill="#ffffb3" stroke="transparent" points="14,-10 14,-30 34,-30 34,-10 14,-10"/>
<text text-anchor="start" x="37.629" y="-15.4" font-family="sans-serif" font-size="14.00" fill="#000000"> &#160;Declarations</text>
<polygon fill="#8dd3c7" stroke="transparent" points="127,-10 127,-30 147,-30 147,-10 127,-10"/>
<text text-anchor="start" x="150.7251" y="-15.4" font-family="sans-serif" font-size="14.00" fill="#000000"> &#160;Module</text>
<polygon fill="#80b1d3" stroke="transparent" points="213,-10 213,-30 233,-30 233,-10 213,-10"/>
<text text-anchor="start" x="236.7812" y="-15.4" font-family="sans-serif" font-size="14.00" fill="#000000"> &#160;Bootstrap</text>
<polygon fill="#fdb462" stroke="transparent" points="310,-10 310,-30 330,-30 330,-10 310,-10"/>
<text text-anchor="start" x="333.6732" y="-15.4" font-family="sans-serif" font-size="14.00" fill="#000000"> &#160;Providers</text>
<polygon fill="#fb8072" stroke="transparent" points="406,-10 406,-30 426,-30 426,-10 406,-10"/>
<text text-anchor="start" x="429.7258" y="-15.4" font-family="sans-serif" font-size="14.00" fill="#000000"> &#160;Exports</text>
<g id="clust1" class="cluster">
<title>cluster_ColorPickerLauncherModule</title>
<polygon fill="none" stroke="#000000" stroke-dasharray="1,5" points="33,-70 33,-268 463,-268 463,-70 33,-70"/>
</g>
<g id="clust2" class="cluster">
<title>cluster_ColorPickerLauncherModule_declarations</title>
<polygon fill="none" stroke="#000000" points="237,-78 237,-130 455,-130 455,-78 237,-78"/>
</g>
<g id="clust4" class="cluster">
<title>cluster_ColorPickerLauncherModule_imports</title>
<polygon fill="none" stroke="#000000" points="41,-78 41,-130 229,-130 229,-78 41,-78"/>
</g>
<g id="clust5" class="cluster">
<title>cluster_ColorPickerLauncherModule_exports</title>
<polygon fill="none" stroke="#000000" points="137,-208 137,-260 359,-260 359,-208 137,-208"/>
</g>
<!-- ColorPickerLauncherComponent -->
<g id="node1" class="node">
<title>ColorPickerLauncherComponent</title>
<polygon fill="#ffffb3" stroke="#000000" points="446.8403,-122 245.1597,-122 245.1597,-86 446.8403,-86 446.8403,-122"/>
<text text-anchor="middle" x="346" y="-99.8" font-family="Times,serif" font-size="14.00" fill="#000000">ColorPickerLauncherComponent</text>
</g>
<!-- ColorPickerLauncherModule -->
<g id="node2" class="node">
<title>ColorPickerLauncherModule</title>
<polygon fill="#8dd3c7" stroke="#000000" points="338.0576,-187 335.0576,-191 314.0576,-191 311.0576,-187 157.9424,-187 157.9424,-151 338.0576,-151 338.0576,-187"/>
<text text-anchor="middle" x="248" y="-164.8" font-family="Times,serif" font-size="14.00" fill="#000000">ColorPickerLauncherModule</text>
</g>
<!-- ColorPickerLauncherComponent&#45;&gt;ColorPickerLauncherModule -->
<g id="edge1" class="edge">
<title>ColorPickerLauncherComponent&#45;&gt;ColorPickerLauncherModule</title>
<path fill="none" stroke="#000000" d="M291.5544,-122.1061C291.5544,-122.1061 291.5544,-140.991 291.5544,-140.991"/>
<polygon fill="#000000" stroke="#000000" points="288.0544,-140.9909 291.5544,-150.991 295.0544,-140.991 288.0544,-140.9909"/>
</g>
<!-- ColorPickerLauncherComponent  -->
<g id="node4" class="node">
<title>ColorPickerLauncherComponent </title>
<polygon fill="#fb8072" stroke="#000000" points="350.8405,-252 145.1595,-252 145.1595,-216 350.8405,-216 350.8405,-252"/>
<text text-anchor="middle" x="248" y="-229.8" font-family="Times,serif" font-size="14.00" fill="#000000">ColorPickerLauncherComponent </text>
</g>
<!-- ColorPickerLauncherModule&#45;&gt;ColorPickerLauncherComponent  -->
<g id="edge3" class="edge">
<title>ColorPickerLauncherModule&#45;&gt;ColorPickerLauncherComponent </title>
<path fill="none" stroke="#000000" stroke-dasharray="5,2" d="M248,-187.1061C248,-187.1061 248,-205.991 248,-205.991"/>
<polygon fill="#000000" stroke="#000000" points="244.5001,-205.9909 248,-215.991 251.5001,-205.991 244.5001,-205.9909"/>
</g>
<!-- ColorSchemePopupModule -->
<g id="node3" class="node">
<title>ColorSchemePopupModule</title>
<polygon fill="#8dd3c7" stroke="#000000" points="220.5378,-122 217.5378,-126 196.5378,-126 193.5378,-122 49.4622,-122 49.4622,-86 220.5378,-86 220.5378,-122"/>
<text text-anchor="middle" x="135" y="-99.8" font-family="Times,serif" font-size="14.00" fill="#000000">ColorSchemePopupModule</text>
</g>
<!-- ColorSchemePopupModule&#45;&gt;ColorPickerLauncherModule -->
<g id="edge2" class="edge">
<title>ColorSchemePopupModule&#45;&gt;ColorPickerLauncherModule</title>
<path fill="none" stroke="#000000" d="M189.3699,-122.1061C189.3699,-122.1061 189.3699,-140.991 189.3699,-140.991"/>
<polygon fill="#000000" stroke="#000000" points="185.87,-140.9909 189.3699,-150.991 192.87,-140.991 185.87,-140.9909"/>
</g>
</g>
</svg>
