<?xml version="1.0" encoding="UTF-8" standalone="no"?>
<!DOCTYPE svg PUBLIC "-//W3C//DTD SVG 1.1//EN"
 "http://www.w3.org/Graphics/SVG/1.1/DTD/svg11.dtd">
<!-- Generated by graphviz version 2.40.1 (20161225.0304)
 -->
<!-- Title: dependencies Pages: 1 -->
<svg width="538pt" height="284pt"
 viewBox="0.00 0.00 538.00 284.00" xmlns="http://www.w3.org/2000/svg" xmlns:xlink="http://www.w3.org/1999/xlink">
<g id="graph0" class="graph" transform="scale(1 1) rotate(0) translate(4 280)">
<title>dependencies</title>
<polygon fill="#ffffff" stroke="transparent" points="-4,4 -4,-280 534,-280 534,4 -4,4"/>
<text text-anchor="start" x="244.0091" y="-42.4" font-family="sans-serif" font-weight="bold" font-size="14.00" fill="#000000">Legend</text>
<polygon fill="#ffffb3" stroke="transparent" points="31,-10 31,-30 51,-30 51,-10 31,-10"/>
<text text-anchor="start" x="54.629" y="-15.4" font-family="sans-serif" font-size="14.00" fill="#000000"> &#160;Declarations</text>
<polygon fill="#8dd3c7" stroke="transparent" points="144,-10 144,-30 164,-30 164,-10 144,-10"/>
<text text-anchor="start" x="167.7251" y="-15.4" font-family="sans-serif" font-size="14.00" fill="#000000"> &#160;Module</text>
<polygon fill="#80b1d3" stroke="transparent" points="230,-10 230,-30 250,-30 250,-10 230,-10"/>
<text text-anchor="start" x="253.7812" y="-15.4" font-family="sans-serif" font-size="14.00" fill="#000000"> &#160;Bootstrap</text>
<polygon fill="#fdb462" stroke="transparent" points="327,-10 327,-30 347,-30 347,-10 327,-10"/>
<text text-anchor="start" x="350.6732" y="-15.4" font-family="sans-serif" font-size="14.00" fill="#000000"> &#160;Providers</text>
<polygon fill="#fb8072" stroke="transparent" points="423,-10 423,-30 443,-30 443,-10 423,-10"/>
<text text-anchor="start" x="446.7258" y="-15.4" font-family="sans-serif" font-size="14.00" fill="#000000"> &#160;Exports</text>
<g id="clust1" class="cluster">
<title>cluster_ColorSchemeContentsModule</title>
<polygon fill="none" stroke="#000000" stroke-dasharray="1,5" points="8,-70 8,-268 522,-268 522,-70 8,-70"/>
</g>
<g id="clust2" class="cluster">
<title>cluster_ColorSchemeContentsModule_declarations</title>
<polygon fill="none" stroke="#000000" points="290,-78 290,-130 514,-130 514,-78 290,-78"/>
</g>
<g id="clust4" class="cluster">
<title>cluster_ColorSchemeContentsModule_imports</title>
<polygon fill="none" stroke="#000000" points="16,-78 16,-130 282,-130 282,-78 16,-78"/>
</g>
<g id="clust5" class="cluster">
<title>cluster_ColorSchemeContentsModule_exports</title>
<polygon fill="none" stroke="#000000" points="105,-208 105,-260 331,-260 331,-208 105,-208"/>
</g>
<!-- ColorSchemeContentsComponent -->
<g id="node1" class="node">
<title>ColorSchemeContentsComponent</title>
<polygon fill="#ffffb3" stroke="#000000" points="505.8144,-122 298.1856,-122 298.1856,-86 505.8144,-86 505.8144,-122"/>
<text text-anchor="middle" x="402" y="-99.8" font-family="Times,serif" font-size="14.00" fill="#000000">ColorSchemeContentsComponent</text>
</g>
<!-- ColorSchemeContentsModule -->
<g id="node2" class="node">
<title>ColorSchemeContentsModule</title>
<polygon fill="#8dd3c7" stroke="#000000" points="310.5322,-187 307.5322,-191 286.5322,-191 283.5322,-187 125.4678,-187 125.4678,-151 310.5322,-151 310.5322,-187"/>
<text text-anchor="middle" x="218" y="-164.8" font-family="Times,serif" font-size="14.00" fill="#000000">ColorSchemeContentsModule</text>
</g>
<!-- ColorSchemeContentsComponent&#45;&gt;ColorSchemeContentsModule -->
<g id="edge1" class="edge">
<title>ColorSchemeContentsComponent&#45;&gt;ColorSchemeContentsModule</title>
<path fill="none" stroke="#000000" d="M304.5544,-122.1061C304.5544,-122.1061 304.5544,-140.991 304.5544,-140.991"/>
<polygon fill="#000000" stroke="#000000" points="301.0544,-140.9909 304.5544,-150.991 308.0544,-140.991 301.0544,-140.9909"/>
</g>
<!-- ColorSchemeContentsComponent  -->
<g id="node5" class="node">
<title>ColorSchemeContentsComponent </title>
<polygon fill="#fb8072" stroke="#000000" points="323.3143,-252 112.6857,-252 112.6857,-216 323.3143,-216 323.3143,-252"/>
<text text-anchor="middle" x="218" y="-229.8" font-family="Times,serif" font-size="14.00" fill="#000000">ColorSchemeContentsComponent </text>
</g>
<!-- ColorSchemeContentsModule&#45;&gt;ColorSchemeContentsComponent  -->
<g id="edge4" class="edge">
<title>ColorSchemeContentsModule&#45;&gt;ColorSchemeContentsComponent </title>
<path fill="none" stroke="#000000" stroke-dasharray="5,2" d="M218,-187.1061C218,-187.1061 218,-205.991 218,-205.991"/>
<polygon fill="#000000" stroke="#000000" points="214.5001,-205.9909 218,-215.991 221.5001,-205.991 214.5001,-205.9909"/>
</g>
<!-- ColorBarModule -->
<g id="node3" class="node">
<title>ColorBarModule</title>
<polygon fill="#8dd3c7" stroke="#000000" points="273.6499,-122 270.6499,-126 249.6499,-126 246.6499,-122 162.3501,-122 162.3501,-86 273.6499,-86 273.6499,-122"/>
<text text-anchor="middle" x="218" y="-99.8" font-family="Times,serif" font-size="14.00" fill="#000000">ColorBarModule</text>
</g>
<!-- ColorBarModule&#45;&gt;ColorSchemeContentsModule -->
<g id="edge2" class="edge">
<title>ColorBarModule&#45;&gt;ColorSchemeContentsModule</title>
<path fill="none" stroke="#000000" d="M218,-122.1061C218,-122.1061 218,-140.991 218,-140.991"/>
<polygon fill="#000000" stroke="#000000" points="214.5001,-140.9909 218,-150.991 221.5001,-140.991 214.5001,-140.9909"/>
</g>
<!-- DualSliderModule -->
<g id="node4" class="node">
<title>DualSliderModule</title>
<polygon fill="#8dd3c7" stroke="#000000" points="144.2008,-122 141.2008,-126 120.2008,-126 117.2008,-122 23.7992,-122 23.7992,-86 144.2008,-86 144.2008,-122"/>
<text text-anchor="middle" x="84" y="-99.8" font-family="Times,serif" font-size="14.00" fill="#000000">DualSliderModule</text>
</g>
<!-- DualSliderModule&#45;&gt;ColorSchemeContentsModule -->
<g id="edge3" class="edge">
<title>DualSliderModule&#45;&gt;ColorSchemeContentsModule</title>
<path fill="none" stroke="#000000" d="M134.6673,-122.1061C134.6673,-122.1061 134.6673,-140.991 134.6673,-140.991"/>
<polygon fill="#000000" stroke="#000000" points="131.1673,-140.9909 134.6673,-150.991 138.1673,-140.991 131.1673,-140.9909"/>
</g>
</g>
</svg>
