<?xml version="1.0" encoding="UTF-8" standalone="no"?>
<!DOCTYPE svg PUBLIC "-//W3C//DTD SVG 1.1//EN"
 "http://www.w3.org/Graphics/SVG/1.1/DTD/svg11.dtd">
<!-- Generated by graphviz version 2.47.3 (20210619.1520)
 -->
<!-- Title: dependencies Pages: 1 -->
<svg width="394pt" height="247pt"
 viewBox="0.00 0.00 394.00 246.80" xmlns="http://www.w3.org/2000/svg" xmlns:xlink="http://www.w3.org/1999/xlink">
<g id="graph0" class="graph" transform="scale(1 1) rotate(0) translate(4 242.8)">
<title>dependencies</title>
<polygon fill="white" stroke="transparent" points="-4,4 -4,-242.8 390,-242.8 390,4 -4,4"/>
<text text-anchor="middle" x="193" y="-8.2" font-family="sans-serif" font-size="14.00">dependencies</text>
<g id="clust1" class="cluster">
<title>cluster_TextSearchModule</title>
<polygon fill="none" stroke="black" stroke-dasharray="1,5" points="8,-32.8 8,-230.8 378,-230.8 378,-32.8 8,-32.8"/>
</g>
<g id="clust4" class="cluster">
<title>cluster_TextSearchModule_imports</title>
<polygon fill="none" stroke="black" points="199,-40.8 199,-92.8 357,-92.8 357,-40.8 199,-40.8"/>
</g>
<g id="clust5" class="cluster">
<title>cluster_TextSearchModule_exports</title>
<polygon fill="none" stroke="black" points="16,-170.8 16,-222.8 370,-222.8 370,-170.8 16,-170.8"/>
</g>
<g id="clust2" class="cluster">
<title>cluster_TextSearchModule_declarations</title>
<polygon fill="none" stroke="black" points="29,-40.8 29,-92.8 191,-92.8 191,-40.8 29,-40.8"/>
</g>
<!-- TextSearchComponent -->
<g id="node1" class="node">
<title>TextSearchComponent</title>
<polygon fill="#ffffb3" stroke="black" points="182.58,-84.8 37.42,-84.8 37.42,-48.8 182.58,-48.8 182.58,-84.8"/>
<text text-anchor="middle" x="110" y="-62.6" font-family="Times,serif" font-size="14.00">TextSearchComponent</text>
</g>
<!-- TextSearchModule -->
<g id="node2" class="node">
<title>TextSearchModule</title>
<polygon fill="#8dd3c7" stroke="black" points="290.79,-149.8 287.79,-153.8 266.79,-153.8 263.79,-149.8 167.21,-149.8 167.21,-113.8 290.79,-113.8 290.79,-149.8"/>
<text text-anchor="middle" x="229" y="-127.6" font-family="Times,serif" font-size="14.00">TextSearchModule</text>
</g>
<!-- TextSearchComponent&#45;&gt;TextSearchModule -->
<g id="edge1" class="edge">
<title>TextSearchComponent&#45;&gt;TextSearchModule</title>
<path fill="none" stroke="black" d="M174.95,-84.91C174.95,-84.91 174.95,-103.79 174.95,-103.79"/>
<polygon fill="black" stroke="black" points="171.45,-103.79 174.95,-113.79 178.45,-103.79 171.45,-103.79"/>
</g>
<!-- MatPrefix  -->
<g id="node4" class="node">
<title>MatPrefix </title>
<polygon fill="#fb8072" stroke="black" points="362.26,-214.8 285.74,-214.8 285.74,-178.8 362.26,-178.8 362.26,-214.8"/>
<text text-anchor="middle" x="324" y="-192.6" font-family="Times,serif" font-size="14.00">MatPrefix </text>
</g>
<!-- TextSearchModule&#45;&gt;MatPrefix  -->
<g id="edge3" class="edge">
<title>TextSearchModule&#45;&gt;MatPrefix </title>
<path fill="none" stroke="black" stroke-dasharray="5,2" d="M276.7,-149.91C276.7,-169.14 276.7,-196.8 276.7,-196.8 276.7,-196.8 277.61,-196.8 277.61,-196.8"/>
<polygon fill="black" stroke="black" points="275.82,-200.3 285.82,-196.8 275.82,-193.3 275.82,-200.3"/>
</g>
<!-- MatSuffix  -->
<g id="node5" class="node">
<title>MatSuffix </title>
<polygon fill="#fb8072" stroke="black" points="267.54,-214.8 190.46,-214.8 190.46,-178.8 267.54,-178.8 267.54,-214.8"/>
<text text-anchor="middle" x="229" y="-192.6" font-family="Times,serif" font-size="14.00">MatSuffix </text>
</g>
<!-- TextSearchModule&#45;&gt;MatSuffix  -->
<g id="edge4" class="edge">
<title>TextSearchModule&#45;&gt;MatSuffix </title>
<path fill="none" stroke="black" stroke-dasharray="5,2" d="M229,-149.91C229,-149.91 229,-168.79 229,-168.79"/>
<polygon fill="black" stroke="black" points="225.5,-168.79 229,-178.79 232.5,-168.79 225.5,-168.79"/>
</g>
<!-- TextSearchComponent  -->
<g id="node6" class="node">
<title>TextSearchComponent </title>
<polygon fill="#fb8072" stroke="black" points="172.08,-214.8 23.92,-214.8 23.92,-178.8 172.08,-178.8 172.08,-214.8"/>
<text text-anchor="middle" x="98" y="-192.6" font-family="Times,serif" font-size="14.00">TextSearchComponent </text>
</g>
<!-- TextSearchModule&#45;&gt;TextSearchComponent  -->
<g id="edge5" class="edge">
<title>TextSearchModule&#45;&gt;TextSearchComponent </title>
<path fill="none" stroke="black" stroke-dasharray="5,2" d="M181.38,-149.91C181.38,-169.14 181.38,-196.8 181.38,-196.8 181.38,-196.8 180.46,-196.8 180.46,-196.8"/>
<polygon fill="black" stroke="black" points="182.14,-193.3 172.14,-196.8 182.14,-200.3 182.14,-193.3"/>
</g>
<!-- DecoratedTextModule -->
<g id="node3" class="node">
<title>DecoratedTextModule</title>
<polygon fill="#8dd3c7" stroke="black" points="349.22,-84.8 346.22,-88.8 325.22,-88.8 322.22,-84.8 206.78,-84.8 206.78,-48.8 349.22,-48.8 349.22,-84.8"/>
<text text-anchor="middle" x="278" y="-62.6" font-family="Times,serif" font-size="14.00">DecoratedTextModule</text>
</g>
<!-- DecoratedTextModule&#45;&gt;TextSearchModule -->
<g id="edge2" class="edge">
<title>DecoratedTextModule&#45;&gt;TextSearchModule</title>
<path fill="none" stroke="black" d="M248.64,-84.91C248.64,-84.91 248.64,-103.79 248.64,-103.79"/>
<polygon fill="black" stroke="black" points="245.14,-103.79 248.64,-113.79 252.14,-103.79 245.14,-103.79"/>
</g>
</g>
</svg>
