<?xml version="1.0" encoding="UTF-8" standalone="no"?>
<!DOCTYPE svg PUBLIC "-//W3C//DTD SVG 1.1//EN"
 "http://www.w3.org/Graphics/SVG/1.1/DTD/svg11.dtd">
<!-- Generated by graphviz version 2.47.0 (20210316.0004)
 -->
<!-- Title: dependencies Pages: 1 -->
<svg width="504pt" height="284pt"
 viewBox="0.00 0.00 504.00 284.00" xmlns="http://www.w3.org/2000/svg" xmlns:xlink="http://www.w3.org/1999/xlink">
<g id="graph0" class="graph" transform="scale(1 1) rotate(0) translate(4 280)">
<title>dependencies</title>
<polygon fill="white" stroke="transparent" points="-4,4 -4,-280 500,-280 500,4 -4,4"/>
<text text-anchor="start" x="227.01" y="-42.4" font-family="Times-12" font-weight="bold" font-size="14.00">Legend</text>
<polygon fill="#ffffb3" stroke="transparent" points="14,-10 14,-30 34,-30 34,-10 14,-10"/>
<text text-anchor="start" x="37.63" y="-15.4" font-family="Times-12" font-size="14.00"> &#160;Declarations</text>
<polygon fill="#8dd3c7" stroke="transparent" points="127,-10 127,-30 147,-30 147,-10 127,-10"/>
<text text-anchor="start" x="150.73" y="-15.4" font-family="Times-12" font-size="14.00"> &#160;Module</text>
<polygon fill="#80b1d3" stroke="transparent" points="213,-10 213,-30 233,-30 233,-10 213,-10"/>
<text text-anchor="start" x="236.78" y="-15.4" font-family="Times-12" font-size="14.00"> &#160;Bootstrap</text>
<polygon fill="#fdb462" stroke="transparent" points="310,-10 310,-30 330,-30 330,-10 310,-10"/>
<text text-anchor="start" x="333.67" y="-15.4" font-family="Times-12" font-size="14.00"> &#160;Providers</text>
<polygon fill="#fb8072" stroke="transparent" points="406,-10 406,-30 426,-30 426,-10 406,-10"/>
<text text-anchor="start" x="429.73" y="-15.4" font-family="Times-12" font-size="14.00"> &#160;Exports</text>
<g id="clust1" class="cluster">
<title>cluster_TextSearchModule</title>
<polygon fill="none" stroke="black" stroke-dasharray="1,5" points="63,-70 63,-268 433,-268 433,-70 63,-70"/>
</g>
<g id="clust5" class="cluster">
<title>cluster_TextSearchModule_exports</title>
<polygon fill="none" stroke="black" points="71,-208 71,-260 425,-260 425,-208 71,-208"/>
</g>
<g id="clust4" class="cluster">
<title>cluster_TextSearchModule_imports</title>
<polygon fill="none" stroke="black" points="254,-78 254,-130 412,-130 412,-78 254,-78"/>
</g>
<g id="clust2" class="cluster">
<title>cluster_TextSearchModule_declarations</title>
<polygon fill="none" stroke="black" points="84,-78 84,-130 246,-130 246,-78 84,-78"/>
</g>
<!-- TextSearchComponent -->
<g id="node1" class="node">
<title>TextSearchComponent</title>
<polygon fill="#ffffb3" stroke="black" points="237.58,-122 92.42,-122 92.42,-86 237.58,-86 237.58,-122"/>
<text text-anchor="middle" x="165" y="-99.8" font-family="Times,serif" font-size="14.00">TextSearchComponent</text>
</g>
<!-- TextSearchModule -->
<g id="node2" class="node">
<title>TextSearchModule</title>
<polygon fill="#8dd3c7" stroke="black" points="345.79,-187 342.79,-191 321.79,-191 318.79,-187 222.21,-187 222.21,-151 345.79,-151 345.79,-187"/>
<text text-anchor="middle" x="284" y="-164.8" font-family="Times,serif" font-size="14.00">TextSearchModule</text>
</g>
<!-- TextSearchComponent&#45;&gt;TextSearchModule -->
<g id="edge1" class="edge">
<title>TextSearchComponent&#45;&gt;TextSearchModule</title>
<path fill="none" stroke="black" d="M229.95,-122.11C229.95,-122.11 229.95,-140.99 229.95,-140.99"/>
<polygon fill="black" stroke="black" points="226.45,-140.99 229.95,-150.99 233.45,-140.99 226.45,-140.99"/>
</g>
<!-- MatPrefix  -->
<g id="node4" class="node">
<title>MatPrefix </title>
<polygon fill="#fb8072" stroke="black" points="417.26,-252 340.74,-252 340.74,-216 417.26,-216 417.26,-252"/>
<text text-anchor="middle" x="379" y="-229.8" font-family="Times,serif" font-size="14.00">MatPrefix </text>
</g>
<!-- TextSearchModule&#45;&gt;MatPrefix  -->
<g id="edge3" class="edge">
<title>TextSearchModule&#45;&gt;MatPrefix </title>
<path fill="none" stroke="black" stroke-dasharray="5,2" d="M331.7,-187.11C331.7,-206.34 331.7,-234 331.7,-234 331.7,-234 332.61,-234 332.61,-234"/>
<polygon fill="black" stroke="black" points="330.82,-237.5 340.82,-234 330.82,-230.5 330.82,-237.5"/>
</g>
<!-- MatSuffix  -->
<g id="node5" class="node">
<title>MatSuffix </title>
<polygon fill="#fb8072" stroke="black" points="322.54,-252 245.46,-252 245.46,-216 322.54,-216 322.54,-252"/>
<text text-anchor="middle" x="284" y="-229.8" font-family="Times,serif" font-size="14.00">MatSuffix </text>
</g>
<!-- TextSearchModule&#45;&gt;MatSuffix  -->
<g id="edge4" class="edge">
<title>TextSearchModule&#45;&gt;MatSuffix </title>
<path fill="none" stroke="black" stroke-dasharray="5,2" d="M284,-187.11C284,-187.11 284,-205.99 284,-205.99"/>
<polygon fill="black" stroke="black" points="280.5,-205.99 284,-215.99 287.5,-205.99 280.5,-205.99"/>
</g>
<!-- TextSearchComponent  -->
<g id="node6" class="node">
<title>TextSearchComponent </title>
<polygon fill="#fb8072" stroke="black" points="227.08,-252 78.92,-252 78.92,-216 227.08,-216 227.08,-252"/>
<text text-anchor="middle" x="153" y="-229.8" font-family="Times,serif" font-size="14.00">TextSearchComponent </text>
</g>
<!-- TextSearchModule&#45;&gt;TextSearchComponent  -->
<g id="edge5" class="edge">
<title>TextSearchModule&#45;&gt;TextSearchComponent </title>
<path fill="none" stroke="black" stroke-dasharray="5,2" d="M236.38,-187.11C236.38,-206.34 236.38,-234 236.38,-234 236.38,-234 235.46,-234 235.46,-234"/>
<polygon fill="black" stroke="black" points="237.14,-230.5 227.14,-234 237.14,-237.5 237.14,-230.5"/>
</g>
<!-- DecoratedTextModule -->
<g id="node3" class="node">
<title>DecoratedTextModule</title>
<polygon fill="#8dd3c7" stroke="black" points="404.22,-122 401.22,-126 380.22,-126 377.22,-122 261.78,-122 261.78,-86 404.22,-86 404.22,-122"/>
<text text-anchor="middle" x="333" y="-99.8" font-family="Times,serif" font-size="14.00">DecoratedTextModule</text>
</g>
<!-- DecoratedTextModule&#45;&gt;TextSearchModule -->
<g id="edge2" class="edge">
<title>DecoratedTextModule&#45;&gt;TextSearchModule</title>
<path fill="none" stroke="black" d="M303.64,-122.11C303.64,-122.11 303.64,-140.99 303.64,-140.99"/>
<polygon fill="black" stroke="black" points="300.14,-140.99 303.64,-150.99 307.14,-140.99 300.14,-140.99"/>
</g>
</g>
</svg>
