<?xml version="1.0" encoding="UTF-8" standalone="no"?>
<!DOCTYPE svg PUBLIC "-//W3C//DTD SVG 1.1//EN"
 "http://www.w3.org/Graphics/SVG/1.1/DTD/svg11.dtd">
<!-- Generated by graphviz version 2.40.1 (20161225.0304)
 -->
<!-- Title: dependencies Pages: 1 -->
<svg width="504pt" height="284pt"
 viewBox="0.00 0.00 504.00 284.00" xmlns="http://www.w3.org/2000/svg" xmlns:xlink="http://www.w3.org/1999/xlink">
<g id="graph0" class="graph" transform="scale(1 1) rotate(0) translate(4 280)">
<title>dependencies</title>
<polygon fill="#ffffff" stroke="transparent" points="-4,4 -4,-280 500,-280 500,4 -4,4"/>
<text text-anchor="start" x="227.0091" y="-42.4" font-family="sans-serif" font-weight="bold" font-size="14.00" fill="#000000">Legend</text>
<polygon fill="#ffffb3" stroke="transparent" points="14,-10 14,-30 34,-30 34,-10 14,-10"/>
<text text-anchor="start" x="37.629" y="-15.4" font-family="sans-serif" font-size="14.00" fill="#000000"> &#160;Declarations</text>
<polygon fill="#8dd3c7" stroke="transparent" points="127,-10 127,-30 147,-30 147,-10 127,-10"/>
<text text-anchor="start" x="150.7251" y="-15.4" font-family="sans-serif" font-size="14.00" fill="#000000"> &#160;Module</text>
<polygon fill="#80b1d3" stroke="transparent" points="213,-10 213,-30 233,-30 233,-10 213,-10"/>
<text text-anchor="start" x="236.7812" y="-15.4" font-family="sans-serif" font-size="14.00" fill="#000000"> &#160;Bootstrap</text>
<polygon fill="#fdb462" stroke="transparent" points="310,-10 310,-30 330,-30 330,-10 310,-10"/>
<text text-anchor="start" x="333.6732" y="-15.4" font-family="sans-serif" font-size="14.00" fill="#000000"> &#160;Providers</text>
<polygon fill="#fb8072" stroke="transparent" points="406,-10 406,-30 426,-30 426,-10 406,-10"/>
<text text-anchor="start" x="429.7258" y="-15.4" font-family="sans-serif" font-size="14.00" fill="#000000"> &#160;Exports</text>
<g id="clust1" class="cluster">
<title>cluster_ColorSchemePopupModule</title>
<polygon fill="none" stroke="#000000" stroke-dasharray="1,5" points="30,-70 30,-268 466,-268 466,-70 30,-70"/>
</g>
<g id="clust2" class="cluster">
<title>cluster_ColorSchemePopupModule_declarations</title>
<polygon fill="none" stroke="#000000" points="248,-78 248,-130 458,-130 458,-78 248,-78"/>
</g>
<g id="clust4" class="cluster">
<title>cluster_ColorSchemePopupModule_imports</title>
<polygon fill="none" stroke="#000000" points="38,-78 38,-130 240,-130 240,-78 38,-78"/>
</g>
<g id="clust5" class="cluster">
<title>cluster_ColorSchemePopupModule_exports</title>
<polygon fill="none" stroke="#000000" points="142,-208 142,-260 354,-260 354,-208 142,-208"/>
</g>
<!-- ColorSchemePopupComponent -->
<g id="node1" class="node">
<title>ColorSchemePopupComponent</title>
<polygon fill="#ffffb3" stroke="#000000" points="449.8201,-122 256.1799,-122 256.1799,-86 449.8201,-86 449.8201,-122"/>
<text text-anchor="middle" x="353" y="-99.8" font-family="Times,serif" font-size="14.00" fill="#000000">ColorSchemePopupComponent</text>
</g>
<!-- ColorSchemePopupModule -->
<g id="node2" class="node">
<title>ColorSchemePopupModule</title>
<polygon fill="#8dd3c7" stroke="#000000" points="333.5378,-187 330.5378,-191 309.5378,-191 306.5378,-187 162.4622,-187 162.4622,-151 333.5378,-151 333.5378,-187"/>
<text text-anchor="middle" x="248" y="-164.8" font-family="Times,serif" font-size="14.00" fill="#000000">ColorSchemePopupModule</text>
</g>
<!-- ColorSchemePopupComponent&#45;&gt;ColorSchemePopupModule -->
<g id="edge1" class="edge">
<title>ColorSchemePopupComponent&#45;&gt;ColorSchemePopupModule</title>
<path fill="none" stroke="#000000" d="M295.0544,-122.1061C295.0544,-122.1061 295.0544,-140.991 295.0544,-140.991"/>
<polygon fill="#000000" stroke="#000000" points="291.5544,-140.9909 295.0544,-150.991 298.5544,-140.991 291.5544,-140.9909"/>
</g>
<!-- ColorSchemePopupComponent  -->
<g id="node4" class="node">
<title>ColorSchemePopupComponent </title>
<polygon fill="#fb8072" stroke="#000000" points="346.3199,-252 149.6801,-252 149.6801,-216 346.3199,-216 346.3199,-252"/>
<text text-anchor="middle" x="248" y="-229.8" font-family="Times,serif" font-size="14.00" fill="#000000">ColorSchemePopupComponent </text>
</g>
<!-- ColorSchemePopupModule&#45;&gt;ColorSchemePopupComponent  -->
<g id="edge3" class="edge">
<title>ColorSchemePopupModule&#45;&gt;ColorSchemePopupComponent </title>
<path fill="none" stroke="#000000" stroke-dasharray="5,2" d="M248,-187.1061C248,-187.1061 248,-205.991 248,-205.991"/>
<polygon fill="#000000" stroke="#000000" points="244.5001,-205.9909 248,-215.991 251.5001,-205.991 244.5001,-205.9909"/>
</g>
<!-- ColorSchemeContentsModule -->
<g id="node3" class="node">
<title>ColorSchemeContentsModule</title>
<polygon fill="#8dd3c7" stroke="#000000" points="231.5322,-122 228.5322,-126 207.5322,-126 204.5322,-122 46.4678,-122 46.4678,-86 231.5322,-86 231.5322,-122"/>
<text text-anchor="middle" x="139" y="-99.8" font-family="Times,serif" font-size="14.00" fill="#000000">ColorSchemeContentsModule</text>
</g>
<!-- ColorSchemeContentsModule&#45;&gt;ColorSchemePopupModule -->
<g id="edge2" class="edge">
<title>ColorSchemeContentsModule&#45;&gt;ColorSchemePopupModule</title>
<path fill="none" stroke="#000000" d="M196.9986,-122.1061C196.9986,-122.1061 196.9986,-140.991 196.9986,-140.991"/>
<polygon fill="#000000" stroke="#000000" points="193.4987,-140.9909 196.9986,-150.991 200.4987,-140.991 193.4987,-140.9909"/>
</g>
</g>
</svg>
