<?xml version="1.0" encoding="UTF-8" standalone="no"?>
<!DOCTYPE svg PUBLIC "-//W3C//DTD SVG 1.1//EN"
 "http://www.w3.org/Graphics/SVG/1.1/DTD/svg11.dtd">
<!-- Generated by graphviz version 2.47.0 (20210316.0004)
 -->
<!-- Title: dependencies Pages: 1 -->
<svg width="504pt" height="284pt"
 viewBox="0.00 0.00 504.00 284.00" xmlns="http://www.w3.org/2000/svg" xmlns:xlink="http://www.w3.org/1999/xlink">
<g id="graph0" class="graph" transform="scale(1 1) rotate(0) translate(4 280)">
<title>dependencies</title>
<polygon fill="white" stroke="transparent" points="-4,4 -4,-280 500,-280 500,4 -4,4"/>
<text text-anchor="start" x="227.01" y="-42.4" font-family="Times-12" font-weight="bold" font-size="14.00">Legend</text>
<polygon fill="#ffffb3" stroke="transparent" points="14,-10 14,-30 34,-30 34,-10 14,-10"/>
<text text-anchor="start" x="37.63" y="-15.4" font-family="Times-12" font-size="14.00"> &#160;Declarations</text>
<polygon fill="#8dd3c7" stroke="transparent" points="127,-10 127,-30 147,-30 147,-10 127,-10"/>
<text text-anchor="start" x="150.73" y="-15.4" font-family="Times-12" font-size="14.00"> &#160;Module</text>
<polygon fill="#80b1d3" stroke="transparent" points="213,-10 213,-30 233,-30 233,-10 213,-10"/>
<text text-anchor="start" x="236.78" y="-15.4" font-family="Times-12" font-size="14.00"> &#160;Bootstrap</text>
<polygon fill="#fdb462" stroke="transparent" points="310,-10 310,-30 330,-30 330,-10 310,-10"/>
<text text-anchor="start" x="333.67" y="-15.4" font-family="Times-12" font-size="14.00"> &#160;Providers</text>
<polygon fill="#fb8072" stroke="transparent" points="406,-10 406,-30 426,-30 426,-10 406,-10"/>
<text text-anchor="start" x="429.73" y="-15.4" font-family="Times-12" font-size="14.00"> &#160;Exports</text>
<g id="clust1" class="cluster">
<title>cluster_RegistrationModalModule</title>
<polygon fill="none" stroke="black" stroke-dasharray="1,5" points="41,-70 41,-268 455,-268 455,-70 41,-70"/>
</g>
<g id="clust4" class="cluster">
<title>cluster_RegistrationModalModule_imports</title>
<polygon fill="none" stroke="black" points="259,-78 259,-130 447,-130 447,-78 259,-78"/>
</g>
<g id="clust2" class="cluster">
<title>cluster_RegistrationModalModule_declarations</title>
<polygon fill="none" stroke="black" points="49,-78 49,-130 251,-130 251,-78 49,-78"/>
</g>
<g id="clust5" class="cluster">
<title>cluster_RegistrationModalModule_exports</title>
<polygon fill="none" stroke="black" points="145,-208 145,-260 351,-260 351,-208 145,-208"/>
</g>
<!-- RegistrationModalComponent -->
<g id="node1" class="node">
<title>RegistrationModalComponent</title>
<polygon fill="#ffffb3" stroke="black" points="243.32,-122 56.68,-122 56.68,-86 243.32,-86 243.32,-122"/>
<text text-anchor="middle" x="150" y="-99.8" font-family="Times,serif" font-size="14.00">RegistrationModalComponent</text>
</g>
<!-- RegistrationModalModule -->
<g id="node2" class="node">
<title>RegistrationModalModule</title>
<polygon fill="#8dd3c7" stroke="black" points="330.03,-187 327.03,-191 306.03,-191 303.03,-187 165.97,-187 165.97,-151 330.03,-151 330.03,-187"/>
<text text-anchor="middle" x="248" y="-164.8" font-family="Times,serif" font-size="14.00">RegistrationModalModule</text>
</g>
<!-- RegistrationModalComponent&#45;&gt;RegistrationModalModule -->
<g id="edge1" class="edge">
<title>RegistrationModalComponent&#45;&gt;RegistrationModalModule</title>
<path fill="none" stroke="black" d="M204.45,-122.11C204.45,-122.11 204.45,-140.99 204.45,-140.99"/>
<polygon fill="black" stroke="black" points="200.95,-140.99 204.45,-150.99 207.95,-140.99 200.95,-140.99"/>
</g>
<!-- RegistrationModalComponent  -->
<g id="node4" class="node">
<title>RegistrationModalComponent </title>
<polygon fill="#fb8072" stroke="black" points="342.82,-252 153.18,-252 153.18,-216 342.82,-216 342.82,-252"/>
<text text-anchor="middle" x="248" y="-229.8" font-family="Times,serif" font-size="14.00">RegistrationModalComponent </text>
</g>
<!-- RegistrationModalModule&#45;&gt;RegistrationModalComponent  -->
<g id="edge3" class="edge">
<title>RegistrationModalModule&#45;&gt;RegistrationModalComponent </title>
<path fill="none" stroke="black" stroke-dasharray="5,2" d="M248,-187.11C248,-187.11 248,-205.99 248,-205.99"/>
<polygon fill="black" stroke="black" points="244.5,-205.99 248,-215.99 251.5,-205.99 244.5,-205.99"/>
</g>
<!-- RegistrationContentModule -->
<g id="node3" class="node">
<title>RegistrationContentModule</title>
<polygon fill="#8dd3c7" stroke="black" points="439.32,-122 436.32,-126 415.32,-126 412.32,-122 266.68,-122 266.68,-86 439.32,-86 439.32,-122"/>
<text text-anchor="middle" x="353" y="-99.8" font-family="Times,serif" font-size="14.00">RegistrationContentModule</text>
</g>
<!-- RegistrationContentModule&#45;&gt;RegistrationModalModule -->
<g id="edge2" class="edge">
<title>RegistrationContentModule&#45;&gt;RegistrationModalModule</title>
<path fill="none" stroke="black" d="M298.55,-122.11C298.55,-122.11 298.55,-140.99 298.55,-140.99"/>
<polygon fill="black" stroke="black" points="295.05,-140.99 298.55,-150.99 302.05,-140.99 295.05,-140.99"/>
</g>
</g>
</svg>
