<?xml version="1.0" encoding="UTF-8" standalone="no"?>
<!DOCTYPE svg PUBLIC "-//W3C//DTD SVG 1.1//EN"
 "http://www.w3.org/Graphics/SVG/1.1/DTD/svg11.dtd">
<!-- Generated by graphviz version 2.47.3 (20210619.1520)
 -->
<!-- Title: dependencies Pages: 1 -->
<svg width="438pt" height="247pt"
 viewBox="0.00 0.00 438.00 246.80" xmlns="http://www.w3.org/2000/svg" xmlns:xlink="http://www.w3.org/1999/xlink">
<g id="graph0" class="graph" transform="scale(1 1) rotate(0) translate(4 242.8)">
<title>dependencies</title>
<polygon fill="white" stroke="transparent" points="-4,4 -4,-242.8 434,-242.8 434,4 -4,4"/>
<text text-anchor="middle" x="215" y="-8.2" font-family="sans-serif" font-size="14.00">dependencies</text>
<g id="clust1" class="cluster">
<title>cluster_RegistrationModalModule</title>
<polygon fill="none" stroke="black" stroke-dasharray="1,5" points="8,-32.8 8,-230.8 422,-230.8 422,-32.8 8,-32.8"/>
</g>
<g id="clust2" class="cluster">
<title>cluster_RegistrationModalModule_declarations</title>
<polygon fill="none" stroke="black" points="212,-40.8 212,-92.8 414,-92.8 414,-40.8 212,-40.8"/>
</g>
<g id="clust5" class="cluster">
<title>cluster_RegistrationModalModule_exports</title>
<polygon fill="none" stroke="black" points="112,-170.8 112,-222.8 318,-222.8 318,-170.8 112,-170.8"/>
</g>
<g id="clust4" class="cluster">
<title>cluster_RegistrationModalModule_imports</title>
<polygon fill="none" stroke="black" points="16,-40.8 16,-92.8 204,-92.8 204,-40.8 16,-40.8"/>
</g>
<!-- RegistrationModalComponent -->
<g id="node1" class="node">
<title>RegistrationModalComponent</title>
<polygon fill="#ffffb3" stroke="black" points="406.32,-84.8 219.68,-84.8 219.68,-48.8 406.32,-48.8 406.32,-84.8"/>
<text text-anchor="middle" x="313" y="-62.6" font-family="Times,serif" font-size="14.00">RegistrationModalComponent</text>
</g>
<!-- RegistrationModalModule -->
<g id="node2" class="node">
<title>RegistrationModalModule</title>
<polygon fill="#8dd3c7" stroke="black" points="297.03,-149.8 294.03,-153.8 273.03,-153.8 270.03,-149.8 132.97,-149.8 132.97,-113.8 297.03,-113.8 297.03,-149.8"/>
<text text-anchor="middle" x="215" y="-127.6" font-family="Times,serif" font-size="14.00">RegistrationModalModule</text>
</g>
<!-- RegistrationModalComponent&#45;&gt;RegistrationModalModule -->
<g id="edge1" class="edge">
<title>RegistrationModalComponent&#45;&gt;RegistrationModalModule</title>
<path fill="none" stroke="black" d="M258.55,-84.91C258.55,-84.91 258.55,-103.79 258.55,-103.79"/>
<polygon fill="black" stroke="black" points="255.05,-103.79 258.55,-113.79 262.05,-103.79 255.05,-103.79"/>
</g>
<!-- RegistrationModalComponent  -->
<g id="node4" class="node">
<title>RegistrationModalComponent </title>
<polygon fill="#fb8072" stroke="black" points="309.82,-214.8 120.18,-214.8 120.18,-178.8 309.82,-178.8 309.82,-214.8"/>
<text text-anchor="middle" x="215" y="-192.6" font-family="Times,serif" font-size="14.00">RegistrationModalComponent </text>
</g>
<!-- RegistrationModalModule&#45;&gt;RegistrationModalComponent  -->
<g id="edge3" class="edge">
<title>RegistrationModalModule&#45;&gt;RegistrationModalComponent </title>
<path fill="none" stroke="black" stroke-dasharray="5,2" d="M215,-149.91C215,-149.91 215,-168.79 215,-168.79"/>
<polygon fill="black" stroke="black" points="211.5,-168.79 215,-178.79 218.5,-168.79 211.5,-168.79"/>
</g>
<!-- RegistrationContentModule -->
<g id="node3" class="node">
<title>RegistrationContentModule</title>
<polygon fill="#8dd3c7" stroke="black" points="196.32,-84.8 193.32,-88.8 172.32,-88.8 169.32,-84.8 23.68,-84.8 23.68,-48.8 196.32,-48.8 196.32,-84.8"/>
<text text-anchor="middle" x="110" y="-62.6" font-family="Times,serif" font-size="14.00">RegistrationContentModule</text>
</g>
<!-- RegistrationContentModule&#45;&gt;RegistrationModalModule -->
<g id="edge2" class="edge">
<title>RegistrationContentModule&#45;&gt;RegistrationModalModule</title>
<path fill="none" stroke="black" d="M164.45,-84.91C164.45,-84.91 164.45,-103.79 164.45,-103.79"/>
<polygon fill="black" stroke="black" points="160.95,-103.79 164.45,-113.79 167.95,-103.79 160.95,-103.79"/>
</g>
</g>
</svg>
