<?xml version="1.0" encoding="UTF-8" standalone="no"?>
<!DOCTYPE svg PUBLIC "-//W3C//DTD SVG 1.1//EN"
 "http://www.w3.org/Graphics/SVG/1.1/DTD/svg11.dtd">
<!-- Generated by graphviz version 2.47.3 (20210619.1520)
 -->
<!-- Title: dependencies Pages: 1 -->
<svg width="404pt" height="247pt"
 viewBox="0.00 0.00 404.00 246.80" xmlns="http://www.w3.org/2000/svg" xmlns:xlink="http://www.w3.org/1999/xlink">
<g id="graph0" class="graph" transform="scale(1 1) rotate(0) translate(4 242.8)">
<title>dependencies</title>
<polygon fill="white" stroke="transparent" points="-4,4 -4,-242.8 400,-242.8 400,4 -4,4"/>
<text text-anchor="middle" x="198" y="-8.2" font-family="sans-serif" font-size="14.00">dependencies</text>
<g id="clust1" class="cluster">
<title>cluster_SpatialSearchUiModule</title>
<polygon fill="none" stroke="black" stroke-dasharray="1,5" points="8,-32.8 8,-230.8 388,-230.8 388,-32.8 8,-32.8"/>
</g>
<g id="clust4" class="cluster">
<title>cluster_SpatialSearchUiModule_imports</title>
<polygon fill="none" stroke="black" points="212,-40.8 212,-92.8 380,-92.8 380,-40.8 212,-40.8"/>
</g>
<g id="clust5" class="cluster">
<title>cluster_SpatialSearchUiModule_exports</title>
<polygon fill="none" stroke="black" points="102,-170.8 102,-222.8 294,-222.8 294,-170.8 102,-170.8"/>
</g>
<g id="clust2" class="cluster">
<title>cluster_SpatialSearchUiModule_declarations</title>
<polygon fill="none" stroke="black" points="16,-40.8 16,-92.8 204,-92.8 204,-40.8 16,-40.8"/>
</g>
<!-- SpatialSearchUiComponent -->
<g id="node1" class="node">
<title>SpatialSearchUiComponent</title>
<polygon fill="#ffffb3" stroke="black" points="196.3,-84.8 23.7,-84.8 23.7,-48.8 196.3,-48.8 196.3,-84.8"/>
<text text-anchor="middle" x="110" y="-62.6" font-family="Times,serif" font-size="14.00">SpatialSearchUiComponent</text>
</g>
<!-- SpatialSearchUiModule -->
<g id="node2" class="node">
<title>SpatialSearchUiModule</title>
<polygon fill="#8dd3c7" stroke="black" points="273.02,-149.8 270.02,-153.8 249.02,-153.8 246.02,-149.8 122.98,-149.8 122.98,-113.8 273.02,-113.8 273.02,-149.8"/>
<text text-anchor="middle" x="198" y="-127.6" font-family="Times,serif" font-size="14.00">SpatialSearchUiModule</text>
</g>
<!-- SpatialSearchUiComponent&#45;&gt;SpatialSearchUiModule -->
<g id="edge1" class="edge">
<title>SpatialSearchUiComponent&#45;&gt;SpatialSearchUiModule</title>
<path fill="none" stroke="black" d="M159.45,-84.91C159.45,-84.91 159.45,-103.79 159.45,-103.79"/>
<polygon fill="black" stroke="black" points="155.95,-103.79 159.45,-113.79 162.95,-103.79 155.95,-103.79"/>
</g>
<!-- SpatialSearchUiComponent  -->
<g id="node4" class="node">
<title>SpatialSearchUiComponent </title>
<polygon fill="#fb8072" stroke="black" points="285.8,-214.8 110.2,-214.8 110.2,-178.8 285.8,-178.8 285.8,-214.8"/>
<text text-anchor="middle" x="198" y="-192.6" font-family="Times,serif" font-size="14.00">SpatialSearchUiComponent </text>
</g>
<!-- SpatialSearchUiModule&#45;&gt;SpatialSearchUiComponent  -->
<g id="edge3" class="edge">
<title>SpatialSearchUiModule&#45;&gt;SpatialSearchUiComponent </title>
<path fill="none" stroke="black" stroke-dasharray="5,2" d="M198,-149.91C198,-149.91 198,-168.79 198,-168.79"/>
<polygon fill="black" stroke="black" points="194.5,-168.79 198,-178.79 201.5,-168.79 194.5,-168.79"/>
</g>
<!-- TissueBlockListModule -->
<g id="node3" class="node">
<title>TissueBlockListModule</title>
<polygon fill="#8dd3c7" stroke="black" points="371.82,-84.8 368.82,-88.8 347.82,-88.8 344.82,-84.8 220.18,-84.8 220.18,-48.8 371.82,-48.8 371.82,-84.8"/>
<text text-anchor="middle" x="296" y="-62.6" font-family="Times,serif" font-size="14.00">TissueBlockListModule</text>
</g>
<!-- TissueBlockListModule&#45;&gt;SpatialSearchUiModule -->
<g id="edge2" class="edge">
<title>TissueBlockListModule&#45;&gt;SpatialSearchUiModule</title>
<path fill="none" stroke="black" d="M246.8,-84.91C246.8,-84.91 246.8,-103.79 246.8,-103.79"/>
<polygon fill="black" stroke="black" points="243.3,-103.79 246.8,-113.79 250.3,-103.79 243.3,-103.79"/>
</g>
</g>
</svg>
