<?xml version="1.0" encoding="UTF-8" standalone="no"?>
<!DOCTYPE svg PUBLIC "-//W3C//DTD SVG 1.1//EN"
 "http://www.w3.org/Graphics/SVG/1.1/DTD/svg11.dtd">
<!-- Generated by graphviz version 2.47.3 (20210619.1520)
 -->
<!-- Title: dependencies Pages: 1 -->
<svg width="874pt" height="247pt"
 viewBox="0.00 0.00 874.00 246.80" xmlns="http://www.w3.org/2000/svg" xmlns:xlink="http://www.w3.org/1999/xlink">
<g id="graph0" class="graph" transform="scale(1 1) rotate(0) translate(4 242.8)">
<title>dependencies</title>
<polygon fill="white" stroke="transparent" points="-4,4 -4,-242.8 870,-242.8 870,4 -4,4"/>
<text text-anchor="middle" x="433" y="-8.2" font-family="sans-serif" font-size="14.00">dependencies</text>
<g id="clust1" class="cluster">
<title>cluster_SpatialSearchUiModule</title>
<polygon fill="none" stroke="black" stroke-dasharray="1,5" points="8,-32.8 8,-230.8 858,-230.8 858,-32.8 8,-32.8"/>
</g>
<g id="clust4" class="cluster">
<title>cluster_SpatialSearchUiModule_imports</title>
<polygon fill="none" stroke="black" points="212,-40.8 212,-92.8 850,-92.8 850,-40.8 212,-40.8"/>
</g>
<g id="clust5" class="cluster">
<title>cluster_SpatialSearchUiModule_exports</title>
<polygon fill="none" stroke="black" points="382,-170.8 382,-222.8 574,-222.8 574,-170.8 382,-170.8"/>
</g>
<g id="clust2" class="cluster">
<title>cluster_SpatialSearchUiModule_declarations</title>
<polygon fill="none" stroke="black" points="16,-40.8 16,-92.8 204,-92.8 204,-40.8 16,-40.8"/>
</g>
<!-- SpatialSearchUiComponent -->
<g id="node1" class="node">
<title>SpatialSearchUiComponent</title>
<polygon fill="#ffffb3" stroke="black" points="196.3,-84.8 23.7,-84.8 23.7,-48.8 196.3,-48.8 196.3,-84.8"/>
<text text-anchor="middle" x="110" y="-62.6" font-family="Times,serif" font-size="14.00">SpatialSearchUiComponent</text>
</g>
<!-- SpatialSearchUiModule -->
<g id="node2" class="node">
<title>SpatialSearchUiModule</title>
<polygon fill="#8dd3c7" stroke="black" points="553.02,-149.8 550.02,-153.8 529.02,-153.8 526.02,-149.8 402.98,-149.8 402.98,-113.8 553.02,-113.8 553.02,-149.8"/>
<text text-anchor="middle" x="478" y="-127.6" font-family="Times,serif" font-size="14.00">SpatialSearchUiModule</text>
</g>
<!-- SpatialSearchUiComponent&#45;&gt;SpatialSearchUiModule -->
<g id="edge1" class="edge">
<title>SpatialSearchUiComponent&#45;&gt;SpatialSearchUiModule</title>
<path fill="none" stroke="black" d="M110,-85.08C110,-106.12 110,-137.8 110,-137.8 110,-137.8 392.64,-137.8 392.64,-137.8"/>
<polygon fill="black" stroke="black" points="392.64,-141.3 402.64,-137.8 392.64,-134.3 392.64,-141.3"/>
</g>
<!-- SpatialSearchUiComponent  -->
<g id="node6" class="node">
<title>SpatialSearchUiComponent </title>
<polygon fill="#fb8072" stroke="black" points="565.8,-214.8 390.2,-214.8 390.2,-178.8 565.8,-178.8 565.8,-214.8"/>
<text text-anchor="middle" x="478" y="-192.6" font-family="Times,serif" font-size="14.00">SpatialSearchUiComponent </text>
</g>
<!-- SpatialSearchUiModule&#45;&gt;SpatialSearchUiComponent  -->
<g id="edge6" class="edge">
<title>SpatialSearchUiModule&#45;&gt;SpatialSearchUiComponent </title>
<path fill="none" stroke="black" stroke-dasharray="5,2" d="M478,-149.91C478,-149.91 478,-168.79 478,-168.79"/>
<polygon fill="black" stroke="black" points="474.5,-168.79 478,-178.79 481.5,-168.79 474.5,-168.79"/>
</g>
<!-- SpatialSearchKeyboardUIBehaviorModule -->
<g id="node3" class="node">
<title>SpatialSearchKeyboardUIBehaviorModule</title>
<polygon fill="#8dd3c7" stroke="black" points="841.8,-84.8 838.8,-88.8 817.8,-88.8 814.8,-84.8 584.2,-84.8 584.2,-48.8 841.8,-48.8 841.8,-84.8"/>
<text text-anchor="middle" x="713" y="-62.6" font-family="Times,serif" font-size="14.00">SpatialSearchKeyboardUIBehaviorModule</text>
</g>
<!-- SpatialSearchKeyboardUIBehaviorModule&#45;&gt;SpatialSearchUiModule -->
<g id="edge2" class="edge">
<title>SpatialSearchKeyboardUIBehaviorModule&#45;&gt;SpatialSearchUiModule</title>
<path fill="none" stroke="black" d="M713,-84.91C713,-104.14 713,-131.8 713,-131.8 713,-131.8 563.33,-131.8 563.33,-131.8"/>
<polygon fill="black" stroke="black" points="563.33,-128.3 553.33,-131.8 563.33,-135.3 563.33,-128.3"/>
</g>
<!-- TermOccurrenceListModule -->
<g id="node4" class="node">
<title>TermOccurrenceListModule</title>
<polygon fill="#8dd3c7" stroke="black" points="566.15,-84.8 563.15,-88.8 542.15,-88.8 539.15,-84.8 389.85,-84.8 389.85,-48.8 566.15,-48.8 566.15,-84.8"/>
<text text-anchor="middle" x="478" y="-62.6" font-family="Times,serif" font-size="14.00">TermOccurrenceListModule</text>
</g>
<!-- TermOccurrenceListModule&#45;&gt;SpatialSearchUiModule -->
<g id="edge3" class="edge">
<title>TermOccurrenceListModule&#45;&gt;SpatialSearchUiModule</title>
<path fill="none" stroke="black" d="M503.09,-84.91C503.09,-84.91 503.09,-103.79 503.09,-103.79"/>
<polygon fill="black" stroke="black" points="499.59,-103.79 503.09,-113.79 506.59,-103.79 499.59,-103.79"/>
</g>
<!-- TermOccurrenceListModule&#45;&gt;SpatialSearchUiModule -->
<g id="edge4" class="edge">
<title>TermOccurrenceListModule&#45;&gt;SpatialSearchUiModule</title>
<path fill="none" stroke="black" d="M452.91,-84.91C452.91,-84.91 452.91,-103.79 452.91,-103.79"/>
<polygon fill="black" stroke="black" points="449.41,-103.79 452.91,-113.79 456.41,-103.79 449.41,-103.79"/>
</g>
<!-- TissueBlockListModule -->
<g id="node5" class="node">
<title>TissueBlockListModule</title>
<polygon fill="#8dd3c7" stroke="black" points="371.82,-84.8 368.82,-88.8 347.82,-88.8 344.82,-84.8 220.18,-84.8 220.18,-48.8 371.82,-48.8 371.82,-84.8"/>
<text text-anchor="middle" x="296" y="-62.6" font-family="Times,serif" font-size="14.00">TissueBlockListModule</text>
</g>
<!-- TissueBlockListModule&#45;&gt;SpatialSearchUiModule -->
<g id="edge5" class="edge">
<title>TissueBlockListModule&#45;&gt;SpatialSearchUiModule</title>
<path fill="none" stroke="black" d="M296,-84.82C296,-102.17 296,-125.8 296,-125.8 296,-125.8 392.92,-125.8 392.92,-125.8"/>
<polygon fill="black" stroke="black" points="392.92,-129.3 402.92,-125.8 392.92,-122.3 392.92,-129.3"/>
</g>
</g>
</svg>
