<?xml version="1.0" encoding="UTF-8" standalone="no"?>
<!DOCTYPE svg PUBLIC "-//W3C//DTD SVG 1.1//EN"
 "http://www.w3.org/Graphics/SVG/1.1/DTD/svg11.dtd">
<!-- Generated by graphviz version 2.47.3 (20210619.1520)
 -->
<!-- Title: dependencies Pages: 1 -->
<svg width="680pt" height="247pt"
 viewBox="0.00 0.00 680.00 246.80" xmlns="http://www.w3.org/2000/svg" xmlns:xlink="http://www.w3.org/1999/xlink">
<g id="graph0" class="graph" transform="scale(1 1) rotate(0) translate(4 242.8)">
<title>dependencies</title>
<polygon fill="white" stroke="transparent" points="-4,4 -4,-242.8 676,-242.8 676,4 -4,4"/>
<text text-anchor="middle" x="336" y="-8.2" font-family="sans-serif" font-size="14.00">dependencies</text>
<g id="clust1" class="cluster">
<title>cluster_SpatialSearchUiModule</title>
<polygon fill="none" stroke="black" stroke-dasharray="1,5" points="8,-32.8 8,-230.8 664,-230.8 664,-32.8 8,-32.8"/>
</g>
<g id="clust2" class="cluster">
<title>cluster_SpatialSearchUiModule_declarations</title>
<polygon fill="none" stroke="black" points="468,-40.8 468,-92.8 656,-92.8 656,-40.8 468,-40.8"/>
</g>
<g id="clust5" class="cluster">
<title>cluster_SpatialSearchUiModule_exports</title>
<polygon fill="none" stroke="black" points="227,-170.8 227,-222.8 419,-222.8 419,-170.8 227,-170.8"/>
</g>
<g id="clust4" class="cluster">
<title>cluster_SpatialSearchUiModule_imports</title>
<polygon fill="none" stroke="black" points="16,-40.8 16,-92.8 460,-92.8 460,-40.8 16,-40.8"/>
</g>
<!-- SpatialSearchUiComponent -->
<g id="node1" class="node">
<title>SpatialSearchUiComponent</title>
<polygon fill="#ffffb3" stroke="black" points="648.3,-84.8 475.7,-84.8 475.7,-48.8 648.3,-48.8 648.3,-84.8"/>
<text text-anchor="middle" x="562" y="-62.6" font-family="Times,serif" font-size="14.00">SpatialSearchUiComponent</text>
</g>
<!-- SpatialSearchUiModule -->
<g id="node2" class="node">
<title>SpatialSearchUiModule</title>
<polygon fill="#8dd3c7" stroke="black" points="398.02,-149.8 395.02,-153.8 374.02,-153.8 371.02,-149.8 247.98,-149.8 247.98,-113.8 398.02,-113.8 398.02,-149.8"/>
<text text-anchor="middle" x="323" y="-127.6" font-family="Times,serif" font-size="14.00">SpatialSearchUiModule</text>
</g>
<!-- SpatialSearchUiComponent&#45;&gt;SpatialSearchUiModule -->
<g id="edge1" class="edge">
<title>SpatialSearchUiComponent&#45;&gt;SpatialSearchUiModule</title>
<path fill="none" stroke="black" d="M562,-84.91C562,-104.14 562,-131.8 562,-131.8 562,-131.8 408.29,-131.8 408.29,-131.8"/>
<polygon fill="black" stroke="black" points="408.29,-128.3 398.29,-131.8 408.29,-135.3 408.29,-128.3"/>
</g>
<!-- SpatialSearchUiComponent  -->
<g id="node5" class="node">
<title>SpatialSearchUiComponent </title>
<polygon fill="#fb8072" stroke="black" points="410.8,-214.8 235.2,-214.8 235.2,-178.8 410.8,-178.8 410.8,-214.8"/>
<text text-anchor="middle" x="323" y="-192.6" font-family="Times,serif" font-size="14.00">SpatialSearchUiComponent </text>
</g>
<!-- SpatialSearchUiModule&#45;&gt;SpatialSearchUiComponent  -->
<g id="edge4" class="edge">
<title>SpatialSearchUiModule&#45;&gt;SpatialSearchUiComponent </title>
<path fill="none" stroke="black" stroke-dasharray="5,2" d="M323,-149.91C323,-149.91 323,-168.79 323,-168.79"/>
<polygon fill="black" stroke="black" points="319.5,-168.79 323,-178.79 326.5,-168.79 319.5,-168.79"/>
</g>
<!-- SpatialSearchKeyboardUIBehaviorModule -->
<g id="node3" class="node">
<title>SpatialSearchKeyboardUIBehaviorModule</title>
<polygon fill="#8dd3c7" stroke="black" points="451.8,-84.8 448.8,-88.8 427.8,-88.8 424.8,-84.8 194.2,-84.8 194.2,-48.8 451.8,-48.8 451.8,-84.8"/>
<text text-anchor="middle" x="323" y="-62.6" font-family="Times,serif" font-size="14.00">SpatialSearchKeyboardUIBehaviorModule</text>
</g>
<!-- SpatialSearchKeyboardUIBehaviorModule&#45;&gt;SpatialSearchUiModule -->
<g id="edge2" class="edge">
<title>SpatialSearchKeyboardUIBehaviorModule&#45;&gt;SpatialSearchUiModule</title>
<path fill="none" stroke="black" d="M323,-84.91C323,-84.91 323,-103.79 323,-103.79"/>
<polygon fill="black" stroke="black" points="319.5,-103.79 323,-113.79 326.5,-103.79 319.5,-103.79"/>
</g>
<!-- TissueBlockListModule -->
<g id="node4" class="node">
<title>TissueBlockListModule</title>
<polygon fill="#8dd3c7" stroke="black" points="175.82,-84.8 172.82,-88.8 151.82,-88.8 148.82,-84.8 24.18,-84.8 24.18,-48.8 175.82,-48.8 175.82,-84.8"/>
<text text-anchor="middle" x="100" y="-62.6" font-family="Times,serif" font-size="14.00">TissueBlockListModule</text>
</g>
<!-- TissueBlockListModule&#45;&gt;SpatialSearchUiModule -->
<g id="edge3" class="edge">
<title>TissueBlockListModule&#45;&gt;SpatialSearchUiModule</title>
<path fill="none" stroke="black" d="M100,-84.91C100,-104.14 100,-131.8 100,-131.8 100,-131.8 237.81,-131.8 237.81,-131.8"/>
<polygon fill="black" stroke="black" points="237.81,-135.3 247.81,-131.8 237.81,-128.3 237.81,-135.3"/>
</g>
</g>
</svg>
