<?xml version="1.0" encoding="UTF-8" standalone="no"?>
<!DOCTYPE svg PUBLIC "-//W3C//DTD SVG 1.1//EN"
 "http://www.w3.org/Graphics/SVG/1.1/DTD/svg11.dtd">
<!-- Generated by graphviz version 2.47.0 (20210316.0004)
 -->
<!-- Title: dependencies Pages: 1 -->
<svg width="874pt" height="284pt"
 viewBox="0.00 0.00 874.00 284.00" xmlns="http://www.w3.org/2000/svg" xmlns:xlink="http://www.w3.org/1999/xlink">
<g id="graph0" class="graph" transform="scale(1 1) rotate(0) translate(4 280)">
<title>dependencies</title>
<polygon fill="white" stroke="transparent" points="-4,4 -4,-280 870,-280 870,4 -4,4"/>
<text text-anchor="start" x="412.01" y="-42.4" font-family="Times-12" font-weight="bold" font-size="14.00">Legend</text>
<polygon fill="#ffffb3" stroke="transparent" points="199,-10 199,-30 219,-30 219,-10 199,-10"/>
<text text-anchor="start" x="222.63" y="-15.4" font-family="Times-12" font-size="14.00"> &#160;Declarations</text>
<polygon fill="#8dd3c7" stroke="transparent" points="312,-10 312,-30 332,-30 332,-10 312,-10"/>
<text text-anchor="start" x="335.73" y="-15.4" font-family="Times-12" font-size="14.00"> &#160;Module</text>
<polygon fill="#80b1d3" stroke="transparent" points="398,-10 398,-30 418,-30 418,-10 398,-10"/>
<text text-anchor="start" x="421.78" y="-15.4" font-family="Times-12" font-size="14.00"> &#160;Bootstrap</text>
<polygon fill="#fdb462" stroke="transparent" points="495,-10 495,-30 515,-30 515,-10 495,-10"/>
<text text-anchor="start" x="518.67" y="-15.4" font-family="Times-12" font-size="14.00"> &#160;Providers</text>
<polygon fill="#fb8072" stroke="transparent" points="591,-10 591,-30 611,-30 611,-10 591,-10"/>
<text text-anchor="start" x="614.73" y="-15.4" font-family="Times-12" font-size="14.00"> &#160;Exports</text>
<g id="clust1" class="cluster">
<title>cluster_SpatialSearchUiModule</title>
<polygon fill="none" stroke="black" stroke-dasharray="1,5" points="8,-70 8,-268 858,-268 858,-70 8,-70"/>
</g>
<g id="clust5" class="cluster">
<title>cluster_SpatialSearchUiModule_exports</title>
<polygon fill="none" stroke="black" points="382,-208 382,-260 574,-260 574,-208 382,-208"/>
</g>
<g id="clust4" class="cluster">
<title>cluster_SpatialSearchUiModule_imports</title>
<polygon fill="none" stroke="black" points="212,-78 212,-130 850,-130 850,-78 212,-78"/>
</g>
<g id="clust2" class="cluster">
<title>cluster_SpatialSearchUiModule_declarations</title>
<polygon fill="none" stroke="black" points="16,-78 16,-130 204,-130 204,-78 16,-78"/>
</g>
<!-- SpatialSearchUiComponent -->
<g id="node1" class="node">
<title>SpatialSearchUiComponent</title>
<polygon fill="#ffffb3" stroke="black" points="196.3,-122 23.7,-122 23.7,-86 196.3,-86 196.3,-122"/>
<text text-anchor="middle" x="110" y="-99.8" font-family="Times,serif" font-size="14.00">SpatialSearchUiComponent</text>
</g>
<!-- SpatialSearchUiModule -->
<g id="node2" class="node">
<title>SpatialSearchUiModule</title>
<polygon fill="#8dd3c7" stroke="black" points="553.02,-187 550.02,-191 529.02,-191 526.02,-187 402.98,-187 402.98,-151 553.02,-151 553.02,-187"/>
<text text-anchor="middle" x="478" y="-164.8" font-family="Times,serif" font-size="14.00">SpatialSearchUiModule</text>
</g>
<!-- SpatialSearchUiComponent&#45;&gt;SpatialSearchUiModule -->
<g id="edge1" class="edge">
<title>SpatialSearchUiComponent&#45;&gt;SpatialSearchUiModule</title>
<path fill="none" stroke="black" d="M110,-122.28C110,-143.32 110,-175 110,-175 110,-175 392.64,-175 392.64,-175"/>
<polygon fill="black" stroke="black" points="392.64,-178.5 402.64,-175 392.64,-171.5 392.64,-178.5"/>
</g>
<!-- SpatialSearchUiComponent  -->
<g id="node6" class="node">
<title>SpatialSearchUiComponent </title>
<polygon fill="#fb8072" stroke="black" points="565.8,-252 390.2,-252 390.2,-216 565.8,-216 565.8,-252"/>
<text text-anchor="middle" x="478" y="-229.8" font-family="Times,serif" font-size="14.00">SpatialSearchUiComponent </text>
</g>
<!-- SpatialSearchUiModule&#45;&gt;SpatialSearchUiComponent  -->
<g id="edge6" class="edge">
<title>SpatialSearchUiModule&#45;&gt;SpatialSearchUiComponent </title>
<path fill="none" stroke="black" stroke-dasharray="5,2" d="M478,-187.11C478,-187.11 478,-205.99 478,-205.99"/>
<polygon fill="black" stroke="black" points="474.5,-205.99 478,-215.99 481.5,-205.99 474.5,-205.99"/>
</g>
<!-- SpatialSearchKeyboardUIBehaviorModule -->
<g id="node3" class="node">
<title>SpatialSearchKeyboardUIBehaviorModule</title>
<polygon fill="#8dd3c7" stroke="black" points="841.8,-122 838.8,-126 817.8,-126 814.8,-122 584.2,-122 584.2,-86 841.8,-86 841.8,-122"/>
<text text-anchor="middle" x="713" y="-99.8" font-family="Times,serif" font-size="14.00">SpatialSearchKeyboardUIBehaviorModule</text>
</g>
<!-- SpatialSearchKeyboardUIBehaviorModule&#45;&gt;SpatialSearchUiModule -->
<g id="edge2" class="edge">
<title>SpatialSearchKeyboardUIBehaviorModule&#45;&gt;SpatialSearchUiModule</title>
<path fill="none" stroke="black" d="M713,-122.11C713,-141.34 713,-169 713,-169 713,-169 563.33,-169 563.33,-169"/>
<polygon fill="black" stroke="black" points="563.33,-165.5 553.33,-169 563.33,-172.5 563.33,-165.5"/>
</g>
<!-- TermOccurrenceListModule -->
<g id="node4" class="node">
<title>TermOccurrenceListModule</title>
<polygon fill="#8dd3c7" stroke="black" points="566.15,-122 563.15,-126 542.15,-126 539.15,-122 389.85,-122 389.85,-86 566.15,-86 566.15,-122"/>
<text text-anchor="middle" x="478" y="-99.8" font-family="Times,serif" font-size="14.00">TermOccurrenceListModule</text>
</g>
<!-- TermOccurrenceListModule&#45;&gt;SpatialSearchUiModule -->
<g id="edge3" class="edge">
<title>TermOccurrenceListModule&#45;&gt;SpatialSearchUiModule</title>
<path fill="none" stroke="black" d="M503.09,-122.11C503.09,-122.11 503.09,-140.99 503.09,-140.99"/>
<polygon fill="black" stroke="black" points="499.59,-140.99 503.09,-150.99 506.59,-140.99 499.59,-140.99"/>
</g>
<!-- TermOccurrenceListModule&#45;&gt;SpatialSearchUiModule -->
<g id="edge4" class="edge">
<title>TermOccurrenceListModule&#45;&gt;SpatialSearchUiModule</title>
<path fill="none" stroke="black" d="M452.91,-122.11C452.91,-122.11 452.91,-140.99 452.91,-140.99"/>
<polygon fill="black" stroke="black" points="449.41,-140.99 452.91,-150.99 456.41,-140.99 449.41,-140.99"/>
</g>
<!-- TissueBlockListModule -->
<g id="node5" class="node">
<title>TissueBlockListModule</title>
<polygon fill="#8dd3c7" stroke="black" points="371.82,-122 368.82,-126 347.82,-126 344.82,-122 220.18,-122 220.18,-86 371.82,-86 371.82,-122"/>
<text text-anchor="middle" x="296" y="-99.8" font-family="Times,serif" font-size="14.00">TissueBlockListModule</text>
</g>
<!-- TissueBlockListModule&#45;&gt;SpatialSearchUiModule -->
<g id="edge5" class="edge">
<title>TissueBlockListModule&#45;&gt;SpatialSearchUiModule</title>
<path fill="none" stroke="black" d="M296,-122.02C296,-139.37 296,-163 296,-163 296,-163 392.92,-163 392.92,-163"/>
<polygon fill="black" stroke="black" points="392.92,-166.5 402.92,-163 392.92,-159.5 392.92,-166.5"/>
</g>
</g>
</svg>
