<?xml version="1.0" encoding="UTF-8" standalone="no"?>
<!DOCTYPE svg PUBLIC "-//W3C//DTD SVG 1.1//EN"
 "http://www.w3.org/Graphics/SVG/1.1/DTD/svg11.dtd">
<!-- Generated by graphviz version 2.47.0 (20210316.0004)
 -->
<!-- Title: dependencies Pages: 1 -->
<svg width="598pt" height="284pt"
 viewBox="0.00 0.00 598.00 284.00" xmlns="http://www.w3.org/2000/svg" xmlns:xlink="http://www.w3.org/1999/xlink">
<g id="graph0" class="graph" transform="scale(1 1) rotate(0) translate(4 280)">
<title>dependencies</title>
<polygon fill="white" stroke="transparent" points="-4,4 -4,-280 594,-280 594,4 -4,4"/>
<text text-anchor="start" x="274.01" y="-42.4" font-family="Times-12" font-weight="bold" font-size="14.00">Legend</text>
<polygon fill="#ffffb3" stroke="transparent" points="61,-10 61,-30 81,-30 81,-10 61,-10"/>
<text text-anchor="start" x="84.63" y="-15.4" font-family="Times-12" font-size="14.00"> &#160;Declarations</text>
<polygon fill="#8dd3c7" stroke="transparent" points="174,-10 174,-30 194,-30 194,-10 174,-10"/>
<text text-anchor="start" x="197.73" y="-15.4" font-family="Times-12" font-size="14.00"> &#160;Module</text>
<polygon fill="#80b1d3" stroke="transparent" points="260,-10 260,-30 280,-30 280,-10 260,-10"/>
<text text-anchor="start" x="283.78" y="-15.4" font-family="Times-12" font-size="14.00"> &#160;Bootstrap</text>
<polygon fill="#fdb462" stroke="transparent" points="357,-10 357,-30 377,-30 377,-10 357,-10"/>
<text text-anchor="start" x="380.67" y="-15.4" font-family="Times-12" font-size="14.00"> &#160;Providers</text>
<polygon fill="#fb8072" stroke="transparent" points="453,-10 453,-30 473,-30 473,-10 453,-10"/>
<text text-anchor="start" x="476.73" y="-15.4" font-family="Times-12" font-size="14.00"> &#160;Exports</text>
<g id="clust1" class="cluster">
<title>cluster_SpatialSearchUiModule</title>
<polygon fill="none" stroke="black" stroke-dasharray="1,5" points="8,-70 8,-268 582,-268 582,-70 8,-70"/>
</g>
<g id="clust4" class="cluster">
<title>cluster_SpatialSearchUiModule_imports</title>
<polygon fill="none" stroke="black" points="212,-78 212,-130 574,-130 574,-78 212,-78"/>
</g>
<g id="clust2" class="cluster">
<title>cluster_SpatialSearchUiModule_declarations</title>
<polygon fill="none" stroke="black" points="16,-78 16,-130 204,-130 204,-78 16,-78"/>
</g>
<g id="clust5" class="cluster">
<title>cluster_SpatialSearchUiModule_exports</title>
<polygon fill="none" stroke="black" points="291,-208 291,-260 483,-260 483,-208 291,-208"/>
</g>
<!-- SpatialSearchUiComponent -->
<g id="node1" class="node">
<title>SpatialSearchUiComponent</title>
<polygon fill="#ffffb3" stroke="black" points="196.3,-122 23.7,-122 23.7,-86 196.3,-86 196.3,-122"/>
<text text-anchor="middle" x="110" y="-99.8" font-family="Times,serif" font-size="14.00">SpatialSearchUiComponent</text>
</g>
<!-- SpatialSearchUiModule -->
<g id="node2" class="node">
<title>SpatialSearchUiModule</title>
<polygon fill="#8dd3c7" stroke="black" points="462.02,-187 459.02,-191 438.02,-191 435.02,-187 311.98,-187 311.98,-151 462.02,-151 462.02,-187"/>
<text text-anchor="middle" x="387" y="-164.8" font-family="Times,serif" font-size="14.00">SpatialSearchUiModule</text>
</g>
<!-- SpatialSearchUiComponent&#45;&gt;SpatialSearchUiModule -->
<g id="edge1" class="edge">
<title>SpatialSearchUiComponent&#45;&gt;SpatialSearchUiModule</title>
<path fill="none" stroke="black" d="M110,-122.11C110,-141.34 110,-169 110,-169 110,-169 301.67,-169 301.67,-169"/>
<polygon fill="black" stroke="black" points="301.67,-172.5 311.67,-169 301.67,-165.5 301.67,-172.5"/>
</g>
<!-- SpatialSearchUiComponent  -->
<g id="node5" class="node">
<title>SpatialSearchUiComponent </title>
<polygon fill="#fb8072" stroke="black" points="474.8,-252 299.2,-252 299.2,-216 474.8,-216 474.8,-252"/>
<text text-anchor="middle" x="387" y="-229.8" font-family="Times,serif" font-size="14.00">SpatialSearchUiComponent </text>
</g>
<!-- SpatialSearchUiModule&#45;&gt;SpatialSearchUiComponent  -->
<g id="edge5" class="edge">
<title>SpatialSearchUiModule&#45;&gt;SpatialSearchUiComponent </title>
<path fill="none" stroke="black" stroke-dasharray="5,2" d="M387,-187.11C387,-187.11 387,-205.99 387,-205.99"/>
<polygon fill="black" stroke="black" points="383.5,-205.99 387,-215.99 390.5,-205.99 383.5,-205.99"/>
</g>
<!-- TermOccurrenceListModule -->
<g id="node3" class="node">
<title>TermOccurrenceListModule</title>
<polygon fill="#8dd3c7" stroke="black" points="566.15,-122 563.15,-126 542.15,-126 539.15,-122 389.85,-122 389.85,-86 566.15,-86 566.15,-122"/>
<text text-anchor="middle" x="478" y="-99.8" font-family="Times,serif" font-size="14.00">TermOccurrenceListModule</text>
</g>
<!-- TermOccurrenceListModule&#45;&gt;SpatialSearchUiModule -->
<g id="edge2" class="edge">
<title>TermOccurrenceListModule&#45;&gt;SpatialSearchUiModule</title>
<path fill="none" stroke="black" d="M414.04,-122.11C414.04,-122.11 414.04,-140.99 414.04,-140.99"/>
<polygon fill="black" stroke="black" points="410.54,-140.99 414.04,-150.99 417.54,-140.99 410.54,-140.99"/>
</g>
<!-- TermOccurrenceListModule&#45;&gt;SpatialSearchUiModule -->
<g id="edge3" class="edge">
<title>TermOccurrenceListModule&#45;&gt;SpatialSearchUiModule</title>
<path fill="none" stroke="black" d="M438.15,-122.11C438.15,-122.11 438.15,-140.99 438.15,-140.99"/>
<polygon fill="black" stroke="black" points="434.65,-140.99 438.15,-150.99 441.65,-140.99 434.65,-140.99"/>
</g>
<!-- TissueBlockListModule -->
<g id="node4" class="node">
<title>TissueBlockListModule</title>
<polygon fill="#8dd3c7" stroke="black" points="371.82,-122 368.82,-126 347.82,-126 344.82,-122 220.18,-122 220.18,-86 371.82,-86 371.82,-122"/>
<text text-anchor="middle" x="296" y="-99.8" font-family="Times,serif" font-size="14.00">TissueBlockListModule</text>
</g>
<!-- TissueBlockListModule&#45;&gt;SpatialSearchUiModule -->
<g id="edge4" class="edge">
<title>TissueBlockListModule&#45;&gt;SpatialSearchUiModule</title>
<path fill="none" stroke="black" d="M341.7,-122.11C341.7,-122.11 341.7,-140.99 341.7,-140.99"/>
<polygon fill="black" stroke="black" points="338.2,-140.99 341.7,-150.99 345.2,-140.99 338.2,-140.99"/>
</g>
</g>
</svg>
