<?xml version="1.0" encoding="UTF-8" standalone="no"?>
<!DOCTYPE svg PUBLIC "-//W3C//DTD SVG 1.1//EN"
 "http://www.w3.org/Graphics/SVG/1.1/DTD/svg11.dtd">
<!-- Generated by graphviz version 2.47.0 (20210316.0004)
 -->
<!-- Title: dependencies Pages: 1 -->
<svg width="504pt" height="284pt"
 viewBox="0.00 0.00 504.00 284.00" xmlns="http://www.w3.org/2000/svg" xmlns:xlink="http://www.w3.org/1999/xlink">
<g id="graph0" class="graph" transform="scale(1 1) rotate(0) translate(4 280)">
<title>dependencies</title>
<polygon fill="white" stroke="transparent" points="-4,4 -4,-280 500,-280 500,4 -4,4"/>
<text text-anchor="start" x="227.01" y="-42.4" font-family="Times-12" font-weight="bold" font-size="14.00">Legend</text>
<polygon fill="#ffffb3" stroke="transparent" points="14,-10 14,-30 34,-30 34,-10 14,-10"/>
<text text-anchor="start" x="37.63" y="-15.4" font-family="Times-12" font-size="14.00"> &#160;Declarations</text>
<polygon fill="#8dd3c7" stroke="transparent" points="127,-10 127,-30 147,-30 147,-10 127,-10"/>
<text text-anchor="start" x="150.73" y="-15.4" font-family="Times-12" font-size="14.00"> &#160;Module</text>
<polygon fill="#80b1d3" stroke="transparent" points="213,-10 213,-30 233,-30 233,-10 213,-10"/>
<text text-anchor="start" x="236.78" y="-15.4" font-family="Times-12" font-size="14.00"> &#160;Bootstrap</text>
<polygon fill="#fdb462" stroke="transparent" points="310,-10 310,-30 330,-30 330,-10 310,-10"/>
<text text-anchor="start" x="333.67" y="-15.4" font-family="Times-12" font-size="14.00"> &#160;Providers</text>
<polygon fill="#fb8072" stroke="transparent" points="406,-10 406,-30 426,-30 426,-10 406,-10"/>
<text text-anchor="start" x="429.73" y="-15.4" font-family="Times-12" font-size="14.00"> &#160;Exports</text>
<g id="clust1" class="cluster">
<title>cluster_SpatialSearchConfigBehaviorModule</title>
<polygon fill="none" stroke="black" stroke-dasharray="1,5" points="8,-70 8,-268 488,-268 488,-70 8,-70"/>
</g>
<g id="clust2" class="cluster">
<title>cluster_SpatialSearchConfigBehaviorModule_declarations</title>
<polygon fill="none" stroke="black" points="216,-78 216,-130 480,-130 480,-78 216,-78"/>
</g>
<g id="clust5" class="cluster">
<title>cluster_SpatialSearchConfigBehaviorModule_exports</title>
<polygon fill="none" stroke="black" points="114,-208 114,-260 382,-260 382,-208 114,-208"/>
</g>
<g id="clust4" class="cluster">
<title>cluster_SpatialSearchConfigBehaviorModule_imports</title>
<polygon fill="none" stroke="black" points="16,-78 16,-130 208,-130 208,-78 16,-78"/>
</g>
<!-- SpatialSearchConfigBehaviorComponent -->
<g id="node1" class="node">
<title>SpatialSearchConfigBehaviorComponent</title>
<polygon fill="#ffffb3" stroke="black" points="472.01,-122 223.99,-122 223.99,-86 472.01,-86 472.01,-122"/>
<text text-anchor="middle" x="348" y="-99.8" font-family="Times,serif" font-size="14.00">SpatialSearchConfigBehaviorComponent</text>
</g>
<!-- SpatialSearchConfigBehaviorModule -->
<g id="node2" class="node">
<title>SpatialSearchConfigBehaviorModule</title>
<polygon fill="#8dd3c7" stroke="black" points="361.23,-187 358.23,-191 337.23,-191 334.23,-187 134.77,-187 134.77,-151 361.23,-151 361.23,-187"/>
<text text-anchor="middle" x="248" y="-164.8" font-family="Times,serif" font-size="14.00">SpatialSearchConfigBehaviorModule</text>
</g>
<!-- SpatialSearchConfigBehaviorComponent&#45;&gt;SpatialSearchConfigBehaviorModule -->
<g id="edge1" class="edge">
<title>SpatialSearchConfigBehaviorComponent&#45;&gt;SpatialSearchConfigBehaviorModule</title>
<path fill="none" stroke="black" d="M292.55,-122.11C292.55,-122.11 292.55,-140.99 292.55,-140.99"/>
<polygon fill="black" stroke="black" points="289.05,-140.99 292.55,-150.99 296.05,-140.99 289.05,-140.99"/>
</g>
<!-- SpatialSearchConfigBehaviorComponent  -->
<g id="node4" class="node">
<title>SpatialSearchConfigBehaviorComponent </title>
<polygon fill="#fb8072" stroke="black" points="374.01,-252 121.99,-252 121.99,-216 374.01,-216 374.01,-252"/>
<text text-anchor="middle" x="248" y="-229.8" font-family="Times,serif" font-size="14.00">SpatialSearchConfigBehaviorComponent </text>
</g>
<!-- SpatialSearchConfigBehaviorModule&#45;&gt;SpatialSearchConfigBehaviorComponent  -->
<g id="edge3" class="edge">
<title>SpatialSearchConfigBehaviorModule&#45;&gt;SpatialSearchConfigBehaviorComponent </title>
<path fill="none" stroke="black" stroke-dasharray="5,2" d="M248,-187.11C248,-187.11 248,-205.99 248,-205.99"/>
<polygon fill="black" stroke="black" points="244.5,-205.99 248,-215.99 251.5,-205.99 244.5,-205.99"/>
</g>
<!-- SpatialSearchConfigModule -->
<g id="node3" class="node">
<title>SpatialSearchConfigModule</title>
<polygon fill="#8dd3c7" stroke="black" points="199.91,-122 196.91,-126 175.91,-126 172.91,-122 24.09,-122 24.09,-86 199.91,-86 199.91,-122"/>
<text text-anchor="middle" x="112" y="-99.8" font-family="Times,serif" font-size="14.00">SpatialSearchConfigModule</text>
</g>
<!-- SpatialSearchConfigModule&#45;&gt;SpatialSearchConfigBehaviorModule -->
<g id="edge2" class="edge">
<title>SpatialSearchConfigModule&#45;&gt;SpatialSearchConfigBehaviorModule</title>
<path fill="none" stroke="black" d="M167.17,-122.11C167.17,-122.11 167.17,-140.99 167.17,-140.99"/>
<polygon fill="black" stroke="black" points="163.67,-140.99 167.17,-150.99 170.67,-140.99 163.67,-140.99"/>
</g>
</g>
</svg>
