<?xml version="1.0" encoding="UTF-8" standalone="no"?>
<!DOCTYPE svg PUBLIC "-//W3C//DTD SVG 1.1//EN"
 "http://www.w3.org/Graphics/SVG/1.1/DTD/svg11.dtd">
<!-- Generated by graphviz version 2.47.3 (20210619.1520)
 -->
<!-- Title: dependencies Pages: 1 -->
<svg width="504pt" height="247pt"
 viewBox="0.00 0.00 504.00 246.80" xmlns="http://www.w3.org/2000/svg" xmlns:xlink="http://www.w3.org/1999/xlink">
<g id="graph0" class="graph" transform="scale(1 1) rotate(0) translate(4 242.8)">
<title>dependencies</title>
<polygon fill="white" stroke="transparent" points="-4,4 -4,-242.8 500,-242.8 500,4 -4,4"/>
<text text-anchor="middle" x="248" y="-8.2" font-family="sans-serif" font-size="14.00">dependencies</text>
<g id="clust1" class="cluster">
<title>cluster_SpatialSearchConfigBehaviorModule</title>
<polygon fill="none" stroke="black" stroke-dasharray="1,5" points="8,-32.8 8,-230.8 488,-230.8 488,-32.8 8,-32.8"/>
</g>
<g id="clust5" class="cluster">
<title>cluster_SpatialSearchConfigBehaviorModule_exports</title>
<polygon fill="none" stroke="black" points="114,-170.8 114,-222.8 382,-222.8 382,-170.8 114,-170.8"/>
</g>
<g id="clust2" class="cluster">
<title>cluster_SpatialSearchConfigBehaviorModule_declarations</title>
<polygon fill="none" stroke="black" points="216,-40.8 216,-92.8 480,-92.8 480,-40.8 216,-40.8"/>
</g>
<g id="clust4" class="cluster">
<title>cluster_SpatialSearchConfigBehaviorModule_imports</title>
<polygon fill="none" stroke="black" points="16,-40.8 16,-92.8 208,-92.8 208,-40.8 16,-40.8"/>
</g>
<!-- SpatialSearchConfigBehaviorComponent -->
<g id="node1" class="node">
<title>SpatialSearchConfigBehaviorComponent</title>
<polygon fill="#ffffb3" stroke="black" points="472.01,-84.8 223.99,-84.8 223.99,-48.8 472.01,-48.8 472.01,-84.8"/>
<text text-anchor="middle" x="348" y="-62.6" font-family="Times,serif" font-size="14.00">SpatialSearchConfigBehaviorComponent</text>
</g>
<!-- SpatialSearchConfigBehaviorModule -->
<g id="node2" class="node">
<title>SpatialSearchConfigBehaviorModule</title>
<polygon fill="#8dd3c7" stroke="black" points="361.23,-149.8 358.23,-153.8 337.23,-153.8 334.23,-149.8 134.77,-149.8 134.77,-113.8 361.23,-113.8 361.23,-149.8"/>
<text text-anchor="middle" x="248" y="-127.6" font-family="Times,serif" font-size="14.00">SpatialSearchConfigBehaviorModule</text>
</g>
<!-- SpatialSearchConfigBehaviorComponent&#45;&gt;SpatialSearchConfigBehaviorModule -->
<g id="edge1" class="edge">
<title>SpatialSearchConfigBehaviorComponent&#45;&gt;SpatialSearchConfigBehaviorModule</title>
<path fill="none" stroke="black" d="M292.55,-84.91C292.55,-84.91 292.55,-103.79 292.55,-103.79"/>
<polygon fill="black" stroke="black" points="289.05,-103.79 292.55,-113.79 296.05,-103.79 289.05,-103.79"/>
</g>
<!-- SpatialSearchConfigBehaviorComponent  -->
<g id="node4" class="node">
<title>SpatialSearchConfigBehaviorComponent </title>
<polygon fill="#fb8072" stroke="black" points="374.01,-214.8 121.99,-214.8 121.99,-178.8 374.01,-178.8 374.01,-214.8"/>
<text text-anchor="middle" x="248" y="-192.6" font-family="Times,serif" font-size="14.00">SpatialSearchConfigBehaviorComponent </text>
</g>
<!-- SpatialSearchConfigBehaviorModule&#45;&gt;SpatialSearchConfigBehaviorComponent  -->
<g id="edge3" class="edge">
<title>SpatialSearchConfigBehaviorModule&#45;&gt;SpatialSearchConfigBehaviorComponent </title>
<path fill="none" stroke="black" stroke-dasharray="5,2" d="M248,-149.91C248,-149.91 248,-168.79 248,-168.79"/>
<polygon fill="black" stroke="black" points="244.5,-168.79 248,-178.79 251.5,-168.79 244.5,-168.79"/>
</g>
<!-- SpatialSearchConfigModule -->
<g id="node3" class="node">
<title>SpatialSearchConfigModule</title>
<polygon fill="#8dd3c7" stroke="black" points="199.91,-84.8 196.91,-88.8 175.91,-88.8 172.91,-84.8 24.09,-84.8 24.09,-48.8 199.91,-48.8 199.91,-84.8"/>
<text text-anchor="middle" x="112" y="-62.6" font-family="Times,serif" font-size="14.00">SpatialSearchConfigModule</text>
</g>
<!-- SpatialSearchConfigModule&#45;&gt;SpatialSearchConfigBehaviorModule -->
<g id="edge2" class="edge">
<title>SpatialSearchConfigModule&#45;&gt;SpatialSearchConfigBehaviorModule</title>
<path fill="none" stroke="black" d="M167.17,-84.91C167.17,-84.91 167.17,-103.79 167.17,-103.79"/>
<polygon fill="black" stroke="black" points="163.67,-103.79 167.17,-113.79 170.67,-103.79 163.67,-103.79"/>
</g>
</g>
</svg>
