<?xml version="1.0" encoding="UTF-8" standalone="no"?>
<!DOCTYPE svg PUBLIC "-//W3C//DTD SVG 1.1//EN"
 "http://www.w3.org/Graphics/SVG/1.1/DTD/svg11.dtd">
<!-- Generated by graphviz version 2.47.3 (20210619.1520)
 -->
<!-- Title: dependencies Pages: 1 -->
<svg width="146pt" height="174pt"
 viewBox="0.00 0.00 146.00 173.80" xmlns="http://www.w3.org/2000/svg" xmlns:xlink="http://www.w3.org/1999/xlink">
<g id="graph0" class="graph" transform="scale(1 1) rotate(0) translate(4 169.8)">
<title>dependencies</title>
<polygon fill="white" stroke="transparent" points="-4,4 -4,-169.8 142,-169.8 142,4 -4,4"/>
<text text-anchor="middle" x="69" y="-8.2" font-family="sans-serif" font-size="14.00">dependencies</text>
<g id="clust1" class="cluster">
<title>cluster_CoreModule</title>
<polygon fill="none" stroke="black" stroke-dasharray="1,5" points="8,-32.8 8,-157.8 130,-157.8 130,-32.8 8,-32.8"/>
</g>
<g id="clust3" class="cluster">
<title>cluster_CoreModule_imports</title>
<polygon fill="none" stroke="black" points="16,-40.8 16,-92.8 122,-92.8 122,-40.8 16,-40.8"/>
</g>
<!-- StoreModule -->
<g id="node1" class="node">
<title>StoreModule</title>
<polygon fill="#8dd3c7" stroke="black" points="113.6,-84.8 110.6,-88.8 89.6,-88.8 86.6,-84.8 24.4,-84.8 24.4,-48.8 113.6,-48.8 113.6,-84.8"/>
<text text-anchor="middle" x="69" y="-62.6" font-family="Times,serif" font-size="14.00">StoreModule</text>
</g>
<!-- CoreModule -->
<g id="node2" class="node">
<title>CoreModule</title>
<polygon fill="#8dd3c7" stroke="black" points="112.26,-149.8 109.26,-153.8 88.26,-153.8 85.26,-149.8 25.74,-149.8 25.74,-113.8 112.26,-113.8 112.26,-149.8"/>
<text text-anchor="middle" x="69" y="-127.6" font-family="Times,serif" font-size="14.00">CoreModule</text>
</g>
<!-- StoreModule&#45;&gt;CoreModule -->
<g id="edge1" class="edge">
<title>StoreModule&#45;&gt;CoreModule</title>
<path fill="none" stroke="black" d="M69,-84.91C69,-84.91 69,-103.79 69,-103.79"/>
<polygon fill="black" stroke="black" points="65.5,-103.79 69,-113.79 72.5,-103.79 65.5,-103.79"/>
</g>
</g>
</svg>
