<svg xmlns="http://www.w3.org/2000/svg" viewBox="0 0 30 30"><defs><style>.cls-1{fill:none;}</style></defs><g id="lung"><path d="M17.1,7.39a1.72,1.72,0,0,1,.25-.83,1.22,1.22,0,0,1,1.12-.62,1.9,1.9,0,0,1,1.14.41,5.56,5.56,0,0,1,.73.67,19.72,19.72,0,0,1,2.46,3,32.21,32.21,0,0,1,2.34,4.18,19.9,19.9,0,0,1,1.64,5.63c.46,3.32.2,5.22-.75,5.71-1.23.64-6.05.21-8.28-1.28a1.35,1.35,0,0,1-.54-.72,3.17,3.17,0,0,1-.11-.7V7.39Z"/><path d="M16,10.44a2.92,2.92,0,0,1-2-2.75V3.07H12V7.69a2.92,2.92,0,0,1-2,2.76v1.66h6Z"/></g></svg>