<svg xmlns="http://www.w3.org/2000/svg" viewBox="0 0 30 30"><defs><style>.cls-1{fill:none;}</style></defs><g id="brain"><path d="M16.3,3.47C8.52,2,2,5.81,2,11.09c0,4.84,2.47,6,5,6,0-3.25,5.59-3.71,8.19-2.73-2.42-.31-7.26-.22-7.26,3.27,0,.22,0,2.47,3.11,2.8a12.33,12.33,0,0,0,3.79-.14,1.49,1.49,0,0,0,1,1.56,5.16,5.16,0,0,0,.8.2,16.86,16.86,0,0,0,3,3.41,1.22,1.22,0,0,0,.73-.3.83.83,0,0,0,.3-.55,4.4,4.4,0,0,1-1.15-2.35c.47,0,.78,0,.78,0s4.34-.26,4-2.49c0-.06,0-.12-.05-.18a4.42,4.42,0,0,0,1.77,0c1.34-.4,1.9-1.88,2-3.82C28.16,12.42,24.07,4.94,16.3,3.47Z"/></g></svg>