<svg xmlns="http://www.w3.org/2000/svg" viewBox="0 0 30 30"><defs><style>.cls-1-pelvis{stroke:#fff;stroke-miterlimit:10;stroke-width:0.25px;fill:currentColor}.cls-2-pelvis{fill:#fff;stroke:none}</style></defs><g id="pelvis_f" data-name="pelvis f"><path d="M23.39,19.73a.72.72,0,0,0-.26-.12,5,5,0,0,1-2.34.89h0c.07.27.61,2.38-1.1,2.5s-2.46-.53-2.63-1.44l0-.18-.21.19a2.24,2.24,0,0,0-1.6.25,2.13,2.13,0,0,0,.11.79c.13.26,1.36.55,1.62.89s.25.47,1.79,1.19c2.3,1.11,2.76-.21,3.15-.46s0-1.28.28-1.88a4.17,4.17,0,0,1,.91-1.49A1.14,1.14,0,0,0,23.39,19.73Z"/><path class="cls-1-pelvis" d="M15.28,21.83V20.29c.71-.17,2.51-.57,3.27-.68,1.41-.73,3.19-2.39,3.11-3.62a7.35,7.35,0,0,0-.27-1.47l-1.14-1.94.47-4.5S22,5.74,27,6.16c2.76,0,2.33,5.66,1.74,6.55-.59,1.24-1.84.67-2.49,1.24-2.06,2.51-.78,3.38-1.72,4.38a17.35,17.35,0,0,1-1.41,1.28,8.42,8.42,0,0,1-2.76,1c-2.3.19-3.05.37-3.17,1.06a.87.87,0,0,0,.25.56"/><polygon class="cls-2-pelvis" points="9.16 20.47 9.16 20.47 9.16 20.47 9.16 20.47"/><path d="M14.67,21.79a2.25,2.25,0,0,0-1.6-.24l-.22-.19a1.23,1.23,0,0,1,0,.18c-.17.91-.81,1.57-2.64,1.44s-1.17-2.23-1.09-2.51h0a4.92,4.92,0,0,1-2.34-.89.85.85,0,0,0-.27.11,1.14,1.14,0,0,0,.26,1.15,4.47,4.47,0,0,1,.91,1.49c.28.6-.1,1.62.28,1.87s.84,1.58,3.15.47c1.53-.72,1.53-.85,1.79-1.19s1.49-.63,1.61-.89A2.28,2.28,0,0,0,14.67,21.79Z"/><path class="cls-1-pelvis" d="M14.67,21.79V20.26c-.72-.17-2.51-.57-3.28-.68C10,18.85,8.21,17.19,8.3,16a8.33,8.33,0,0,1,.26-1.47L9.7,12.55,9.23,8S8,5.71,2.94,6.13c-2.77,0-2.33,5.66-1.75,6.55.6,1.24,1.84.67,2.49,1.24,2.06,2.51.78,3.38,1.72,4.38a17,17,0,0,0,1.42,1.28,8.33,8.33,0,0,0,2.75,1c2.3.18,3,.37,3.18,1.05a1,1,0,0,1-.25.57"/><path d="M15.08,21.74a2.42,2.42,0,0,1-.53-.06l0-1.37c-.05-.13-.19-.21-.42-.27l-.14-.5c-.07-.22-.24-.29-.41-.37a1.1,1.1,0,0,1-.45-.29.21.21,0,0,1-.08-.19c0-.16.29-.33.67-.46.08,0,.35-.13.35-.34s-.14-.25-.22-.28l-.39-.08a4,4,0,0,1-.72-.14c-.2-.09-.65-.29-1.14-1.43s-.84-1.46-1.26-1.58l-.14,0a.33.33,0,0,0-.25.12c-.06.07-.14.15-.44.18H9.41a1.43,1.43,0,0,1-.83-.28,1.3,1.3,0,0,1,.3-.57c.27-.3.13-.86-.05-1.58a6.62,6.62,0,0,1-.3-2,6.52,6.52,0,0,1,.79-2.11A.61.61,0,0,1,9.67,8,.34.34,0,0,1,9.85,8l.14.12a4.37,4.37,0,0,0,1.9,1.16,33.43,33.43,0,0,1,3.83-.22,7.05,7.05,0,0,1,2.21.2.42.42,0,0,0,.2.05c.44,0,1.09-.55,1.72-1.1L20.08,8A.31.31,0,0,1,20.26,8a.58.58,0,0,1,.36.21h0a6.94,6.94,0,0,1,.78,2.1,6.93,6.93,0,0,1-.3,2c-.18.72-.32,1.28-.06,1.58a1.31,1.31,0,0,1,.31.57,1.48,1.48,0,0,1-.83.28h-.13c-.29,0-.37-.11-.43-.18a.35.35,0,0,0-.25-.12l-.15,0c-.42.12-.74.4-1.25,1.58s-.87,1.29-1.11,1.41a3.2,3.2,0,0,1-.82.18c-.26,0-.31,0-.36.08s-.19.15-.16.31.13.21.33.29c.37.13.63.3.66.46s0,.09-.07.2a1.18,1.18,0,0,1-.45.28c-.17.08-.34.15-.41.37s-.12.4-.14.5c-.26.07-.38.15-.39.26v1.4A.71.71,0,0,1,15.08,21.74Z"/><path class="cls-2-pelvis" d="M20.26,8.08a.42.42,0,0,1,.24.13,6.53,6.53,0,0,1,.77,2,6.72,6.72,0,0,1-.29,2c-.19.75-.34,1.35,0,1.69a1.26,1.26,0,0,1,.25.44,1.31,1.31,0,0,1-.68.2h-.11c-.25,0-.31-.08-.36-.14a.46.46,0,0,0-.34-.16.58.58,0,0,0-.18,0c-.46.13-.81.43-1.34,1.65-.44,1-.82,1.23-1.09,1.37a3.26,3.26,0,0,1-.73.14c-.29,0-.36,0-.43.12a.43.43,0,0,0-.2.42c0,.25.32.35.41.38a1.05,1.05,0,0,1,.58.37s0,.07,0,.09a1.17,1.17,0,0,1-.41.26.73.73,0,0,0-.48.44c0,.06-.08.27-.12.44s-.4.15-.42.37v1.3h-.17a2.35,2.35,0,0,1-.4,0l0-1.27v-.06l0-.06c-.05-.1-.19-.18-.42-.25l-.12-.44a.73.73,0,0,0-.48-.44,1.09,1.09,0,0,1-.41-.26.16.16,0,0,1-.05-.09,1.1,1.1,0,0,1,.59-.37c.29-.1.43-.25.44-.45a.46.46,0,0,0-.3-.4,3.33,3.33,0,0,0-.43-.08,3.62,3.62,0,0,1-.68-.14c-.18-.08-.6-.27-1.08-1.36s-.87-1.52-1.33-1.65a.62.62,0,0,0-.18,0,.46.46,0,0,0-.34.16c-.05.06-.11.11-.36.14H9.41a1.37,1.37,0,0,1-.68-.2A1,1,0,0,1,9,13.9c.31-.34.16-.94,0-1.69a6.7,6.7,0,0,1-.3-1.93,6.29,6.29,0,0,1,.76-2h0a.39.39,0,0,1,.26-.16.14.14,0,0,1,.1,0l.14.11a4.28,4.28,0,0,0,2,1.19H12a31.18,31.18,0,0,1,3.75-.22,6.09,6.09,0,0,1,2.15.19.55.55,0,0,0,.26.06c.48,0,1.15-.56,1.8-1.13a2.91,2.91,0,0,1,.23-.2.12.12,0,0,1,.1,0m0-.25a.41.41,0,0,0-.26.1c-.32.26-1.35,1.27-1.87,1.27a.32.32,0,0,1-.14,0A7,7,0,0,0,15.72,9a33,33,0,0,0-3.78.22h0c-.53,0-1.62-1-2-1.24a.43.43,0,0,0-.26-.1.68.68,0,0,0-.45.25,6.53,6.53,0,0,0-.81,2.17c-.09,1.44.81,3,.38,3.48a1.53,1.53,0,0,0-.35.71,1.57,1.57,0,0,0,1,.35h.14c.55-.06.47-.3.67-.3h.11c.35.1.66.33,1.17,1.51s1,1.4,1.21,1.49,1,.18,1.11.22.32.23-.13.39-1,.48-.63.86.73.29.83.61.16.57.16.57h0c.36.08.4.16.4.16l0,1.47a3,3,0,0,0,.66.09.77.77,0,0,0,.42-.09V20.31s0-.08.37-.16h0s.07-.26.16-.57.48-.23.83-.61-.19-.7-.64-.86-.17-.35-.13-.39a6.94,6.94,0,0,0,1.12-.22c.24-.13.69-.31,1.2-1.49s.82-1.41,1.17-1.51h.12c.2,0,.12.24.67.3h.14a1.6,1.6,0,0,0,1-.35,1.64,1.64,0,0,0-.35-.71c-.43-.46.46-2,.38-3.48a6.53,6.53,0,0,0-.81-2.17.68.68,0,0,0-.45-.25Z"/><path class="cls-2-pelvis" d="M9.25,8.08a6.44,6.44,0,0,0-.49,3.12c.08.55.25,1.08.39,1.66a2.23,2.23,0,0,1-.54,1.69l-.06,0A2.18,2.18,0,0,0,8.83,13a13.22,13.22,0,0,1-.6-1.64c-.3-1.11-.4-2.86,1-3.3l0,.07Z"/><path class="cls-2-pelvis" d="M20.52,7.8c1.38.44,1.32,2.21.92,3.29a3.46,3.46,0,0,0-.25,3.21l-.07,0a3.73,3.73,0,0,1-.57-1.67A9.36,9.36,0,0,1,20.92,11c.29-1.12-.19-2.11-.4-3.15Z"/></g></svg>