<?xml version="1.0" encoding="UTF-8" standalone="no"?>
<!DOCTYPE svg PUBLIC "-//W3C//DTD SVG 1.1//EN"
 "http://www.w3.org/Graphics/SVG/1.1/DTD/svg11.dtd">
<!-- Generated by graphviz version 2.47.3 (20210619.1520)
 -->
<!-- Title: dependencies Pages: 1 -->
<svg width="200pt" height="247pt"
 viewBox="0.00 0.00 200.00 246.80" xmlns="http://www.w3.org/2000/svg" xmlns:xlink="http://www.w3.org/1999/xlink">
<g id="graph0" class="graph" transform="scale(1 1) rotate(0) translate(4 242.8)">
<title>dependencies</title>
<polygon fill="white" stroke="transparent" points="-4,4 -4,-242.8 196,-242.8 196,4 -4,4"/>
<text text-anchor="middle" x="96" y="-8.2" font-family="sans-serif" font-size="14.00">dependencies</text>
<g id="clust1" class="cluster">
<title>cluster_TagSearchModule</title>
<polygon fill="none" stroke="black" stroke-dasharray="1,5" points="8,-32.8 8,-230.8 184,-230.8 184,-32.8 8,-32.8"/>
</g>
<g id="clust5" class="cluster">
<title>cluster_TagSearchModule_exports</title>
<polygon fill="none" stroke="black" points="16,-170.8 16,-222.8 176,-222.8 176,-170.8 16,-170.8"/>
</g>
<g id="clust2" class="cluster">
<title>cluster_TagSearchModule_declarations</title>
<polygon fill="none" stroke="black" points="17,-40.8 17,-92.8 175,-92.8 175,-40.8 17,-40.8"/>
</g>
<!-- TagSearchComponent -->
<g id="node1" class="node">
<title>TagSearchComponent</title>
<polygon fill="#ffffb3" stroke="black" points="166.69,-84.8 25.31,-84.8 25.31,-48.8 166.69,-48.8 166.69,-84.8"/>
<text text-anchor="middle" x="96" y="-62.6" font-family="Times,serif" font-size="14.00">TagSearchComponent</text>
</g>
<!-- TagSearchModule -->
<g id="node2" class="node">
<title>TagSearchModule</title>
<polygon fill="#8dd3c7" stroke="black" points="155.9,-149.8 152.9,-153.8 131.9,-153.8 128.9,-149.8 36.1,-149.8 36.1,-113.8 155.9,-113.8 155.9,-149.8"/>
<text text-anchor="middle" x="96" y="-127.6" font-family="Times,serif" font-size="14.00">TagSearchModule</text>
</g>
<!-- TagSearchComponent&#45;&gt;TagSearchModule -->
<g id="edge1" class="edge">
<title>TagSearchComponent&#45;&gt;TagSearchModule</title>
<path fill="none" stroke="black" d="M96,-84.91C96,-84.91 96,-103.79 96,-103.79"/>
<polygon fill="black" stroke="black" points="92.5,-103.79 96,-113.79 99.5,-103.79 92.5,-103.79"/>
</g>
<!-- TagSearchComponent  -->
<g id="node3" class="node">
<title>TagSearchComponent </title>
<polygon fill="#fb8072" stroke="black" points="168.19,-214.8 23.81,-214.8 23.81,-178.8 168.19,-178.8 168.19,-214.8"/>
<text text-anchor="middle" x="96" y="-192.6" font-family="Times,serif" font-size="14.00">TagSearchComponent </text>
</g>
<!-- TagSearchModule&#45;&gt;TagSearchComponent  -->
<g id="edge2" class="edge">
<title>TagSearchModule&#45;&gt;TagSearchComponent </title>
<path fill="none" stroke="black" stroke-dasharray="5,2" d="M96,-149.91C96,-149.91 96,-168.79 96,-168.79"/>
<polygon fill="black" stroke="black" points="92.5,-168.79 96,-178.79 99.5,-168.79 92.5,-168.79"/>
</g>
</g>
</svg>
