<?xml version="1.0" encoding="UTF-8" standalone="no"?>
<!DOCTYPE svg PUBLIC "-//W3C//DTD SVG 1.1//EN"
 "http://www.w3.org/Graphics/SVG/1.1/DTD/svg11.dtd">
<!-- Generated by graphviz version 2.47.3 (20210619.1520)
 -->
<!-- Title: dependencies Pages: 1 -->
<svg width="252pt" height="247pt"
 viewBox="0.00 0.00 252.00 246.80" xmlns="http://www.w3.org/2000/svg" xmlns:xlink="http://www.w3.org/1999/xlink">
<g id="graph0" class="graph" transform="scale(1 1) rotate(0) translate(4 242.8)">
<title>dependencies</title>
<polygon fill="white" stroke="transparent" points="-4,4 -4,-242.8 248,-242.8 248,4 -4,4"/>
<text text-anchor="middle" x="122" y="-8.2" font-family="sans-serif" font-size="14.00">dependencies</text>
<g id="clust1" class="cluster">
<title>cluster_ThumbnailCarouselModule</title>
<polygon fill="none" stroke="black" stroke-dasharray="1,5" points="8,-32.8 8,-230.8 236,-230.8 236,-32.8 8,-32.8"/>
</g>
<g id="clust5" class="cluster">
<title>cluster_ThumbnailCarouselModule_exports</title>
<polygon fill="none" stroke="black" points="16,-170.8 16,-222.8 228,-222.8 228,-170.8 16,-170.8"/>
</g>
<g id="clust2" class="cluster">
<title>cluster_ThumbnailCarouselModule_declarations</title>
<polygon fill="none" stroke="black" points="18,-40.8 18,-92.8 226,-92.8 226,-40.8 18,-40.8"/>
</g>
<!-- ThumbnailCarouselComponent -->
<g id="node1" class="node">
<title>ThumbnailCarouselComponent</title>
<polygon fill="#ffffb3" stroke="black" points="218.03,-84.8 25.97,-84.8 25.97,-48.8 218.03,-48.8 218.03,-84.8"/>
<text text-anchor="middle" x="122" y="-62.6" font-family="Times,serif" font-size="14.00">ThumbnailCarouselComponent</text>
</g>
<!-- ThumbnailCarouselModule -->
<g id="node2" class="node">
<title>ThumbnailCarouselModule</title>
<polygon fill="#8dd3c7" stroke="black" points="207.25,-149.8 204.25,-153.8 183.25,-153.8 180.25,-149.8 36.75,-149.8 36.75,-113.8 207.25,-113.8 207.25,-149.8"/>
<text text-anchor="middle" x="122" y="-127.6" font-family="Times,serif" font-size="14.00">ThumbnailCarouselModule</text>
</g>
<!-- ThumbnailCarouselComponent&#45;&gt;ThumbnailCarouselModule -->
<g id="edge1" class="edge">
<title>ThumbnailCarouselComponent&#45;&gt;ThumbnailCarouselModule</title>
<path fill="none" stroke="black" d="M122,-84.91C122,-84.91 122,-103.79 122,-103.79"/>
<polygon fill="black" stroke="black" points="118.5,-103.79 122,-113.79 125.5,-103.79 118.5,-103.79"/>
</g>
<!-- ThumbnailCarouselComponent  -->
<g id="node3" class="node">
<title>ThumbnailCarouselComponent </title>
<polygon fill="#fb8072" stroke="black" points="220.03,-214.8 23.97,-214.8 23.97,-178.8 220.03,-178.8 220.03,-214.8"/>
<text text-anchor="middle" x="122" y="-192.6" font-family="Times,serif" font-size="14.00">ThumbnailCarouselComponent </text>
</g>
<!-- ThumbnailCarouselModule&#45;&gt;ThumbnailCarouselComponent  -->
<g id="edge2" class="edge">
<title>ThumbnailCarouselModule&#45;&gt;ThumbnailCarouselComponent </title>
<path fill="none" stroke="black" stroke-dasharray="5,2" d="M122,-149.91C122,-149.91 122,-168.79 122,-168.79"/>
<polygon fill="black" stroke="black" points="118.5,-168.79 122,-178.79 125.5,-168.79 118.5,-168.79"/>
</g>
</g>
</svg>
