<svg xmlns="http://www.w3.org/2000/svg" width="64" height="64" fill="currentColor" viewBox="0 0 64 64">
  <g clip-path="url(#a)">
    <path d="M48.747 24.81a5.3 5.3 0 0 1 1.45-3.477l3.904-3.904-.96-.938-2.133-2.134-3.904 3.712a5.18 5.18 0 0 1-4.075 1.451 22.27 22.27 0 0 0-20.736 0 5.23 5.23 0 0 1-3.818-1.45l-3.905-3.862-.938.96-2.133 2.133 3.775 4.032a5.18 5.18 0 0 1 1.473 3.456 10.43 10.43 0 0 0-1.558 5.376c0 5.952 5.334 10.966 12.608 12.544a5.31 5.31 0 0 1 2.688 4.48v5.526h4.438v-5.568a5.33 5.33 0 0 1 2.752-4.48 18 18 0 0 0 2.133-.619c6.08-2.133 10.282-6.613 10.304-11.904a12.1 12.1 0 0 0-1.366-5.333"/>
  </g>
  <defs>
    <clipPath id="a">
      <path d="M0 0h64v64H0z"/>
    </clipPath>
  </defs>
</svg>
