<svg xmlns="http://www.w3.org/2000/svg" width="64" height="64" fill="currentColor" viewBox="0 0 64 64">
  <g clip-path="url(#a)">
    <path d="M50.112 33.77s-2.133-8.853-7.744-11.285c-1.643-.533-6.4.854-3.52 7.872-.704-.832-3.35-5.994-1.13-9.322a8.53 8.53 0 0 1 6.57-3.328 2.987 2.987 0 0 0 2.901-3.798c-.469-3.242-4.714-2.794-4.714-2.794s-10.987-.214-13.611 7.04c0-8.811 11.264-8.854 11.264-8.854 0-2.73-9.45-4.416-15.488.256-8.128 6.272-8.064 17.067-1.557 25.259a14.48 14.48 0 0 1-6.4-11.2c-1.067 1.365-4.267 6.4-3.328 15.573 1.344 13.867 30.805 24.96 35.648 17.942 4.842-7.019 1.109-23.36 1.109-23.36M18.56 12.245c-.725-1.429-6.4-1.322-6.4.32v12.032a14.9 14.9 0 0 1 4.096-4.842c.084-2.664.88-5.257 2.304-7.51"/>
  </g>
  <defs>
    <clipPath id="a">
      <path d="M0 0h64v64H0z"/>
    </clipPath>
  </defs>
</svg>
