<svg xmlns="http://www.w3.org/2000/svg" width="64" height="64" fill="currentColor" viewBox="0 0 64 64">
  <g clip-path="url(#a)">
    <path d="m13.396 34.925-.116.834c-.184 1.434.439 2.985 1.638 4.073l.185.185c1.176.949 2.699 1.342 4.037 1.018l.83-.208s1.684-1.365 2.584-2.291a6 6 0 0 1-.923.092c-1.707 0-3.553-.67-5.052-2.013a8.2 8.2 0 0 1-2.284-3.449c-.346.602-.9 1.736-.9 1.736z"/>
    <path d="M14.572 40.364c-1.407-1.273-2.03-3.032-1.822-4.582-.761.185-1.453.555-1.984 1.157-1.615 1.805-1.223 4.814.877 6.712s5.12 1.967 6.735.162c.53-.602.83-1.343.946-2.106-1.522.37-3.345-.047-4.752-1.32zM9.197 47.423c-1.153-1.32-1.476-3.078-1.015-4.582-.761.139-1.522.44-2.122.995-1.869 1.643-1.984 4.605-.254 6.573 1.73 1.99 4.66 2.245 6.529.602a4.4 4.4 0 0 0 1.268-1.99c-1.545.277-3.252-.279-4.406-1.598M40.2 32.773c-1.89 1.62-4.175 2.291-5.997 1.967 0 .926.277 1.76.83 2.43 1.707 2.014 5.398 1.667 8.259-.763 2.837-2.43 3.76-6.041 2.053-8.055-.577-.67-1.361-1.041-2.26-1.203.022 1.851-.993 3.98-2.884 5.624"/>
    <path d="M43.707 37.54c-1.892 1.62-3.945 2.315-5.79 1.968.023.926.046 1.759.646 2.453 1.753 2.06 5.49 1.76 8.328-.671s3.736-6.087 1.983-8.147c-.576-.694-1.384-1.087-2.306-1.25.046 1.875-.946 4.027-2.86 5.67zM48.551 43.512c-1.96 2.036-4.175 3.286-5.859 3.518-.07.833.092 1.55.554 2.013 1.43 1.389 4.96.023 7.889-3.032s4.13-6.642 2.699-8.03c-.485-.464-1.2-.602-2.03-.487-.139 1.713-1.315 3.981-3.253 6.018M57.433 43.512c-.531 1.296-1.454 2.222-2.4 2.546.208.44.531.786.946.972 1.269.532 3.045-.88 3.83-2.8.784-1.922.323-3.657-.946-4.19-.416-.185-.877-.162-1.338 0 .438.88.438 2.199-.093 3.495zM51.435 52.006c-1.938.995-3.899 1.319-5.237.949-.23.648-.276 1.25 0 1.759.785 1.527 3.784 1.55 6.69.046s4.614-3.958 3.83-5.508c-.254-.51-.785-.834-1.454-1.019-.484 1.296-1.868 2.731-3.806 3.726v.047zM25.207 18.54c1.13 1.226 2.537 2.846 4.036 3.517 1.592.695 3.345.07 3.345.07 1.707-.741 3.322-2.43 4.59-3.75.462-.486.854-.902 1.247-1.25L38.24 8.68c-.046-2.152-1.915-3.842-4.06-3.657-1.707.139-5.79.046-5.975.046h-.23c-2.169-.162-4.014 1.597-3.991 3.796l.115 8.54c.346.324.692.718 1.107 1.134M25.506 34.787c-1.545.138-3.575-.51-4.59-1.135-.277-.162-.97-.833-.97-.833-1.614-1.458-2.56-3.379-2.629-5.3a4 4 0 0 0-1.384.95c-.715.786-1.061 1.85-.992 3.031.092 1.597.923 3.194 2.26 4.374 2.4 2.153 5.768 2.315 7.498.394.369-.394.623-.903.784-1.482zM9.105 53.024h-.346c-1.43-.093-2.745-.764-3.714-1.875-.946-1.087-1.453-2.522-1.361-3.934a5.2 5.2 0 0 1 .415-1.69c-.346.186-.692.37-1.015.463a1.13 1.13 0 0 0-.692.648c-.046.116-1.222 3.032.877 5.925 2.053 2.824 5.536 2.847 5.675 2.847.392 0 .76-.208.968-.532.439-.695 1.038-1.574 1.684-2.523a4.84 4.84 0 0 1-2.491.671M9.336 41.637l-.277.903c-.415 1.365-.07 2.916.9 4.027.968 1.134 2.468 1.666 3.875 1.412l.946-.162s1.153-1.343 1.799-2.2c-.37.117-.738.186-1.13.21h-.277c-1.43 0-2.907-.58-4.06-1.62-1.038-.95-1.753-2.57-1.753-2.57z"/>
    <path d="m33.626 33.791.67.116c1.73.3 3.829-.393 5.513-1.828 1.707-1.482 2.699-3.426 2.675-5.185V26.2s-.9-5.37-.9-7.753c0-.463-.276-.88-.691-1.065a1.12 1.12 0 0 0-1.246.231l-3.645 3.542c-1.591 1.527-2.998 2.383-3.714 2.522-.184.047-1.891.255-2.399.07-1.868-.671-2.952-1.435-4.106-3.032l-2.607-3.587a1.16 1.16 0 0 0-1.107-.463c-.438.07-.784.37-.922.787-.716 2.221-2.561 8.378-2.561 8.378l-.092.81c-.185 1.666.507 3.448 1.845 4.814l.37.324c1.568 1.412 3.62 2.013 5.374 1.597l.807-.185s2.469.069 3.599.046h.07c.945 0 3.067.578 3.067.578zM41.908 46.29l.461-.07c1.638-.232 3.76-1.505 5.513-3.356 1.776-1.875 2.953-4.027 3.091-5.67l.047-.463s-.231-.301-.439-.44c0 .486-.046.972-.161 1.504-.392 1.667-1.43 3.264-2.907 4.513-1.453 1.25-3.206 2.014-4.89 2.153h-.53c-.462 0-.9-.07-1.316-.162.392.648.762 1.296 1.13 1.967zM61.815 42.748a2.9 2.9 0 0 0-.715-1.11c.254.902.185 1.99-.276 3.124-.531 1.273-1.43 2.314-2.423 2.87.416.115.9.185 1.43 0 .67-.232 1.2-.764 1.592-1.574.6-1.227.738-2.338.416-3.287zM57.34 51.635s-.092-.162-.161-.254c-.462 1.504-1.961 3.147-4.152 4.258-1.477.764-3.022 1.18-4.36 1.18h-.046c-.416 0-.808-.069-1.154-.138.092.208.208.416.277.625.184.416.577.694 1.015.694h.23c.785 0 3.507-.093 5.352-1.157 2.192-1.273 3.207-3.912 3.253-4.027a1.15 1.15 0 0 0-.254-1.204zM45.114 51.797l.508.14c1.176.323 2.952 0 4.66-.834v-.046l.184-.093c1.73-.88 3.068-2.198 3.53-3.425l.184-.486s-.254-.833-.392-1.157l-.277-.579.6-.208c.83-.278 1.614-1.134 2.053-2.222l.115-.255c.346-1.018.346-2.036 0-2.73l-.3-.58s-.23-.532-.669-.694c-.184-.069-.115.14-.3.07.739 1.92-.507 5.138-3.23 7.984-2.19 2.269-5.005 3.449-6.943 3.472h-.069q-.253 0-.484.139c.346.648.784 1.481.784 1.481z"/>
  </g>
  <defs>
    <clipPath id="a">
      <path d="M2 5h60v53H2z"/>
    </clipPath>
  </defs>
</svg>
