<svg xmlns="http://www.w3.org/2000/svg" width="64" height="64" fill="currentColor" viewBox="0 0 64 64">
  <g clip-path="url(#a)">
    <path d="M46.357 19.435C44.8 17.067 35.221 12.459 24.448 8.533c-8.533-3.029-10.155-4.096-20.352-4.16V15.04s20.907 3.392 23.232 3.904 5.59-.96 7.787.384 2.816 2.581 1.92 6.741-3.648 6.08-5.846 5.526c-4.053-.982-3.328-6.528-4.693-7.019-2.837-1.003-22.4-4.267-22.4-4.267v16.619c13.29-3.243 19.2-1.685 19.2-1.685s-4.97 10.666-5.376 16.874c-.23 2.55-.058 5.12.512 7.616h9.408s2.795-14.506 2.453-17.941c-.34-3.435-4.01-8.128-3.754-9.408s1.877 1.643 6.101 1.643c3.307 0 4.523-2.944 5.76-2.368s-1.408 5.866-1.856 9.024-2.944 19.05-2.944 19.05h6.933A134 134 0 0 0 44.48 37.42c.512-3.627 4.587-14.08 1.877-17.984m-4.693 9.045c-1.621.192-.96-3.243-1.28-5.141s-1.835-4.054-.427-4.267a4.267 4.267 0 0 1 4.118 4.01c.021 2.646-.79 5.185-2.41 5.398"/>
  </g>
  <defs>
    <clipPath id="a">
      <path d="M0 0h64v64H0z"/>
    </clipPath>
  </defs>
</svg>
