<svg xmlns="http://www.w3.org/2000/svg" width="64" height="64" fill="currentColor" viewBox="0 0 64 64">
  <g clip-path="url(#a)">
    <path d="M48.772 9.48c-.4-.48-.841-.918-1.325-1.293A10.16 10.16 0 0 0 41.247 6a9.94 9.94 0 0 0-7.295 3.25c-.252.292-.483.583-.715.896a4.58 4.58 0 0 1-3.132 1.625 4.59 4.59 0 0 1-3.3-1.625 6 6 0 0 0-.715-.896C24.24 7.188 21.55 6 18.754 6c-5.34 0-9.69 4.25-9.754 9.542v1.146c.4 4.708 3.111 8.52 6.306 12.875a21.2 21.2 0 0 1 3.28 9.25V56h22.807V38.813a21.2 21.2 0 0 1 3.28-9.25c3.195-4.355 5.907-8.167 6.306-12.875v-1.146a9.43 9.43 0 0 0-2.228-6.063zm-10.006 2.79a6.03 6.03 0 0 1 3.763 1.313c.294.23.567.5.798.792.127.104.232.208.316.333a25.2 25.2 0 0 0-5.655-2.437zm5.444 5.23a7.1 7.1 0 0 0-3.027.438l-.189.125a5.86 5.86 0 0 0-.883-3.5c1.051.562 2.712 1.374 2.922 1.562.462.396.862.854 1.177 1.375m-6.663-3.25c.441.27.798.604 1.093 1.02.63.855.925 1.897.798 2.938A5.9 5.9 0 0 1 38.198 20l-.357.667-.21.416v.105a9 9 0 0 1-1.262-.667c-.168-.084-.315-.188-.462-.292l-.19-.166c-.125-.125-.252-.25-.357-.396v-.23l.063.063a5 5 0 0 0 1.157-1.417c.588-1.187.925-2.5.967-3.833m-6.244 14.27c-.462.23-.904.5-1.303.813l-1.072.709a1.3 1.3 0 0 0-.126-.396 4.1 4.1 0 0 0 1.618-2.084c.232-.854-.084-1.916.61-2.625.168-.166.357-.312.547-.437a5.96 5.96 0 0 0 1.87 2.083 11.9 11.9 0 0 0 2.943 1.5h.21c.4.542.694 1.146.82 1.813-1.26-.354-2.417-1.063-3.678-1.375a4.4 4.4 0 0 0-2.439 0m2.186 1.73c-.23.583-.504 1.125-.777 1.688a5.1 5.1 0 0 0-2.46-.709l.337-.208a6.2 6.2 0 0 1 1.156-.771 2.78 2.78 0 0 1 1.744 0m-6.957-3.875c.063-.52.189-1.02.42-1.48.42-1.04 1.093-1.978 1.997-2.666a20 20 0 0 1 3.447-1.791c.148.02.274.02.42 0 .4 0 .8-.084 1.178-.23.19.334.42.625.694.896l-2.102 1c-.925.375-1.808.875-2.607 1.5-.757.709-1.177 1.709-1.114 2.73 0 .437-.084.854-.273 1.25q-.253.375-.631.687l-.441-.563c-.4-.437-.988-.687-.988-1.333m.84 5.563a6.2 6.2 0 0 0-1.618 1.52l-.925-.812A11 11 0 0 0 26.384 29a4.3 4.3 0 0 1 .988 2.938m9.649-6.48-.252.334-.126.166a2 2 0 0 0-.274.334l-.525-.23a12.4 12.4 0 0 1-1.45-.833 6.2 6.2 0 0 1-1.136-.937 2.6 2.6 0 0 1-.357-.48l.441-.208 2.817-1.312 1.325.645s.189.021.294 0c.042.355.168.688.336 1l-.084.042c-.315.5-.652 1-1.009 1.48m-3.258-10.645c.126-.188.273-.376.42-.542a8 8 0 0 1 1.24-1h.442c0 1.125-.19 2.27-.568 3.333l-.23-.125-.232-.166-.379-.313a8 8 0 0 1-.693-.73h-.147l-.127-.145zM27.982 16c.673.417 1.45.667 2.25.688a4.43 4.43 0 0 0 2.101-.646A7.2 7.2 0 0 0 34.435 18h.127c-.274.27-.589.48-.925.646-.42.27-.967.27-1.388 0a10.5 10.5 0 0 0-1.009-.917 4.8 4.8 0 0 0-2.438-.687 3.4 3.4 0 0 0-1.598-.667zm2.333 3.063c.19.104.337.229.484.375-.925.229-1.829.541-2.69.937a7.8 7.8 0 0 0-1.872 1.833l-.105-.125-.168-.27a3.5 3.5 0 0 1-.42-.709v-.125c-.106-.146-.106-.312-.106-.437v-.584c1.262-1.312 3.238-1.687 4.877-.895m-8.744-6.688c1.702 0 3.32.708 4.456 1.958.168.188.315.396.462.604h.106a9.5 9.5 0 0 1-1.472.521 6.51 6.51 0 0 1-4.603-1.02c-.715-.417-1.388-.876-2.103-1.25a5.94 5.94 0 0 1 3.154-.813m-4.52 1.98.315.145h.021l-1.282 1.313c.231-.542.547-1.021.946-1.459m-1.282 4.25v-.147l.294-.291a14.46 14.46 0 0 1 2.649 7.52 14.6 14.6 0 0 1-2.943-7.083m3.069.853v.188a13.7 13.7 0 0 0-1.766-2.625l1.66-1.688c.673.438 1.367.813 2.103 1.125-.442.209-.841.521-1.156.917-.358.667-.631 1.354-.841 2.083m1.787.313.357-.938q.127-.405.315-.75a.45.45 0 0 1 .105-.166l.253-.25h.126c.105-.063.231-.125.357-.188h.147l.337-.125.567-.125c.231.188.484.354.757.48a8 8 0 0 0 1.745.145 6.6 6.6 0 0 0-1.976 1.584c-.463.729-.841 1.5-1.093 2.312a4.16 4.16 0 0 1-2.355 1.313c-.105-.5-.231-.98-.357-1.459.231-.604.462-1.229.715-1.833m-.42 5.291a8.8 8.8 0 0 0 2.858-1.437 4.06 4.06 0 0 0 1.093-1.73c.021.105.063.21.105.293.147.27.316.52.484.77.189.334.462.625.777.855h.127a6.6 6.6 0 0 0-.652 1.875v.27c-.126-.104-.252-.208-.4-.27a2.88 2.88 0 0 0-1.87 0c-.568.166-1.051.5-1.64.791-.231.104-.483.167-.736.23-.02-.542-.147-1.105-.147-1.646m.357 3.146c.252-.041.483-.083.714-.166a15 15 0 0 0 1.556-.709c.315-.187.694-.27 1.05-.25.127.042.253.105.358.188l.484.5s.105.146.168.187c-.19.709-.378 1.396-.61 2.084a5 5 0 0 1-.168.5v.145l-.126.271a5 5 0 0 1-.273.438c0 .041-.042.083-.063.125l-2.376-2.084a14 14 0 0 0-.714-1.229m2.459 7.167a25 25 0 0 0-.589-2.77l2.502 2.145c-.61.27-1.261.48-1.913.625m11.856 4.583v14.584l-9.502-.146V39.813c-.252-2.896 1.85-5.459 4.751-5.792h.042c2.943.354 5.045 3 4.709 5.937m2.501-4.875c-.168-.145-.336-.312-.504-.437A12.6 12.6 0 0 0 34.015 33c.378-.75.694-1.52.988-2.292a12.3 12.3 0 0 0 2.69.875c.085.25.19.5.295.75a17.4 17.4 0 0 0-.61 2.75m2.712-7.312a11.3 11.3 0 0 0-1.177 2.083 6.36 6.36 0 0 0-1.093-2.77 30 30 0 0 0 1.345-1.876c.358.313.736.584 1.135.834.232.166.484.312.736.437-.294.417-.61.854-.946 1.292m1.85-2.584c-.441-.27-.883-.52-1.324-.833-.988-.666-1.619-1.541-.988-2.75l.126-.208c.147-.334.4-.625.693-.834.148-.125.295-.229.463-.333.736.917 1.492 2 2.228 3-.336.625-.736 1.271-1.198 1.959m1.955-3.562c-.568-.77-1.114-1.562-1.682-2.354.273-.063.568-.125.841-.146a6.1 6.1 0 0 1 1.514 0 9.4 9.4 0 0 1-.673 2.5"/>
  </g>
  <defs>
    <clipPath id="a">
      <path d="M9 6h42v50H9z"/>
    </clipPath>
  </defs>
</svg>
