<svg xmlns="http://www.w3.org/2000/svg" width="64" height="64" fill="currentColor" viewBox="0 0 64 64">
  <g clip-path="url(#a)">
    <path d="M56.512 24.49c-2.944.385-5.355.555-7.488.683-6.272.427-10.07.683-15.68 6.4a24 24 0 0 1-4.267 3.478 29.5 29.5 0 0 0 2.304-5.739c.391-1.626.5-3.308.32-4.97v-2.369a119 119 0 0 1 2.496-3.818h1.024c2.963.08 5.897-.588 8.534-1.942a1.024 1.024 0 0 0 .384-1.45 1.195 1.195 0 0 0-1.558-.342 15.2 15.2 0 0 1-7.018 1.622q.098-.154.17-.32c.875-1.643.683-4.822 2.24-5.142a1.065 1.065 0 0 0 .854-1.258 1.13 1.13 0 0 0-1.622-.79c-2.688.534-2.901 4.608-3.776 6.251a17 17 0 0 1-1.13 1.92 70 70 0 0 0-1.238 1.856 63.5 63.5 0 0 0-3.328-11.541l-.128-.619a1.13 1.13 0 0 0-1.408-.704 1.045 1.045 0 0 0-.746 1.323 68.3 68.3 0 0 1 2.986 15.85 23 23 0 0 1-.149 3.542 15.74 15.74 0 0 1-8.533-11.968 1.11 1.11 0 0 0-1.174-1.003 1.09 1.09 0 0 0-1.088 1.088c-.042.405.47 8.939 10.24 14.101a20.35 20.35 0 0 1-4.458 8.022 10.9 10.9 0 0 0-1.942 2.88 23.5 23.5 0 0 0-1.578 6.912 38 38 0 0 1-.555 3.818 5.3 5.3 0 0 1-.64 1.622 100 100 0 0 1-2.944-11.904 29 29 0 0 1 0-3.158 12 12 0 0 0 6.4-5.141 1.004 1.004 0 0 0-.448-1.43 1.173 1.173 0 0 0-1.536.406 9.56 9.56 0 0 1-4.416 3.861c.213-3.541.661-7.061.661-7.104a1.066 1.066 0 0 0-.981-1.173 1.13 1.13 0 0 0-1.259.917 75.4 75.4 0 0 0-.661 13.035c.16 1.236.395 2.462.704 3.67a10.67 10.67 0 0 1-5.312-5.057 1.195 1.195 0 0 0-1.515-.405 1.024 1.024 0 0 0-.533 1.408 13.06 13.06 0 0 0 7.957 6.656c.79 3.05 1.707 6.101 2.134 7.467a7 7 0 0 1-1.43.789 1.98 1.98 0 0 1 1.707.192c.853.448 1.728 1.6 1.387 2.133 0 .107-.15.15-.214.214a9.24 9.24 0 0 0 5.419-6.528c.299-1.515.448-2.752.576-3.926.138-2.195.62-4.355 1.43-6.4q.298-.702.746-1.322a32 32 0 0 0 8.384-5.782A22.85 22.85 0 0 1 49.6 37.397c.2.14.438.215.683.214a1.13 1.13 0 0 0 .896-.427.983.983 0 0 0-.235-1.472 25.6 25.6 0 0 0-13.803-4.587 14 14 0 0 1 3.968-2.453 19.6 19.6 0 0 0 9.216 1.92 36 36 0 0 0 4.779-.341 1.067 1.067 0 0 0 .96-1.195 1.15 1.15 0 0 0-1.28-.896 28.7 28.7 0 0 1-10.41-.427c1.407-.234 2.943-.341 4.8-.469 1.855-.128 4.629-.32 7.658-.704a1.07 1.07 0 0 0 .96-1.195 1.11 1.11 0 0 0-1.28-.874"/>
    <path d="M17.92 56.81c-.277.363-1.28.214-1.899-.213-.618-.426-.874-1.066-.597-1.45s1.045-.32 1.664 0 1.13 1.301.832 1.664"/>
  </g>
  <defs>
    <clipPath id="a">
      <path d="M0 0h64v64H0z"/>
    </clipPath>
  </defs>
</svg>
