<?xml version="1.0" encoding="UTF-8" standalone="no"?>
<!DOCTYPE svg PUBLIC "-//W3C//DTD SVG 1.1//EN"
 "http://www.w3.org/Graphics/SVG/1.1/DTD/svg11.dtd">
<!-- Generated by graphviz version 2.47.3 (20210619.1520)
 -->
<!-- Title: dependencies Pages: 1 -->
<svg width="230pt" height="247pt"
 viewBox="0.00 0.00 230.00 246.80" xmlns="http://www.w3.org/2000/svg" xmlns:xlink="http://www.w3.org/1999/xlink">
<g id="graph0" class="graph" transform="scale(1 1) rotate(0) translate(4 242.8)">
<title>dependencies</title>
<polygon fill="white" stroke="transparent" points="-4,4 -4,-242.8 226,-242.8 226,4 -4,4"/>
<text text-anchor="middle" x="111" y="-8.2" font-family="sans-serif" font-size="14.00">dependencies</text>
<g id="clust1" class="cluster">
<title>cluster_SpinnerOverlayModule</title>
<polygon fill="none" stroke="black" stroke-dasharray="1,5" points="8,-32.8 8,-230.8 214,-230.8 214,-32.8 8,-32.8"/>
</g>
<g id="clust2" class="cluster">
<title>cluster_SpinnerOverlayModule_declarations</title>
<polygon fill="none" stroke="black" points="18,-40.8 18,-92.8 204,-92.8 204,-40.8 18,-40.8"/>
</g>
<g id="clust5" class="cluster">
<title>cluster_SpinnerOverlayModule_exports</title>
<polygon fill="none" stroke="black" points="16,-170.8 16,-222.8 206,-222.8 206,-170.8 16,-170.8"/>
</g>
<!-- SpinnerOverlayComponent -->
<g id="node1" class="node">
<title>SpinnerOverlayComponent</title>
<polygon fill="#ffffb3" stroke="black" points="195.97,-84.8 26.03,-84.8 26.03,-48.8 195.97,-48.8 195.97,-84.8"/>
<text text-anchor="middle" x="111" y="-62.6" font-family="Times,serif" font-size="14.00">SpinnerOverlayComponent</text>
</g>
<!-- SpinnerOverlayModule -->
<g id="node2" class="node">
<title>SpinnerOverlayModule</title>
<polygon fill="#8dd3c7" stroke="black" points="185.19,-149.8 182.19,-153.8 161.19,-153.8 158.19,-149.8 36.81,-149.8 36.81,-113.8 185.19,-113.8 185.19,-149.8"/>
<text text-anchor="middle" x="111" y="-127.6" font-family="Times,serif" font-size="14.00">SpinnerOverlayModule</text>
</g>
<!-- SpinnerOverlayComponent&#45;&gt;SpinnerOverlayModule -->
<g id="edge1" class="edge">
<title>SpinnerOverlayComponent&#45;&gt;SpinnerOverlayModule</title>
<path fill="none" stroke="black" d="M111,-84.91C111,-84.91 111,-103.79 111,-103.79"/>
<polygon fill="black" stroke="black" points="107.5,-103.79 111,-113.79 114.5,-103.79 107.5,-103.79"/>
</g>
<!-- SpinnerOverlayComponent  -->
<g id="node3" class="node">
<title>SpinnerOverlayComponent </title>
<polygon fill="#fb8072" stroke="black" points="197.97,-214.8 24.03,-214.8 24.03,-178.8 197.97,-178.8 197.97,-214.8"/>
<text text-anchor="middle" x="111" y="-192.6" font-family="Times,serif" font-size="14.00">SpinnerOverlayComponent </text>
</g>
<!-- SpinnerOverlayModule&#45;&gt;SpinnerOverlayComponent  -->
<g id="edge2" class="edge">
<title>SpinnerOverlayModule&#45;&gt;SpinnerOverlayComponent </title>
<path fill="none" stroke="black" stroke-dasharray="5,2" d="M111,-149.91C111,-149.91 111,-168.79 111,-168.79"/>
<polygon fill="black" stroke="black" points="107.5,-168.79 111,-178.79 114.5,-168.79 107.5,-168.79"/>
</g>
</g>
</svg>
