<?xml version="1.0" encoding="UTF-8" standalone="no"?>
<!DOCTYPE svg PUBLIC "-//W3C//DTD SVG 1.1//EN"
 "http://www.w3.org/Graphics/SVG/1.1/DTD/svg11.dtd">
<!-- Generated by graphviz version 2.47.3 (20210619.1520)
 -->
<!-- Title: dependencies Pages: 1 -->
<svg width="1475pt" height="269pt"
 viewBox="0.00 0.00 1475.00 268.80" xmlns="http://www.w3.org/2000/svg" xmlns:xlink="http://www.w3.org/1999/xlink">
<g id="graph0" class="graph" transform="scale(1 1) rotate(0) translate(4 264.8)">
<title>dependencies</title>
<polygon fill="white" stroke="transparent" points="-4,4 -4,-264.8 1471,-264.8 1471,4 -4,4"/>
<text text-anchor="middle" x="733.5" y="-8.2" font-family="sans-serif" font-size="14.00">dependencies</text>
<g id="clust1" class="cluster">
<title>cluster_AppModule</title>
<polygon fill="none" stroke="black" stroke-dasharray="1,5" points="8,-108.8 8,-244.8 783,-244.8 783,-108.8 8,-108.8"/>
</g>
<g id="clust2" class="cluster">
<title>cluster_AppModule_declarations</title>
<polygon fill="none" stroke="black" points="16,-116.8 16,-168.8 288,-168.8 288,-116.8 16,-116.8"/>
</g>
<g id="clust5" class="cluster">
<title>cluster_AppModule_imports</title>
<polygon fill="none" stroke="black" points="296,-116.8 296,-168.8 775,-168.8 775,-116.8 296,-116.8"/>
</g>
<g id="clust9" class="cluster">
<title>cluster_CoreModule</title>
<polygon fill="none" stroke="black" stroke-dasharray="1,5" points="268,-32.8 268,-100.8 390,-100.8 390,-32.8 268,-32.8"/>
</g>
<g id="clust11" class="cluster">
<title>cluster_CoreModule_imports</title>
<polygon fill="none" stroke="black" points="276,-40.8 276,-92.8 382,-92.8 382,-40.8 276,-40.8"/>
</g>
<g id="clust15" class="cluster">
<title>cluster_LinkCardsModule</title>
<polygon fill="none" stroke="black" stroke-dasharray="1,5" points="791,-184.8 791,-252.8 1131,-252.8 1131,-184.8 791,-184.8"/>
</g>
<g id="clust16" class="cluster">
<title>cluster_LinkCardsModule_declarations</title>
<polygon fill="none" stroke="black" points="967,-192.8 967,-244.8 1123,-244.8 1123,-192.8 967,-192.8"/>
</g>
<g id="clust19" class="cluster">
<title>cluster_LinkCardsModule_exports</title>
<polygon fill="none" stroke="black" points="799,-192.8 799,-244.8 959,-244.8 959,-192.8 799,-192.8"/>
</g>
<g id="clust22" class="cluster">
<title>cluster_OrganModule</title>
<polygon fill="none" stroke="black" stroke-dasharray="1,5" points="398,-32.8 398,-100.8 842,-100.8 842,-32.8 398,-32.8"/>
</g>
<g id="clust23" class="cluster">
<title>cluster_OrganModule_declarations</title>
<polygon fill="none" stroke="black" points="550,-40.8 550,-92.8 682,-92.8 682,-40.8 550,-40.8"/>
</g>
<g id="clust25" class="cluster">
<title>cluster_OrganModule_imports</title>
<polygon fill="none" stroke="black" points="690,-40.8 690,-92.8 834,-92.8 834,-40.8 690,-40.8"/>
</g>
<g id="clust26" class="cluster">
<title>cluster_OrganModule_exports</title>
<polygon fill="none" stroke="black" points="406,-40.8 406,-92.8 542,-92.8 542,-40.8 406,-40.8"/>
</g>
<g id="clust29" class="cluster">
<title>cluster_SlideToggleModule</title>
<polygon fill="none" stroke="black" stroke-dasharray="1,5" points="791,-108.8 791,-176.8 1151,-176.8 1151,-108.8 791,-108.8"/>
</g>
<g id="clust30" class="cluster">
<title>cluster_SlideToggleModule_declarations</title>
<polygon fill="none" stroke="black" points="977,-116.8 977,-168.8 1143,-168.8 1143,-116.8 977,-116.8"/>
</g>
<g id="clust33" class="cluster">
<title>cluster_SlideToggleModule_exports</title>
<polygon fill="none" stroke="black" points="799,-116.8 799,-168.8 969,-168.8 969,-116.8 799,-116.8"/>
</g>
<g id="clust36" class="cluster">
<title>cluster_StatsListModule</title>
<polygon fill="none" stroke="black" stroke-dasharray="1,5" points="1139,-184.8 1139,-252.8 1459,-252.8 1459,-184.8 1139,-184.8"/>
</g>
<g id="clust37" class="cluster">
<title>cluster_StatsListModule_declarations</title>
<polygon fill="none" stroke="black" points="1305,-192.8 1305,-244.8 1451,-244.8 1451,-192.8 1305,-192.8"/>
</g>
<g id="clust40" class="cluster">
<title>cluster_StatsListModule_exports</title>
<polygon fill="none" stroke="black" points="1147,-192.8 1147,-244.8 1297,-244.8 1297,-192.8 1147,-192.8"/>
</g>
<!-- AppComponent -->
<g id="node1" class="node">
<title>AppComponent</title>
<polygon fill="#ffffb3" stroke="black" points="279.94,-160.8 174.06,-160.8 174.06,-124.8 279.94,-124.8 279.94,-160.8"/>
<text text-anchor="middle" x="227" y="-138.6" font-family="Times,serif" font-size="14.00">AppComponent</text>
</g>
<!-- AppModule -->
<g id="node3" class="node">
<title>AppModule</title>
<polygon fill="#8dd3c7" stroke="black" points="442.66,-236.8 439.66,-240.8 418.66,-240.8 415.66,-236.8 359.34,-236.8 359.34,-200.8 442.66,-200.8 442.66,-236.8"/>
<text text-anchor="middle" x="401" y="-214.6" font-family="Times,serif" font-size="14.00">AppModule</text>
</g>
<!-- AppComponent&#45;&gt;AppModule -->
<g id="edge1" class="edge">
<title>AppComponent&#45;&gt;AppModule</title>
<path fill="none" stroke="black" d="M227,-160.83C227,-181.57 227,-212.8 227,-212.8 227,-212.8 349.32,-212.8 349.32,-212.8"/>
<polygon fill="black" stroke="black" points="349.32,-216.3 359.32,-212.8 349.32,-209.3 349.32,-216.3"/>
</g>
<!-- AppWebComponent -->
<g id="node2" class="node">
<title>AppWebComponent</title>
<polygon fill="#ffffb3" stroke="black" points="155.87,-160.8 24.13,-160.8 24.13,-124.8 155.87,-124.8 155.87,-160.8"/>
<text text-anchor="middle" x="90" y="-138.6" font-family="Times,serif" font-size="14.00">AppWebComponent</text>
</g>
<!-- AppWebComponent&#45;&gt;AppModule -->
<g id="edge2" class="edge">
<title>AppWebComponent&#45;&gt;AppModule</title>
<path fill="none" stroke="black" d="M90,-161C90,-185.16 90,-224.8 90,-224.8 90,-224.8 349.06,-224.8 349.06,-224.8"/>
<polygon fill="black" stroke="black" points="349.06,-228.3 359.06,-224.8 349.06,-221.3 349.06,-228.3"/>
</g>
<!-- CoreModule -->
<g id="node4" class="node">
<title>CoreModule</title>
<polygon fill="#8dd3c7" stroke="black" points="390.26,-160.8 387.26,-164.8 366.26,-164.8 363.26,-160.8 303.74,-160.8 303.74,-124.8 390.26,-124.8 390.26,-160.8"/>
<text text-anchor="middle" x="347" y="-138.6" font-family="Times,serif" font-size="14.00">CoreModule</text>
</g>
<!-- CoreModule&#45;&gt;AppModule -->
<g id="edge3" class="edge">
<title>CoreModule&#45;&gt;AppModule</title>
<path fill="none" stroke="black" d="M374.78,-160.81C374.78,-160.81 374.78,-190.65 374.78,-190.65"/>
<polygon fill="black" stroke="black" points="371.28,-190.65 374.78,-200.65 378.28,-190.65 371.28,-190.65"/>
</g>
<!-- LinkCardsModule -->
<g id="node5" class="node">
<title>LinkCardsModule</title>
<polygon fill="#8dd3c7" stroke="black" points="640.15,-160.8 637.15,-164.8 616.15,-164.8 613.15,-160.8 521.85,-160.8 521.85,-124.8 640.15,-124.8 640.15,-160.8"/>
<text text-anchor="middle" x="581" y="-138.6" font-family="Times,serif" font-size="14.00">LinkCardsModule</text>
</g>
<!-- LinkCardsModule&#45;&gt;AppModule -->
<g id="edge4" class="edge">
<title>LinkCardsModule&#45;&gt;AppModule</title>
<path fill="none" stroke="black" d="M581,-160.81C581,-183.29 581,-218.8 581,-218.8 581,-218.8 452.75,-218.8 452.75,-218.8"/>
<polygon fill="black" stroke="black" points="452.75,-215.3 442.75,-218.8 452.75,-222.3 452.75,-215.3"/>
</g>
<!-- LinkCardsComponent  -->
<g id="node10" class="node">
<title>LinkCardsComponent </title>
<polygon fill="#fb8072" stroke="black" points="950.93,-236.8 807.07,-236.8 807.07,-200.8 950.93,-200.8 950.93,-236.8"/>
<text text-anchor="middle" x="879" y="-214.6" font-family="Times,serif" font-size="14.00">LinkCardsComponent </text>
</g>
<!-- LinkCardsModule&#45;&gt;LinkCardsComponent  -->
<g id="edge9" class="edge">
<title>LinkCardsModule&#45;&gt;LinkCardsComponent </title>
<path fill="none" stroke="black" stroke-dasharray="5,2" d="M610.66,-161.11C610.66,-180.95 610.66,-209.8 610.66,-209.8 610.66,-209.8 796.74,-209.8 796.74,-209.8"/>
<polygon fill="black" stroke="black" points="796.74,-213.3 806.74,-209.8 796.74,-206.3 796.74,-213.3"/>
</g>
<!-- OrganModule -->
<g id="node6" class="node">
<title>OrganModule</title>
<polygon fill="#8dd3c7" stroke="black" points="503.03,-160.8 500.03,-164.8 479.03,-164.8 476.03,-160.8 408.97,-160.8 408.97,-124.8 503.03,-124.8 503.03,-160.8"/>
<text text-anchor="middle" x="456" y="-138.6" font-family="Times,serif" font-size="14.00">OrganModule</text>
</g>
<!-- OrganModule&#45;&gt;AppModule -->
<g id="edge5" class="edge">
<title>OrganModule&#45;&gt;AppModule</title>
<path fill="none" stroke="black" d="M425.78,-160.81C425.78,-160.81 425.78,-190.65 425.78,-190.65"/>
<polygon fill="black" stroke="black" points="422.28,-190.65 425.78,-200.65 429.28,-190.65 422.28,-190.65"/>
</g>
<!-- OrganComponent  -->
<g id="node13" class="node">
<title>OrganComponent </title>
<polygon fill="#fb8072" stroke="black" points="533.81,-84.8 414.19,-84.8 414.19,-48.8 533.81,-48.8 533.81,-84.8"/>
<text text-anchor="middle" x="474" y="-62.6" font-family="Times,serif" font-size="14.00">OrganComponent </text>
</g>
<!-- OrganModule&#45;&gt;OrganComponent  -->
<g id="edge12" class="edge">
<title>OrganModule&#45;&gt;OrganComponent </title>
<path fill="none" stroke="black" stroke-dasharray="5,2" d="M436.39,-124.79C436.39,-124.79 436.39,-94.95 436.39,-94.95"/>
<polygon fill="black" stroke="black" points="439.89,-94.95 436.39,-84.95 432.89,-94.95 439.89,-94.95"/>
</g>
<!-- StatsListModule -->
<g id="node7" class="node">
<title>StatsListModule</title>
<polygon fill="#8dd3c7" stroke="black" points="767.05,-160.8 764.05,-164.8 743.05,-164.8 740.05,-160.8 658.95,-160.8 658.95,-124.8 767.05,-124.8 767.05,-160.8"/>
<text text-anchor="middle" x="713" y="-138.6" font-family="Times,serif" font-size="14.00">StatsListModule</text>
</g>
<!-- StatsListModule&#45;&gt;AppModule -->
<g id="edge6" class="edge">
<title>StatsListModule&#45;&gt;AppModule</title>
<path fill="none" stroke="black" d="M740.14,-160.83C740.14,-185.78 740.14,-227.8 740.14,-227.8 740.14,-227.8 452.93,-227.8 452.93,-227.8"/>
<polygon fill="black" stroke="black" points="452.93,-224.3 442.93,-227.8 452.93,-231.3 452.93,-224.3"/>
</g>
<!-- StatsListComponent  -->
<g id="node17" class="node">
<title>StatsListComponent </title>
<polygon fill="#fb8072" stroke="black" points="1288.83,-236.8 1155.17,-236.8 1155.17,-200.8 1288.83,-200.8 1288.83,-236.8"/>
<text text-anchor="middle" x="1222" y="-214.6" font-family="Times,serif" font-size="14.00">StatsListComponent </text>
</g>
<!-- StatsListModule&#45;&gt;StatsListComponent  -->
<g id="edge16" class="edge">
<title>StatsListModule&#45;&gt;StatsListComponent </title>
<path fill="none" stroke="black" stroke-dasharray="5,2" d="M713,-160.91C713,-170.7 713,-180.8 713,-180.8 713,-180.8 1222,-180.8 1222,-180.8 1222,-180.8 1222,-190.69 1222,-190.69"/>
<polygon fill="black" stroke="black" points="1218.5,-190.69 1222,-200.69 1225.5,-190.69 1218.5,-190.69"/>
</g>
<!-- StoreModule -->
<g id="node8" class="node">
<title>StoreModule</title>
<polygon fill="#8dd3c7" stroke="black" points="373.6,-84.8 370.6,-88.8 349.6,-88.8 346.6,-84.8 284.4,-84.8 284.4,-48.8 373.6,-48.8 373.6,-84.8"/>
<text text-anchor="middle" x="329" y="-62.6" font-family="Times,serif" font-size="14.00">StoreModule</text>
</g>
<!-- StoreModule&#45;&gt;CoreModule -->
<g id="edge7" class="edge">
<title>StoreModule&#45;&gt;CoreModule</title>
<path fill="none" stroke="black" d="M338.58,-84.81C338.58,-84.81 338.58,-114.65 338.58,-114.65"/>
<polygon fill="black" stroke="black" points="335.08,-114.65 338.58,-124.65 342.08,-114.65 335.08,-114.65"/>
</g>
<!-- LinkCardsComponent -->
<g id="node9" class="node">
<title>LinkCardsComponent</title>
<polygon fill="#ffffb3" stroke="black" points="1115.43,-236.8 974.57,-236.8 974.57,-200.8 1115.43,-200.8 1115.43,-236.8"/>
<text text-anchor="middle" x="1045" y="-214.6" font-family="Times,serif" font-size="14.00">LinkCardsComponent</text>
</g>
<!-- LinkCardsComponent&#45;&gt;LinkCardsModule -->
<g id="edge8" class="edge">
<title>LinkCardsComponent&#45;&gt;LinkCardsModule</title>
<path fill="none" stroke="black" d="M979.95,-200.59C979.95,-195.25 979.95,-190.8 979.95,-190.8 979.95,-190.8 551.34,-190.8 551.34,-190.8 551.34,-190.8 551.34,-170.95 551.34,-170.95"/>
<polygon fill="black" stroke="black" points="554.84,-170.95 551.34,-160.95 547.84,-170.95 554.84,-170.95"/>
</g>
<!-- OrganComponent -->
<g id="node11" class="node">
<title>OrganComponent</title>
<polygon fill="#ffffb3" stroke="black" points="674.31,-84.8 557.69,-84.8 557.69,-48.8 674.31,-48.8 674.31,-84.8"/>
<text text-anchor="middle" x="616" y="-62.6" font-family="Times,serif" font-size="14.00">OrganComponent</text>
</g>
<!-- OrganComponent&#45;&gt;OrganModule -->
<g id="edge10" class="edge">
<title>OrganComponent&#45;&gt;OrganModule</title>
<path fill="none" stroke="black" d="M599.08,-85.04C599.08,-92.23 599.08,-98.8 599.08,-98.8 599.08,-98.8 458.68,-98.8 458.68,-98.8 458.68,-98.8 458.68,-114.65 458.68,-114.65"/>
<polygon fill="black" stroke="black" points="455.18,-114.65 458.68,-124.65 462.18,-114.65 455.18,-114.65"/>
</g>
<!-- SlideToggleModule -->
<g id="node12" class="node">
<title>SlideToggleModule</title>
<polygon fill="#8dd3c7" stroke="black" points="825.99,-84.8 822.99,-88.8 801.99,-88.8 798.99,-84.8 698.01,-84.8 698.01,-48.8 825.99,-48.8 825.99,-84.8"/>
<text text-anchor="middle" x="762" y="-62.6" font-family="Times,serif" font-size="14.00">SlideToggleModule</text>
</g>
<!-- SlideToggleModule&#45;&gt;OrganModule -->
<g id="edge11" class="edge">
<title>SlideToggleModule&#45;&gt;OrganModule</title>
<path fill="none" stroke="black" d="M732.64,-84.84C732.64,-97.36 732.64,-111.8 732.64,-111.8 732.64,-111.8 480.97,-111.8 480.97,-111.8 480.97,-111.8 480.97,-114.77 480.97,-114.77"/>
<polygon fill="black" stroke="black" points="477.47,-114.77 480.97,-124.77 484.47,-114.77 477.47,-114.77"/>
</g>
<!-- SlideToggleComponent  -->
<g id="node15" class="node">
<title>SlideToggleComponent </title>
<polygon fill="#fb8072" stroke="black" points="960.77,-160.8 807.23,-160.8 807.23,-124.8 960.77,-124.8 960.77,-160.8"/>
<text text-anchor="middle" x="884" y="-138.6" font-family="Times,serif" font-size="14.00">SlideToggleComponent </text>
</g>
<!-- SlideToggleModule&#45;&gt;SlideToggleComponent  -->
<g id="edge14" class="edge">
<title>SlideToggleModule&#45;&gt;SlideToggleComponent </title>
<path fill="none" stroke="black" stroke-dasharray="5,2" d="M816.68,-84.81C816.68,-84.81 816.68,-114.65 816.68,-114.65"/>
<polygon fill="black" stroke="black" points="813.18,-114.65 816.68,-124.65 820.18,-114.65 813.18,-114.65"/>
</g>
<!-- SlideToggleComponent -->
<g id="node14" class="node">
<title>SlideToggleComponent</title>
<polygon fill="#ffffb3" stroke="black" points="1134.77,-160.8 985.23,-160.8 985.23,-124.8 1134.77,-124.8 1134.77,-160.8"/>
<text text-anchor="middle" x="1060" y="-138.6" font-family="Times,serif" font-size="14.00">SlideToggleComponent</text>
</g>
<!-- SlideToggleComponent&#45;&gt;SlideToggleModule -->
<g id="edge13" class="edge">
<title>SlideToggleComponent&#45;&gt;SlideToggleModule</title>
<path fill="none" stroke="black" d="M1060,-124.79C1060,-102.31 1060,-66.8 1060,-66.8 1060,-66.8 836.29,-66.8 836.29,-66.8"/>
<polygon fill="black" stroke="black" points="836.29,-63.3 826.29,-66.8 836.29,-70.3 836.29,-63.3"/>
</g>
<!-- StatsListComponent -->
<g id="node16" class="node">
<title>StatsListComponent</title>
<polygon fill="#ffffb3" stroke="black" points="1443.33,-236.8 1312.67,-236.8 1312.67,-200.8 1443.33,-200.8 1443.33,-236.8"/>
<text text-anchor="middle" x="1378" y="-214.6" font-family="Times,serif" font-size="14.00">StatsListComponent</text>
</g>
<!-- StatsListComponent&#45;&gt;StatsListModule -->
<g id="edge15" class="edge">
<title>StatsListComponent&#45;&gt;StatsListModule</title>
<path fill="none" stroke="black" d="M1378,-200.65C1378,-187.06 1378,-170.8 1378,-170.8 1378,-170.8 685.86,-170.8 685.86,-170.8 685.86,-170.8 685.86,-169.82 685.86,-169.82"/>
<polygon fill="black" stroke="black" points="689.36,-171.01 685.86,-161.01 682.36,-171.01 689.36,-171.01"/>
</g>
</g>
</svg>
