<?xml version="1.0" encoding="UTF-8" standalone="no"?>
<!DOCTYPE svg PUBLIC "-//W3C//DTD SVG 1.1//EN"
 "http://www.w3.org/Graphics/SVG/1.1/DTD/svg11.dtd">
<!-- Generated by graphviz version 2.47.3 (20210619.1520)
 -->
<!-- Title: dependencies Pages: 1 -->
<svg width="426pt" height="247pt"
 viewBox="0.00 0.00 426.00 246.80" xmlns="http://www.w3.org/2000/svg" xmlns:xlink="http://www.w3.org/1999/xlink">
<g id="graph0" class="graph" transform="scale(1 1) rotate(0) translate(4 242.8)">
<title>dependencies</title>
<polygon fill="white" stroke="transparent" points="-4,4 -4,-242.8 422,-242.8 422,4 -4,4"/>
<text text-anchor="middle" x="209" y="-8.2" font-family="sans-serif" font-size="14.00">dependencies</text>
<g id="clust1" class="cluster">
<title>cluster_CallToActionBehaviorModule</title>
<polygon fill="none" stroke="black" stroke-dasharray="1,5" points="8,-32.8 8,-230.8 410,-230.8 410,-32.8 8,-32.8"/>
</g>
<g id="clust2" class="cluster">
<title>cluster_CallToActionBehaviorModule_declarations</title>
<polygon fill="none" stroke="black" points="176,-40.8 176,-92.8 402,-92.8 402,-40.8 176,-40.8"/>
</g>
<g id="clust5" class="cluster">
<title>cluster_CallToActionBehaviorModule_exports</title>
<polygon fill="none" stroke="black" points="94,-170.8 94,-222.8 324,-222.8 324,-170.8 94,-170.8"/>
</g>
<g id="clust4" class="cluster">
<title>cluster_CallToActionBehaviorModule_imports</title>
<polygon fill="none" stroke="black" points="16,-40.8 16,-92.8 168,-92.8 168,-40.8 16,-40.8"/>
</g>
<!-- CallToActionBehaviorComponent -->
<g id="node1" class="node">
<title>CallToActionBehaviorComponent</title>
<polygon fill="#ffffb3" stroke="black" points="393.64,-84.8 184.36,-84.8 184.36,-48.8 393.64,-48.8 393.64,-84.8"/>
<text text-anchor="middle" x="289" y="-62.6" font-family="Times,serif" font-size="14.00">CallToActionBehaviorComponent</text>
</g>
<!-- CallToActionBehaviorModule -->
<g id="node2" class="node">
<title>CallToActionBehaviorModule</title>
<polygon fill="#8dd3c7" stroke="black" points="302.85,-149.8 299.85,-153.8 278.85,-153.8 275.85,-149.8 115.15,-149.8 115.15,-113.8 302.85,-113.8 302.85,-149.8"/>
<text text-anchor="middle" x="209" y="-127.6" font-family="Times,serif" font-size="14.00">CallToActionBehaviorModule</text>
</g>
<!-- CallToActionBehaviorComponent&#45;&gt;CallToActionBehaviorModule -->
<g id="edge1" class="edge">
<title>CallToActionBehaviorComponent&#45;&gt;CallToActionBehaviorModule</title>
<path fill="none" stroke="black" d="M243.55,-84.91C243.55,-84.91 243.55,-103.79 243.55,-103.79"/>
<polygon fill="black" stroke="black" points="240.05,-103.79 243.55,-113.79 247.05,-103.79 240.05,-103.79"/>
</g>
<!-- CallToActionBehaviorComponent  -->
<g id="node4" class="node">
<title>CallToActionBehaviorComponent </title>
<polygon fill="#fb8072" stroke="black" points="315.64,-214.8 102.36,-214.8 102.36,-178.8 315.64,-178.8 315.64,-214.8"/>
<text text-anchor="middle" x="209" y="-192.6" font-family="Times,serif" font-size="14.00">CallToActionBehaviorComponent </text>
</g>
<!-- CallToActionBehaviorModule&#45;&gt;CallToActionBehaviorComponent  -->
<g id="edge3" class="edge">
<title>CallToActionBehaviorModule&#45;&gt;CallToActionBehaviorComponent </title>
<path fill="none" stroke="black" stroke-dasharray="5,2" d="M209,-149.91C209,-149.91 209,-168.79 209,-168.79"/>
<polygon fill="black" stroke="black" points="205.5,-168.79 209,-178.79 212.5,-168.79 205.5,-168.79"/>
</g>
<!-- CallToActionModule -->
<g id="node3" class="node">
<title>CallToActionModule</title>
<polygon fill="#8dd3c7" stroke="black" points="160.04,-84.8 157.04,-88.8 136.04,-88.8 133.04,-84.8 23.96,-84.8 23.96,-48.8 160.04,-48.8 160.04,-84.8"/>
<text text-anchor="middle" x="92" y="-62.6" font-family="Times,serif" font-size="14.00">CallToActionModule</text>
</g>
<!-- CallToActionModule&#45;&gt;CallToActionBehaviorModule -->
<g id="edge2" class="edge">
<title>CallToActionModule&#45;&gt;CallToActionBehaviorModule</title>
<path fill="none" stroke="black" d="M137.67,-84.91C137.67,-84.91 137.67,-103.79 137.67,-103.79"/>
<polygon fill="black" stroke="black" points="134.17,-103.79 137.67,-113.79 141.17,-103.79 134.17,-103.79"/>
</g>
</g>
</svg>
