<?xml version="1.0" encoding="UTF-8" standalone="no"?>
<!DOCTYPE svg PUBLIC "-//W3C//DTD SVG 1.1//EN"
 "http://www.w3.org/Graphics/SVG/1.1/DTD/svg11.dtd">
<!-- Generated by graphviz version 2.47.0 (20210316.0004)
 -->
<!-- Title: dependencies Pages: 1 -->
<svg width="504pt" height="284pt"
 viewBox="0.00 0.00 504.00 284.00" xmlns="http://www.w3.org/2000/svg" xmlns:xlink="http://www.w3.org/1999/xlink">
<g id="graph0" class="graph" transform="scale(1 1) rotate(0) translate(4 280)">
<title>dependencies</title>
<polygon fill="white" stroke="transparent" points="-4,4 -4,-280 500,-280 500,4 -4,4"/>
<text text-anchor="start" x="227.01" y="-42.4" font-family="Times-12" font-weight="bold" font-size="14.00">Legend</text>
<polygon fill="#ffffb3" stroke="transparent" points="14,-10 14,-30 34,-30 34,-10 14,-10"/>
<text text-anchor="start" x="37.63" y="-15.4" font-family="Times-12" font-size="14.00"> &#160;Declarations</text>
<polygon fill="#8dd3c7" stroke="transparent" points="127,-10 127,-30 147,-30 147,-10 127,-10"/>
<text text-anchor="start" x="150.73" y="-15.4" font-family="Times-12" font-size="14.00"> &#160;Module</text>
<polygon fill="#80b1d3" stroke="transparent" points="213,-10 213,-30 233,-30 233,-10 213,-10"/>
<text text-anchor="start" x="236.78" y="-15.4" font-family="Times-12" font-size="14.00"> &#160;Bootstrap</text>
<polygon fill="#fdb462" stroke="transparent" points="310,-10 310,-30 330,-30 330,-10 310,-10"/>
<text text-anchor="start" x="333.67" y="-15.4" font-family="Times-12" font-size="14.00"> &#160;Providers</text>
<polygon fill="#fb8072" stroke="transparent" points="406,-10 406,-30 426,-30 426,-10 406,-10"/>
<text text-anchor="start" x="429.73" y="-15.4" font-family="Times-12" font-size="14.00"> &#160;Exports</text>
<g id="clust1" class="cluster">
<title>cluster_OntologyTreeModule</title>
<polygon fill="none" stroke="black" stroke-dasharray="1,5" points="71,-70 71,-268 425,-268 425,-70 71,-70"/>
</g>
<g id="clust2" class="cluster">
<title>cluster_OntologyTreeModule_declarations</title>
<polygon fill="none" stroke="black" points="241,-78 241,-130 417,-130 417,-78 241,-78"/>
</g>
<g id="clust5" class="cluster">
<title>cluster_OntologyTreeModule_exports</title>
<polygon fill="none" stroke="black" points="158,-208 158,-260 338,-260 338,-208 158,-208"/>
</g>
<g id="clust4" class="cluster">
<title>cluster_OntologyTreeModule_imports</title>
<polygon fill="none" stroke="black" points="79,-78 79,-130 233,-130 233,-78 79,-78"/>
</g>
<!-- OntologyTreeComponent -->
<g id="node1" class="node">
<title>OntologyTreeComponent</title>
<polygon fill="#ffffb3" stroke="black" points="408.86,-122 249.14,-122 249.14,-86 408.86,-86 408.86,-122"/>
<text text-anchor="middle" x="329" y="-99.8" font-family="Times,serif" font-size="14.00">OntologyTreeComponent</text>
</g>
<!-- OntologyTreeModule -->
<g id="node2" class="node">
<title>OntologyTreeModule</title>
<polygon fill="#8dd3c7" stroke="black" points="317.08,-187 314.08,-191 293.08,-191 290.08,-187 178.92,-187 178.92,-151 317.08,-151 317.08,-187"/>
<text text-anchor="middle" x="248" y="-164.8" font-family="Times,serif" font-size="14.00">OntologyTreeModule</text>
</g>
<!-- OntologyTreeComponent&#45;&gt;OntologyTreeModule -->
<g id="edge1" class="edge">
<title>OntologyTreeComponent&#45;&gt;OntologyTreeModule</title>
<path fill="none" stroke="black" d="M283.05,-122.11C283.05,-122.11 283.05,-140.99 283.05,-140.99"/>
<polygon fill="black" stroke="black" points="279.55,-140.99 283.05,-150.99 286.55,-140.99 279.55,-140.99"/>
</g>
<!-- OntologyTreeComponent  -->
<g id="node4" class="node">
<title>OntologyTreeComponent </title>
<polygon fill="#fb8072" stroke="black" points="329.86,-252 166.14,-252 166.14,-216 329.86,-216 329.86,-252"/>
<text text-anchor="middle" x="248" y="-229.8" font-family="Times,serif" font-size="14.00">OntologyTreeComponent </text>
</g>
<!-- OntologyTreeModule&#45;&gt;OntologyTreeComponent  -->
<g id="edge3" class="edge">
<title>OntologyTreeModule&#45;&gt;OntologyTreeComponent </title>
<path fill="none" stroke="black" stroke-dasharray="5,2" d="M248,-187.11C248,-187.11 248,-205.99 248,-205.99"/>
<polygon fill="black" stroke="black" points="244.5,-205.99 248,-215.99 251.5,-205.99 244.5,-205.99"/>
</g>
<!-- ButtonToggleModule -->
<g id="node3" class="node">
<title>ButtonToggleModule</title>
<polygon fill="#8dd3c7" stroke="black" points="224.83,-122 221.83,-126 200.83,-126 197.83,-122 87.17,-122 87.17,-86 224.83,-86 224.83,-122"/>
<text text-anchor="middle" x="156" y="-99.8" font-family="Times,serif" font-size="14.00">ButtonToggleModule</text>
</g>
<!-- ButtonToggleModule&#45;&gt;OntologyTreeModule -->
<g id="edge2" class="edge">
<title>ButtonToggleModule&#45;&gt;OntologyTreeModule</title>
<path fill="none" stroke="black" d="M201.81,-122.11C201.81,-122.11 201.81,-140.99 201.81,-140.99"/>
<polygon fill="black" stroke="black" points="198.31,-140.99 201.81,-150.99 205.31,-140.99 198.31,-140.99"/>
</g>
</g>
</svg>
