<?xml version="1.0" encoding="UTF-8" standalone="no"?>
<!DOCTYPE svg PUBLIC "-//W3C//DTD SVG 1.1//EN"
 "http://www.w3.org/Graphics/SVG/1.1/DTD/svg11.dtd">
<!-- Generated by graphviz version 2.47.3 (20210619.1520)
 -->
<!-- Title: dependencies Pages: 1 -->
<svg width="654pt" height="247pt"
 viewBox="0.00 0.00 654.00 246.80" xmlns="http://www.w3.org/2000/svg" xmlns:xlink="http://www.w3.org/1999/xlink">
<g id="graph0" class="graph" transform="scale(1 1) rotate(0) translate(4 242.8)">
<title>dependencies</title>
<polygon fill="white" stroke="transparent" points="-4,4 -4,-242.8 650,-242.8 650,4 -4,4"/>
<text text-anchor="middle" x="323" y="-8.2" font-family="sans-serif" font-size="14.00">dependencies</text>
<g id="clust1" class="cluster">
<title>cluster_DrawerModule</title>
<polygon fill="none" stroke="black" stroke-dasharray="1,5" points="8,-32.8 8,-230.8 638,-230.8 638,-32.8 8,-32.8"/>
</g>
<g id="clust8" class="cluster">
<title>cluster_DrawerModule_exports</title>
<polygon fill="none" stroke="black" points="82,-170.8 82,-222.8 563,-222.8 563,-170.8 82,-170.8"/>
</g>
<g id="clust2" class="cluster">
<title>cluster_DrawerModule_declarations</title>
<polygon fill="none" stroke="black" points="16,-40.8 16,-92.8 630,-92.8 630,-40.8 16,-40.8"/>
</g>
<!-- ContainerComponent -->
<g id="node1" class="node">
<title>ContainerComponent</title>
<polygon fill="#ffffb3" stroke="black" points="622.04,-84.8 485.96,-84.8 485.96,-48.8 622.04,-48.8 622.04,-84.8"/>
<text text-anchor="middle" x="554" y="-62.6" font-family="Times,serif" font-size="14.00">ContainerComponent</text>
</g>
<!-- DrawerModule -->
<g id="node5" class="node">
<title>DrawerModule</title>
<polygon fill="#8dd3c7" stroke="black" points="384.51,-149.8 381.51,-153.8 360.51,-153.8 357.51,-149.8 283.49,-149.8 283.49,-113.8 384.51,-113.8 384.51,-149.8"/>
<text text-anchor="middle" x="334" y="-127.6" font-family="Times,serif" font-size="14.00">DrawerModule</text>
</g>
<!-- ContainerComponent&#45;&gt;DrawerModule -->
<g id="edge1" class="edge">
<title>ContainerComponent&#45;&gt;DrawerModule</title>
<path fill="none" stroke="black" d="M520.38,-84.82C520.38,-102.17 520.38,-125.8 520.38,-125.8 520.38,-125.8 394.93,-125.8 394.93,-125.8"/>
<polygon fill="black" stroke="black" points="394.93,-122.3 384.93,-125.8 394.93,-129.3 394.93,-122.3"/>
</g>
<!-- ContentComponent -->
<g id="node2" class="node">
<title>ContentComponent</title>
<polygon fill="#ffffb3" stroke="black" points="467.67,-84.8 342.33,-84.8 342.33,-48.8 467.67,-48.8 467.67,-84.8"/>
<text text-anchor="middle" x="405" y="-62.6" font-family="Times,serif" font-size="14.00">ContentComponent</text>
</g>
<!-- ContentComponent&#45;&gt;DrawerModule -->
<g id="edge2" class="edge">
<title>ContentComponent&#45;&gt;DrawerModule</title>
<path fill="none" stroke="black" d="M363.46,-84.91C363.46,-84.91 363.46,-103.79 363.46,-103.79"/>
<polygon fill="black" stroke="black" points="359.96,-103.79 363.46,-113.79 366.96,-103.79 359.96,-103.79"/>
</g>
<!-- DrawerComponent -->
<g id="node3" class="node">
<title>DrawerComponent</title>
<polygon fill="#ffffb3" stroke="black" points="324.8,-84.8 201.2,-84.8 201.2,-48.8 324.8,-48.8 324.8,-84.8"/>
<text text-anchor="middle" x="263" y="-62.6" font-family="Times,serif" font-size="14.00">DrawerComponent</text>
</g>
<!-- DrawerComponent&#45;&gt;DrawerModule -->
<g id="edge3" class="edge">
<title>DrawerComponent&#45;&gt;DrawerModule</title>
<path fill="none" stroke="black" d="M303.95,-84.91C303.95,-84.91 303.95,-103.79 303.95,-103.79"/>
<polygon fill="black" stroke="black" points="300.45,-103.79 303.95,-113.79 307.45,-103.79 300.45,-103.79"/>
</g>
<!-- ToggleButtonComponent -->
<g id="node4" class="node">
<title>ToggleButtonComponent</title>
<polygon fill="#ffffb3" stroke="black" points="183.61,-84.8 24.39,-84.8 24.39,-48.8 183.61,-48.8 183.61,-84.8"/>
<text text-anchor="middle" x="104" y="-62.6" font-family="Times,serif" font-size="14.00">ToggleButtonComponent</text>
</g>
<!-- ToggleButtonComponent&#45;&gt;DrawerModule -->
<g id="edge4" class="edge">
<title>ToggleButtonComponent&#45;&gt;DrawerModule</title>
<path fill="none" stroke="black" d="M136.62,-84.82C136.62,-102.17 136.62,-125.8 136.62,-125.8 136.62,-125.8 273.43,-125.8 273.43,-125.8"/>
<polygon fill="black" stroke="black" points="273.43,-129.3 283.43,-125.8 273.43,-122.3 273.43,-129.3"/>
</g>
<!-- ContainerComponent  -->
<g id="node6" class="node">
<title>ContainerComponent </title>
<polygon fill="#fb8072" stroke="black" points="555.04,-214.8 414.96,-214.8 414.96,-178.8 555.04,-178.8 555.04,-214.8"/>
<text text-anchor="middle" x="485" y="-192.6" font-family="Times,serif" font-size="14.00">ContainerComponent </text>
</g>
<!-- DrawerModule&#45;&gt;ContainerComponent  -->
<g id="edge5" class="edge">
<title>DrawerModule&#45;&gt;ContainerComponent </title>
<path fill="none" stroke="black" stroke-dasharray="5,2" d="M384.56,-137.8C412.42,-137.8 441.41,-137.8 441.41,-137.8 441.41,-137.8 441.41,-168.78 441.41,-168.78"/>
<polygon fill="black" stroke="black" points="437.91,-168.78 441.41,-178.78 444.91,-168.78 437.91,-168.78"/>
</g>
<!-- DrawerComponent  -->
<g id="node7" class="node">
<title>DrawerComponent </title>
<polygon fill="#fb8072" stroke="black" points="397.3,-214.8 270.7,-214.8 270.7,-178.8 397.3,-178.8 397.3,-214.8"/>
<text text-anchor="middle" x="334" y="-192.6" font-family="Times,serif" font-size="14.00">DrawerComponent </text>
</g>
<!-- DrawerModule&#45;&gt;DrawerComponent  -->
<g id="edge6" class="edge">
<title>DrawerModule&#45;&gt;DrawerComponent </title>
<path fill="none" stroke="black" stroke-dasharray="5,2" d="M334,-149.91C334,-149.91 334,-168.79 334,-168.79"/>
<polygon fill="black" stroke="black" points="330.5,-168.79 334,-178.79 337.5,-168.79 330.5,-168.79"/>
</g>
<!-- ToggleButtonComponent  -->
<g id="node8" class="node">
<title>ToggleButtonComponent </title>
<polygon fill="#fb8072" stroke="black" points="252.11,-214.8 89.89,-214.8 89.89,-178.8 252.11,-178.8 252.11,-214.8"/>
<text text-anchor="middle" x="171" y="-192.6" font-family="Times,serif" font-size="14.00">ToggleButtonComponent </text>
</g>
<!-- DrawerModule&#45;&gt;ToggleButtonComponent  -->
<g id="edge7" class="edge">
<title>DrawerModule&#45;&gt;ToggleButtonComponent </title>
<path fill="none" stroke="black" stroke-dasharray="5,2" d="M283.24,-137.8C255.54,-137.8 226.83,-137.8 226.83,-137.8 226.83,-137.8 226.83,-168.78 226.83,-168.78"/>
<polygon fill="black" stroke="black" points="223.33,-168.78 226.83,-178.78 230.33,-168.78 223.33,-168.78"/>
</g>
</g>
</svg>
