<?xml version="1.0" encoding="UTF-8" standalone="no"?>
<!DOCTYPE svg PUBLIC "-//W3C//DTD SVG 1.1//EN"
 "http://www.w3.org/Graphics/SVG/1.1/DTD/svg11.dtd">
<!-- Generated by graphviz version 2.40.1 (20161225.0304)
 -->
<!-- Title: dependencies Pages: 1 -->
<svg width="504pt" height="284pt"
 viewBox="0.00 0.00 504.00 284.00" xmlns="http://www.w3.org/2000/svg" xmlns:xlink="http://www.w3.org/1999/xlink">
<g id="graph0" class="graph" transform="scale(1 1) rotate(0) translate(4 280)">
<title>dependencies</title>
<polygon fill="#ffffff" stroke="transparent" points="-4,4 -4,-280 500,-280 500,4 -4,4"/>
<text text-anchor="start" x="227.0091" y="-42.4" font-family="sans-serif" font-weight="bold" font-size="14.00" fill="#000000">Legend</text>
<polygon fill="#ffffb3" stroke="transparent" points="14,-10 14,-30 34,-30 34,-10 14,-10"/>
<text text-anchor="start" x="37.629" y="-15.4" font-family="sans-serif" font-size="14.00" fill="#000000"> &#160;Declarations</text>
<polygon fill="#8dd3c7" stroke="transparent" points="127,-10 127,-30 147,-30 147,-10 127,-10"/>
<text text-anchor="start" x="150.7251" y="-15.4" font-family="sans-serif" font-size="14.00" fill="#000000"> &#160;Module</text>
<polygon fill="#80b1d3" stroke="transparent" points="213,-10 213,-30 233,-30 233,-10 213,-10"/>
<text text-anchor="start" x="236.7812" y="-15.4" font-family="sans-serif" font-size="14.00" fill="#000000"> &#160;Bootstrap</text>
<polygon fill="#fdb462" stroke="transparent" points="310,-10 310,-30 330,-30 330,-10 310,-10"/>
<text text-anchor="start" x="333.6732" y="-15.4" font-family="sans-serif" font-size="14.00" fill="#000000"> &#160;Providers</text>
<polygon fill="#fb8072" stroke="transparent" points="406,-10 406,-30 426,-30 426,-10 406,-10"/>
<text text-anchor="start" x="429.7258" y="-15.4" font-family="sans-serif" font-size="14.00" fill="#000000"> &#160;Exports</text>
<g id="clust1" class="cluster">
<title>cluster_CoreModule</title>
<polygon fill="none" stroke="#000000" stroke-dasharray="1,5" points="64,-70 64,-268 432,-268 432,-70 64,-70"/>
</g>
<g id="clust3" class="cluster">
<title>cluster_CoreModule_imports</title>
<polygon fill="none" stroke="#000000" points="72,-78 72,-130 424,-130 424,-78 72,-78"/>
</g>
<g id="clust4" class="cluster">
<title>cluster_CoreModule_exports</title>
<polygon fill="none" stroke="#000000" points="193,-208 193,-260 313,-260 313,-208 193,-208"/>
</g>
<!-- HeaderModule -->
<g id="node1" class="node">
<title>HeaderModule</title>
<polygon fill="#8dd3c7" stroke="#000000" points="415.9608,-122 412.9608,-126 391.9608,-126 388.9608,-122 316.0392,-122 316.0392,-86 415.9608,-86 415.9608,-122"/>
<text text-anchor="middle" x="366" y="-99.8" font-family="Times,serif" font-size="14.00" fill="#000000">HeaderModule</text>
</g>
<!-- CoreModule -->
<g id="node4" class="node">
<title>CoreModule</title>
<polygon fill="#8dd3c7" stroke="#000000" points="296.2619,-187 293.2619,-191 272.2619,-191 269.2619,-187 209.7381,-187 209.7381,-151 296.2619,-151 296.2619,-187"/>
<text text-anchor="middle" x="253" y="-164.8" font-family="Times,serif" font-size="14.00" fill="#000000">CoreModule</text>
</g>
<!-- HeaderModule&#45;&gt;CoreModule -->
<g id="edge1" class="edge">
<title>HeaderModule&#45;&gt;CoreModule</title>
<path fill="none" stroke="#000000" d="M366,-122.1061C366,-141.3391 366,-169 366,-169 366,-169 306.3656,-169 306.3656,-169"/>
<polygon fill="#000000" stroke="#000000" points="306.3656,-165.5001 296.3656,-169 306.3655,-172.5001 306.3656,-165.5001"/>
</g>
<!-- StoreModule -->
<g id="node2" class="node">
<title>StoreModule</title>
<polygon fill="#8dd3c7" stroke="#000000" points="297.5983,-122 294.5983,-126 273.5983,-126 270.5983,-122 208.4017,-122 208.4017,-86 297.5983,-86 297.5983,-122"/>
<text text-anchor="middle" x="253" y="-99.8" font-family="Times,serif" font-size="14.00" fill="#000000">StoreModule</text>
</g>
<!-- StoreModule&#45;&gt;CoreModule -->
<g id="edge2" class="edge">
<title>StoreModule&#45;&gt;CoreModule</title>
<path fill="none" stroke="#000000" d="M253,-122.1061C253,-122.1061 253,-140.991 253,-140.991"/>
<polygon fill="#000000" stroke="#000000" points="249.5001,-140.9909 253,-150.991 256.5001,-140.991 249.5001,-140.9909"/>
</g>
<!-- ThemingModule -->
<g id="node3" class="node">
<title>ThemingModule</title>
<polygon fill="#8dd3c7" stroke="#000000" points="190.0982,-122 187.0982,-126 166.0982,-126 163.0982,-122 79.9018,-122 79.9018,-86 190.0982,-86 190.0982,-122"/>
<text text-anchor="middle" x="135" y="-99.8" font-family="Times,serif" font-size="14.00" fill="#000000">ThemingModule</text>
</g>
<!-- ThemingModule&#45;&gt;CoreModule -->
<g id="edge3" class="edge">
<title>ThemingModule&#45;&gt;CoreModule</title>
<path fill="none" stroke="#000000" d="M135,-122.1061C135,-141.3391 135,-169 135,-169 135,-169 199.7312,-169 199.7312,-169"/>
<polygon fill="#000000" stroke="#000000" points="199.7312,-172.5001 209.7312,-169 199.7312,-165.5001 199.7312,-172.5001"/>
</g>
<!-- HeaderModule  -->
<g id="node5" class="node">
<title>HeaderModule </title>
<polygon fill="#fb8072" stroke="#000000" points="304.9618,-252 201.0382,-252 201.0382,-216 304.9618,-216 304.9618,-252"/>
<text text-anchor="middle" x="253" y="-229.8" font-family="Times,serif" font-size="14.00" fill="#000000">HeaderModule </text>
</g>
<!-- CoreModule&#45;&gt;HeaderModule  -->
<g id="edge4" class="edge">
<title>CoreModule&#45;&gt;HeaderModule </title>
<path fill="none" stroke="#000000" stroke-dasharray="5,2" d="M253,-187.1061C253,-187.1061 253,-205.991 253,-205.991"/>
<polygon fill="#000000" stroke="#000000" points="249.5001,-205.9909 253,-215.991 256.5001,-205.991 249.5001,-205.9909"/>
</g>
</g>
</svg>
