<?xml version="1.0" encoding="UTF-8" standalone="no"?>
<!DOCTYPE svg PUBLIC "-//W3C//DTD SVG 1.1//EN"
 "http://www.w3.org/Graphics/SVG/1.1/DTD/svg11.dtd">
<!-- Generated by graphviz version 2.47.3 (20210619.1520)
 -->
<!-- Title: dependencies Pages: 1 -->
<svg width="597pt" height="247pt"
 viewBox="0.00 0.00 597.00 246.80" xmlns="http://www.w3.org/2000/svg" xmlns:xlink="http://www.w3.org/1999/xlink">
<g id="graph0" class="graph" transform="scale(1 1) rotate(0) translate(4 242.8)">
<title>dependencies</title>
<polygon fill="white" stroke="transparent" points="-4,4 -4,-242.8 593,-242.8 593,4 -4,4"/>
<text text-anchor="middle" x="294.5" y="-8.2" font-family="sans-serif" font-size="14.00">dependencies</text>
<g id="clust1" class="cluster">
<title>cluster_CoreModule</title>
<polygon fill="none" stroke="black" stroke-dasharray="1,5" points="8,-32.8 8,-230.8 581,-230.8 581,-32.8 8,-32.8"/>
</g>
<g id="clust3" class="cluster">
<title>cluster_CoreModule_imports</title>
<polygon fill="none" stroke="black" points="16,-40.8 16,-92.8 573,-92.8 573,-40.8 16,-40.8"/>
</g>
<g id="clust4" class="cluster">
<title>cluster_CoreModule_exports</title>
<polygon fill="none" stroke="black" points="215,-170.8 215,-222.8 335,-222.8 335,-170.8 215,-170.8"/>
</g>
<!-- HeaderModule -->
<g id="node1" class="node">
<title>HeaderModule</title>
<polygon fill="#8dd3c7" stroke="black" points="564.96,-84.8 561.96,-88.8 540.96,-88.8 537.96,-84.8 465.04,-84.8 465.04,-48.8 564.96,-48.8 564.96,-84.8"/>
<text text-anchor="middle" x="515" y="-62.6" font-family="Times,serif" font-size="14.00">HeaderModule</text>
</g>
<!-- CoreModule -->
<g id="node5" class="node">
<title>CoreModule</title>
<polygon fill="#8dd3c7" stroke="black" points="318.26,-149.8 315.26,-153.8 294.26,-153.8 291.26,-149.8 231.74,-149.8 231.74,-113.8 318.26,-113.8 318.26,-149.8"/>
<text text-anchor="middle" x="275" y="-127.6" font-family="Times,serif" font-size="14.00">CoreModule</text>
</g>
<!-- HeaderModule&#45;&gt;CoreModule -->
<g id="edge1" class="edge">
<title>HeaderModule&#45;&gt;CoreModule</title>
<path fill="none" stroke="black" d="M515,-84.91C515,-104.14 515,-131.8 515,-131.8 515,-131.8 328.46,-131.8 328.46,-131.8"/>
<polygon fill="black" stroke="black" points="328.46,-128.3 318.46,-131.8 328.46,-135.3 328.46,-128.3"/>
</g>
<!-- MousePositionTrackerModule -->
<g id="node2" class="node">
<title>MousePositionTrackerModule</title>
<polygon fill="#8dd3c7" stroke="black" points="446.57,-84.8 443.57,-88.8 422.57,-88.8 419.57,-84.8 259.43,-84.8 259.43,-48.8 446.57,-48.8 446.57,-84.8"/>
<text text-anchor="middle" x="353" y="-62.6" font-family="Times,serif" font-size="14.00">MousePositionTrackerModule</text>
</g>
<!-- MousePositionTrackerModule&#45;&gt;CoreModule -->
<g id="edge2" class="edge">
<title>MousePositionTrackerModule&#45;&gt;CoreModule</title>
<path fill="none" stroke="black" d="M288.92,-84.91C288.92,-84.91 288.92,-103.79 288.92,-103.79"/>
<polygon fill="black" stroke="black" points="285.42,-103.79 288.92,-113.79 292.42,-103.79 285.42,-103.79"/>
</g>
<!-- StoreModule -->
<g id="node3" class="node">
<title>StoreModule</title>
<polygon fill="#8dd3c7" stroke="black" points="241.6,-84.8 238.6,-88.8 217.6,-88.8 214.6,-84.8 152.4,-84.8 152.4,-48.8 241.6,-48.8 241.6,-84.8"/>
<text text-anchor="middle" x="197" y="-62.6" font-family="Times,serif" font-size="14.00">StoreModule</text>
</g>
<!-- StoreModule&#45;&gt;CoreModule -->
<g id="edge3" class="edge">
<title>StoreModule&#45;&gt;CoreModule</title>
<path fill="none" stroke="black" d="M236.58,-84.91C236.58,-84.91 236.58,-103.79 236.58,-103.79"/>
<polygon fill="black" stroke="black" points="233.08,-103.79 236.58,-113.79 240.08,-103.79 233.08,-103.79"/>
</g>
<!-- ThemingModule -->
<g id="node4" class="node">
<title>ThemingModule</title>
<polygon fill="#8dd3c7" stroke="black" points="134.1,-84.8 131.1,-88.8 110.1,-88.8 107.1,-84.8 23.9,-84.8 23.9,-48.8 134.1,-48.8 134.1,-84.8"/>
<text text-anchor="middle" x="79" y="-62.6" font-family="Times,serif" font-size="14.00">ThemingModule</text>
</g>
<!-- ThemingModule&#45;&gt;CoreModule -->
<g id="edge4" class="edge">
<title>ThemingModule&#45;&gt;CoreModule</title>
<path fill="none" stroke="black" d="M79,-84.91C79,-104.14 79,-131.8 79,-131.8 79,-131.8 221.5,-131.8 221.5,-131.8"/>
<polygon fill="black" stroke="black" points="221.5,-135.3 231.5,-131.8 221.5,-128.3 221.5,-135.3"/>
</g>
<!-- HeaderModule  -->
<g id="node6" class="node">
<title>HeaderModule </title>
<polygon fill="#fb8072" stroke="black" points="326.96,-214.8 223.04,-214.8 223.04,-178.8 326.96,-178.8 326.96,-214.8"/>
<text text-anchor="middle" x="275" y="-192.6" font-family="Times,serif" font-size="14.00">HeaderModule </text>
</g>
<!-- CoreModule&#45;&gt;HeaderModule  -->
<g id="edge5" class="edge">
<title>CoreModule&#45;&gt;HeaderModule </title>
<path fill="none" stroke="black" stroke-dasharray="5,2" d="M275,-149.91C275,-149.91 275,-168.79 275,-168.79"/>
<polygon fill="black" stroke="black" points="271.5,-168.79 275,-178.79 278.5,-168.79 271.5,-168.79"/>
</g>
</g>
</svg>
