<svg xmlns="http://www.w3.org/2000/svg" viewBox="0 0 30 30"><g id="ureter_right" data-name="ureter right"><path d="M26.57,16.93l1.6-1.61h0l-.39-.4-.9-.9-1.59,1.59a2.18,2.18,0,0,1-1.68.6,9.19,9.19,0,0,0-8.53,0,2.22,2.22,0,0,1-1.49-.53l-.46-.45-.47-.47c-.22-.23-.43-.46-.63-.71a10.6,10.6,0,0,1-1.88-5A8.8,8.8,0,0,0,5.47,2.29,1,1,0,0,0,4.46,4,5.5,5.5,0,0,1,7,6.55a12,12,0,0,1,1.41,4.34,10.6,10.6,0,0,0,2.17,4.59,18.4,18.4,0,0,0,2,2,2.33,2.33,0,0,1,.22.86,4.27,4.27,0,0,0-.64,2.22c0,2.44,2.19,4.51,5.19,5.16A3.07,3.07,0,0,1,18.45,28l1.83,0a3.06,3.06,0,0,1,1.13-2.35,8.87,8.87,0,0,0,.92-.25h0c2.5-.84,4.24-2.71,4.24-4.89A4.88,4.88,0,0,0,26,18.39,2.18,2.18,0,0,1,26.57,16.93Z"/></g></svg>