<?xml version="1.0" encoding="UTF-8"?>
<svg xmlns="http://www.w3.org/2000/svg" viewBox="0 0 30 30">
  <defs>
    <style>
      .cls-1-main-bronchus {
        stroke-miterlimit: 10;
      }

      .cls-1-main-bronchus, .cls-2-main-bronchus, .cls-3-main-bronchus {
        stroke: currentColor;
      }

      .cls-1-main-bronchus, .cls-3-main-bronchus {
        fill: #fff;
        stroke-width: .5px;
      }

      .cls-2-main-bronchus {
        fill: currentColor;
      }

      .cls-2-main-bronchus, .cls-3-main-bronchus {
        stroke-linecap: round;
        stroke-linejoin: round;
      }
    </style>
  </defs>
  <g id="trachea">
    <path class="cls-3-main-bronchus" d="m17.85,11.93l-.15-7.01s-1.25.06-2.05.13c-.76.06-2.66.02-2.66.02l-2.18-.14.09,7.01c0,1.86,6.95,1.85,6.95,0Z"/>
  </g>
  <g id="extrapulmonary_vessels" data-name="extrapulmonary vessels">
    <path class="cls-2-main-bronchus" d="m25.02,25.24c-.59-1.03-1.55-2.11-1.02-2.64.45-.46.91-.15,1.34-.03.2.06.73.52,1.11-.26.55-1.11-.14-1.51-.64-1.74-1.2-.55-2.85-.88-3.66-1.77-1.98-2.18-3.81-5.44-3.81-7.7l-1.58,1.53s-1.53,1.46-2.19,1.59c-.63.13-2.29-.88-2.29-.88l-1.83-2.52c-1.11,3.4-4.56,11.07-7.87,12.18,0,0-.43,1.04.32,2.07s2.06,1.03,2.06,1.03c0,0,5.78-9.03,9.05-9.12,3.26-.09,7.68,10.16,7.68,10.16,0,0,1.34.04,2.15-.43s1.19-1.48,1.19-1.48Z"/>
    <path class="cls-1-main-bronchus" d="m9.62,17.05c-.77-.69-1.13-1.62-1.04-2.45-.4.09-.77.28-1.05.59-.84.94-.58,2.54.57,3.56,1.15,1.02,2.76,1.09,3.6.15.28-.31.42-.7.47-1.11-.81.19-1.78-.06-2.55-.75Z"/>
    <path class="cls-1-main-bronchus" d="m7.05,20.51c-.61-.55-.88-1.31-.79-1.98-.33.08-.63.24-.86.5-.7.78-.53,2.08.38,2.9s2.22.85,2.92.07c.23-.26.36-.58.41-.91-.66.16-1.45-.02-2.06-.57Z"/>
    <path class="cls-1-main-bronchus" d="m4.93,23.3c-.5-.57-.64-1.33-.44-1.98-.33.06-.66.19-.92.43-.81.71-.86,1.99-.11,2.84.75.86,2.02.97,2.83.26.27-.24.45-.54.55-.86-.67.12-1.41-.12-1.91-.69Z"/>
    <path class="cls-1-main-bronchus" d="m18.23,17.18c-.82.7-1.81.99-2.6.85,0,.4.12.76.36,1.05.74.87,2.34.72,3.58-.33,1.23-1.05,1.63-2.61.89-3.48-.25-.29-.59-.45-.98-.52.01.8-.43,1.72-1.25,2.43Z"/>
    <path class="cls-1-main-bronchus" d="m19.97,19.52c-.82.7-1.71,1-2.51.85.01.4.02.76.28,1.06.76.89,2.38.76,3.61-.29,1.23-1.05,1.62-2.63.86-3.52-.25-.3-.6-.47-1-.54.02.81-.41,1.74-1.24,2.45Z"/>
    <path class="cls-1-main-bronchus" d="m21.85,21.74c-.85.88-1.81,1.42-2.54,1.52-.03.36.04.67.24.87.62.6,2.15.01,3.42-1.31,1.27-1.32,1.79-2.87,1.17-3.47-.21-.2-.52-.26-.88-.21-.06.74-.57,1.72-1.41,2.6Z"/>
    <path class="cls-1-main-bronchus" d="m25.38,21.57c-.23.56-.63.96-1.04,1.1.09.19.23.34.41.42.55.23,1.32-.38,1.66-1.21s.14-1.58-.41-1.81c-.18-.08-.38-.07-.58,0,.19.38.19.95-.04,1.51Z"/>
    <path class="cls-1-main-bronchus" d="m22.78,25.21c-.84.43-1.69.57-2.27.41-.1.28-.12.54,0,.76.34.66,1.64.67,2.9.02,1.26-.65,2-1.71,1.66-2.38-.11-.22-.34-.36-.63-.44-.21.56-.81,1.18-1.65,1.61Z"/>
    <path class="cls-1-main-bronchus" d="m14.19,13.4c-1.69,0-3.35-3.04-3.95-2.8-.36.14-.76.46-.89,1.25-.16,1,1.76,1,2.68,2.73.66,1.25,1.4,3.28,2.6,3.29,1.27.02,1.62-1.63,2.48-3.29,1.05-2.02,2.16-1.97,2.05-2.89-.07-.63-.54-1.19-1.02-1.09-.78.43-2.26,2.8-3.95,2.8Z"/>
  </g>
</svg>