<svg xmlns="http://www.w3.org/2000/svg" viewBox="0 0 30 30"><defs><style>.cls-1{fill:none;}</style></defs><g id="skin"><g id="Layer_25_copy" data-name="Layer 25 copy"><circle cx="10.05" cy="22.14" r="0.5"/><circle cx="5.22" cy="22.14" r="0.5"/><circle cx="19.7" cy="22.14" r="0.5"/><circle cx="24.53" cy="22.14" r="0.5"/><circle cx="14.88" cy="22.14" r="0.5"/><circle cx="10.05" cy="25.14" r="0.5"/><circle cx="5.22" cy="25.14" r="0.5"/><circle cx="19.7" cy="25.14" r="0.5"/><circle cx="24.53" cy="25.14" r="0.5"/><circle cx="14.88" cy="25.14" r="0.5"/><path d="M26.89,19.06A3,3,0,0,0,24.76,18a3,3,0,0,0-1.46.45,2.28,2.28,0,0,1-1.11.36,2.07,2.07,0,0,1-1.06-.36A3,3,0,0,0,19.62,18c-.61,0-1.85.82-2.23.82a2,2,0,0,1-1-.35l-.13-.07a2.54,2.54,0,0,0-1.31-.4,3,3,0,0,0-1.46.45,2.32,2.32,0,0,1-1.12.36,2.13,2.13,0,0,1-1.06-.36A3,3,0,0,0,9.78,18c-.61,0-1.86.82-2.24.82a2,2,0,0,1-1-.35A2.76,2.76,0,0,0,5.12,18a2.78,2.78,0,0,0-2,1.1.54.54,0,0,0,.12.75.5.5,0,0,0,.31.1A.55.55,0,0,0,4,19.72a1.66,1.66,0,0,1,1.15-.67,1.79,1.79,0,0,1,.87.32,3,3,0,0,0,1.55.49,6.33,6.33,0,0,0,1.89-.7,1.37,1.37,0,0,1,.4-.09,1.07,1.07,0,0,1,.44.07l.15.07.33.17a3.08,3.08,0,0,0,1.59.49,2.87,2.87,0,0,0,.68-.09s1.1-.46,1.53-.64a1.51,1.51,0,0,1,.37-.07c.71,0,1.59.79,2.47.79a6.44,6.44,0,0,0,1.89-.7,1.3,1.3,0,0,1,.4-.09,1.13,1.13,0,0,1,.44.07l.14.07.33.17a3.12,3.12,0,0,0,1.6.49,3.31,3.31,0,0,0,1.63-.48,2,2,0,0,1,.94-.32,1.82,1.82,0,0,1,1.25.67.55.55,0,0,0,.44.21.54.54,0,0,0,.34-.12A.55.55,0,0,0,26.89,19.06Z"/><path d="M12,10.68a2.73,2.73,0,0,1,0-.5H3v1h9A2.73,2.73,0,0,1,12,10.68Z"/><path d="M17.94,10.18a4,4,0,0,1,0,.5,4,4,0,0,1,0,.5h9v-1Z"/><path d="M16.92,10.18a2.08,2.08,0,0,1,.07.5,2,2,0,1,1-4,0,2.08,2.08,0,0,1,.07-.5H12a2.73,2.73,0,0,0,0,.5,3,3,0,1,0,6,0,4,4,0,0,0,0-.5Z"/><rect x="2.99" y="15.27" width="24" height="1"/><path d="M17.94,2.67c-.32,0-1.78,1.93-2.8,4.22a9.74,9.74,0,0,0-1.14,4v0h0a1,1,0,1,0,2,0v0h0a9,9,0,0,1-.1-3.66A15.23,15.23,0,0,1,17.94,2.67Z"/></g></g></svg>