<svg xmlns="http://www.w3.org/2000/svg" viewBox="0 0 30 30"><defs><style>.cls-1,.cls-2{fill:none;stroke:currentColor;stroke-linecap:round;}.cls-1{stroke-miterlimit:10;stroke-width:0.75px;}.cls-2{stroke-linejoin:round;stroke-width:2px;stroke-dasharray:2 2 2 2 2 2;}.cls-3{fill:none;}</style></defs><g id="PNS_nueron" data-name="PNS nueron"><line class="cls-1" x1="24.99" y1="27.75" x2="24.26" y2="29"/><path class="cls-1" d="M13.06,12c6.2,1.85,5.77,3,7,4.32,1.61,1.73,1.51,2.84,2.56,5.56.54,1.4.77,6.4,4.41,6.72"/><line class="cls-1" x1="27" y1="26.13" x2="24.26" y2="26.83"/><path class="cls-2" d="M16.93,13.46C20,15.53,21,15.7,23.8,26.13"/><path class="cls-1" d="M6.17,14.63a3.67,3.67,0,0,0-1.63,1.63c-.27.7-.4,1.47-1.81,1.79"/><line class="cls-1" x1="4.57" y1="17.03" x2="5.59" y2="17.68"/><path class="cls-1" d="M5.59,9.82C4.05,10.1,3,8.59,2.35,7.67"/><line class="cls-1" x1="3.72" y1="9.68" x2="2.15" y2="10.29"/><path class="cls-1" d="M10.38,7.17A7.73,7.73,0,0,0,11,4.29c-.08-1.25-.2-2.63-.2-2.63"/><line class="cls-1" x1="11.07" y1="4.74" x2="13.06" y2="2.92"/><line class="cls-1" x1="10.98" y1="3.54" x2="9.15" y2="2.73"/><path class="cls-1" d="M13.67,8.76c1.1-.45,1.57-.53,2.83-1.09s2.39-1,2.39-1"/><line class="cls-1" x1="17.27" y1="7.17" x2="17.13" y2="5.54"/><path class="cls-1" d="M11.07,15.7S13,17.36,13,18.41a3.73,3.73,0,0,0,.88,2"/><line class="cls-1" x1="12.86" y1="18.99" x2="10.45" y2="20.01"/><path d="M5.23,15.32c2.09-.48,5.25-.13,6.84,1.39a6,6,0,0,1,.35-3.15c.25-.68.64-1,1.47-1.34-1.16-1.72.42-3.33,1-3.92-1.89-.3-3.32.83-4.2-1.94C9.32,7.43,7.77,9.21,4.42,9.6A5.83,5.83,0,0,1,5.23,15.32Z"/><path class="cls-3" d="M9.3,10a1.69,1.69,0,0,1,1,1.92C10,12.79,8.6,13,8,12.83s-.85-1-.61-1.81A1.66,1.66,0,0,1,9.3,10Z"/><path class="cls-1" d="M11.77,19.45a2.28,2.28,0,0,1-.57,2.45"/></g></svg>