<svg xmlns="http://www.w3.org/2000/svg" viewBox="0 0 30 30"><defs><style>.cls-1{fill:none;}</style></defs><g id="lung"><path d="M12.91,7.39a1.32,1.32,0,0,0-1.37-1.45,1.9,1.9,0,0,0-1.14.41A5.56,5.56,0,0,0,9.67,7a19.72,19.72,0,0,0-2.46,3A32.21,32.21,0,0,0,4.87,14.2a19.58,19.58,0,0,0-1.64,5.63c-.46,3.32-.2,5.22.75,5.71,1.23.64,6,.21,8.28-1.28a1.35,1.35,0,0,0,.54-.72,3.17,3.17,0,0,0,.11-.7s0-4.7,0-8.31S12.91,7.53,12.91,7.39Z"/><path d="M20,10.44a2.92,2.92,0,0,1-2-2.75V3.07H16V7.69a2.92,2.92,0,0,1-2,2.76v1.66h6Z"/></g></svg>