<svg xmlns="http://www.w3.org/2000/svg" viewBox="0 0 30 30"><g id="ureter_left" data-name="ureter left"><path d="M24.53,2.29A8.8,8.8,0,0,0,19.85,9.1a10.6,10.6,0,0,1-1.88,5c-.2.25-.41.48-.63.71l-.47.47-.46.45a2.22,2.22,0,0,1-1.49.53,8.81,8.81,0,0,0-4.28-1.06,8.88,8.88,0,0,0-4.25,1,2.18,2.18,0,0,1-1.68-.6L3.12,14l-.9.9-.39.4h0l1.6,1.61A2.18,2.18,0,0,1,4,18.39a4.88,4.88,0,0,0-.61,2.16c0,2.18,1.74,4.05,4.24,4.89h0a8.87,8.87,0,0,0,.92.25,3.06,3.06,0,0,1,1.13,2.35l1.83,0a3.07,3.07,0,0,1,1.1-2.31c3-.65,5.19-2.72,5.19-5.16a4.27,4.27,0,0,0-.64-2.22,2.33,2.33,0,0,1,.22-.86,18.4,18.4,0,0,0,2-2,10.6,10.6,0,0,0,2.17-4.59A12,12,0,0,1,23,6.55,5.5,5.5,0,0,1,25.54,4,1,1,0,0,0,24.53,2.29Z"/></g></svg>