{
  "accessors": [
    {
      "name": "ZBrushPolyMesh3D_1_0_positions",
      "componentType": 5126,
      "count": 48000,
      "min": [
        -56.07174301147461,
        -23.04778480529785,
        32.55837631225586
      ],
      "max": [
        -46.74532699584961,
        -12.896391868591309,
        45.67436981201172
      ],
      "type": "VEC3",
      "bufferView": 0,
      "byteOffset": 0
    },
    {
      "name": "ZBrushPolyMesh3D_1_0_texcoords",
      "componentType": 5126,
      "count": 48000,
      "min": [
        0.0009699999936856329,
        0.465719997882843
      ],
      "max": [
        0.7418000102043152,
        0.9990299940109253
      ],
      "type": "VEC2",
      "bufferView": 1,
      "byteOffset": 0
    },
    {
      "name": "ZBrushPolyMesh3D_1_0_indices",
      "componentType": 5123,
      "count": 72000,
      "min": [
        0
      ],
      "max": [
        47999
      ],
      "type": "SCALAR",
      "bufferView": 2,
      "byteOffset": 0
    }
  ],
  "asset": {
    "generator": "obj2gltf",
    "version": "2.0"
  },
  "buffers": [
    {
      "name": "30K_Kidney_Left",
      "byteLength": 1197836,
      "uri": "data:application/octet-stream;base64,"
    }
  ],
  "bufferViews": [
    {
      "name": "bufferView_0",
      "buffer": 0,
      "byteLength": 576000,
      "byteOffset": 0,
      "byteStride": 12,
      "target": 34962
    },
    {
      "name": "bufferView_1",
      "buffer": 0,
      "byteLength": 384000,
      "byteOffset": 576000,
      "byteStride": 8,
      "target": 34962
    },
    {
      "name": "bufferView_2",
      "buffer": 0,
      "byteLength": 144000,
      "byteOffset": 960000,
      "target": 34963
    },
    {
      "buffer": 0,
      "byteOffset": 1104000,
      "byteLength": 80552
    },
    {
      "buffer": 0,
      "byteOffset": 1184552,
      "byteLength": 13283
    }
  ],
  "images": [
    {
      "name": "30K_Kidney_Left",
      "mimeType": "image/jpeg",
      "bufferView": 3
    },
    {
      "name": "30K_Kidney_Left-NM_u0_v0",
      "mimeType": "image/jpeg",
      "bufferView": 4
    }
  ],
  "materials": [
    {
      "name": "defaultMat",
      "pbrMetallicRoughness": {
        "baseColorTexture": {
          "index": 0
        },
        "baseColorFactor": [
          1,
          1,
          1,
          1
        ],
        "metallicFactor": 0,
        "roughnessFactor": 1
      },
      "normalTexture": {
        "index": 1
      },
      "emissiveFactor": [
        0,
        0,
        0
      ],
      "alphaMode": "OPAQUE",
      "doubleSided": false
    }
  ],
  "meshes": [
    {
      "name": "ZBrushPolyMesh3D_1",
      "primitives": [
        {
          "attributes": {
            "POSITION": 0,
            "TEXCOORD_0": 1
          },
          "indices": 2,
          "material": 0,
          "mode": 4
        }
      ]
    }
  ],
  "nodes": [
    {
      "name": "ZBrushPolyMesh3D",
      "mesh": 0
    }
  ],
  "samplers": [
    {
      "magFilter": 9729,
      "minFilter": 9986,
      "wrapS": 10497,
      "wrapT": 10497
    }
  ],
  "scene": 0,
  "scenes": [
    {
      "nodes": [
        0
      ]
    }
  ],
  "textures": [
    {
      "name": "30K_Kidney_Left",
      "sampler": 0,
      "source": 0
    },
    {
      "name": "30K_Kidney_Left-NM_u0_v0",
      "sampler": 0,
      "source": 1
    }
  ]
}
