<?xml version="1.0" encoding="UTF-8" standalone="no"?>
<!DOCTYPE svg PUBLIC "-//W3C//DTD SVG 1.1//EN"
 "http://www.w3.org/Graphics/SVG/1.1/DTD/svg11.dtd">
<!-- Generated by graphviz version 2.47.0 (20210316.0004)
 -->
<!-- Title: dependencies Pages: 1 -->
<svg width="1100pt" height="284pt"
 viewBox="0.00 0.00 1100.00 284.00" xmlns="http://www.w3.org/2000/svg" xmlns:xlink="http://www.w3.org/1999/xlink">
<g id="graph0" class="graph" transform="scale(1 1) rotate(0) translate(4 280)">
<title>dependencies</title>
<polygon fill="white" stroke="transparent" points="-4,4 -4,-280 1096,-280 1096,4 -4,4"/>
<text text-anchor="start" x="525.01" y="-42.4" font-family="Times-12" font-weight="bold" font-size="14.00">Legend</text>
<polygon fill="#ffffb3" stroke="transparent" points="312,-10 312,-30 332,-30 332,-10 312,-10"/>
<text text-anchor="start" x="335.63" y="-15.4" font-family="Times-12" font-size="14.00"> &#160;Declarations</text>
<polygon fill="#8dd3c7" stroke="transparent" points="425,-10 425,-30 445,-30 445,-10 425,-10"/>
<text text-anchor="start" x="448.73" y="-15.4" font-family="Times-12" font-size="14.00"> &#160;Module</text>
<polygon fill="#80b1d3" stroke="transparent" points="511,-10 511,-30 531,-30 531,-10 511,-10"/>
<text text-anchor="start" x="534.78" y="-15.4" font-family="Times-12" font-size="14.00"> &#160;Bootstrap</text>
<polygon fill="#fdb462" stroke="transparent" points="608,-10 608,-30 628,-30 628,-10 608,-10"/>
<text text-anchor="start" x="631.67" y="-15.4" font-family="Times-12" font-size="14.00"> &#160;Providers</text>
<polygon fill="#fb8072" stroke="transparent" points="704,-10 704,-30 724,-30 724,-10 704,-10"/>
<text text-anchor="start" x="727.73" y="-15.4" font-family="Times-12" font-size="14.00"> &#160;Exports</text>
<g id="clust1" class="cluster">
<title>cluster_RightSidebarModule</title>
<polygon fill="none" stroke="black" stroke-dasharray="1,5" points="8,-70 8,-268 1084,-268 1084,-70 8,-70"/>
</g>
<g id="clust2" class="cluster">
<title>cluster_RightSidebarModule_declarations</title>
<polygon fill="none" stroke="black" points="904,-78 904,-130 1076,-130 1076,-78 904,-78"/>
</g>
<g id="clust4" class="cluster">
<title>cluster_RightSidebarModule_imports</title>
<polygon fill="none" stroke="black" points="16,-78 16,-130 896,-130 896,-78 16,-78"/>
</g>
<g id="clust5" class="cluster">
<title>cluster_RightSidebarModule_exports</title>
<polygon fill="none" stroke="black" points="407,-208 407,-260 581,-260 581,-208 407,-208"/>
</g>
<!-- RightSidebarComponent -->
<g id="node1" class="node">
<title>RightSidebarComponent</title>
<polygon fill="#ffffb3" stroke="black" points="1067.71,-122 912.29,-122 912.29,-86 1067.71,-86 1067.71,-122"/>
<text text-anchor="middle" x="990" y="-99.8" font-family="Times,serif" font-size="14.00">RightSidebarComponent</text>
</g>
<!-- RightSidebarModule -->
<g id="node2" class="node">
<title>RightSidebarModule</title>
<polygon fill="#8dd3c7" stroke="black" points="560.93,-187 557.93,-191 536.93,-191 533.93,-187 427.07,-187 427.07,-151 560.93,-151 560.93,-187"/>
<text text-anchor="middle" x="494" y="-164.8" font-family="Times,serif" font-size="14.00">RightSidebarModule</text>
</g>
<!-- RightSidebarComponent&#45;&gt;RightSidebarModule -->
<g id="edge1" class="edge">
<title>RightSidebarComponent&#45;&gt;RightSidebarModule</title>
<path fill="none" stroke="black" d="M990,-122.29C990,-144.21 990,-178 990,-178 990,-178 570.89,-178 570.89,-178"/>
<polygon fill="black" stroke="black" points="570.89,-174.5 560.89,-178 570.89,-181.5 570.89,-174.5"/>
</g>
<!-- RightSidebarComponent  -->
<g id="node9" class="node">
<title>RightSidebarComponent </title>
<polygon fill="#fb8072" stroke="black" points="573.21,-252 414.79,-252 414.79,-216 573.21,-216 573.21,-252"/>
<text text-anchor="middle" x="494" y="-229.8" font-family="Times,serif" font-size="14.00">RightSidebarComponent </text>
</g>
<!-- RightSidebarModule&#45;&gt;RightSidebarComponent  -->
<g id="edge8" class="edge">
<title>RightSidebarModule&#45;&gt;RightSidebarComponent </title>
<path fill="none" stroke="black" stroke-dasharray="5,2" d="M494,-187.11C494,-187.11 494,-205.99 494,-205.99"/>
<polygon fill="black" stroke="black" points="490.5,-205.99 494,-215.99 497.5,-205.99 490.5,-205.99"/>
</g>
<!-- BlockSizeInputModule -->
<g id="node3" class="node">
<title>BlockSizeInputModule</title>
<polygon fill="#8dd3c7" stroke="black" points="888.15,-122 885.15,-126 864.15,-126 861.15,-122 741.85,-122 741.85,-86 888.15,-86 888.15,-122"/>
<text text-anchor="middle" x="815" y="-99.8" font-family="Times,serif" font-size="14.00">BlockSizeInputModule</text>
</g>
<!-- BlockSizeInputModule&#45;&gt;RightSidebarModule -->
<g id="edge2" class="edge">
<title>BlockSizeInputModule&#45;&gt;RightSidebarModule</title>
<path fill="none" stroke="black" d="M815,-122.11C815,-141.34 815,-169 815,-169 815,-169 570.9,-169 570.9,-169"/>
<polygon fill="black" stroke="black" points="570.9,-165.5 560.9,-169 570.9,-172.5 570.9,-165.5"/>
</g>
<!-- ReviewButtonModule -->
<g id="node4" class="node">
<title>ReviewButtonModule</title>
<polygon fill="#8dd3c7" stroke="black" points="723.43,-122 720.43,-126 699.43,-126 696.43,-122 582.57,-122 582.57,-86 723.43,-86 723.43,-122"/>
<text text-anchor="middle" x="653" y="-99.8" font-family="Times,serif" font-size="14.00">ReviewButtonModule</text>
</g>
<!-- ReviewButtonModule&#45;&gt;RightSidebarModule -->
<g id="edge3" class="edge">
<title>ReviewButtonModule&#45;&gt;RightSidebarModule</title>
<path fill="none" stroke="black" d="M653,-122.03C653,-138.4 653,-160 653,-160 653,-160 570.97,-160 570.97,-160"/>
<polygon fill="black" stroke="black" points="570.97,-156.5 560.97,-160 570.97,-163.5 570.97,-156.5"/>
</g>
<!-- RotationSliderModule -->
<g id="node5" class="node">
<title>RotationSliderModule</title>
<polygon fill="#8dd3c7" stroke="black" points="564.71,-122 561.71,-126 540.71,-126 537.71,-122 423.29,-122 423.29,-86 564.71,-86 564.71,-122"/>
<text text-anchor="middle" x="494" y="-99.8" font-family="Times,serif" font-size="14.00">RotationSliderModule</text>
</g>
<!-- RotationSliderModule&#45;&gt;RightSidebarModule -->
<g id="edge4" class="edge">
<title>RotationSliderModule&#45;&gt;RightSidebarModule</title>
<path fill="none" stroke="black" d="M494,-122.11C494,-122.11 494,-140.99 494,-140.99"/>
<polygon fill="black" stroke="black" points="490.5,-140.99 494,-150.99 497.5,-140.99 490.5,-140.99"/>
</g>
<!-- SlicesInputModule -->
<g id="node6" class="node">
<title>SlicesInputModule</title>
<polygon fill="#8dd3c7" stroke="black" points="405.04,-122 402.04,-126 381.04,-126 378.04,-122 282.96,-122 282.96,-86 405.04,-86 405.04,-122"/>
<text text-anchor="middle" x="344" y="-99.8" font-family="Times,serif" font-size="14.00">SlicesInputModule</text>
</g>
<!-- SlicesInputModule&#45;&gt;RightSidebarModule -->
<g id="edge5" class="edge">
<title>SlicesInputModule&#45;&gt;RightSidebarModule</title>
<path fill="none" stroke="black" d="M344,-122.03C344,-138.4 344,-160 344,-160 344,-160 416.9,-160 416.9,-160"/>
<polygon fill="black" stroke="black" points="416.9,-163.5 426.9,-160 416.9,-156.5 416.9,-163.5"/>
</g>
<!-- TagListModule -->
<g id="node7" class="node">
<title>TagListModule</title>
<polygon fill="#8dd3c7" stroke="black" points="264.6,-122 261.6,-126 240.6,-126 237.6,-122 161.4,-122 161.4,-86 264.6,-86 264.6,-122"/>
<text text-anchor="middle" x="213" y="-99.8" font-family="Times,serif" font-size="14.00">TagListModule</text>
</g>
<!-- TagListModule&#45;&gt;RightSidebarModule -->
<g id="edge6" class="edge">
<title>TagListModule&#45;&gt;RightSidebarModule</title>
<path fill="none" stroke="black" d="M213,-122.11C213,-141.34 213,-169 213,-169 213,-169 417.05,-169 417.05,-169"/>
<polygon fill="black" stroke="black" points="417.05,-172.5 427.05,-169 417.05,-165.5 417.05,-172.5"/>
</g>
<!-- TagSearchModule -->
<g id="node8" class="node">
<title>TagSearchModule</title>
<polygon fill="#8dd3c7" stroke="black" points="143.9,-122 140.9,-126 119.9,-126 116.9,-122 24.1,-122 24.1,-86 143.9,-86 143.9,-122"/>
<text text-anchor="middle" x="84" y="-99.8" font-family="Times,serif" font-size="14.00">TagSearchModule</text>
</g>
<!-- TagSearchModule&#45;&gt;RightSidebarModule -->
<g id="edge7" class="edge">
<title>TagSearchModule&#45;&gt;RightSidebarModule</title>
<path fill="none" stroke="black" d="M84,-122.29C84,-144.21 84,-178 84,-178 84,-178 417.21,-178 417.21,-178"/>
<polygon fill="black" stroke="black" points="417.21,-181.5 427.21,-178 417.21,-174.5 417.21,-181.5"/>
</g>
</g>
</svg>
