<?xml version="1.0" encoding="UTF-8" standalone="no"?>
<!DOCTYPE svg PUBLIC "-//W3C//DTD SVG 1.1//EN"
 "http://www.w3.org/Graphics/SVG/1.1/DTD/svg11.dtd">
<!-- Generated by graphviz version 2.47.0 (20210316.0004)
 -->
<!-- Title: dependencies Pages: 1 -->
<svg width="1297pt" height="284pt"
 viewBox="0.00 0.00 1297.00 284.00" xmlns="http://www.w3.org/2000/svg" xmlns:xlink="http://www.w3.org/1999/xlink">
<g id="graph0" class="graph" transform="scale(1 1) rotate(0) translate(4 280)">
<title>dependencies</title>
<polygon fill="white" stroke="transparent" points="-4,4 -4,-280 1293,-280 1293,4 -4,4"/>
<text text-anchor="start" x="623.51" y="-42.4" font-family="Times-12" font-weight="bold" font-size="14.00">Legend</text>
<polygon fill="#ffffb3" stroke="transparent" points="410.5,-10 410.5,-30 430.5,-30 430.5,-10 410.5,-10"/>
<text text-anchor="start" x="434.13" y="-15.4" font-family="Times-12" font-size="14.00"> &#160;Declarations</text>
<polygon fill="#8dd3c7" stroke="transparent" points="523.5,-10 523.5,-30 543.5,-30 543.5,-10 523.5,-10"/>
<text text-anchor="start" x="547.23" y="-15.4" font-family="Times-12" font-size="14.00"> &#160;Module</text>
<polygon fill="#80b1d3" stroke="transparent" points="609.5,-10 609.5,-30 629.5,-30 629.5,-10 609.5,-10"/>
<text text-anchor="start" x="633.28" y="-15.4" font-family="Times-12" font-size="14.00"> &#160;Bootstrap</text>
<polygon fill="#fdb462" stroke="transparent" points="706.5,-10 706.5,-30 726.5,-30 726.5,-10 706.5,-10"/>
<text text-anchor="start" x="730.17" y="-15.4" font-family="Times-12" font-size="14.00"> &#160;Providers</text>
<polygon fill="#fb8072" stroke="transparent" points="802.5,-10 802.5,-30 822.5,-30 822.5,-10 802.5,-10"/>
<text text-anchor="start" x="826.23" y="-15.4" font-family="Times-12" font-size="14.00"> &#160;Exports</text>
<g id="clust1" class="cluster">
<title>cluster_RightSidebarModule</title>
<polygon fill="none" stroke="black" stroke-dasharray="1,5" points="8,-70 8,-268 1281,-268 1281,-70 8,-70"/>
</g>
<g id="clust2" class="cluster">
<title>cluster_RightSidebarModule_declarations</title>
<polygon fill="none" stroke="black" points="1101,-78 1101,-130 1273,-130 1273,-78 1101,-78"/>
</g>
<g id="clust5" class="cluster">
<title>cluster_RightSidebarModule_exports</title>
<polygon fill="none" stroke="black" points="486,-208 486,-260 660,-260 660,-208 486,-208"/>
</g>
<g id="clust4" class="cluster">
<title>cluster_RightSidebarModule_imports</title>
<polygon fill="none" stroke="black" points="16,-78 16,-130 1093,-130 1093,-78 16,-78"/>
</g>
<!-- RightSidebarComponent -->
<g id="node1" class="node">
<title>RightSidebarComponent</title>
<polygon fill="#ffffb3" stroke="black" points="1264.71,-122 1109.29,-122 1109.29,-86 1264.71,-86 1264.71,-122"/>
<text text-anchor="middle" x="1187" y="-99.8" font-family="Times,serif" font-size="14.00">RightSidebarComponent</text>
</g>
<!-- RightSidebarModule -->
<g id="node2" class="node">
<title>RightSidebarModule</title>
<polygon fill="#8dd3c7" stroke="black" points="639.93,-187 636.93,-191 615.93,-191 612.93,-187 506.07,-187 506.07,-151 639.93,-151 639.93,-187"/>
<text text-anchor="middle" x="573" y="-164.8" font-family="Times,serif" font-size="14.00">RightSidebarModule</text>
</g>
<!-- RightSidebarComponent&#45;&gt;RightSidebarModule -->
<g id="edge1" class="edge">
<title>RightSidebarComponent&#45;&gt;RightSidebarModule</title>
<path fill="none" stroke="black" d="M1187,-122.29C1187,-144.21 1187,-178 1187,-178 1187,-178 649.88,-178 649.88,-178"/>
<polygon fill="black" stroke="black" points="649.88,-174.5 639.88,-178 649.88,-181.5 649.88,-174.5"/>
</g>
<!-- RightSidebarComponent  -->
<g id="node10" class="node">
<title>RightSidebarComponent </title>
<polygon fill="#fb8072" stroke="black" points="652.21,-252 493.79,-252 493.79,-216 652.21,-216 652.21,-252"/>
<text text-anchor="middle" x="573" y="-229.8" font-family="Times,serif" font-size="14.00">RightSidebarComponent </text>
</g>
<!-- RightSidebarModule&#45;&gt;RightSidebarComponent  -->
<g id="edge9" class="edge">
<title>RightSidebarModule&#45;&gt;RightSidebarComponent </title>
<path fill="none" stroke="black" stroke-dasharray="5,2" d="M573,-187.11C573,-187.11 573,-205.99 573,-205.99"/>
<polygon fill="black" stroke="black" points="569.5,-205.99 573,-215.99 576.5,-205.99 569.5,-205.99"/>
</g>
<!-- BlockSizeInputModule -->
<g id="node3" class="node">
<title>BlockSizeInputModule</title>
<polygon fill="#8dd3c7" stroke="black" points="1085.15,-122 1082.15,-126 1061.15,-126 1058.15,-122 938.85,-122 938.85,-86 1085.15,-86 1085.15,-122"/>
<text text-anchor="middle" x="1012" y="-99.8" font-family="Times,serif" font-size="14.00">BlockSizeInputModule</text>
</g>
<!-- BlockSizeInputModule&#45;&gt;RightSidebarModule -->
<g id="edge2" class="edge">
<title>BlockSizeInputModule&#45;&gt;RightSidebarModule</title>
<path fill="none" stroke="black" d="M1012,-122.11C1012,-141.34 1012,-169 1012,-169 1012,-169 650.15,-169 650.15,-169"/>
<polygon fill="black" stroke="black" points="650.15,-165.5 640.15,-169 650.15,-172.5 650.15,-165.5"/>
</g>
<!-- RegistrationMetadataModule -->
<g id="node4" class="node">
<title>RegistrationMetadataModule</title>
<polygon fill="#8dd3c7" stroke="black" points="921.07,-122 918.07,-126 897.07,-126 894.07,-122 740.93,-122 740.93,-86 921.07,-86 921.07,-122"/>
<text text-anchor="middle" x="831" y="-99.8" font-family="Times,serif" font-size="14.00">RegistrationMetadataModule</text>
</g>
<!-- RegistrationMetadataModule&#45;&gt;RightSidebarModule -->
<g id="edge3" class="edge">
<title>RegistrationMetadataModule&#45;&gt;RightSidebarModule</title>
<path fill="none" stroke="black" d="M831,-122.03C831,-138.4 831,-160 831,-160 831,-160 649.78,-160 649.78,-160"/>
<polygon fill="black" stroke="black" points="649.78,-156.5 639.78,-160 649.78,-163.5 649.78,-156.5"/>
</g>
<!-- ReviewButtonModule -->
<g id="node5" class="node">
<title>ReviewButtonModule</title>
<polygon fill="#8dd3c7" stroke="black" points="723.43,-122 720.43,-126 699.43,-126 696.43,-122 582.57,-122 582.57,-86 723.43,-86 723.43,-122"/>
<text text-anchor="middle" x="653" y="-99.8" font-family="Times,serif" font-size="14.00">ReviewButtonModule</text>
</g>
<!-- ReviewButtonModule&#45;&gt;RightSidebarModule -->
<g id="edge4" class="edge">
<title>ReviewButtonModule&#45;&gt;RightSidebarModule</title>
<path fill="none" stroke="black" d="M611.25,-122.11C611.25,-122.11 611.25,-140.99 611.25,-140.99"/>
<polygon fill="black" stroke="black" points="607.75,-140.99 611.25,-150.99 614.75,-140.99 607.75,-140.99"/>
</g>
<!-- RotationSliderModule -->
<g id="node6" class="node">
<title>RotationSliderModule</title>
<polygon fill="#8dd3c7" stroke="black" points="564.71,-122 561.71,-126 540.71,-126 537.71,-122 423.29,-122 423.29,-86 564.71,-86 564.71,-122"/>
<text text-anchor="middle" x="494" y="-99.8" font-family="Times,serif" font-size="14.00">RotationSliderModule</text>
</g>
<!-- RotationSliderModule&#45;&gt;RightSidebarModule -->
<g id="edge5" class="edge">
<title>RotationSliderModule&#45;&gt;RightSidebarModule</title>
<path fill="none" stroke="black" d="M535.45,-122.11C535.45,-122.11 535.45,-140.99 535.45,-140.99"/>
<polygon fill="black" stroke="black" points="531.95,-140.99 535.45,-150.99 538.95,-140.99 531.95,-140.99"/>
</g>
<!-- SlicesInputModule -->
<g id="node7" class="node">
<title>SlicesInputModule</title>
<polygon fill="#8dd3c7" stroke="black" points="405.04,-122 402.04,-126 381.04,-126 378.04,-122 282.96,-122 282.96,-86 405.04,-86 405.04,-122"/>
<text text-anchor="middle" x="344" y="-99.8" font-family="Times,serif" font-size="14.00">SlicesInputModule</text>
</g>
<!-- SlicesInputModule&#45;&gt;RightSidebarModule -->
<g id="edge6" class="edge">
<title>SlicesInputModule&#45;&gt;RightSidebarModule</title>
<path fill="none" stroke="black" d="M344,-122.03C344,-138.4 344,-160 344,-160 344,-160 496.15,-160 496.15,-160"/>
<polygon fill="black" stroke="black" points="496.15,-163.5 506.15,-160 496.15,-156.5 496.15,-163.5"/>
</g>
<!-- TagListModule -->
<g id="node8" class="node">
<title>TagListModule</title>
<polygon fill="#8dd3c7" stroke="black" points="264.6,-122 261.6,-126 240.6,-126 237.6,-122 161.4,-122 161.4,-86 264.6,-86 264.6,-122"/>
<text text-anchor="middle" x="213" y="-99.8" font-family="Times,serif" font-size="14.00">TagListModule</text>
</g>
<!-- TagListModule&#45;&gt;RightSidebarModule -->
<g id="edge7" class="edge">
<title>TagListModule&#45;&gt;RightSidebarModule</title>
<path fill="none" stroke="black" d="M213,-122.11C213,-141.34 213,-169 213,-169 213,-169 496.13,-169 496.13,-169"/>
<polygon fill="black" stroke="black" points="496.13,-172.5 506.13,-169 496.13,-165.5 496.13,-172.5"/>
</g>
<!-- TagSearchModule -->
<g id="node9" class="node">
<title>TagSearchModule</title>
<polygon fill="#8dd3c7" stroke="black" points="143.9,-122 140.9,-126 119.9,-126 116.9,-122 24.1,-122 24.1,-86 143.9,-86 143.9,-122"/>
<text text-anchor="middle" x="84" y="-99.8" font-family="Times,serif" font-size="14.00">TagSearchModule</text>
</g>
<!-- TagSearchModule&#45;&gt;RightSidebarModule -->
<g id="edge8" class="edge">
<title>TagSearchModule&#45;&gt;RightSidebarModule</title>
<path fill="none" stroke="black" d="M84,-122.29C84,-144.21 84,-178 84,-178 84,-178 496.03,-178 496.03,-178"/>
<polygon fill="black" stroke="black" points="496.03,-181.5 506.03,-178 496.03,-174.5 496.03,-181.5"/>
</g>
</g>
</svg>
