<?xml version="1.0" encoding="UTF-8" standalone="no"?>
<!DOCTYPE svg PUBLIC "-//W3C//DTD SVG 1.1//EN"
 "http://www.w3.org/Graphics/SVG/1.1/DTD/svg11.dtd">
<!-- Generated by graphviz version 2.47.0 (20210316.0004)
 -->
<!-- Title: dependencies Pages: 1 -->
<svg width="1297pt" height="284pt"
 viewBox="0.00 0.00 1297.00 284.00" xmlns="http://www.w3.org/2000/svg" xmlns:xlink="http://www.w3.org/1999/xlink">
<g id="graph0" class="graph" transform="scale(1 1) rotate(0) translate(4 280)">
<title>dependencies</title>
<polygon fill="white" stroke="transparent" points="-4,4 -4,-280 1293,-280 1293,4 -4,4"/>
<text text-anchor="start" x="623.51" y="-42.4" font-family="Times-12" font-weight="bold" font-size="14.00">Legend</text>
<polygon fill="#ffffb3" stroke="transparent" points="410.5,-10 410.5,-30 430.5,-30 430.5,-10 410.5,-10"/>
<text text-anchor="start" x="434.13" y="-15.4" font-family="Times-12" font-size="14.00"> &#160;Declarations</text>
<polygon fill="#8dd3c7" stroke="transparent" points="523.5,-10 523.5,-30 543.5,-30 543.5,-10 523.5,-10"/>
<text text-anchor="start" x="547.23" y="-15.4" font-family="Times-12" font-size="14.00"> &#160;Module</text>
<polygon fill="#80b1d3" stroke="transparent" points="609.5,-10 609.5,-30 629.5,-30 629.5,-10 609.5,-10"/>
<text text-anchor="start" x="633.28" y="-15.4" font-family="Times-12" font-size="14.00"> &#160;Bootstrap</text>
<polygon fill="#fdb462" stroke="transparent" points="706.5,-10 706.5,-30 726.5,-30 726.5,-10 706.5,-10"/>
<text text-anchor="start" x="730.17" y="-15.4" font-family="Times-12" font-size="14.00"> &#160;Providers</text>
<polygon fill="#fb8072" stroke="transparent" points="802.5,-10 802.5,-30 822.5,-30 822.5,-10 802.5,-10"/>
<text text-anchor="start" x="826.23" y="-15.4" font-family="Times-12" font-size="14.00"> &#160;Exports</text>
<g id="clust1" class="cluster">
<title>cluster_RightSidebarModule</title>
<polygon fill="none" stroke="black" stroke-dasharray="1,5" points="8,-70 8,-268 1281,-268 1281,-70 8,-70"/>
</g>
<g id="clust5" class="cluster">
<title>cluster_RightSidebarModule_exports</title>
<polygon fill="none" stroke="black" points="512,-208 512,-260 686,-260 686,-208 512,-208"/>
</g>
<g id="clust4" class="cluster">
<title>cluster_RightSidebarModule_imports</title>
<polygon fill="none" stroke="black" points="196,-78 196,-130 1273,-130 1273,-78 196,-78"/>
</g>
<g id="clust2" class="cluster">
<title>cluster_RightSidebarModule_declarations</title>
<polygon fill="none" stroke="black" points="16,-78 16,-130 188,-130 188,-78 16,-78"/>
</g>
<!-- RightSidebarComponent -->
<g id="node1" class="node">
<title>RightSidebarComponent</title>
<polygon fill="#ffffb3" stroke="black" points="179.71,-122 24.29,-122 24.29,-86 179.71,-86 179.71,-122"/>
<text text-anchor="middle" x="102" y="-99.8" font-family="Times,serif" font-size="14.00">RightSidebarComponent</text>
</g>
<!-- RightSidebarModule -->
<g id="node2" class="node">
<title>RightSidebarModule</title>
<polygon fill="#8dd3c7" stroke="black" points="665.93,-187 662.93,-191 641.93,-191 638.93,-187 532.07,-187 532.07,-151 665.93,-151 665.93,-187"/>
<text text-anchor="middle" x="599" y="-164.8" font-family="Times,serif" font-size="14.00">RightSidebarModule</text>
</g>
<!-- RightSidebarComponent&#45;&gt;RightSidebarModule -->
<g id="edge1" class="edge">
<title>RightSidebarComponent&#45;&gt;RightSidebarModule</title>
<path fill="none" stroke="black" d="M102,-122.29C102,-144.21 102,-178 102,-178 102,-178 522.23,-178 522.23,-178"/>
<polygon fill="black" stroke="black" points="522.23,-181.5 532.23,-178 522.23,-174.5 522.23,-181.5"/>
</g>
<!-- RightSidebarComponent  -->
<g id="node10" class="node">
<title>RightSidebarComponent </title>
<polygon fill="#fb8072" stroke="black" points="678.21,-252 519.79,-252 519.79,-216 678.21,-216 678.21,-252"/>
<text text-anchor="middle" x="599" y="-229.8" font-family="Times,serif" font-size="14.00">RightSidebarComponent </text>
</g>
<!-- RightSidebarModule&#45;&gt;RightSidebarComponent  -->
<g id="edge9" class="edge">
<title>RightSidebarModule&#45;&gt;RightSidebarComponent </title>
<path fill="none" stroke="black" stroke-dasharray="5,2" d="M599,-187.11C599,-187.11 599,-205.99 599,-205.99"/>
<polygon fill="black" stroke="black" points="595.5,-205.99 599,-215.99 602.5,-205.99 595.5,-205.99"/>
</g>
<!-- BlockSizeInputModule -->
<g id="node3" class="node">
<title>BlockSizeInputModule</title>
<polygon fill="#8dd3c7" stroke="black" points="1265.15,-122 1262.15,-126 1241.15,-126 1238.15,-122 1118.85,-122 1118.85,-86 1265.15,-86 1265.15,-122"/>
<text text-anchor="middle" x="1192" y="-99.8" font-family="Times,serif" font-size="14.00">BlockSizeInputModule</text>
</g>
<!-- BlockSizeInputModule&#45;&gt;RightSidebarModule -->
<g id="edge2" class="edge">
<title>BlockSizeInputModule&#45;&gt;RightSidebarModule</title>
<path fill="none" stroke="black" d="M1192,-122.29C1192,-144.21 1192,-178 1192,-178 1192,-178 675.87,-178 675.87,-178"/>
<polygon fill="black" stroke="black" points="675.87,-174.5 665.87,-178 675.87,-181.5 675.87,-174.5"/>
</g>
<!-- RegistrationMetadataModule -->
<g id="node4" class="node">
<title>RegistrationMetadataModule</title>
<polygon fill="#8dd3c7" stroke="black" points="1101.07,-122 1098.07,-126 1077.07,-126 1074.07,-122 920.93,-122 920.93,-86 1101.07,-86 1101.07,-122"/>
<text text-anchor="middle" x="1011" y="-99.8" font-family="Times,serif" font-size="14.00">RegistrationMetadataModule</text>
</g>
<!-- RegistrationMetadataModule&#45;&gt;RightSidebarModule -->
<g id="edge3" class="edge">
<title>RegistrationMetadataModule&#45;&gt;RightSidebarModule</title>
<path fill="none" stroke="black" d="M1011,-122.11C1011,-141.34 1011,-169 1011,-169 1011,-169 676.11,-169 676.11,-169"/>
<polygon fill="black" stroke="black" points="676.11,-165.5 666.11,-169 676.11,-172.5 676.11,-165.5"/>
</g>
<!-- ReviewButtonModule -->
<g id="node5" class="node">
<title>ReviewButtonModule</title>
<polygon fill="#8dd3c7" stroke="black" points="903.43,-122 900.43,-126 879.43,-126 876.43,-122 762.57,-122 762.57,-86 903.43,-86 903.43,-122"/>
<text text-anchor="middle" x="833" y="-99.8" font-family="Times,serif" font-size="14.00">ReviewButtonModule</text>
</g>
<!-- ReviewButtonModule&#45;&gt;RightSidebarModule -->
<g id="edge4" class="edge">
<title>ReviewButtonModule&#45;&gt;RightSidebarModule</title>
<path fill="none" stroke="black" d="M833,-122.03C833,-138.4 833,-160 833,-160 833,-160 675.74,-160 675.74,-160"/>
<polygon fill="black" stroke="black" points="675.74,-156.5 665.74,-160 675.74,-163.5 675.74,-156.5"/>
</g>
<!-- RotationSliderModule -->
<g id="node6" class="node">
<title>RotationSliderModule</title>
<polygon fill="#8dd3c7" stroke="black" points="744.71,-122 741.71,-126 720.71,-126 717.71,-122 603.29,-122 603.29,-86 744.71,-86 744.71,-122"/>
<text text-anchor="middle" x="674" y="-99.8" font-family="Times,serif" font-size="14.00">RotationSliderModule</text>
</g>
<!-- RotationSliderModule&#45;&gt;RightSidebarModule -->
<g id="edge5" class="edge">
<title>RotationSliderModule&#45;&gt;RightSidebarModule</title>
<path fill="none" stroke="black" d="M634.55,-122.11C634.55,-122.11 634.55,-140.99 634.55,-140.99"/>
<polygon fill="black" stroke="black" points="631.05,-140.99 634.55,-150.99 638.05,-140.99 631.05,-140.99"/>
</g>
<!-- SlicesInputModule -->
<g id="node7" class="node">
<title>SlicesInputModule</title>
<polygon fill="#8dd3c7" stroke="black" points="585.04,-122 582.04,-126 561.04,-126 558.04,-122 462.96,-122 462.96,-86 585.04,-86 585.04,-122"/>
<text text-anchor="middle" x="524" y="-99.8" font-family="Times,serif" font-size="14.00">SlicesInputModule</text>
</g>
<!-- SlicesInputModule&#45;&gt;RightSidebarModule -->
<g id="edge6" class="edge">
<title>SlicesInputModule&#45;&gt;RightSidebarModule</title>
<path fill="none" stroke="black" d="M558.78,-122.11C558.78,-122.11 558.78,-140.99 558.78,-140.99"/>
<polygon fill="black" stroke="black" points="555.28,-140.99 558.78,-150.99 562.28,-140.99 555.28,-140.99"/>
</g>
<!-- TagListModule -->
<g id="node8" class="node">
<title>TagListModule</title>
<polygon fill="#8dd3c7" stroke="black" points="444.6,-122 441.6,-126 420.6,-126 417.6,-122 341.4,-122 341.4,-86 444.6,-86 444.6,-122"/>
<text text-anchor="middle" x="393" y="-99.8" font-family="Times,serif" font-size="14.00">TagListModule</text>
</g>
<!-- TagListModule&#45;&gt;RightSidebarModule -->
<g id="edge7" class="edge">
<title>TagListModule&#45;&gt;RightSidebarModule</title>
<path fill="none" stroke="black" d="M393,-122.03C393,-138.4 393,-160 393,-160 393,-160 522.12,-160 522.12,-160"/>
<polygon fill="black" stroke="black" points="522.12,-163.5 532.12,-160 522.12,-156.5 522.12,-163.5"/>
</g>
<!-- TagSearchModule -->
<g id="node9" class="node">
<title>TagSearchModule</title>
<polygon fill="#8dd3c7" stroke="black" points="323.9,-122 320.9,-126 299.9,-126 296.9,-122 204.1,-122 204.1,-86 323.9,-86 323.9,-122"/>
<text text-anchor="middle" x="264" y="-99.8" font-family="Times,serif" font-size="14.00">TagSearchModule</text>
</g>
<!-- TagSearchModule&#45;&gt;RightSidebarModule -->
<g id="edge8" class="edge">
<title>TagSearchModule&#45;&gt;RightSidebarModule</title>
<path fill="none" stroke="black" d="M264,-122.11C264,-141.34 264,-169 264,-169 264,-169 522.01,-169 522.01,-169"/>
<polygon fill="black" stroke="black" points="522.01,-172.5 532.01,-169 522.01,-165.5 522.01,-172.5"/>
</g>
</g>
</svg>
