<?xml version="1.0" encoding="UTF-8" standalone="no"?>
<!DOCTYPE svg PUBLIC "-//W3C//DTD SVG 1.1//EN"
 "http://www.w3.org/Graphics/SVG/1.1/DTD/svg11.dtd">
<!-- Generated by graphviz version 2.47.0 (20210316.0004)
 -->
<!-- Title: dependencies Pages: 1 -->
<svg width="1100pt" height="284pt"
 viewBox="0.00 0.00 1100.00 284.00" xmlns="http://www.w3.org/2000/svg" xmlns:xlink="http://www.w3.org/1999/xlink">
<g id="graph0" class="graph" transform="scale(1 1) rotate(0) translate(4 280)">
<title>dependencies</title>
<polygon fill="white" stroke="transparent" points="-4,4 -4,-280 1096,-280 1096,4 -4,4"/>
<text text-anchor="start" x="525.01" y="-42.4" font-family="Times-12" font-weight="bold" font-size="14.00">Legend</text>
<polygon fill="#ffffb3" stroke="transparent" points="312,-10 312,-30 332,-30 332,-10 312,-10"/>
<text text-anchor="start" x="335.63" y="-15.4" font-family="Times-12" font-size="14.00"> &#160;Declarations</text>
<polygon fill="#8dd3c7" stroke="transparent" points="425,-10 425,-30 445,-30 445,-10 425,-10"/>
<text text-anchor="start" x="448.73" y="-15.4" font-family="Times-12" font-size="14.00"> &#160;Module</text>
<polygon fill="#80b1d3" stroke="transparent" points="511,-10 511,-30 531,-30 531,-10 511,-10"/>
<text text-anchor="start" x="534.78" y="-15.4" font-family="Times-12" font-size="14.00"> &#160;Bootstrap</text>
<polygon fill="#fdb462" stroke="transparent" points="608,-10 608,-30 628,-30 628,-10 608,-10"/>
<text text-anchor="start" x="631.67" y="-15.4" font-family="Times-12" font-size="14.00"> &#160;Providers</text>
<polygon fill="#fb8072" stroke="transparent" points="704,-10 704,-30 724,-30 724,-10 704,-10"/>
<text text-anchor="start" x="727.73" y="-15.4" font-family="Times-12" font-size="14.00"> &#160;Exports</text>
<g id="clust1" class="cluster">
<title>cluster_RightSidebarModule</title>
<polygon fill="none" stroke="black" stroke-dasharray="1,5" points="8,-70 8,-268 1084,-268 1084,-70 8,-70"/>
</g>
<g id="clust5" class="cluster">
<title>cluster_RightSidebarModule_exports</title>
<polygon fill="none" stroke="black" points="437,-208 437,-260 611,-260 611,-208 437,-208"/>
</g>
<g id="clust4" class="cluster">
<title>cluster_RightSidebarModule_imports</title>
<polygon fill="none" stroke="black" points="196,-78 196,-130 1076,-130 1076,-78 196,-78"/>
</g>
<g id="clust2" class="cluster">
<title>cluster_RightSidebarModule_declarations</title>
<polygon fill="none" stroke="black" points="16,-78 16,-130 188,-130 188,-78 16,-78"/>
</g>
<!-- RightSidebarComponent -->
<g id="node1" class="node">
<title>RightSidebarComponent</title>
<polygon fill="#ffffb3" stroke="black" points="179.71,-122 24.29,-122 24.29,-86 179.71,-86 179.71,-122"/>
<text text-anchor="middle" x="102" y="-99.8" font-family="Times,serif" font-size="14.00">RightSidebarComponent</text>
</g>
<!-- RightSidebarModule -->
<g id="node2" class="node">
<title>RightSidebarModule</title>
<polygon fill="#8dd3c7" stroke="black" points="590.93,-187 587.93,-191 566.93,-191 563.93,-187 457.07,-187 457.07,-151 590.93,-151 590.93,-187"/>
<text text-anchor="middle" x="524" y="-164.8" font-family="Times,serif" font-size="14.00">RightSidebarModule</text>
</g>
<!-- RightSidebarComponent&#45;&gt;RightSidebarModule -->
<g id="edge1" class="edge">
<title>RightSidebarComponent&#45;&gt;RightSidebarModule</title>
<path fill="none" stroke="black" d="M102,-122.29C102,-144.21 102,-178 102,-178 102,-178 447.13,-178 447.13,-178"/>
<polygon fill="black" stroke="black" points="447.13,-181.5 457.13,-178 447.13,-174.5 447.13,-181.5"/>
</g>
<!-- RightSidebarComponent  -->
<g id="node9" class="node">
<title>RightSidebarComponent </title>
<polygon fill="#fb8072" stroke="black" points="603.21,-252 444.79,-252 444.79,-216 603.21,-216 603.21,-252"/>
<text text-anchor="middle" x="524" y="-229.8" font-family="Times,serif" font-size="14.00">RightSidebarComponent </text>
</g>
<!-- RightSidebarModule&#45;&gt;RightSidebarComponent  -->
<g id="edge8" class="edge">
<title>RightSidebarModule&#45;&gt;RightSidebarComponent </title>
<path fill="none" stroke="black" stroke-dasharray="5,2" d="M524,-187.11C524,-187.11 524,-205.99 524,-205.99"/>
<polygon fill="black" stroke="black" points="520.5,-205.99 524,-215.99 527.5,-205.99 520.5,-205.99"/>
</g>
<!-- BlockSizeInputModule -->
<g id="node3" class="node">
<title>BlockSizeInputModule</title>
<polygon fill="#8dd3c7" stroke="black" points="1068.15,-122 1065.15,-126 1044.15,-126 1041.15,-122 921.85,-122 921.85,-86 1068.15,-86 1068.15,-122"/>
<text text-anchor="middle" x="995" y="-99.8" font-family="Times,serif" font-size="14.00">BlockSizeInputModule</text>
</g>
<!-- BlockSizeInputModule&#45;&gt;RightSidebarModule -->
<g id="edge2" class="edge">
<title>BlockSizeInputModule&#45;&gt;RightSidebarModule</title>
<path fill="none" stroke="black" d="M995,-122.29C995,-144.21 995,-178 995,-178 995,-178 600.98,-178 600.98,-178"/>
<polygon fill="black" stroke="black" points="600.98,-174.5 590.98,-178 600.98,-181.5 600.98,-174.5"/>
</g>
<!-- ReviewButtonModule -->
<g id="node4" class="node">
<title>ReviewButtonModule</title>
<polygon fill="#8dd3c7" stroke="black" points="903.43,-122 900.43,-126 879.43,-126 876.43,-122 762.57,-122 762.57,-86 903.43,-86 903.43,-122"/>
<text text-anchor="middle" x="833" y="-99.8" font-family="Times,serif" font-size="14.00">ReviewButtonModule</text>
</g>
<!-- ReviewButtonModule&#45;&gt;RightSidebarModule -->
<g id="edge3" class="edge">
<title>ReviewButtonModule&#45;&gt;RightSidebarModule</title>
<path fill="none" stroke="black" d="M833,-122.11C833,-141.34 833,-169 833,-169 833,-169 601.05,-169 601.05,-169"/>
<polygon fill="black" stroke="black" points="601.05,-165.5 591.05,-169 601.05,-172.5 601.05,-165.5"/>
</g>
<!-- RotationSliderModule -->
<g id="node5" class="node">
<title>RotationSliderModule</title>
<polygon fill="#8dd3c7" stroke="black" points="744.71,-122 741.71,-126 720.71,-126 717.71,-122 603.29,-122 603.29,-86 744.71,-86 744.71,-122"/>
<text text-anchor="middle" x="674" y="-99.8" font-family="Times,serif" font-size="14.00">RotationSliderModule</text>
</g>
<!-- RotationSliderModule&#45;&gt;RightSidebarModule -->
<g id="edge4" class="edge">
<title>RotationSliderModule&#45;&gt;RightSidebarModule</title>
<path fill="none" stroke="black" d="M674,-122.03C674,-138.4 674,-160 674,-160 674,-160 601.1,-160 601.1,-160"/>
<polygon fill="black" stroke="black" points="601.1,-156.5 591.1,-160 601.1,-163.5 601.1,-156.5"/>
</g>
<!-- SlicesInputModule -->
<g id="node6" class="node">
<title>SlicesInputModule</title>
<polygon fill="#8dd3c7" stroke="black" points="585.04,-122 582.04,-126 561.04,-126 558.04,-122 462.96,-122 462.96,-86 585.04,-86 585.04,-122"/>
<text text-anchor="middle" x="524" y="-99.8" font-family="Times,serif" font-size="14.00">SlicesInputModule</text>
</g>
<!-- SlicesInputModule&#45;&gt;RightSidebarModule -->
<g id="edge5" class="edge">
<title>SlicesInputModule&#45;&gt;RightSidebarModule</title>
<path fill="none" stroke="black" d="M524,-122.11C524,-122.11 524,-140.99 524,-140.99"/>
<polygon fill="black" stroke="black" points="520.5,-140.99 524,-150.99 527.5,-140.99 520.5,-140.99"/>
</g>
<!-- TagListModule -->
<g id="node7" class="node">
<title>TagListModule</title>
<polygon fill="#8dd3c7" stroke="black" points="444.6,-122 441.6,-126 420.6,-126 417.6,-122 341.4,-122 341.4,-86 444.6,-86 444.6,-122"/>
<text text-anchor="middle" x="393" y="-99.8" font-family="Times,serif" font-size="14.00">TagListModule</text>
</g>
<!-- TagListModule&#45;&gt;RightSidebarModule -->
<g id="edge6" class="edge">
<title>TagListModule&#45;&gt;RightSidebarModule</title>
<path fill="none" stroke="black" d="M393,-122.03C393,-138.4 393,-160 393,-160 393,-160 446.96,-160 446.96,-160"/>
<polygon fill="black" stroke="black" points="446.97,-163.5 456.96,-160 446.96,-156.5 446.97,-163.5"/>
</g>
<!-- TagSearchModule -->
<g id="node8" class="node">
<title>TagSearchModule</title>
<polygon fill="#8dd3c7" stroke="black" points="323.9,-122 320.9,-126 299.9,-126 296.9,-122 204.1,-122 204.1,-86 323.9,-86 323.9,-122"/>
<text text-anchor="middle" x="264" y="-99.8" font-family="Times,serif" font-size="14.00">TagSearchModule</text>
</g>
<!-- TagSearchModule&#45;&gt;RightSidebarModule -->
<g id="edge7" class="edge">
<title>TagSearchModule&#45;&gt;RightSidebarModule</title>
<path fill="none" stroke="black" d="M264,-122.11C264,-141.34 264,-169 264,-169 264,-169 447.04,-169 447.04,-169"/>
<polygon fill="black" stroke="black" points="447.04,-172.5 457.04,-169 447.04,-165.5 447.04,-172.5"/>
</g>
</g>
</svg>
