<?xml version="1.0" encoding="UTF-8" standalone="no"?>
<!DOCTYPE svg PUBLIC "-//W3C//DTD SVG 1.1//EN"
 "http://www.w3.org/Graphics/SVG/1.1/DTD/svg11.dtd">
<!-- Generated by graphviz version 2.47.0 (20210316.0004)
 -->
<!-- Title: dependencies Pages: 1 -->
<svg width="812pt" height="284pt"
 viewBox="0.00 0.00 812.00 284.00" xmlns="http://www.w3.org/2000/svg" xmlns:xlink="http://www.w3.org/1999/xlink">
<g id="graph0" class="graph" transform="scale(1 1) rotate(0) translate(4 280)">
<title>dependencies</title>
<polygon fill="white" stroke="transparent" points="-4,4 -4,-280 808,-280 808,4 -4,4"/>
<text text-anchor="start" x="381.01" y="-42.4" font-family="Times-12" font-weight="bold" font-size="14.00">Legend</text>
<polygon fill="#ffffb3" stroke="transparent" points="168,-10 168,-30 188,-30 188,-10 168,-10"/>
<text text-anchor="start" x="191.63" y="-15.4" font-family="Times-12" font-size="14.00"> &#160;Declarations</text>
<polygon fill="#8dd3c7" stroke="transparent" points="281,-10 281,-30 301,-30 301,-10 281,-10"/>
<text text-anchor="start" x="304.73" y="-15.4" font-family="Times-12" font-size="14.00"> &#160;Module</text>
<polygon fill="#80b1d3" stroke="transparent" points="367,-10 367,-30 387,-30 387,-10 367,-10"/>
<text text-anchor="start" x="390.78" y="-15.4" font-family="Times-12" font-size="14.00"> &#160;Bootstrap</text>
<polygon fill="#fdb462" stroke="transparent" points="464,-10 464,-30 484,-30 484,-10 464,-10"/>
<text text-anchor="start" x="487.67" y="-15.4" font-family="Times-12" font-size="14.00"> &#160;Providers</text>
<polygon fill="#fb8072" stroke="transparent" points="560,-10 560,-30 580,-30 580,-10 560,-10"/>
<text text-anchor="start" x="583.73" y="-15.4" font-family="Times-12" font-size="14.00"> &#160;Exports</text>
<g id="clust1" class="cluster">
<title>cluster_FiltersContentModule</title>
<polygon fill="none" stroke="black" stroke-dasharray="1,5" points="8,-70 8,-268 796,-268 796,-70 8,-70"/>
</g>
<g id="clust5" class="cluster">
<title>cluster_FiltersContentModule_exports</title>
<polygon fill="none" stroke="black" points="358,-208 358,-260 538,-260 538,-208 358,-208"/>
</g>
<g id="clust4" class="cluster">
<title>cluster_FiltersContentModule_imports</title>
<polygon fill="none" stroke="black" points="202,-78 202,-130 788,-130 788,-78 202,-78"/>
</g>
<g id="clust2" class="cluster">
<title>cluster_FiltersContentModule_declarations</title>
<polygon fill="none" stroke="black" points="16,-78 16,-130 194,-130 194,-78 16,-78"/>
</g>
<!-- FiltersContentComponent -->
<g id="node1" class="node">
<title>FiltersContentComponent</title>
<polygon fill="#ffffb3" stroke="black" points="185.94,-122 24.06,-122 24.06,-86 185.94,-86 185.94,-122"/>
<text text-anchor="middle" x="105" y="-99.8" font-family="Times,serif" font-size="14.00">FiltersContentComponent</text>
</g>
<!-- FiltersContentModule -->
<g id="node2" class="node">
<title>FiltersContentModule</title>
<polygon fill="#8dd3c7" stroke="black" points="517.66,-187 514.66,-191 493.66,-191 490.66,-187 378.34,-187 378.34,-151 517.66,-151 517.66,-187"/>
<text text-anchor="middle" x="448" y="-164.8" font-family="Times,serif" font-size="14.00">FiltersContentModule</text>
</g>
<!-- FiltersContentComponent&#45;&gt;FiltersContentModule -->
<g id="edge1" class="edge">
<title>FiltersContentComponent&#45;&gt;FiltersContentModule</title>
<path fill="none" stroke="black" d="M105,-122.11C105,-141.34 105,-169 105,-169 105,-169 368.18,-169 368.18,-169"/>
<polygon fill="black" stroke="black" points="368.18,-172.5 378.18,-169 368.18,-165.5 368.18,-172.5"/>
</g>
<!-- FiltersContentComponent  -->
<g id="node7" class="node">
<title>FiltersContentComponent </title>
<polygon fill="#fb8072" stroke="black" points="530.44,-252 365.56,-252 365.56,-216 530.44,-216 530.44,-252"/>
<text text-anchor="middle" x="448" y="-229.8" font-family="Times,serif" font-size="14.00">FiltersContentComponent </text>
</g>
<!-- FiltersContentModule&#45;&gt;FiltersContentComponent  -->
<g id="edge6" class="edge">
<title>FiltersContentModule&#45;&gt;FiltersContentComponent </title>
<path fill="none" stroke="black" stroke-dasharray="5,2" d="M448,-187.11C448,-187.11 448,-205.99 448,-205.99"/>
<polygon fill="black" stroke="black" points="444.5,-205.99 448,-215.99 451.5,-205.99 444.5,-205.99"/>
</g>
<!-- CheckboxModule -->
<g id="node3" class="node">
<title>CheckboxModule</title>
<polygon fill="#8dd3c7" stroke="black" points="780.32,-122 777.32,-126 756.32,-126 753.32,-122 663.68,-122 663.68,-86 780.32,-86 780.32,-122"/>
<text text-anchor="middle" x="722" y="-99.8" font-family="Times,serif" font-size="14.00">CheckboxModule</text>
</g>
<!-- CheckboxModule&#45;&gt;FiltersContentModule -->
<g id="edge2" class="edge">
<title>CheckboxModule&#45;&gt;FiltersContentModule</title>
<path fill="none" stroke="black" d="M722,-122.11C722,-141.34 722,-169 722,-169 722,-169 527.85,-169 527.85,-169"/>
<polygon fill="black" stroke="black" points="527.85,-165.5 517.85,-169 527.85,-172.5 527.85,-165.5"/>
</g>
<!-- DropdownModule -->
<g id="node4" class="node">
<title>DropdownModule</title>
<polygon fill="#8dd3c7" stroke="black" points="645.92,-122 642.92,-126 621.92,-126 618.92,-122 526.08,-122 526.08,-86 645.92,-86 645.92,-122"/>
<text text-anchor="middle" x="586" y="-99.8" font-family="Times,serif" font-size="14.00">DropdownModule</text>
</g>
<!-- DropdownModule&#45;&gt;FiltersContentModule -->
<g id="edge3" class="edge">
<title>DropdownModule&#45;&gt;FiltersContentModule</title>
<path fill="none" stroke="black" d="M526.02,-104C518.27,-104 512.96,-104 512.96,-104 512.96,-104 512.96,-140.89 512.96,-140.89"/>
<polygon fill="black" stroke="black" points="509.46,-140.89 512.96,-150.89 516.46,-140.89 509.46,-140.89"/>
</g>
<!-- DualSliderModule -->
<g id="node5" class="node">
<title>DualSliderModule</title>
<polygon fill="#8dd3c7" stroke="black" points="508.2,-122 505.2,-126 484.2,-126 481.2,-122 387.8,-122 387.8,-86 508.2,-86 508.2,-122"/>
<text text-anchor="middle" x="448" y="-99.8" font-family="Times,serif" font-size="14.00">DualSliderModule</text>
</g>
<!-- DualSliderModule&#45;&gt;FiltersContentModule -->
<g id="edge4" class="edge">
<title>DualSliderModule&#45;&gt;FiltersContentModule</title>
<path fill="none" stroke="black" d="M448,-122.11C448,-122.11 448,-140.99 448,-140.99"/>
<polygon fill="black" stroke="black" points="444.5,-140.99 448,-150.99 451.5,-140.99 444.5,-140.99"/>
</g>
<!-- RunSpatialSearchModule -->
<g id="node6" class="node">
<title>RunSpatialSearchModule</title>
<polygon fill="#8dd3c7" stroke="black" points="369.86,-122 366.86,-126 345.86,-126 342.86,-122 210.14,-122 210.14,-86 369.86,-86 369.86,-122"/>
<text text-anchor="middle" x="290" y="-99.8" font-family="Times,serif" font-size="14.00">RunSpatialSearchModule</text>
</g>
<!-- RunSpatialSearchModule&#45;&gt;FiltersContentModule -->
<g id="edge5" class="edge">
<title>RunSpatialSearchModule&#45;&gt;FiltersContentModule</title>
<path fill="none" stroke="black" d="M370.1,-104C377.93,-104 383.04,-104 383.04,-104 383.04,-104 383.04,-140.89 383.04,-140.89"/>
<polygon fill="black" stroke="black" points="379.54,-140.89 383.04,-150.89 386.54,-140.89 379.54,-140.89"/>
</g>
</g>
</svg>
