<?xml version="1.0" encoding="UTF-8" standalone="no"?>
<!DOCTYPE svg PUBLIC "-//W3C//DTD SVG 1.1//EN"
 "http://www.w3.org/Graphics/SVG/1.1/DTD/svg11.dtd">
<!-- Generated by graphviz version 2.47.3 (20210619.1520)
 -->
<!-- Title: dependencies Pages: 1 -->
<svg width="812pt" height="247pt"
 viewBox="0.00 0.00 812.00 246.80" xmlns="http://www.w3.org/2000/svg" xmlns:xlink="http://www.w3.org/1999/xlink">
<g id="graph0" class="graph" transform="scale(1 1) rotate(0) translate(4 242.8)">
<title>dependencies</title>
<polygon fill="white" stroke="transparent" points="-4,4 -4,-242.8 808,-242.8 808,4 -4,4"/>
<text text-anchor="middle" x="402" y="-8.2" font-family="sans-serif" font-size="14.00">dependencies</text>
<g id="clust1" class="cluster">
<title>cluster_FiltersContentModule</title>
<polygon fill="none" stroke="black" stroke-dasharray="1,5" points="8,-32.8 8,-230.8 796,-230.8 796,-32.8 8,-32.8"/>
</g>
<g id="clust2" class="cluster">
<title>cluster_FiltersContentModule_declarations</title>
<polygon fill="none" stroke="black" points="610,-40.8 610,-92.8 788,-92.8 788,-40.8 610,-40.8"/>
</g>
<g id="clust4" class="cluster">
<title>cluster_FiltersContentModule_imports</title>
<polygon fill="none" stroke="black" points="16,-40.8 16,-92.8 602,-92.8 602,-40.8 16,-40.8"/>
</g>
<g id="clust5" class="cluster">
<title>cluster_FiltersContentModule_exports</title>
<polygon fill="none" stroke="black" points="310,-170.8 310,-222.8 490,-222.8 490,-170.8 310,-170.8"/>
</g>
<!-- FiltersContentComponent -->
<g id="node1" class="node">
<title>FiltersContentComponent</title>
<polygon fill="#ffffb3" stroke="black" points="779.94,-84.8 618.06,-84.8 618.06,-48.8 779.94,-48.8 779.94,-84.8"/>
<text text-anchor="middle" x="699" y="-62.6" font-family="Times,serif" font-size="14.00">FiltersContentComponent</text>
</g>
<!-- FiltersContentModule -->
<g id="node2" class="node">
<title>FiltersContentModule</title>
<polygon fill="#8dd3c7" stroke="black" points="469.66,-149.8 466.66,-153.8 445.66,-153.8 442.66,-149.8 330.34,-149.8 330.34,-113.8 469.66,-113.8 469.66,-149.8"/>
<text text-anchor="middle" x="400" y="-127.6" font-family="Times,serif" font-size="14.00">FiltersContentModule</text>
</g>
<!-- FiltersContentComponent&#45;&gt;FiltersContentModule -->
<g id="edge1" class="edge">
<title>FiltersContentComponent&#45;&gt;FiltersContentModule</title>
<path fill="none" stroke="black" d="M699,-84.91C699,-104.14 699,-131.8 699,-131.8 699,-131.8 479.72,-131.8 479.72,-131.8"/>
<polygon fill="black" stroke="black" points="479.72,-128.3 469.72,-131.8 479.72,-135.3 479.72,-128.3"/>
</g>
<!-- FiltersContentComponent  -->
<g id="node7" class="node">
<title>FiltersContentComponent </title>
<polygon fill="#fb8072" stroke="black" points="482.44,-214.8 317.56,-214.8 317.56,-178.8 482.44,-178.8 482.44,-214.8"/>
<text text-anchor="middle" x="400" y="-192.6" font-family="Times,serif" font-size="14.00">FiltersContentComponent </text>
</g>
<!-- FiltersContentModule&#45;&gt;FiltersContentComponent  -->
<g id="edge6" class="edge">
<title>FiltersContentModule&#45;&gt;FiltersContentComponent </title>
<path fill="none" stroke="black" stroke-dasharray="5,2" d="M400,-149.91C400,-149.91 400,-168.79 400,-168.79"/>
<polygon fill="black" stroke="black" points="396.5,-168.79 400,-178.79 403.5,-168.79 396.5,-168.79"/>
</g>
<!-- CheckboxModule -->
<g id="node3" class="node">
<title>CheckboxModule</title>
<polygon fill="#8dd3c7" stroke="black" points="594.32,-84.8 591.32,-88.8 570.32,-88.8 567.32,-84.8 477.68,-84.8 477.68,-48.8 594.32,-48.8 594.32,-84.8"/>
<text text-anchor="middle" x="536" y="-62.6" font-family="Times,serif" font-size="14.00">CheckboxModule</text>
</g>
<!-- CheckboxModule&#45;&gt;FiltersContentModule -->
<g id="edge2" class="edge">
<title>CheckboxModule&#45;&gt;FiltersContentModule</title>
<path fill="none" stroke="black" d="M477.83,-66.8C470.1,-66.8 464.77,-66.8 464.77,-66.8 464.77,-66.8 464.77,-103.69 464.77,-103.69"/>
<polygon fill="black" stroke="black" points="461.27,-103.69 464.77,-113.69 468.27,-103.69 461.27,-103.69"/>
</g>
<!-- DropdownModule -->
<g id="node4" class="node">
<title>DropdownModule</title>
<polygon fill="#8dd3c7" stroke="black" points="459.92,-84.8 456.92,-88.8 435.92,-88.8 432.92,-84.8 340.08,-84.8 340.08,-48.8 459.92,-48.8 459.92,-84.8"/>
<text text-anchor="middle" x="400" y="-62.6" font-family="Times,serif" font-size="14.00">DropdownModule</text>
</g>
<!-- DropdownModule&#45;&gt;FiltersContentModule -->
<g id="edge3" class="edge">
<title>DropdownModule&#45;&gt;FiltersContentModule</title>
<path fill="none" stroke="black" d="M400,-84.91C400,-84.91 400,-103.79 400,-103.79"/>
<polygon fill="black" stroke="black" points="396.5,-103.79 400,-113.79 403.5,-103.79 396.5,-103.79"/>
</g>
<!-- DualSliderModule -->
<g id="node5" class="node">
<title>DualSliderModule</title>
<polygon fill="#8dd3c7" stroke="black" points="322.2,-84.8 319.2,-88.8 298.2,-88.8 295.2,-84.8 201.8,-84.8 201.8,-48.8 322.2,-48.8 322.2,-84.8"/>
<text text-anchor="middle" x="262" y="-62.6" font-family="Times,serif" font-size="14.00">DualSliderModule</text>
</g>
<!-- DualSliderModule&#45;&gt;FiltersContentModule -->
<g id="edge4" class="edge">
<title>DualSliderModule&#45;&gt;FiltersContentModule</title>
<path fill="none" stroke="black" d="M322.14,-66.8C329.91,-66.8 335.23,-66.8 335.23,-66.8 335.23,-66.8 335.23,-103.69 335.23,-103.69"/>
<polygon fill="black" stroke="black" points="331.73,-103.69 335.23,-113.69 338.73,-103.69 331.73,-103.69"/>
</g>
<!-- RunSpatialSearchModule -->
<g id="node6" class="node">
<title>RunSpatialSearchModule</title>
<polygon fill="#8dd3c7" stroke="black" points="183.86,-84.8 180.86,-88.8 159.86,-88.8 156.86,-84.8 24.14,-84.8 24.14,-48.8 183.86,-48.8 183.86,-84.8"/>
<text text-anchor="middle" x="104" y="-62.6" font-family="Times,serif" font-size="14.00">RunSpatialSearchModule</text>
</g>
<!-- RunSpatialSearchModule&#45;&gt;FiltersContentModule -->
<g id="edge5" class="edge">
<title>RunSpatialSearchModule&#45;&gt;FiltersContentModule</title>
<path fill="none" stroke="black" d="M104,-84.91C104,-104.14 104,-131.8 104,-131.8 104,-131.8 320.23,-131.8 320.23,-131.8"/>
<polygon fill="black" stroke="black" points="320.23,-135.3 330.23,-131.8 320.23,-128.3 320.23,-135.3"/>
</g>
</g>
</svg>
