<?xml version="1.0" encoding="UTF-8" standalone="no"?>
<!DOCTYPE svg PUBLIC "-//W3C//DTD SVG 1.1//EN"
 "http://www.w3.org/Graphics/SVG/1.1/DTD/svg11.dtd">
<!-- Generated by graphviz version 2.47.0 (20210316.0004)
 -->
<!-- Title: dependencies Pages: 1 -->
<svg width="812pt" height="284pt"
 viewBox="0.00 0.00 812.00 284.00" xmlns="http://www.w3.org/2000/svg" xmlns:xlink="http://www.w3.org/1999/xlink">
<g id="graph0" class="graph" transform="scale(1 1) rotate(0) translate(4 280)">
<title>dependencies</title>
<polygon fill="white" stroke="transparent" points="-4,4 -4,-280 808,-280 808,4 -4,4"/>
<text text-anchor="start" x="381.01" y="-42.4" font-family="Times-12" font-weight="bold" font-size="14.00">Legend</text>
<polygon fill="#ffffb3" stroke="transparent" points="168,-10 168,-30 188,-30 188,-10 168,-10"/>
<text text-anchor="start" x="191.63" y="-15.4" font-family="Times-12" font-size="14.00"> &#160;Declarations</text>
<polygon fill="#8dd3c7" stroke="transparent" points="281,-10 281,-30 301,-30 301,-10 281,-10"/>
<text text-anchor="start" x="304.73" y="-15.4" font-family="Times-12" font-size="14.00"> &#160;Module</text>
<polygon fill="#80b1d3" stroke="transparent" points="367,-10 367,-30 387,-30 387,-10 367,-10"/>
<text text-anchor="start" x="390.78" y="-15.4" font-family="Times-12" font-size="14.00"> &#160;Bootstrap</text>
<polygon fill="#fdb462" stroke="transparent" points="464,-10 464,-30 484,-30 484,-10 464,-10"/>
<text text-anchor="start" x="487.67" y="-15.4" font-family="Times-12" font-size="14.00"> &#160;Providers</text>
<polygon fill="#fb8072" stroke="transparent" points="560,-10 560,-30 580,-30 580,-10 560,-10"/>
<text text-anchor="start" x="583.73" y="-15.4" font-family="Times-12" font-size="14.00"> &#160;Exports</text>
<g id="clust1" class="cluster">
<title>cluster_FiltersContentModule</title>
<polygon fill="none" stroke="black" stroke-dasharray="1,5" points="8,-70 8,-268 796,-268 796,-70 8,-70"/>
</g>
<g id="clust2" class="cluster">
<title>cluster_FiltersContentModule_declarations</title>
<polygon fill="none" stroke="black" points="610,-78 610,-130 788,-130 788,-78 610,-78"/>
</g>
<g id="clust5" class="cluster">
<title>cluster_FiltersContentModule_exports</title>
<polygon fill="none" stroke="black" points="310,-208 310,-260 490,-260 490,-208 310,-208"/>
</g>
<g id="clust4" class="cluster">
<title>cluster_FiltersContentModule_imports</title>
<polygon fill="none" stroke="black" points="16,-78 16,-130 602,-130 602,-78 16,-78"/>
</g>
<!-- FiltersContentComponent -->
<g id="node1" class="node">
<title>FiltersContentComponent</title>
<polygon fill="#ffffb3" stroke="black" points="779.94,-122 618.06,-122 618.06,-86 779.94,-86 779.94,-122"/>
<text text-anchor="middle" x="699" y="-99.8" font-family="Times,serif" font-size="14.00">FiltersContentComponent</text>
</g>
<!-- FiltersContentModule -->
<g id="node2" class="node">
<title>FiltersContentModule</title>
<polygon fill="#8dd3c7" stroke="black" points="469.66,-187 466.66,-191 445.66,-191 442.66,-187 330.34,-187 330.34,-151 469.66,-151 469.66,-187"/>
<text text-anchor="middle" x="400" y="-164.8" font-family="Times,serif" font-size="14.00">FiltersContentModule</text>
</g>
<!-- FiltersContentComponent&#45;&gt;FiltersContentModule -->
<g id="edge1" class="edge">
<title>FiltersContentComponent&#45;&gt;FiltersContentModule</title>
<path fill="none" stroke="black" d="M699,-122.11C699,-141.34 699,-169 699,-169 699,-169 479.72,-169 479.72,-169"/>
<polygon fill="black" stroke="black" points="479.72,-165.5 469.72,-169 479.72,-172.5 479.72,-165.5"/>
</g>
<!-- FiltersContentComponent  -->
<g id="node7" class="node">
<title>FiltersContentComponent </title>
<polygon fill="#fb8072" stroke="black" points="482.44,-252 317.56,-252 317.56,-216 482.44,-216 482.44,-252"/>
<text text-anchor="middle" x="400" y="-229.8" font-family="Times,serif" font-size="14.00">FiltersContentComponent </text>
</g>
<!-- FiltersContentModule&#45;&gt;FiltersContentComponent  -->
<g id="edge6" class="edge">
<title>FiltersContentModule&#45;&gt;FiltersContentComponent </title>
<path fill="none" stroke="black" stroke-dasharray="5,2" d="M400,-187.11C400,-187.11 400,-205.99 400,-205.99"/>
<polygon fill="black" stroke="black" points="396.5,-205.99 400,-215.99 403.5,-205.99 396.5,-205.99"/>
</g>
<!-- CheckboxModule -->
<g id="node3" class="node">
<title>CheckboxModule</title>
<polygon fill="#8dd3c7" stroke="black" points="594.32,-122 591.32,-126 570.32,-126 567.32,-122 477.68,-122 477.68,-86 594.32,-86 594.32,-122"/>
<text text-anchor="middle" x="536" y="-99.8" font-family="Times,serif" font-size="14.00">CheckboxModule</text>
</g>
<!-- CheckboxModule&#45;&gt;FiltersContentModule -->
<g id="edge2" class="edge">
<title>CheckboxModule&#45;&gt;FiltersContentModule</title>
<path fill="none" stroke="black" d="M477.83,-104C470.1,-104 464.77,-104 464.77,-104 464.77,-104 464.77,-140.89 464.77,-140.89"/>
<polygon fill="black" stroke="black" points="461.27,-140.89 464.77,-150.89 468.27,-140.89 461.27,-140.89"/>
</g>
<!-- DropdownModule -->
<g id="node4" class="node">
<title>DropdownModule</title>
<polygon fill="#8dd3c7" stroke="black" points="459.92,-122 456.92,-126 435.92,-126 432.92,-122 340.08,-122 340.08,-86 459.92,-86 459.92,-122"/>
<text text-anchor="middle" x="400" y="-99.8" font-family="Times,serif" font-size="14.00">DropdownModule</text>
</g>
<!-- DropdownModule&#45;&gt;FiltersContentModule -->
<g id="edge3" class="edge">
<title>DropdownModule&#45;&gt;FiltersContentModule</title>
<path fill="none" stroke="black" d="M400,-122.11C400,-122.11 400,-140.99 400,-140.99"/>
<polygon fill="black" stroke="black" points="396.5,-140.99 400,-150.99 403.5,-140.99 396.5,-140.99"/>
</g>
<!-- DualSliderModule -->
<g id="node5" class="node">
<title>DualSliderModule</title>
<polygon fill="#8dd3c7" stroke="black" points="322.2,-122 319.2,-126 298.2,-126 295.2,-122 201.8,-122 201.8,-86 322.2,-86 322.2,-122"/>
<text text-anchor="middle" x="262" y="-99.8" font-family="Times,serif" font-size="14.00">DualSliderModule</text>
</g>
<!-- DualSliderModule&#45;&gt;FiltersContentModule -->
<g id="edge4" class="edge">
<title>DualSliderModule&#45;&gt;FiltersContentModule</title>
<path fill="none" stroke="black" d="M322.14,-104C329.91,-104 335.23,-104 335.23,-104 335.23,-104 335.23,-140.89 335.23,-140.89"/>
<polygon fill="black" stroke="black" points="331.73,-140.89 335.23,-150.89 338.73,-140.89 331.73,-140.89"/>
</g>
<!-- RunSpatialSearchModule -->
<g id="node6" class="node">
<title>RunSpatialSearchModule</title>
<polygon fill="#8dd3c7" stroke="black" points="183.86,-122 180.86,-126 159.86,-126 156.86,-122 24.14,-122 24.14,-86 183.86,-86 183.86,-122"/>
<text text-anchor="middle" x="104" y="-99.8" font-family="Times,serif" font-size="14.00">RunSpatialSearchModule</text>
</g>
<!-- RunSpatialSearchModule&#45;&gt;FiltersContentModule -->
<g id="edge5" class="edge">
<title>RunSpatialSearchModule&#45;&gt;FiltersContentModule</title>
<path fill="none" stroke="black" d="M104,-122.11C104,-141.34 104,-169 104,-169 104,-169 320.23,-169 320.23,-169"/>
<polygon fill="black" stroke="black" points="320.23,-172.5 330.23,-169 320.23,-165.5 320.23,-172.5"/>
</g>
</g>
</svg>
