<?xml version="1.0" encoding="UTF-8" standalone="no"?>
<!DOCTYPE svg PUBLIC "-//W3C//DTD SVG 1.1//EN"
 "http://www.w3.org/Graphics/SVG/1.1/DTD/svg11.dtd">
<!-- Generated by graphviz version 2.47.3 (20210619.1520)
 -->
<!-- Title: dependencies Pages: 1 -->
<svg width="812pt" height="247pt"
 viewBox="0.00 0.00 812.00 246.80" xmlns="http://www.w3.org/2000/svg" xmlns:xlink="http://www.w3.org/1999/xlink">
<g id="graph0" class="graph" transform="scale(1 1) rotate(0) translate(4 242.8)">
<title>dependencies</title>
<polygon fill="white" stroke="transparent" points="-4,4 -4,-242.8 808,-242.8 808,4 -4,4"/>
<text text-anchor="middle" x="402" y="-8.2" font-family="sans-serif" font-size="14.00">dependencies</text>
<g id="clust1" class="cluster">
<title>cluster_FiltersContentModule</title>
<polygon fill="none" stroke="black" stroke-dasharray="1,5" points="8,-32.8 8,-230.8 796,-230.8 796,-32.8 8,-32.8"/>
</g>
<g id="clust5" class="cluster">
<title>cluster_FiltersContentModule_exports</title>
<polygon fill="none" stroke="black" points="358,-170.8 358,-222.8 538,-222.8 538,-170.8 358,-170.8"/>
</g>
<g id="clust4" class="cluster">
<title>cluster_FiltersContentModule_imports</title>
<polygon fill="none" stroke="black" points="202,-40.8 202,-92.8 788,-92.8 788,-40.8 202,-40.8"/>
</g>
<g id="clust2" class="cluster">
<title>cluster_FiltersContentModule_declarations</title>
<polygon fill="none" stroke="black" points="16,-40.8 16,-92.8 194,-92.8 194,-40.8 16,-40.8"/>
</g>
<!-- FiltersContentComponent -->
<g id="node1" class="node">
<title>FiltersContentComponent</title>
<polygon fill="#ffffb3" stroke="black" points="185.94,-84.8 24.06,-84.8 24.06,-48.8 185.94,-48.8 185.94,-84.8"/>
<text text-anchor="middle" x="105" y="-62.6" font-family="Times,serif" font-size="14.00">FiltersContentComponent</text>
</g>
<!-- FiltersContentModule -->
<g id="node2" class="node">
<title>FiltersContentModule</title>
<polygon fill="#8dd3c7" stroke="black" points="517.66,-149.8 514.66,-153.8 493.66,-153.8 490.66,-149.8 378.34,-149.8 378.34,-113.8 517.66,-113.8 517.66,-149.8"/>
<text text-anchor="middle" x="448" y="-127.6" font-family="Times,serif" font-size="14.00">FiltersContentModule</text>
</g>
<!-- FiltersContentComponent&#45;&gt;FiltersContentModule -->
<g id="edge1" class="edge">
<title>FiltersContentComponent&#45;&gt;FiltersContentModule</title>
<path fill="none" stroke="black" d="M105,-84.91C105,-104.14 105,-131.8 105,-131.8 105,-131.8 368.18,-131.8 368.18,-131.8"/>
<polygon fill="black" stroke="black" points="368.18,-135.3 378.18,-131.8 368.18,-128.3 368.18,-135.3"/>
</g>
<!-- FiltersContentComponent  -->
<g id="node7" class="node">
<title>FiltersContentComponent </title>
<polygon fill="#fb8072" stroke="black" points="530.44,-214.8 365.56,-214.8 365.56,-178.8 530.44,-178.8 530.44,-214.8"/>
<text text-anchor="middle" x="448" y="-192.6" font-family="Times,serif" font-size="14.00">FiltersContentComponent </text>
</g>
<!-- FiltersContentModule&#45;&gt;FiltersContentComponent  -->
<g id="edge6" class="edge">
<title>FiltersContentModule&#45;&gt;FiltersContentComponent </title>
<path fill="none" stroke="black" stroke-dasharray="5,2" d="M448,-149.91C448,-149.91 448,-168.79 448,-168.79"/>
<polygon fill="black" stroke="black" points="444.5,-168.79 448,-178.79 451.5,-168.79 444.5,-168.79"/>
</g>
<!-- CheckboxModule -->
<g id="node3" class="node">
<title>CheckboxModule</title>
<polygon fill="#8dd3c7" stroke="black" points="780.32,-84.8 777.32,-88.8 756.32,-88.8 753.32,-84.8 663.68,-84.8 663.68,-48.8 780.32,-48.8 780.32,-84.8"/>
<text text-anchor="middle" x="722" y="-62.6" font-family="Times,serif" font-size="14.00">CheckboxModule</text>
</g>
<!-- CheckboxModule&#45;&gt;FiltersContentModule -->
<g id="edge2" class="edge">
<title>CheckboxModule&#45;&gt;FiltersContentModule</title>
<path fill="none" stroke="black" d="M722,-84.91C722,-104.14 722,-131.8 722,-131.8 722,-131.8 527.85,-131.8 527.85,-131.8"/>
<polygon fill="black" stroke="black" points="527.85,-128.3 517.85,-131.8 527.85,-135.3 527.85,-128.3"/>
</g>
<!-- DropdownModule -->
<g id="node4" class="node">
<title>DropdownModule</title>
<polygon fill="#8dd3c7" stroke="black" points="645.92,-84.8 642.92,-88.8 621.92,-88.8 618.92,-84.8 526.08,-84.8 526.08,-48.8 645.92,-48.8 645.92,-84.8"/>
<text text-anchor="middle" x="586" y="-62.6" font-family="Times,serif" font-size="14.00">DropdownModule</text>
</g>
<!-- DropdownModule&#45;&gt;FiltersContentModule -->
<g id="edge3" class="edge">
<title>DropdownModule&#45;&gt;FiltersContentModule</title>
<path fill="none" stroke="black" d="M526.02,-66.8C518.27,-66.8 512.96,-66.8 512.96,-66.8 512.96,-66.8 512.96,-103.69 512.96,-103.69"/>
<polygon fill="black" stroke="black" points="509.46,-103.69 512.96,-113.69 516.46,-103.69 509.46,-103.69"/>
</g>
<!-- DualSliderModule -->
<g id="node5" class="node">
<title>DualSliderModule</title>
<polygon fill="#8dd3c7" stroke="black" points="508.2,-84.8 505.2,-88.8 484.2,-88.8 481.2,-84.8 387.8,-84.8 387.8,-48.8 508.2,-48.8 508.2,-84.8"/>
<text text-anchor="middle" x="448" y="-62.6" font-family="Times,serif" font-size="14.00">DualSliderModule</text>
</g>
<!-- DualSliderModule&#45;&gt;FiltersContentModule -->
<g id="edge4" class="edge">
<title>DualSliderModule&#45;&gt;FiltersContentModule</title>
<path fill="none" stroke="black" d="M448,-84.91C448,-84.91 448,-103.79 448,-103.79"/>
<polygon fill="black" stroke="black" points="444.5,-103.79 448,-113.79 451.5,-103.79 444.5,-103.79"/>
</g>
<!-- RunSpatialSearchModule -->
<g id="node6" class="node">
<title>RunSpatialSearchModule</title>
<polygon fill="#8dd3c7" stroke="black" points="369.86,-84.8 366.86,-88.8 345.86,-88.8 342.86,-84.8 210.14,-84.8 210.14,-48.8 369.86,-48.8 369.86,-84.8"/>
<text text-anchor="middle" x="290" y="-62.6" font-family="Times,serif" font-size="14.00">RunSpatialSearchModule</text>
</g>
<!-- RunSpatialSearchModule&#45;&gt;FiltersContentModule -->
<g id="edge5" class="edge">
<title>RunSpatialSearchModule&#45;&gt;FiltersContentModule</title>
<path fill="none" stroke="black" d="M370.1,-66.8C377.93,-66.8 383.04,-66.8 383.04,-66.8 383.04,-66.8 383.04,-103.69 383.04,-103.69"/>
<polygon fill="black" stroke="black" points="379.54,-103.69 383.04,-113.69 386.54,-103.69 379.54,-103.69"/>
</g>
</g>
</svg>
