<?xml version="1.0" encoding="UTF-8" standalone="no"?>
<!DOCTYPE svg PUBLIC "-//W3C//DTD SVG 1.1//EN"
 "http://www.w3.org/Graphics/SVG/1.1/DTD/svg11.dtd">
<!-- Generated by graphviz version 2.47.3 (20210619.1520)
 -->
<!-- Title: dependencies Pages: 1 -->
<svg width="384pt" height="247pt"
 viewBox="0.00 0.00 384.00 246.80" xmlns="http://www.w3.org/2000/svg" xmlns:xlink="http://www.w3.org/1999/xlink">
<g id="graph0" class="graph" transform="scale(1 1) rotate(0) translate(4 242.8)">
<title>dependencies</title>
<polygon fill="white" stroke="transparent" points="-4,4 -4,-242.8 380,-242.8 380,4 -4,4"/>
<text text-anchor="middle" x="188" y="-8.2" font-family="sans-serif" font-size="14.00">dependencies</text>
<g id="clust1" class="cluster">
<title>cluster_FiltersPopoverModule</title>
<polygon fill="none" stroke="black" stroke-dasharray="1,5" points="8,-32.8 8,-230.8 368,-230.8 368,-32.8 8,-32.8"/>
</g>
<g id="clust5" class="cluster">
<title>cluster_FiltersPopoverModule_exports</title>
<polygon fill="none" stroke="black" points="96,-170.8 96,-222.8 280,-222.8 280,-170.8 96,-170.8"/>
</g>
<g id="clust2" class="cluster">
<title>cluster_FiltersPopoverModule_declarations</title>
<polygon fill="none" stroke="black" points="180,-40.8 180,-92.8 360,-92.8 360,-40.8 180,-40.8"/>
</g>
<g id="clust4" class="cluster">
<title>cluster_FiltersPopoverModule_imports</title>
<polygon fill="none" stroke="black" points="16,-40.8 16,-92.8 172,-92.8 172,-40.8 16,-40.8"/>
</g>
<!-- FiltersPopoverComponent -->
<g id="node1" class="node">
<title>FiltersPopoverComponent</title>
<polygon fill="#ffffb3" stroke="black" points="351.76,-84.8 188.24,-84.8 188.24,-48.8 351.76,-48.8 351.76,-84.8"/>
<text text-anchor="middle" x="270" y="-62.6" font-family="Times,serif" font-size="14.00">FiltersPopoverComponent</text>
</g>
<!-- FiltersPopoverModule -->
<g id="node2" class="node">
<title>FiltersPopoverModule</title>
<polygon fill="#8dd3c7" stroke="black" points="258.98,-149.8 255.98,-153.8 234.98,-153.8 231.98,-149.8 117.02,-149.8 117.02,-113.8 258.98,-113.8 258.98,-149.8"/>
<text text-anchor="middle" x="188" y="-127.6" font-family="Times,serif" font-size="14.00">FiltersPopoverModule</text>
</g>
<!-- FiltersPopoverComponent&#45;&gt;FiltersPopoverModule -->
<g id="edge1" class="edge">
<title>FiltersPopoverComponent&#45;&gt;FiltersPopoverModule</title>
<path fill="none" stroke="black" d="M223.55,-84.91C223.55,-84.91 223.55,-103.79 223.55,-103.79"/>
<polygon fill="black" stroke="black" points="220.05,-103.79 223.55,-113.79 227.05,-103.79 220.05,-103.79"/>
</g>
<!-- FiltersPopoverComponent  -->
<g id="node4" class="node">
<title>FiltersPopoverComponent </title>
<polygon fill="#fb8072" stroke="black" points="271.76,-214.8 104.24,-214.8 104.24,-178.8 271.76,-178.8 271.76,-214.8"/>
<text text-anchor="middle" x="188" y="-192.6" font-family="Times,serif" font-size="14.00">FiltersPopoverComponent </text>
</g>
<!-- FiltersPopoverModule&#45;&gt;FiltersPopoverComponent  -->
<g id="edge3" class="edge">
<title>FiltersPopoverModule&#45;&gt;FiltersPopoverComponent </title>
<path fill="none" stroke="black" stroke-dasharray="5,2" d="M188,-149.91C188,-149.91 188,-168.79 188,-168.79"/>
<polygon fill="black" stroke="black" points="184.5,-168.79 188,-178.79 191.5,-168.79 184.5,-168.79"/>
</g>
<!-- FiltersContentModule -->
<g id="node3" class="node">
<title>FiltersContentModule</title>
<polygon fill="#8dd3c7" stroke="black" points="163.66,-84.8 160.66,-88.8 139.66,-88.8 136.66,-84.8 24.34,-84.8 24.34,-48.8 163.66,-48.8 163.66,-84.8"/>
<text text-anchor="middle" x="94" y="-62.6" font-family="Times,serif" font-size="14.00">FiltersContentModule</text>
</g>
<!-- FiltersContentModule&#45;&gt;FiltersPopoverModule -->
<g id="edge2" class="edge">
<title>FiltersContentModule&#45;&gt;FiltersPopoverModule</title>
<path fill="none" stroke="black" d="M140.42,-84.91C140.42,-84.91 140.42,-103.79 140.42,-103.79"/>
<polygon fill="black" stroke="black" points="136.92,-103.79 140.42,-113.79 143.92,-103.79 136.92,-103.79"/>
</g>
</g>
</svg>
