<?xml version="1.0" encoding="UTF-8" standalone="no"?>
<!DOCTYPE svg PUBLIC "-//W3C//DTD SVG 1.1//EN"
 "http://www.w3.org/Graphics/SVG/1.1/DTD/svg11.dtd">
<!-- Generated by graphviz version 2.47.0 (20210316.0004)
 -->
<!-- Title: dependencies Pages: 1 -->
<svg width="504pt" height="284pt"
 viewBox="0.00 0.00 504.00 284.00" xmlns="http://www.w3.org/2000/svg" xmlns:xlink="http://www.w3.org/1999/xlink">
<g id="graph0" class="graph" transform="scale(1 1) rotate(0) translate(4 280)">
<title>dependencies</title>
<polygon fill="white" stroke="transparent" points="-4,4 -4,-280 500,-280 500,4 -4,4"/>
<text text-anchor="start" x="227.01" y="-42.4" font-family="Times-12" font-weight="bold" font-size="14.00">Legend</text>
<polygon fill="#ffffb3" stroke="transparent" points="14,-10 14,-30 34,-30 34,-10 14,-10"/>
<text text-anchor="start" x="37.63" y="-15.4" font-family="Times-12" font-size="14.00"> &#160;Declarations</text>
<polygon fill="#8dd3c7" stroke="transparent" points="127,-10 127,-30 147,-30 147,-10 127,-10"/>
<text text-anchor="start" x="150.73" y="-15.4" font-family="Times-12" font-size="14.00"> &#160;Module</text>
<polygon fill="#80b1d3" stroke="transparent" points="213,-10 213,-30 233,-30 233,-10 213,-10"/>
<text text-anchor="start" x="236.78" y="-15.4" font-family="Times-12" font-size="14.00"> &#160;Bootstrap</text>
<polygon fill="#fdb462" stroke="transparent" points="310,-10 310,-30 330,-30 330,-10 310,-10"/>
<text text-anchor="start" x="333.67" y="-15.4" font-family="Times-12" font-size="14.00"> &#160;Providers</text>
<polygon fill="#fb8072" stroke="transparent" points="406,-10 406,-30 426,-30 426,-10 406,-10"/>
<text text-anchor="start" x="429.73" y="-15.4" font-family="Times-12" font-size="14.00"> &#160;Exports</text>
<g id="clust1" class="cluster">
<title>cluster_FiltersPopoverModule</title>
<polygon fill="none" stroke="black" stroke-dasharray="1,5" points="68,-70 68,-268 428,-268 428,-70 68,-70"/>
</g>
<g id="clust2" class="cluster">
<title>cluster_FiltersPopoverModule_declarations</title>
<polygon fill="none" stroke="black" points="240,-78 240,-130 420,-130 420,-78 240,-78"/>
</g>
<g id="clust5" class="cluster">
<title>cluster_FiltersPopoverModule_exports</title>
<polygon fill="none" stroke="black" points="156,-208 156,-260 340,-260 340,-208 156,-208"/>
</g>
<g id="clust4" class="cluster">
<title>cluster_FiltersPopoverModule_imports</title>
<polygon fill="none" stroke="black" points="76,-78 76,-130 232,-130 232,-78 76,-78"/>
</g>
<!-- FiltersPopoverComponent -->
<g id="node1" class="node">
<title>FiltersPopoverComponent</title>
<polygon fill="#ffffb3" stroke="black" points="411.76,-122 248.24,-122 248.24,-86 411.76,-86 411.76,-122"/>
<text text-anchor="middle" x="330" y="-99.8" font-family="Times,serif" font-size="14.00">FiltersPopoverComponent</text>
</g>
<!-- FiltersPopoverModule -->
<g id="node2" class="node">
<title>FiltersPopoverModule</title>
<polygon fill="#8dd3c7" stroke="black" points="318.98,-187 315.98,-191 294.98,-191 291.98,-187 177.02,-187 177.02,-151 318.98,-151 318.98,-187"/>
<text text-anchor="middle" x="248" y="-164.8" font-family="Times,serif" font-size="14.00">FiltersPopoverModule</text>
</g>
<!-- FiltersPopoverComponent&#45;&gt;FiltersPopoverModule -->
<g id="edge1" class="edge">
<title>FiltersPopoverComponent&#45;&gt;FiltersPopoverModule</title>
<path fill="none" stroke="black" d="M283.55,-122.11C283.55,-122.11 283.55,-140.99 283.55,-140.99"/>
<polygon fill="black" stroke="black" points="280.05,-140.99 283.55,-150.99 287.05,-140.99 280.05,-140.99"/>
</g>
<!-- FiltersPopoverComponent  -->
<g id="node4" class="node">
<title>FiltersPopoverComponent </title>
<polygon fill="#fb8072" stroke="black" points="331.76,-252 164.24,-252 164.24,-216 331.76,-216 331.76,-252"/>
<text text-anchor="middle" x="248" y="-229.8" font-family="Times,serif" font-size="14.00">FiltersPopoverComponent </text>
</g>
<!-- FiltersPopoverModule&#45;&gt;FiltersPopoverComponent  -->
<g id="edge3" class="edge">
<title>FiltersPopoverModule&#45;&gt;FiltersPopoverComponent </title>
<path fill="none" stroke="black" stroke-dasharray="5,2" d="M248,-187.11C248,-187.11 248,-205.99 248,-205.99"/>
<polygon fill="black" stroke="black" points="244.5,-205.99 248,-215.99 251.5,-205.99 244.5,-205.99"/>
</g>
<!-- FiltersContentModule -->
<g id="node3" class="node">
<title>FiltersContentModule</title>
<polygon fill="#8dd3c7" stroke="black" points="223.66,-122 220.66,-126 199.66,-126 196.66,-122 84.34,-122 84.34,-86 223.66,-86 223.66,-122"/>
<text text-anchor="middle" x="154" y="-99.8" font-family="Times,serif" font-size="14.00">FiltersContentModule</text>
</g>
<!-- FiltersContentModule&#45;&gt;FiltersPopoverModule -->
<g id="edge2" class="edge">
<title>FiltersContentModule&#45;&gt;FiltersPopoverModule</title>
<path fill="none" stroke="black" d="M200.42,-122.11C200.42,-122.11 200.42,-140.99 200.42,-140.99"/>
<polygon fill="black" stroke="black" points="196.92,-140.99 200.42,-150.99 203.92,-140.99 196.92,-140.99"/>
</g>
</g>
</svg>
