<?xml version="1.0" encoding="UTF-8" standalone="no"?>
<!DOCTYPE svg PUBLIC "-//W3C//DTD SVG 1.1//EN"
 "http://www.w3.org/Graphics/SVG/1.1/DTD/svg11.dtd">
<!-- Generated by graphviz version 2.47.0 (20210316.0004)
 -->
<!-- Title: dependencies Pages: 1 -->
<svg width="504pt" height="284pt"
 viewBox="0.00 0.00 504.00 284.00" xmlns="http://www.w3.org/2000/svg" xmlns:xlink="http://www.w3.org/1999/xlink">
<g id="graph0" class="graph" transform="scale(1 1) rotate(0) translate(4 280)">
<title>dependencies</title>
<polygon fill="white" stroke="transparent" points="-4,4 -4,-280 500,-280 500,4 -4,4"/>
<text text-anchor="start" x="227.01" y="-42.4" font-family="Times-12" font-weight="bold" font-size="14.00">Legend</text>
<polygon fill="#ffffb3" stroke="transparent" points="14,-10 14,-30 34,-30 34,-10 14,-10"/>
<text text-anchor="start" x="37.63" y="-15.4" font-family="Times-12" font-size="14.00"> &#160;Declarations</text>
<polygon fill="#8dd3c7" stroke="transparent" points="127,-10 127,-30 147,-30 147,-10 127,-10"/>
<text text-anchor="start" x="150.73" y="-15.4" font-family="Times-12" font-size="14.00"> &#160;Module</text>
<polygon fill="#80b1d3" stroke="transparent" points="213,-10 213,-30 233,-30 233,-10 213,-10"/>
<text text-anchor="start" x="236.78" y="-15.4" font-family="Times-12" font-size="14.00"> &#160;Bootstrap</text>
<polygon fill="#fdb462" stroke="transparent" points="310,-10 310,-30 330,-30 330,-10 310,-10"/>
<text text-anchor="start" x="333.67" y="-15.4" font-family="Times-12" font-size="14.00"> &#160;Providers</text>
<polygon fill="#fb8072" stroke="transparent" points="406,-10 406,-30 426,-30 426,-10 406,-10"/>
<text text-anchor="start" x="429.73" y="-15.4" font-family="Times-12" font-size="14.00"> &#160;Exports</text>
<g id="clust1" class="cluster">
<title>cluster_ReviewButtonModule</title>
<polygon fill="none" stroke="black" stroke-dasharray="1,5" points="70,-70 70,-268 426,-268 426,-70 70,-70"/>
</g>
<g id="clust5" class="cluster">
<title>cluster_ReviewButtonModule_exports</title>
<polygon fill="none" stroke="black" points="157,-208 157,-260 339,-260 339,-208 157,-208"/>
</g>
<g id="clust2" class="cluster">
<title>cluster_ReviewButtonModule_declarations</title>
<polygon fill="none" stroke="black" points="240,-78 240,-130 418,-130 418,-78 240,-78"/>
</g>
<g id="clust4" class="cluster">
<title>cluster_ReviewButtonModule_imports</title>
<polygon fill="none" stroke="black" points="78,-78 78,-130 232,-130 232,-78 78,-78"/>
</g>
<!-- ReviewButtonComponent -->
<g id="node1" class="node">
<title>ReviewButtonComponent</title>
<polygon fill="#ffffb3" stroke="black" points="410.21,-122 247.79,-122 247.79,-86 410.21,-86 410.21,-122"/>
<text text-anchor="middle" x="329" y="-99.8" font-family="Times,serif" font-size="14.00">ReviewButtonComponent</text>
</g>
<!-- ReviewButtonModule -->
<g id="node2" class="node">
<title>ReviewButtonModule</title>
<polygon fill="#8dd3c7" stroke="black" points="318.43,-187 315.43,-191 294.43,-191 291.43,-187 177.57,-187 177.57,-151 318.43,-151 318.43,-187"/>
<text text-anchor="middle" x="248" y="-164.8" font-family="Times,serif" font-size="14.00">ReviewButtonModule</text>
</g>
<!-- ReviewButtonComponent&#45;&gt;ReviewButtonModule -->
<g id="edge1" class="edge">
<title>ReviewButtonComponent&#45;&gt;ReviewButtonModule</title>
<path fill="none" stroke="black" d="M283.05,-122.11C283.05,-122.11 283.05,-140.99 283.05,-140.99"/>
<polygon fill="black" stroke="black" points="279.55,-140.99 283.05,-150.99 286.55,-140.99 279.55,-140.99"/>
</g>
<!-- ReviewButtonComponent  -->
<g id="node4" class="node">
<title>ReviewButtonComponent </title>
<polygon fill="#fb8072" stroke="black" points="330.71,-252 165.29,-252 165.29,-216 330.71,-216 330.71,-252"/>
<text text-anchor="middle" x="248" y="-229.8" font-family="Times,serif" font-size="14.00">ReviewButtonComponent </text>
</g>
<!-- ReviewButtonModule&#45;&gt;ReviewButtonComponent  -->
<g id="edge3" class="edge">
<title>ReviewButtonModule&#45;&gt;ReviewButtonComponent </title>
<path fill="none" stroke="black" stroke-dasharray="5,2" d="M248,-187.11C248,-187.11 248,-205.99 248,-205.99"/>
<polygon fill="black" stroke="black" points="244.5,-205.99 248,-215.99 251.5,-205.99 244.5,-205.99"/>
</g>
<!-- ReviewModalModule -->
<g id="node3" class="node">
<title>ReviewModalModule</title>
<polygon fill="#8dd3c7" stroke="black" points="224.36,-122 221.36,-126 200.36,-126 197.36,-122 85.64,-122 85.64,-86 224.36,-86 224.36,-122"/>
<text text-anchor="middle" x="155" y="-99.8" font-family="Times,serif" font-size="14.00">ReviewModalModule</text>
</g>
<!-- ReviewModalModule&#45;&gt;ReviewButtonModule -->
<g id="edge2" class="edge">
<title>ReviewModalModule&#45;&gt;ReviewButtonModule</title>
<path fill="none" stroke="black" d="M201.11,-122.11C201.11,-122.11 201.11,-140.99 201.11,-140.99"/>
<polygon fill="black" stroke="black" points="197.61,-140.99 201.11,-150.99 204.61,-140.99 197.61,-140.99"/>
</g>
</g>
</svg>
