<?xml version="1.0" encoding="UTF-8" standalone="no"?>
<!DOCTYPE svg PUBLIC "-//W3C//DTD SVG 1.1//EN"
 "http://www.w3.org/Graphics/SVG/1.1/DTD/svg11.dtd">
<!-- Generated by graphviz version 2.47.3 (20210619.1520)
 -->
<!-- Title: dependencies Pages: 1 -->
<svg width="380pt" height="247pt"
 viewBox="0.00 0.00 380.00 246.80" xmlns="http://www.w3.org/2000/svg" xmlns:xlink="http://www.w3.org/1999/xlink">
<g id="graph0" class="graph" transform="scale(1 1) rotate(0) translate(4 242.8)">
<title>dependencies</title>
<polygon fill="white" stroke="transparent" points="-4,4 -4,-242.8 376,-242.8 376,4 -4,4"/>
<text text-anchor="middle" x="186" y="-8.2" font-family="sans-serif" font-size="14.00">dependencies</text>
<g id="clust1" class="cluster">
<title>cluster_ReviewButtonModule</title>
<polygon fill="none" stroke="black" stroke-dasharray="1,5" points="8,-32.8 8,-230.8 364,-230.8 364,-32.8 8,-32.8"/>
</g>
<g id="clust2" class="cluster">
<title>cluster_ReviewButtonModule_declarations</title>
<polygon fill="none" stroke="black" points="178,-40.8 178,-92.8 356,-92.8 356,-40.8 178,-40.8"/>
</g>
<g id="clust5" class="cluster">
<title>cluster_ReviewButtonModule_exports</title>
<polygon fill="none" stroke="black" points="95,-170.8 95,-222.8 277,-222.8 277,-170.8 95,-170.8"/>
</g>
<g id="clust4" class="cluster">
<title>cluster_ReviewButtonModule_imports</title>
<polygon fill="none" stroke="black" points="16,-40.8 16,-92.8 170,-92.8 170,-40.8 16,-40.8"/>
</g>
<!-- ReviewButtonComponent -->
<g id="node1" class="node">
<title>ReviewButtonComponent</title>
<polygon fill="#ffffb3" stroke="black" points="348.21,-84.8 185.79,-84.8 185.79,-48.8 348.21,-48.8 348.21,-84.8"/>
<text text-anchor="middle" x="267" y="-62.6" font-family="Times,serif" font-size="14.00">ReviewButtonComponent</text>
</g>
<!-- ReviewButtonModule -->
<g id="node2" class="node">
<title>ReviewButtonModule</title>
<polygon fill="#8dd3c7" stroke="black" points="256.43,-149.8 253.43,-153.8 232.43,-153.8 229.43,-149.8 115.57,-149.8 115.57,-113.8 256.43,-113.8 256.43,-149.8"/>
<text text-anchor="middle" x="186" y="-127.6" font-family="Times,serif" font-size="14.00">ReviewButtonModule</text>
</g>
<!-- ReviewButtonComponent&#45;&gt;ReviewButtonModule -->
<g id="edge1" class="edge">
<title>ReviewButtonComponent&#45;&gt;ReviewButtonModule</title>
<path fill="none" stroke="black" d="M221.05,-84.91C221.05,-84.91 221.05,-103.79 221.05,-103.79"/>
<polygon fill="black" stroke="black" points="217.55,-103.79 221.05,-113.79 224.55,-103.79 217.55,-103.79"/>
</g>
<!-- ReviewButtonComponent  -->
<g id="node4" class="node">
<title>ReviewButtonComponent </title>
<polygon fill="#fb8072" stroke="black" points="268.71,-214.8 103.29,-214.8 103.29,-178.8 268.71,-178.8 268.71,-214.8"/>
<text text-anchor="middle" x="186" y="-192.6" font-family="Times,serif" font-size="14.00">ReviewButtonComponent </text>
</g>
<!-- ReviewButtonModule&#45;&gt;ReviewButtonComponent  -->
<g id="edge3" class="edge">
<title>ReviewButtonModule&#45;&gt;ReviewButtonComponent </title>
<path fill="none" stroke="black" stroke-dasharray="5,2" d="M186,-149.91C186,-149.91 186,-168.79 186,-168.79"/>
<polygon fill="black" stroke="black" points="182.5,-168.79 186,-178.79 189.5,-168.79 182.5,-168.79"/>
</g>
<!-- ReviewModalModule -->
<g id="node3" class="node">
<title>ReviewModalModule</title>
<polygon fill="#8dd3c7" stroke="black" points="162.36,-84.8 159.36,-88.8 138.36,-88.8 135.36,-84.8 23.64,-84.8 23.64,-48.8 162.36,-48.8 162.36,-84.8"/>
<text text-anchor="middle" x="93" y="-62.6" font-family="Times,serif" font-size="14.00">ReviewModalModule</text>
</g>
<!-- ReviewModalModule&#45;&gt;ReviewButtonModule -->
<g id="edge2" class="edge">
<title>ReviewModalModule&#45;&gt;ReviewButtonModule</title>
<path fill="none" stroke="black" d="M139.11,-84.91C139.11,-84.91 139.11,-103.79 139.11,-103.79"/>
<polygon fill="black" stroke="black" points="135.61,-103.79 139.11,-113.79 142.61,-103.79 135.61,-103.79"/>
</g>
</g>
</svg>
