<?xml version="1.0" encoding="UTF-8" standalone="no"?>
<!DOCTYPE svg PUBLIC "-//W3C//DTD SVG 1.1//EN"
 "http://www.w3.org/Graphics/SVG/1.1/DTD/svg11.dtd">
<!-- Generated by graphviz version 2.40.1 (20161225.0304)
 -->
<!-- Title: dependencies Pages: 1 -->
<svg width="504pt" height="284pt"
 viewBox="0.00 0.00 504.00 284.00" xmlns="http://www.w3.org/2000/svg" xmlns:xlink="http://www.w3.org/1999/xlink">
<g id="graph0" class="graph" transform="scale(1 1) rotate(0) translate(4 280)">
<title>dependencies</title>
<polygon fill="#ffffff" stroke="transparent" points="-4,4 -4,-280 500,-280 500,4 -4,4"/>
<text text-anchor="start" x="227.0091" y="-42.4" font-family="sans-serif" font-weight="bold" font-size="14.00" fill="#000000">Legend</text>
<polygon fill="#ffffb3" stroke="transparent" points="14,-10 14,-30 34,-30 34,-10 14,-10"/>
<text text-anchor="start" x="37.629" y="-15.4" font-family="sans-serif" font-size="14.00" fill="#000000"> &#160;Declarations</text>
<polygon fill="#8dd3c7" stroke="transparent" points="127,-10 127,-30 147,-30 147,-10 127,-10"/>
<text text-anchor="start" x="150.7251" y="-15.4" font-family="sans-serif" font-size="14.00" fill="#000000"> &#160;Module</text>
<polygon fill="#80b1d3" stroke="transparent" points="213,-10 213,-30 233,-30 233,-10 213,-10"/>
<text text-anchor="start" x="236.7812" y="-15.4" font-family="sans-serif" font-size="14.00" fill="#000000"> &#160;Bootstrap</text>
<polygon fill="#fdb462" stroke="transparent" points="310,-10 310,-30 330,-30 330,-10 310,-10"/>
<text text-anchor="start" x="333.6732" y="-15.4" font-family="sans-serif" font-size="14.00" fill="#000000"> &#160;Providers</text>
<polygon fill="#fb8072" stroke="transparent" points="406,-10 406,-30 426,-30 426,-10 406,-10"/>
<text text-anchor="start" x="429.7258" y="-15.4" font-family="sans-serif" font-size="14.00" fill="#000000"> &#160;Exports</text>
<g id="clust1" class="cluster">
<title>cluster_RegistrationModalModule</title>
<polygon fill="none" stroke="#000000" stroke-dasharray="1,5" points="41,-70 41,-268 455,-268 455,-70 41,-70"/>
</g>
<g id="clust2" class="cluster">
<title>cluster_RegistrationModalModule_declarations</title>
<polygon fill="none" stroke="#000000" points="245,-78 245,-130 447,-130 447,-78 245,-78"/>
</g>
<g id="clust4" class="cluster">
<title>cluster_RegistrationModalModule_imports</title>
<polygon fill="none" stroke="#000000" points="49,-78 49,-130 237,-130 237,-78 49,-78"/>
</g>
<g id="clust5" class="cluster">
<title>cluster_RegistrationModalModule_exports</title>
<polygon fill="none" stroke="#000000" points="145,-208 145,-260 351,-260 351,-208 145,-208"/>
</g>
<!-- RegistrationModalComponent -->
<g id="node1" class="node">
<title>RegistrationModalComponent</title>
<polygon fill="#ffffb3" stroke="#000000" points="439.3159,-122 252.6841,-122 252.6841,-86 439.3159,-86 439.3159,-122"/>
<text text-anchor="middle" x="346" y="-99.8" font-family="Times,serif" font-size="14.00" fill="#000000">RegistrationModalComponent</text>
</g>
<!-- RegistrationModalModule -->
<g id="node2" class="node">
<title>RegistrationModalModule</title>
<polygon fill="#8dd3c7" stroke="#000000" points="330.0337,-187 327.0337,-191 306.0337,-191 303.0337,-187 165.9663,-187 165.9663,-151 330.0337,-151 330.0337,-187"/>
<text text-anchor="middle" x="248" y="-164.8" font-family="Times,serif" font-size="14.00" fill="#000000">RegistrationModalModule</text>
</g>
<!-- RegistrationModalComponent&#45;&gt;RegistrationModalModule -->
<g id="edge1" class="edge">
<title>RegistrationModalComponent&#45;&gt;RegistrationModalModule</title>
<path fill="none" stroke="#000000" d="M291.5544,-122.1061C291.5544,-122.1061 291.5544,-140.991 291.5544,-140.991"/>
<polygon fill="#000000" stroke="#000000" points="288.0544,-140.9909 291.5544,-150.991 295.0544,-140.991 288.0544,-140.9909"/>
</g>
<!-- RegistrationModalComponent  -->
<g id="node4" class="node">
<title>RegistrationModalComponent </title>
<polygon fill="#fb8072" stroke="#000000" points="342.8157,-252 153.1843,-252 153.1843,-216 342.8157,-216 342.8157,-252"/>
<text text-anchor="middle" x="248" y="-229.8" font-family="Times,serif" font-size="14.00" fill="#000000">RegistrationModalComponent </text>
</g>
<!-- RegistrationModalModule&#45;&gt;RegistrationModalComponent  -->
<g id="edge3" class="edge">
<title>RegistrationModalModule&#45;&gt;RegistrationModalComponent </title>
<path fill="none" stroke="#000000" stroke-dasharray="5,2" d="M248,-187.1061C248,-187.1061 248,-205.991 248,-205.991"/>
<polygon fill="#000000" stroke="#000000" points="244.5001,-205.9909 248,-215.991 251.5001,-205.991 244.5001,-205.9909"/>
</g>
<!-- RegistrationContentModule -->
<g id="node3" class="node">
<title>RegistrationContentModule</title>
<polygon fill="#8dd3c7" stroke="#000000" points="229.3159,-122 226.3159,-126 205.3159,-126 202.3159,-122 56.6841,-122 56.6841,-86 229.3159,-86 229.3159,-122"/>
<text text-anchor="middle" x="143" y="-99.8" font-family="Times,serif" font-size="14.00" fill="#000000">RegistrationContentModule</text>
</g>
<!-- RegistrationContentModule&#45;&gt;RegistrationModalModule -->
<g id="edge2" class="edge">
<title>RegistrationContentModule&#45;&gt;RegistrationModalModule</title>
<path fill="none" stroke="#000000" d="M197.4457,-122.1061C197.4457,-122.1061 197.4457,-140.991 197.4457,-140.991"/>
<polygon fill="#000000" stroke="#000000" points="193.9457,-140.9909 197.4457,-150.991 200.9457,-140.991 193.9457,-140.9909"/>
</g>
</g>
</svg>
