<?xml version="1.0" encoding="UTF-8" standalone="no"?>
<!DOCTYPE svg PUBLIC "-//W3C//DTD SVG 1.1//EN"
 "http://www.w3.org/Graphics/SVG/1.1/DTD/svg11.dtd">
<!-- Generated by graphviz version 2.47.3 (20210619.1520)
 -->
<!-- Title: dependencies Pages: 1 -->
<svg width="378pt" height="247pt"
 viewBox="0.00 0.00 378.00 246.80" xmlns="http://www.w3.org/2000/svg" xmlns:xlink="http://www.w3.org/1999/xlink">
<g id="graph0" class="graph" transform="scale(1 1) rotate(0) translate(4 242.8)">
<title>dependencies</title>
<polygon fill="white" stroke="transparent" points="-4,4 -4,-242.8 374,-242.8 374,4 -4,4"/>
<text text-anchor="middle" x="185" y="-8.2" font-family="sans-serif" font-size="14.00">dependencies</text>
<g id="clust1" class="cluster">
<title>cluster_OntologyTreeModule</title>
<polygon fill="none" stroke="black" stroke-dasharray="1,5" points="8,-32.8 8,-230.8 362,-230.8 362,-32.8 8,-32.8"/>
</g>
<g id="clust4" class="cluster">
<title>cluster_OntologyTreeModule_imports</title>
<polygon fill="none" stroke="black" points="200,-40.8 200,-92.8 354,-92.8 354,-40.8 200,-40.8"/>
</g>
<g id="clust5" class="cluster">
<title>cluster_OntologyTreeModule_exports</title>
<polygon fill="none" stroke="black" points="95,-170.8 95,-222.8 275,-222.8 275,-170.8 95,-170.8"/>
</g>
<g id="clust2" class="cluster">
<title>cluster_OntologyTreeModule_declarations</title>
<polygon fill="none" stroke="black" points="16,-40.8 16,-92.8 192,-92.8 192,-40.8 16,-40.8"/>
</g>
<!-- OntologyTreeComponent -->
<g id="node1" class="node">
<title>OntologyTreeComponent</title>
<polygon fill="#ffffb3" stroke="black" points="183.86,-84.8 24.14,-84.8 24.14,-48.8 183.86,-48.8 183.86,-84.8"/>
<text text-anchor="middle" x="104" y="-62.6" font-family="Times,serif" font-size="14.00">OntologyTreeComponent</text>
</g>
<!-- OntologyTreeModule -->
<g id="node2" class="node">
<title>OntologyTreeModule</title>
<polygon fill="#8dd3c7" stroke="black" points="254.08,-149.8 251.08,-153.8 230.08,-153.8 227.08,-149.8 115.92,-149.8 115.92,-113.8 254.08,-113.8 254.08,-149.8"/>
<text text-anchor="middle" x="185" y="-127.6" font-family="Times,serif" font-size="14.00">OntologyTreeModule</text>
</g>
<!-- OntologyTreeComponent&#45;&gt;OntologyTreeModule -->
<g id="edge1" class="edge">
<title>OntologyTreeComponent&#45;&gt;OntologyTreeModule</title>
<path fill="none" stroke="black" d="M149.95,-84.91C149.95,-84.91 149.95,-103.79 149.95,-103.79"/>
<polygon fill="black" stroke="black" points="146.45,-103.79 149.95,-113.79 153.45,-103.79 146.45,-103.79"/>
</g>
<!-- OntologyTreeComponent  -->
<g id="node4" class="node">
<title>OntologyTreeComponent </title>
<polygon fill="#fb8072" stroke="black" points="266.86,-214.8 103.14,-214.8 103.14,-178.8 266.86,-178.8 266.86,-214.8"/>
<text text-anchor="middle" x="185" y="-192.6" font-family="Times,serif" font-size="14.00">OntologyTreeComponent </text>
</g>
<!-- OntologyTreeModule&#45;&gt;OntologyTreeComponent  -->
<g id="edge3" class="edge">
<title>OntologyTreeModule&#45;&gt;OntologyTreeComponent </title>
<path fill="none" stroke="black" stroke-dasharray="5,2" d="M185,-149.91C185,-149.91 185,-168.79 185,-168.79"/>
<polygon fill="black" stroke="black" points="181.5,-168.79 185,-178.79 188.5,-168.79 181.5,-168.79"/>
</g>
<!-- OpacitySliderModule -->
<g id="node3" class="node">
<title>OpacitySliderModule</title>
<polygon fill="#8dd3c7" stroke="black" points="345.81,-84.8 342.81,-88.8 321.81,-88.8 318.81,-84.8 208.19,-84.8 208.19,-48.8 345.81,-48.8 345.81,-84.8"/>
<text text-anchor="middle" x="277" y="-62.6" font-family="Times,serif" font-size="14.00">OpacitySliderModule</text>
</g>
<!-- OpacitySliderModule&#45;&gt;OntologyTreeModule -->
<g id="edge2" class="edge">
<title>OpacitySliderModule&#45;&gt;OntologyTreeModule</title>
<path fill="none" stroke="black" d="M231.19,-84.91C231.19,-84.91 231.19,-103.79 231.19,-103.79"/>
<polygon fill="black" stroke="black" points="227.69,-103.79 231.19,-113.79 234.69,-103.79 227.69,-103.79"/>
</g>
</g>
</svg>
