<?xml version="1.0" encoding="UTF-8" standalone="no"?>
<!DOCTYPE svg PUBLIC "-//W3C//DTD SVG 1.1//EN"
 "http://www.w3.org/Graphics/SVG/1.1/DTD/svg11.dtd">
<!-- Generated by graphviz version 2.40.1 (20161225.0304)
 -->
<!-- Title: dependencies Pages: 1 -->
<svg width="504pt" height="284pt"
 viewBox="0.00 0.00 504.00 284.00" xmlns="http://www.w3.org/2000/svg" xmlns:xlink="http://www.w3.org/1999/xlink">
<g id="graph0" class="graph" transform="scale(1 1) rotate(0) translate(4 280)">
<title>dependencies</title>
<polygon fill="#ffffff" stroke="transparent" points="-4,4 -4,-280 500,-280 500,4 -4,4"/>
<text text-anchor="start" x="227.0091" y="-42.4" font-family="sans-serif" font-weight="bold" font-size="14.00" fill="#000000">Legend</text>
<polygon fill="#ffffb3" stroke="transparent" points="14,-10 14,-30 34,-30 34,-10 14,-10"/>
<text text-anchor="start" x="37.629" y="-15.4" font-family="sans-serif" font-size="14.00" fill="#000000"> &#160;Declarations</text>
<polygon fill="#8dd3c7" stroke="transparent" points="127,-10 127,-30 147,-30 147,-10 127,-10"/>
<text text-anchor="start" x="150.7251" y="-15.4" font-family="sans-serif" font-size="14.00" fill="#000000"> &#160;Module</text>
<polygon fill="#80b1d3" stroke="transparent" points="213,-10 213,-30 233,-30 233,-10 213,-10"/>
<text text-anchor="start" x="236.7812" y="-15.4" font-family="sans-serif" font-size="14.00" fill="#000000"> &#160;Bootstrap</text>
<polygon fill="#fdb462" stroke="transparent" points="310,-10 310,-30 330,-30 330,-10 310,-10"/>
<text text-anchor="start" x="333.6732" y="-15.4" font-family="sans-serif" font-size="14.00" fill="#000000"> &#160;Providers</text>
<polygon fill="#fb8072" stroke="transparent" points="406,-10 406,-30 426,-30 426,-10 406,-10"/>
<text text-anchor="start" x="429.7258" y="-15.4" font-family="sans-serif" font-size="14.00" fill="#000000"> &#160;Exports</text>
<g id="clust1" class="cluster">
<title>cluster_OntologyTreeModule</title>
<polygon fill="none" stroke="#000000" stroke-dasharray="1,5" points="71,-70 71,-268 425,-268 425,-70 71,-70"/>
</g>
<g id="clust2" class="cluster">
<title>cluster_OntologyTreeModule_declarations</title>
<polygon fill="none" stroke="#000000" points="241,-78 241,-130 417,-130 417,-78 241,-78"/>
</g>
<g id="clust4" class="cluster">
<title>cluster_OntologyTreeModule_imports</title>
<polygon fill="none" stroke="#000000" points="79,-78 79,-130 233,-130 233,-78 79,-78"/>
</g>
<g id="clust5" class="cluster">
<title>cluster_OntologyTreeModule_exports</title>
<polygon fill="none" stroke="#000000" points="158,-208 158,-260 338,-260 338,-208 158,-208"/>
</g>
<!-- OntologyTreeComponent -->
<g id="node1" class="node">
<title>OntologyTreeComponent</title>
<polygon fill="#ffffb3" stroke="#000000" points="408.8627,-122 249.1373,-122 249.1373,-86 408.8627,-86 408.8627,-122"/>
<text text-anchor="middle" x="329" y="-99.8" font-family="Times,serif" font-size="14.00" fill="#000000">OntologyTreeComponent</text>
</g>
<!-- OntologyTreeModule -->
<g id="node2" class="node">
<title>OntologyTreeModule</title>
<polygon fill="#8dd3c7" stroke="#000000" points="317.08,-187 314.08,-191 293.08,-191 290.08,-187 178.92,-187 178.92,-151 317.08,-151 317.08,-187"/>
<text text-anchor="middle" x="248" y="-164.8" font-family="Times,serif" font-size="14.00" fill="#000000">OntologyTreeModule</text>
</g>
<!-- OntologyTreeComponent&#45;&gt;OntologyTreeModule -->
<g id="edge1" class="edge">
<title>OntologyTreeComponent&#45;&gt;OntologyTreeModule</title>
<path fill="none" stroke="#000000" d="M283.0544,-122.1061C283.0544,-122.1061 283.0544,-140.991 283.0544,-140.991"/>
<polygon fill="#000000" stroke="#000000" points="279.5544,-140.9909 283.0544,-150.991 286.5544,-140.991 279.5544,-140.9909"/>
</g>
<!-- OntologyTreeComponent  -->
<g id="node4" class="node">
<title>OntologyTreeComponent </title>
<polygon fill="#fb8072" stroke="#000000" points="329.863,-252 166.137,-252 166.137,-216 329.863,-216 329.863,-252"/>
<text text-anchor="middle" x="248" y="-229.8" font-family="Times,serif" font-size="14.00" fill="#000000">OntologyTreeComponent </text>
</g>
<!-- OntologyTreeModule&#45;&gt;OntologyTreeComponent  -->
<g id="edge3" class="edge">
<title>OntologyTreeModule&#45;&gt;OntologyTreeComponent </title>
<path fill="none" stroke="#000000" stroke-dasharray="5,2" d="M248,-187.1061C248,-187.1061 248,-205.991 248,-205.991"/>
<polygon fill="#000000" stroke="#000000" points="244.5001,-205.9909 248,-215.991 251.5001,-205.991 244.5001,-205.9909"/>
</g>
<!-- OpacitySliderModule -->
<g id="node3" class="node">
<title>OpacitySliderModule</title>
<polygon fill="#8dd3c7" stroke="#000000" points="224.8061,-122 221.8061,-126 200.8061,-126 197.8061,-122 87.1939,-122 87.1939,-86 224.8061,-86 224.8061,-122"/>
<text text-anchor="middle" x="156" y="-99.8" font-family="Times,serif" font-size="14.00" fill="#000000">OpacitySliderModule</text>
</g>
<!-- OpacitySliderModule&#45;&gt;OntologyTreeModule -->
<g id="edge2" class="edge">
<title>OpacitySliderModule&#45;&gt;OntologyTreeModule</title>
<path fill="none" stroke="#000000" d="M201.8064,-122.1061C201.8064,-122.1061 201.8064,-140.991 201.8064,-140.991"/>
<polygon fill="#000000" stroke="#000000" points="198.3065,-140.9909 201.8064,-150.991 205.3065,-140.991 198.3065,-140.9909"/>
</g>
</g>
</svg>
