<?xml version="1.0" encoding="UTF-8" standalone="no"?>
<!DOCTYPE svg PUBLIC "-//W3C//DTD SVG 1.1//EN"
 "http://www.w3.org/Graphics/SVG/1.1/DTD/svg11.dtd">
<!-- Generated by graphviz version 2.47.3 (20210619.1520)
 -->
<!-- Title: dependencies Pages: 1 -->
<svg width="276pt" height="247pt"
 viewBox="0.00 0.00 276.00 246.80" xmlns="http://www.w3.org/2000/svg" xmlns:xlink="http://www.w3.org/1999/xlink">
<g id="graph0" class="graph" transform="scale(1 1) rotate(0) translate(4 242.8)">
<title>dependencies</title>
<polygon fill="white" stroke="transparent" points="-4,4 -4,-242.8 272,-242.8 272,4 -4,4"/>
<text text-anchor="middle" x="134" y="-8.2" font-family="sans-serif" font-size="14.00">dependencies</text>
<g id="clust1" class="cluster">
<title>cluster_ExtractionSetDropdownModule</title>
<polygon fill="none" stroke="black" stroke-dasharray="1,5" points="8,-32.8 8,-230.8 260,-230.8 260,-32.8 8,-32.8"/>
</g>
<g id="clust2" class="cluster">
<title>cluster_ExtractionSetDropdownModule_declarations</title>
<polygon fill="none" stroke="black" points="17,-40.8 17,-92.8 251,-92.8 251,-40.8 17,-40.8"/>
</g>
<g id="clust5" class="cluster">
<title>cluster_ExtractionSetDropdownModule_exports</title>
<polygon fill="none" stroke="black" points="16,-170.8 16,-222.8 252,-222.8 252,-170.8 16,-170.8"/>
</g>
<!-- ExtractionSetDropdownComponent -->
<g id="node1" class="node">
<title>ExtractionSetDropdownComponent</title>
<polygon fill="#ffffb3" stroke="black" points="242.91,-84.8 25.09,-84.8 25.09,-48.8 242.91,-48.8 242.91,-84.8"/>
<text text-anchor="middle" x="134" y="-62.6" font-family="Times,serif" font-size="14.00">ExtractionSetDropdownComponent</text>
</g>
<!-- ExtractionSetDropdownModule -->
<g id="node2" class="node">
<title>ExtractionSetDropdownModule</title>
<polygon fill="#8dd3c7" stroke="black" points="231.63,-149.8 228.63,-153.8 207.63,-153.8 204.63,-149.8 36.37,-149.8 36.37,-113.8 231.63,-113.8 231.63,-149.8"/>
<text text-anchor="middle" x="134" y="-127.6" font-family="Times,serif" font-size="14.00">ExtractionSetDropdownModule</text>
</g>
<!-- ExtractionSetDropdownComponent&#45;&gt;ExtractionSetDropdownModule -->
<g id="edge1" class="edge">
<title>ExtractionSetDropdownComponent&#45;&gt;ExtractionSetDropdownModule</title>
<path fill="none" stroke="black" d="M134,-84.91C134,-84.91 134,-103.79 134,-103.79"/>
<polygon fill="black" stroke="black" points="130.5,-103.79 134,-113.79 137.5,-103.79 130.5,-103.79"/>
</g>
<!-- ExtractionSetDropdownComponent  -->
<g id="node3" class="node">
<title>ExtractionSetDropdownComponent </title>
<polygon fill="#fb8072" stroke="black" points="244.41,-214.8 23.59,-214.8 23.59,-178.8 244.41,-178.8 244.41,-214.8"/>
<text text-anchor="middle" x="134" y="-192.6" font-family="Times,serif" font-size="14.00">ExtractionSetDropdownComponent </text>
</g>
<!-- ExtractionSetDropdownModule&#45;&gt;ExtractionSetDropdownComponent  -->
<g id="edge2" class="edge">
<title>ExtractionSetDropdownModule&#45;&gt;ExtractionSetDropdownComponent </title>
<path fill="none" stroke="black" stroke-dasharray="5,2" d="M134,-149.91C134,-149.91 134,-168.79 134,-168.79"/>
<polygon fill="black" stroke="black" points="130.5,-168.79 134,-178.79 137.5,-168.79 130.5,-168.79"/>
</g>
</g>
</svg>
