<?xml version="1.0" encoding="UTF-8" standalone="no"?>
<!DOCTYPE svg PUBLIC "-//W3C//DTD SVG 1.1//EN"
 "http://www.w3.org/Graphics/SVG/1.1/DTD/svg11.dtd">
<!-- Generated by graphviz version 2.47.0 (20210316.0004)
 -->
<!-- Title: dependencies Pages: 1 -->
<svg width="1820pt" height="211pt"
 viewBox="0.00 0.00 1820.00 211.00" xmlns="http://www.w3.org/2000/svg" xmlns:xlink="http://www.w3.org/1999/xlink">
<g id="graph0" class="graph" transform="scale(1 1) rotate(0) translate(4 207)">
<title>dependencies</title>
<polygon fill="white" stroke="transparent" points="-4,4 -4,-207 1816,-207 1816,4 -4,4"/>
<text text-anchor="start" x="885.01" y="-42.4" font-family="Times-12" font-weight="bold" font-size="14.00">Legend</text>
<polygon fill="#ffffb3" stroke="transparent" points="672,-10 672,-30 692,-30 692,-10 672,-10"/>
<text text-anchor="start" x="695.63" y="-15.4" font-family="Times-12" font-size="14.00"> &#160;Declarations</text>
<polygon fill="#8dd3c7" stroke="transparent" points="785,-10 785,-30 805,-30 805,-10 785,-10"/>
<text text-anchor="start" x="808.73" y="-15.4" font-family="Times-12" font-size="14.00"> &#160;Module</text>
<polygon fill="#80b1d3" stroke="transparent" points="871,-10 871,-30 891,-30 891,-10 871,-10"/>
<text text-anchor="start" x="894.78" y="-15.4" font-family="Times-12" font-size="14.00"> &#160;Bootstrap</text>
<polygon fill="#fdb462" stroke="transparent" points="968,-10 968,-30 988,-30 988,-10 968,-10"/>
<text text-anchor="start" x="991.67" y="-15.4" font-family="Times-12" font-size="14.00"> &#160;Providers</text>
<polygon fill="#fb8072" stroke="transparent" points="1064,-10 1064,-30 1084,-30 1084,-10 1064,-10"/>
<text text-anchor="start" x="1087.73" y="-15.4" font-family="Times-12" font-size="14.00"> &#160;Exports</text>
<g id="clust1" class="cluster">
<title>cluster_AppModule</title>
<polygon fill="none" stroke="black" stroke-dasharray="1,5" points="8,-70 8,-195 1804,-195 1804,-70 8,-70"/>
</g>
<g id="clust2" class="cluster">
<title>cluster_AppModule_declarations</title>
<polygon fill="none" stroke="black" points="1524,-78 1524,-130 1796,-130 1796,-78 1524,-78"/>
</g>
<g id="clust5" class="cluster">
<title>cluster_AppModule_imports</title>
<polygon fill="none" stroke="black" points="16,-78 16,-130 1516,-130 1516,-78 16,-78"/>
</g>
<!-- AppComponent -->
<g id="node1" class="node">
<title>AppComponent</title>
<polygon fill="#ffffb3" stroke="black" points="1787.94,-122 1682.06,-122 1682.06,-86 1787.94,-86 1787.94,-122"/>
<text text-anchor="middle" x="1735" y="-99.8" font-family="Times,serif" font-size="14.00">AppComponent</text>
</g>
<!-- AppModule -->
<g id="node3" class="node">
<title>AppModule</title>
<polygon fill="#8dd3c7" stroke="black" points="1034.66,-187 1031.66,-191 1010.66,-191 1007.66,-187 951.34,-187 951.34,-151 1034.66,-151 1034.66,-187"/>
<text text-anchor="middle" x="993" y="-164.8" font-family="Times,serif" font-size="14.00">AppModule</text>
</g>
<!-- AppComponent&#45;&gt;AppModule -->
<g id="edge1" class="edge">
<title>AppComponent&#45;&gt;AppModule</title>
<path fill="none" stroke="black" d="M1735,-122.09C1735,-145.13 1735,-182 1735,-182 1735,-182 1044.75,-182 1044.75,-182"/>
<polygon fill="black" stroke="black" points="1044.75,-178.5 1034.75,-182 1044.75,-185.5 1044.75,-178.5"/>
</g>
<!-- AppWebComponent -->
<g id="node2" class="node">
<title>AppWebComponent</title>
<polygon fill="#ffffb3" stroke="black" points="1663.87,-122 1532.13,-122 1532.13,-86 1663.87,-86 1663.87,-122"/>
<text text-anchor="middle" x="1598" y="-99.8" font-family="Times,serif" font-size="14.00">AppWebComponent</text>
</g>
<!-- AppWebComponent&#45;&gt;AppModule -->
<g id="edge2" class="edge">
<title>AppWebComponent&#45;&gt;AppModule</title>
<path fill="none" stroke="black" d="M1598,-122.28C1598,-143.32 1598,-175 1598,-175 1598,-175 1045.06,-175 1045.06,-175"/>
<polygon fill="black" stroke="black" points="1045.06,-171.5 1035.06,-175 1045.06,-178.5 1045.06,-171.5"/>
</g>
<!-- ButtonToggleModule -->
<g id="node4" class="node">
<title>ButtonToggleModule</title>
<polygon fill="#8dd3c7" stroke="black" points="1507.83,-122 1504.83,-126 1483.83,-126 1480.83,-122 1370.17,-122 1370.17,-86 1507.83,-86 1507.83,-122"/>
<text text-anchor="middle" x="1439" y="-99.8" font-family="Times,serif" font-size="14.00">ButtonToggleModule</text>
</g>
<!-- ButtonToggleModule&#45;&gt;AppModule -->
<g id="edge3" class="edge">
<title>ButtonToggleModule&#45;&gt;AppModule</title>
<path fill="none" stroke="black" d="M1439,-122.11C1439,-141.34 1439,-169 1439,-169 1439,-169 1044.96,-169 1044.96,-169"/>
<polygon fill="black" stroke="black" points="1044.96,-165.5 1034.96,-169 1044.96,-172.5 1044.96,-165.5"/>
</g>
<!-- CoreModule -->
<g id="node5" class="node">
<title>CoreModule</title>
<polygon fill="#8dd3c7" stroke="black" points="1352.26,-122 1349.26,-126 1328.26,-126 1325.26,-122 1265.74,-122 1265.74,-86 1352.26,-86 1352.26,-122"/>
<text text-anchor="middle" x="1309" y="-99.8" font-family="Times,serif" font-size="14.00">CoreModule</text>
</g>
<!-- CoreModule&#45;&gt;AppModule -->
<g id="edge4" class="edge">
<title>CoreModule&#45;&gt;AppModule</title>
<path fill="none" stroke="black" d="M1309,-122.02C1309,-139.37 1309,-163 1309,-163 1309,-163 1044.96,-163 1044.96,-163"/>
<polygon fill="black" stroke="black" points="1044.96,-159.5 1034.96,-163 1044.96,-166.5 1044.96,-159.5"/>
</g>
<!-- DrawerModule -->
<g id="node6" class="node">
<title>DrawerModule</title>
<polygon fill="#8dd3c7" stroke="black" points="1247.51,-122 1244.51,-126 1223.51,-126 1220.51,-122 1146.49,-122 1146.49,-86 1247.51,-86 1247.51,-122"/>
<text text-anchor="middle" x="1197" y="-99.8" font-family="Times,serif" font-size="14.00">DrawerModule</text>
</g>
<!-- DrawerModule&#45;&gt;AppModule -->
<g id="edge5" class="edge">
<title>DrawerModule&#45;&gt;AppModule</title>
<path fill="none" stroke="black" d="M1197,-122.24C1197,-137.57 1197,-157 1197,-157 1197,-157 1044.77,-157 1044.77,-157"/>
<polygon fill="black" stroke="black" points="1044.77,-153.5 1034.77,-157 1044.77,-160.5 1044.77,-153.5"/>
</g>
<!-- DualSliderModule -->
<g id="node7" class="node">
<title>DualSliderModule</title>
<polygon fill="#8dd3c7" stroke="black" points="1128.2,-122 1125.2,-126 1104.2,-126 1101.2,-122 1007.8,-122 1007.8,-86 1128.2,-86 1128.2,-122"/>
<text text-anchor="middle" x="1068" y="-99.8" font-family="Times,serif" font-size="14.00">DualSliderModule</text>
</g>
<!-- DualSliderModule&#45;&gt;AppModule -->
<g id="edge6" class="edge">
<title>DualSliderModule&#45;&gt;AppModule</title>
<path fill="none" stroke="black" d="M1021.36,-122.11C1021.36,-122.11 1021.36,-140.99 1021.36,-140.99"/>
<polygon fill="black" stroke="black" points="1017.86,-140.99 1021.36,-150.99 1024.86,-140.99 1017.86,-140.99"/>
</g>
<!-- FiltersPopoverModule -->
<g id="node8" class="node">
<title>FiltersPopoverModule</title>
<polygon fill="#8dd3c7" stroke="black" points="989.98,-122 986.98,-126 965.98,-126 962.98,-122 848.02,-122 848.02,-86 989.98,-86 989.98,-122"/>
<text text-anchor="middle" x="919" y="-99.8" font-family="Times,serif" font-size="14.00">FiltersPopoverModule</text>
</g>
<!-- FiltersPopoverModule&#45;&gt;AppModule -->
<g id="edge7" class="edge">
<title>FiltersPopoverModule&#45;&gt;AppModule</title>
<path fill="none" stroke="black" d="M970.58,-122.11C970.58,-122.11 970.58,-140.99 970.58,-140.99"/>
<polygon fill="black" stroke="black" points="967.08,-140.99 970.58,-150.99 974.08,-140.99 967.08,-140.99"/>
</g>
<!-- OntologyExplorationModule -->
<g id="node9" class="node">
<title>OntologyExplorationModule</title>
<polygon fill="#8dd3c7" stroke="black" points="830.04,-122 827.04,-126 806.04,-126 803.04,-122 651.96,-122 651.96,-86 830.04,-86 830.04,-122"/>
<text text-anchor="middle" x="741" y="-99.8" font-family="Times,serif" font-size="14.00">OntologyExplorationModule</text>
</g>
<!-- OntologyExplorationModule&#45;&gt;AppModule -->
<g id="edge8" class="edge">
<title>OntologyExplorationModule&#45;&gt;AppModule</title>
<path fill="none" stroke="black" d="M741,-122.24C741,-137.57 741,-157 741,-157 741,-157 941.1,-157 941.1,-157"/>
<polygon fill="black" stroke="black" points="941.1,-160.5 951.1,-157 941.1,-153.5 941.1,-160.5"/>
</g>
<!-- ResultsBrowserModule -->
<g id="node10" class="node">
<title>ResultsBrowserModule</title>
<polygon fill="#8dd3c7" stroke="black" points="634.2,-122 631.2,-126 610.2,-126 607.2,-122 485.8,-122 485.8,-86 634.2,-86 634.2,-122"/>
<text text-anchor="middle" x="560" y="-99.8" font-family="Times,serif" font-size="14.00">ResultsBrowserModule</text>
</g>
<!-- ResultsBrowserModule&#45;&gt;AppModule -->
<g id="edge9" class="edge">
<title>ResultsBrowserModule&#45;&gt;AppModule</title>
<path fill="none" stroke="black" d="M560,-122.02C560,-139.37 560,-163 560,-163 560,-163 941.09,-163 941.09,-163"/>
<polygon fill="black" stroke="black" points="941.09,-166.5 951.09,-163 941.09,-159.5 941.09,-166.5"/>
</g>
<!-- RunSpatialSearchModule -->
<g id="node11" class="node">
<title>RunSpatialSearchModule</title>
<polygon fill="#8dd3c7" stroke="black" points="467.86,-122 464.86,-126 443.86,-126 440.86,-122 308.14,-122 308.14,-86 467.86,-86 467.86,-122"/>
<text text-anchor="middle" x="388" y="-99.8" font-family="Times,serif" font-size="14.00">RunSpatialSearchModule</text>
</g>
<!-- RunSpatialSearchModule&#45;&gt;AppModule -->
<g id="edge10" class="edge">
<title>RunSpatialSearchModule&#45;&gt;AppModule</title>
<path fill="none" stroke="black" d="M388,-122.11C388,-141.34 388,-169 388,-169 388,-169 940.94,-169 940.94,-169"/>
<polygon fill="black" stroke="black" points="940.94,-172.5 950.94,-169 940.94,-165.5 940.94,-172.5"/>
</g>
<!-- SpinnerOverlayModule -->
<g id="node12" class="node">
<title>SpinnerOverlayModule</title>
<polygon fill="#8dd3c7" stroke="black" points="290.19,-122 287.19,-126 266.19,-126 263.19,-122 141.81,-122 141.81,-86 290.19,-86 290.19,-122"/>
<text text-anchor="middle" x="216" y="-99.8" font-family="Times,serif" font-size="14.00">SpinnerOverlayModule</text>
</g>
<!-- SpinnerOverlayModule&#45;&gt;AppModule -->
<g id="edge11" class="edge">
<title>SpinnerOverlayModule&#45;&gt;AppModule</title>
<path fill="none" stroke="black" d="M216,-122.28C216,-143.32 216,-175 216,-175 216,-175 941.23,-175 941.23,-175"/>
<polygon fill="black" stroke="black" points="941.23,-178.5 951.23,-175 941.23,-171.5 941.23,-178.5"/>
</g>
<!-- ViewerModule -->
<g id="node13" class="node">
<title>ViewerModule</title>
<polygon fill="#8dd3c7" stroke="black" points="124.24,-122 121.24,-126 100.24,-126 97.24,-122 23.76,-122 23.76,-86 124.24,-86 124.24,-122"/>
<text text-anchor="middle" x="74" y="-99.8" font-family="Times,serif" font-size="14.00">ViewerModule</text>
</g>
<!-- ViewerModule&#45;&gt;AppModule -->
<g id="edge12" class="edge">
<title>ViewerModule&#45;&gt;AppModule</title>
<path fill="none" stroke="black" d="M74,-122.09C74,-145.13 74,-182 74,-182 74,-182 941.12,-182 941.12,-182"/>
<polygon fill="black" stroke="black" points="941.12,-185.5 951.12,-182 941.12,-178.5 941.12,-185.5"/>
</g>
</g>
</svg>
