<?xml version="1.0" encoding="UTF-8" standalone="no"?>
<!DOCTYPE svg PUBLIC "-//W3C//DTD SVG 1.1//EN"
 "http://www.w3.org/Graphics/SVG/1.1/DTD/svg11.dtd">
<!-- Generated by graphviz version 2.47.3 (20210619.1520)
 -->
<!-- Title: dependencies Pages: 1 -->
<svg width="1486pt" height="174pt"
 viewBox="0.00 0.00 1486.00 173.80" xmlns="http://www.w3.org/2000/svg" xmlns:xlink="http://www.w3.org/1999/xlink">
<g id="graph0" class="graph" transform="scale(1 1) rotate(0) translate(4 169.8)">
<title>dependencies</title>
<polygon fill="white" stroke="transparent" points="-4,4 -4,-169.8 1482,-169.8 1482,4 -4,4"/>
<text text-anchor="middle" x="739" y="-8.2" font-family="sans-serif" font-size="14.00">dependencies</text>
<g id="clust1" class="cluster">
<title>cluster_AppModule</title>
<polygon fill="none" stroke="black" stroke-dasharray="1,5" points="8,-32.8 8,-157.8 1470,-157.8 1470,-32.8 8,-32.8"/>
</g>
<g id="clust2" class="cluster">
<title>cluster_AppModule_declarations</title>
<polygon fill="none" stroke="black" points="1190,-40.8 1190,-92.8 1462,-92.8 1462,-40.8 1190,-40.8"/>
</g>
<g id="clust5" class="cluster">
<title>cluster_AppModule_imports</title>
<polygon fill="none" stroke="black" points="16,-40.8 16,-92.8 1182,-92.8 1182,-40.8 16,-40.8"/>
</g>
<!-- AppComponent -->
<g id="node1" class="node">
<title>AppComponent</title>
<polygon fill="#ffffb3" stroke="black" points="1453.94,-84.8 1348.06,-84.8 1348.06,-48.8 1453.94,-48.8 1453.94,-84.8"/>
<text text-anchor="middle" x="1401" y="-62.6" font-family="Times,serif" font-size="14.00">AppComponent</text>
</g>
<!-- AppModule -->
<g id="node3" class="node">
<title>AppModule</title>
<polygon fill="#8dd3c7" stroke="black" points="856.66,-149.8 853.66,-153.8 832.66,-153.8 829.66,-149.8 773.34,-149.8 773.34,-113.8 856.66,-113.8 856.66,-149.8"/>
<text text-anchor="middle" x="815" y="-127.6" font-family="Times,serif" font-size="14.00">AppModule</text>
</g>
<!-- AppComponent&#45;&gt;AppModule -->
<g id="edge1" class="edge">
<title>AppComponent&#45;&gt;AppModule</title>
<path fill="none" stroke="black" d="M1401,-84.81C1401,-107.29 1401,-142.8 1401,-142.8 1401,-142.8 866.67,-142.8 866.67,-142.8"/>
<polygon fill="black" stroke="black" points="866.67,-139.3 856.67,-142.8 866.67,-146.3 866.67,-139.3"/>
</g>
<!-- AppWebComponent -->
<g id="node2" class="node">
<title>AppWebComponent</title>
<polygon fill="#ffffb3" stroke="black" points="1329.87,-84.8 1198.13,-84.8 1198.13,-48.8 1329.87,-48.8 1329.87,-84.8"/>
<text text-anchor="middle" x="1264" y="-62.6" font-family="Times,serif" font-size="14.00">AppWebComponent</text>
</g>
<!-- AppWebComponent&#45;&gt;AppModule -->
<g id="edge2" class="edge">
<title>AppWebComponent&#45;&gt;AppModule</title>
<path fill="none" stroke="black" d="M1264,-84.93C1264,-105.37 1264,-135.8 1264,-135.8 1264,-135.8 866.84,-135.8 866.84,-135.8"/>
<polygon fill="black" stroke="black" points="866.84,-132.3 856.84,-135.8 866.84,-139.3 866.84,-132.3"/>
</g>
<!-- CoreModule -->
<g id="node4" class="node">
<title>CoreModule</title>
<polygon fill="#8dd3c7" stroke="black" points="1174.26,-84.8 1171.26,-88.8 1150.26,-88.8 1147.26,-84.8 1087.74,-84.8 1087.74,-48.8 1174.26,-48.8 1174.26,-84.8"/>
<text text-anchor="middle" x="1131" y="-62.6" font-family="Times,serif" font-size="14.00">CoreModule</text>
</g>
<!-- CoreModule&#45;&gt;AppModule -->
<g id="edge3" class="edge">
<title>CoreModule&#45;&gt;AppModule</title>
<path fill="none" stroke="black" d="M1131,-85.07C1131,-103.36 1131,-128.8 1131,-128.8 1131,-128.8 866.96,-128.8 866.96,-128.8"/>
<polygon fill="black" stroke="black" points="866.96,-125.3 856.96,-128.8 866.96,-132.3 866.96,-125.3"/>
</g>
<!-- DrawerModule -->
<g id="node5" class="node">
<title>DrawerModule</title>
<polygon fill="#8dd3c7" stroke="black" points="1069.51,-84.8 1066.51,-88.8 1045.51,-88.8 1042.51,-84.8 968.49,-84.8 968.49,-48.8 1069.51,-48.8 1069.51,-84.8"/>
<text text-anchor="middle" x="1019" y="-62.6" font-family="Times,serif" font-size="14.00">DrawerModule</text>
</g>
<!-- DrawerModule&#45;&gt;AppModule -->
<g id="edge4" class="edge">
<title>DrawerModule&#45;&gt;AppModule</title>
<path fill="none" stroke="black" d="M1019,-84.81C1019,-100.85 1019,-121.8 1019,-121.8 1019,-121.8 866.77,-121.8 866.77,-121.8"/>
<polygon fill="black" stroke="black" points="866.77,-118.3 856.77,-121.8 866.77,-125.3 866.77,-118.3"/>
</g>
<!-- DualSliderModule -->
<g id="node6" class="node">
<title>DualSliderModule</title>
<polygon fill="#8dd3c7" stroke="black" points="950.2,-84.8 947.2,-88.8 926.2,-88.8 923.2,-84.8 829.8,-84.8 829.8,-48.8 950.2,-48.8 950.2,-84.8"/>
<text text-anchor="middle" x="890" y="-62.6" font-family="Times,serif" font-size="14.00">DualSliderModule</text>
</g>
<!-- DualSliderModule&#45;&gt;AppModule -->
<g id="edge5" class="edge">
<title>DualSliderModule&#45;&gt;AppModule</title>
<path fill="none" stroke="black" d="M843.36,-84.91C843.36,-84.91 843.36,-103.79 843.36,-103.79"/>
<polygon fill="black" stroke="black" points="839.86,-103.79 843.36,-113.79 846.86,-103.79 839.86,-103.79"/>
</g>
<!-- FiltersPopoverModule -->
<g id="node7" class="node">
<title>FiltersPopoverModule</title>
<polygon fill="#8dd3c7" stroke="black" points="811.98,-84.8 808.98,-88.8 787.98,-88.8 784.98,-84.8 670.02,-84.8 670.02,-48.8 811.98,-48.8 811.98,-84.8"/>
<text text-anchor="middle" x="741" y="-62.6" font-family="Times,serif" font-size="14.00">FiltersPopoverModule</text>
</g>
<!-- FiltersPopoverModule&#45;&gt;AppModule -->
<g id="edge6" class="edge">
<title>FiltersPopoverModule&#45;&gt;AppModule</title>
<path fill="none" stroke="black" d="M792.58,-84.91C792.58,-84.91 792.58,-103.79 792.58,-103.79"/>
<polygon fill="black" stroke="black" points="789.08,-103.79 792.58,-113.79 796.08,-103.79 789.08,-103.79"/>
</g>
<!-- OntologyExplorationModule -->
<g id="node8" class="node">
<title>OntologyExplorationModule</title>
<polygon fill="#8dd3c7" stroke="black" points="652.04,-84.8 649.04,-88.8 628.04,-88.8 625.04,-84.8 473.96,-84.8 473.96,-48.8 652.04,-48.8 652.04,-84.8"/>
<text text-anchor="middle" x="563" y="-62.6" font-family="Times,serif" font-size="14.00">OntologyExplorationModule</text>
</g>
<!-- OntologyExplorationModule&#45;&gt;AppModule -->
<g id="edge7" class="edge">
<title>OntologyExplorationModule&#45;&gt;AppModule</title>
<path fill="none" stroke="black" d="M563,-84.81C563,-100.85 563,-121.8 563,-121.8 563,-121.8 763.1,-121.8 763.1,-121.8"/>
<polygon fill="black" stroke="black" points="763.1,-125.3 773.1,-121.8 763.1,-118.3 763.1,-125.3"/>
</g>
<!-- ResultsBrowserModule -->
<g id="node9" class="node">
<title>ResultsBrowserModule</title>
<polygon fill="#8dd3c7" stroke="black" points="456.2,-84.8 453.2,-88.8 432.2,-88.8 429.2,-84.8 307.8,-84.8 307.8,-48.8 456.2,-48.8 456.2,-84.8"/>
<text text-anchor="middle" x="382" y="-62.6" font-family="Times,serif" font-size="14.00">ResultsBrowserModule</text>
</g>
<!-- ResultsBrowserModule&#45;&gt;AppModule -->
<g id="edge8" class="edge">
<title>ResultsBrowserModule&#45;&gt;AppModule</title>
<path fill="none" stroke="black" d="M382,-85.07C382,-103.36 382,-128.8 382,-128.8 382,-128.8 763.09,-128.8 763.09,-128.8"/>
<polygon fill="black" stroke="black" points="763.09,-132.3 773.09,-128.8 763.09,-125.3 763.09,-132.3"/>
</g>
<!-- SpinnerOverlayModule -->
<g id="node10" class="node">
<title>SpinnerOverlayModule</title>
<polygon fill="#8dd3c7" stroke="black" points="290.19,-84.8 287.19,-88.8 266.19,-88.8 263.19,-84.8 141.81,-84.8 141.81,-48.8 290.19,-48.8 290.19,-84.8"/>
<text text-anchor="middle" x="216" y="-62.6" font-family="Times,serif" font-size="14.00">SpinnerOverlayModule</text>
</g>
<!-- SpinnerOverlayModule&#45;&gt;AppModule -->
<g id="edge9" class="edge">
<title>SpinnerOverlayModule&#45;&gt;AppModule</title>
<path fill="none" stroke="black" d="M216,-84.93C216,-105.37 216,-135.8 216,-135.8 216,-135.8 762.88,-135.8 762.88,-135.8"/>
<polygon fill="black" stroke="black" points="762.88,-139.3 772.88,-135.8 762.88,-132.3 762.88,-139.3"/>
</g>
<!-- ViewerModule -->
<g id="node11" class="node">
<title>ViewerModule</title>
<polygon fill="#8dd3c7" stroke="black" points="124.24,-84.8 121.24,-88.8 100.24,-88.8 97.24,-84.8 23.76,-84.8 23.76,-48.8 124.24,-48.8 124.24,-84.8"/>
<text text-anchor="middle" x="74" y="-62.6" font-family="Times,serif" font-size="14.00">ViewerModule</text>
</g>
<!-- ViewerModule&#45;&gt;AppModule -->
<g id="edge10" class="edge">
<title>ViewerModule&#45;&gt;AppModule</title>
<path fill="none" stroke="black" d="M74,-84.81C74,-107.29 74,-142.8 74,-142.8 74,-142.8 763.31,-142.8 763.31,-142.8"/>
<polygon fill="black" stroke="black" points="763.31,-146.3 773.31,-142.8 763.31,-139.3 763.31,-146.3"/>
</g>
</g>
</svg>
