<?xml version="1.0" encoding="UTF-8" standalone="no"?>
<!DOCTYPE svg PUBLIC "-//W3C//DTD SVG 1.1//EN"
 "http://www.w3.org/Graphics/SVG/1.1/DTD/svg11.dtd">
<!-- Generated by graphviz version 2.47.3 (20210619.1520)
 -->
<!-- Title: dependencies Pages: 1 -->
<svg width="1486pt" height="174pt"
 viewBox="0.00 0.00 1486.00 173.80" xmlns="http://www.w3.org/2000/svg" xmlns:xlink="http://www.w3.org/1999/xlink">
<g id="graph0" class="graph" transform="scale(1 1) rotate(0) translate(4 169.8)">
<title>dependencies</title>
<polygon fill="white" stroke="transparent" points="-4,4 -4,-169.8 1482,-169.8 1482,4 -4,4"/>
<text text-anchor="middle" x="739" y="-8.2" font-family="sans-serif" font-size="14.00">dependencies</text>
<g id="clust1" class="cluster">
<title>cluster_AppModule</title>
<polygon fill="none" stroke="black" stroke-dasharray="1,5" points="8,-32.8 8,-157.8 1470,-157.8 1470,-32.8 8,-32.8"/>
</g>
<g id="clust5" class="cluster">
<title>cluster_AppModule_imports</title>
<polygon fill="none" stroke="black" points="296,-40.8 296,-92.8 1462,-92.8 1462,-40.8 296,-40.8"/>
</g>
<g id="clust2" class="cluster">
<title>cluster_AppModule_declarations</title>
<polygon fill="none" stroke="black" points="16,-40.8 16,-92.8 288,-92.8 288,-40.8 16,-40.8"/>
</g>
<!-- AppComponent -->
<g id="node1" class="node">
<title>AppComponent</title>
<polygon fill="#ffffb3" stroke="black" points="279.94,-84.8 174.06,-84.8 174.06,-48.8 279.94,-48.8 279.94,-84.8"/>
<text text-anchor="middle" x="227" y="-62.6" font-family="Times,serif" font-size="14.00">AppComponent</text>
</g>
<!-- AppModule -->
<g id="node3" class="node">
<title>AppModule</title>
<polygon fill="#8dd3c7" stroke="black" points="793.66,-149.8 790.66,-153.8 769.66,-153.8 766.66,-149.8 710.34,-149.8 710.34,-113.8 793.66,-113.8 793.66,-149.8"/>
<text text-anchor="middle" x="752" y="-127.6" font-family="Times,serif" font-size="14.00">AppModule</text>
</g>
<!-- AppComponent&#45;&gt;AppModule -->
<g id="edge1" class="edge">
<title>AppComponent&#45;&gt;AppModule</title>
<path fill="none" stroke="black" d="M227,-84.93C227,-105.37 227,-135.8 227,-135.8 227,-135.8 699.92,-135.8 699.92,-135.8"/>
<polygon fill="black" stroke="black" points="699.92,-139.3 709.92,-135.8 699.92,-132.3 699.92,-139.3"/>
</g>
<!-- AppWebComponent -->
<g id="node2" class="node">
<title>AppWebComponent</title>
<polygon fill="#ffffb3" stroke="black" points="155.87,-84.8 24.13,-84.8 24.13,-48.8 155.87,-48.8 155.87,-84.8"/>
<text text-anchor="middle" x="90" y="-62.6" font-family="Times,serif" font-size="14.00">AppWebComponent</text>
</g>
<!-- AppWebComponent&#45;&gt;AppModule -->
<g id="edge2" class="edge">
<title>AppWebComponent&#45;&gt;AppModule</title>
<path fill="none" stroke="black" d="M90,-84.81C90,-107.29 90,-142.8 90,-142.8 90,-142.8 700.34,-142.8 700.34,-142.8"/>
<polygon fill="black" stroke="black" points="700.34,-146.3 710.34,-142.8 700.34,-139.3 700.34,-146.3"/>
</g>
<!-- CoreModule -->
<g id="node4" class="node">
<title>CoreModule</title>
<polygon fill="#8dd3c7" stroke="black" points="1454.26,-84.8 1451.26,-88.8 1430.26,-88.8 1427.26,-84.8 1367.74,-84.8 1367.74,-48.8 1454.26,-48.8 1454.26,-84.8"/>
<text text-anchor="middle" x="1411" y="-62.6" font-family="Times,serif" font-size="14.00">CoreModule</text>
</g>
<!-- CoreModule&#45;&gt;AppModule -->
<g id="edge3" class="edge">
<title>CoreModule&#45;&gt;AppModule</title>
<path fill="none" stroke="black" d="M1411,-84.81C1411,-107.29 1411,-142.8 1411,-142.8 1411,-142.8 803.72,-142.8 803.72,-142.8"/>
<polygon fill="black" stroke="black" points="803.72,-139.3 793.72,-142.8 803.72,-146.3 803.72,-139.3"/>
</g>
<!-- DrawerModule -->
<g id="node5" class="node">
<title>DrawerModule</title>
<polygon fill="#8dd3c7" stroke="black" points="1349.51,-84.8 1346.51,-88.8 1325.51,-88.8 1322.51,-84.8 1248.49,-84.8 1248.49,-48.8 1349.51,-48.8 1349.51,-84.8"/>
<text text-anchor="middle" x="1299" y="-62.6" font-family="Times,serif" font-size="14.00">DrawerModule</text>
</g>
<!-- DrawerModule&#45;&gt;AppModule -->
<g id="edge4" class="edge">
<title>DrawerModule&#45;&gt;AppModule</title>
<path fill="none" stroke="black" d="M1299,-84.93C1299,-105.37 1299,-135.8 1299,-135.8 1299,-135.8 804.01,-135.8 804.01,-135.8"/>
<polygon fill="black" stroke="black" points="804.01,-132.3 794.01,-135.8 804.01,-139.3 804.01,-132.3"/>
</g>
<!-- DualSliderModule -->
<g id="node6" class="node">
<title>DualSliderModule</title>
<polygon fill="#8dd3c7" stroke="black" points="1230.2,-84.8 1227.2,-88.8 1206.2,-88.8 1203.2,-84.8 1109.8,-84.8 1109.8,-48.8 1230.2,-48.8 1230.2,-84.8"/>
<text text-anchor="middle" x="1170" y="-62.6" font-family="Times,serif" font-size="14.00">DualSliderModule</text>
</g>
<!-- DualSliderModule&#45;&gt;AppModule -->
<g id="edge5" class="edge">
<title>DualSliderModule&#45;&gt;AppModule</title>
<path fill="none" stroke="black" d="M1170,-85.07C1170,-103.36 1170,-128.8 1170,-128.8 1170,-128.8 803.99,-128.8 803.99,-128.8"/>
<polygon fill="black" stroke="black" points="803.99,-125.3 793.99,-128.8 803.99,-132.3 803.99,-125.3"/>
</g>
<!-- FiltersPopoverModule -->
<g id="node7" class="node">
<title>FiltersPopoverModule</title>
<polygon fill="#8dd3c7" stroke="black" points="1091.98,-84.8 1088.98,-88.8 1067.98,-88.8 1064.98,-84.8 950.02,-84.8 950.02,-48.8 1091.98,-48.8 1091.98,-84.8"/>
<text text-anchor="middle" x="1021" y="-62.6" font-family="Times,serif" font-size="14.00">FiltersPopoverModule</text>
</g>
<!-- FiltersPopoverModule&#45;&gt;AppModule -->
<g id="edge6" class="edge">
<title>FiltersPopoverModule&#45;&gt;AppModule</title>
<path fill="none" stroke="black" d="M1021,-84.81C1021,-100.85 1021,-121.8 1021,-121.8 1021,-121.8 803.74,-121.8 803.74,-121.8"/>
<polygon fill="black" stroke="black" points="803.74,-118.3 793.74,-121.8 803.74,-125.3 803.74,-118.3"/>
</g>
<!-- OntologyExplorationModule -->
<g id="node8" class="node">
<title>OntologyExplorationModule</title>
<polygon fill="#8dd3c7" stroke="black" points="932.04,-84.8 929.04,-88.8 908.04,-88.8 905.04,-84.8 753.96,-84.8 753.96,-48.8 932.04,-48.8 932.04,-84.8"/>
<text text-anchor="middle" x="843" y="-62.6" font-family="Times,serif" font-size="14.00">OntologyExplorationModule</text>
</g>
<!-- OntologyExplorationModule&#45;&gt;AppModule -->
<g id="edge7" class="edge">
<title>OntologyExplorationModule&#45;&gt;AppModule</title>
<path fill="none" stroke="black" d="M773.78,-84.91C773.78,-84.91 773.78,-103.79 773.78,-103.79"/>
<polygon fill="black" stroke="black" points="770.28,-103.79 773.78,-113.79 777.28,-103.79 770.28,-103.79"/>
</g>
<!-- ResultsBrowserModule -->
<g id="node9" class="node">
<title>ResultsBrowserModule</title>
<polygon fill="#8dd3c7" stroke="black" points="736.2,-84.8 733.2,-88.8 712.2,-88.8 709.2,-84.8 587.8,-84.8 587.8,-48.8 736.2,-48.8 736.2,-84.8"/>
<text text-anchor="middle" x="662" y="-62.6" font-family="Times,serif" font-size="14.00">ResultsBrowserModule</text>
</g>
<!-- ResultsBrowserModule&#45;&gt;AppModule -->
<g id="edge8" class="edge">
<title>ResultsBrowserModule&#45;&gt;AppModule</title>
<path fill="none" stroke="black" d="M723.13,-84.91C723.13,-84.91 723.13,-103.79 723.13,-103.79"/>
<polygon fill="black" stroke="black" points="719.63,-103.79 723.13,-113.79 726.63,-103.79 719.63,-103.79"/>
</g>
<!-- SpinnerOverlayModule -->
<g id="node10" class="node">
<title>SpinnerOverlayModule</title>
<polygon fill="#8dd3c7" stroke="black" points="570.19,-84.8 567.19,-88.8 546.19,-88.8 543.19,-84.8 421.81,-84.8 421.81,-48.8 570.19,-48.8 570.19,-84.8"/>
<text text-anchor="middle" x="496" y="-62.6" font-family="Times,serif" font-size="14.00">SpinnerOverlayModule</text>
</g>
<!-- SpinnerOverlayModule&#45;&gt;AppModule -->
<g id="edge9" class="edge">
<title>SpinnerOverlayModule&#45;&gt;AppModule</title>
<path fill="none" stroke="black" d="M496,-84.81C496,-100.85 496,-121.8 496,-121.8 496,-121.8 700.3,-121.8 700.3,-121.8"/>
<polygon fill="black" stroke="black" points="700.3,-125.3 710.3,-121.8 700.3,-118.3 700.3,-125.3"/>
</g>
<!-- ViewerModule -->
<g id="node11" class="node">
<title>ViewerModule</title>
<polygon fill="#8dd3c7" stroke="black" points="404.24,-84.8 401.24,-88.8 380.24,-88.8 377.24,-84.8 303.76,-84.8 303.76,-48.8 404.24,-48.8 404.24,-84.8"/>
<text text-anchor="middle" x="354" y="-62.6" font-family="Times,serif" font-size="14.00">ViewerModule</text>
</g>
<!-- ViewerModule&#45;&gt;AppModule -->
<g id="edge10" class="edge">
<title>ViewerModule&#45;&gt;AppModule</title>
<path fill="none" stroke="black" d="M354,-85.07C354,-103.36 354,-128.8 354,-128.8 354,-128.8 700.16,-128.8 700.16,-128.8"/>
<polygon fill="black" stroke="black" points="700.16,-132.3 710.16,-128.8 700.16,-125.3 700.16,-132.3"/>
</g>
</g>
</svg>
