<?xml version="1.0" encoding="UTF-8" standalone="no"?>
<!DOCTYPE svg PUBLIC "-//W3C//DTD SVG 1.1//EN"
 "http://www.w3.org/Graphics/SVG/1.1/DTD/svg11.dtd">
<!-- Generated by graphviz version 2.47.0 (20210316.0004)
 -->
<!-- Title: dependencies Pages: 1 -->
<svg width="1664pt" height="211pt"
 viewBox="0.00 0.00 1664.00 211.00" xmlns="http://www.w3.org/2000/svg" xmlns:xlink="http://www.w3.org/1999/xlink">
<g id="graph0" class="graph" transform="scale(1 1) rotate(0) translate(4 207)">
<title>dependencies</title>
<polygon fill="white" stroke="transparent" points="-4,4 -4,-207 1660,-207 1660,4 -4,4"/>
<text text-anchor="start" x="807.01" y="-42.4" font-family="Times-12" font-weight="bold" font-size="14.00">Legend</text>
<polygon fill="#ffffb3" stroke="transparent" points="594,-10 594,-30 614,-30 614,-10 594,-10"/>
<text text-anchor="start" x="617.63" y="-15.4" font-family="Times-12" font-size="14.00"> &#160;Declarations</text>
<polygon fill="#8dd3c7" stroke="transparent" points="707,-10 707,-30 727,-30 727,-10 707,-10"/>
<text text-anchor="start" x="730.73" y="-15.4" font-family="Times-12" font-size="14.00"> &#160;Module</text>
<polygon fill="#80b1d3" stroke="transparent" points="793,-10 793,-30 813,-30 813,-10 793,-10"/>
<text text-anchor="start" x="816.78" y="-15.4" font-family="Times-12" font-size="14.00"> &#160;Bootstrap</text>
<polygon fill="#fdb462" stroke="transparent" points="890,-10 890,-30 910,-30 910,-10 890,-10"/>
<text text-anchor="start" x="913.67" y="-15.4" font-family="Times-12" font-size="14.00"> &#160;Providers</text>
<polygon fill="#fb8072" stroke="transparent" points="986,-10 986,-30 1006,-30 1006,-10 986,-10"/>
<text text-anchor="start" x="1009.73" y="-15.4" font-family="Times-12" font-size="14.00"> &#160;Exports</text>
<g id="clust1" class="cluster">
<title>cluster_AppModule</title>
<polygon fill="none" stroke="black" stroke-dasharray="1,5" points="8,-70 8,-195 1648,-195 1648,-70 8,-70"/>
</g>
<g id="clust2" class="cluster">
<title>cluster_AppModule_declarations</title>
<polygon fill="none" stroke="black" points="1368,-78 1368,-130 1640,-130 1640,-78 1368,-78"/>
</g>
<g id="clust5" class="cluster">
<title>cluster_AppModule_imports</title>
<polygon fill="none" stroke="black" points="16,-78 16,-130 1360,-130 1360,-78 16,-78"/>
</g>
<!-- AppComponent -->
<g id="node1" class="node">
<title>AppComponent</title>
<polygon fill="#ffffb3" stroke="black" points="1631.94,-122 1526.06,-122 1526.06,-86 1631.94,-86 1631.94,-122"/>
<text text-anchor="middle" x="1579" y="-99.8" font-family="Times,serif" font-size="14.00">AppComponent</text>
</g>
<!-- AppModule -->
<g id="node3" class="node">
<title>AppModule</title>
<polygon fill="#8dd3c7" stroke="black" points="960.66,-187 957.66,-191 936.66,-191 933.66,-187 877.34,-187 877.34,-151 960.66,-151 960.66,-187"/>
<text text-anchor="middle" x="919" y="-164.8" font-family="Times,serif" font-size="14.00">AppModule</text>
</g>
<!-- AppComponent&#45;&gt;AppModule -->
<g id="edge1" class="edge">
<title>AppComponent&#45;&gt;AppModule</title>
<path fill="none" stroke="black" d="M1579,-122.09C1579,-145.13 1579,-182 1579,-182 1579,-182 970.79,-182 970.79,-182"/>
<polygon fill="black" stroke="black" points="970.79,-178.5 960.79,-182 970.79,-185.5 970.79,-178.5"/>
</g>
<!-- AppWebComponent -->
<g id="node2" class="node">
<title>AppWebComponent</title>
<polygon fill="#ffffb3" stroke="black" points="1507.87,-122 1376.13,-122 1376.13,-86 1507.87,-86 1507.87,-122"/>
<text text-anchor="middle" x="1442" y="-99.8" font-family="Times,serif" font-size="14.00">AppWebComponent</text>
</g>
<!-- AppWebComponent&#45;&gt;AppModule -->
<g id="edge2" class="edge">
<title>AppWebComponent&#45;&gt;AppModule</title>
<path fill="none" stroke="black" d="M1442,-122.28C1442,-143.32 1442,-175 1442,-175 1442,-175 970.92,-175 970.92,-175"/>
<polygon fill="black" stroke="black" points="970.92,-171.5 960.92,-175 970.92,-178.5 970.92,-171.5"/>
</g>
<!-- CoreModule -->
<g id="node4" class="node">
<title>CoreModule</title>
<polygon fill="#8dd3c7" stroke="black" points="1352.26,-122 1349.26,-126 1328.26,-126 1325.26,-122 1265.74,-122 1265.74,-86 1352.26,-86 1352.26,-122"/>
<text text-anchor="middle" x="1309" y="-99.8" font-family="Times,serif" font-size="14.00">CoreModule</text>
</g>
<!-- CoreModule&#45;&gt;AppModule -->
<g id="edge3" class="edge">
<title>CoreModule&#45;&gt;AppModule</title>
<path fill="none" stroke="black" d="M1309,-122.11C1309,-141.34 1309,-169 1309,-169 1309,-169 970.74,-169 970.74,-169"/>
<polygon fill="black" stroke="black" points="970.74,-165.5 960.74,-169 970.74,-172.5 970.74,-165.5"/>
</g>
<!-- DrawerModule -->
<g id="node5" class="node">
<title>DrawerModule</title>
<polygon fill="#8dd3c7" stroke="black" points="1247.51,-122 1244.51,-126 1223.51,-126 1220.51,-122 1146.49,-122 1146.49,-86 1247.51,-86 1247.51,-122"/>
<text text-anchor="middle" x="1197" y="-99.8" font-family="Times,serif" font-size="14.00">DrawerModule</text>
</g>
<!-- DrawerModule&#45;&gt;AppModule -->
<g id="edge4" class="edge">
<title>DrawerModule&#45;&gt;AppModule</title>
<path fill="none" stroke="black" d="M1197,-122.02C1197,-139.37 1197,-163 1197,-163 1197,-163 970.92,-163 970.92,-163"/>
<polygon fill="black" stroke="black" points="970.92,-159.5 960.92,-163 970.92,-166.5 970.92,-159.5"/>
</g>
<!-- DualSliderModule -->
<g id="node6" class="node">
<title>DualSliderModule</title>
<polygon fill="#8dd3c7" stroke="black" points="1128.2,-122 1125.2,-126 1104.2,-126 1101.2,-122 1007.8,-122 1007.8,-86 1128.2,-86 1128.2,-122"/>
<text text-anchor="middle" x="1068" y="-99.8" font-family="Times,serif" font-size="14.00">DualSliderModule</text>
</g>
<!-- DualSliderModule&#45;&gt;AppModule -->
<g id="edge5" class="edge">
<title>DualSliderModule&#45;&gt;AppModule</title>
<path fill="none" stroke="black" d="M1068,-122.24C1068,-137.57 1068,-157 1068,-157 1068,-157 970.9,-157 970.9,-157"/>
<polygon fill="black" stroke="black" points="970.9,-153.5 960.9,-157 970.9,-160.5 970.9,-153.5"/>
</g>
<!-- FiltersPopoverModule -->
<g id="node7" class="node">
<title>FiltersPopoverModule</title>
<polygon fill="#8dd3c7" stroke="black" points="989.98,-122 986.98,-126 965.98,-126 962.98,-122 848.02,-122 848.02,-86 989.98,-86 989.98,-122"/>
<text text-anchor="middle" x="919" y="-99.8" font-family="Times,serif" font-size="14.00">FiltersPopoverModule</text>
</g>
<!-- FiltersPopoverModule&#45;&gt;AppModule -->
<g id="edge6" class="edge">
<title>FiltersPopoverModule&#45;&gt;AppModule</title>
<path fill="none" stroke="black" d="M919,-122.11C919,-122.11 919,-140.99 919,-140.99"/>
<polygon fill="black" stroke="black" points="915.5,-140.99 919,-150.99 922.5,-140.99 915.5,-140.99"/>
</g>
<!-- OntologyExplorationModule -->
<g id="node8" class="node">
<title>OntologyExplorationModule</title>
<polygon fill="#8dd3c7" stroke="black" points="830.04,-122 827.04,-126 806.04,-126 803.04,-122 651.96,-122 651.96,-86 830.04,-86 830.04,-122"/>
<text text-anchor="middle" x="741" y="-99.8" font-family="Times,serif" font-size="14.00">OntologyExplorationModule</text>
</g>
<!-- OntologyExplorationModule&#45;&gt;AppModule -->
<g id="edge7" class="edge">
<title>OntologyExplorationModule&#45;&gt;AppModule</title>
<path fill="none" stroke="black" d="M741,-122.24C741,-137.57 741,-157 741,-157 741,-157 867.27,-157 867.27,-157"/>
<polygon fill="black" stroke="black" points="867.27,-160.5 877.27,-157 867.27,-153.5 867.27,-160.5"/>
</g>
<!-- ResultsBrowserModule -->
<g id="node9" class="node">
<title>ResultsBrowserModule</title>
<polygon fill="#8dd3c7" stroke="black" points="634.2,-122 631.2,-126 610.2,-126 607.2,-122 485.8,-122 485.8,-86 634.2,-86 634.2,-122"/>
<text text-anchor="middle" x="560" y="-99.8" font-family="Times,serif" font-size="14.00">ResultsBrowserModule</text>
</g>
<!-- ResultsBrowserModule&#45;&gt;AppModule -->
<g id="edge8" class="edge">
<title>ResultsBrowserModule&#45;&gt;AppModule</title>
<path fill="none" stroke="black" d="M560,-122.02C560,-139.37 560,-163 560,-163 560,-163 867.12,-163 867.12,-163"/>
<polygon fill="black" stroke="black" points="867.12,-166.5 877.12,-163 867.12,-159.5 867.12,-166.5"/>
</g>
<!-- RunSpatialSearchModule -->
<g id="node10" class="node">
<title>RunSpatialSearchModule</title>
<polygon fill="#8dd3c7" stroke="black" points="467.86,-122 464.86,-126 443.86,-126 440.86,-122 308.14,-122 308.14,-86 467.86,-86 467.86,-122"/>
<text text-anchor="middle" x="388" y="-99.8" font-family="Times,serif" font-size="14.00">RunSpatialSearchModule</text>
</g>
<!-- RunSpatialSearchModule&#45;&gt;AppModule -->
<g id="edge9" class="edge">
<title>RunSpatialSearchModule&#45;&gt;AppModule</title>
<path fill="none" stroke="black" d="M388,-122.11C388,-141.34 388,-169 388,-169 388,-169 867.33,-169 867.33,-169"/>
<polygon fill="black" stroke="black" points="867.33,-172.5 877.33,-169 867.33,-165.5 867.33,-172.5"/>
</g>
<!-- SpinnerOverlayModule -->
<g id="node11" class="node">
<title>SpinnerOverlayModule</title>
<polygon fill="#8dd3c7" stroke="black" points="290.19,-122 287.19,-126 266.19,-126 263.19,-122 141.81,-122 141.81,-86 290.19,-86 290.19,-122"/>
<text text-anchor="middle" x="216" y="-99.8" font-family="Times,serif" font-size="14.00">SpinnerOverlayModule</text>
</g>
<!-- SpinnerOverlayModule&#45;&gt;AppModule -->
<g id="edge10" class="edge">
<title>SpinnerOverlayModule&#45;&gt;AppModule</title>
<path fill="none" stroke="black" d="M216,-122.28C216,-143.32 216,-175 216,-175 216,-175 867.13,-175 867.13,-175"/>
<polygon fill="black" stroke="black" points="867.13,-178.5 877.13,-175 867.13,-171.5 867.13,-178.5"/>
</g>
<!-- ViewerModule -->
<g id="node12" class="node">
<title>ViewerModule</title>
<polygon fill="#8dd3c7" stroke="black" points="124.24,-122 121.24,-126 100.24,-126 97.24,-122 23.76,-122 23.76,-86 124.24,-86 124.24,-122"/>
<text text-anchor="middle" x="74" y="-99.8" font-family="Times,serif" font-size="14.00">ViewerModule</text>
</g>
<!-- ViewerModule&#45;&gt;AppModule -->
<g id="edge11" class="edge">
<title>ViewerModule&#45;&gt;AppModule</title>
<path fill="none" stroke="black" d="M74,-122.09C74,-145.13 74,-182 74,-182 74,-182 867.1,-182 867.1,-182"/>
<polygon fill="black" stroke="black" points="867.1,-185.5 877.1,-182 867.1,-178.5 867.1,-185.5"/>
</g>
</g>
</svg>
