<?xml version="1.0" encoding="UTF-8" standalone="no"?>
<!DOCTYPE svg PUBLIC "-//W3C//DTD SVG 1.1//EN"
 "http://www.w3.org/Graphics/SVG/1.1/DTD/svg11.dtd">
<!-- Generated by graphviz version 2.47.0 (20210316.0004)
 -->
<!-- Title: dependencies Pages: 1 -->
<svg width="1820pt" height="211pt"
 viewBox="0.00 0.00 1820.00 211.00" xmlns="http://www.w3.org/2000/svg" xmlns:xlink="http://www.w3.org/1999/xlink">
<g id="graph0" class="graph" transform="scale(1 1) rotate(0) translate(4 207)">
<title>dependencies</title>
<polygon fill="white" stroke="transparent" points="-4,4 -4,-207 1816,-207 1816,4 -4,4"/>
<text text-anchor="start" x="885.01" y="-42.4" font-family="Times-12" font-weight="bold" font-size="14.00">Legend</text>
<polygon fill="#ffffb3" stroke="transparent" points="672,-10 672,-30 692,-30 692,-10 672,-10"/>
<text text-anchor="start" x="695.63" y="-15.4" font-family="Times-12" font-size="14.00"> &#160;Declarations</text>
<polygon fill="#8dd3c7" stroke="transparent" points="785,-10 785,-30 805,-30 805,-10 785,-10"/>
<text text-anchor="start" x="808.73" y="-15.4" font-family="Times-12" font-size="14.00"> &#160;Module</text>
<polygon fill="#80b1d3" stroke="transparent" points="871,-10 871,-30 891,-30 891,-10 871,-10"/>
<text text-anchor="start" x="894.78" y="-15.4" font-family="Times-12" font-size="14.00"> &#160;Bootstrap</text>
<polygon fill="#fdb462" stroke="transparent" points="968,-10 968,-30 988,-30 988,-10 968,-10"/>
<text text-anchor="start" x="991.67" y="-15.4" font-family="Times-12" font-size="14.00"> &#160;Providers</text>
<polygon fill="#fb8072" stroke="transparent" points="1064,-10 1064,-30 1084,-30 1084,-10 1064,-10"/>
<text text-anchor="start" x="1087.73" y="-15.4" font-family="Times-12" font-size="14.00"> &#160;Exports</text>
<g id="clust1" class="cluster">
<title>cluster_AppModule</title>
<polygon fill="none" stroke="black" stroke-dasharray="1,5" points="8,-70 8,-195 1804,-195 1804,-70 8,-70"/>
</g>
<g id="clust5" class="cluster">
<title>cluster_AppModule_imports</title>
<polygon fill="none" stroke="black" points="296,-78 296,-130 1796,-130 1796,-78 296,-78"/>
</g>
<g id="clust2" class="cluster">
<title>cluster_AppModule_declarations</title>
<polygon fill="none" stroke="black" points="16,-78 16,-130 288,-130 288,-78 16,-78"/>
</g>
<!-- AppComponent -->
<g id="node1" class="node">
<title>AppComponent</title>
<polygon fill="#ffffb3" stroke="black" points="279.94,-122 174.06,-122 174.06,-86 279.94,-86 279.94,-122"/>
<text text-anchor="middle" x="227" y="-99.8" font-family="Times,serif" font-size="14.00">AppComponent</text>
</g>
<!-- AppModule -->
<g id="node3" class="node">
<title>AppModule</title>
<polygon fill="#8dd3c7" stroke="black" points="971.66,-187 968.66,-191 947.66,-191 944.66,-187 888.34,-187 888.34,-151 971.66,-151 971.66,-187"/>
<text text-anchor="middle" x="930" y="-164.8" font-family="Times,serif" font-size="14.00">AppModule</text>
</g>
<!-- AppComponent&#45;&gt;AppModule -->
<g id="edge1" class="edge">
<title>AppComponent&#45;&gt;AppModule</title>
<path fill="none" stroke="black" d="M227,-122.28C227,-143.32 227,-175 227,-175 227,-175 878.13,-175 878.13,-175"/>
<polygon fill="black" stroke="black" points="878.13,-178.5 888.13,-175 878.13,-171.5 878.13,-178.5"/>
</g>
<!-- AppWebComponent -->
<g id="node2" class="node">
<title>AppWebComponent</title>
<polygon fill="#ffffb3" stroke="black" points="155.87,-122 24.13,-122 24.13,-86 155.87,-86 155.87,-122"/>
<text text-anchor="middle" x="90" y="-99.8" font-family="Times,serif" font-size="14.00">AppWebComponent</text>
</g>
<!-- AppWebComponent&#45;&gt;AppModule -->
<g id="edge2" class="edge">
<title>AppWebComponent&#45;&gt;AppModule</title>
<path fill="none" stroke="black" d="M90,-122.09C90,-145.13 90,-182 90,-182 90,-182 878.06,-182 878.06,-182"/>
<polygon fill="black" stroke="black" points="878.06,-185.5 888.06,-182 878.06,-178.5 878.06,-185.5"/>
</g>
<!-- ButtonToggleModule -->
<g id="node4" class="node">
<title>ButtonToggleModule</title>
<polygon fill="#8dd3c7" stroke="black" points="1787.83,-122 1784.83,-126 1763.83,-126 1760.83,-122 1650.17,-122 1650.17,-86 1787.83,-86 1787.83,-122"/>
<text text-anchor="middle" x="1719" y="-99.8" font-family="Times,serif" font-size="14.00">ButtonToggleModule</text>
</g>
<!-- ButtonToggleModule&#45;&gt;AppModule -->
<g id="edge3" class="edge">
<title>ButtonToggleModule&#45;&gt;AppModule</title>
<path fill="none" stroke="black" d="M1719,-122.09C1719,-145.13 1719,-182 1719,-182 1719,-182 981.86,-182 981.86,-182"/>
<polygon fill="black" stroke="black" points="981.86,-178.5 971.86,-182 981.86,-185.5 981.86,-178.5"/>
</g>
<!-- CoreModule -->
<g id="node5" class="node">
<title>CoreModule</title>
<polygon fill="#8dd3c7" stroke="black" points="1632.26,-122 1629.26,-126 1608.26,-126 1605.26,-122 1545.74,-122 1545.74,-86 1632.26,-86 1632.26,-122"/>
<text text-anchor="middle" x="1589" y="-99.8" font-family="Times,serif" font-size="14.00">CoreModule</text>
</g>
<!-- CoreModule&#45;&gt;AppModule -->
<g id="edge4" class="edge">
<title>CoreModule&#45;&gt;AppModule</title>
<path fill="none" stroke="black" d="M1589,-122.28C1589,-143.32 1589,-175 1589,-175 1589,-175 981.72,-175 981.72,-175"/>
<polygon fill="black" stroke="black" points="981.72,-171.5 971.72,-175 981.72,-178.5 981.72,-171.5"/>
</g>
<!-- DrawerModule -->
<g id="node6" class="node">
<title>DrawerModule</title>
<polygon fill="#8dd3c7" stroke="black" points="1527.51,-122 1524.51,-126 1503.51,-126 1500.51,-122 1426.49,-122 1426.49,-86 1527.51,-86 1527.51,-122"/>
<text text-anchor="middle" x="1477" y="-99.8" font-family="Times,serif" font-size="14.00">DrawerModule</text>
</g>
<!-- DrawerModule&#45;&gt;AppModule -->
<g id="edge5" class="edge">
<title>DrawerModule&#45;&gt;AppModule</title>
<path fill="none" stroke="black" d="M1477,-122.11C1477,-141.34 1477,-169 1477,-169 1477,-169 982.01,-169 982.01,-169"/>
<polygon fill="black" stroke="black" points="982.01,-165.5 972.01,-169 982.01,-172.5 982.01,-165.5"/>
</g>
<!-- DualSliderModule -->
<g id="node7" class="node">
<title>DualSliderModule</title>
<polygon fill="#8dd3c7" stroke="black" points="1408.2,-122 1405.2,-126 1384.2,-126 1381.2,-122 1287.8,-122 1287.8,-86 1408.2,-86 1408.2,-122"/>
<text text-anchor="middle" x="1348" y="-99.8" font-family="Times,serif" font-size="14.00">DualSliderModule</text>
</g>
<!-- DualSliderModule&#45;&gt;AppModule -->
<g id="edge6" class="edge">
<title>DualSliderModule&#45;&gt;AppModule</title>
<path fill="none" stroke="black" d="M1348,-122.02C1348,-139.37 1348,-163 1348,-163 1348,-163 981.99,-163 981.99,-163"/>
<polygon fill="black" stroke="black" points="981.99,-159.5 971.99,-163 981.99,-166.5 981.99,-159.5"/>
</g>
<!-- FiltersPopoverModule -->
<g id="node8" class="node">
<title>FiltersPopoverModule</title>
<polygon fill="#8dd3c7" stroke="black" points="1269.98,-122 1266.98,-126 1245.98,-126 1242.98,-122 1128.02,-122 1128.02,-86 1269.98,-86 1269.98,-122"/>
<text text-anchor="middle" x="1199" y="-99.8" font-family="Times,serif" font-size="14.00">FiltersPopoverModule</text>
</g>
<!-- FiltersPopoverModule&#45;&gt;AppModule -->
<g id="edge7" class="edge">
<title>FiltersPopoverModule&#45;&gt;AppModule</title>
<path fill="none" stroke="black" d="M1199,-122.24C1199,-137.57 1199,-157 1199,-157 1199,-157 981.74,-157 981.74,-157"/>
<polygon fill="black" stroke="black" points="981.74,-153.5 971.74,-157 981.74,-160.5 981.74,-153.5"/>
</g>
<!-- OntologyExplorationModule -->
<g id="node9" class="node">
<title>OntologyExplorationModule</title>
<polygon fill="#8dd3c7" stroke="black" points="1110.04,-122 1107.04,-126 1086.04,-126 1083.04,-122 931.96,-122 931.96,-86 1110.04,-86 1110.04,-122"/>
<text text-anchor="middle" x="1021" y="-99.8" font-family="Times,serif" font-size="14.00">OntologyExplorationModule</text>
</g>
<!-- OntologyExplorationModule&#45;&gt;AppModule -->
<g id="edge8" class="edge">
<title>OntologyExplorationModule&#45;&gt;AppModule</title>
<path fill="none" stroke="black" d="M951.78,-122.11C951.78,-122.11 951.78,-140.99 951.78,-140.99"/>
<polygon fill="black" stroke="black" points="948.28,-140.99 951.78,-150.99 955.28,-140.99 948.28,-140.99"/>
</g>
<!-- ResultsBrowserModule -->
<g id="node10" class="node">
<title>ResultsBrowserModule</title>
<polygon fill="#8dd3c7" stroke="black" points="914.2,-122 911.2,-126 890.2,-126 887.2,-122 765.8,-122 765.8,-86 914.2,-86 914.2,-122"/>
<text text-anchor="middle" x="840" y="-99.8" font-family="Times,serif" font-size="14.00">ResultsBrowserModule</text>
</g>
<!-- ResultsBrowserModule&#45;&gt;AppModule -->
<g id="edge9" class="edge">
<title>ResultsBrowserModule&#45;&gt;AppModule</title>
<path fill="none" stroke="black" d="M901.13,-122.11C901.13,-122.11 901.13,-140.99 901.13,-140.99"/>
<polygon fill="black" stroke="black" points="897.63,-140.99 901.13,-150.99 904.63,-140.99 897.63,-140.99"/>
</g>
<!-- RunSpatialSearchModule -->
<g id="node11" class="node">
<title>RunSpatialSearchModule</title>
<polygon fill="#8dd3c7" stroke="black" points="747.86,-122 744.86,-126 723.86,-126 720.86,-122 588.14,-122 588.14,-86 747.86,-86 747.86,-122"/>
<text text-anchor="middle" x="668" y="-99.8" font-family="Times,serif" font-size="14.00">RunSpatialSearchModule</text>
</g>
<!-- RunSpatialSearchModule&#45;&gt;AppModule -->
<g id="edge10" class="edge">
<title>RunSpatialSearchModule&#45;&gt;AppModule</title>
<path fill="none" stroke="black" d="M668,-122.24C668,-137.57 668,-157 668,-157 668,-157 878.2,-157 878.2,-157"/>
<polygon fill="black" stroke="black" points="878.2,-160.5 888.2,-157 878.2,-153.5 878.2,-160.5"/>
</g>
<!-- SpinnerOverlayModule -->
<g id="node12" class="node">
<title>SpinnerOverlayModule</title>
<polygon fill="#8dd3c7" stroke="black" points="570.19,-122 567.19,-126 546.19,-126 543.19,-122 421.81,-122 421.81,-86 570.19,-86 570.19,-122"/>
<text text-anchor="middle" x="496" y="-99.8" font-family="Times,serif" font-size="14.00">SpinnerOverlayModule</text>
</g>
<!-- SpinnerOverlayModule&#45;&gt;AppModule -->
<g id="edge11" class="edge">
<title>SpinnerOverlayModule&#45;&gt;AppModule</title>
<path fill="none" stroke="black" d="M496,-122.02C496,-139.37 496,-163 496,-163 496,-163 877.99,-163 877.99,-163"/>
<polygon fill="black" stroke="black" points="877.99,-166.5 887.99,-163 877.99,-159.5 877.99,-166.5"/>
</g>
<!-- ViewerModule -->
<g id="node13" class="node">
<title>ViewerModule</title>
<polygon fill="#8dd3c7" stroke="black" points="404.24,-122 401.24,-126 380.24,-126 377.24,-122 303.76,-122 303.76,-86 404.24,-86 404.24,-122"/>
<text text-anchor="middle" x="354" y="-99.8" font-family="Times,serif" font-size="14.00">ViewerModule</text>
</g>
<!-- ViewerModule&#45;&gt;AppModule -->
<g id="edge12" class="edge">
<title>ViewerModule&#45;&gt;AppModule</title>
<path fill="none" stroke="black" d="M354,-122.11C354,-141.34 354,-169 354,-169 354,-169 878.11,-169 878.11,-169"/>
<polygon fill="black" stroke="black" points="878.11,-172.5 888.11,-169 878.11,-165.5 878.11,-172.5"/>
</g>
</g>
</svg>
