<?xml version="1.0" encoding="UTF-8" standalone="no"?>
<!DOCTYPE svg PUBLIC "-//W3C//DTD SVG 1.1//EN"
 "http://www.w3.org/Graphics/SVG/1.1/DTD/svg11.dtd">
<!-- Generated by graphviz version 2.47.3 (20210619.1520)
 -->
<!-- Title: dependencies Pages: 1 -->
<svg width="1664pt" height="174pt"
 viewBox="0.00 0.00 1664.00 173.80" xmlns="http://www.w3.org/2000/svg" xmlns:xlink="http://www.w3.org/1999/xlink">
<g id="graph0" class="graph" transform="scale(1 1) rotate(0) translate(4 169.8)">
<title>dependencies</title>
<polygon fill="white" stroke="transparent" points="-4,4 -4,-169.8 1660,-169.8 1660,4 -4,4"/>
<text text-anchor="middle" x="828" y="-8.2" font-family="sans-serif" font-size="14.00">dependencies</text>
<g id="clust1" class="cluster">
<title>cluster_AppModule</title>
<polygon fill="none" stroke="black" stroke-dasharray="1,5" points="8,-32.8 8,-157.8 1648,-157.8 1648,-32.8 8,-32.8"/>
</g>
<g id="clust2" class="cluster">
<title>cluster_AppModule_declarations</title>
<polygon fill="none" stroke="black" points="1368,-40.8 1368,-92.8 1640,-92.8 1640,-40.8 1368,-40.8"/>
</g>
<g id="clust5" class="cluster">
<title>cluster_AppModule_imports</title>
<polygon fill="none" stroke="black" points="16,-40.8 16,-92.8 1360,-92.8 1360,-40.8 16,-40.8"/>
</g>
<!-- AppComponent -->
<g id="node1" class="node">
<title>AppComponent</title>
<polygon fill="#ffffb3" stroke="black" points="1631.94,-84.8 1526.06,-84.8 1526.06,-48.8 1631.94,-48.8 1631.94,-84.8"/>
<text text-anchor="middle" x="1579" y="-62.6" font-family="Times,serif" font-size="14.00">AppComponent</text>
</g>
<!-- AppModule -->
<g id="node3" class="node">
<title>AppModule</title>
<polygon fill="#8dd3c7" stroke="black" points="960.66,-149.8 957.66,-153.8 936.66,-153.8 933.66,-149.8 877.34,-149.8 877.34,-113.8 960.66,-113.8 960.66,-149.8"/>
<text text-anchor="middle" x="919" y="-127.6" font-family="Times,serif" font-size="14.00">AppModule</text>
</g>
<!-- AppComponent&#45;&gt;AppModule -->
<g id="edge1" class="edge">
<title>AppComponent&#45;&gt;AppModule</title>
<path fill="none" stroke="black" d="M1579,-84.89C1579,-107.93 1579,-144.8 1579,-144.8 1579,-144.8 970.79,-144.8 970.79,-144.8"/>
<polygon fill="black" stroke="black" points="970.79,-141.3 960.79,-144.8 970.79,-148.3 970.79,-141.3"/>
</g>
<!-- AppWebComponent -->
<g id="node2" class="node">
<title>AppWebComponent</title>
<polygon fill="#ffffb3" stroke="black" points="1507.87,-84.8 1376.13,-84.8 1376.13,-48.8 1507.87,-48.8 1507.87,-84.8"/>
<text text-anchor="middle" x="1442" y="-62.6" font-family="Times,serif" font-size="14.00">AppWebComponent</text>
</g>
<!-- AppWebComponent&#45;&gt;AppModule -->
<g id="edge2" class="edge">
<title>AppWebComponent&#45;&gt;AppModule</title>
<path fill="none" stroke="black" d="M1442,-85.08C1442,-106.12 1442,-137.8 1442,-137.8 1442,-137.8 970.92,-137.8 970.92,-137.8"/>
<polygon fill="black" stroke="black" points="970.92,-134.3 960.92,-137.8 970.92,-141.3 970.92,-134.3"/>
</g>
<!-- CoreModule -->
<g id="node4" class="node">
<title>CoreModule</title>
<polygon fill="#8dd3c7" stroke="black" points="1352.26,-84.8 1349.26,-88.8 1328.26,-88.8 1325.26,-84.8 1265.74,-84.8 1265.74,-48.8 1352.26,-48.8 1352.26,-84.8"/>
<text text-anchor="middle" x="1309" y="-62.6" font-family="Times,serif" font-size="14.00">CoreModule</text>
</g>
<!-- CoreModule&#45;&gt;AppModule -->
<g id="edge3" class="edge">
<title>CoreModule&#45;&gt;AppModule</title>
<path fill="none" stroke="black" d="M1309,-84.91C1309,-104.14 1309,-131.8 1309,-131.8 1309,-131.8 970.74,-131.8 970.74,-131.8"/>
<polygon fill="black" stroke="black" points="970.74,-128.3 960.74,-131.8 970.74,-135.3 970.74,-128.3"/>
</g>
<!-- DrawerModule -->
<g id="node5" class="node">
<title>DrawerModule</title>
<polygon fill="#8dd3c7" stroke="black" points="1247.51,-84.8 1244.51,-88.8 1223.51,-88.8 1220.51,-84.8 1146.49,-84.8 1146.49,-48.8 1247.51,-48.8 1247.51,-84.8"/>
<text text-anchor="middle" x="1197" y="-62.6" font-family="Times,serif" font-size="14.00">DrawerModule</text>
</g>
<!-- DrawerModule&#45;&gt;AppModule -->
<g id="edge4" class="edge">
<title>DrawerModule&#45;&gt;AppModule</title>
<path fill="none" stroke="black" d="M1197,-84.82C1197,-102.17 1197,-125.8 1197,-125.8 1197,-125.8 970.92,-125.8 970.92,-125.8"/>
<polygon fill="black" stroke="black" points="970.92,-122.3 960.92,-125.8 970.92,-129.3 970.92,-122.3"/>
</g>
<!-- DualSliderModule -->
<g id="node6" class="node">
<title>DualSliderModule</title>
<polygon fill="#8dd3c7" stroke="black" points="1128.2,-84.8 1125.2,-88.8 1104.2,-88.8 1101.2,-84.8 1007.8,-84.8 1007.8,-48.8 1128.2,-48.8 1128.2,-84.8"/>
<text text-anchor="middle" x="1068" y="-62.6" font-family="Times,serif" font-size="14.00">DualSliderModule</text>
</g>
<!-- DualSliderModule&#45;&gt;AppModule -->
<g id="edge5" class="edge">
<title>DualSliderModule&#45;&gt;AppModule</title>
<path fill="none" stroke="black" d="M1068,-85.04C1068,-100.37 1068,-119.8 1068,-119.8 1068,-119.8 970.9,-119.8 970.9,-119.8"/>
<polygon fill="black" stroke="black" points="970.9,-116.3 960.9,-119.8 970.9,-123.3 970.9,-116.3"/>
</g>
<!-- FiltersPopoverModule -->
<g id="node7" class="node">
<title>FiltersPopoverModule</title>
<polygon fill="#8dd3c7" stroke="black" points="989.98,-84.8 986.98,-88.8 965.98,-88.8 962.98,-84.8 848.02,-84.8 848.02,-48.8 989.98,-48.8 989.98,-84.8"/>
<text text-anchor="middle" x="919" y="-62.6" font-family="Times,serif" font-size="14.00">FiltersPopoverModule</text>
</g>
<!-- FiltersPopoverModule&#45;&gt;AppModule -->
<g id="edge6" class="edge">
<title>FiltersPopoverModule&#45;&gt;AppModule</title>
<path fill="none" stroke="black" d="M919,-84.91C919,-84.91 919,-103.79 919,-103.79"/>
<polygon fill="black" stroke="black" points="915.5,-103.79 919,-113.79 922.5,-103.79 915.5,-103.79"/>
</g>
<!-- OntologyExplorationModule -->
<g id="node8" class="node">
<title>OntologyExplorationModule</title>
<polygon fill="#8dd3c7" stroke="black" points="830.04,-84.8 827.04,-88.8 806.04,-88.8 803.04,-84.8 651.96,-84.8 651.96,-48.8 830.04,-48.8 830.04,-84.8"/>
<text text-anchor="middle" x="741" y="-62.6" font-family="Times,serif" font-size="14.00">OntologyExplorationModule</text>
</g>
<!-- OntologyExplorationModule&#45;&gt;AppModule -->
<g id="edge7" class="edge">
<title>OntologyExplorationModule&#45;&gt;AppModule</title>
<path fill="none" stroke="black" d="M741,-85.04C741,-100.37 741,-119.8 741,-119.8 741,-119.8 867.27,-119.8 867.27,-119.8"/>
<polygon fill="black" stroke="black" points="867.27,-123.3 877.27,-119.8 867.27,-116.3 867.27,-123.3"/>
</g>
<!-- ResultsBrowserModule -->
<g id="node9" class="node">
<title>ResultsBrowserModule</title>
<polygon fill="#8dd3c7" stroke="black" points="634.2,-84.8 631.2,-88.8 610.2,-88.8 607.2,-84.8 485.8,-84.8 485.8,-48.8 634.2,-48.8 634.2,-84.8"/>
<text text-anchor="middle" x="560" y="-62.6" font-family="Times,serif" font-size="14.00">ResultsBrowserModule</text>
</g>
<!-- ResultsBrowserModule&#45;&gt;AppModule -->
<g id="edge8" class="edge">
<title>ResultsBrowserModule&#45;&gt;AppModule</title>
<path fill="none" stroke="black" d="M560,-84.82C560,-102.17 560,-125.8 560,-125.8 560,-125.8 867.12,-125.8 867.12,-125.8"/>
<polygon fill="black" stroke="black" points="867.12,-129.3 877.12,-125.8 867.12,-122.3 867.12,-129.3"/>
</g>
<!-- RunSpatialSearchModule -->
<g id="node10" class="node">
<title>RunSpatialSearchModule</title>
<polygon fill="#8dd3c7" stroke="black" points="467.86,-84.8 464.86,-88.8 443.86,-88.8 440.86,-84.8 308.14,-84.8 308.14,-48.8 467.86,-48.8 467.86,-84.8"/>
<text text-anchor="middle" x="388" y="-62.6" font-family="Times,serif" font-size="14.00">RunSpatialSearchModule</text>
</g>
<!-- RunSpatialSearchModule&#45;&gt;AppModule -->
<g id="edge9" class="edge">
<title>RunSpatialSearchModule&#45;&gt;AppModule</title>
<path fill="none" stroke="black" d="M388,-84.91C388,-104.14 388,-131.8 388,-131.8 388,-131.8 867.33,-131.8 867.33,-131.8"/>
<polygon fill="black" stroke="black" points="867.33,-135.3 877.33,-131.8 867.33,-128.3 867.33,-135.3"/>
</g>
<!-- SpinnerOverlayModule -->
<g id="node11" class="node">
<title>SpinnerOverlayModule</title>
<polygon fill="#8dd3c7" stroke="black" points="290.19,-84.8 287.19,-88.8 266.19,-88.8 263.19,-84.8 141.81,-84.8 141.81,-48.8 290.19,-48.8 290.19,-84.8"/>
<text text-anchor="middle" x="216" y="-62.6" font-family="Times,serif" font-size="14.00">SpinnerOverlayModule</text>
</g>
<!-- SpinnerOverlayModule&#45;&gt;AppModule -->
<g id="edge10" class="edge">
<title>SpinnerOverlayModule&#45;&gt;AppModule</title>
<path fill="none" stroke="black" d="M216,-85.08C216,-106.12 216,-137.8 216,-137.8 216,-137.8 867.13,-137.8 867.13,-137.8"/>
<polygon fill="black" stroke="black" points="867.13,-141.3 877.13,-137.8 867.13,-134.3 867.13,-141.3"/>
</g>
<!-- ViewerModule -->
<g id="node12" class="node">
<title>ViewerModule</title>
<polygon fill="#8dd3c7" stroke="black" points="124.24,-84.8 121.24,-88.8 100.24,-88.8 97.24,-84.8 23.76,-84.8 23.76,-48.8 124.24,-48.8 124.24,-84.8"/>
<text text-anchor="middle" x="74" y="-62.6" font-family="Times,serif" font-size="14.00">ViewerModule</text>
</g>
<!-- ViewerModule&#45;&gt;AppModule -->
<g id="edge11" class="edge">
<title>ViewerModule&#45;&gt;AppModule</title>
<path fill="none" stroke="black" d="M74,-84.89C74,-107.93 74,-144.8 74,-144.8 74,-144.8 867.1,-144.8 867.1,-144.8"/>
<polygon fill="black" stroke="black" points="867.1,-148.3 877.1,-144.8 867.1,-141.3 867.1,-148.3"/>
</g>
</g>
</svg>
