<svg xmlns="http://www.w3.org/2000/svg" width="64" height="64" fill="currentColor" viewBox="0 0 64 64">
  <g clip-path="url(#a)">
    <path d="M47.595 22.635c-8.299-16.96-22.592-15.51-27.051-11.968s-6.613 7.488-5.248 13.013c.853 3.392 4.757 5.163 8.021 7.53a7.5 7.5 0 0 0-1.472 3.969 13.7 13.7 0 0 1-3.925 2.773 52 52 0 0 1-6.165 1.856l1.429 3.157a41 41 0 0 0 5.803-1.856 18.6 18.6 0 0 0 4.266-2.944 7.6 7.6 0 0 0 5.291 1.6c.747 4.118.448 8.534 1.685 11.563 1.707 4.267 6.656 4.416 10.368 3.755 7.723-1.366 15.296-15.488 6.998-32.448M33.94 35.136c-.576.32-1.429.768-2.346 1.173-.385-1.34-.96-2.62-1.707-3.797a22 22 0 0 0-1.6-2.133 31 31 0 0 1 3.115-1.344c.498.67.933 1.384 1.301 2.133a14.7 14.7 0 0 1 1.237 3.968m-4.266-7.787c-.832.32-1.984.79-3.072 1.323a14 14 0 0 0-3.776-2.432 7.87 7.87 0 0 1 6.826 1.11zm-5.44 8.534a4.27 4.27 0 0 1 1.045-3.008c.716.689 1.327 1.48 1.813 2.346q.495.97.832 2.006c-2.09.042-3.477-.726-3.712-1.323zm7.914 2.709 1.984-1.003a9.77 9.77 0 0 1-1.834 5.568c.137-1.515.08-3.042-.171-4.544z"/>
  </g>
  <defs>
    <clipPath id="a">
      <path d="M0 0h64v64H0z"/>
    </clipPath>
  </defs>
</svg>
