<svg xmlns="http://www.w3.org/2000/svg" width="64" height="64" fill="currentColor" viewBox="0 0 64 64">
  <g clip-path="url(#a)">
    <path d="M36.351 48.45c-2.806 0-5.224-1.106-6.56-2.717-.657.796-1.064 1.727-1.064 2.717 0 3.009 3.406 5.454 7.605 5.454 4.2 0 7.605-2.445 7.605-5.454 0-.99-.406-1.921-1.064-2.717-1.316 1.63-3.735 2.717-6.56 2.717z"/>
    <path d="M41.615 55.07v.038c0 .446-2.284 1.436-6.057 1.436-3.077 0-4.915-.737-4.915-1.533-.058-.602-.155-1.514-.213-2.543-.639-.505-1.161-1.068-1.529-1.708.058 2.116.252 3.98.29 4.348 0 1.805 2.38 2.892 6.367 2.892 2.593 0 7.489-.602 7.508-2.873.058-1.339.097-2.504.116-3.532-.406.485-.91.912-1.49 1.28 0 .738-.038 1.476-.077 2.214zM32.926 20.616c.987.543 2.535.407 2.535.407s1.548.136 2.535-.407c1.49-.815 3.87-4.115 4.2-6.6.251-1.844-.658-4.367-2.13-6.017-1.45-1.65-2.94-1.98-4.334-1.98s-3.541.408-4.915 1.98c-1.451 1.65-2.36 4.193-2.128 6.017.328 2.485 2.709 5.785 4.199 6.6z"/>
    <path d="M50.787 20.79c-.155-.95-.329-2.134-.193-2.736.31-1.32.696-4.348-.097-5.319-.426-.524-1.026-.757-1.548-.562-.387.135-.658.465-.658.854 0 .155 0 .446.02.795.038.602.077 1.495 0 1.864-.194.698-.368 1.805-.504 2.698-.02.174-.058.33-.077.485-1.413-1.281-3.329-2.213-5.67-1.533-1.006 1.882-2.477 3.63-3.619 4.25-1.122.622-2.767.524-2.98.505h-.445c-.6 0-1.703-.078-2.515-.524-1.142-.621-2.613-2.349-3.619-4.25-2.283-.68-4.18.213-5.592 1.455-.039-.233-.078-.505-.136-.796-.135-.893-.31-2-.503-2.698-.058-.194 0-.64.058-1.01.078-.679.174-1.397-.097-1.863-.27-.446-.6-.679-.967-.718-.426-.039-.793.194-1.161.66-.774.951-.465 3.766-.097 5.319.174.756.116 1.824.058 2.93a28 28 0 0 0-.058 1.786v.485h.02v.078c-.271 2.543 2.399 10.598 3.502 12.21 1.006 1.455 2.167.776 3.193.193.27-.155.58-.33.89-.485.058-.097.077-.175.135-.291.987-2.174 4.316-.214 4.703-.039l.89.427s-.116.097-.174.155l-.136.059s.02 0 .039.019c-.523.505-1.316 1.475-2.11 3.3a3.9 3.9 0 0 1-.309-1.941c.077-.97 1.587-1.592 1.587-1.592s-3.29-1.592-4.064-.175-.445 1.844-1.142 2.136c-.696.29-2.128.795-2.128 1.591s.813 4.794 2.825 5.59c.464.194.948.156 1.47.175 0 .039 0 .078-.019.116-.174.37-.31.835-.406 1.36.097-.137.174-.273.27-.39l.369-.446.367.447c.136.155.31.272.445.408.078-.33.155-.602.271-.816a.3.3 0 0 0 .058-.174v-.059c.91.602.871 1.34 4.509 1.34 3.812 0 3.56-.796 4.625-1.417.29-.175.561-.253.832-.31.155.31.31.62.503.95.077.136.136.505.174.951.33-.271.658-.524.91-.854l.329-.407c-.097-.33-.194-.505-.271-.602-.039-.078-.058-.136-.097-.214.116-.019.232-.038.368-.077 1.993-.796 2.825-4.794 2.825-5.59s-1.413-1.281-2.129-1.592c-.716-.31-.387-.718-1.141-2.135-.755-1.417-4.064.175-4.064.175s1.49.601 1.587 1.591c.038.37.058.951-.155 1.592-.62-1.34-1.297-2.446-2.303-3.3l.658-.33c.387-.175 3.6-1.98 4.547-.194.059.097.233.408.271.505.33.155.658.33.949.504 1.025.602 2.167 1.262 3.173-.194.852-1.223 2.593-6.192 3.251-9.608.232-.446.426-1.203.639-2.562l.038-.175c.078-.465-.038-1.203-.174-2.038zM38.81 39.658c-.658.64-1.683 1.204-3.328 1.553h-.039c-1.47-.31-2.419-.796-3.077-1.359.89-2.27 1.761-3.26 2.187-3.649.213.233.445.35.638.37h.155c.387 0 .774-.214 1.142-.603 1.006.854 1.645 2.077 2.322 3.688"/>
  </g>
  <defs>
    <clipPath id="a">
      <path d="M20 6h31v52H20z"/>
    </clipPath>
  </defs>
</svg>
