<svg xmlns="http://www.w3.org/2000/svg" width="64" height="64" fill="currentColor" viewBox="0 0 64 64">
  <path d="m56.683 36.117 3.413-3.434-.832-.854-1.92-1.92-3.392 3.392a4.65 4.65 0 0 1-3.584 1.28 19.6 19.6 0 0 0-18.197 0 4.74 4.74 0 0 1-3.18-1.13l-.98-.96-1.003-1.003c-.47-.49-.917-.981-1.344-1.515a22.6 22.6 0 0 1-4.01-10.666 18.77 18.77 0 0 0-9.985-14.422 2.133 2.133 0 0 0-2.154 3.648 11.73 11.73 0 0 1 5.418 5.44 25.6 25.6 0 0 1 3.008 9.259 22.6 22.6 0 0 0 4.63 9.792 39 39 0 0 0 4.266 4.267c.273.576.432 1.198.47 1.834a9.1 9.1 0 0 0-1.366 4.736c0 5.206 4.672 9.622 11.072 11.008a6.55 6.55 0 0 1 2.347 4.864h3.904a6.53 6.53 0 0 1 2.41-5.013q.997-.213 1.963-.533c5.334-1.792 9.046-5.782 9.046-10.432a10.4 10.4 0 0 0-1.216-4.523 4.65 4.65 0 0 1 1.216-3.115"/>
</svg>
