<?xml version="1.0" encoding="UTF-8" standalone="no"?>
<!DOCTYPE svg PUBLIC "-//W3C//DTD SVG 1.1//EN"
 "http://www.w3.org/Graphics/SVG/1.1/DTD/svg11.dtd">
<!-- Generated by graphviz version 2.47.3 (20210619.1520)
 -->
<!-- Title: dependencies Pages: 1 -->
<svg width="669pt" height="247pt"
 viewBox="0.00 0.00 669.00 246.80" xmlns="http://www.w3.org/2000/svg" xmlns:xlink="http://www.w3.org/1999/xlink">
<g id="graph0" class="graph" transform="scale(1 1) rotate(0) translate(4 242.8)">
<title>dependencies</title>
<polygon fill="white" stroke="transparent" points="-4,4 -4,-242.8 665,-242.8 665,4 -4,4"/>
<text text-anchor="middle" x="330.5" y="-8.2" font-family="sans-serif" font-size="14.00">dependencies</text>
<g id="clust1" class="cluster">
<title>cluster_DrawerModule</title>
<polygon fill="none" stroke="black" stroke-dasharray="1,5" points="8,-32.8 8,-230.8 653,-230.8 653,-32.8 8,-32.8"/>
</g>
<g id="clust2" class="cluster">
<title>cluster_DrawerModule_declarations</title>
<polygon fill="none" stroke="black" points="25,-40.8 25,-92.8 639,-92.8 639,-40.8 25,-40.8"/>
</g>
<g id="clust8" class="cluster">
<title>cluster_DrawerModule_exports</title>
<polygon fill="none" stroke="black" points="16,-170.8 16,-222.8 645,-222.8 645,-170.8 16,-170.8"/>
</g>
<!-- ContainerComponent -->
<g id="node1" class="node">
<title>ContainerComponent</title>
<polygon fill="#ffffb3" stroke="black" points="631.04,-84.8 494.96,-84.8 494.96,-48.8 631.04,-48.8 631.04,-84.8"/>
<text text-anchor="middle" x="563" y="-62.6" font-family="Times,serif" font-size="14.00">ContainerComponent</text>
</g>
<!-- DrawerModule -->
<g id="node5" class="node">
<title>DrawerModule</title>
<polygon fill="#8dd3c7" stroke="black" points="324.51,-149.8 321.51,-153.8 300.51,-153.8 297.51,-149.8 223.49,-149.8 223.49,-113.8 324.51,-113.8 324.51,-149.8"/>
<text text-anchor="middle" x="274" y="-127.6" font-family="Times,serif" font-size="14.00">DrawerModule</text>
</g>
<!-- ContainerComponent&#45;&gt;DrawerModule -->
<g id="edge1" class="edge">
<title>ContainerComponent&#45;&gt;DrawerModule</title>
<path fill="none" stroke="black" d="M586.51,-85.07C586.51,-103.36 586.51,-128.8 586.51,-128.8 586.51,-128.8 334.56,-128.8 334.56,-128.8"/>
<polygon fill="black" stroke="black" points="334.56,-125.3 324.56,-128.8 334.56,-132.3 334.56,-125.3"/>
</g>
<!-- ContentComponent -->
<g id="node2" class="node">
<title>ContentComponent</title>
<polygon fill="#ffffb3" stroke="black" points="476.67,-84.8 351.33,-84.8 351.33,-48.8 476.67,-48.8 476.67,-84.8"/>
<text text-anchor="middle" x="414" y="-62.6" font-family="Times,serif" font-size="14.00">ContentComponent</text>
</g>
<!-- ContentComponent&#45;&gt;DrawerModule -->
<g id="edge2" class="edge">
<title>ContentComponent&#45;&gt;DrawerModule</title>
<path fill="none" stroke="black" d="M434.94,-84.81C434.94,-100.85 434.94,-121.8 434.94,-121.8 434.94,-121.8 334.92,-121.8 334.92,-121.8"/>
<polygon fill="black" stroke="black" points="334.92,-118.3 324.92,-121.8 334.92,-125.3 334.92,-118.3"/>
</g>
<!-- DrawerComponent -->
<g id="node3" class="node">
<title>DrawerComponent</title>
<polygon fill="#ffffb3" stroke="black" points="333.8,-84.8 210.2,-84.8 210.2,-48.8 333.8,-48.8 333.8,-84.8"/>
<text text-anchor="middle" x="272" y="-62.6" font-family="Times,serif" font-size="14.00">DrawerComponent</text>
</g>
<!-- DrawerComponent&#45;&gt;DrawerModule -->
<g id="edge3" class="edge">
<title>DrawerComponent&#45;&gt;DrawerModule</title>
<path fill="none" stroke="black" d="M274,-84.91C274,-84.91 274,-103.79 274,-103.79"/>
<polygon fill="black" stroke="black" points="270.5,-103.79 274,-113.79 277.5,-103.79 270.5,-103.79"/>
</g>
<!-- ToggleButtonComponent -->
<g id="node4" class="node">
<title>ToggleButtonComponent</title>
<polygon fill="#ffffb3" stroke="black" points="192.61,-84.8 33.39,-84.8 33.39,-48.8 192.61,-48.8 192.61,-84.8"/>
<text text-anchor="middle" x="113" y="-62.6" font-family="Times,serif" font-size="14.00">ToggleButtonComponent</text>
</g>
<!-- ToggleButtonComponent&#45;&gt;DrawerModule -->
<g id="edge4" class="edge">
<title>ToggleButtonComponent&#45;&gt;DrawerModule</title>
<path fill="none" stroke="black" d="M135.35,-84.82C135.35,-102.17 135.35,-125.8 135.35,-125.8 135.35,-125.8 213.16,-125.8 213.16,-125.8"/>
<polygon fill="black" stroke="black" points="213.16,-129.3 223.16,-125.8 213.16,-122.3 213.16,-129.3"/>
</g>
<!-- ContainerComponent  -->
<g id="node6" class="node">
<title>ContainerComponent </title>
<polygon fill="#fb8072" stroke="black" points="637.04,-214.8 496.96,-214.8 496.96,-178.8 637.04,-178.8 637.04,-214.8"/>
<text text-anchor="middle" x="567" y="-192.6" font-family="Times,serif" font-size="14.00">ContainerComponent </text>
</g>
<!-- DrawerModule&#45;&gt;ContainerComponent  -->
<g id="edge5" class="edge">
<title>DrawerModule&#45;&gt;ContainerComponent </title>
<path fill="none" stroke="black" stroke-dasharray="5,2" d="M324.68,-135.8C402.3,-135.8 541.74,-135.8 541.74,-135.8 541.74,-135.8 541.74,-168.5 541.74,-168.5"/>
<polygon fill="black" stroke="black" points="538.24,-168.5 541.74,-178.5 545.24,-168.5 538.24,-168.5"/>
</g>
<!-- ContentComponent  -->
<g id="node7" class="node">
<title>ContentComponent </title>
<polygon fill="#fb8072" stroke="black" points="478.66,-214.8 349.34,-214.8 349.34,-178.8 478.66,-178.8 478.66,-214.8"/>
<text text-anchor="middle" x="414" y="-192.6" font-family="Times,serif" font-size="14.00">ContentComponent </text>
</g>
<!-- DrawerModule&#45;&gt;ContentComponent  -->
<g id="edge6" class="edge">
<title>DrawerModule&#45;&gt;ContentComponent </title>
<path fill="none" stroke="black" stroke-dasharray="5,2" d="M324.84,-142.8C357.19,-142.8 393.06,-142.8 393.06,-142.8 393.06,-142.8 393.06,-168.52 393.06,-168.52"/>
<polygon fill="black" stroke="black" points="389.56,-168.52 393.06,-178.52 396.56,-168.52 389.56,-168.52"/>
</g>
<!-- DrawerComponent  -->
<g id="node8" class="node">
<title>DrawerComponent </title>
<polygon fill="#fb8072" stroke="black" points="331.3,-214.8 204.7,-214.8 204.7,-178.8 331.3,-178.8 331.3,-214.8"/>
<text text-anchor="middle" x="268" y="-192.6" font-family="Times,serif" font-size="14.00">DrawerComponent </text>
</g>
<!-- DrawerModule&#45;&gt;DrawerComponent  -->
<g id="edge7" class="edge">
<title>DrawerModule&#45;&gt;DrawerComponent </title>
<path fill="none" stroke="black" stroke-dasharray="5,2" d="M274,-149.91C274,-149.91 274,-168.79 274,-168.79"/>
<polygon fill="black" stroke="black" points="270.5,-168.79 274,-178.79 277.5,-168.79 270.5,-168.79"/>
</g>
<!-- ToggleButtonComponent  -->
<g id="node9" class="node">
<title>ToggleButtonComponent </title>
<polygon fill="#fb8072" stroke="black" points="186.11,-214.8 23.89,-214.8 23.89,-178.8 186.11,-178.8 186.11,-214.8"/>
<text text-anchor="middle" x="105" y="-192.6" font-family="Times,serif" font-size="14.00">ToggleButtonComponent </text>
</g>
<!-- DrawerModule&#45;&gt;ToggleButtonComponent  -->
<g id="edge8" class="edge">
<title>DrawerModule&#45;&gt;ToggleButtonComponent </title>
<path fill="none" stroke="black" stroke-dasharray="5,2" d="M223.19,-137.8C167.03,-137.8 84.4,-137.8 84.4,-137.8 84.4,-137.8 84.4,-168.78 84.4,-168.78"/>
<polygon fill="black" stroke="black" points="80.9,-168.78 84.4,-178.78 87.9,-168.78 80.9,-168.78"/>
</g>
</g>
</svg>
