<?xml version="1.0" encoding="UTF-8" standalone="no"?>
<!DOCTYPE svg PUBLIC "-//W3C//DTD SVG 1.1//EN"
 "http://www.w3.org/Graphics/SVG/1.1/DTD/svg11.dtd">
<!-- Generated by graphviz version 2.47.0 (20210316.0004)
 -->
<!-- Title: dependencies Pages: 1 -->
<svg width="669pt" height="284pt"
 viewBox="0.00 0.00 669.00 284.00" xmlns="http://www.w3.org/2000/svg" xmlns:xlink="http://www.w3.org/1999/xlink">
<g id="graph0" class="graph" transform="scale(1 1) rotate(0) translate(4 280)">
<title>dependencies</title>
<polygon fill="white" stroke="transparent" points="-4,4 -4,-280 665,-280 665,4 -4,4"/>
<text text-anchor="start" x="309.51" y="-42.4" font-family="Times-12" font-weight="bold" font-size="14.00">Legend</text>
<polygon fill="#ffffb3" stroke="transparent" points="96.5,-10 96.5,-30 116.5,-30 116.5,-10 96.5,-10"/>
<text text-anchor="start" x="120.13" y="-15.4" font-family="Times-12" font-size="14.00"> &#160;Declarations</text>
<polygon fill="#8dd3c7" stroke="transparent" points="209.5,-10 209.5,-30 229.5,-30 229.5,-10 209.5,-10"/>
<text text-anchor="start" x="233.23" y="-15.4" font-family="Times-12" font-size="14.00"> &#160;Module</text>
<polygon fill="#80b1d3" stroke="transparent" points="295.5,-10 295.5,-30 315.5,-30 315.5,-10 295.5,-10"/>
<text text-anchor="start" x="319.28" y="-15.4" font-family="Times-12" font-size="14.00"> &#160;Bootstrap</text>
<polygon fill="#fdb462" stroke="transparent" points="392.5,-10 392.5,-30 412.5,-30 412.5,-10 392.5,-10"/>
<text text-anchor="start" x="416.17" y="-15.4" font-family="Times-12" font-size="14.00"> &#160;Providers</text>
<polygon fill="#fb8072" stroke="transparent" points="488.5,-10 488.5,-30 508.5,-30 508.5,-10 488.5,-10"/>
<text text-anchor="start" x="512.23" y="-15.4" font-family="Times-12" font-size="14.00"> &#160;Exports</text>
<g id="clust1" class="cluster">
<title>cluster_DrawerModule</title>
<polygon fill="none" stroke="black" stroke-dasharray="1,5" points="8,-70 8,-268 653,-268 653,-70 8,-70"/>
</g>
<g id="clust8" class="cluster">
<title>cluster_DrawerModule_exports</title>
<polygon fill="none" stroke="black" points="16,-208 16,-260 645,-260 645,-208 16,-208"/>
</g>
<g id="clust2" class="cluster">
<title>cluster_DrawerModule_declarations</title>
<polygon fill="none" stroke="black" points="25,-78 25,-130 639,-130 639,-78 25,-78"/>
</g>
<!-- ContainerComponent -->
<g id="node1" class="node">
<title>ContainerComponent</title>
<polygon fill="#ffffb3" stroke="black" points="631.04,-122 494.96,-122 494.96,-86 631.04,-86 631.04,-122"/>
<text text-anchor="middle" x="563" y="-99.8" font-family="Times,serif" font-size="14.00">ContainerComponent</text>
</g>
<!-- DrawerModule -->
<g id="node5" class="node">
<title>DrawerModule</title>
<polygon fill="#8dd3c7" stroke="black" points="324.51,-187 321.51,-191 300.51,-191 297.51,-187 223.49,-187 223.49,-151 324.51,-151 324.51,-187"/>
<text text-anchor="middle" x="274" y="-164.8" font-family="Times,serif" font-size="14.00">DrawerModule</text>
</g>
<!-- ContainerComponent&#45;&gt;DrawerModule -->
<g id="edge1" class="edge">
<title>ContainerComponent&#45;&gt;DrawerModule</title>
<path fill="none" stroke="black" d="M586.51,-122.27C586.51,-140.56 586.51,-166 586.51,-166 586.51,-166 334.56,-166 334.56,-166"/>
<polygon fill="black" stroke="black" points="334.56,-162.5 324.56,-166 334.56,-169.5 334.56,-162.5"/>
</g>
<!-- ContentComponent -->
<g id="node2" class="node">
<title>ContentComponent</title>
<polygon fill="#ffffb3" stroke="black" points="476.67,-122 351.33,-122 351.33,-86 476.67,-86 476.67,-122"/>
<text text-anchor="middle" x="414" y="-99.8" font-family="Times,serif" font-size="14.00">ContentComponent</text>
</g>
<!-- ContentComponent&#45;&gt;DrawerModule -->
<g id="edge2" class="edge">
<title>ContentComponent&#45;&gt;DrawerModule</title>
<path fill="none" stroke="black" d="M434.94,-122.01C434.94,-138.05 434.94,-159 434.94,-159 434.94,-159 334.92,-159 334.92,-159"/>
<polygon fill="black" stroke="black" points="334.92,-155.5 324.92,-159 334.92,-162.5 334.92,-155.5"/>
</g>
<!-- DrawerComponent -->
<g id="node3" class="node">
<title>DrawerComponent</title>
<polygon fill="#ffffb3" stroke="black" points="333.8,-122 210.2,-122 210.2,-86 333.8,-86 333.8,-122"/>
<text text-anchor="middle" x="272" y="-99.8" font-family="Times,serif" font-size="14.00">DrawerComponent</text>
</g>
<!-- DrawerComponent&#45;&gt;DrawerModule -->
<g id="edge3" class="edge">
<title>DrawerComponent&#45;&gt;DrawerModule</title>
<path fill="none" stroke="black" d="M274,-122.11C274,-122.11 274,-140.99 274,-140.99"/>
<polygon fill="black" stroke="black" points="270.5,-140.99 274,-150.99 277.5,-140.99 270.5,-140.99"/>
</g>
<!-- ToggleButtonComponent -->
<g id="node4" class="node">
<title>ToggleButtonComponent</title>
<polygon fill="#ffffb3" stroke="black" points="192.61,-122 33.39,-122 33.39,-86 192.61,-86 192.61,-122"/>
<text text-anchor="middle" x="113" y="-99.8" font-family="Times,serif" font-size="14.00">ToggleButtonComponent</text>
</g>
<!-- ToggleButtonComponent&#45;&gt;DrawerModule -->
<g id="edge4" class="edge">
<title>ToggleButtonComponent&#45;&gt;DrawerModule</title>
<path fill="none" stroke="black" d="M135.35,-122.02C135.35,-139.37 135.35,-163 135.35,-163 135.35,-163 213.16,-163 213.16,-163"/>
<polygon fill="black" stroke="black" points="213.16,-166.5 223.16,-163 213.16,-159.5 213.16,-166.5"/>
</g>
<!-- ContainerComponent  -->
<g id="node6" class="node">
<title>ContainerComponent </title>
<polygon fill="#fb8072" stroke="black" points="637.04,-252 496.96,-252 496.96,-216 637.04,-216 637.04,-252"/>
<text text-anchor="middle" x="567" y="-229.8" font-family="Times,serif" font-size="14.00">ContainerComponent </text>
</g>
<!-- DrawerModule&#45;&gt;ContainerComponent  -->
<g id="edge5" class="edge">
<title>DrawerModule&#45;&gt;ContainerComponent </title>
<path fill="none" stroke="black" stroke-dasharray="5,2" d="M324.68,-173C402.3,-173 541.74,-173 541.74,-173 541.74,-173 541.74,-205.7 541.74,-205.7"/>
<polygon fill="black" stroke="black" points="538.24,-205.7 541.74,-215.7 545.24,-205.7 538.24,-205.7"/>
</g>
<!-- ContentComponent  -->
<g id="node7" class="node">
<title>ContentComponent </title>
<polygon fill="#fb8072" stroke="black" points="478.66,-252 349.34,-252 349.34,-216 478.66,-216 478.66,-252"/>
<text text-anchor="middle" x="414" y="-229.8" font-family="Times,serif" font-size="14.00">ContentComponent </text>
</g>
<!-- DrawerModule&#45;&gt;ContentComponent  -->
<g id="edge6" class="edge">
<title>DrawerModule&#45;&gt;ContentComponent </title>
<path fill="none" stroke="black" stroke-dasharray="5,2" d="M324.84,-180C357.19,-180 393.06,-180 393.06,-180 393.06,-180 393.06,-205.72 393.06,-205.72"/>
<polygon fill="black" stroke="black" points="389.56,-205.72 393.06,-215.72 396.56,-205.72 389.56,-205.72"/>
</g>
<!-- DrawerComponent  -->
<g id="node8" class="node">
<title>DrawerComponent </title>
<polygon fill="#fb8072" stroke="black" points="331.3,-252 204.7,-252 204.7,-216 331.3,-216 331.3,-252"/>
<text text-anchor="middle" x="268" y="-229.8" font-family="Times,serif" font-size="14.00">DrawerComponent </text>
</g>
<!-- DrawerModule&#45;&gt;DrawerComponent  -->
<g id="edge7" class="edge">
<title>DrawerModule&#45;&gt;DrawerComponent </title>
<path fill="none" stroke="black" stroke-dasharray="5,2" d="M274,-187.11C274,-187.11 274,-205.99 274,-205.99"/>
<polygon fill="black" stroke="black" points="270.5,-205.99 274,-215.99 277.5,-205.99 270.5,-205.99"/>
</g>
<!-- ToggleButtonComponent  -->
<g id="node9" class="node">
<title>ToggleButtonComponent </title>
<polygon fill="#fb8072" stroke="black" points="186.11,-252 23.89,-252 23.89,-216 186.11,-216 186.11,-252"/>
<text text-anchor="middle" x="105" y="-229.8" font-family="Times,serif" font-size="14.00">ToggleButtonComponent </text>
</g>
<!-- DrawerModule&#45;&gt;ToggleButtonComponent  -->
<g id="edge8" class="edge">
<title>DrawerModule&#45;&gt;ToggleButtonComponent </title>
<path fill="none" stroke="black" stroke-dasharray="5,2" d="M223.19,-175C167.03,-175 84.4,-175 84.4,-175 84.4,-175 84.4,-205.98 84.4,-205.98"/>
<polygon fill="black" stroke="black" points="80.9,-205.98 84.4,-215.98 87.9,-205.98 80.9,-205.98"/>
</g>
</g>
</svg>
