<?xml version="1.0" encoding="UTF-8" standalone="no"?>
<!DOCTYPE svg PUBLIC "-//W3C//DTD SVG 1.1//EN"
 "http://www.w3.org/Graphics/SVG/1.1/DTD/svg11.dtd">
<!-- Generated by graphviz version 2.47.3 (20210619.1520)
 -->
<!-- Title: dependencies Pages: 1 -->
<svg width="634pt" height="247pt"
 viewBox="0.00 0.00 634.00 246.80" xmlns="http://www.w3.org/2000/svg" xmlns:xlink="http://www.w3.org/1999/xlink">
<g id="graph0" class="graph" transform="scale(1 1) rotate(0) translate(4 242.8)">
<title>dependencies</title>
<polygon fill="white" stroke="transparent" points="-4,4 -4,-242.8 630,-242.8 630,4 -4,4"/>
<text text-anchor="middle" x="313" y="-8.2" font-family="sans-serif" font-size="14.00">dependencies</text>
<g id="clust1" class="cluster">
<title>cluster_FiltersContentModule</title>
<polygon fill="none" stroke="black" stroke-dasharray="1,5" points="8,-32.8 8,-230.8 618,-230.8 618,-32.8 8,-32.8"/>
</g>
<g id="clust4" class="cluster">
<title>cluster_FiltersContentModule_imports</title>
<polygon fill="none" stroke="black" points="202,-40.8 202,-92.8 610,-92.8 610,-40.8 202,-40.8"/>
</g>
<g id="clust5" class="cluster">
<title>cluster_FiltersContentModule_exports</title>
<polygon fill="none" stroke="black" points="249,-170.8 249,-222.8 429,-222.8 429,-170.8 249,-170.8"/>
</g>
<g id="clust2" class="cluster">
<title>cluster_FiltersContentModule_declarations</title>
<polygon fill="none" stroke="black" points="16,-40.8 16,-92.8 194,-92.8 194,-40.8 16,-40.8"/>
</g>
<!-- FiltersContentComponent -->
<g id="node1" class="node">
<title>FiltersContentComponent</title>
<polygon fill="#ffffb3" stroke="black" points="185.94,-84.8 24.06,-84.8 24.06,-48.8 185.94,-48.8 185.94,-84.8"/>
<text text-anchor="middle" x="105" y="-62.6" font-family="Times,serif" font-size="14.00">FiltersContentComponent</text>
</g>
<!-- FiltersContentModule -->
<g id="node2" class="node">
<title>FiltersContentModule</title>
<polygon fill="#8dd3c7" stroke="black" points="408.66,-149.8 405.66,-153.8 384.66,-153.8 381.66,-149.8 269.34,-149.8 269.34,-113.8 408.66,-113.8 408.66,-149.8"/>
<text text-anchor="middle" x="339" y="-127.6" font-family="Times,serif" font-size="14.00">FiltersContentModule</text>
</g>
<!-- FiltersContentComponent&#45;&gt;FiltersContentModule -->
<g id="edge1" class="edge">
<title>FiltersContentComponent&#45;&gt;FiltersContentModule</title>
<path fill="none" stroke="black" d="M105,-84.91C105,-104.14 105,-131.8 105,-131.8 105,-131.8 259.11,-131.8 259.11,-131.8"/>
<polygon fill="black" stroke="black" points="259.11,-135.3 269.11,-131.8 259.11,-128.3 259.11,-135.3"/>
</g>
<!-- FiltersContentComponent  -->
<g id="node6" class="node">
<title>FiltersContentComponent </title>
<polygon fill="#fb8072" stroke="black" points="421.44,-214.8 256.56,-214.8 256.56,-178.8 421.44,-178.8 421.44,-214.8"/>
<text text-anchor="middle" x="339" y="-192.6" font-family="Times,serif" font-size="14.00">FiltersContentComponent </text>
</g>
<!-- FiltersContentModule&#45;&gt;FiltersContentComponent  -->
<g id="edge5" class="edge">
<title>FiltersContentModule&#45;&gt;FiltersContentComponent </title>
<path fill="none" stroke="black" stroke-dasharray="5,2" d="M339,-149.91C339,-149.91 339,-168.79 339,-168.79"/>
<polygon fill="black" stroke="black" points="335.5,-168.79 339,-178.79 342.5,-168.79 335.5,-168.79"/>
</g>
<!-- CheckboxModule -->
<g id="node3" class="node">
<title>CheckboxModule</title>
<polygon fill="#8dd3c7" stroke="black" points="602.32,-84.8 599.32,-88.8 578.32,-88.8 575.32,-84.8 485.68,-84.8 485.68,-48.8 602.32,-48.8 602.32,-84.8"/>
<text text-anchor="middle" x="544" y="-62.6" font-family="Times,serif" font-size="14.00">CheckboxModule</text>
</g>
<!-- CheckboxModule&#45;&gt;FiltersContentModule -->
<g id="edge2" class="edge">
<title>CheckboxModule&#45;&gt;FiltersContentModule</title>
<path fill="none" stroke="black" d="M544,-84.91C544,-104.14 544,-131.8 544,-131.8 544,-131.8 418.69,-131.8 418.69,-131.8"/>
<polygon fill="black" stroke="black" points="418.69,-128.3 408.69,-131.8 418.69,-135.3 418.69,-128.3"/>
</g>
<!-- DropdownModule -->
<g id="node4" class="node">
<title>DropdownModule</title>
<polygon fill="#8dd3c7" stroke="black" points="467.92,-84.8 464.92,-88.8 443.92,-88.8 440.92,-84.8 348.08,-84.8 348.08,-48.8 467.92,-48.8 467.92,-84.8"/>
<text text-anchor="middle" x="408" y="-62.6" font-family="Times,serif" font-size="14.00">DropdownModule</text>
</g>
<!-- DropdownModule&#45;&gt;FiltersContentModule -->
<g id="edge3" class="edge">
<title>DropdownModule&#45;&gt;FiltersContentModule</title>
<path fill="none" stroke="black" d="M378.56,-84.91C378.56,-84.91 378.56,-103.79 378.56,-103.79"/>
<polygon fill="black" stroke="black" points="375.06,-103.79 378.56,-113.79 382.06,-103.79 375.06,-103.79"/>
</g>
<!-- DualSliderModule -->
<g id="node5" class="node">
<title>DualSliderModule</title>
<polygon fill="#8dd3c7" stroke="black" points="330.2,-84.8 327.2,-88.8 306.2,-88.8 303.2,-84.8 209.8,-84.8 209.8,-48.8 330.2,-48.8 330.2,-84.8"/>
<text text-anchor="middle" x="270" y="-62.6" font-family="Times,serif" font-size="14.00">DualSliderModule</text>
</g>
<!-- DualSliderModule&#45;&gt;FiltersContentModule -->
<g id="edge4" class="edge">
<title>DualSliderModule&#45;&gt;FiltersContentModule</title>
<path fill="none" stroke="black" d="M299.64,-84.91C299.64,-84.91 299.64,-103.79 299.64,-103.79"/>
<polygon fill="black" stroke="black" points="296.14,-103.79 299.64,-113.79 303.14,-103.79 296.14,-103.79"/>
</g>
</g>
</svg>
