<?xml version="1.0" encoding="UTF-8" standalone="no"?>
<!DOCTYPE svg PUBLIC "-//W3C//DTD SVG 1.1//EN"
 "http://www.w3.org/Graphics/SVG/1.1/DTD/svg11.dtd">
<!-- Generated by graphviz version 2.40.1 (20161225.0304)
 -->
<!-- Title: dependencies Pages: 1 -->
<svg width="634pt" height="284pt"
 viewBox="0.00 0.00 634.00 284.00" xmlns="http://www.w3.org/2000/svg" xmlns:xlink="http://www.w3.org/1999/xlink">
<g id="graph0" class="graph" transform="scale(1 1) rotate(0) translate(4 280)">
<title>dependencies</title>
<polygon fill="#ffffff" stroke="transparent" points="-4,4 -4,-280 630,-280 630,4 -4,4"/>
<text text-anchor="start" x="292.0091" y="-42.4" font-family="sans-serif" font-weight="bold" font-size="14.00" fill="#000000">Legend</text>
<polygon fill="#ffffb3" stroke="transparent" points="79,-10 79,-30 99,-30 99,-10 79,-10"/>
<text text-anchor="start" x="102.629" y="-15.4" font-family="sans-serif" font-size="14.00" fill="#000000"> &#160;Declarations</text>
<polygon fill="#8dd3c7" stroke="transparent" points="192,-10 192,-30 212,-30 212,-10 192,-10"/>
<text text-anchor="start" x="215.7251" y="-15.4" font-family="sans-serif" font-size="14.00" fill="#000000"> &#160;Module</text>
<polygon fill="#80b1d3" stroke="transparent" points="278,-10 278,-30 298,-30 298,-10 278,-10"/>
<text text-anchor="start" x="301.7812" y="-15.4" font-family="sans-serif" font-size="14.00" fill="#000000"> &#160;Bootstrap</text>
<polygon fill="#fdb462" stroke="transparent" points="375,-10 375,-30 395,-30 395,-10 375,-10"/>
<text text-anchor="start" x="398.6732" y="-15.4" font-family="sans-serif" font-size="14.00" fill="#000000"> &#160;Providers</text>
<polygon fill="#fb8072" stroke="transparent" points="471,-10 471,-30 491,-30 491,-10 471,-10"/>
<text text-anchor="start" x="494.7258" y="-15.4" font-family="sans-serif" font-size="14.00" fill="#000000"> &#160;Exports</text>
<g id="clust1" class="cluster">
<title>cluster_FiltersContentModule</title>
<polygon fill="none" stroke="#000000" stroke-dasharray="1,5" points="8,-70 8,-268 618,-268 618,-70 8,-70"/>
</g>
<g id="clust2" class="cluster">
<title>cluster_FiltersContentModule_declarations</title>
<polygon fill="none" stroke="#000000" points="432,-78 432,-130 610,-130 610,-78 432,-78"/>
</g>
<g id="clust4" class="cluster">
<title>cluster_FiltersContentModule_imports</title>
<polygon fill="none" stroke="#000000" points="16,-78 16,-130 424,-130 424,-78 16,-78"/>
</g>
<g id="clust5" class="cluster">
<title>cluster_FiltersContentModule_exports</title>
<polygon fill="none" stroke="#000000" points="200,-208 200,-260 380,-260 380,-208 200,-208"/>
</g>
<!-- FiltersContentComponent -->
<g id="node1" class="node">
<title>FiltersContentComponent</title>
<polygon fill="#ffffb3" stroke="#000000" points="601.9396,-122 440.0604,-122 440.0604,-86 601.9396,-86 601.9396,-122"/>
<text text-anchor="middle" x="521" y="-99.8" font-family="Times,serif" font-size="14.00" fill="#000000">FiltersContentComponent</text>
</g>
<!-- FiltersContentModule -->
<g id="node2" class="node">
<title>FiltersContentModule</title>
<polygon fill="#8dd3c7" stroke="#000000" points="359.6568,-187 356.6568,-191 335.6568,-191 332.6568,-187 220.3432,-187 220.3432,-151 359.6568,-151 359.6568,-187"/>
<text text-anchor="middle" x="290" y="-164.8" font-family="Times,serif" font-size="14.00" fill="#000000">FiltersContentModule</text>
</g>
<!-- FiltersContentComponent&#45;&gt;FiltersContentModule -->
<g id="edge1" class="edge">
<title>FiltersContentComponent&#45;&gt;FiltersContentModule</title>
<path fill="none" stroke="#000000" d="M521,-122.1061C521,-141.3391 521,-169 521,-169 521,-169 369.9345,-169 369.9345,-169"/>
<polygon fill="#000000" stroke="#000000" points="369.9345,-165.5001 359.9345,-169 369.9345,-172.5001 369.9345,-165.5001"/>
</g>
<!-- FiltersContentComponent  -->
<g id="node6" class="node">
<title>FiltersContentComponent </title>
<polygon fill="#fb8072" stroke="#000000" points="372.439,-252 207.561,-252 207.561,-216 372.439,-216 372.439,-252"/>
<text text-anchor="middle" x="290" y="-229.8" font-family="Times,serif" font-size="14.00" fill="#000000">FiltersContentComponent </text>
</g>
<!-- FiltersContentModule&#45;&gt;FiltersContentComponent  -->
<g id="edge5" class="edge">
<title>FiltersContentModule&#45;&gt;FiltersContentComponent </title>
<path fill="none" stroke="#000000" stroke-dasharray="5,2" d="M290,-187.1061C290,-187.1061 290,-205.991 290,-205.991"/>
<polygon fill="#000000" stroke="#000000" points="286.5001,-205.9909 290,-215.991 293.5001,-205.991 286.5001,-205.9909"/>
</g>
<!-- CheckboxModule -->
<g id="node3" class="node">
<title>CheckboxModule</title>
<polygon fill="#8dd3c7" stroke="#000000" points="416.316,-122 413.316,-126 392.316,-126 389.316,-122 299.684,-122 299.684,-86 416.316,-86 416.316,-122"/>
<text text-anchor="middle" x="358" y="-99.8" font-family="Times,serif" font-size="14.00" fill="#000000">CheckboxModule</text>
</g>
<!-- CheckboxModule&#45;&gt;FiltersContentModule -->
<g id="edge2" class="edge">
<title>CheckboxModule&#45;&gt;FiltersContentModule</title>
<path fill="none" stroke="#000000" d="M329.8352,-122.1061C329.8352,-122.1061 329.8352,-140.991 329.8352,-140.991"/>
<polygon fill="#000000" stroke="#000000" points="326.3353,-140.9909 329.8352,-150.991 333.3353,-140.991 326.3353,-140.9909"/>
</g>
<!-- DropdownModule -->
<g id="node4" class="node">
<title>DropdownModule</title>
<polygon fill="#8dd3c7" stroke="#000000" points="281.9244,-122 278.9244,-126 257.9244,-126 254.9244,-122 162.0756,-122 162.0756,-86 281.9244,-86 281.9244,-122"/>
<text text-anchor="middle" x="222" y="-99.8" font-family="Times,serif" font-size="14.00" fill="#000000">DropdownModule</text>
</g>
<!-- DropdownModule&#45;&gt;FiltersContentModule -->
<g id="edge3" class="edge">
<title>DropdownModule&#45;&gt;FiltersContentModule</title>
<path fill="none" stroke="#000000" d="M250.9418,-122.1061C250.9418,-122.1061 250.9418,-140.991 250.9418,-140.991"/>
<polygon fill="#000000" stroke="#000000" points="247.4419,-140.9909 250.9418,-150.991 254.4419,-140.991 247.4419,-140.9909"/>
</g>
<!-- DualSliderModule -->
<g id="node5" class="node">
<title>DualSliderModule</title>
<polygon fill="#8dd3c7" stroke="#000000" points="144.2008,-122 141.2008,-126 120.2008,-126 117.2008,-122 23.7992,-122 23.7992,-86 144.2008,-86 144.2008,-122"/>
<text text-anchor="middle" x="84" y="-99.8" font-family="Times,serif" font-size="14.00" fill="#000000">DualSliderModule</text>
</g>
<!-- DualSliderModule&#45;&gt;FiltersContentModule -->
<g id="edge4" class="edge">
<title>DualSliderModule&#45;&gt;FiltersContentModule</title>
<path fill="none" stroke="#000000" d="M84,-122.1061C84,-141.3391 84,-169 84,-169 84,-169 210.2578,-169 210.2578,-169"/>
<polygon fill="#000000" stroke="#000000" points="210.2578,-172.5001 220.2578,-169 210.2578,-165.5001 210.2578,-172.5001"/>
</g>
</g>
</svg>
