<?xml version="1.0" encoding="UTF-8" standalone="no"?>
<!DOCTYPE svg PUBLIC "-//W3C//DTD SVG 1.1//EN"
 "http://www.w3.org/Graphics/SVG/1.1/DTD/svg11.dtd">
<!-- Generated by graphviz version 2.40.1 (20161225.0304)
 -->
<!-- Title: dependencies Pages: 1 -->
<svg width="504pt" height="284pt"
 viewBox="0.00 0.00 504.00 284.00" xmlns="http://www.w3.org/2000/svg" xmlns:xlink="http://www.w3.org/1999/xlink">
<g id="graph0" class="graph" transform="scale(1 1) rotate(0) translate(4 280)">
<title>dependencies</title>
<polygon fill="#ffffff" stroke="transparent" points="-4,4 -4,-280 500,-280 500,4 -4,4"/>
<text text-anchor="start" x="227.0091" y="-42.4" font-family="sans-serif" font-weight="bold" font-size="14.00" fill="#000000">Legend</text>
<polygon fill="#ffffb3" stroke="transparent" points="14,-10 14,-30 34,-30 34,-10 14,-10"/>
<text text-anchor="start" x="37.629" y="-15.4" font-family="sans-serif" font-size="14.00" fill="#000000"> &#160;Declarations</text>
<polygon fill="#8dd3c7" stroke="transparent" points="127,-10 127,-30 147,-30 147,-10 127,-10"/>
<text text-anchor="start" x="150.7251" y="-15.4" font-family="sans-serif" font-size="14.00" fill="#000000"> &#160;Module</text>
<polygon fill="#80b1d3" stroke="transparent" points="213,-10 213,-30 233,-30 233,-10 213,-10"/>
<text text-anchor="start" x="236.7812" y="-15.4" font-family="sans-serif" font-size="14.00" fill="#000000"> &#160;Bootstrap</text>
<polygon fill="#fdb462" stroke="transparent" points="310,-10 310,-30 330,-30 330,-10 310,-10"/>
<text text-anchor="start" x="333.6732" y="-15.4" font-family="sans-serif" font-size="14.00" fill="#000000"> &#160;Providers</text>
<polygon fill="#fb8072" stroke="transparent" points="406,-10 406,-30 426,-30 426,-10 406,-10"/>
<text text-anchor="start" x="429.7258" y="-15.4" font-family="sans-serif" font-size="14.00" fill="#000000"> &#160;Exports</text>
<g id="clust1" class="cluster">
<title>cluster_SchemeDropdownModule</title>
<polygon fill="none" stroke="#000000" stroke-dasharray="1,5" points="71,-70 71,-268 425,-268 425,-70 71,-70"/>
</g>
<g id="clust2" class="cluster">
<title>cluster_SchemeDropdownModule_declarations</title>
<polygon fill="none" stroke="#000000" points="215,-78 215,-130 417,-130 417,-78 215,-78"/>
</g>
<g id="clust4" class="cluster">
<title>cluster_SchemeDropdownModule_imports</title>
<polygon fill="none" stroke="#000000" points="79,-78 79,-130 207,-130 207,-78 79,-78"/>
</g>
<g id="clust5" class="cluster">
<title>cluster_SchemeDropdownModule_exports</title>
<polygon fill="none" stroke="#000000" points="145,-208 145,-260 351,-260 351,-208 145,-208"/>
</g>
<!-- SchemeDropdownComponent -->
<g id="node1" class="node">
<title>SchemeDropdownComponent</title>
<polygon fill="#ffffb3" stroke="#000000" points="408.5238,-122 223.4762,-122 223.4762,-86 408.5238,-86 408.5238,-122"/>
<text text-anchor="middle" x="316" y="-99.8" font-family="Times,serif" font-size="14.00" fill="#000000">SchemeDropdownComponent</text>
</g>
<!-- SchemeDropdownModule -->
<g id="node2" class="node">
<title>SchemeDropdownModule</title>
<polygon fill="#8dd3c7" stroke="#000000" points="329.7408,-187 326.7408,-191 305.7408,-191 302.7408,-187 166.2592,-187 166.2592,-151 329.7408,-151 329.7408,-187"/>
<text text-anchor="middle" x="248" y="-164.8" font-family="Times,serif" font-size="14.00" fill="#000000">SchemeDropdownModule</text>
</g>
<!-- SchemeDropdownComponent&#45;&gt;SchemeDropdownModule -->
<g id="edge1" class="edge">
<title>SchemeDropdownComponent&#45;&gt;SchemeDropdownModule</title>
<path fill="none" stroke="#000000" d="M276.5544,-122.1061C276.5544,-122.1061 276.5544,-140.991 276.5544,-140.991"/>
<polygon fill="#000000" stroke="#000000" points="273.0544,-140.9909 276.5544,-150.991 280.0544,-140.991 273.0544,-140.9909"/>
</g>
<!-- SchemeDropdownComponent  -->
<g id="node4" class="node">
<title>SchemeDropdownComponent </title>
<polygon fill="#fb8072" stroke="#000000" points="342.5232,-252 153.4768,-252 153.4768,-216 342.5232,-216 342.5232,-252"/>
<text text-anchor="middle" x="248" y="-229.8" font-family="Times,serif" font-size="14.00" fill="#000000">SchemeDropdownComponent </text>
</g>
<!-- SchemeDropdownModule&#45;&gt;SchemeDropdownComponent  -->
<g id="edge3" class="edge">
<title>SchemeDropdownModule&#45;&gt;SchemeDropdownComponent </title>
<path fill="none" stroke="#000000" stroke-dasharray="5,2" d="M248,-187.1061C248,-187.1061 248,-205.991 248,-205.991"/>
<polygon fill="#000000" stroke="#000000" points="244.5001,-205.9909 248,-215.991 251.5001,-205.991 244.5001,-205.9909"/>
</g>
<!-- ColorBarModule -->
<g id="node3" class="node">
<title>ColorBarModule</title>
<polygon fill="#8dd3c7" stroke="#000000" points="198.6499,-122 195.6499,-126 174.6499,-126 171.6499,-122 87.3501,-122 87.3501,-86 198.6499,-86 198.6499,-122"/>
<text text-anchor="middle" x="143" y="-99.8" font-family="Times,serif" font-size="14.00" fill="#000000">ColorBarModule</text>
</g>
<!-- ColorBarModule&#45;&gt;SchemeDropdownModule -->
<g id="edge2" class="edge">
<title>ColorBarModule&#45;&gt;SchemeDropdownModule</title>
<path fill="none" stroke="#000000" d="M182.4772,-122.1061C182.4772,-122.1061 182.4772,-140.991 182.4772,-140.991"/>
<polygon fill="#000000" stroke="#000000" points="178.9773,-140.9909 182.4772,-150.991 185.9773,-140.991 178.9773,-140.9909"/>
</g>
</g>
</svg>
