<?xml version="1.0" encoding="UTF-8" standalone="no"?>
<!DOCTYPE svg PUBLIC "-//W3C//DTD SVG 1.1//EN"
 "http://www.w3.org/Graphics/SVG/1.1/DTD/svg11.dtd">
<!-- Generated by graphviz version 2.47.3 (20210619.1520)
 -->
<!-- Title: dependencies Pages: 1 -->
<svg width="392pt" height="247pt"
 viewBox="0.00 0.00 392.00 246.80" xmlns="http://www.w3.org/2000/svg" xmlns:xlink="http://www.w3.org/1999/xlink">
<g id="graph0" class="graph" transform="scale(1 1) rotate(0) translate(4 242.8)">
<title>dependencies</title>
<polygon fill="white" stroke="transparent" points="-4,4 -4,-242.8 388,-242.8 388,4 -4,4"/>
<text text-anchor="middle" x="192" y="-8.2" font-family="sans-serif" font-size="14.00">dependencies</text>
<g id="clust1" class="cluster">
<title>cluster_CoreModule</title>
<polygon fill="none" stroke="black" stroke-dasharray="1,5" points="8,-32.8 8,-230.8 376,-230.8 376,-32.8 8,-32.8"/>
</g>
<g id="clust4" class="cluster">
<title>cluster_CoreModule_exports</title>
<polygon fill="none" stroke="black" points="137,-170.8 137,-222.8 257,-222.8 257,-170.8 137,-170.8"/>
</g>
<g id="clust3" class="cluster">
<title>cluster_CoreModule_imports</title>
<polygon fill="none" stroke="black" points="16,-40.8 16,-92.8 368,-92.8 368,-40.8 16,-40.8"/>
</g>
<!-- HeaderModule -->
<g id="node1" class="node">
<title>HeaderModule</title>
<polygon fill="#8dd3c7" stroke="black" points="359.96,-84.8 356.96,-88.8 335.96,-88.8 332.96,-84.8 260.04,-84.8 260.04,-48.8 359.96,-48.8 359.96,-84.8"/>
<text text-anchor="middle" x="310" y="-62.6" font-family="Times,serif" font-size="14.00">HeaderModule</text>
</g>
<!-- CoreModule -->
<g id="node4" class="node">
<title>CoreModule</title>
<polygon fill="#8dd3c7" stroke="black" points="240.26,-149.8 237.26,-153.8 216.26,-153.8 213.26,-149.8 153.74,-149.8 153.74,-113.8 240.26,-113.8 240.26,-149.8"/>
<text text-anchor="middle" x="197" y="-127.6" font-family="Times,serif" font-size="14.00">CoreModule</text>
</g>
<!-- HeaderModule&#45;&gt;CoreModule -->
<g id="edge1" class="edge">
<title>HeaderModule&#45;&gt;CoreModule</title>
<path fill="none" stroke="black" d="M310,-84.91C310,-104.14 310,-131.8 310,-131.8 310,-131.8 250.37,-131.8 250.37,-131.8"/>
<polygon fill="black" stroke="black" points="250.37,-128.3 240.37,-131.8 250.37,-135.3 250.37,-128.3"/>
</g>
<!-- StoreModule -->
<g id="node2" class="node">
<title>StoreModule</title>
<polygon fill="#8dd3c7" stroke="black" points="241.6,-84.8 238.6,-88.8 217.6,-88.8 214.6,-84.8 152.4,-84.8 152.4,-48.8 241.6,-48.8 241.6,-84.8"/>
<text text-anchor="middle" x="197" y="-62.6" font-family="Times,serif" font-size="14.00">StoreModule</text>
</g>
<!-- StoreModule&#45;&gt;CoreModule -->
<g id="edge2" class="edge">
<title>StoreModule&#45;&gt;CoreModule</title>
<path fill="none" stroke="black" d="M197,-84.91C197,-84.91 197,-103.79 197,-103.79"/>
<polygon fill="black" stroke="black" points="193.5,-103.79 197,-113.79 200.5,-103.79 193.5,-103.79"/>
</g>
<!-- ThemingModule -->
<g id="node3" class="node">
<title>ThemingModule</title>
<polygon fill="#8dd3c7" stroke="black" points="134.1,-84.8 131.1,-88.8 110.1,-88.8 107.1,-84.8 23.9,-84.8 23.9,-48.8 134.1,-48.8 134.1,-84.8"/>
<text text-anchor="middle" x="79" y="-62.6" font-family="Times,serif" font-size="14.00">ThemingModule</text>
</g>
<!-- ThemingModule&#45;&gt;CoreModule -->
<g id="edge3" class="edge">
<title>ThemingModule&#45;&gt;CoreModule</title>
<path fill="none" stroke="black" d="M79,-84.91C79,-104.14 79,-131.8 79,-131.8 79,-131.8 143.73,-131.8 143.73,-131.8"/>
<polygon fill="black" stroke="black" points="143.73,-135.3 153.73,-131.8 143.73,-128.3 143.73,-135.3"/>
</g>
<!-- HeaderModule  -->
<g id="node5" class="node">
<title>HeaderModule </title>
<polygon fill="#fb8072" stroke="black" points="248.96,-214.8 145.04,-214.8 145.04,-178.8 248.96,-178.8 248.96,-214.8"/>
<text text-anchor="middle" x="197" y="-192.6" font-family="Times,serif" font-size="14.00">HeaderModule </text>
</g>
<!-- CoreModule&#45;&gt;HeaderModule  -->
<g id="edge4" class="edge">
<title>CoreModule&#45;&gt;HeaderModule </title>
<path fill="none" stroke="black" stroke-dasharray="5,2" d="M197,-149.91C197,-149.91 197,-168.79 197,-168.79"/>
<polygon fill="black" stroke="black" points="193.5,-168.79 197,-178.79 200.5,-168.79 193.5,-168.79"/>
</g>
</g>
</svg>
