<?xml version="1.0" encoding="UTF-8" standalone="no"?>
<!DOCTYPE svg PUBLIC "-//W3C//DTD SVG 1.1//EN"
 "http://www.w3.org/Graphics/SVG/1.1/DTD/svg11.dtd">
<!-- Generated by graphviz version 2.47.0 (20210316.0004)
 -->
<!-- Title: dependencies Pages: 1 -->
<svg width="504pt" height="284pt"
 viewBox="0.00 0.00 504.00 284.00" xmlns="http://www.w3.org/2000/svg" xmlns:xlink="http://www.w3.org/1999/xlink">
<g id="graph0" class="graph" transform="scale(1 1) rotate(0) translate(4 280)">
<title>dependencies</title>
<polygon fill="white" stroke="transparent" points="-4,4 -4,-280 500,-280 500,4 -4,4"/>
<text text-anchor="start" x="227.01" y="-42.4" font-family="Times-12" font-weight="bold" font-size="14.00">Legend</text>
<polygon fill="#ffffb3" stroke="transparent" points="14,-10 14,-30 34,-30 34,-10 14,-10"/>
<text text-anchor="start" x="37.63" y="-15.4" font-family="Times-12" font-size="14.00"> &#160;Declarations</text>
<polygon fill="#8dd3c7" stroke="transparent" points="127,-10 127,-30 147,-30 147,-10 127,-10"/>
<text text-anchor="start" x="150.73" y="-15.4" font-family="Times-12" font-size="14.00"> &#160;Module</text>
<polygon fill="#80b1d3" stroke="transparent" points="213,-10 213,-30 233,-30 233,-10 213,-10"/>
<text text-anchor="start" x="236.78" y="-15.4" font-family="Times-12" font-size="14.00"> &#160;Bootstrap</text>
<polygon fill="#fdb462" stroke="transparent" points="310,-10 310,-30 330,-30 330,-10 310,-10"/>
<text text-anchor="start" x="333.67" y="-15.4" font-family="Times-12" font-size="14.00"> &#160;Providers</text>
<polygon fill="#fb8072" stroke="transparent" points="406,-10 406,-30 426,-30 426,-10 406,-10"/>
<text text-anchor="start" x="429.73" y="-15.4" font-family="Times-12" font-size="14.00"> &#160;Exports</text>
<g id="clust1" class="cluster">
<title>cluster_CoreModule</title>
<polygon fill="none" stroke="black" stroke-dasharray="1,5" points="64,-70 64,-268 432,-268 432,-70 64,-70"/>
</g>
<g id="clust3" class="cluster">
<title>cluster_CoreModule_imports</title>
<polygon fill="none" stroke="black" points="72,-78 72,-130 424,-130 424,-78 72,-78"/>
</g>
<g id="clust4" class="cluster">
<title>cluster_CoreModule_exports</title>
<polygon fill="none" stroke="black" points="193,-208 193,-260 313,-260 313,-208 193,-208"/>
</g>
<!-- HeaderModule -->
<g id="node1" class="node">
<title>HeaderModule</title>
<polygon fill="#8dd3c7" stroke="black" points="415.96,-122 412.96,-126 391.96,-126 388.96,-122 316.04,-122 316.04,-86 415.96,-86 415.96,-122"/>
<text text-anchor="middle" x="366" y="-99.8" font-family="Times,serif" font-size="14.00">HeaderModule</text>
</g>
<!-- CoreModule -->
<g id="node4" class="node">
<title>CoreModule</title>
<polygon fill="#8dd3c7" stroke="black" points="296.26,-187 293.26,-191 272.26,-191 269.26,-187 209.74,-187 209.74,-151 296.26,-151 296.26,-187"/>
<text text-anchor="middle" x="253" y="-164.8" font-family="Times,serif" font-size="14.00">CoreModule</text>
</g>
<!-- HeaderModule&#45;&gt;CoreModule -->
<g id="edge1" class="edge">
<title>HeaderModule&#45;&gt;CoreModule</title>
<path fill="none" stroke="black" d="M366,-122.11C366,-141.34 366,-169 366,-169 366,-169 306.37,-169 306.37,-169"/>
<polygon fill="black" stroke="black" points="306.37,-165.5 296.37,-169 306.37,-172.5 306.37,-165.5"/>
</g>
<!-- StoreModule -->
<g id="node2" class="node">
<title>StoreModule</title>
<polygon fill="#8dd3c7" stroke="black" points="297.6,-122 294.6,-126 273.6,-126 270.6,-122 208.4,-122 208.4,-86 297.6,-86 297.6,-122"/>
<text text-anchor="middle" x="253" y="-99.8" font-family="Times,serif" font-size="14.00">StoreModule</text>
</g>
<!-- StoreModule&#45;&gt;CoreModule -->
<g id="edge2" class="edge">
<title>StoreModule&#45;&gt;CoreModule</title>
<path fill="none" stroke="black" d="M253,-122.11C253,-122.11 253,-140.99 253,-140.99"/>
<polygon fill="black" stroke="black" points="249.5,-140.99 253,-150.99 256.5,-140.99 249.5,-140.99"/>
</g>
<!-- ThemingModule -->
<g id="node3" class="node">
<title>ThemingModule</title>
<polygon fill="#8dd3c7" stroke="black" points="190.1,-122 187.1,-126 166.1,-126 163.1,-122 79.9,-122 79.9,-86 190.1,-86 190.1,-122"/>
<text text-anchor="middle" x="135" y="-99.8" font-family="Times,serif" font-size="14.00">ThemingModule</text>
</g>
<!-- ThemingModule&#45;&gt;CoreModule -->
<g id="edge3" class="edge">
<title>ThemingModule&#45;&gt;CoreModule</title>
<path fill="none" stroke="black" d="M135,-122.11C135,-141.34 135,-169 135,-169 135,-169 199.73,-169 199.73,-169"/>
<polygon fill="black" stroke="black" points="199.73,-172.5 209.73,-169 199.73,-165.5 199.73,-172.5"/>
</g>
<!-- HeaderModule  -->
<g id="node5" class="node">
<title>HeaderModule </title>
<polygon fill="#fb8072" stroke="black" points="304.96,-252 201.04,-252 201.04,-216 304.96,-216 304.96,-252"/>
<text text-anchor="middle" x="253" y="-229.8" font-family="Times,serif" font-size="14.00">HeaderModule </text>
</g>
<!-- CoreModule&#45;&gt;HeaderModule  -->
<g id="edge4" class="edge">
<title>CoreModule&#45;&gt;HeaderModule </title>
<path fill="none" stroke="black" stroke-dasharray="5,2" d="M253,-187.11C253,-187.11 253,-205.99 253,-205.99"/>
<polygon fill="black" stroke="black" points="249.5,-205.99 253,-215.99 256.5,-205.99 249.5,-205.99"/>
</g>
</g>
</svg>
