<?xml version="1.0" encoding="UTF-8"?>
<svg id="larynx" xmlns="http://www.w3.org/2000/svg" viewBox="0 0 30 30">
  <defs>
    <style>
      .cls-1-larynx, .cls-2-larynx, .cls-3-larynx {
        stroke-miterlimit: 10;
        stroke-width: .5px;
      }

      .cls-1-larynx, .cls-4-larynx {
        fill: #fff;
        stroke: currentColor;
      }

      .cls-2-larynx {
        stroke: currentColor;
      }

      .cls-4-larynx {
        stroke-linecap: round;
        stroke-linejoin: round;
        stroke-width: .75px;
      }

      .cls-3-larynx {
        stroke: #fff;
      }
    </style>
  </defs>
  <path class="cls-4-larynx" d="m18.41,27s.22-4.95-.19-5.28c-1.32-2.45-1.49-4.1-2.74-5-.49-.36-1.16.12-1.16.12,0,0-1.31.66-2.16,4.79-.63,1.24-.17,5.37-.17,5.37,0,1.67,6.42,1.3,6.42,0Z"/>
  <path class="cls-1-larynx" d="m15.32,23.57c-1.45,0-2.7-.57-3.39-1.4-.34.41-.55.89-.55,1.4,0,1.55,1.76,2.81,3.93,2.81s3.93-1.26,3.93-2.81c0-.51-.21-.99-.55-1.4-.68.84-1.93,1.4-3.39,1.4Z"/>
  <g>
    <path class="cls-2-larynx" d="m14.87,9.72c.42-.02.83-.07,1.11-.07.55,0,2.19-1.83,2.19-1.83,2.28-.82,3.84,1.74,4.2,2.47s-1.1,5.39-1.73,6.3-1.29-.27-2.48-.46-2.68.55-2.92.82-.57.4-.75,0-1.74-1.01-2.92-.82-1.85,1.37-2.48.46-2.09-5.57-1.73-6.3,1.92-3.29,4.2-2.47c0,0,1.64,1.83,2.19,1.83.27,0,.69.05,1.11.07Z"/>
    <path class="cls-3-larynx" d="m14.87,19.84c2.33-.48,2.33-1.87,2.28-2.38s-.82-.82-.82-.82c0,0,1.71-.82,2.1-.09s.22.94.59,1.1,1.1.41,1.1.82c0,.41-.43,2.47-1.46,2.88-.43.17-.86-.04-1.41.28s-.42.73-2.39.73c-1.96,0-1.84-.41-2.39-.73s-.98-.11-1.41-.28c-1.04-.41-1.46-2.47-1.46-2.88s.74-.67,1.1-.82.19-.37.59-1.1,2.1.09,2.1.09c0,0-.78.32-.82.82s-.05,1.9,2.28,2.38Z"/>
    <path class="cls-2-larynx" d="m7.31,10.15c0-.87.15-1.85,0-2.49-.21-.88-.29-2.17,0-2.53s.52-.3.7,0-.09,1.09,0,1.42c.14.53.27,1.55.35,1.96.08.47-1.04,4.91-1.04,1.64Z"/>
    <path class="cls-3-larynx" d="m14.87,9.73s.86.07,1.41-.23c.83-.45,2.15-2.28,2.33-3.65.14-1.02-.37-2.42-1.18-3.33s-1.63-1.1-2.4-1.1-1.96.23-2.73,1.1c-.81.91-1.31,2.32-1.18,3.33.18,1.37,1.5,3.2,2.33,3.65.55.3,1.41.23,1.41.23Z"/>
    <path class="cls-2-larynx" d="m22.63,10.34c.07-.46-.34-1.85-.19-2.48.21-.88.29-2.17,0-2.53s-.69-.25-.7,0,.09,1.09,0,1.42c-.14.53-.27,1.55-.35,1.96-.08.47.66,5.61,1.23,1.64Z"/>
  </g>
</svg>