<svg xmlns="http://www.w3.org/2000/svg" viewBox="0 0 30 30"><defs><style>.cls-1{fill:none;}</style></defs><g id="ovaries"><path d="M24.84,8.08c-2.08,0-3.68.44-5.49.39S16.71,7.1,15,7.37c-1.71-.27-2.58,1-4.35,1.1s-3.41-.39-5.49-.39c-2.72,0-4,2-4,3.11s.37,3,3.38,3.73l.44.08h0a1.28,1.28,0,0,1-.51-1,1.24,1.24,0,0,1,.36-.86A1.78,1.78,0,0,1,3.33,11.5c-.07-1.23,1.31-1.66,1.9-1.67a18.15,18.15,0,0,1,4.43.64c1.16.45,3.65,5.15,3.68,7.2s.1,6.23.1,6.23h3.12s.06-4.18.1-6.23,2.52-6.75,3.68-7.2a18.15,18.15,0,0,1,4.43-.64c.59,0,2,.44,1.9,1.67a1.79,1.79,0,0,1-1.44,1.64,1.25,1.25,0,0,1,.37.86,1.3,1.3,0,0,1-.52,1l.43-.08c3-.72,3.38-2.68,3.38-3.73S27.56,8.08,24.84,8.08Z"/><path d="M10,13.09a5.78,5.78,0,0,1-.85.19c-.32,0-.42-.09-.42-.09h0A2.23,2.23,0,0,0,7,12.5c-1.1,0-2,.67-2,1.5s.9,1.5,2,1.5a1.84,1.84,0,0,0,2-1.38v0s0-.2.29-.35a3.86,3.86,0,0,1,.79-.24Z"/><path d="M20.11,13.09a5.7,5.7,0,0,0,.86.19c.32,0,.41-.09.41-.09h0a2.19,2.19,0,0,1,1.69-.7c1.1,0,2,.67,2,1.5s-.9,1.5-2,1.5a1.86,1.86,0,0,1-2-1.38v0s0-.2-.3-.35a3.67,3.67,0,0,0-.78-.24Z"/></g></svg>