<?xml version="1.0" encoding="UTF-8" standalone="no"?>
<!DOCTYPE svg PUBLIC "-//W3C//DTD SVG 1.1//EN"
 "http://www.w3.org/Graphics/SVG/1.1/DTD/svg11.dtd">
<!-- Generated by graphviz version 2.47.0 (20210316.0004)
 -->
<!-- Title: dependencies Pages: 1 -->
<svg width="570pt" height="284pt"
 viewBox="0.00 0.00 570.00 284.00" xmlns="http://www.w3.org/2000/svg" xmlns:xlink="http://www.w3.org/1999/xlink">
<g id="graph0" class="graph" transform="scale(1 1) rotate(0) translate(4 280)">
<title>dependencies</title>
<polygon fill="white" stroke="transparent" points="-4,4 -4,-280 566,-280 566,4 -4,4"/>
<text text-anchor="start" x="260.01" y="-42.4" font-family="Times-12" font-weight="bold" font-size="14.00">Legend</text>
<polygon fill="#ffffb3" stroke="transparent" points="47,-10 47,-30 67,-30 67,-10 47,-10"/>
<text text-anchor="start" x="70.63" y="-15.4" font-family="Times-12" font-size="14.00"> &#160;Declarations</text>
<polygon fill="#8dd3c7" stroke="transparent" points="160,-10 160,-30 180,-30 180,-10 160,-10"/>
<text text-anchor="start" x="183.73" y="-15.4" font-family="Times-12" font-size="14.00"> &#160;Module</text>
<polygon fill="#80b1d3" stroke="transparent" points="246,-10 246,-30 266,-30 266,-10 246,-10"/>
<text text-anchor="start" x="269.78" y="-15.4" font-family="Times-12" font-size="14.00"> &#160;Bootstrap</text>
<polygon fill="#fdb462" stroke="transparent" points="343,-10 343,-30 363,-30 363,-10 343,-10"/>
<text text-anchor="start" x="366.67" y="-15.4" font-family="Times-12" font-size="14.00"> &#160;Providers</text>
<polygon fill="#fb8072" stroke="transparent" points="439,-10 439,-30 459,-30 459,-10 439,-10"/>
<text text-anchor="start" x="462.73" y="-15.4" font-family="Times-12" font-size="14.00"> &#160;Exports</text>
<g id="clust1" class="cluster">
<title>cluster_DonorCardModule</title>
<polygon fill="none" stroke="black" stroke-dasharray="1,5" points="8,-70 8,-268 554,-268 554,-70 8,-70"/>
</g>
<g id="clust2" class="cluster">
<title>cluster_DonorCardModule_declarations</title>
<polygon fill="none" stroke="black" points="386,-78 386,-130 546,-130 546,-78 386,-78"/>
</g>
<g id="clust5" class="cluster">
<title>cluster_DonorCardModule_exports</title>
<polygon fill="none" stroke="black" points="203,-208 203,-260 367,-260 367,-208 203,-208"/>
</g>
<g id="clust4" class="cluster">
<title>cluster_DonorCardModule_imports</title>
<polygon fill="none" stroke="black" points="16,-78 16,-130 378,-130 378,-78 16,-78"/>
</g>
<!-- DonorCardComponent -->
<g id="node1" class="node">
<title>DonorCardComponent</title>
<polygon fill="#ffffb3" stroke="black" points="538.31,-122 393.69,-122 393.69,-86 538.31,-86 538.31,-122"/>
<text text-anchor="middle" x="466" y="-99.8" font-family="Times,serif" font-size="14.00">DonorCardComponent</text>
</g>
<!-- DonorCardModule -->
<g id="node2" class="node">
<title>DonorCardModule</title>
<polygon fill="#8dd3c7" stroke="black" points="346.03,-187 343.03,-191 322.03,-191 319.03,-187 223.97,-187 223.97,-151 346.03,-151 346.03,-187"/>
<text text-anchor="middle" x="285" y="-164.8" font-family="Times,serif" font-size="14.00">DonorCardModule</text>
</g>
<!-- DonorCardComponent&#45;&gt;DonorCardModule -->
<g id="edge1" class="edge">
<title>DonorCardComponent&#45;&gt;DonorCardModule</title>
<path fill="none" stroke="black" d="M466,-122.11C466,-141.34 466,-169 466,-169 466,-169 356.28,-169 356.28,-169"/>
<polygon fill="black" stroke="black" points="356.28,-165.5 346.28,-169 356.28,-172.5 356.28,-165.5"/>
</g>
<!-- DonorCardComponent  -->
<g id="node5" class="node">
<title>DonorCardComponent </title>
<polygon fill="#fb8072" stroke="black" points="358.81,-252 211.19,-252 211.19,-216 358.81,-216 358.81,-252"/>
<text text-anchor="middle" x="285" y="-229.8" font-family="Times,serif" font-size="14.00">DonorCardComponent </text>
</g>
<!-- DonorCardModule&#45;&gt;DonorCardComponent  -->
<g id="edge4" class="edge">
<title>DonorCardModule&#45;&gt;DonorCardComponent </title>
<path fill="none" stroke="black" stroke-dasharray="5,2" d="M285,-187.11C285,-187.11 285,-205.99 285,-205.99"/>
<polygon fill="black" stroke="black" points="281.5,-205.99 285,-215.99 288.5,-205.99 281.5,-205.99"/>
</g>
<!-- ThumbnailCarouselModule -->
<g id="node3" class="node">
<title>ThumbnailCarouselModule</title>
<polygon fill="#8dd3c7" stroke="black" points="370.25,-122 367.25,-126 346.25,-126 343.25,-122 199.75,-122 199.75,-86 370.25,-86 370.25,-122"/>
<text text-anchor="middle" x="285" y="-99.8" font-family="Times,serif" font-size="14.00">ThumbnailCarouselModule</text>
</g>
<!-- ThumbnailCarouselModule&#45;&gt;DonorCardModule -->
<g id="edge2" class="edge">
<title>ThumbnailCarouselModule&#45;&gt;DonorCardModule</title>
<path fill="none" stroke="black" d="M285,-122.11C285,-122.11 285,-140.99 285,-140.99"/>
<polygon fill="black" stroke="black" points="281.5,-140.99 285,-150.99 288.5,-140.99 281.5,-140.99"/>
</g>
<!-- TissueSectionVisModule -->
<g id="node4" class="node">
<title>TissueSectionVisModule</title>
<polygon fill="#8dd3c7" stroke="black" points="181.53,-122 178.53,-126 157.53,-126 154.53,-122 24.47,-122 24.47,-86 181.53,-86 181.53,-122"/>
<text text-anchor="middle" x="103" y="-99.8" font-family="Times,serif" font-size="14.00">TissueSectionVisModule</text>
</g>
<!-- TissueSectionVisModule&#45;&gt;DonorCardModule -->
<g id="edge3" class="edge">
<title>TissueSectionVisModule&#45;&gt;DonorCardModule</title>
<path fill="none" stroke="black" d="M103,-122.11C103,-141.34 103,-169 103,-169 103,-169 213.89,-169 213.89,-169"/>
<polygon fill="black" stroke="black" points="213.89,-172.5 223.89,-169 213.89,-165.5 213.89,-172.5"/>
</g>
</g>
</svg>
