<?xml version="1.0" encoding="UTF-8" standalone="no"?>
<!DOCTYPE svg PUBLIC "-//W3C//DTD SVG 1.1//EN"
 "http://www.w3.org/Graphics/SVG/1.1/DTD/svg11.dtd">
<!-- Generated by graphviz version 2.47.3 (20210619.1520)
 -->
<!-- Title: dependencies Pages: 1 -->
<svg width="570pt" height="247pt"
 viewBox="0.00 0.00 570.00 246.80" xmlns="http://www.w3.org/2000/svg" xmlns:xlink="http://www.w3.org/1999/xlink">
<g id="graph0" class="graph" transform="scale(1 1) rotate(0) translate(4 242.8)">
<title>dependencies</title>
<polygon fill="white" stroke="transparent" points="-4,4 -4,-242.8 566,-242.8 566,4 -4,4"/>
<text text-anchor="middle" x="281" y="-8.2" font-family="sans-serif" font-size="14.00">dependencies</text>
<g id="clust1" class="cluster">
<title>cluster_DonorCardModule</title>
<polygon fill="none" stroke="black" stroke-dasharray="1,5" points="8,-32.8 8,-230.8 554,-230.8 554,-32.8 8,-32.8"/>
</g>
<g id="clust4" class="cluster">
<title>cluster_DonorCardModule_imports</title>
<polygon fill="none" stroke="black" points="184,-40.8 184,-92.8 546,-92.8 546,-40.8 184,-40.8"/>
</g>
<g id="clust5" class="cluster">
<title>cluster_DonorCardModule_exports</title>
<polygon fill="none" stroke="black" points="189,-170.8 189,-222.8 353,-222.8 353,-170.8 189,-170.8"/>
</g>
<g id="clust2" class="cluster">
<title>cluster_DonorCardModule_declarations</title>
<polygon fill="none" stroke="black" points="16,-40.8 16,-92.8 176,-92.8 176,-40.8 16,-40.8"/>
</g>
<!-- DonorCardComponent -->
<g id="node1" class="node">
<title>DonorCardComponent</title>
<polygon fill="#ffffb3" stroke="black" points="168.31,-84.8 23.69,-84.8 23.69,-48.8 168.31,-48.8 168.31,-84.8"/>
<text text-anchor="middle" x="96" y="-62.6" font-family="Times,serif" font-size="14.00">DonorCardComponent</text>
</g>
<!-- DonorCardModule -->
<g id="node2" class="node">
<title>DonorCardModule</title>
<polygon fill="#8dd3c7" stroke="black" points="332.03,-149.8 329.03,-153.8 308.03,-153.8 305.03,-149.8 209.97,-149.8 209.97,-113.8 332.03,-113.8 332.03,-149.8"/>
<text text-anchor="middle" x="271" y="-127.6" font-family="Times,serif" font-size="14.00">DonorCardModule</text>
</g>
<!-- DonorCardComponent&#45;&gt;DonorCardModule -->
<g id="edge1" class="edge">
<title>DonorCardComponent&#45;&gt;DonorCardModule</title>
<path fill="none" stroke="black" d="M96,-84.91C96,-104.14 96,-131.8 96,-131.8 96,-131.8 199.79,-131.8 199.79,-131.8"/>
<polygon fill="black" stroke="black" points="199.79,-135.3 209.79,-131.8 199.79,-128.3 199.79,-135.3"/>
</g>
<!-- DonorCardComponent  -->
<g id="node5" class="node">
<title>DonorCardComponent </title>
<polygon fill="#fb8072" stroke="black" points="344.81,-214.8 197.19,-214.8 197.19,-178.8 344.81,-178.8 344.81,-214.8"/>
<text text-anchor="middle" x="271" y="-192.6" font-family="Times,serif" font-size="14.00">DonorCardComponent </text>
</g>
<!-- DonorCardModule&#45;&gt;DonorCardComponent  -->
<g id="edge4" class="edge">
<title>DonorCardModule&#45;&gt;DonorCardComponent </title>
<path fill="none" stroke="black" stroke-dasharray="5,2" d="M271,-149.91C271,-149.91 271,-168.79 271,-168.79"/>
<polygon fill="black" stroke="black" points="267.5,-168.79 271,-178.79 274.5,-168.79 267.5,-168.79"/>
</g>
<!-- ThumbnailCarouselModule -->
<g id="node3" class="node">
<title>ThumbnailCarouselModule</title>
<polygon fill="#8dd3c7" stroke="black" points="538.25,-84.8 535.25,-88.8 514.25,-88.8 511.25,-84.8 367.75,-84.8 367.75,-48.8 538.25,-48.8 538.25,-84.8"/>
<text text-anchor="middle" x="453" y="-62.6" font-family="Times,serif" font-size="14.00">ThumbnailCarouselModule</text>
</g>
<!-- ThumbnailCarouselModule&#45;&gt;DonorCardModule -->
<g id="edge2" class="edge">
<title>ThumbnailCarouselModule&#45;&gt;DonorCardModule</title>
<path fill="none" stroke="black" d="M453,-84.91C453,-104.14 453,-131.8 453,-131.8 453,-131.8 342.11,-131.8 342.11,-131.8"/>
<polygon fill="black" stroke="black" points="342.11,-128.3 332.11,-131.8 342.11,-135.3 342.11,-128.3"/>
</g>
<!-- TissueSectionVisModule -->
<g id="node4" class="node">
<title>TissueSectionVisModule</title>
<polygon fill="#8dd3c7" stroke="black" points="349.53,-84.8 346.53,-88.8 325.53,-88.8 322.53,-84.8 192.47,-84.8 192.47,-48.8 349.53,-48.8 349.53,-84.8"/>
<text text-anchor="middle" x="271" y="-62.6" font-family="Times,serif" font-size="14.00">TissueSectionVisModule</text>
</g>
<!-- TissueSectionVisModule&#45;&gt;DonorCardModule -->
<g id="edge3" class="edge">
<title>TissueSectionVisModule&#45;&gt;DonorCardModule</title>
<path fill="none" stroke="black" d="M271,-84.91C271,-84.91 271,-103.79 271,-103.79"/>
<polygon fill="black" stroke="black" points="267.5,-103.79 271,-113.79 274.5,-103.79 267.5,-103.79"/>
</g>
</g>
</svg>
