<?xml version="1.0" encoding="UTF-8" standalone="no"?>
<!DOCTYPE svg PUBLIC "-//W3C//DTD SVG 1.1//EN"
 "http://www.w3.org/Graphics/SVG/1.1/DTD/svg11.dtd">
<!-- Generated by graphviz version 2.47.3 (20210619.1520)
 -->
<!-- Title: dependencies Pages: 1 -->
<svg width="570pt" height="247pt"
 viewBox="0.00 0.00 570.00 246.80" xmlns="http://www.w3.org/2000/svg" xmlns:xlink="http://www.w3.org/1999/xlink">
<g id="graph0" class="graph" transform="scale(1 1) rotate(0) translate(4 242.8)">
<title>dependencies</title>
<polygon fill="white" stroke="transparent" points="-4,4 -4,-242.8 566,-242.8 566,4 -4,4"/>
<text text-anchor="middle" x="281" y="-8.2" font-family="sans-serif" font-size="14.00">dependencies</text>
<g id="clust1" class="cluster">
<title>cluster_DonorCardModule</title>
<polygon fill="none" stroke="black" stroke-dasharray="1,5" points="8,-32.8 8,-230.8 554,-230.8 554,-32.8 8,-32.8"/>
</g>
<g id="clust2" class="cluster">
<title>cluster_DonorCardModule_declarations</title>
<polygon fill="none" stroke="black" points="386,-40.8 386,-92.8 546,-92.8 546,-40.8 386,-40.8"/>
</g>
<g id="clust5" class="cluster">
<title>cluster_DonorCardModule_exports</title>
<polygon fill="none" stroke="black" points="203,-170.8 203,-222.8 367,-222.8 367,-170.8 203,-170.8"/>
</g>
<g id="clust4" class="cluster">
<title>cluster_DonorCardModule_imports</title>
<polygon fill="none" stroke="black" points="16,-40.8 16,-92.8 378,-92.8 378,-40.8 16,-40.8"/>
</g>
<!-- DonorCardComponent -->
<g id="node1" class="node">
<title>DonorCardComponent</title>
<polygon fill="#ffffb3" stroke="black" points="538.31,-84.8 393.69,-84.8 393.69,-48.8 538.31,-48.8 538.31,-84.8"/>
<text text-anchor="middle" x="466" y="-62.6" font-family="Times,serif" font-size="14.00">DonorCardComponent</text>
</g>
<!-- DonorCardModule -->
<g id="node2" class="node">
<title>DonorCardModule</title>
<polygon fill="#8dd3c7" stroke="black" points="346.03,-149.8 343.03,-153.8 322.03,-153.8 319.03,-149.8 223.97,-149.8 223.97,-113.8 346.03,-113.8 346.03,-149.8"/>
<text text-anchor="middle" x="285" y="-127.6" font-family="Times,serif" font-size="14.00">DonorCardModule</text>
</g>
<!-- DonorCardComponent&#45;&gt;DonorCardModule -->
<g id="edge1" class="edge">
<title>DonorCardComponent&#45;&gt;DonorCardModule</title>
<path fill="none" stroke="black" d="M466,-84.91C466,-104.14 466,-131.8 466,-131.8 466,-131.8 356.28,-131.8 356.28,-131.8"/>
<polygon fill="black" stroke="black" points="356.28,-128.3 346.28,-131.8 356.28,-135.3 356.28,-128.3"/>
</g>
<!-- DonorCardComponent  -->
<g id="node5" class="node">
<title>DonorCardComponent </title>
<polygon fill="#fb8072" stroke="black" points="358.81,-214.8 211.19,-214.8 211.19,-178.8 358.81,-178.8 358.81,-214.8"/>
<text text-anchor="middle" x="285" y="-192.6" font-family="Times,serif" font-size="14.00">DonorCardComponent </text>
</g>
<!-- DonorCardModule&#45;&gt;DonorCardComponent  -->
<g id="edge4" class="edge">
<title>DonorCardModule&#45;&gt;DonorCardComponent </title>
<path fill="none" stroke="black" stroke-dasharray="5,2" d="M285,-149.91C285,-149.91 285,-168.79 285,-168.79"/>
<polygon fill="black" stroke="black" points="281.5,-168.79 285,-178.79 288.5,-168.79 281.5,-168.79"/>
</g>
<!-- ThumbnailCarouselModule -->
<g id="node3" class="node">
<title>ThumbnailCarouselModule</title>
<polygon fill="#8dd3c7" stroke="black" points="370.25,-84.8 367.25,-88.8 346.25,-88.8 343.25,-84.8 199.75,-84.8 199.75,-48.8 370.25,-48.8 370.25,-84.8"/>
<text text-anchor="middle" x="285" y="-62.6" font-family="Times,serif" font-size="14.00">ThumbnailCarouselModule</text>
</g>
<!-- ThumbnailCarouselModule&#45;&gt;DonorCardModule -->
<g id="edge2" class="edge">
<title>ThumbnailCarouselModule&#45;&gt;DonorCardModule</title>
<path fill="none" stroke="black" d="M285,-84.91C285,-84.91 285,-103.79 285,-103.79"/>
<polygon fill="black" stroke="black" points="281.5,-103.79 285,-113.79 288.5,-103.79 281.5,-103.79"/>
</g>
<!-- TissueSectionVisModule -->
<g id="node4" class="node">
<title>TissueSectionVisModule</title>
<polygon fill="#8dd3c7" stroke="black" points="181.53,-84.8 178.53,-88.8 157.53,-88.8 154.53,-84.8 24.47,-84.8 24.47,-48.8 181.53,-48.8 181.53,-84.8"/>
<text text-anchor="middle" x="103" y="-62.6" font-family="Times,serif" font-size="14.00">TissueSectionVisModule</text>
</g>
<!-- TissueSectionVisModule&#45;&gt;DonorCardModule -->
<g id="edge3" class="edge">
<title>TissueSectionVisModule&#45;&gt;DonorCardModule</title>
<path fill="none" stroke="black" d="M103,-84.91C103,-104.14 103,-131.8 103,-131.8 103,-131.8 213.89,-131.8 213.89,-131.8"/>
<polygon fill="black" stroke="black" points="213.89,-135.3 223.89,-131.8 213.89,-128.3 213.89,-135.3"/>
</g>
</g>
</svg>
