<?xml version="1.0" encoding="UTF-8" standalone="no"?>
<!DOCTYPE svg PUBLIC "-//W3C//DTD SVG 1.1//EN"
 "http://www.w3.org/Graphics/SVG/1.1/DTD/svg11.dtd">
<!-- Generated by graphviz version 2.47.3 (20210619.1520)
 -->
<!-- Title: dependencies Pages: 1 -->
<svg width="256pt" height="247pt"
 viewBox="0.00 0.00 256.00 246.80" xmlns="http://www.w3.org/2000/svg" xmlns:xlink="http://www.w3.org/1999/xlink">
<g id="graph0" class="graph" transform="scale(1 1) rotate(0) translate(4 242.8)">
<title>dependencies</title>
<polygon fill="white" stroke="transparent" points="-4,4 -4,-242.8 252,-242.8 252,4 -4,4"/>
<text text-anchor="middle" x="124" y="-8.2" font-family="sans-serif" font-size="14.00">dependencies</text>
<g id="clust1" class="cluster">
<title>cluster_SpatialSearchConfigModule</title>
<polygon fill="none" stroke="black" stroke-dasharray="1,5" points="8,-32.8 8,-230.8 240,-230.8 240,-32.8 8,-32.8"/>
</g>
<g id="clust5" class="cluster">
<title>cluster_SpatialSearchConfigModule_exports</title>
<polygon fill="none" stroke="black" points="16,-170.8 16,-222.8 232,-222.8 232,-170.8 16,-170.8"/>
</g>
<g id="clust2" class="cluster">
<title>cluster_SpatialSearchConfigModule_declarations</title>
<polygon fill="none" stroke="black" points="17,-40.8 17,-92.8 231,-92.8 231,-40.8 17,-40.8"/>
</g>
<!-- SpatialSearchConfigComponent -->
<g id="node1" class="node">
<title>SpatialSearchConfigComponent</title>
<polygon fill="#ffffb3" stroke="black" points="222.69,-84.8 25.31,-84.8 25.31,-48.8 222.69,-48.8 222.69,-84.8"/>
<text text-anchor="middle" x="124" y="-62.6" font-family="Times,serif" font-size="14.00">SpatialSearchConfigComponent</text>
</g>
<!-- SpatialSearchConfigModule -->
<g id="node2" class="node">
<title>SpatialSearchConfigModule</title>
<polygon fill="#8dd3c7" stroke="black" points="211.91,-149.8 208.91,-153.8 187.91,-153.8 184.91,-149.8 36.09,-149.8 36.09,-113.8 211.91,-113.8 211.91,-149.8"/>
<text text-anchor="middle" x="124" y="-127.6" font-family="Times,serif" font-size="14.00">SpatialSearchConfigModule</text>
</g>
<!-- SpatialSearchConfigComponent&#45;&gt;SpatialSearchConfigModule -->
<g id="edge1" class="edge">
<title>SpatialSearchConfigComponent&#45;&gt;SpatialSearchConfigModule</title>
<path fill="none" stroke="black" d="M124,-84.91C124,-84.91 124,-103.79 124,-103.79"/>
<polygon fill="black" stroke="black" points="120.5,-103.79 124,-113.79 127.5,-103.79 120.5,-103.79"/>
</g>
<!-- SpatialSearchConfigComponent  -->
<g id="node3" class="node">
<title>SpatialSearchConfigComponent </title>
<polygon fill="#fb8072" stroke="black" points="224.19,-214.8 23.81,-214.8 23.81,-178.8 224.19,-178.8 224.19,-214.8"/>
<text text-anchor="middle" x="124" y="-192.6" font-family="Times,serif" font-size="14.00">SpatialSearchConfigComponent </text>
</g>
<!-- SpatialSearchConfigModule&#45;&gt;SpatialSearchConfigComponent  -->
<g id="edge2" class="edge">
<title>SpatialSearchConfigModule&#45;&gt;SpatialSearchConfigComponent </title>
<path fill="none" stroke="black" stroke-dasharray="5,2" d="M124,-149.91C124,-149.91 124,-168.79 124,-168.79"/>
<polygon fill="black" stroke="black" points="120.5,-168.79 124,-178.79 127.5,-168.79 120.5,-168.79"/>
</g>
</g>
</svg>
