<?xml version="1.0" encoding="UTF-8" standalone="no"?>
<!DOCTYPE svg PUBLIC "-//W3C//DTD SVG 1.1//EN"
 "http://www.w3.org/Graphics/SVG/1.1/DTD/svg11.dtd">
<!-- Generated by graphviz version 2.47.0 (20210316.0004)
 -->
<!-- Title: dependencies Pages: 1 -->
<svg width="504pt" height="284pt"
 viewBox="0.00 0.00 504.00 284.00" xmlns="http://www.w3.org/2000/svg" xmlns:xlink="http://www.w3.org/1999/xlink">
<g id="graph0" class="graph" transform="scale(1 1) rotate(0) translate(4 280)">
<title>dependencies</title>
<polygon fill="white" stroke="transparent" points="-4,4 -4,-280 500,-280 500,4 -4,4"/>
<text text-anchor="start" x="227.01" y="-42.4" font-family="Times-12" font-weight="bold" font-size="14.00">Legend</text>
<polygon fill="#ffffb3" stroke="transparent" points="14,-10 14,-30 34,-30 34,-10 14,-10"/>
<text text-anchor="start" x="37.63" y="-15.4" font-family="Times-12" font-size="14.00"> &#160;Declarations</text>
<polygon fill="#8dd3c7" stroke="transparent" points="127,-10 127,-30 147,-30 147,-10 127,-10"/>
<text text-anchor="start" x="150.73" y="-15.4" font-family="Times-12" font-size="14.00"> &#160;Module</text>
<polygon fill="#80b1d3" stroke="transparent" points="213,-10 213,-30 233,-30 233,-10 213,-10"/>
<text text-anchor="start" x="236.78" y="-15.4" font-family="Times-12" font-size="14.00"> &#160;Bootstrap</text>
<polygon fill="#fdb462" stroke="transparent" points="310,-10 310,-30 330,-30 330,-10 310,-10"/>
<text text-anchor="start" x="333.67" y="-15.4" font-family="Times-12" font-size="14.00"> &#160;Providers</text>
<polygon fill="#fb8072" stroke="transparent" points="406,-10 406,-30 426,-30 426,-10 406,-10"/>
<text text-anchor="start" x="429.73" y="-15.4" font-family="Times-12" font-size="14.00"> &#160;Exports</text>
<g id="clust1" class="cluster">
<title>cluster_SpatialSearchConfigModule</title>
<polygon fill="none" stroke="black" stroke-dasharray="1,5" points="132,-70 132,-268 364,-268 364,-70 132,-70"/>
</g>
<g id="clust2" class="cluster">
<title>cluster_SpatialSearchConfigModule_declarations</title>
<polygon fill="none" stroke="black" points="141,-78 141,-130 355,-130 355,-78 141,-78"/>
</g>
<g id="clust5" class="cluster">
<title>cluster_SpatialSearchConfigModule_exports</title>
<polygon fill="none" stroke="black" points="140,-208 140,-260 356,-260 356,-208 140,-208"/>
</g>
<!-- SpatialSearchConfigComponent -->
<g id="node1" class="node">
<title>SpatialSearchConfigComponent</title>
<polygon fill="#ffffb3" stroke="black" points="346.69,-122 149.31,-122 149.31,-86 346.69,-86 346.69,-122"/>
<text text-anchor="middle" x="248" y="-99.8" font-family="Times,serif" font-size="14.00">SpatialSearchConfigComponent</text>
</g>
<!-- SpatialSearchConfigModule -->
<g id="node2" class="node">
<title>SpatialSearchConfigModule</title>
<polygon fill="#8dd3c7" stroke="black" points="335.91,-187 332.91,-191 311.91,-191 308.91,-187 160.09,-187 160.09,-151 335.91,-151 335.91,-187"/>
<text text-anchor="middle" x="248" y="-164.8" font-family="Times,serif" font-size="14.00">SpatialSearchConfigModule</text>
</g>
<!-- SpatialSearchConfigComponent&#45;&gt;SpatialSearchConfigModule -->
<g id="edge1" class="edge">
<title>SpatialSearchConfigComponent&#45;&gt;SpatialSearchConfigModule</title>
<path fill="none" stroke="black" d="M248,-122.11C248,-122.11 248,-140.99 248,-140.99"/>
<polygon fill="black" stroke="black" points="244.5,-140.99 248,-150.99 251.5,-140.99 244.5,-140.99"/>
</g>
<!-- SpatialSearchConfigComponent  -->
<g id="node3" class="node">
<title>SpatialSearchConfigComponent </title>
<polygon fill="#fb8072" stroke="black" points="348.19,-252 147.81,-252 147.81,-216 348.19,-216 348.19,-252"/>
<text text-anchor="middle" x="248" y="-229.8" font-family="Times,serif" font-size="14.00">SpatialSearchConfigComponent </text>
</g>
<!-- SpatialSearchConfigModule&#45;&gt;SpatialSearchConfigComponent  -->
<g id="edge2" class="edge">
<title>SpatialSearchConfigModule&#45;&gt;SpatialSearchConfigComponent </title>
<path fill="none" stroke="black" stroke-dasharray="5,2" d="M248,-187.11C248,-187.11 248,-205.99 248,-205.99"/>
<polygon fill="black" stroke="black" points="244.5,-205.99 248,-215.99 251.5,-205.99 244.5,-205.99"/>
</g>
</g>
</svg>
