<?xml version="1.0" encoding="UTF-8" standalone="no"?>
<!DOCTYPE svg PUBLIC "-//W3C//DTD SVG 1.1//EN"
 "http://www.w3.org/Graphics/SVG/1.1/DTD/svg11.dtd">
<!-- Generated by graphviz version 2.47.0 (20210316.0004)
 -->
<!-- Title: dependencies Pages: 1 -->
<svg width="799pt" height="211pt"
 viewBox="0.00 0.00 799.00 211.00" xmlns="http://www.w3.org/2000/svg" xmlns:xlink="http://www.w3.org/1999/xlink">
<g id="graph0" class="graph" transform="scale(1 1) rotate(0) translate(4 207)">
<title>dependencies</title>
<polygon fill="white" stroke="transparent" points="-4,4 -4,-207 795,-207 795,4 -4,4"/>
<text text-anchor="start" x="374.51" y="-42.4" font-family="Times-12" font-weight="bold" font-size="14.00">Legend</text>
<polygon fill="#ffffb3" stroke="transparent" points="161.5,-10 161.5,-30 181.5,-30 181.5,-10 161.5,-10"/>
<text text-anchor="start" x="185.13" y="-15.4" font-family="Times-12" font-size="14.00"> &#160;Declarations</text>
<polygon fill="#8dd3c7" stroke="transparent" points="274.5,-10 274.5,-30 294.5,-30 294.5,-10 274.5,-10"/>
<text text-anchor="start" x="298.23" y="-15.4" font-family="Times-12" font-size="14.00"> &#160;Module</text>
<polygon fill="#80b1d3" stroke="transparent" points="360.5,-10 360.5,-30 380.5,-30 380.5,-10 360.5,-10"/>
<text text-anchor="start" x="384.28" y="-15.4" font-family="Times-12" font-size="14.00"> &#160;Bootstrap</text>
<polygon fill="#fdb462" stroke="transparent" points="457.5,-10 457.5,-30 477.5,-30 477.5,-10 457.5,-10"/>
<text text-anchor="start" x="481.17" y="-15.4" font-family="Times-12" font-size="14.00"> &#160;Providers</text>
<polygon fill="#fb8072" stroke="transparent" points="553.5,-10 553.5,-30 573.5,-30 573.5,-10 553.5,-10"/>
<text text-anchor="start" x="577.23" y="-15.4" font-family="Times-12" font-size="14.00"> &#160;Exports</text>
<g id="clust1" class="cluster">
<title>cluster_AppModule</title>
<polygon fill="none" stroke="black" stroke-dasharray="1,5" points="8,-70 8,-195 783,-195 783,-70 8,-70"/>
</g>
<g id="clust2" class="cluster">
<title>cluster_AppModule_declarations</title>
<polygon fill="none" stroke="black" points="503,-78 503,-130 775,-130 775,-78 503,-78"/>
</g>
<g id="clust5" class="cluster">
<title>cluster_AppModule_imports</title>
<polygon fill="none" stroke="black" points="16,-78 16,-130 495,-130 495,-78 16,-78"/>
</g>
<!-- AppComponent -->
<g id="node1" class="node">
<title>AppComponent</title>
<polygon fill="#ffffb3" stroke="black" points="766.94,-122 661.06,-122 661.06,-86 766.94,-86 766.94,-122"/>
<text text-anchor="middle" x="714" y="-99.8" font-family="Times,serif" font-size="14.00">AppComponent</text>
</g>
<!-- AppModule -->
<g id="node3" class="node">
<title>AppModule</title>
<polygon fill="#8dd3c7" stroke="black" points="424.66,-187 421.66,-191 400.66,-191 397.66,-187 341.34,-187 341.34,-151 424.66,-151 424.66,-187"/>
<text text-anchor="middle" x="383" y="-164.8" font-family="Times,serif" font-size="14.00">AppModule</text>
</g>
<!-- AppComponent&#45;&gt;AppModule -->
<g id="edge1" class="edge">
<title>AppComponent&#45;&gt;AppModule</title>
<path fill="none" stroke="black" d="M714,-122.28C714,-143.32 714,-175 714,-175 714,-175 434.92,-175 434.92,-175"/>
<polygon fill="black" stroke="black" points="434.92,-171.5 424.92,-175 434.92,-178.5 434.92,-171.5"/>
</g>
<!-- AppWebComponent -->
<g id="node2" class="node">
<title>AppWebComponent</title>
<polygon fill="#ffffb3" stroke="black" points="642.87,-122 511.13,-122 511.13,-86 642.87,-86 642.87,-122"/>
<text text-anchor="middle" x="577" y="-99.8" font-family="Times,serif" font-size="14.00">AppWebComponent</text>
</g>
<!-- AppWebComponent&#45;&gt;AppModule -->
<g id="edge2" class="edge">
<title>AppWebComponent&#45;&gt;AppModule</title>
<path fill="none" stroke="black" d="M577,-122.02C577,-139.37 577,-163 577,-163 577,-163 435.1,-163 435.1,-163"/>
<polygon fill="black" stroke="black" points="435.1,-159.5 425.1,-163 435.1,-166.5 435.1,-159.5"/>
</g>
<!-- CoreModule -->
<g id="node4" class="node">
<title>CoreModule</title>
<polygon fill="#8dd3c7" stroke="black" points="487.26,-122 484.26,-126 463.26,-126 460.26,-122 400.74,-122 400.74,-86 487.26,-86 487.26,-122"/>
<text text-anchor="middle" x="444" y="-99.8" font-family="Times,serif" font-size="14.00">CoreModule</text>
</g>
<!-- CoreModule&#45;&gt;AppModule -->
<g id="edge3" class="edge">
<title>CoreModule&#45;&gt;AppModule</title>
<path fill="none" stroke="black" d="M412.72,-122.11C412.72,-122.11 412.72,-140.99 412.72,-140.99"/>
<polygon fill="black" stroke="black" points="409.22,-140.99 412.72,-150.99 416.22,-140.99 409.22,-140.99"/>
</g>
<!-- LinkCardsModule -->
<g id="node5" class="node">
<title>LinkCardsModule</title>
<polygon fill="#8dd3c7" stroke="black" points="382.15,-122 379.15,-126 358.15,-126 355.15,-122 263.85,-122 263.85,-86 382.15,-86 382.15,-122"/>
<text text-anchor="middle" x="323" y="-99.8" font-family="Times,serif" font-size="14.00">LinkCardsModule</text>
</g>
<!-- LinkCardsModule&#45;&gt;AppModule -->
<g id="edge4" class="edge">
<title>LinkCardsModule&#45;&gt;AppModule</title>
<path fill="none" stroke="black" d="M361.75,-122.11C361.75,-122.11 361.75,-140.99 361.75,-140.99"/>
<polygon fill="black" stroke="black" points="358.25,-140.99 361.75,-150.99 365.25,-140.99 358.25,-140.99"/>
</g>
<!-- OrganModule -->
<g id="node6" class="node">
<title>OrganModule</title>
<polygon fill="#8dd3c7" stroke="black" points="245.03,-122 242.03,-126 221.03,-126 218.03,-122 150.97,-122 150.97,-86 245.03,-86 245.03,-122"/>
<text text-anchor="middle" x="198" y="-99.8" font-family="Times,serif" font-size="14.00">OrganModule</text>
</g>
<!-- OrganModule&#45;&gt;AppModule -->
<g id="edge5" class="edge">
<title>OrganModule&#45;&gt;AppModule</title>
<path fill="none" stroke="black" d="M198,-122.02C198,-139.37 198,-163 198,-163 198,-163 331.02,-163 331.02,-163"/>
<polygon fill="black" stroke="black" points="331.02,-166.5 341.02,-163 331.02,-159.5 331.02,-166.5"/>
</g>
<!-- StatsListModule -->
<g id="node7" class="node">
<title>StatsListModule</title>
<polygon fill="#8dd3c7" stroke="black" points="132.05,-122 129.05,-126 108.05,-126 105.05,-122 23.95,-122 23.95,-86 132.05,-86 132.05,-122"/>
<text text-anchor="middle" x="78" y="-99.8" font-family="Times,serif" font-size="14.00">StatsListModule</text>
</g>
<!-- StatsListModule&#45;&gt;AppModule -->
<g id="edge6" class="edge">
<title>StatsListModule&#45;&gt;AppModule</title>
<path fill="none" stroke="black" d="M78,-122.28C78,-143.32 78,-175 78,-175 78,-175 331.23,-175 331.23,-175"/>
<polygon fill="black" stroke="black" points="331.23,-178.5 341.23,-175 331.23,-171.5 331.23,-178.5"/>
</g>
</g>
</svg>
