<?xml version="1.0" encoding="UTF-8" standalone="no"?>
<!DOCTYPE svg PUBLIC "-//W3C//DTD SVG 1.1//EN"
 "http://www.w3.org/Graphics/SVG/1.1/DTD/svg11.dtd">
<!-- Generated by graphviz version 2.47.3 (20210619.1520)
 -->
<!-- Title: dependencies Pages: 1 -->
<svg width="799pt" height="174pt"
 viewBox="0.00 0.00 799.00 173.80" xmlns="http://www.w3.org/2000/svg" xmlns:xlink="http://www.w3.org/1999/xlink">
<g id="graph0" class="graph" transform="scale(1 1) rotate(0) translate(4 169.8)">
<title>dependencies</title>
<polygon fill="white" stroke="transparent" points="-4,4 -4,-169.8 795,-169.8 795,4 -4,4"/>
<text text-anchor="middle" x="395.5" y="-8.2" font-family="sans-serif" font-size="14.00">dependencies</text>
<g id="clust1" class="cluster">
<title>cluster_AppModule</title>
<polygon fill="none" stroke="black" stroke-dasharray="1,5" points="8,-32.8 8,-157.8 783,-157.8 783,-32.8 8,-32.8"/>
</g>
<g id="clust2" class="cluster">
<title>cluster_AppModule_declarations</title>
<polygon fill="none" stroke="black" points="503,-40.8 503,-92.8 775,-92.8 775,-40.8 503,-40.8"/>
</g>
<g id="clust5" class="cluster">
<title>cluster_AppModule_imports</title>
<polygon fill="none" stroke="black" points="16,-40.8 16,-92.8 495,-92.8 495,-40.8 16,-40.8"/>
</g>
<!-- AppComponent -->
<g id="node1" class="node">
<title>AppComponent</title>
<polygon fill="#ffffb3" stroke="black" points="766.94,-84.8 661.06,-84.8 661.06,-48.8 766.94,-48.8 766.94,-84.8"/>
<text text-anchor="middle" x="714" y="-62.6" font-family="Times,serif" font-size="14.00">AppComponent</text>
</g>
<!-- AppModule -->
<g id="node3" class="node">
<title>AppModule</title>
<polygon fill="#8dd3c7" stroke="black" points="424.66,-149.8 421.66,-153.8 400.66,-153.8 397.66,-149.8 341.34,-149.8 341.34,-113.8 424.66,-113.8 424.66,-149.8"/>
<text text-anchor="middle" x="383" y="-127.6" font-family="Times,serif" font-size="14.00">AppModule</text>
</g>
<!-- AppComponent&#45;&gt;AppModule -->
<g id="edge1" class="edge">
<title>AppComponent&#45;&gt;AppModule</title>
<path fill="none" stroke="black" d="M714,-85.08C714,-106.12 714,-137.8 714,-137.8 714,-137.8 434.92,-137.8 434.92,-137.8"/>
<polygon fill="black" stroke="black" points="434.92,-134.3 424.92,-137.8 434.92,-141.3 434.92,-134.3"/>
</g>
<!-- AppWebComponent -->
<g id="node2" class="node">
<title>AppWebComponent</title>
<polygon fill="#ffffb3" stroke="black" points="642.87,-84.8 511.13,-84.8 511.13,-48.8 642.87,-48.8 642.87,-84.8"/>
<text text-anchor="middle" x="577" y="-62.6" font-family="Times,serif" font-size="14.00">AppWebComponent</text>
</g>
<!-- AppWebComponent&#45;&gt;AppModule -->
<g id="edge2" class="edge">
<title>AppWebComponent&#45;&gt;AppModule</title>
<path fill="none" stroke="black" d="M577,-84.82C577,-102.17 577,-125.8 577,-125.8 577,-125.8 435.1,-125.8 435.1,-125.8"/>
<polygon fill="black" stroke="black" points="435.1,-122.3 425.1,-125.8 435.1,-129.3 435.1,-122.3"/>
</g>
<!-- CoreModule -->
<g id="node4" class="node">
<title>CoreModule</title>
<polygon fill="#8dd3c7" stroke="black" points="487.26,-84.8 484.26,-88.8 463.26,-88.8 460.26,-84.8 400.74,-84.8 400.74,-48.8 487.26,-48.8 487.26,-84.8"/>
<text text-anchor="middle" x="444" y="-62.6" font-family="Times,serif" font-size="14.00">CoreModule</text>
</g>
<!-- CoreModule&#45;&gt;AppModule -->
<g id="edge3" class="edge">
<title>CoreModule&#45;&gt;AppModule</title>
<path fill="none" stroke="black" d="M412.72,-84.91C412.72,-84.91 412.72,-103.79 412.72,-103.79"/>
<polygon fill="black" stroke="black" points="409.22,-103.79 412.72,-113.79 416.22,-103.79 409.22,-103.79"/>
</g>
<!-- LinkCardsModule -->
<g id="node5" class="node">
<title>LinkCardsModule</title>
<polygon fill="#8dd3c7" stroke="black" points="382.15,-84.8 379.15,-88.8 358.15,-88.8 355.15,-84.8 263.85,-84.8 263.85,-48.8 382.15,-48.8 382.15,-84.8"/>
<text text-anchor="middle" x="323" y="-62.6" font-family="Times,serif" font-size="14.00">LinkCardsModule</text>
</g>
<!-- LinkCardsModule&#45;&gt;AppModule -->
<g id="edge4" class="edge">
<title>LinkCardsModule&#45;&gt;AppModule</title>
<path fill="none" stroke="black" d="M361.75,-84.91C361.75,-84.91 361.75,-103.79 361.75,-103.79"/>
<polygon fill="black" stroke="black" points="358.25,-103.79 361.75,-113.79 365.25,-103.79 358.25,-103.79"/>
</g>
<!-- OrganModule -->
<g id="node6" class="node">
<title>OrganModule</title>
<polygon fill="#8dd3c7" stroke="black" points="245.03,-84.8 242.03,-88.8 221.03,-88.8 218.03,-84.8 150.97,-84.8 150.97,-48.8 245.03,-48.8 245.03,-84.8"/>
<text text-anchor="middle" x="198" y="-62.6" font-family="Times,serif" font-size="14.00">OrganModule</text>
</g>
<!-- OrganModule&#45;&gt;AppModule -->
<g id="edge5" class="edge">
<title>OrganModule&#45;&gt;AppModule</title>
<path fill="none" stroke="black" d="M198,-84.82C198,-102.17 198,-125.8 198,-125.8 198,-125.8 331.02,-125.8 331.02,-125.8"/>
<polygon fill="black" stroke="black" points="331.02,-129.3 341.02,-125.8 331.02,-122.3 331.02,-129.3"/>
</g>
<!-- StatsListModule -->
<g id="node7" class="node">
<title>StatsListModule</title>
<polygon fill="#8dd3c7" stroke="black" points="132.05,-84.8 129.05,-88.8 108.05,-88.8 105.05,-84.8 23.95,-84.8 23.95,-48.8 132.05,-48.8 132.05,-84.8"/>
<text text-anchor="middle" x="78" y="-62.6" font-family="Times,serif" font-size="14.00">StatsListModule</text>
</g>
<!-- StatsListModule&#45;&gt;AppModule -->
<g id="edge6" class="edge">
<title>StatsListModule&#45;&gt;AppModule</title>
<path fill="none" stroke="black" d="M78,-85.08C78,-106.12 78,-137.8 78,-137.8 78,-137.8 331.23,-137.8 331.23,-137.8"/>
<polygon fill="black" stroke="black" points="331.23,-141.3 341.23,-137.8 331.23,-134.3 331.23,-141.3"/>
</g>
</g>
</svg>
