<svg width="396" height="40" viewBox="0 0 396 40" fill="none" xmlns="http://www.w3.org/2000/svg">
<path d="M16.9375 7.20312V32.5H10.3594V21.875H8.39062V32.5H1.8125V7.20312H8.39062V16.25H10.3594V7.20312H16.9375ZM33.8594 11.7656V32.5H27.4375L27.5469 30.7812C27.1094 31.4792 26.5677 32.0052 25.9219 32.3594C25.2865 32.7031 24.5521 32.875 23.7188 32.875C22.7708 32.875 21.9844 32.7083 21.3594 32.375C20.7344 32.0417 20.2708 31.599 19.9688 31.0469C19.6771 30.4948 19.4948 29.9219 19.4219 29.3281C19.349 28.724 19.3125 27.5312 19.3125 25.75V11.7656H25.625V25.875C25.625 27.4896 25.6719 28.4479 25.7656 28.75C25.8698 29.0521 26.1406 29.2031 26.5781 29.2031C27.0469 29.2031 27.3229 29.0469 27.4062 28.7344C27.5 28.4219 27.5469 27.4167 27.5469 25.7188V11.7656H33.8594ZM36.3125 7.20312H42.875C44.9479 7.20312 46.5156 7.36458 47.5781 7.6875C48.651 8.01042 49.5156 8.66667 50.1719 9.65625C50.8281 10.6354 51.1562 12.2188 51.1562 14.4062C51.1562 15.8854 50.9219 16.9167 50.4531 17.5C49.9948 18.0833 49.0833 18.5312 47.7188 18.8438C49.2396 19.1875 50.2708 19.7604 50.8125 20.5625C51.3542 21.3542 51.625 22.5729 51.625 24.2188V26.5625C51.625 28.2708 51.4271 29.5365 51.0312 30.3594C50.6458 31.1823 50.026 31.7448 49.1719 32.0469C48.3177 32.349 46.5677 32.5 43.9219 32.5H36.3125V7.20312ZM42.8906 11.5312V17.1562C43.1719 17.1458 43.3906 17.1406 43.5469 17.1406C44.1927 17.1406 44.6042 16.9844 44.7812 16.6719C44.9583 16.349 45.0469 15.4375 45.0469 13.9375C45.0469 13.1458 44.974 12.5938 44.8281 12.2812C44.6823 11.9583 44.4896 11.7552 44.25 11.6719C44.0208 11.5885 43.5677 11.5417 42.8906 11.5312ZM42.8906 21.0938V28.1719C43.8177 28.1406 44.4062 27.9948 44.6562 27.7344C44.9167 27.474 45.0469 26.8333 45.0469 25.8125V23.4531C45.0469 22.3698 44.9323 21.7135 44.7031 21.4844C44.474 21.2552 43.8698 21.125 42.8906 21.0938ZM74.2969 7.20312V32.5H68.5469V15.4219L66.25 32.5H62.1719L59.75 15.8125V32.5H54V7.20312H62.5156C62.7656 8.72396 63.0312 10.5156 63.3125 12.5781L64.2188 19.0156L65.7188 7.20312H74.2969ZM88.2969 7.20312L92.0625 32.5H85.3281L85 27.9531H82.6406L82.25 32.5H75.4375L78.7812 7.20312H88.2969ZM84.8125 23.4688C84.4792 20.6042 84.1458 17.0677 83.8125 12.8594C83.1458 17.6927 82.7292 21.2292 82.5625 23.4688H84.8125ZM93.1875 7.20312H99.8125C101.604 7.20312 102.979 7.34375 103.938 7.625C104.906 7.90625 105.63 8.3125 106.109 8.84375C106.599 9.375 106.927 10.0208 107.094 10.7812C107.271 11.5312 107.359 12.6979 107.359 14.2812V16.4844C107.359 18.099 107.193 19.276 106.859 20.0156C106.526 20.7552 105.911 21.3229 105.016 21.7188C104.13 22.1146 102.969 22.3125 101.531 22.3125H99.7656V32.5H93.1875V7.20312ZM99.7656 11.5312V17.9688C99.9531 17.9792 100.115 17.9844 100.25 17.9844C100.854 17.9844 101.271 17.8385 101.5 17.5469C101.74 17.2448 101.859 16.625 101.859 15.6875V13.6094C101.859 12.7448 101.724 12.1823 101.453 11.9219C101.182 11.6615 100.62 11.5312 99.7656 11.5312Z" fill="white"/>
<path d="M119.591 31.5V8.22727H121.716V18.8977H134.92V8.22727H137.045V31.5H134.92V20.8068H121.716V31.5H119.591ZM142.416 31.5V8.22727H149.927C151.579 8.22727 152.958 8.52651 154.064 9.125C155.177 9.71591 156.014 10.5379 156.575 11.5909C157.143 12.6364 157.427 13.8371 157.427 15.1932C157.427 16.5492 157.143 17.7462 156.575 18.7841C156.014 19.822 155.181 20.6326 154.075 21.2159C152.969 21.7992 151.598 22.0909 149.961 22.0909H143.564V20.1477H149.905C151.117 20.1477 152.124 19.947 152.927 19.5455C153.738 19.1439 154.34 18.572 154.734 17.8295C155.136 17.0871 155.336 16.2083 155.336 15.1932C155.336 14.178 155.136 13.2917 154.734 12.5341C154.333 11.7689 153.727 11.178 152.916 10.7614C152.113 10.3447 151.098 10.1364 149.87 10.1364H144.541V31.5H142.416ZM152.677 21L158.405 31.5H155.95L150.28 21H152.677ZM161.838 31.5H159.61L168.076 8.22727H170.349L178.815 31.5H176.588L169.292 10.9886H169.133L161.838 31.5ZM163.44 22.5795H174.985V24.4886H163.44V22.5795ZM190.203 31.5V8.22727H203.703V10.1364H192.328V18.8977H202.988V20.8068H192.328V29.5909H203.931V31.5H190.203ZM208.767 8.22727L215.21 18.3295H215.358L221.801 8.22727H224.312L216.824 19.8636L224.312 31.5H221.801L215.358 21.5114H215.21L208.767 31.5H206.256L213.858 19.8636L206.256 8.22727H208.767ZM227.541 31.5V8.22727H235.052C236.704 8.22727 238.083 8.54545 239.189 9.18182C240.302 9.81061 241.139 10.6667 241.7 11.75C242.268 12.8333 242.552 14.053 242.552 15.4091C242.552 16.7652 242.272 17.9886 241.711 19.0795C241.151 20.1629 240.317 21.0227 239.211 21.6591C238.105 22.2879 236.73 22.6023 235.086 22.6023H229.177V20.6932H235.03C236.249 20.6932 237.261 20.4659 238.064 20.0114C238.867 19.5492 239.465 18.9205 239.859 18.125C240.261 17.3295 240.461 16.4242 240.461 15.4091C240.461 14.3939 240.261 13.4886 239.859 12.6932C239.465 11.8977 238.863 11.2727 238.052 10.8182C237.249 10.3636 236.23 10.1364 234.995 10.1364H229.666V31.5H227.541ZM246.741 31.5V8.22727H248.866V29.5909H259.957V31.5H246.741ZM282.114 19.8636C282.114 22.2879 281.682 24.3977 280.819 26.1932C279.955 27.9811 278.766 29.3674 277.251 30.3523C275.743 31.3295 274.008 31.8182 272.046 31.8182C270.084 31.8182 268.345 31.3295 266.83 30.3523C265.323 29.3674 264.137 27.9811 263.273 26.1932C262.417 24.3977 261.989 22.2879 261.989 19.8636C261.989 17.4394 262.417 15.3333 263.273 13.5455C264.137 11.75 265.326 10.3636 266.841 9.38636C268.357 8.40151 270.091 7.90909 272.046 7.90909C274.008 7.90909 275.743 8.40151 277.251 9.38636C278.766 10.3636 279.955 11.75 280.819 13.5455C281.682 15.3333 282.114 17.4394 282.114 19.8636ZM280.046 19.8636C280.046 17.7803 279.698 15.9962 279.001 14.5114C278.304 13.0189 277.353 11.8788 276.148 11.0909C274.944 10.303 273.576 9.90909 272.046 9.90909C270.523 9.90909 269.16 10.303 267.955 11.0909C266.751 11.8788 265.796 13.0152 265.091 14.5C264.395 15.9848 264.046 17.7727 264.046 19.8636C264.046 21.947 264.395 23.7311 265.091 25.2159C265.788 26.7008 266.739 27.8409 267.944 28.6364C269.148 29.4242 270.516 29.8182 272.046 29.8182C273.576 29.8182 274.944 29.4242 276.148 28.6364C277.36 27.8485 278.315 26.7121 279.012 25.2273C279.709 23.7348 280.054 21.947 280.046 19.8636ZM286.453 31.5V8.22727H293.965C295.616 8.22727 296.995 8.52651 298.101 9.125C299.215 9.71591 300.052 10.5379 300.613 11.5909C301.181 12.6364 301.465 13.8371 301.465 15.1932C301.465 16.5492 301.181 17.7462 300.613 18.7841C300.052 19.822 299.219 20.6326 298.113 21.2159C297.006 21.7992 295.635 22.0909 293.999 22.0909H287.601V20.1477H293.942C295.154 20.1477 296.162 19.947 296.965 19.5455C297.775 19.1439 298.378 18.572 298.772 17.8295C299.173 17.0871 299.374 16.2083 299.374 15.1932C299.374 14.178 299.173 13.2917 298.772 12.5341C298.37 11.7689 297.764 11.178 296.953 10.7614C296.15 10.3447 295.135 10.1364 293.908 10.1364H288.578V31.5H286.453ZM296.715 21L302.442 31.5H299.988L294.317 21H296.715ZM305.875 31.5H303.648L312.114 8.22727H314.386L322.852 31.5H320.625L313.33 10.9886H313.17L305.875 31.5ZM307.477 22.5795H319.023V24.4886H307.477V22.5795ZM321.913 10.1364V8.22727H338.788V10.1364H331.413V31.5H329.288V10.1364H321.913ZM344.897 8.22727V31.5H342.772V8.22727H344.897ZM369.364 19.8636C369.364 22.2879 368.932 24.3977 368.069 26.1932C367.205 27.9811 366.016 29.3674 364.501 30.3523C362.993 31.3295 361.258 31.8182 359.296 31.8182C357.334 31.8182 355.595 31.3295 354.08 30.3523C352.573 29.3674 351.387 27.9811 350.523 26.1932C349.667 24.3977 349.239 22.2879 349.239 19.8636C349.239 17.4394 349.667 15.3333 350.523 13.5455C351.387 11.75 352.576 10.3636 354.091 9.38636C355.607 8.40151 357.341 7.90909 359.296 7.90909C361.258 7.90909 362.993 8.40151 364.501 9.38636C366.016 10.3636 367.205 11.75 368.069 13.5455C368.932 15.3333 369.364 17.4394 369.364 19.8636ZM367.296 19.8636C367.296 17.7803 366.948 15.9962 366.251 14.5114C365.554 13.0189 364.603 11.8788 363.398 11.0909C362.194 10.303 360.826 9.90909 359.296 9.90909C357.773 9.90909 356.41 10.303 355.205 11.0909C354.001 11.8788 353.046 13.0152 352.341 14.5C351.645 15.9848 351.296 17.7727 351.296 19.8636C351.296 21.947 351.645 23.7311 352.341 25.2159C353.038 26.7008 353.989 27.8409 355.194 28.6364C356.398 29.4242 357.766 29.8182 359.296 29.8182C360.826 29.8182 362.194 29.4242 363.398 28.6364C364.61 27.8485 365.565 26.7121 366.262 25.2273C366.959 23.7348 367.304 21.947 367.296 19.8636ZM391.828 8.22727V31.5H389.76L376.01 12.0114H375.828V31.5H373.703V8.22727H375.76L389.556 27.7386H389.738V8.22727H391.828Z" fill="#C2CAE6"/>
</svg>
