<svg xmlns="http://www.w3.org/2000/svg" viewBox="0 0 30 30"><defs><style>.cls-1{fill:none;}</style></defs><g id="pancreas"><path d="M26.59,7.82A.81.81,0,0,0,26.4,7a.73.73,0,0,0,.16-.45A.81.81,0,0,0,25,6.2a.82.82,0,0,0-1.08.49.94.94,0,0,0-.3-.06.81.81,0,0,0-.8.72l-.13,0a.83.83,0,0,0-.83.82.86.86,0,0,0,.05.23.87.87,0,0,0-.36-.09.82.82,0,0,0-.81.72.8.8,0,0,0-.48-.17.82.82,0,0,0-.81.74.8.8,0,0,0-.63-.32.83.83,0,0,0-.77.53.78.78,0,0,0-.5-.18.84.84,0,0,0-.64.32.79.79,0,0,0-.67-.38.8.8,0,0,0-.64.32.81.81,0,0,0-.72-.44.82.82,0,0,0-.77.56.86.86,0,0,0-.36-.08.79.79,0,0,0-.62.31.82.82,0,0,0-1.33.24.81.81,0,0,0-.76-.52.82.82,0,0,0-.81.73.79.79,0,0,0-.22-.05.82.82,0,0,0-.82.82.75.75,0,0,0,0,.26.8.8,0,0,0-.3-.06.82.82,0,0,0-.82.82.78.78,0,0,0,.15.45h0a.83.83,0,0,0-.83.82.94.94,0,0,0,.06.3.81.81,0,0,0-.24,1.58,2.11,2.11,0,0,0-.39,1.22,2,2,0,0,0,.23.93A20.3,20.3,0,0,1,9,15.61a2.77,2.77,0,0,1,.34-1.09,2.64,2.64,0,0,1,0-.8,1.05,1.05,0,0,1,.22-.5,1.36,1.36,0,0,0,.27-.39,3.77,3.77,0,0,0,.14-.67h0a4,4,0,0,1-.05.73,1,1,0,0,1-.22.37.82.82,0,0,0-.21.49,3.33,3.33,0,0,0,0,.48,1.77,1.77,0,0,1,.66-.61,2.34,2.34,0,0,0,.66-.47c.31-.47.8-1.28.8-1.28v0A9.9,9.9,0,0,1,11,13.33a1.91,1.91,0,0,1-.62.53,1.34,1.34,0,0,0-.67.76,3.23,3.23,0,0,0-.21.62,12.94,12.94,0,0,1,1.8-1.34,7.11,7.11,0,0,1,3-1v0h0l.31,0a4.15,4.15,0,0,1,.23-.49,1.19,1.19,0,0,1,.5-.5l.41-.27a3.08,3.08,0,0,0,.51-.81h0a3.77,3.77,0,0,1-.31.82,1.52,1.52,0,0,1-.47.38.9.9,0,0,0-.45.49c0,.13-.08.24-.11.35H15a17.32,17.32,0,0,0,2.65-.29,6.28,6.28,0,0,0,1.67-.67,8,8,0,0,1,.72-1,2.88,2.88,0,0,1,.85-.47h0a3.07,3.07,0,0,0-.65.46,2.33,2.33,0,0,0-.39.79A16.86,16.86,0,0,0,23,9.76s-3.41,3.49-7.62,3.61l-.39,0a4.69,4.69,0,0,0,.44.26,1.44,1.44,0,0,0,1,.07c.17-.06.48-.25.72-.18a2.11,2.11,0,0,0,1.22-.21s-.76.55-1.24.4c-.18-.05-.55.2-.71.24a1.78,1.78,0,0,1-1.09,0,4,4,0,0,1-.87-.52,5.55,5.55,0,0,0-3,1.15c-.59.45-1.1.84-1.55,1.23a4.84,4.84,0,0,0,.84.16,1.58,1.58,0,0,0,1.06-.29c.13-.12.31-.41.55-.44.5-.05,1-.71,1-.71s-.43.82-.93.87c-.19,0-.44.46-.57.56a1.6,1.6,0,0,1-.95.28,4.1,4.1,0,0,1-1.29-.18,10.09,10.09,0,0,0-2.06,2.28,2.11,2.11,0,0,0,1.29.53,1.33,1.33,0,0,0,1.34,1.33,1.32,1.32,0,0,0,1.1-.61,1.43,1.43,0,0,0,.55.12,1.34,1.34,0,0,0,1.24-.84,1.33,1.33,0,0,0,.44.09,1.35,1.35,0,0,0,1.35-1.35,1.41,1.41,0,0,0-.14-.58.92.92,0,0,0,.51-.82.7.7,0,0,0,0-.14.8.8,0,0,0,.15,0,.91.91,0,0,0,.92-.87.93.93,0,0,0,.54.19.92.92,0,0,0,.89-.72.8.8,0,0,0,.7.41.82.82,0,0,0,.81-.74,1,1,0,0,0,.24,0,.81.81,0,0,0,.7-.42.8.8,0,0,0,.5.18.81.81,0,0,0,.78-.62.73.73,0,0,0,.3.06.82.82,0,0,0,.82-.82,1,1,0,0,0,0-.25.75.75,0,0,0,.26,0,.82.82,0,0,0,.82-.77,1.08,1.08,0,0,0,.19,0,.82.82,0,0,0,.82-.82h0a.82.82,0,0,0,.69-.8s0-.06,0-.09a.8.8,0,0,0,.63-.78v0A2.9,2.9,0,0,0,26.09,9a.76.76,0,0,0,.2-.32.82.82,0,0,0,0-.38s0-.08,0-.12A.81.81,0,0,0,26.59,7.82Z"/><path d="M22.21,16.32a5,5,0,0,0-2.11-1.24,1.12,1.12,0,0,1-.82,1,1,1,0,0,1-.74-.25c-.05.65-.9.76-1.38.6l-.21,0a1.06,1.06,0,0,1,0,.19,1.24,1.24,0,0,1-.71,1.09,1.66,1.66,0,0,1,.19.77,1.82,1.82,0,0,1-1.86,1.78,1.85,1.85,0,0,1-.62-.12,1.84,1.84,0,0,1-1.72,1.12,1.91,1.91,0,0,1-.76-.16,1.87,1.87,0,0,1-1.53.82,1.82,1.82,0,0,1-1.86-1.78,2.8,2.8,0,0,1-2.76-2.75,2.69,2.69,0,0,1,.54-1.61h0a1,1,0,0,1-.29-1.87c0-.08,0-.16,0-.24A2,2,0,0,1,6.29,12a1.25,1.25,0,0,1,.36-.22c-.43,0-1-.5-1.28-1.24a1.62,1.62,0,0,1,0-1.73,3.67,3.67,0,0,0-1.51.85,5.68,5.68,0,0,0-1.43,4.11A11.21,11.21,0,0,0,5.62,21.9a5.58,5.58,0,0,0,3.7,1.64h.14c3.73.08,5.39-2,6.59-3.59,1-1.33,1.48-1.81,2.46-1.81h0c2.4,0,2.42,4.33,2.42,4.55a1.54,1.54,0,0,0,1.71,1.36c1.45,0,1.73-1,1.73-1.31S24.47,18.56,22.21,16.32Z"/><ellipse cx="6.59" cy="10.09" rx="0.81" ry="1.5" transform="translate(-3.38 3.33) rotate(-22.71)"/></g></svg>