<svg xmlns="http://www.w3.org/2000/svg" viewBox="0 0 30 30">
    <defs>
        <style>
            .cls-1-spinal-cord{fill:currentColor;stroke:none;stroke-miterlimit:10}
            .cls-2-spinal-cord{fill:#fff;stroke:currentColor}
        </style>
    </defs>
    <g id="Spinal_cord" data-name="Spinal cord">
        <path class="cls-1-spinal-cord" d="M7.85 20.77V14L21 11.07v6.54c0 1.4-1.8 5.25-3.89 4.38 0 1.94-3.43 2.28-5.77 1.83-3.47-.67-3.47-3.22-3.47-3.22"/>
        <ellipse class="cls-2-spinal-cord" cx="14.42" cy="12.64" rx="6.38" ry="4.49" transform="rotate(-25.84 14.421 12.646)" />
        <path class="cls-1-spinal-cord" d="M18.31 10.51c-.57-.75-1.74.52-2.43 0-.39-.32.59-1.67-.43-1.48s-1 .74-.86 1.93a1.25 1.25 0 0 1-.7.8 1.86 1.86 0 0 1-1.12.28c-1-.68-1.47-.95-2.11-.14s1 .58 1.11 1.08c.17.86-1.5 1.31-1.11 2.16a1.82 1.82 0 0 0 2.88.28c1-.92-.18-1.72.19-2.38.26-.46.36-.41.69-.59a1.51 1.51 0 0 1 1-.23c.75 0 1.1 1.38 2.4.9s1.18-1.7.49-2.61Z"/>
        <path class="cls-1-spinal-cord" d="M8.77 11.09a5.28 5.28 0 0 0-2.65 2.5c-1 1.73-.28 1.71-.77 2.12a2.24 2.24 0 0 0-.8 1.86 5.91 5.91 0 0 0 .35 1.57c0 .27-1.94 2.62-2.15 3.45a.71.71 0 0 0 1 .84c.45-.28 1.09-2.8 2-3.31.51-.59 2 .24 3.88.21 1.25 0 3.56-.34 3.91-1a3.2 3.2 0 0 0 .08-1.81s-1.87.27-2.36-.12c0 .78.08.93-.93 1.28a13.4 13.4 0 0 1-4.33.15 4.55 4.55 0 0 0 .39-3.27 3.1 3.1 0 0 1 1.82-3.15c.34-.07.27-.34.27-.34Z"/>
        <path class="cls-2-spinal-cord" d="M3.33 23a.34.34 0 0 1-.11-.27c0-.16.09-.28.16-.28a1.79 1.79 0 0 0 .49-.08 2.54 2.54 0 0 1-.54.63Z"/>
        <path class="cls-1-spinal-cord" d="M4.34 21.78c-.27 0-.72.19-1 .19a.79.79 0 0 0 0 1.56c.36 0 1.19-1.13 1.19-1.56 0-.14-.09-.19-.23-.19ZM16.42 7.82a4.86 4.86 0 0 1 3.13-1c1.81-.07 1.45.52 2 .31a2 2 0 0 1 1.8.17c.7.39.85.83 1.07 1s2-.32 2.8-.12a.64.64 0 0 1 .19 1.19c-.42.24-1.82-.43-2.61 0-.69.15-1 2.12-1.87 3.59-.57 1-1.75 2.53-2.45 2.5S19.6 14 19.6 14s.71-.91.62-1.47c.6.37.69.47 1.41-.19A12.24 12.24 0 0 0 23.69 9 4 4 0 0 1 21 7.86a2.76 2.76 0 0 0-3.26.08c-.2.25-.38.07-.38.07ZM15.3 13.41a21.29 21.29 0 0 1 2.27 2.39 2.44 2.44 0 0 1 .27 1.2l-.09.06a2.47 2.47 0 0 1-1.55-1.57c-.35-.64-.67-1.3-1-2l.08-.06Z"/>
        <path class="cls-1-spinal-cord" d="M11.55 17.49c.08 1.26-1.87 1.58-2.83 1.64-1.48.1-5.2-.5-1.76-.26 1.42 0 3 .16 4.22-.63a.93.93 0 0 0 .37-.75ZM19.15 15.44c.86.32 1.19 0 2-.23a1.4 1.4 0 0 1-2 .23Z"/>
    </g>
</svg>
