<svg xmlns="http://www.w3.org/2000/svg" viewBox="0 0 30 30"><defs><style>.cls-1{fill:none;}</style></defs><g id="bone_marrow" data-name="bone marrow"><path d="M13.86,12.33c0,.31.28.43.47.64l.21.27a1.57,1.57,0,0,0,.3-.33,1.25,1.25,0,0,0,.13-.6A1.65,1.65,0,0,1,15.5,11a5.29,5.29,0,0,1,1.24-.72l1-.48a2.34,2.34,0,0,1-.33-.43,1.51,1.51,0,0,1-.56.11.65.65,0,0,1-.2,0,9.84,9.84,0,0,0-1.64.86,3,3,0,0,0-.95,1.28A2.26,2.26,0,0,0,13.86,12.33Z"/><path d="M19.37,11.16a1.36,1.36,0,0,1-.16-.48.32.32,0,0,1-.14,0l-.63-.31L17.1,11l-.21.1v0a1,1,0,0,0,.17.23,3.22,3.22,0,0,0,.54.45,5.9,5.9,0,0,0,.69.4l.25.11a1.83,1.83,0,0,1,.13-.16v0h0l.06-.08.12-.16c.17-.23.33-.47.48-.71Zm-.7.95h0s0,0,0,0Z"/><path d="M18.65,13.15l-.1,0,0,0a5.62,5.62,0,0,1-1.4-.72,2.79,2.79,0,0,1-.89-1,1.71,1.71,0,0,0-.26.21c-.33.34-.18.85-.29,1.26a2,2,0,0,1-.77,1,.7.7,0,0,1,.06.19l.51-.34a3.39,3.39,0,0,1,.62-.39,2.08,2.08,0,0,1,1.16,0c.6.15,1.15.49,1.75.66A2.2,2.2,0,0,0,18.65,13.15Z"/><path d="M13.34,9.25h0a1.8,1.8,0,0,0,0,.22v0s0,0,0,.06,0,.14.05.21l0,.06,0,0a1.68,1.68,0,0,0,.2.34l.08.13,0,0h0l.05.06a3.72,3.72,0,0,1,.89-.88A7,7,0,0,1,15.89,9a1,1,0,0,0-.23-.18A2,2,0,0,0,13.34,9.25Z"/><path d="M17.89,14.41a11.72,11.72,0,0,1-.47,1.1,6.18,6.18,0,0,1,1.36.79c.08.06.16.14.24.21a9.32,9.32,0,0,1,.29-1.32,3.84,3.84,0,0,1-.14-.36A5.33,5.33,0,0,1,17.89,14.41Z"/><path d="M17.3,7l0,0a3.61,3.61,0,0,0,.33.35l.18.15,0,0,.11.08.11.06a4.93,4.93,0,0,0,.27-1.6l-.14,0-.07,0a3.35,3.35,0,0,0-.59.48,2.56,2.56,0,0,0-.2.26l-.13.15.06.08Z"/><path d="M18.06,9l0,.06a.1.1,0,0,0,0,.05h0a1.54,1.54,0,0,0,.17.19l.09.08,0,0h0a1.35,1.35,0,0,0,.22.14l0,0a5.7,5.7,0,0,0,.6.32s0,0,0-.05l.1-.2.17-.32A2.84,2.84,0,0,0,20,8.41,2,2,0,0,0,19.62,7a1.73,1.73,0,0,0-.52-.49,4.58,4.58,0,0,1-.46,1.84v0a2.35,2.35,0,0,1-.55.68Z"/><path d="M16.1,8.18a5,5,0,0,1,.48.44.59.59,0,0,0,.66,0,1.58,1.58,0,0,0,.44-.31l-.06,0a3.52,3.52,0,0,1-1-.94,2.12,2.12,0,0,1-1,.31h0a2.15,2.15,0,0,1-1.07-.33l-.37.18a1.72,1.72,0,0,1,.76.32A2.22,2.22,0,0,1,16.1,8.18Z"/><path d="M12,10.11A4.7,4.7,0,0,1,12.52,9a3.15,3.15,0,0,1,.94-.76,3.77,3.77,0,0,1-.83-.07,1.48,1.48,0,0,1-.36-.23L12,8l-.16.06h0l-.07,0a1.4,1.4,0,0,0-.17.09l-.06,0,0,0-.12.12s0,0,0,0a.35.35,0,0,0-.05.08,1.69,1.69,0,0,0-.15.36l-.17.45c-.12.29-.23.59-.34.88.06.23.12.46.17.7A1.93,1.93,0,0,0,12,10.11Z"/><path d="M11.15,7.57a6.84,6.84,0,0,1-1-.54l-.79.81A6.46,6.46,0,0,1,10.2,9.1l0-.09a5.4,5.4,0,0,1,.4-1A1.58,1.58,0,0,1,11.15,7.57Z"/><path d="M21.71,7.41c-.1-.09-.89-.48-1.39-.75a2.83,2.83,0,0,1,.42,1.68l.09-.06a3.35,3.35,0,0,1,1.44-.21A2.77,2.77,0,0,0,21.71,7.41Z"/><path d="M21.72,8.85a2.79,2.79,0,0,0-.4.07c.27.38.53.76.8,1.13a4.63,4.63,0,0,0,.32-1.2A2.89,2.89,0,0,0,21.72,8.85Z"/><path d="M9.5,6.63l-.15-.07a2.7,2.7,0,0,0-.45.7l.61-.63Z"/><path d="M20.48,9.54a1,1,0,0,0-.33.4l-.06.1c-.3.58,0,1,.47,1.32.21.15.42.27.63.4.22-.33.41-.64.57-.94-.35-.48-.71-1-1.06-1.44A1.4,1.4,0,0,0,20.48,9.54Z"/><path d="M19.87,11.77c-.2.31-.42.61-.64.9A3.06,3.06,0,0,1,19.75,14a5.82,5.82,0,0,1,.56-1c.16-.21.31-.42.45-.62a4.05,4.05,0,0,1-.35-.21A4.26,4.26,0,0,1,19.87,11.77Z"/><path d="M21.85,6.57a2.73,2.73,0,0,0-.38-.38,2.89,2.89,0,0,0-1.79-.63c-.13,0-.25,0-.37,0A11.64,11.64,0,0,1,22,6.73,1,1,0,0,0,21.85,6.57Z"/><path d="M8.74,8.53l0,0v.07A7,7,0,0,0,10.14,12,7,7,0,0,0,8.88,8.39Z"/><path d="M13.19,7.09a4,4,0,0,0,.7-.25l-.05,0a2.71,2.71,0,0,0-.22-.29,2.88,2.88,0,0,0-2.12-.94A2.82,2.82,0,0,0,10,6c.34.18.66.4,1,.6A3.08,3.08,0,0,0,13.19,7.09Z"/><path d="M12.52,14.74a2.39,2.39,0,0,0,.13-.21l.06-.13h0l0-.07a2.25,2.25,0,0,0,.08-.24c.11-.33.2-.66.29-1A.32.32,0,0,1,13,13l-.23-.24a.46.46,0,0,0-.17-.09.9.9,0,0,0-.5.12,6.21,6.21,0,0,1-.74.34,1.87,1.87,0,0,1-.34.08c.12.19.24.39.34.59l1.13,1A.43.43,0,0,0,12.52,14.74Z"/><path d="M12.05,12a1.3,1.3,0,0,1,.89,0,.8.8,0,0,1,.19.13s0-.09,0-.13a3.31,3.31,0,0,1,.31-.9l-.06,0a1.22,1.22,0,0,1-.37-.41c-.08-.12-.16-.24-.23-.37a.78.78,0,0,1-.05-.14,2,2,0,0,1-.52.83,4.07,4.07,0,0,1-1.36.69c0,.26.06.53.07.79a2,2,0,0,0,.35-.11C11.55,12.24,11.78,12.08,12.05,12Z"/><path d="M11.91,15.32a11.37,11.37,0,0,1,.28,1.33,5.7,5.7,0,0,0,.91-.3Z"/><path d="M16.8,15c.13-.27.26-.53.37-.81a1.25,1.25,0,0,0-.83,0,3.31,3.31,0,0,0-.55.37l-.16.1A2.41,2.41,0,0,1,16.8,15Z"/><path d="M14.26,15a2.08,2.08,0,0,0-.47-1.41,5.14,5.14,0,0,1-.74,1.75l.44.39A3,3,0,0,1,14.26,15Z"/><path d="M20.87,3.55a3.76,3.76,0,0,1,2.34.83,3.17,3.17,0,0,1,.49.48,3.46,3.46,0,0,1,.83,2.27c0,.12,0,.26,0,.47-.16,1.9-1.22,3.48-2.81,5.67A11.26,11.26,0,0,0,20,18.17v7.38H11.13V18.17a11.26,11.26,0,0,0-1.74-4.9C7.78,11.08,6.73,9.5,6.56,7.56a3.73,3.73,0,0,1,0-.43A3.63,3.63,0,0,1,10.2,3.55,3.7,3.7,0,0,1,13,4.78a2.52,2.52,0,0,1,.29.37,3.12,3.12,0,0,0,2.26,1.17h.05a3.13,3.13,0,0,0,2.28-1.21,2.16,2.16,0,0,1,.27-.33,3.69,3.69,0,0,1,2.76-1.23m0-1a4.72,4.72,0,0,0-3.51,1.56,5,5,0,0,0-.34.43,2.15,2.15,0,0,1-1.49.78A2.18,2.18,0,0,1,14,4.54a2.79,2.79,0,0,0-.34-.43,4.69,4.69,0,0,0-3.5-1.56A4.62,4.62,0,0,0,5.53,7.13a5.09,5.09,0,0,0,0,.55c.19,2.26,1.48,4.09,3,6.18a10.2,10.2,0,0,1,1.56,4.44v8.25H20.94V18.3a10.2,10.2,0,0,1,1.56-4.44c1.52-2.09,2.81-3.92,3-6.18a5.07,5.07,0,0,0,0-.55,4.52,4.52,0,0,0-1.06-2.91,4.1,4.1,0,0,0-.63-.62,4.75,4.75,0,0,0-3-1.05Z"/><path d="M17.83,25.85v-7A2.56,2.56,0,0,0,15.57,16a2.57,2.57,0,0,0-2.26,2.78v7Z"/></g></svg>