<?xml version="1.0" encoding="UTF-8" standalone="no"?>
<!DOCTYPE svg PUBLIC "-//W3C//DTD SVG 1.1//EN"
 "http://www.w3.org/Graphics/SVG/1.1/DTD/svg11.dtd">
<!-- Generated by graphviz version 2.47.3 (20210619.1520)
 -->
<!-- Title: dependencies Pages: 1 -->
<svg width="572pt" height="247pt"
 viewBox="0.00 0.00 572.00 246.80" xmlns="http://www.w3.org/2000/svg" xmlns:xlink="http://www.w3.org/1999/xlink">
<g id="graph0" class="graph" transform="scale(1 1) rotate(0) translate(4 242.8)">
<title>dependencies</title>
<polygon fill="white" stroke="transparent" points="-4,4 -4,-242.8 568,-242.8 568,4 -4,4"/>
<text text-anchor="middle" x="282" y="-8.2" font-family="sans-serif" font-size="14.00">dependencies</text>
<g id="clust1" class="cluster">
<title>cluster_OntologySelectionModule</title>
<polygon fill="none" stroke="black" stroke-dasharray="1,5" points="8,-32.8 8,-230.8 556,-230.8 556,-32.8 8,-32.8"/>
</g>
<g id="clust4" class="cluster">
<title>cluster_OntologySelectionModule_imports</title>
<polygon fill="none" stroke="black" points="226,-40.8 226,-92.8 548,-92.8 548,-40.8 226,-40.8"/>
</g>
<g id="clust5" class="cluster">
<title>cluster_OntologySelectionModule_exports</title>
<polygon fill="none" stroke="black" points="200,-170.8 200,-222.8 406,-222.8 406,-170.8 200,-170.8"/>
</g>
<g id="clust2" class="cluster">
<title>cluster_OntologySelectionModule_declarations</title>
<polygon fill="none" stroke="black" points="16,-40.8 16,-92.8 218,-92.8 218,-40.8 16,-40.8"/>
</g>
<!-- OntologySelectionComponent -->
<g id="node1" class="node">
<title>OntologySelectionComponent</title>
<polygon fill="#ffffb3" stroke="black" points="210.32,-84.8 23.68,-84.8 23.68,-48.8 210.32,-48.8 210.32,-84.8"/>
<text text-anchor="middle" x="117" y="-62.6" font-family="Times,serif" font-size="14.00">OntologySelectionComponent</text>
</g>
<!-- OntologySelectionModule -->
<g id="node2" class="node">
<title>OntologySelectionModule</title>
<polygon fill="#8dd3c7" stroke="black" points="385.04,-149.8 382.04,-153.8 361.04,-153.8 358.04,-149.8 220.96,-149.8 220.96,-113.8 385.04,-113.8 385.04,-149.8"/>
<text text-anchor="middle" x="303" y="-127.6" font-family="Times,serif" font-size="14.00">OntologySelectionModule</text>
</g>
<!-- OntologySelectionComponent&#45;&gt;OntologySelectionModule -->
<g id="edge1" class="edge">
<title>OntologySelectionComponent&#45;&gt;OntologySelectionModule</title>
<path fill="none" stroke="black" d="M210.59,-66.8C220.66,-66.8 227.35,-66.8 227.35,-66.8 227.35,-66.8 227.35,-103.69 227.35,-103.69"/>
<polygon fill="black" stroke="black" points="223.85,-103.69 227.35,-113.69 230.85,-103.69 223.85,-103.69"/>
</g>
<!-- OntologySelectionComponent  -->
<g id="node5" class="node">
<title>OntologySelectionComponent </title>
<polygon fill="#fb8072" stroke="black" points="397.82,-214.8 208.18,-214.8 208.18,-178.8 397.82,-178.8 397.82,-214.8"/>
<text text-anchor="middle" x="303" y="-192.6" font-family="Times,serif" font-size="14.00">OntologySelectionComponent </text>
</g>
<!-- OntologySelectionModule&#45;&gt;OntologySelectionComponent  -->
<g id="edge4" class="edge">
<title>OntologySelectionModule&#45;&gt;OntologySelectionComponent </title>
<path fill="none" stroke="black" stroke-dasharray="5,2" d="M303,-149.91C303,-149.91 303,-168.79 303,-168.79"/>
<polygon fill="black" stroke="black" points="299.5,-168.79 303,-178.79 306.5,-168.79 299.5,-168.79"/>
</g>
<!-- OntologySearchModule -->
<g id="node3" class="node">
<title>OntologySearchModule</title>
<polygon fill="#8dd3c7" stroke="black" points="540.03,-84.8 537.03,-88.8 516.03,-88.8 513.03,-84.8 389.97,-84.8 389.97,-48.8 540.03,-48.8 540.03,-84.8"/>
<text text-anchor="middle" x="465" y="-62.6" font-family="Times,serif" font-size="14.00">OntologySearchModule</text>
</g>
<!-- OntologySearchModule&#45;&gt;OntologySelectionModule -->
<g id="edge2" class="edge">
<title>OntologySearchModule&#45;&gt;OntologySelectionModule</title>
<path fill="none" stroke="black" d="M393.82,-84.91C393.82,-104.14 393.82,-131.8 393.82,-131.8 393.82,-131.8 392.95,-131.8 392.95,-131.8"/>
<polygon fill="black" stroke="black" points="395.11,-128.3 385.11,-131.8 395.11,-135.3 395.11,-128.3"/>
</g>
<!-- OntologyTreeModule -->
<g id="node4" class="node">
<title>OntologyTreeModule</title>
<polygon fill="#8dd3c7" stroke="black" points="372.08,-84.8 369.08,-88.8 348.08,-88.8 345.08,-84.8 233.92,-84.8 233.92,-48.8 372.08,-48.8 372.08,-84.8"/>
<text text-anchor="middle" x="303" y="-62.6" font-family="Times,serif" font-size="14.00">OntologyTreeModule</text>
</g>
<!-- OntologyTreeModule&#45;&gt;OntologySelectionModule -->
<g id="edge3" class="edge">
<title>OntologyTreeModule&#45;&gt;OntologySelectionModule</title>
<path fill="none" stroke="black" d="M303,-84.91C303,-84.91 303,-103.79 303,-103.79"/>
<polygon fill="black" stroke="black" points="299.5,-103.79 303,-113.79 306.5,-103.79 299.5,-103.79"/>
</g>
</g>
</svg>
