<?xml version="1.0" encoding="UTF-8" standalone="no"?>
<!DOCTYPE svg PUBLIC "-//W3C//DTD SVG 1.1//EN"
 "http://www.w3.org/Graphics/SVG/1.1/DTD/svg11.dtd">
<!-- Generated by graphviz version 2.40.1 (20161225.0304)
 -->
<!-- Title: dependencies Pages: 1 -->
<svg width="1393pt" height="284pt"
 viewBox="0.00 0.00 1393.00 284.00" xmlns="http://www.w3.org/2000/svg" xmlns:xlink="http://www.w3.org/1999/xlink">
<g id="graph0" class="graph" transform="scale(1 1) rotate(0) translate(4 280)">
<title>dependencies</title>
<polygon fill="#ffffff" stroke="transparent" points="-4,4 -4,-280 1389,-280 1389,4 -4,4"/>
<text text-anchor="start" x="671.5091" y="-42.4" font-family="sans-serif" font-weight="bold" font-size="14.00" fill="#000000">Legend</text>
<polygon fill="#ffffb3" stroke="transparent" points="458.5,-10 458.5,-30 478.5,-30 478.5,-10 458.5,-10"/>
<text text-anchor="start" x="482.129" y="-15.4" font-family="sans-serif" font-size="14.00" fill="#000000"> &#160;Declarations</text>
<polygon fill="#8dd3c7" stroke="transparent" points="571.5,-10 571.5,-30 591.5,-30 591.5,-10 571.5,-10"/>
<text text-anchor="start" x="595.2251" y="-15.4" font-family="sans-serif" font-size="14.00" fill="#000000"> &#160;Module</text>
<polygon fill="#80b1d3" stroke="transparent" points="657.5,-10 657.5,-30 677.5,-30 677.5,-10 657.5,-10"/>
<text text-anchor="start" x="681.2812" y="-15.4" font-family="sans-serif" font-size="14.00" fill="#000000"> &#160;Bootstrap</text>
<polygon fill="#fdb462" stroke="transparent" points="754.5,-10 754.5,-30 774.5,-30 774.5,-10 754.5,-10"/>
<text text-anchor="start" x="778.1732" y="-15.4" font-family="sans-serif" font-size="14.00" fill="#000000"> &#160;Providers</text>
<polygon fill="#fb8072" stroke="transparent" points="850.5,-10 850.5,-30 870.5,-30 870.5,-10 850.5,-10"/>
<text text-anchor="start" x="874.2258" y="-15.4" font-family="sans-serif" font-size="14.00" fill="#000000"> &#160;Exports</text>
<g id="clust1" class="cluster">
<title>cluster_LeftSidebarModule</title>
<polygon fill="none" stroke="#000000" stroke-dasharray="1,5" points="8,-70 8,-268 1377,-268 1377,-70 8,-70"/>
</g>
<g id="clust2" class="cluster">
<title>cluster_LeftSidebarModule_declarations</title>
<polygon fill="none" stroke="#000000" points="1205,-78 1205,-130 1369,-130 1369,-78 1205,-78"/>
</g>
<g id="clust4" class="cluster">
<title>cluster_LeftSidebarModule_imports</title>
<polygon fill="none" stroke="#000000" points="16,-78 16,-130 1197,-130 1197,-78 16,-78"/>
</g>
<g id="clust5" class="cluster">
<title>cluster_LeftSidebarModule_exports</title>
<polygon fill="none" stroke="#000000" points="491,-208 491,-260 657,-260 657,-208 491,-208"/>
</g>
<!-- LeftSidebarComponent -->
<g id="node1" class="node">
<title>LeftSidebarComponent</title>
<polygon fill="#ffffb3" stroke="#000000" points="1360.9144,-122 1213.0856,-122 1213.0856,-86 1360.9144,-86 1360.9144,-122"/>
<text text-anchor="middle" x="1287" y="-99.8" font-family="Times,serif" font-size="14.00" fill="#000000">LeftSidebarComponent</text>
</g>
<!-- LeftSidebarModule -->
<g id="node2" class="node">
<title>LeftSidebarModule</title>
<polygon fill="#8dd3c7" stroke="#000000" points="636.6317,-187 633.6317,-191 612.6317,-191 609.6317,-187 511.3683,-187 511.3683,-151 636.6317,-151 636.6317,-187"/>
<text text-anchor="middle" x="574" y="-164.8" font-family="Times,serif" font-size="14.00" fill="#000000">LeftSidebarModule</text>
</g>
<!-- LeftSidebarComponent&#45;&gt;LeftSidebarModule -->
<g id="edge1" class="edge">
<title>LeftSidebarComponent&#45;&gt;LeftSidebarModule</title>
<path fill="none" stroke="#000000" d="M1287,-122.0109C1287,-144.4852 1287,-180 1287,-180 1287,-180 646.6491,-180 646.6491,-180"/>
<polygon fill="#000000" stroke="#000000" points="646.6491,-176.5001 636.6491,-180 646.6491,-183.5001 646.6491,-176.5001"/>
</g>
<!-- LeftSidebarComponent  -->
<g id="node10" class="node">
<title>LeftSidebarComponent </title>
<polygon fill="#fb8072" stroke="#000000" points="649.4138,-252 498.5862,-252 498.5862,-216 649.4138,-216 649.4138,-252"/>
<text text-anchor="middle" x="574" y="-229.8" font-family="Times,serif" font-size="14.00" fill="#000000">LeftSidebarComponent </text>
</g>
<!-- LeftSidebarModule&#45;&gt;LeftSidebarComponent  -->
<g id="edge10" class="edge">
<title>LeftSidebarModule&#45;&gt;LeftSidebarComponent </title>
<path fill="none" stroke="#000000" stroke-dasharray="5,2" d="M574,-187.1061C574,-187.1061 574,-205.991 574,-205.991"/>
<polygon fill="#000000" stroke="#000000" points="570.5001,-205.9909 574,-215.991 577.5001,-205.991 570.5001,-205.9909"/>
</g>
<!-- DetailsLabelModule -->
<g id="node3" class="node">
<title>DetailsLabelModule</title>
<polygon fill="#8dd3c7" stroke="#000000" points="1188.5744,-122 1185.5744,-126 1164.5744,-126 1161.5744,-122 1057.4256,-122 1057.4256,-86 1188.5744,-86 1188.5744,-122"/>
<text text-anchor="middle" x="1123" y="-99.8" font-family="Times,serif" font-size="14.00" fill="#000000">DetailsLabelModule</text>
</g>
<!-- DetailsLabelModule&#45;&gt;LeftSidebarModule -->
<g id="edge2" class="edge">
<title>DetailsLabelModule&#45;&gt;LeftSidebarModule</title>
<path fill="none" stroke="#000000" d="M1123,-122.1289C1123,-142.5724 1123,-173 1123,-173 1123,-173 646.7098,-173 646.7098,-173"/>
<polygon fill="#000000" stroke="#000000" points="646.7098,-169.5001 636.7098,-173 646.7098,-176.5001 646.7098,-169.5001"/>
</g>
<!-- ExtractionSetDropdownModule -->
<g id="node4" class="node">
<title>ExtractionSetDropdownModule</title>
<polygon fill="#8dd3c7" stroke="#000000" points="1039.626,-122 1036.626,-126 1015.626,-126 1012.626,-122 844.374,-122 844.374,-86 1039.626,-86 1039.626,-122"/>
<text text-anchor="middle" x="942" y="-99.8" font-family="Times,serif" font-size="14.00" fill="#000000">ExtractionSetDropdownModule</text>
</g>
<!-- ExtractionSetDropdownModule&#45;&gt;LeftSidebarModule -->
<g id="edge3" class="edge">
<title>ExtractionSetDropdownModule&#45;&gt;LeftSidebarModule</title>
<path fill="none" stroke="#000000" d="M942,-122.2667C942,-140.5552 942,-166 942,-166 942,-166 646.8433,-166 646.8433,-166"/>
<polygon fill="#000000" stroke="#000000" points="646.8434,-162.5001 636.8433,-166 646.8433,-169.5001 646.8434,-162.5001"/>
</g>
<!-- LabeledSlideToggleModule -->
<g id="node5" class="node">
<title>LabeledSlideToggleModule</title>
<polygon fill="#8dd3c7" stroke="#000000" points="826.573,-122 823.573,-126 802.573,-126 799.573,-122 653.427,-122 653.427,-86 826.573,-86 826.573,-122"/>
<text text-anchor="middle" x="740" y="-99.8" font-family="Times,serif" font-size="14.00" fill="#000000">LabeledSlideToggleModule</text>
</g>
<!-- LabeledSlideToggleModule&#45;&gt;LeftSidebarModule -->
<g id="edge4" class="edge">
<title>LabeledSlideToggleModule&#45;&gt;LeftSidebarModule</title>
<path fill="none" stroke="#000000" d="M740,-122.0091C740,-138.0494 740,-159 740,-159 740,-159 646.7575,-159 646.7575,-159"/>
<polygon fill="#000000" stroke="#000000" points="646.7575,-155.5001 636.7575,-159 646.7574,-162.5001 646.7575,-155.5001"/>
</g>
<!-- NameInputModule -->
<g id="node6" class="node">
<title>NameInputModule</title>
<polygon fill="#8dd3c7" stroke="#000000" points="635.0283,-122 632.0283,-126 611.0283,-126 608.0283,-122 512.9717,-122 512.9717,-86 635.0283,-86 635.0283,-122"/>
<text text-anchor="middle" x="574" y="-99.8" font-family="Times,serif" font-size="14.00" fill="#000000">NameInputModule</text>
</g>
<!-- NameInputModule&#45;&gt;LeftSidebarModule -->
<g id="edge5" class="edge">
<title>NameInputModule&#45;&gt;LeftSidebarModule</title>
<path fill="none" stroke="#000000" d="M574,-122.1061C574,-122.1061 574,-140.991 574,-140.991"/>
<polygon fill="#000000" stroke="#000000" points="570.5001,-140.9909 574,-150.991 577.5001,-140.991 570.5001,-140.9909"/>
</g>
<!-- OpacitySliderModule -->
<g id="node7" class="node">
<title>OpacitySliderModule</title>
<polygon fill="#8dd3c7" stroke="#000000" points="494.8061,-122 491.8061,-126 470.8061,-126 467.8061,-122 357.1939,-122 357.1939,-86 494.8061,-86 494.8061,-122"/>
<text text-anchor="middle" x="426" y="-99.8" font-family="Times,serif" font-size="14.00" fill="#000000">OpacitySliderModule</text>
</g>
<!-- OpacitySliderModule&#45;&gt;LeftSidebarModule -->
<g id="edge6" class="edge">
<title>OpacitySliderModule&#45;&gt;LeftSidebarModule</title>
<path fill="none" stroke="#000000" d="M426,-122.0091C426,-138.0494 426,-159 426,-159 426,-159 501.2347,-159 501.2347,-159"/>
<polygon fill="#000000" stroke="#000000" points="501.2347,-162.5001 511.2347,-159 501.2346,-155.5001 501.2347,-162.5001"/>
</g>
<!-- VisibilityMenuModule -->
<g id="node8" class="node">
<title>VisibilityMenuModule</title>
<polygon fill="#8dd3c7" stroke="#000000" points="339.6038,-122 336.6038,-126 315.6038,-126 312.6038,-122 194.3962,-122 194.3962,-86 339.6038,-86 339.6038,-122"/>
<text text-anchor="middle" x="267" y="-99.8" font-family="Times,serif" font-size="14.00" fill="#000000">VisibilityMenuModule</text>
</g>
<!-- VisibilityMenuModule&#45;&gt;LeftSidebarModule -->
<g id="edge7" class="edge">
<title>VisibilityMenuModule&#45;&gt;LeftSidebarModule</title>
<path fill="none" stroke="#000000" d="M267,-122.2667C267,-140.5552 267,-166 267,-166 267,-166 501.1332,-166 501.1332,-166"/>
<polygon fill="#000000" stroke="#000000" points="501.1332,-169.5001 511.1332,-166 501.1331,-162.5001 501.1332,-169.5001"/>
</g>
<!-- VisibilityToggleModule -->
<g id="node9" class="node">
<title>VisibilityToggleModule</title>
<polygon fill="#8dd3c7" stroke="#000000" points="176.1024,-122 173.1024,-126 152.1024,-126 149.1024,-122 23.8976,-122 23.8976,-86 176.1024,-86 176.1024,-122"/>
<text text-anchor="middle" x="100" y="-99.8" font-family="Times,serif" font-size="14.00" fill="#000000">VisibilityToggleModule</text>
</g>
<!-- VisibilityToggleModule&#45;&gt;LeftSidebarModule -->
<g id="edge8" class="edge">
<title>VisibilityToggleModule&#45;&gt;LeftSidebarModule</title>
<path fill="none" stroke="#000000" d="M125.3504,-122.1289C125.3504,-142.5724 125.3504,-173 125.3504,-173 125.3504,-173 501.1448,-173 501.1448,-173"/>
<polygon fill="#000000" stroke="#000000" points="501.1448,-176.5001 511.1448,-173 501.1448,-169.5001 501.1448,-176.5001"/>
</g>
<!-- VisibilityToggleModule&#45;&gt;LeftSidebarModule -->
<g id="edge9" class="edge">
<title>VisibilityToggleModule&#45;&gt;LeftSidebarModule</title>
<path fill="none" stroke="#000000" d="M74.6496,-122.0109C74.6496,-144.4852 74.6496,-180 74.6496,-180 74.6496,-180 501.2625,-180 501.2625,-180"/>
<polygon fill="#000000" stroke="#000000" points="501.2626,-183.5001 511.2625,-180 501.2625,-176.5001 501.2626,-183.5001"/>
</g>
</g>
</svg>
