<?xml version="1.0" encoding="UTF-8" standalone="no"?>
<!DOCTYPE svg PUBLIC "-//W3C//DTD SVG 1.1//EN"
 "http://www.w3.org/Graphics/SVG/1.1/DTD/svg11.dtd">
<!-- Generated by graphviz version 2.40.1 (20161225.0304)
 -->
<!-- Title: dependencies Pages: 1 -->
<svg width="849pt" height="284pt"
 viewBox="0.00 0.00 849.00 284.00" xmlns="http://www.w3.org/2000/svg" xmlns:xlink="http://www.w3.org/1999/xlink">
<g id="graph0" class="graph" transform="scale(1 1) rotate(0) translate(4 280)">
<title>dependencies</title>
<polygon fill="#ffffff" stroke="transparent" points="-4,4 -4,-280 845,-280 845,4 -4,4"/>
<text text-anchor="start" x="399.5091" y="-42.4" font-family="sans-serif" font-weight="bold" font-size="14.00" fill="#000000">Legend</text>
<polygon fill="#ffffb3" stroke="transparent" points="186.5,-10 186.5,-30 206.5,-30 206.5,-10 186.5,-10"/>
<text text-anchor="start" x="210.129" y="-15.4" font-family="sans-serif" font-size="14.00" fill="#000000"> &#160;Declarations</text>
<polygon fill="#8dd3c7" stroke="transparent" points="299.5,-10 299.5,-30 319.5,-30 319.5,-10 299.5,-10"/>
<text text-anchor="start" x="323.2251" y="-15.4" font-family="sans-serif" font-size="14.00" fill="#000000"> &#160;Module</text>
<polygon fill="#80b1d3" stroke="transparent" points="385.5,-10 385.5,-30 405.5,-30 405.5,-10 385.5,-10"/>
<text text-anchor="start" x="409.2812" y="-15.4" font-family="sans-serif" font-size="14.00" fill="#000000"> &#160;Bootstrap</text>
<polygon fill="#fdb462" stroke="transparent" points="482.5,-10 482.5,-30 502.5,-30 502.5,-10 482.5,-10"/>
<text text-anchor="start" x="506.1732" y="-15.4" font-family="sans-serif" font-size="14.00" fill="#000000"> &#160;Providers</text>
<polygon fill="#fb8072" stroke="transparent" points="578.5,-10 578.5,-30 598.5,-30 598.5,-10 578.5,-10"/>
<text text-anchor="start" x="602.2258" y="-15.4" font-family="sans-serif" font-size="14.00" fill="#000000"> &#160;Exports</text>
<g id="clust1" class="cluster">
<title>cluster_LeftSidebarModule</title>
<polygon fill="none" stroke="#000000" stroke-dasharray="1,5" points="8,-70 8,-268 833,-268 833,-70 8,-70"/>
</g>
<g id="clust2" class="cluster">
<title>cluster_LeftSidebarModule_declarations</title>
<polygon fill="none" stroke="#000000" points="661,-78 661,-130 825,-130 825,-78 661,-78"/>
</g>
<g id="clust4" class="cluster">
<title>cluster_LeftSidebarModule_imports</title>
<polygon fill="none" stroke="#000000" points="16,-78 16,-130 653,-130 653,-78 16,-78"/>
</g>
<g id="clust5" class="cluster">
<title>cluster_LeftSidebarModule_exports</title>
<polygon fill="none" stroke="#000000" points="326,-208 326,-260 492,-260 492,-208 326,-208"/>
</g>
<!-- LeftSidebarComponent -->
<g id="node1" class="node">
<title>LeftSidebarComponent</title>
<polygon fill="#ffffb3" stroke="#000000" points="816.9144,-122 669.0856,-122 669.0856,-86 816.9144,-86 816.9144,-122"/>
<text text-anchor="middle" x="743" y="-99.8" font-family="Times,serif" font-size="14.00" fill="#000000">LeftSidebarComponent</text>
</g>
<!-- LeftSidebarModule -->
<g id="node2" class="node">
<title>LeftSidebarModule</title>
<polygon fill="#8dd3c7" stroke="#000000" points="471.6317,-187 468.6317,-191 447.6317,-191 444.6317,-187 346.3683,-187 346.3683,-151 471.6317,-151 471.6317,-187"/>
<text text-anchor="middle" x="409" y="-164.8" font-family="Times,serif" font-size="14.00" fill="#000000">LeftSidebarModule</text>
</g>
<!-- LeftSidebarComponent&#45;&gt;LeftSidebarModule -->
<g id="edge1" class="edge">
<title>LeftSidebarComponent&#45;&gt;LeftSidebarModule</title>
<path fill="none" stroke="#000000" d="M743,-122.2843C743,-143.3211 743,-175 743,-175 743,-175 481.8228,-175 481.8228,-175"/>
<polygon fill="#000000" stroke="#000000" points="481.8229,-171.5001 471.8228,-175 481.8228,-178.5001 481.8229,-171.5001"/>
</g>
<!-- LeftSidebarComponent  -->
<g id="node7" class="node">
<title>LeftSidebarComponent </title>
<polygon fill="#fb8072" stroke="#000000" points="484.4138,-252 333.5862,-252 333.5862,-216 484.4138,-216 484.4138,-252"/>
<text text-anchor="middle" x="409" y="-229.8" font-family="Times,serif" font-size="14.00" fill="#000000">LeftSidebarComponent </text>
</g>
<!-- LeftSidebarModule&#45;&gt;LeftSidebarComponent  -->
<g id="edge6" class="edge">
<title>LeftSidebarModule&#45;&gt;LeftSidebarComponent </title>
<path fill="none" stroke="#000000" stroke-dasharray="5,2" d="M409,-187.1061C409,-187.1061 409,-205.991 409,-205.991"/>
<polygon fill="#000000" stroke="#000000" points="405.5001,-205.9909 409,-215.991 412.5001,-205.991 405.5001,-205.9909"/>
</g>
<!-- DetailsLabelModule -->
<g id="node3" class="node">
<title>DetailsLabelModule</title>
<polygon fill="#8dd3c7" stroke="#000000" points="644.5744,-122 641.5744,-126 620.5744,-126 617.5744,-122 513.4256,-122 513.4256,-86 644.5744,-86 644.5744,-122"/>
<text text-anchor="middle" x="579" y="-99.8" font-family="Times,serif" font-size="14.00" fill="#000000">DetailsLabelModule</text>
</g>
<!-- DetailsLabelModule&#45;&gt;LeftSidebarModule -->
<g id="edge2" class="edge">
<title>DetailsLabelModule&#45;&gt;LeftSidebarModule</title>
<path fill="none" stroke="#000000" d="M579,-122.0225C579,-139.3734 579,-163 579,-163 579,-163 481.8187,-163 481.8187,-163"/>
<polygon fill="#000000" stroke="#000000" points="481.8188,-159.5001 471.8187,-163 481.8187,-166.5001 481.8188,-159.5001"/>
</g>
<!-- LabeledSlideToggleModule -->
<g id="node4" class="node">
<title>LabeledSlideToggleModule</title>
<polygon fill="#8dd3c7" stroke="#000000" points="495.573,-122 492.573,-126 471.573,-126 468.573,-122 322.427,-122 322.427,-86 495.573,-86 495.573,-122"/>
<text text-anchor="middle" x="409" y="-99.8" font-family="Times,serif" font-size="14.00" fill="#000000">LabeledSlideToggleModule</text>
</g>
<!-- LabeledSlideToggleModule&#45;&gt;LeftSidebarModule -->
<g id="edge3" class="edge">
<title>LabeledSlideToggleModule&#45;&gt;LeftSidebarModule</title>
<path fill="none" stroke="#000000" d="M409,-122.1061C409,-122.1061 409,-140.991 409,-140.991"/>
<polygon fill="#000000" stroke="#000000" points="405.5001,-140.9909 409,-150.991 412.5001,-140.991 405.5001,-140.9909"/>
</g>
<!-- NameInputModule -->
<g id="node5" class="node">
<title>NameInputModule</title>
<polygon fill="#8dd3c7" stroke="#000000" points="304.0283,-122 301.0283,-126 280.0283,-126 277.0283,-122 181.9717,-122 181.9717,-86 304.0283,-86 304.0283,-122"/>
<text text-anchor="middle" x="243" y="-99.8" font-family="Times,serif" font-size="14.00" fill="#000000">NameInputModule</text>
</g>
<!-- NameInputModule&#45;&gt;LeftSidebarModule -->
<g id="edge4" class="edge">
<title>NameInputModule&#45;&gt;LeftSidebarModule</title>
<path fill="none" stroke="#000000" d="M243,-122.0225C243,-139.3734 243,-163 243,-163 243,-163 336.2425,-163 336.2425,-163"/>
<polygon fill="#000000" stroke="#000000" points="336.2426,-166.5001 346.2425,-163 336.2425,-159.5001 336.2426,-166.5001"/>
</g>
<!-- OrganSelectorModule -->
<g id="node6" class="node">
<title>OrganSelectorModule</title>
<polygon fill="#8dd3c7" stroke="#000000" points="164.4004,-122 161.4004,-126 140.4004,-126 137.4004,-122 23.5996,-122 23.5996,-86 164.4004,-86 164.4004,-122"/>
<text text-anchor="middle" x="94" y="-99.8" font-family="Times,serif" font-size="14.00" fill="#000000">OrganSelectorModule</text>
</g>
<!-- OrganSelectorModule&#45;&gt;LeftSidebarModule -->
<g id="edge5" class="edge">
<title>OrganSelectorModule&#45;&gt;LeftSidebarModule</title>
<path fill="none" stroke="#000000" d="M94,-122.2843C94,-143.3211 94,-175 94,-175 94,-175 336.0121,-175 336.0121,-175"/>
<polygon fill="#000000" stroke="#000000" points="336.0122,-178.5001 346.0121,-175 336.0121,-171.5001 336.0122,-178.5001"/>
</g>
</g>
</svg>
