<?xml version="1.0" encoding="UTF-8" standalone="no"?>
<!DOCTYPE svg PUBLIC "-//W3C//DTD SVG 1.1//EN"
 "http://www.w3.org/Graphics/SVG/1.1/DTD/svg11.dtd">
<!-- Generated by graphviz version 2.47.3 (20210619.1520)
 -->
<!-- Title: dependencies Pages: 1 -->
<svg width="1557pt" height="247pt"
 viewBox="0.00 0.00 1557.00 246.80" xmlns="http://www.w3.org/2000/svg" xmlns:xlink="http://www.w3.org/1999/xlink">
<g id="graph0" class="graph" transform="scale(1 1) rotate(0) translate(4 242.8)">
<title>dependencies</title>
<polygon fill="white" stroke="transparent" points="-4,4 -4,-242.8 1553,-242.8 1553,4 -4,4"/>
<text text-anchor="middle" x="774.5" y="-8.2" font-family="sans-serif" font-size="14.00">dependencies</text>
<g id="clust1" class="cluster">
<title>cluster_LeftSidebarModule</title>
<polygon fill="none" stroke="black" stroke-dasharray="1,5" points="8,-32.8 8,-230.8 1541,-230.8 1541,-32.8 8,-32.8"/>
</g>
<g id="clust2" class="cluster">
<title>cluster_LeftSidebarModule_declarations</title>
<polygon fill="none" stroke="black" points="1369,-40.8 1369,-92.8 1533,-92.8 1533,-40.8 1369,-40.8"/>
</g>
<g id="clust5" class="cluster">
<title>cluster_LeftSidebarModule_exports</title>
<polygon fill="none" stroke="black" points="574,-170.8 574,-222.8 740,-222.8 740,-170.8 574,-170.8"/>
</g>
<g id="clust4" class="cluster">
<title>cluster_LeftSidebarModule_imports</title>
<polygon fill="none" stroke="black" points="16,-40.8 16,-92.8 1361,-92.8 1361,-40.8 16,-40.8"/>
</g>
<!-- LeftSidebarComponent -->
<g id="node1" class="node">
<title>LeftSidebarComponent</title>
<polygon fill="#ffffb3" stroke="black" points="1524.91,-84.8 1377.09,-84.8 1377.09,-48.8 1524.91,-48.8 1524.91,-84.8"/>
<text text-anchor="middle" x="1451" y="-62.6" font-family="Times,serif" font-size="14.00">LeftSidebarComponent</text>
</g>
<!-- LeftSidebarModule -->
<g id="node2" class="node">
<title>LeftSidebarModule</title>
<polygon fill="#8dd3c7" stroke="black" points="719.63,-149.8 716.63,-153.8 695.63,-153.8 692.63,-149.8 594.37,-149.8 594.37,-113.8 719.63,-113.8 719.63,-149.8"/>
<text text-anchor="middle" x="657" y="-127.6" font-family="Times,serif" font-size="14.00">LeftSidebarModule</text>
</g>
<!-- LeftSidebarComponent&#45;&gt;LeftSidebarModule -->
<g id="edge1" class="edge">
<title>LeftSidebarComponent&#45;&gt;LeftSidebarModule</title>
<path fill="none" stroke="black" d="M1451,-84.81C1451,-107.29 1451,-142.8 1451,-142.8 1451,-142.8 729.64,-142.8 729.64,-142.8"/>
<polygon fill="black" stroke="black" points="729.64,-139.3 719.64,-142.8 729.64,-146.3 729.64,-139.3"/>
</g>
<!-- LeftSidebarComponent  -->
<g id="node11" class="node">
<title>LeftSidebarComponent </title>
<polygon fill="#fb8072" stroke="black" points="732.41,-214.8 581.59,-214.8 581.59,-178.8 732.41,-178.8 732.41,-214.8"/>
<text text-anchor="middle" x="657" y="-192.6" font-family="Times,serif" font-size="14.00">LeftSidebarComponent </text>
</g>
<!-- LeftSidebarModule&#45;&gt;LeftSidebarComponent  -->
<g id="edge11" class="edge">
<title>LeftSidebarModule&#45;&gt;LeftSidebarComponent </title>
<path fill="none" stroke="black" stroke-dasharray="5,2" d="M657,-149.91C657,-149.91 657,-168.79 657,-168.79"/>
<polygon fill="black" stroke="black" points="653.5,-168.79 657,-178.79 660.5,-168.79 653.5,-168.79"/>
</g>
<!-- DetailsLabelModule -->
<g id="node3" class="node">
<title>DetailsLabelModule</title>
<polygon fill="#8dd3c7" stroke="black" points="1352.57,-84.8 1349.57,-88.8 1328.57,-88.8 1325.57,-84.8 1221.43,-84.8 1221.43,-48.8 1352.57,-48.8 1352.57,-84.8"/>
<text text-anchor="middle" x="1287" y="-62.6" font-family="Times,serif" font-size="14.00">DetailsLabelModule</text>
</g>
<!-- DetailsLabelModule&#45;&gt;LeftSidebarModule -->
<g id="edge2" class="edge">
<title>DetailsLabelModule&#45;&gt;LeftSidebarModule</title>
<path fill="none" stroke="black" d="M1287,-84.93C1287,-105.37 1287,-135.8 1287,-135.8 1287,-135.8 729.71,-135.8 729.71,-135.8"/>
<polygon fill="black" stroke="black" points="729.71,-132.3 719.71,-135.8 729.71,-139.3 729.71,-132.3"/>
</g>
<!-- ExtractionSetDropdownModule -->
<g id="node4" class="node">
<title>ExtractionSetDropdownModule</title>
<polygon fill="#8dd3c7" stroke="black" points="1203.63,-84.8 1200.63,-88.8 1179.63,-88.8 1176.63,-84.8 1008.37,-84.8 1008.37,-48.8 1203.63,-48.8 1203.63,-84.8"/>
<text text-anchor="middle" x="1106" y="-62.6" font-family="Times,serif" font-size="14.00">ExtractionSetDropdownModule</text>
</g>
<!-- ExtractionSetDropdownModule&#45;&gt;LeftSidebarModule -->
<g id="edge3" class="edge">
<title>ExtractionSetDropdownModule&#45;&gt;LeftSidebarModule</title>
<path fill="none" stroke="black" d="M1106,-85.07C1106,-103.36 1106,-128.8 1106,-128.8 1106,-128.8 729.9,-128.8 729.9,-128.8"/>
<polygon fill="black" stroke="black" points="729.9,-125.3 719.9,-128.8 729.9,-132.3 729.9,-125.3"/>
</g>
<!-- JsonFileReaderModule -->
<g id="node5" class="node">
<title>JsonFileReaderModule</title>
<polygon fill="#8dd3c7" stroke="black" points="989.86,-84.8 986.86,-88.8 965.86,-88.8 962.86,-84.8 844.14,-84.8 844.14,-48.8 989.86,-48.8 989.86,-84.8"/>
<text text-anchor="middle" x="917" y="-62.6" font-family="Times,serif" font-size="14.00">JsonFileReaderModule</text>
</g>
<!-- JsonFileReaderModule&#45;&gt;LeftSidebarModule -->
<g id="edge4" class="edge">
<title>JsonFileReaderModule&#45;&gt;LeftSidebarModule</title>
<path fill="none" stroke="black" d="M917,-84.81C917,-100.85 917,-121.8 917,-121.8 917,-121.8 729.94,-121.8 729.94,-121.8"/>
<polygon fill="black" stroke="black" points="729.94,-118.3 719.94,-121.8 729.94,-125.3 729.94,-118.3"/>
</g>
<!-- LabeledSlideToggleModule -->
<g id="node6" class="node">
<title>LabeledSlideToggleModule</title>
<polygon fill="#8dd3c7" stroke="black" points="826.57,-84.8 823.57,-88.8 802.57,-88.8 799.57,-84.8 653.43,-84.8 653.43,-48.8 826.57,-48.8 826.57,-84.8"/>
<text text-anchor="middle" x="740" y="-62.6" font-family="Times,serif" font-size="14.00">LabeledSlideToggleModule</text>
</g>
<!-- LabeledSlideToggleModule&#45;&gt;LeftSidebarModule -->
<g id="edge5" class="edge">
<title>LabeledSlideToggleModule&#45;&gt;LeftSidebarModule</title>
<path fill="none" stroke="black" d="M686.64,-84.91C686.64,-84.91 686.64,-103.79 686.64,-103.79"/>
<polygon fill="black" stroke="black" points="683.14,-103.79 686.64,-113.79 690.14,-103.79 683.14,-103.79"/>
</g>
<!-- NameInputModule -->
<g id="node7" class="node">
<title>NameInputModule</title>
<polygon fill="#8dd3c7" stroke="black" points="635.03,-84.8 632.03,-88.8 611.03,-88.8 608.03,-84.8 512.97,-84.8 512.97,-48.8 635.03,-48.8 635.03,-84.8"/>
<text text-anchor="middle" x="574" y="-62.6" font-family="Times,serif" font-size="14.00">NameInputModule</text>
</g>
<!-- NameInputModule&#45;&gt;LeftSidebarModule -->
<g id="edge6" class="edge">
<title>NameInputModule&#45;&gt;LeftSidebarModule</title>
<path fill="none" stroke="black" d="M614.72,-84.91C614.72,-84.91 614.72,-103.79 614.72,-103.79"/>
<polygon fill="black" stroke="black" points="611.22,-103.79 614.72,-113.79 618.22,-103.79 611.22,-103.79"/>
</g>
<!-- OpacitySliderModule -->
<g id="node8" class="node">
<title>OpacitySliderModule</title>
<polygon fill="#8dd3c7" stroke="black" points="494.81,-84.8 491.81,-88.8 470.81,-88.8 467.81,-84.8 357.19,-84.8 357.19,-48.8 494.81,-48.8 494.81,-84.8"/>
<text text-anchor="middle" x="426" y="-62.6" font-family="Times,serif" font-size="14.00">OpacitySliderModule</text>
</g>
<!-- OpacitySliderModule&#45;&gt;LeftSidebarModule -->
<g id="edge7" class="edge">
<title>OpacitySliderModule&#45;&gt;LeftSidebarModule</title>
<path fill="none" stroke="black" d="M426,-84.81C426,-100.85 426,-121.8 426,-121.8 426,-121.8 584.18,-121.8 584.18,-121.8"/>
<polygon fill="black" stroke="black" points="584.18,-125.3 594.18,-121.8 584.18,-118.3 584.18,-125.3"/>
</g>
<!-- VisibilityMenuModule -->
<g id="node9" class="node">
<title>VisibilityMenuModule</title>
<polygon fill="#8dd3c7" stroke="black" points="339.6,-84.8 336.6,-88.8 315.6,-88.8 312.6,-84.8 194.4,-84.8 194.4,-48.8 339.6,-48.8 339.6,-84.8"/>
<text text-anchor="middle" x="267" y="-62.6" font-family="Times,serif" font-size="14.00">VisibilityMenuModule</text>
</g>
<!-- VisibilityMenuModule&#45;&gt;LeftSidebarModule -->
<g id="edge8" class="edge">
<title>VisibilityMenuModule&#45;&gt;LeftSidebarModule</title>
<path fill="none" stroke="black" d="M267,-85.07C267,-103.36 267,-128.8 267,-128.8 267,-128.8 584.34,-128.8 584.34,-128.8"/>
<polygon fill="black" stroke="black" points="584.34,-132.3 594.34,-128.8 584.34,-125.3 584.34,-132.3"/>
</g>
<!-- VisibilityToggleModule -->
<g id="node10" class="node">
<title>VisibilityToggleModule</title>
<polygon fill="#8dd3c7" stroke="black" points="176.1,-84.8 173.1,-88.8 152.1,-88.8 149.1,-84.8 23.9,-84.8 23.9,-48.8 176.1,-48.8 176.1,-84.8"/>
<text text-anchor="middle" x="100" y="-62.6" font-family="Times,serif" font-size="14.00">VisibilityToggleModule</text>
</g>
<!-- VisibilityToggleModule&#45;&gt;LeftSidebarModule -->
<g id="edge9" class="edge">
<title>VisibilityToggleModule&#45;&gt;LeftSidebarModule</title>
<path fill="none" stroke="black" d="M125.35,-84.93C125.35,-105.37 125.35,-135.8 125.35,-135.8 125.35,-135.8 584.19,-135.8 584.19,-135.8"/>
<polygon fill="black" stroke="black" points="584.19,-139.3 594.19,-135.8 584.19,-132.3 584.19,-139.3"/>
</g>
<!-- VisibilityToggleModule&#45;&gt;LeftSidebarModule -->
<g id="edge10" class="edge">
<title>VisibilityToggleModule&#45;&gt;LeftSidebarModule</title>
<path fill="none" stroke="black" d="M74.65,-84.81C74.65,-107.29 74.65,-142.8 74.65,-142.8 74.65,-142.8 584.12,-142.8 584.12,-142.8"/>
<polygon fill="black" stroke="black" points="584.13,-146.3 594.12,-142.8 584.12,-139.3 584.13,-146.3"/>
</g>
</g>
</svg>
