<?xml version="1.0" encoding="UTF-8" standalone="no"?>
<!DOCTYPE svg PUBLIC "-//W3C//DTD SVG 1.1//EN"
 "http://www.w3.org/Graphics/SVG/1.1/DTD/svg11.dtd">
<!-- Generated by graphviz version 2.40.1 (20161225.0304)
 -->
<!-- Title: dependencies Pages: 1 -->
<svg width="1557pt" height="284pt"
 viewBox="0.00 0.00 1557.00 284.00" xmlns="http://www.w3.org/2000/svg" xmlns:xlink="http://www.w3.org/1999/xlink">
<g id="graph0" class="graph" transform="scale(1 1) rotate(0) translate(4 280)">
<title>dependencies</title>
<polygon fill="#ffffff" stroke="transparent" points="-4,4 -4,-280 1553,-280 1553,4 -4,4"/>
<text text-anchor="start" x="753.5091" y="-42.4" font-family="sans-serif" font-weight="bold" font-size="14.00" fill="#000000">Legend</text>
<polygon fill="#ffffb3" stroke="transparent" points="540.5,-10 540.5,-30 560.5,-30 560.5,-10 540.5,-10"/>
<text text-anchor="start" x="564.129" y="-15.4" font-family="sans-serif" font-size="14.00" fill="#000000"> &#160;Declarations</text>
<polygon fill="#8dd3c7" stroke="transparent" points="653.5,-10 653.5,-30 673.5,-30 673.5,-10 653.5,-10"/>
<text text-anchor="start" x="677.2251" y="-15.4" font-family="sans-serif" font-size="14.00" fill="#000000"> &#160;Module</text>
<polygon fill="#80b1d3" stroke="transparent" points="739.5,-10 739.5,-30 759.5,-30 759.5,-10 739.5,-10"/>
<text text-anchor="start" x="763.2812" y="-15.4" font-family="sans-serif" font-size="14.00" fill="#000000"> &#160;Bootstrap</text>
<polygon fill="#fdb462" stroke="transparent" points="836.5,-10 836.5,-30 856.5,-30 856.5,-10 836.5,-10"/>
<text text-anchor="start" x="860.1732" y="-15.4" font-family="sans-serif" font-size="14.00" fill="#000000"> &#160;Providers</text>
<polygon fill="#fb8072" stroke="transparent" points="932.5,-10 932.5,-30 952.5,-30 952.5,-10 932.5,-10"/>
<text text-anchor="start" x="956.2258" y="-15.4" font-family="sans-serif" font-size="14.00" fill="#000000"> &#160;Exports</text>
<g id="clust1" class="cluster">
<title>cluster_LeftSidebarModule</title>
<polygon fill="none" stroke="#000000" stroke-dasharray="1,5" points="8,-70 8,-268 1541,-268 1541,-70 8,-70"/>
</g>
<g id="clust2" class="cluster">
<title>cluster_LeftSidebarModule_declarations</title>
<polygon fill="none" stroke="#000000" points="1369,-78 1369,-130 1533,-130 1533,-78 1369,-78"/>
</g>
<g id="clust4" class="cluster">
<title>cluster_LeftSidebarModule_imports</title>
<polygon fill="none" stroke="#000000" points="16,-78 16,-130 1361,-130 1361,-78 16,-78"/>
</g>
<g id="clust5" class="cluster">
<title>cluster_LeftSidebarModule_exports</title>
<polygon fill="none" stroke="#000000" points="574,-208 574,-260 740,-260 740,-208 574,-208"/>
</g>
<!-- LeftSidebarComponent -->
<g id="node1" class="node">
<title>LeftSidebarComponent</title>
<polygon fill="#ffffb3" stroke="#000000" points="1524.9144,-122 1377.0856,-122 1377.0856,-86 1524.9144,-86 1524.9144,-122"/>
<text text-anchor="middle" x="1451" y="-99.8" font-family="Times,serif" font-size="14.00" fill="#000000">LeftSidebarComponent</text>
</g>
<!-- LeftSidebarModule -->
<g id="node2" class="node">
<title>LeftSidebarModule</title>
<polygon fill="#8dd3c7" stroke="#000000" points="719.6317,-187 716.6317,-191 695.6317,-191 692.6317,-187 594.3683,-187 594.3683,-151 719.6317,-151 719.6317,-187"/>
<text text-anchor="middle" x="657" y="-164.8" font-family="Times,serif" font-size="14.00" fill="#000000">LeftSidebarModule</text>
</g>
<!-- LeftSidebarComponent&#45;&gt;LeftSidebarModule -->
<g id="edge1" class="edge">
<title>LeftSidebarComponent&#45;&gt;LeftSidebarModule</title>
<path fill="none" stroke="#000000" d="M1451,-122.0109C1451,-144.4852 1451,-180 1451,-180 1451,-180 729.6353,-180 729.6353,-180"/>
<polygon fill="#000000" stroke="#000000" points="729.6353,-176.5001 719.6353,-180 729.6353,-183.5001 729.6353,-176.5001"/>
</g>
<!-- LeftSidebarComponent  -->
<g id="node11" class="node">
<title>LeftSidebarComponent </title>
<polygon fill="#fb8072" stroke="#000000" points="732.4138,-252 581.5862,-252 581.5862,-216 732.4138,-216 732.4138,-252"/>
<text text-anchor="middle" x="657" y="-229.8" font-family="Times,serif" font-size="14.00" fill="#000000">LeftSidebarComponent </text>
</g>
<!-- LeftSidebarModule&#45;&gt;LeftSidebarComponent  -->
<g id="edge11" class="edge">
<title>LeftSidebarModule&#45;&gt;LeftSidebarComponent </title>
<path fill="none" stroke="#000000" stroke-dasharray="5,2" d="M657,-187.1061C657,-187.1061 657,-205.991 657,-205.991"/>
<polygon fill="#000000" stroke="#000000" points="653.5001,-205.9909 657,-215.991 660.5001,-205.991 653.5001,-205.9909"/>
</g>
<!-- DetailsLabelModule -->
<g id="node3" class="node">
<title>DetailsLabelModule</title>
<polygon fill="#8dd3c7" stroke="#000000" points="1352.5744,-122 1349.5744,-126 1328.5744,-126 1325.5744,-122 1221.4256,-122 1221.4256,-86 1352.5744,-86 1352.5744,-122"/>
<text text-anchor="middle" x="1287" y="-99.8" font-family="Times,serif" font-size="14.00" fill="#000000">DetailsLabelModule</text>
</g>
<!-- DetailsLabelModule&#45;&gt;LeftSidebarModule -->
<g id="edge2" class="edge">
<title>DetailsLabelModule&#45;&gt;LeftSidebarModule</title>
<path fill="none" stroke="#000000" d="M1287,-122.1289C1287,-142.5724 1287,-173 1287,-173 1287,-173 729.71,-173 729.71,-173"/>
<polygon fill="#000000" stroke="#000000" points="729.7101,-169.5001 719.71,-173 729.71,-176.5001 729.7101,-169.5001"/>
</g>
<!-- ExtractionSetDropdownModule -->
<g id="node4" class="node">
<title>ExtractionSetDropdownModule</title>
<polygon fill="#8dd3c7" stroke="#000000" points="1203.626,-122 1200.626,-126 1179.626,-126 1176.626,-122 1008.374,-122 1008.374,-86 1203.626,-86 1203.626,-122"/>
<text text-anchor="middle" x="1106" y="-99.8" font-family="Times,serif" font-size="14.00" fill="#000000">ExtractionSetDropdownModule</text>
</g>
<!-- ExtractionSetDropdownModule&#45;&gt;LeftSidebarModule -->
<g id="edge3" class="edge">
<title>ExtractionSetDropdownModule&#45;&gt;LeftSidebarModule</title>
<path fill="none" stroke="#000000" d="M1106,-122.2667C1106,-140.5552 1106,-166 1106,-166 1106,-166 729.9043,-166 729.9043,-166"/>
<polygon fill="#000000" stroke="#000000" points="729.9043,-162.5001 719.9043,-166 729.9043,-169.5001 729.9043,-162.5001"/>
</g>
<!-- JsonFileReaderModule -->
<g id="node5" class="node">
<title>JsonFileReaderModule</title>
<polygon fill="#8dd3c7" stroke="#000000" points="989.8585,-122 986.8585,-126 965.8585,-126 962.8585,-122 844.1415,-122 844.1415,-86 989.8585,-86 989.8585,-122"/>
<text text-anchor="middle" x="917" y="-99.8" font-family="Times,serif" font-size="14.00" fill="#000000">JsonFileReaderModule</text>
</g>
<!-- JsonFileReaderModule&#45;&gt;LeftSidebarModule -->
<g id="edge4" class="edge">
<title>JsonFileReaderModule&#45;&gt;LeftSidebarModule</title>
<path fill="none" stroke="#000000" d="M917,-122.0091C917,-138.0494 917,-159 917,-159 917,-159 729.9387,-159 729.9387,-159"/>
<polygon fill="#000000" stroke="#000000" points="729.9388,-155.5001 719.9387,-159 729.9387,-162.5001 729.9388,-155.5001"/>
</g>
<!-- LabeledSlideToggleModule -->
<g id="node6" class="node">
<title>LabeledSlideToggleModule</title>
<polygon fill="#8dd3c7" stroke="#000000" points="826.573,-122 823.573,-126 802.573,-126 799.573,-122 653.427,-122 653.427,-86 826.573,-86 826.573,-122"/>
<text text-anchor="middle" x="740" y="-99.8" font-family="Times,serif" font-size="14.00" fill="#000000">LabeledSlideToggleModule</text>
</g>
<!-- LabeledSlideToggleModule&#45;&gt;LeftSidebarModule -->
<g id="edge5" class="edge">
<title>LabeledSlideToggleModule&#45;&gt;LeftSidebarModule</title>
<path fill="none" stroke="#000000" d="M686.6396,-122.1061C686.6396,-122.1061 686.6396,-140.991 686.6396,-140.991"/>
<polygon fill="#000000" stroke="#000000" points="683.1396,-140.9909 686.6396,-150.991 690.1396,-140.991 683.1396,-140.9909"/>
</g>
<!-- NameInputModule -->
<g id="node7" class="node">
<title>NameInputModule</title>
<polygon fill="#8dd3c7" stroke="#000000" points="635.0283,-122 632.0283,-126 611.0283,-126 608.0283,-122 512.9717,-122 512.9717,-86 635.0283,-86 635.0283,-122"/>
<text text-anchor="middle" x="574" y="-99.8" font-family="Times,serif" font-size="14.00" fill="#000000">NameInputModule</text>
</g>
<!-- NameInputModule&#45;&gt;LeftSidebarModule -->
<g id="edge6" class="edge">
<title>NameInputModule&#45;&gt;LeftSidebarModule</title>
<path fill="none" stroke="#000000" d="M614.7241,-122.1061C614.7241,-122.1061 614.7241,-140.991 614.7241,-140.991"/>
<polygon fill="#000000" stroke="#000000" points="611.2241,-140.9909 614.7241,-150.991 618.2241,-140.991 611.2241,-140.9909"/>
</g>
<!-- OpacitySliderModule -->
<g id="node8" class="node">
<title>OpacitySliderModule</title>
<polygon fill="#8dd3c7" stroke="#000000" points="494.8061,-122 491.8061,-126 470.8061,-126 467.8061,-122 357.1939,-122 357.1939,-86 494.8061,-86 494.8061,-122"/>
<text text-anchor="middle" x="426" y="-99.8" font-family="Times,serif" font-size="14.00" fill="#000000">OpacitySliderModule</text>
</g>
<!-- OpacitySliderModule&#45;&gt;LeftSidebarModule -->
<g id="edge7" class="edge">
<title>OpacitySliderModule&#45;&gt;LeftSidebarModule</title>
<path fill="none" stroke="#000000" d="M426,-122.0091C426,-138.0494 426,-159 426,-159 426,-159 584.1834,-159 584.1834,-159"/>
<polygon fill="#000000" stroke="#000000" points="584.1834,-162.5001 594.1834,-159 584.1833,-155.5001 584.1834,-162.5001"/>
</g>
<!-- VisibilityMenuModule -->
<g id="node9" class="node">
<title>VisibilityMenuModule</title>
<polygon fill="#8dd3c7" stroke="#000000" points="339.6038,-122 336.6038,-126 315.6038,-126 312.6038,-122 194.3962,-122 194.3962,-86 339.6038,-86 339.6038,-122"/>
<text text-anchor="middle" x="267" y="-99.8" font-family="Times,serif" font-size="14.00" fill="#000000">VisibilityMenuModule</text>
</g>
<!-- VisibilityMenuModule&#45;&gt;LeftSidebarModule -->
<g id="edge8" class="edge">
<title>VisibilityMenuModule&#45;&gt;LeftSidebarModule</title>
<path fill="none" stroke="#000000" d="M267,-122.2667C267,-140.5552 267,-166 267,-166 267,-166 584.3398,-166 584.3398,-166"/>
<polygon fill="#000000" stroke="#000000" points="584.3398,-169.5001 594.3398,-166 584.3397,-162.5001 584.3398,-169.5001"/>
</g>
<!-- VisibilityToggleModule -->
<g id="node10" class="node">
<title>VisibilityToggleModule</title>
<polygon fill="#8dd3c7" stroke="#000000" points="176.1024,-122 173.1024,-126 152.1024,-126 149.1024,-122 23.8976,-122 23.8976,-86 176.1024,-86 176.1024,-122"/>
<text text-anchor="middle" x="100" y="-99.8" font-family="Times,serif" font-size="14.00" fill="#000000">VisibilityToggleModule</text>
</g>
<!-- VisibilityToggleModule&#45;&gt;LeftSidebarModule -->
<g id="edge9" class="edge">
<title>VisibilityToggleModule&#45;&gt;LeftSidebarModule</title>
<path fill="none" stroke="#000000" d="M125.3504,-122.1289C125.3504,-142.5724 125.3504,-173 125.3504,-173 125.3504,-173 584.1876,-173 584.1876,-173"/>
<polygon fill="#000000" stroke="#000000" points="584.1876,-176.5001 594.1876,-173 584.1875,-169.5001 584.1876,-176.5001"/>
</g>
<!-- VisibilityToggleModule&#45;&gt;LeftSidebarModule -->
<g id="edge10" class="edge">
<title>VisibilityToggleModule&#45;&gt;LeftSidebarModule</title>
<path fill="none" stroke="#000000" d="M74.6496,-122.0109C74.6496,-144.4852 74.6496,-180 74.6496,-180 74.6496,-180 584.125,-180 584.125,-180"/>
<polygon fill="#000000" stroke="#000000" points="584.125,-183.5001 594.125,-180 584.125,-176.5001 584.125,-183.5001"/>
</g>
</g>
</svg>
