<?xml version="1.0" encoding="UTF-8" standalone="no"?>
<!DOCTYPE svg PUBLIC "-//W3C//DTD SVG 1.1//EN"
 "http://www.w3.org/Graphics/SVG/1.1/DTD/svg11.dtd">
<!-- Generated by graphviz version 2.40.1 (20161225.0304)
 -->
<!-- Title: dependencies Pages: 1 -->
<svg width="681pt" height="284pt"
 viewBox="0.00 0.00 681.00 284.00" xmlns="http://www.w3.org/2000/svg" xmlns:xlink="http://www.w3.org/1999/xlink">
<g id="graph0" class="graph" transform="scale(1 1) rotate(0) translate(4 280)">
<title>dependencies</title>
<polygon fill="#ffffff" stroke="transparent" points="-4,4 -4,-280 677,-280 677,4 -4,4"/>
<text text-anchor="start" x="315.5091" y="-42.4" font-family="sans-serif" font-weight="bold" font-size="14.00" fill="#000000">Legend</text>
<polygon fill="#ffffb3" stroke="transparent" points="102.5,-10 102.5,-30 122.5,-30 122.5,-10 102.5,-10"/>
<text text-anchor="start" x="126.129" y="-15.4" font-family="sans-serif" font-size="14.00" fill="#000000"> &#160;Declarations</text>
<polygon fill="#8dd3c7" stroke="transparent" points="215.5,-10 215.5,-30 235.5,-30 235.5,-10 215.5,-10"/>
<text text-anchor="start" x="239.2251" y="-15.4" font-family="sans-serif" font-size="14.00" fill="#000000"> &#160;Module</text>
<polygon fill="#80b1d3" stroke="transparent" points="301.5,-10 301.5,-30 321.5,-30 321.5,-10 301.5,-10"/>
<text text-anchor="start" x="325.2812" y="-15.4" font-family="sans-serif" font-size="14.00" fill="#000000"> &#160;Bootstrap</text>
<polygon fill="#fdb462" stroke="transparent" points="398.5,-10 398.5,-30 418.5,-30 418.5,-10 398.5,-10"/>
<text text-anchor="start" x="422.1732" y="-15.4" font-family="sans-serif" font-size="14.00" fill="#000000"> &#160;Providers</text>
<polygon fill="#fb8072" stroke="transparent" points="494.5,-10 494.5,-30 514.5,-30 514.5,-10 494.5,-10"/>
<text text-anchor="start" x="518.2258" y="-15.4" font-family="sans-serif" font-size="14.00" fill="#000000"> &#160;Exports</text>
<g id="clust1" class="cluster">
<title>cluster_LeftSidebarModule</title>
<polygon fill="none" stroke="#000000" stroke-dasharray="1,5" points="8,-70 8,-268 665,-268 665,-70 8,-70"/>
</g>
<g id="clust2" class="cluster">
<title>cluster_LeftSidebarModule_declarations</title>
<polygon fill="none" stroke="#000000" points="493,-78 493,-130 657,-130 657,-78 493,-78"/>
</g>
<g id="clust4" class="cluster">
<title>cluster_LeftSidebarModule_imports</title>
<polygon fill="none" stroke="#000000" points="16,-78 16,-130 485,-130 485,-78 16,-78"/>
</g>
<g id="clust5" class="cluster">
<title>cluster_LeftSidebarModule_exports</title>
<polygon fill="none" stroke="#000000" points="240,-208 240,-260 406,-260 406,-208 240,-208"/>
</g>
<!-- LeftSidebarComponent -->
<g id="node1" class="node">
<title>LeftSidebarComponent</title>
<polygon fill="#ffffb3" stroke="#000000" points="648.9144,-122 501.0856,-122 501.0856,-86 648.9144,-86 648.9144,-122"/>
<text text-anchor="middle" x="575" y="-99.8" font-family="Times,serif" font-size="14.00" fill="#000000">LeftSidebarComponent</text>
</g>
<!-- LeftSidebarModule -->
<g id="node2" class="node">
<title>LeftSidebarModule</title>
<polygon fill="#8dd3c7" stroke="#000000" points="385.6317,-187 382.6317,-191 361.6317,-191 358.6317,-187 260.3683,-187 260.3683,-151 385.6317,-151 385.6317,-187"/>
<text text-anchor="middle" x="323" y="-164.8" font-family="Times,serif" font-size="14.00" fill="#000000">LeftSidebarModule</text>
</g>
<!-- LeftSidebarComponent&#45;&gt;LeftSidebarModule -->
<g id="edge1" class="edge">
<title>LeftSidebarComponent&#45;&gt;LeftSidebarModule</title>
<path fill="none" stroke="#000000" d="M575,-122.1061C575,-141.3391 575,-169 575,-169 575,-169 395.9402,-169 395.9402,-169"/>
<polygon fill="#000000" stroke="#000000" points="395.9402,-165.5001 385.9402,-169 395.9402,-172.5001 395.9402,-165.5001"/>
</g>
<!-- LeftSidebarComponent  -->
<g id="node6" class="node">
<title>LeftSidebarComponent </title>
<polygon fill="#fb8072" stroke="#000000" points="398.4138,-252 247.5862,-252 247.5862,-216 398.4138,-216 398.4138,-252"/>
<text text-anchor="middle" x="323" y="-229.8" font-family="Times,serif" font-size="14.00" fill="#000000">LeftSidebarComponent </text>
</g>
<!-- LeftSidebarModule&#45;&gt;LeftSidebarComponent  -->
<g id="edge5" class="edge">
<title>LeftSidebarModule&#45;&gt;LeftSidebarComponent </title>
<path fill="none" stroke="#000000" stroke-dasharray="5,2" d="M323,-187.1061C323,-187.1061 323,-205.991 323,-205.991"/>
<polygon fill="#000000" stroke="#000000" points="319.5001,-205.9909 323,-215.991 326.5001,-205.991 319.5001,-205.9909"/>
</g>
<!-- GenderSelectorModule -->
<g id="node3" class="node">
<title>GenderSelectorModule</title>
<polygon fill="#8dd3c7" stroke="#000000" points="477.1149,-122 474.1149,-126 453.1149,-126 450.1149,-122 330.8851,-122 330.8851,-86 477.1149,-86 477.1149,-122"/>
<text text-anchor="middle" x="404" y="-99.8" font-family="Times,serif" font-size="14.00" fill="#000000">GenderSelectorModule</text>
</g>
<!-- GenderSelectorModule&#45;&gt;LeftSidebarModule -->
<g id="edge2" class="edge">
<title>GenderSelectorModule&#45;&gt;LeftSidebarModule</title>
<path fill="none" stroke="#000000" d="M358.2542,-122.1061C358.2542,-122.1061 358.2542,-140.991 358.2542,-140.991"/>
<polygon fill="#000000" stroke="#000000" points="354.7543,-140.9909 358.2542,-150.991 361.7543,-140.991 354.7543,-140.9909"/>
</g>
<!-- OrganSelectorModule -->
<g id="node4" class="node">
<title>OrganSelectorModule</title>
<polygon fill="#8dd3c7" stroke="#000000" points="312.4004,-122 309.4004,-126 288.4004,-126 285.4004,-122 171.5996,-122 171.5996,-86 312.4004,-86 312.4004,-122"/>
<text text-anchor="middle" x="242" y="-99.8" font-family="Times,serif" font-size="14.00" fill="#000000">OrganSelectorModule</text>
</g>
<!-- OrganSelectorModule&#45;&gt;LeftSidebarModule -->
<g id="edge3" class="edge">
<title>OrganSelectorModule&#45;&gt;LeftSidebarModule</title>
<path fill="none" stroke="#000000" d="M286.1922,-122.1061C286.1922,-122.1061 286.1922,-140.991 286.1922,-140.991"/>
<polygon fill="#000000" stroke="#000000" points="282.6922,-140.9909 286.1922,-150.991 289.6922,-140.991 282.6922,-140.9909"/>
</g>
<!-- SideSelectorModule -->
<g id="node5" class="node">
<title>SideSelectorModule</title>
<polygon fill="#8dd3c7" stroke="#000000" points="154.3062,-122 151.3062,-126 130.3062,-126 127.3062,-122 23.6938,-122 23.6938,-86 154.3062,-86 154.3062,-122"/>
<text text-anchor="middle" x="89" y="-99.8" font-family="Times,serif" font-size="14.00" fill="#000000">SideSelectorModule</text>
</g>
<!-- SideSelectorModule&#45;&gt;LeftSidebarModule -->
<g id="edge4" class="edge">
<title>SideSelectorModule&#45;&gt;LeftSidebarModule</title>
<path fill="none" stroke="#000000" d="M89,-122.1061C89,-141.3391 89,-169 89,-169 89,-169 250.2923,-169 250.2923,-169"/>
<polygon fill="#000000" stroke="#000000" points="250.2923,-172.5001 260.2923,-169 250.2923,-165.5001 250.2923,-172.5001"/>
</g>
</g>
</svg>
