<?xml version="1.0" encoding="UTF-8" standalone="no"?>
<!DOCTYPE svg PUBLIC "-//W3C//DTD SVG 1.1//EN"
 "http://www.w3.org/Graphics/SVG/1.1/DTD/svg11.dtd">
<!-- Generated by graphviz version 2.47.3 (20210619.1520)
 -->
<!-- Title: dependencies Pages: 1 -->
<svg width="1557pt" height="247pt"
 viewBox="0.00 0.00 1557.00 246.80" xmlns="http://www.w3.org/2000/svg" xmlns:xlink="http://www.w3.org/1999/xlink">
<g id="graph0" class="graph" transform="scale(1 1) rotate(0) translate(4 242.8)">
<title>dependencies</title>
<polygon fill="white" stroke="transparent" points="-4,4 -4,-242.8 1553,-242.8 1553,4 -4,4"/>
<text text-anchor="middle" x="774.5" y="-8.2" font-family="sans-serif" font-size="14.00">dependencies</text>
<g id="clust1" class="cluster">
<title>cluster_LeftSidebarModule</title>
<polygon fill="none" stroke="black" stroke-dasharray="1,5" points="8,-32.8 8,-230.8 1541,-230.8 1541,-32.8 8,-32.8"/>
</g>
<g id="clust5" class="cluster">
<title>cluster_LeftSidebarModule_exports</title>
<polygon fill="none" stroke="black" points="589,-170.8 589,-222.8 755,-222.8 755,-170.8 589,-170.8"/>
</g>
<g id="clust4" class="cluster">
<title>cluster_LeftSidebarModule_imports</title>
<polygon fill="none" stroke="black" points="188,-40.8 188,-92.8 1533,-92.8 1533,-40.8 188,-40.8"/>
</g>
<g id="clust2" class="cluster">
<title>cluster_LeftSidebarModule_declarations</title>
<polygon fill="none" stroke="black" points="16,-40.8 16,-92.8 180,-92.8 180,-40.8 16,-40.8"/>
</g>
<!-- LeftSidebarComponent -->
<g id="node1" class="node">
<title>LeftSidebarComponent</title>
<polygon fill="#ffffb3" stroke="black" points="171.91,-84.8 24.09,-84.8 24.09,-48.8 171.91,-48.8 171.91,-84.8"/>
<text text-anchor="middle" x="98" y="-62.6" font-family="Times,serif" font-size="14.00">LeftSidebarComponent</text>
</g>
<!-- LeftSidebarModule -->
<g id="node2" class="node">
<title>LeftSidebarModule</title>
<polygon fill="#8dd3c7" stroke="black" points="734.63,-149.8 731.63,-153.8 710.63,-153.8 707.63,-149.8 609.37,-149.8 609.37,-113.8 734.63,-113.8 734.63,-149.8"/>
<text text-anchor="middle" x="672" y="-127.6" font-family="Times,serif" font-size="14.00">LeftSidebarModule</text>
</g>
<!-- LeftSidebarComponent&#45;&gt;LeftSidebarModule -->
<g id="edge1" class="edge">
<title>LeftSidebarComponent&#45;&gt;LeftSidebarModule</title>
<path fill="none" stroke="black" d="M98,-84.81C98,-107.29 98,-142.8 98,-142.8 98,-142.8 599.2,-142.8 599.2,-142.8"/>
<polygon fill="black" stroke="black" points="599.2,-146.3 609.2,-142.8 599.2,-139.3 599.2,-146.3"/>
</g>
<!-- LeftSidebarComponent  -->
<g id="node11" class="node">
<title>LeftSidebarComponent </title>
<polygon fill="#fb8072" stroke="black" points="747.41,-214.8 596.59,-214.8 596.59,-178.8 747.41,-178.8 747.41,-214.8"/>
<text text-anchor="middle" x="672" y="-192.6" font-family="Times,serif" font-size="14.00">LeftSidebarComponent </text>
</g>
<!-- LeftSidebarModule&#45;&gt;LeftSidebarComponent  -->
<g id="edge11" class="edge">
<title>LeftSidebarModule&#45;&gt;LeftSidebarComponent </title>
<path fill="none" stroke="black" stroke-dasharray="5,2" d="M672,-149.91C672,-149.91 672,-168.79 672,-168.79"/>
<polygon fill="black" stroke="black" points="668.5,-168.79 672,-178.79 675.5,-168.79 668.5,-168.79"/>
</g>
<!-- DetailsLabelModule -->
<g id="node3" class="node">
<title>DetailsLabelModule</title>
<polygon fill="#8dd3c7" stroke="black" points="1524.57,-84.8 1521.57,-88.8 1500.57,-88.8 1497.57,-84.8 1393.43,-84.8 1393.43,-48.8 1524.57,-48.8 1524.57,-84.8"/>
<text text-anchor="middle" x="1459" y="-62.6" font-family="Times,serif" font-size="14.00">DetailsLabelModule</text>
</g>
<!-- DetailsLabelModule&#45;&gt;LeftSidebarModule -->
<g id="edge2" class="edge">
<title>DetailsLabelModule&#45;&gt;LeftSidebarModule</title>
<path fill="none" stroke="black" d="M1459,-84.81C1459,-107.29 1459,-142.8 1459,-142.8 1459,-142.8 744.74,-142.8 744.74,-142.8"/>
<polygon fill="black" stroke="black" points="744.74,-139.3 734.74,-142.8 744.74,-146.3 744.74,-139.3"/>
</g>
<!-- ExtractionSetDropdownModule -->
<g id="node4" class="node">
<title>ExtractionSetDropdownModule</title>
<polygon fill="#8dd3c7" stroke="black" points="1375.63,-84.8 1372.63,-88.8 1351.63,-88.8 1348.63,-84.8 1180.37,-84.8 1180.37,-48.8 1375.63,-48.8 1375.63,-84.8"/>
<text text-anchor="middle" x="1278" y="-62.6" font-family="Times,serif" font-size="14.00">ExtractionSetDropdownModule</text>
</g>
<!-- ExtractionSetDropdownModule&#45;&gt;LeftSidebarModule -->
<g id="edge3" class="edge">
<title>ExtractionSetDropdownModule&#45;&gt;LeftSidebarModule</title>
<path fill="none" stroke="black" d="M1278,-84.93C1278,-105.37 1278,-135.8 1278,-135.8 1278,-135.8 744.85,-135.8 744.85,-135.8"/>
<polygon fill="black" stroke="black" points="744.85,-132.3 734.85,-135.8 744.85,-139.3 744.85,-132.3"/>
</g>
<!-- JsonFileReaderModule -->
<g id="node5" class="node">
<title>JsonFileReaderModule</title>
<polygon fill="#8dd3c7" stroke="black" points="1161.86,-84.8 1158.86,-88.8 1137.86,-88.8 1134.86,-84.8 1016.14,-84.8 1016.14,-48.8 1161.86,-48.8 1161.86,-84.8"/>
<text text-anchor="middle" x="1089" y="-62.6" font-family="Times,serif" font-size="14.00">JsonFileReaderModule</text>
</g>
<!-- JsonFileReaderModule&#45;&gt;LeftSidebarModule -->
<g id="edge4" class="edge">
<title>JsonFileReaderModule&#45;&gt;LeftSidebarModule</title>
<path fill="none" stroke="black" d="M1089,-85.07C1089,-103.36 1089,-128.8 1089,-128.8 1089,-128.8 744.88,-128.8 744.88,-128.8"/>
<polygon fill="black" stroke="black" points="744.88,-125.3 734.88,-128.8 744.88,-132.3 744.88,-125.3"/>
</g>
<!-- LabeledSlideToggleModule -->
<g id="node6" class="node">
<title>LabeledSlideToggleModule</title>
<polygon fill="#8dd3c7" stroke="black" points="998.57,-84.8 995.57,-88.8 974.57,-88.8 971.57,-84.8 825.43,-84.8 825.43,-48.8 998.57,-48.8 998.57,-84.8"/>
<text text-anchor="middle" x="912" y="-62.6" font-family="Times,serif" font-size="14.00">LabeledSlideToggleModule</text>
</g>
<!-- LabeledSlideToggleModule&#45;&gt;LeftSidebarModule -->
<g id="edge5" class="edge">
<title>LabeledSlideToggleModule&#45;&gt;LeftSidebarModule</title>
<path fill="none" stroke="black" d="M912,-84.81C912,-100.85 912,-121.8 912,-121.8 912,-121.8 744.74,-121.8 744.74,-121.8"/>
<polygon fill="black" stroke="black" points="744.74,-118.3 734.74,-121.8 744.74,-125.3 744.74,-118.3"/>
</g>
<!-- NameInputModule -->
<g id="node7" class="node">
<title>NameInputModule</title>
<polygon fill="#8dd3c7" stroke="black" points="807.03,-84.8 804.03,-88.8 783.03,-88.8 780.03,-84.8 684.97,-84.8 684.97,-48.8 807.03,-48.8 807.03,-84.8"/>
<text text-anchor="middle" x="746" y="-62.6" font-family="Times,serif" font-size="14.00">NameInputModule</text>
</g>
<!-- NameInputModule&#45;&gt;LeftSidebarModule -->
<g id="edge6" class="edge">
<title>NameInputModule&#45;&gt;LeftSidebarModule</title>
<path fill="none" stroke="black" d="M709.78,-84.91C709.78,-84.91 709.78,-103.79 709.78,-103.79"/>
<polygon fill="black" stroke="black" points="706.28,-103.79 709.78,-113.79 713.28,-103.79 706.28,-103.79"/>
</g>
<!-- OpacitySliderModule -->
<g id="node8" class="node">
<title>OpacitySliderModule</title>
<polygon fill="#8dd3c7" stroke="black" points="666.81,-84.8 663.81,-88.8 642.81,-88.8 639.81,-84.8 529.19,-84.8 529.19,-48.8 666.81,-48.8 666.81,-84.8"/>
<text text-anchor="middle" x="598" y="-62.6" font-family="Times,serif" font-size="14.00">OpacitySliderModule</text>
</g>
<!-- OpacitySliderModule&#45;&gt;LeftSidebarModule -->
<g id="edge7" class="edge">
<title>OpacitySliderModule&#45;&gt;LeftSidebarModule</title>
<path fill="none" stroke="black" d="M637.92,-84.91C637.92,-84.91 637.92,-103.79 637.92,-103.79"/>
<polygon fill="black" stroke="black" points="634.42,-103.79 637.92,-113.79 641.42,-103.79 634.42,-103.79"/>
</g>
<!-- VisibilityMenuModule -->
<g id="node9" class="node">
<title>VisibilityMenuModule</title>
<polygon fill="#8dd3c7" stroke="black" points="511.6,-84.8 508.6,-88.8 487.6,-88.8 484.6,-84.8 366.4,-84.8 366.4,-48.8 511.6,-48.8 511.6,-84.8"/>
<text text-anchor="middle" x="439" y="-62.6" font-family="Times,serif" font-size="14.00">VisibilityMenuModule</text>
</g>
<!-- VisibilityMenuModule&#45;&gt;LeftSidebarModule -->
<g id="edge8" class="edge">
<title>VisibilityMenuModule&#45;&gt;LeftSidebarModule</title>
<path fill="none" stroke="black" d="M439,-84.81C439,-100.85 439,-121.8 439,-121.8 439,-121.8 599.25,-121.8 599.25,-121.8"/>
<polygon fill="black" stroke="black" points="599.25,-125.3 609.25,-121.8 599.25,-118.3 599.25,-125.3"/>
</g>
<!-- VisibilityToggleModule -->
<g id="node10" class="node">
<title>VisibilityToggleModule</title>
<polygon fill="#8dd3c7" stroke="black" points="348.1,-84.8 345.1,-88.8 324.1,-88.8 321.1,-84.8 195.9,-84.8 195.9,-48.8 348.1,-48.8 348.1,-84.8"/>
<text text-anchor="middle" x="272" y="-62.6" font-family="Times,serif" font-size="14.00">VisibilityToggleModule</text>
</g>
<!-- VisibilityToggleModule&#45;&gt;LeftSidebarModule -->
<g id="edge9" class="edge">
<title>VisibilityToggleModule&#45;&gt;LeftSidebarModule</title>
<path fill="none" stroke="black" d="M297.35,-85.07C297.35,-103.36 297.35,-128.8 297.35,-128.8 297.35,-128.8 599.29,-128.8 599.29,-128.8"/>
<polygon fill="black" stroke="black" points="599.29,-132.3 609.29,-128.8 599.29,-125.3 599.29,-132.3"/>
</g>
<!-- VisibilityToggleModule&#45;&gt;LeftSidebarModule -->
<g id="edge10" class="edge">
<title>VisibilityToggleModule&#45;&gt;LeftSidebarModule</title>
<path fill="none" stroke="black" d="M246.65,-84.93C246.65,-105.37 246.65,-135.8 246.65,-135.8 246.65,-135.8 599.24,-135.8 599.24,-135.8"/>
<polygon fill="black" stroke="black" points="599.24,-139.3 609.24,-135.8 599.24,-132.3 599.24,-139.3"/>
</g>
</g>
</svg>
