<?xml version="1.0" encoding="UTF-8" standalone="no"?>
<!DOCTYPE svg PUBLIC "-//W3C//DTD SVG 1.1//EN"
 "http://www.w3.org/Graphics/SVG/1.1/DTD/svg11.dtd">
<!-- Generated by graphviz version 2.40.1 (20161225.0304)
 -->
<!-- Title: dependencies Pages: 1 -->
<svg width="1733pt" height="284pt"
 viewBox="0.00 0.00 1733.00 284.00" xmlns="http://www.w3.org/2000/svg" xmlns:xlink="http://www.w3.org/1999/xlink">
<g id="graph0" class="graph" transform="scale(1 1) rotate(0) translate(4 280)">
<title>dependencies</title>
<polygon fill="#ffffff" stroke="transparent" points="-4,4 -4,-280 1729,-280 1729,4 -4,4"/>
<text text-anchor="start" x="841.5091" y="-42.4" font-family="sans-serif" font-weight="bold" font-size="14.00" fill="#000000">Legend</text>
<polygon fill="#ffffb3" stroke="transparent" points="628.5,-10 628.5,-30 648.5,-30 648.5,-10 628.5,-10"/>
<text text-anchor="start" x="652.129" y="-15.4" font-family="sans-serif" font-size="14.00" fill="#000000"> &#160;Declarations</text>
<polygon fill="#8dd3c7" stroke="transparent" points="741.5,-10 741.5,-30 761.5,-30 761.5,-10 741.5,-10"/>
<text text-anchor="start" x="765.2251" y="-15.4" font-family="sans-serif" font-size="14.00" fill="#000000"> &#160;Module</text>
<polygon fill="#80b1d3" stroke="transparent" points="827.5,-10 827.5,-30 847.5,-30 847.5,-10 827.5,-10"/>
<text text-anchor="start" x="851.2812" y="-15.4" font-family="sans-serif" font-size="14.00" fill="#000000"> &#160;Bootstrap</text>
<polygon fill="#fdb462" stroke="transparent" points="924.5,-10 924.5,-30 944.5,-30 944.5,-10 924.5,-10"/>
<text text-anchor="start" x="948.1732" y="-15.4" font-family="sans-serif" font-size="14.00" fill="#000000"> &#160;Providers</text>
<polygon fill="#fb8072" stroke="transparent" points="1020.5,-10 1020.5,-30 1040.5,-30 1040.5,-10 1020.5,-10"/>
<text text-anchor="start" x="1044.2258" y="-15.4" font-family="sans-serif" font-size="14.00" fill="#000000"> &#160;Exports</text>
<g id="clust1" class="cluster">
<title>cluster_LeftSidebarModule</title>
<polygon fill="none" stroke="#000000" stroke-dasharray="1,5" points="8,-70 8,-268 1717,-268 1717,-70 8,-70"/>
</g>
<g id="clust2" class="cluster">
<title>cluster_LeftSidebarModule_declarations</title>
<polygon fill="none" stroke="#000000" points="1545,-78 1545,-130 1709,-130 1709,-78 1545,-78"/>
</g>
<g id="clust4" class="cluster">
<title>cluster_LeftSidebarModule_imports</title>
<polygon fill="none" stroke="#000000" points="16,-78 16,-130 1537,-130 1537,-78 16,-78"/>
</g>
<g id="clust5" class="cluster">
<title>cluster_LeftSidebarModule_exports</title>
<polygon fill="none" stroke="#000000" points="683,-208 683,-260 849,-260 849,-208 683,-208"/>
</g>
<!-- LeftSidebarComponent -->
<g id="node1" class="node">
<title>LeftSidebarComponent</title>
<polygon fill="#ffffb3" stroke="#000000" points="1700.9144,-122 1553.0856,-122 1553.0856,-86 1700.9144,-86 1700.9144,-122"/>
<text text-anchor="middle" x="1627" y="-99.8" font-family="Times,serif" font-size="14.00" fill="#000000">LeftSidebarComponent</text>
</g>
<!-- LeftSidebarModule -->
<g id="node2" class="node">
<title>LeftSidebarModule</title>
<polygon fill="#8dd3c7" stroke="#000000" points="828.6317,-187 825.6317,-191 804.6317,-191 801.6317,-187 703.3683,-187 703.3683,-151 828.6317,-151 828.6317,-187"/>
<text text-anchor="middle" x="766" y="-164.8" font-family="Times,serif" font-size="14.00" fill="#000000">LeftSidebarModule</text>
</g>
<!-- LeftSidebarComponent&#45;&gt;LeftSidebarModule -->
<g id="edge1" class="edge">
<title>LeftSidebarComponent&#45;&gt;LeftSidebarModule</title>
<path fill="none" stroke="#000000" d="M1627,-122.2479C1627,-145.0179 1627,-181 1627,-181 1627,-181 838.9626,-181 838.9626,-181"/>
<polygon fill="#000000" stroke="#000000" points="838.9626,-177.5001 828.9626,-181 838.9625,-184.5001 838.9626,-177.5001"/>
</g>
<!-- LeftSidebarComponent  -->
<g id="node12" class="node">
<title>LeftSidebarComponent </title>
<polygon fill="#fb8072" stroke="#000000" points="841.4138,-252 690.5862,-252 690.5862,-216 841.4138,-216 841.4138,-252"/>
<text text-anchor="middle" x="766" y="-229.8" font-family="Times,serif" font-size="14.00" fill="#000000">LeftSidebarComponent </text>
</g>
<!-- LeftSidebarModule&#45;&gt;LeftSidebarComponent  -->
<g id="edge12" class="edge">
<title>LeftSidebarModule&#45;&gt;LeftSidebarComponent </title>
<path fill="none" stroke="#000000" stroke-dasharray="5,2" d="M766,-187.1061C766,-187.1061 766,-205.991 766,-205.991"/>
<polygon fill="#000000" stroke="#000000" points="762.5001,-205.9909 766,-215.991 769.5001,-205.991 762.5001,-205.9909"/>
</g>
<!-- DetailsLabelModule -->
<g id="node3" class="node">
<title>DetailsLabelModule</title>
<polygon fill="#8dd3c7" stroke="#000000" points="1528.5744,-122 1525.5744,-126 1504.5744,-126 1501.5744,-122 1397.4256,-122 1397.4256,-86 1528.5744,-86 1528.5744,-122"/>
<text text-anchor="middle" x="1463" y="-99.8" font-family="Times,serif" font-size="14.00" fill="#000000">DetailsLabelModule</text>
</g>
<!-- DetailsLabelModule&#45;&gt;LeftSidebarModule -->
<g id="edge2" class="edge">
<title>DetailsLabelModule&#45;&gt;LeftSidebarModule</title>
<path fill="none" stroke="#000000" d="M1463,-122.2843C1463,-143.3211 1463,-175 1463,-175 1463,-175 838.7751,-175 838.7751,-175"/>
<polygon fill="#000000" stroke="#000000" points="838.7752,-171.5001 828.7751,-175 838.7751,-178.5001 838.7752,-171.5001"/>
</g>
<!-- ExtractionSetDropdownModule -->
<g id="node4" class="node">
<title>ExtractionSetDropdownModule</title>
<polygon fill="#8dd3c7" stroke="#000000" points="1379.626,-122 1376.626,-126 1355.626,-126 1352.626,-122 1184.374,-122 1184.374,-86 1379.626,-86 1379.626,-122"/>
<text text-anchor="middle" x="1282" y="-99.8" font-family="Times,serif" font-size="14.00" fill="#000000">ExtractionSetDropdownModule</text>
</g>
<!-- ExtractionSetDropdownModule&#45;&gt;LeftSidebarModule -->
<g id="edge3" class="edge">
<title>ExtractionSetDropdownModule&#45;&gt;LeftSidebarModule</title>
<path fill="none" stroke="#000000" d="M1282,-122.1061C1282,-141.3391 1282,-169 1282,-169 1282,-169 838.7559,-169 838.7559,-169"/>
<polygon fill="#000000" stroke="#000000" points="838.7559,-165.5001 828.7559,-169 838.7558,-172.5001 838.7559,-165.5001"/>
</g>
<!-- LabeledSlideToggleModule -->
<g id="node5" class="node">
<title>LabeledSlideToggleModule</title>
<polygon fill="#8dd3c7" stroke="#000000" points="1166.573,-122 1163.573,-126 1142.573,-126 1139.573,-122 993.427,-122 993.427,-86 1166.573,-86 1166.573,-122"/>
<text text-anchor="middle" x="1080" y="-99.8" font-family="Times,serif" font-size="14.00" fill="#000000">LabeledSlideToggleModule</text>
</g>
<!-- LabeledSlideToggleModule&#45;&gt;LeftSidebarModule -->
<g id="edge4" class="edge">
<title>LabeledSlideToggleModule&#45;&gt;LeftSidebarModule</title>
<path fill="none" stroke="#000000" d="M1080,-122.0225C1080,-139.3734 1080,-163 1080,-163 1080,-163 838.7879,-163 838.7879,-163"/>
<polygon fill="#000000" stroke="#000000" points="838.7879,-159.5001 828.7879,-163 838.7879,-166.5001 838.7879,-159.5001"/>
</g>
<!-- NameInputModule -->
<g id="node6" class="node">
<title>NameInputModule</title>
<polygon fill="#8dd3c7" stroke="#000000" points="975.0283,-122 972.0283,-126 951.0283,-126 948.0283,-122 852.9717,-122 852.9717,-86 975.0283,-86 975.0283,-122"/>
<text text-anchor="middle" x="914" y="-99.8" font-family="Times,serif" font-size="14.00" fill="#000000">NameInputModule</text>
</g>
<!-- NameInputModule&#45;&gt;LeftSidebarModule -->
<g id="edge5" class="edge">
<title>NameInputModule&#45;&gt;LeftSidebarModule</title>
<path fill="none" stroke="#000000" d="M914,-122.2396C914,-137.5706 914,-157 914,-157 914,-157 838.7653,-157 838.7653,-157"/>
<polygon fill="#000000" stroke="#000000" points="838.7654,-153.5001 828.7653,-157 838.7653,-160.5001 838.7654,-153.5001"/>
</g>
<!-- OpacitySliderModule -->
<g id="node7" class="node">
<title>OpacitySliderModule</title>
<polygon fill="#8dd3c7" stroke="#000000" points="834.8061,-122 831.8061,-126 810.8061,-126 807.8061,-122 697.1939,-122 697.1939,-86 834.8061,-86 834.8061,-122"/>
<text text-anchor="middle" x="766" y="-99.8" font-family="Times,serif" font-size="14.00" fill="#000000">OpacitySliderModule</text>
</g>
<!-- OpacitySliderModule&#45;&gt;LeftSidebarModule -->
<g id="edge6" class="edge">
<title>OpacitySliderModule&#45;&gt;LeftSidebarModule</title>
<path fill="none" stroke="#000000" d="M766,-122.1061C766,-122.1061 766,-140.991 766,-140.991"/>
<polygon fill="#000000" stroke="#000000" points="762.5001,-140.9909 766,-150.991 769.5001,-140.991 762.5001,-140.9909"/>
</g>
<!-- OrganSelectorModule -->
<g id="node8" class="node">
<title>OrganSelectorModule</title>
<polygon fill="#8dd3c7" stroke="#000000" points="679.4004,-122 676.4004,-126 655.4004,-126 652.4004,-122 538.5996,-122 538.5996,-86 679.4004,-86 679.4004,-122"/>
<text text-anchor="middle" x="609" y="-99.8" font-family="Times,serif" font-size="14.00" fill="#000000">OrganSelectorModule</text>
</g>
<!-- OrganSelectorModule&#45;&gt;LeftSidebarModule -->
<g id="edge7" class="edge">
<title>OrganSelectorModule&#45;&gt;LeftSidebarModule</title>
<path fill="none" stroke="#000000" d="M609,-122.2396C609,-137.5706 609,-157 609,-157 609,-157 693.0467,-157 693.0467,-157"/>
<polygon fill="#000000" stroke="#000000" points="693.0468,-160.5001 703.0467,-157 693.0467,-153.5001 693.0468,-160.5001"/>
</g>
<!-- ToggleableTooltipModule -->
<g id="node9" class="node">
<title>ToggleableTooltipModule</title>
<polygon fill="#8dd3c7" stroke="#000000" points="520.752,-122 517.752,-126 496.752,-126 493.752,-122 357.248,-122 357.248,-86 520.752,-86 520.752,-122"/>
<text text-anchor="middle" x="439" y="-99.8" font-family="Times,serif" font-size="14.00" fill="#000000">ToggleableTooltipModule</text>
</g>
<!-- ToggleableTooltipModule&#45;&gt;LeftSidebarModule -->
<g id="edge8" class="edge">
<title>ToggleableTooltipModule&#45;&gt;LeftSidebarModule</title>
<path fill="none" stroke="#000000" d="M439,-122.0225C439,-139.3734 439,-163 439,-163 439,-163 693.338,-163 693.338,-163"/>
<polygon fill="#000000" stroke="#000000" points="693.3381,-166.5001 703.338,-163 693.338,-159.5001 693.3381,-166.5001"/>
</g>
<!-- VisibilityMenuModule -->
<g id="node10" class="node">
<title>VisibilityMenuModule</title>
<polygon fill="#8dd3c7" stroke="#000000" points="339.6038,-122 336.6038,-126 315.6038,-126 312.6038,-122 194.3962,-122 194.3962,-86 339.6038,-86 339.6038,-122"/>
<text text-anchor="middle" x="267" y="-99.8" font-family="Times,serif" font-size="14.00" fill="#000000">VisibilityMenuModule</text>
</g>
<!-- VisibilityMenuModule&#45;&gt;LeftSidebarModule -->
<g id="edge9" class="edge">
<title>VisibilityMenuModule&#45;&gt;LeftSidebarModule</title>
<path fill="none" stroke="#000000" d="M267,-122.1061C267,-141.3391 267,-169 267,-169 267,-169 693.3066,-169 693.3066,-169"/>
<polygon fill="#000000" stroke="#000000" points="693.3066,-172.5001 703.3066,-169 693.3065,-165.5001 693.3066,-172.5001"/>
</g>
<!-- VisibilityToggleModule -->
<g id="node11" class="node">
<title>VisibilityToggleModule</title>
<polygon fill="#8dd3c7" stroke="#000000" points="176.1024,-122 173.1024,-126 152.1024,-126 149.1024,-122 23.8976,-122 23.8976,-86 176.1024,-86 176.1024,-122"/>
<text text-anchor="middle" x="100" y="-99.8" font-family="Times,serif" font-size="14.00" fill="#000000">VisibilityToggleModule</text>
</g>
<!-- VisibilityToggleModule&#45;&gt;LeftSidebarModule -->
<g id="edge10" class="edge">
<title>VisibilityToggleModule&#45;&gt;LeftSidebarModule</title>
<path fill="none" stroke="#000000" d="M74.6496,-122.2479C74.6496,-145.0179 74.6496,-181 74.6496,-181 74.6496,-181 693.1215,-181 693.1215,-181"/>
<polygon fill="#000000" stroke="#000000" points="693.1216,-184.5001 703.1215,-181 693.1215,-177.5001 693.1216,-184.5001"/>
</g>
<!-- VisibilityToggleModule&#45;&gt;LeftSidebarModule -->
<g id="edge11" class="edge">
<title>VisibilityToggleModule&#45;&gt;LeftSidebarModule</title>
<path fill="none" stroke="#000000" d="M125.3504,-122.2843C125.3504,-143.3211 125.3504,-175 125.3504,-175 125.3504,-175 693.1123,-175 693.1123,-175"/>
<polygon fill="#000000" stroke="#000000" points="693.1124,-178.5001 703.1123,-175 693.1123,-171.5001 693.1124,-178.5001"/>
</g>
</g>
</svg>
