<?xml version="1.0" encoding="UTF-8" standalone="no"?>
<!DOCTYPE svg PUBLIC "-//W3C//DTD SVG 1.1//EN"
 "http://www.w3.org/Graphics/SVG/1.1/DTD/svg11.dtd">
<!-- Generated by graphviz version 2.40.1 (20161225.0304)
 -->
<!-- Title: dependencies Pages: 1 -->
<svg width="669pt" height="284pt"
 viewBox="0.00 0.00 669.00 284.00" xmlns="http://www.w3.org/2000/svg" xmlns:xlink="http://www.w3.org/1999/xlink">
<g id="graph0" class="graph" transform="scale(1 1) rotate(0) translate(4 280)">
<title>dependencies</title>
<polygon fill="#ffffff" stroke="transparent" points="-4,4 -4,-280 665,-280 665,4 -4,4"/>
<text text-anchor="start" x="309.5091" y="-42.4" font-family="sans-serif" font-weight="bold" font-size="14.00" fill="#000000">Legend</text>
<polygon fill="#ffffb3" stroke="transparent" points="96.5,-10 96.5,-30 116.5,-30 116.5,-10 96.5,-10"/>
<text text-anchor="start" x="120.129" y="-15.4" font-family="sans-serif" font-size="14.00" fill="#000000"> &#160;Declarations</text>
<polygon fill="#8dd3c7" stroke="transparent" points="209.5,-10 209.5,-30 229.5,-30 229.5,-10 209.5,-10"/>
<text text-anchor="start" x="233.2251" y="-15.4" font-family="sans-serif" font-size="14.00" fill="#000000"> &#160;Module</text>
<polygon fill="#80b1d3" stroke="transparent" points="295.5,-10 295.5,-30 315.5,-30 315.5,-10 295.5,-10"/>
<text text-anchor="start" x="319.2812" y="-15.4" font-family="sans-serif" font-size="14.00" fill="#000000"> &#160;Bootstrap</text>
<polygon fill="#fdb462" stroke="transparent" points="392.5,-10 392.5,-30 412.5,-30 412.5,-10 392.5,-10"/>
<text text-anchor="start" x="416.1732" y="-15.4" font-family="sans-serif" font-size="14.00" fill="#000000"> &#160;Providers</text>
<polygon fill="#fb8072" stroke="transparent" points="488.5,-10 488.5,-30 508.5,-30 508.5,-10 488.5,-10"/>
<text text-anchor="start" x="512.2258" y="-15.4" font-family="sans-serif" font-size="14.00" fill="#000000"> &#160;Exports</text>
<g id="clust1" class="cluster">
<title>cluster_DrawerModule</title>
<polygon fill="none" stroke="#000000" stroke-dasharray="1,5" points="8,-70 8,-268 653,-268 653,-70 8,-70"/>
</g>
<g id="clust2" class="cluster">
<title>cluster_DrawerModule_declarations</title>
<polygon fill="none" stroke="#000000" points="25,-78 25,-130 639,-130 639,-78 25,-78"/>
</g>
<g id="clust8" class="cluster">
<title>cluster_DrawerModule_exports</title>
<polygon fill="none" stroke="#000000" points="16,-208 16,-260 645,-260 645,-208 16,-208"/>
</g>
<!-- ContainerComponent -->
<g id="node1" class="node">
<title>ContainerComponent</title>
<polygon fill="#ffffb3" stroke="#000000" points="631.0408,-122 494.9592,-122 494.9592,-86 631.0408,-86 631.0408,-122"/>
<text text-anchor="middle" x="563" y="-99.8" font-family="Times,serif" font-size="14.00" fill="#000000">ContainerComponent</text>
</g>
<!-- DrawerModule -->
<g id="node5" class="node">
<title>DrawerModule</title>
<polygon fill="#8dd3c7" stroke="#000000" points="324.5146,-187 321.5146,-191 300.5146,-191 297.5146,-187 223.4854,-187 223.4854,-151 324.5146,-151 324.5146,-187"/>
<text text-anchor="middle" x="274" y="-164.8" font-family="Times,serif" font-size="14.00" fill="#000000">DrawerModule</text>
</g>
<!-- ContainerComponent&#45;&gt;DrawerModule -->
<g id="edge1" class="edge">
<title>ContainerComponent&#45;&gt;DrawerModule</title>
<path fill="none" stroke="#000000" d="M586.5067,-122.2667C586.5067,-140.5552 586.5067,-166 586.5067,-166 586.5067,-166 334.5569,-166 334.5569,-166"/>
<polygon fill="#000000" stroke="#000000" points="334.557,-162.5001 324.5569,-166 334.5569,-169.5001 334.557,-162.5001"/>
</g>
<!-- ContentComponent -->
<g id="node2" class="node">
<title>ContentComponent</title>
<polygon fill="#ffffb3" stroke="#000000" points="476.6652,-122 351.3348,-122 351.3348,-86 476.6652,-86 476.6652,-122"/>
<text text-anchor="middle" x="414" y="-99.8" font-family="Times,serif" font-size="14.00" fill="#000000">ContentComponent</text>
</g>
<!-- ContentComponent&#45;&gt;DrawerModule -->
<g id="edge2" class="edge">
<title>ContentComponent&#45;&gt;DrawerModule</title>
<path fill="none" stroke="#000000" d="M434.9441,-122.0091C434.9441,-138.0494 434.9441,-159 434.9441,-159 434.9441,-159 334.9237,-159 334.9237,-159"/>
<polygon fill="#000000" stroke="#000000" points="334.9238,-155.5001 324.9237,-159 334.9237,-162.5001 334.9238,-155.5001"/>
</g>
<!-- DrawerComponent -->
<g id="node3" class="node">
<title>DrawerComponent</title>
<polygon fill="#ffffb3" stroke="#000000" points="333.7964,-122 210.2036,-122 210.2036,-86 333.7964,-86 333.7964,-122"/>
<text text-anchor="middle" x="272" y="-99.8" font-family="Times,serif" font-size="14.00" fill="#000000">DrawerComponent</text>
</g>
<!-- DrawerComponent&#45;&gt;DrawerModule -->
<g id="edge3" class="edge">
<title>DrawerComponent&#45;&gt;DrawerModule</title>
<path fill="none" stroke="#000000" d="M274,-122.1061C274,-122.1061 274,-140.991 274,-140.991"/>
<polygon fill="#000000" stroke="#000000" points="270.5001,-140.9909 274,-150.991 277.5001,-140.991 270.5001,-140.9909"/>
</g>
<!-- ToggleButtonComponent -->
<g id="node4" class="node">
<title>ToggleButtonComponent</title>
<polygon fill="#ffffb3" stroke="#000000" points="192.608,-122 33.392,-122 33.392,-86 192.608,-86 192.608,-122"/>
<text text-anchor="middle" x="113" y="-99.8" font-family="Times,serif" font-size="14.00" fill="#000000">ToggleButtonComponent</text>
</g>
<!-- ToggleButtonComponent&#45;&gt;DrawerModule -->
<g id="edge4" class="edge">
<title>ToggleButtonComponent&#45;&gt;DrawerModule</title>
<path fill="none" stroke="#000000" d="M135.3513,-122.0225C135.3513,-139.3734 135.3513,-163 135.3513,-163 135.3513,-163 213.1596,-163 213.1596,-163"/>
<polygon fill="#000000" stroke="#000000" points="213.1597,-166.5001 223.1596,-163 213.1596,-159.5001 213.1597,-166.5001"/>
</g>
<!-- ContainerComponent  -->
<g id="node6" class="node">
<title>ContainerComponent </title>
<polygon fill="#fb8072" stroke="#000000" points="637.04,-252 496.96,-252 496.96,-216 637.04,-216 637.04,-252"/>
<text text-anchor="middle" x="567" y="-229.8" font-family="Times,serif" font-size="14.00" fill="#000000">ContainerComponent </text>
</g>
<!-- DrawerModule&#45;&gt;ContainerComponent  -->
<g id="edge5" class="edge">
<title>DrawerModule&#45;&gt;ContainerComponent </title>
<path fill="none" stroke="#000000" stroke-dasharray="5,2" d="M324.6752,-173C402.2968,-173 541.7433,-173 541.7433,-173 541.7433,-173 541.7433,-205.698 541.7433,-205.698"/>
<polygon fill="#000000" stroke="#000000" points="538.2434,-205.698 541.7433,-215.698 545.2434,-205.698 538.2434,-205.698"/>
</g>
<!-- ContentComponent  -->
<g id="node7" class="node">
<title>ContentComponent </title>
<polygon fill="#fb8072" stroke="#000000" points="478.6649,-252 349.3351,-252 349.3351,-216 478.6649,-216 478.6649,-252"/>
<text text-anchor="middle" x="414" y="-229.8" font-family="Times,serif" font-size="14.00" fill="#000000">ContentComponent </text>
</g>
<!-- DrawerModule&#45;&gt;ContentComponent  -->
<g id="edge6" class="edge">
<title>DrawerModule&#45;&gt;ContentComponent </title>
<path fill="none" stroke="#000000" stroke-dasharray="5,2" d="M324.8357,-180C357.1948,-180 393.0559,-180 393.0559,-180 393.0559,-180 393.0559,-205.7181 393.0559,-205.7181"/>
<polygon fill="#000000" stroke="#000000" points="389.556,-205.718 393.0559,-215.7181 396.556,-205.7181 389.556,-205.718"/>
</g>
<!-- DrawerComponent  -->
<g id="node8" class="node">
<title>DrawerComponent </title>
<polygon fill="#fb8072" stroke="#000000" points="331.2962,-252 204.7038,-252 204.7038,-216 331.2962,-216 331.2962,-252"/>
<text text-anchor="middle" x="268" y="-229.8" font-family="Times,serif" font-size="14.00" fill="#000000">DrawerComponent </text>
</g>
<!-- DrawerModule&#45;&gt;DrawerComponent  -->
<g id="edge7" class="edge">
<title>DrawerModule&#45;&gt;DrawerComponent </title>
<path fill="none" stroke="#000000" stroke-dasharray="5,2" d="M274,-187.1061C274,-187.1061 274,-205.991 274,-205.991"/>
<polygon fill="#000000" stroke="#000000" points="270.5001,-205.9909 274,-215.991 277.5001,-205.991 270.5001,-205.9909"/>
</g>
<!-- ToggleButtonComponent  -->
<g id="node9" class="node">
<title>ToggleButtonComponent </title>
<polygon fill="#fb8072" stroke="#000000" points="186.1085,-252 23.8915,-252 23.8915,-216 186.1085,-216 186.1085,-252"/>
<text text-anchor="middle" x="105" y="-229.8" font-family="Times,serif" font-size="14.00" fill="#000000">ToggleButtonComponent </text>
</g>
<!-- DrawerModule&#45;&gt;ToggleButtonComponent  -->
<g id="edge8" class="edge">
<title>DrawerModule&#45;&gt;ToggleButtonComponent </title>
<path fill="none" stroke="#000000" stroke-dasharray="5,2" d="M223.1903,-175C167.0281,-175 84.3987,-175 84.3987,-175 84.3987,-175 84.3987,-205.9775 84.3987,-205.9775"/>
<polygon fill="#000000" stroke="#000000" points="80.8986,-205.9775 84.3987,-215.9775 87.8986,-205.9774 80.8986,-205.9775"/>
</g>
</g>
</svg>
