<?xml version="1.0" encoding="UTF-8" standalone="no"?>
<!DOCTYPE svg PUBLIC "-//W3C//DTD SVG 1.1//EN"
 "http://www.w3.org/Graphics/SVG/1.1/DTD/svg11.dtd">
<!-- Generated by graphviz version 2.40.1 (20161225.0304)
 -->
<!-- Title: dependencies Pages: 1 -->
<svg width="654pt" height="284pt"
 viewBox="0.00 0.00 654.00 284.00" xmlns="http://www.w3.org/2000/svg" xmlns:xlink="http://www.w3.org/1999/xlink">
<g id="graph0" class="graph" transform="scale(1 1) rotate(0) translate(4 280)">
<title>dependencies</title>
<polygon fill="#ffffff" stroke="transparent" points="-4,4 -4,-280 650,-280 650,4 -4,4"/>
<text text-anchor="start" x="302.0091" y="-42.4" font-family="sans-serif" font-weight="bold" font-size="14.00" fill="#000000">Legend</text>
<polygon fill="#ffffb3" stroke="transparent" points="89,-10 89,-30 109,-30 109,-10 89,-10"/>
<text text-anchor="start" x="112.629" y="-15.4" font-family="sans-serif" font-size="14.00" fill="#000000"> &#160;Declarations</text>
<polygon fill="#8dd3c7" stroke="transparent" points="202,-10 202,-30 222,-30 222,-10 202,-10"/>
<text text-anchor="start" x="225.7251" y="-15.4" font-family="sans-serif" font-size="14.00" fill="#000000"> &#160;Module</text>
<polygon fill="#80b1d3" stroke="transparent" points="288,-10 288,-30 308,-30 308,-10 288,-10"/>
<text text-anchor="start" x="311.7812" y="-15.4" font-family="sans-serif" font-size="14.00" fill="#000000"> &#160;Bootstrap</text>
<polygon fill="#fdb462" stroke="transparent" points="385,-10 385,-30 405,-30 405,-10 385,-10"/>
<text text-anchor="start" x="408.6732" y="-15.4" font-family="sans-serif" font-size="14.00" fill="#000000"> &#160;Providers</text>
<polygon fill="#fb8072" stroke="transparent" points="481,-10 481,-30 501,-30 501,-10 481,-10"/>
<text text-anchor="start" x="504.7258" y="-15.4" font-family="sans-serif" font-size="14.00" fill="#000000"> &#160;Exports</text>
<g id="clust1" class="cluster">
<title>cluster_DrawerModule</title>
<polygon fill="none" stroke="#000000" stroke-dasharray="1,5" points="8,-70 8,-268 638,-268 638,-70 8,-70"/>
</g>
<g id="clust2" class="cluster">
<title>cluster_DrawerModule_declarations</title>
<polygon fill="none" stroke="#000000" points="16,-78 16,-130 630,-130 630,-78 16,-78"/>
</g>
<g id="clust8" class="cluster">
<title>cluster_DrawerModule_exports</title>
<polygon fill="none" stroke="#000000" points="82,-208 82,-260 563,-260 563,-208 82,-208"/>
</g>
<!-- ContainerComponent -->
<g id="node1" class="node">
<title>ContainerComponent</title>
<polygon fill="#ffffb3" stroke="#000000" points="622.0408,-122 485.9592,-122 485.9592,-86 622.0408,-86 622.0408,-122"/>
<text text-anchor="middle" x="554" y="-99.8" font-family="Times,serif" font-size="14.00" fill="#000000">ContainerComponent</text>
</g>
<!-- DrawerModule -->
<g id="node5" class="node">
<title>DrawerModule</title>
<polygon fill="#8dd3c7" stroke="#000000" points="384.5146,-187 381.5146,-191 360.5146,-191 357.5146,-187 283.4854,-187 283.4854,-151 384.5146,-151 384.5146,-187"/>
<text text-anchor="middle" x="334" y="-164.8" font-family="Times,serif" font-size="14.00" fill="#000000">DrawerModule</text>
</g>
<!-- ContainerComponent&#45;&gt;DrawerModule -->
<g id="edge1" class="edge">
<title>ContainerComponent&#45;&gt;DrawerModule</title>
<path fill="none" stroke="#000000" d="M520.375,-122.0225C520.375,-139.3734 520.375,-163 520.375,-163 520.375,-163 394.9278,-163 394.9278,-163"/>
<polygon fill="#000000" stroke="#000000" points="394.9278,-159.5001 384.9278,-163 394.9278,-166.5001 394.9278,-159.5001"/>
</g>
<!-- ContentComponent -->
<g id="node2" class="node">
<title>ContentComponent</title>
<polygon fill="#ffffb3" stroke="#000000" points="467.6652,-122 342.3348,-122 342.3348,-86 467.6652,-86 467.6652,-122"/>
<text text-anchor="middle" x="405" y="-99.8" font-family="Times,serif" font-size="14.00" fill="#000000">ContentComponent</text>
</g>
<!-- ContentComponent&#45;&gt;DrawerModule -->
<g id="edge2" class="edge">
<title>ContentComponent&#45;&gt;DrawerModule</title>
<path fill="none" stroke="#000000" d="M363.4622,-122.1061C363.4622,-122.1061 363.4622,-140.991 363.4622,-140.991"/>
<polygon fill="#000000" stroke="#000000" points="359.9622,-140.9909 363.4622,-150.991 366.9622,-140.991 359.9622,-140.9909"/>
</g>
<!-- DrawerComponent -->
<g id="node3" class="node">
<title>DrawerComponent</title>
<polygon fill="#ffffb3" stroke="#000000" points="324.7964,-122 201.2036,-122 201.2036,-86 324.7964,-86 324.7964,-122"/>
<text text-anchor="middle" x="263" y="-99.8" font-family="Times,serif" font-size="14.00" fill="#000000">DrawerComponent</text>
</g>
<!-- DrawerComponent&#45;&gt;DrawerModule -->
<g id="edge3" class="edge">
<title>DrawerComponent&#45;&gt;DrawerModule</title>
<path fill="none" stroke="#000000" d="M303.9457,-122.1061C303.9457,-122.1061 303.9457,-140.991 303.9457,-140.991"/>
<polygon fill="#000000" stroke="#000000" points="300.4457,-140.9909 303.9457,-150.991 307.4457,-140.991 300.4457,-140.9909"/>
</g>
<!-- ToggleButtonComponent -->
<g id="node4" class="node">
<title>ToggleButtonComponent</title>
<polygon fill="#ffffb3" stroke="#000000" points="183.608,-122 24.392,-122 24.392,-86 183.608,-86 183.608,-122"/>
<text text-anchor="middle" x="104" y="-99.8" font-family="Times,serif" font-size="14.00" fill="#000000">ToggleButtonComponent</text>
</g>
<!-- ToggleButtonComponent&#45;&gt;DrawerModule -->
<g id="edge4" class="edge">
<title>ToggleButtonComponent&#45;&gt;DrawerModule</title>
<path fill="none" stroke="#000000" d="M136.625,-122.0225C136.625,-139.3734 136.625,-163 136.625,-163 136.625,-163 273.4273,-163 273.4273,-163"/>
<polygon fill="#000000" stroke="#000000" points="273.4274,-166.5001 283.4273,-163 273.4273,-159.5001 273.4274,-166.5001"/>
</g>
<!-- ContainerComponent  -->
<g id="node6" class="node">
<title>ContainerComponent </title>
<polygon fill="#fb8072" stroke="#000000" points="555.04,-252 414.96,-252 414.96,-216 555.04,-216 555.04,-252"/>
<text text-anchor="middle" x="485" y="-229.8" font-family="Times,serif" font-size="14.00" fill="#000000">ContainerComponent </text>
</g>
<!-- DrawerModule&#45;&gt;ContainerComponent  -->
<g id="edge5" class="edge">
<title>DrawerModule&#45;&gt;ContainerComponent </title>
<path fill="none" stroke="#000000" stroke-dasharray="5,2" d="M384.558,-175C412.4159,-175 441.4062,-175 441.4062,-175 441.4062,-175 441.4062,-205.9775 441.4062,-205.9775"/>
<polygon fill="#000000" stroke="#000000" points="437.9063,-205.9774 441.4062,-215.9775 444.9063,-205.9775 437.9063,-205.9774"/>
</g>
<!-- DrawerComponent  -->
<g id="node7" class="node">
<title>DrawerComponent </title>
<polygon fill="#fb8072" stroke="#000000" points="397.2962,-252 270.7038,-252 270.7038,-216 397.2962,-216 397.2962,-252"/>
<text text-anchor="middle" x="334" y="-229.8" font-family="Times,serif" font-size="14.00" fill="#000000">DrawerComponent </text>
</g>
<!-- DrawerModule&#45;&gt;DrawerComponent  -->
<g id="edge6" class="edge">
<title>DrawerModule&#45;&gt;DrawerComponent </title>
<path fill="none" stroke="#000000" stroke-dasharray="5,2" d="M334,-187.1061C334,-187.1061 334,-205.991 334,-205.991"/>
<polygon fill="#000000" stroke="#000000" points="330.5001,-205.9909 334,-215.991 337.5001,-205.991 330.5001,-205.9909"/>
</g>
<!-- ToggleButtonComponent  -->
<g id="node8" class="node">
<title>ToggleButtonComponent </title>
<polygon fill="#fb8072" stroke="#000000" points="252.1085,-252 89.8915,-252 89.8915,-216 252.1085,-216 252.1085,-252"/>
<text text-anchor="middle" x="171" y="-229.8" font-family="Times,serif" font-size="14.00" fill="#000000">ToggleButtonComponent </text>
</g>
<!-- DrawerModule&#45;&gt;ToggleButtonComponent  -->
<g id="edge7" class="edge">
<title>DrawerModule&#45;&gt;ToggleButtonComponent </title>
<path fill="none" stroke="#000000" stroke-dasharray="5,2" d="M283.2387,-175C255.538,-175 226.828,-175 226.828,-175 226.828,-175 226.828,-205.9775 226.828,-205.9775"/>
<polygon fill="#000000" stroke="#000000" points="223.3281,-205.9774 226.828,-215.9775 230.3281,-205.9775 223.3281,-205.9774"/>
</g>
</g>
</svg>
