<?xml version="1.0" encoding="UTF-8" standalone="no"?>
<!DOCTYPE svg PUBLIC "-//W3C//DTD SVG 1.1//EN"
 "http://www.w3.org/Graphics/SVG/1.1/DTD/svg11.dtd">
<!-- Generated by graphviz version 2.40.1 (20161225.0304)
 -->
<!-- Title: dependencies Pages: 1 -->
<svg width="713pt" height="284pt"
 viewBox="0.00 0.00 713.00 284.00" xmlns="http://www.w3.org/2000/svg" xmlns:xlink="http://www.w3.org/1999/xlink">
<g id="graph0" class="graph" transform="scale(1 1) rotate(0) translate(4 280)">
<title>dependencies</title>
<polygon fill="#ffffff" stroke="transparent" points="-4,4 -4,-280 709,-280 709,4 -4,4"/>
<text text-anchor="start" x="331.5091" y="-42.4" font-family="sans-serif" font-weight="bold" font-size="14.00" fill="#000000">Legend</text>
<polygon fill="#ffffb3" stroke="transparent" points="118.5,-10 118.5,-30 138.5,-30 138.5,-10 118.5,-10"/>
<text text-anchor="start" x="142.129" y="-15.4" font-family="sans-serif" font-size="14.00" fill="#000000"> &#160;Declarations</text>
<polygon fill="#8dd3c7" stroke="transparent" points="231.5,-10 231.5,-30 251.5,-30 251.5,-10 231.5,-10"/>
<text text-anchor="start" x="255.2251" y="-15.4" font-family="sans-serif" font-size="14.00" fill="#000000"> &#160;Module</text>
<polygon fill="#80b1d3" stroke="transparent" points="317.5,-10 317.5,-30 337.5,-30 337.5,-10 317.5,-10"/>
<text text-anchor="start" x="341.2812" y="-15.4" font-family="sans-serif" font-size="14.00" fill="#000000"> &#160;Bootstrap</text>
<polygon fill="#fdb462" stroke="transparent" points="414.5,-10 414.5,-30 434.5,-30 434.5,-10 414.5,-10"/>
<text text-anchor="start" x="438.1732" y="-15.4" font-family="sans-serif" font-size="14.00" fill="#000000"> &#160;Providers</text>
<polygon fill="#fb8072" stroke="transparent" points="510.5,-10 510.5,-30 530.5,-30 530.5,-10 510.5,-10"/>
<text text-anchor="start" x="534.2258" y="-15.4" font-family="sans-serif" font-size="14.00" fill="#000000"> &#160;Exports</text>
<g id="clust1" class="cluster">
<title>cluster_AppModule</title>
<polygon fill="none" stroke="#000000" stroke-dasharray="1,5" points="8,-70 8,-268 697,-268 697,-70 8,-70"/>
</g>
<g id="clust2" class="cluster">
<title>cluster_AppModule_declarations</title>
<polygon fill="none" stroke="#000000" points="567,-78 567,-130 689,-130 689,-78 567,-78"/>
</g>
<g id="clust4" class="cluster">
<title>cluster_AppModule_imports</title>
<polygon fill="none" stroke="#000000" points="16,-78 16,-130 559,-130 559,-78 16,-78"/>
</g>
<g id="clust6" class="cluster">
<title>cluster_AppModule_bootstrap</title>
<polygon fill="none" stroke="#000000" points="263,-208 263,-260 387,-260 387,-208 263,-208"/>
</g>
<!-- AppComponent -->
<g id="node1" class="node">
<title>AppComponent</title>
<polygon fill="#ffffb3" stroke="#000000" points="680.9399,-122 575.0601,-122 575.0601,-86 680.9399,-86 680.9399,-122"/>
<text text-anchor="middle" x="628" y="-99.8" font-family="Times,serif" font-size="14.00" fill="#000000">AppComponent</text>
</g>
<!-- AppModule -->
<g id="node2" class="node">
<title>AppModule</title>
<polygon fill="#8dd3c7" stroke="#000000" points="366.6571,-187 363.6571,-191 342.6571,-191 339.6571,-187 283.3429,-187 283.3429,-151 366.6571,-151 366.6571,-187"/>
<text text-anchor="middle" x="325" y="-164.8" font-family="Times,serif" font-size="14.00" fill="#000000">AppModule</text>
</g>
<!-- AppComponent&#45;&gt;AppModule -->
<g id="edge1" class="edge">
<title>AppComponent&#45;&gt;AppModule</title>
<path fill="none" stroke="#000000" d="M628,-122.2843C628,-143.3211 628,-175 628,-175 628,-175 376.8127,-175 376.8127,-175"/>
<polygon fill="#000000" stroke="#000000" points="376.8128,-171.5001 366.8127,-175 376.8127,-178.5001 376.8128,-171.5001"/>
</g>
<!-- AppComponent  -->
<g id="node7" class="node">
<title>AppComponent </title>
<polygon fill="#80b1d3" stroke="#000000" points="379.439,-252 270.561,-252 270.561,-216 379.439,-216 379.439,-252"/>
<text text-anchor="middle" x="325" y="-229.8" font-family="Times,serif" font-size="14.00" fill="#000000">AppComponent </text>
</g>
<!-- AppModule&#45;&gt;AppComponent  -->
<g id="edge6" class="edge">
<title>AppModule&#45;&gt;AppComponent </title>
<path fill="none" stroke="#000000" stroke-dasharray="1,5" d="M325,-187.1061C325,-187.1061 325,-205.991 325,-205.991"/>
<polygon fill="#000000" stroke="#000000" points="321.5001,-205.9909 325,-215.991 328.5001,-205.991 321.5001,-205.9909"/>
</g>
<!-- AppRenderInitModule -->
<g id="node3" class="node">
<title>AppRenderInitModule</title>
<polygon fill="#8dd3c7" stroke="#000000" points="550.5254,-122 547.5254,-126 526.5254,-126 523.5254,-122 407.4746,-122 407.4746,-86 550.5254,-86 550.5254,-122"/>
<text text-anchor="middle" x="479" y="-99.8" font-family="Times,serif" font-size="14.00" fill="#000000">AppRenderInitModule</text>
</g>
<!-- AppRenderInitModule&#45;&gt;AppModule -->
<g id="edge2" class="edge">
<title>AppRenderInitModule&#45;&gt;AppModule</title>
<path fill="none" stroke="#000000" d="M479,-122.0225C479,-139.3734 479,-163 479,-163 479,-163 376.6746,-163 376.6746,-163"/>
<polygon fill="#000000" stroke="#000000" points="376.6747,-159.5001 366.6746,-163 376.6746,-166.5001 376.6747,-159.5001"/>
</g>
<!-- AppRoutingModule -->
<g id="node4" class="node">
<title>AppRoutingModule</title>
<polygon fill="#8dd3c7" stroke="#000000" points="389.2744,-122 386.2744,-126 365.2744,-126 362.2744,-122 260.7256,-122 260.7256,-86 389.2744,-86 389.2744,-122"/>
<text text-anchor="middle" x="325" y="-99.8" font-family="Times,serif" font-size="14.00" fill="#000000">AppRoutingModule</text>
</g>
<!-- AppRoutingModule&#45;&gt;AppModule -->
<g id="edge3" class="edge">
<title>AppRoutingModule&#45;&gt;AppModule</title>
<path fill="none" stroke="#000000" d="M325,-122.1061C325,-122.1061 325,-140.991 325,-140.991"/>
<polygon fill="#000000" stroke="#000000" points="321.5001,-140.9909 325,-150.991 328.5001,-140.991 321.5001,-140.9909"/>
</g>
<!-- AppStateModule -->
<g id="node5" class="node">
<title>AppStateModule</title>
<polygon fill="#8dd3c7" stroke="#000000" points="242.6499,-122 239.6499,-126 218.6499,-126 215.6499,-122 131.3501,-122 131.3501,-86 242.6499,-86 242.6499,-122"/>
<text text-anchor="middle" x="187" y="-99.8" font-family="Times,serif" font-size="14.00" fill="#000000">AppStateModule</text>
</g>
<!-- AppStateModule&#45;&gt;AppModule -->
<g id="edge4" class="edge">
<title>AppStateModule&#45;&gt;AppModule</title>
<path fill="none" stroke="#000000" d="M187,-122.0225C187,-139.3734 187,-163 187,-163 187,-163 273.221,-163 273.221,-163"/>
<polygon fill="#000000" stroke="#000000" points="273.221,-166.5001 283.221,-163 273.2209,-159.5001 273.221,-166.5001"/>
</g>
<!-- MainModule -->
<g id="node6" class="node">
<title>MainModule</title>
<polygon fill="#8dd3c7" stroke="#000000" points="113.5997,-122 110.5997,-126 89.5997,-126 86.5997,-122 24.4003,-122 24.4003,-86 113.5997,-86 113.5997,-122"/>
<text text-anchor="middle" x="69" y="-99.8" font-family="Times,serif" font-size="14.00" fill="#000000">MainModule</text>
</g>
<!-- MainModule&#45;&gt;AppModule -->
<g id="edge5" class="edge">
<title>MainModule&#45;&gt;AppModule</title>
<path fill="none" stroke="#000000" d="M69,-122.2843C69,-143.3211 69,-175 69,-175 69,-175 273.2994,-175 273.2994,-175"/>
<polygon fill="#000000" stroke="#000000" points="273.2995,-178.5001 283.2994,-175 273.2994,-171.5001 273.2995,-178.5001"/>
</g>
</g>
</svg>
