<?xml version="1.0" encoding="UTF-8" standalone="no"?>
<!DOCTYPE svg PUBLIC "-//W3C//DTD SVG 1.1//EN"
 "http://www.w3.org/Graphics/SVG/1.1/DTD/svg11.dtd">
<!-- Generated by graphviz version 2.40.1 (20161225.0304)
 -->
<!-- Title: dependencies Pages: 1 -->
<svg width="1619pt" height="284pt"
 viewBox="0.00 0.00 1619.00 284.00" xmlns="http://www.w3.org/2000/svg" xmlns:xlink="http://www.w3.org/1999/xlink">
<g id="graph0" class="graph" transform="scale(1 1) rotate(0) translate(4 280)">
<title>dependencies</title>
<polygon fill="#ffffff" stroke="transparent" points="-4,4 -4,-280 1615,-280 1615,4 -4,4"/>
<text text-anchor="start" x="784.5091" y="-42.4" font-family="sans-serif" font-weight="bold" font-size="14.00" fill="#000000">Legend</text>
<polygon fill="#ffffb3" stroke="transparent" points="571.5,-10 571.5,-30 591.5,-30 591.5,-10 571.5,-10"/>
<text text-anchor="start" x="595.129" y="-15.4" font-family="sans-serif" font-size="14.00" fill="#000000"> &#160;Declarations</text>
<polygon fill="#8dd3c7" stroke="transparent" points="684.5,-10 684.5,-30 704.5,-30 704.5,-10 684.5,-10"/>
<text text-anchor="start" x="708.2251" y="-15.4" font-family="sans-serif" font-size="14.00" fill="#000000"> &#160;Module</text>
<polygon fill="#80b1d3" stroke="transparent" points="770.5,-10 770.5,-30 790.5,-30 790.5,-10 770.5,-10"/>
<text text-anchor="start" x="794.2812" y="-15.4" font-family="sans-serif" font-size="14.00" fill="#000000"> &#160;Bootstrap</text>
<polygon fill="#fdb462" stroke="transparent" points="867.5,-10 867.5,-30 887.5,-30 887.5,-10 867.5,-10"/>
<text text-anchor="start" x="891.1732" y="-15.4" font-family="sans-serif" font-size="14.00" fill="#000000"> &#160;Providers</text>
<polygon fill="#fb8072" stroke="transparent" points="963.5,-10 963.5,-30 983.5,-30 983.5,-10 963.5,-10"/>
<text text-anchor="start" x="987.2258" y="-15.4" font-family="sans-serif" font-size="14.00" fill="#000000"> &#160;Exports</text>
<g id="clust1" class="cluster">
<title>cluster_AppModule</title>
<polygon fill="none" stroke="#000000" stroke-dasharray="1,5" points="8,-70 8,-268 1603,-268 1603,-70 8,-70"/>
</g>
<g id="clust2" class="cluster">
<title>cluster_AppModule_declarations</title>
<polygon fill="none" stroke="#000000" points="1473,-78 1473,-130 1595,-130 1595,-78 1473,-78"/>
</g>
<g id="clust4" class="cluster">
<title>cluster_AppModule_imports</title>
<polygon fill="none" stroke="#000000" points="16,-78 16,-130 1465,-130 1465,-78 16,-78"/>
</g>
<g id="clust6" class="cluster">
<title>cluster_AppModule_bootstrap</title>
<polygon fill="none" stroke="#000000" points="854,-208 854,-260 978,-260 978,-208 854,-208"/>
</g>
<!-- AppComponent -->
<g id="node1" class="node">
<title>AppComponent</title>
<polygon fill="#ffffb3" stroke="#000000" points="1586.9399,-122 1481.0601,-122 1481.0601,-86 1586.9399,-86 1586.9399,-122"/>
<text text-anchor="middle" x="1534" y="-99.8" font-family="Times,serif" font-size="14.00" fill="#000000">AppComponent</text>
</g>
<!-- AppModule -->
<g id="node2" class="node">
<title>AppModule</title>
<polygon fill="#8dd3c7" stroke="#000000" points="957.6571,-187 954.6571,-191 933.6571,-191 930.6571,-187 874.3429,-187 874.3429,-151 957.6571,-151 957.6571,-187"/>
<text text-anchor="middle" x="916" y="-164.8" font-family="Times,serif" font-size="14.00" fill="#000000">AppModule</text>
</g>
<!-- AppComponent&#45;&gt;AppModule -->
<g id="edge1" class="edge">
<title>AppComponent&#45;&gt;AppModule</title>
<path fill="none" stroke="#000000" d="M1534,-122.2479C1534,-145.0179 1534,-181 1534,-181 1534,-181 967.9918,-181 967.9918,-181"/>
<polygon fill="#000000" stroke="#000000" points="967.9918,-177.5001 957.9918,-181 967.9918,-184.5001 967.9918,-177.5001"/>
</g>
<!-- AppComponent  -->
<g id="node13" class="node">
<title>AppComponent </title>
<polygon fill="#80b1d3" stroke="#000000" points="970.439,-252 861.561,-252 861.561,-216 970.439,-216 970.439,-252"/>
<text text-anchor="middle" x="916" y="-229.8" font-family="Times,serif" font-size="14.00" fill="#000000">AppComponent </text>
</g>
<!-- AppModule&#45;&gt;AppComponent  -->
<g id="edge12" class="edge">
<title>AppModule&#45;&gt;AppComponent </title>
<path fill="none" stroke="#000000" stroke-dasharray="1,5" d="M916,-187.1061C916,-187.1061 916,-205.991 916,-205.991"/>
<polygon fill="#000000" stroke="#000000" points="912.5001,-205.9909 916,-215.991 919.5001,-205.991 912.5001,-205.9909"/>
</g>
<!-- BodyModule -->
<g id="node3" class="node">
<title>BodyModule</title>
<polygon fill="#8dd3c7" stroke="#000000" points="1456.8865,-122 1453.8865,-126 1432.8865,-126 1429.8865,-122 1367.1135,-122 1367.1135,-86 1456.8865,-86 1456.8865,-122"/>
<text text-anchor="middle" x="1412" y="-99.8" font-family="Times,serif" font-size="14.00" fill="#000000">BodyModule</text>
</g>
<!-- BodyModule&#45;&gt;AppModule -->
<g id="edge2" class="edge">
<title>BodyModule&#45;&gt;AppModule</title>
<path fill="none" stroke="#000000" d="M1412,-122.2843C1412,-143.3211 1412,-175 1412,-175 1412,-175 967.8612,-175 967.8612,-175"/>
<polygon fill="#000000" stroke="#000000" points="967.8612,-171.5001 957.8612,-175 967.8612,-178.5001 967.8612,-171.5001"/>
</g>
<!-- CoreModule -->
<g id="node4" class="node">
<title>CoreModule</title>
<polygon fill="#8dd3c7" stroke="#000000" points="1349.2619,-122 1346.2619,-126 1325.2619,-126 1322.2619,-122 1262.7381,-122 1262.7381,-86 1349.2619,-86 1349.2619,-122"/>
<text text-anchor="middle" x="1306" y="-99.8" font-family="Times,serif" font-size="14.00" fill="#000000">CoreModule</text>
</g>
<!-- CoreModule&#45;&gt;AppModule -->
<g id="edge3" class="edge">
<title>CoreModule&#45;&gt;AppModule</title>
<path fill="none" stroke="#000000" d="M1306,-122.1061C1306,-141.3391 1306,-169 1306,-169 1306,-169 967.7368,-169 967.7368,-169"/>
<polygon fill="#000000" stroke="#000000" points="967.7369,-165.5001 957.7368,-169 967.7368,-172.5001 967.7369,-165.5001"/>
</g>
<!-- DrawerModule -->
<g id="node5" class="node">
<title>DrawerModule</title>
<polygon fill="#8dd3c7" stroke="#000000" points="1244.5146,-122 1241.5146,-126 1220.5146,-126 1217.5146,-122 1143.4854,-122 1143.4854,-86 1244.5146,-86 1244.5146,-122"/>
<text text-anchor="middle" x="1194" y="-99.8" font-family="Times,serif" font-size="14.00" fill="#000000">DrawerModule</text>
</g>
<!-- DrawerModule&#45;&gt;AppModule -->
<g id="edge4" class="edge">
<title>DrawerModule&#45;&gt;AppModule</title>
<path fill="none" stroke="#000000" d="M1194,-122.0225C1194,-139.3734 1194,-163 1194,-163 1194,-163 967.9204,-163 967.9204,-163"/>
<polygon fill="#000000" stroke="#000000" points="967.9204,-159.5001 957.9204,-163 967.9204,-166.5001 967.9204,-159.5001"/>
</g>
<!-- DualSliderModule -->
<g id="node6" class="node">
<title>DualSliderModule</title>
<polygon fill="#8dd3c7" stroke="#000000" points="1125.2008,-122 1122.2008,-126 1101.2008,-126 1098.2008,-122 1004.7992,-122 1004.7992,-86 1125.2008,-86 1125.2008,-122"/>
<text text-anchor="middle" x="1065" y="-99.8" font-family="Times,serif" font-size="14.00" fill="#000000">DualSliderModule</text>
</g>
<!-- DualSliderModule&#45;&gt;AppModule -->
<g id="edge5" class="edge">
<title>DualSliderModule&#45;&gt;AppModule</title>
<path fill="none" stroke="#000000" d="M1065,-122.2396C1065,-137.5706 1065,-157 1065,-157 1065,-157 967.9013,-157 967.9013,-157"/>
<polygon fill="#000000" stroke="#000000" points="967.9014,-153.5001 957.9013,-157 967.9013,-160.5001 967.9014,-153.5001"/>
</g>
<!-- FiltersPopoverModule -->
<g id="node7" class="node">
<title>FiltersPopoverModule</title>
<polygon fill="#8dd3c7" stroke="#000000" points="986.9818,-122 983.9818,-126 962.9818,-126 959.9818,-122 845.0182,-122 845.0182,-86 986.9818,-86 986.9818,-122"/>
<text text-anchor="middle" x="916" y="-99.8" font-family="Times,serif" font-size="14.00" fill="#000000">FiltersPopoverModule</text>
</g>
<!-- FiltersPopoverModule&#45;&gt;AppModule -->
<g id="edge6" class="edge">
<title>FiltersPopoverModule&#45;&gt;AppModule</title>
<path fill="none" stroke="#000000" d="M916,-122.1061C916,-122.1061 916,-140.991 916,-140.991"/>
<polygon fill="#000000" stroke="#000000" points="912.5001,-140.9909 916,-150.991 919.5001,-140.991 912.5001,-140.9909"/>
</g>
<!-- ImageViewerModule -->
<g id="node8" class="node">
<title>ImageViewerModule</title>
<polygon fill="#8dd3c7" stroke="#000000" points="826.7241,-122 823.7241,-126 802.7241,-126 799.7241,-122 691.2759,-122 691.2759,-86 826.7241,-86 826.7241,-122"/>
<text text-anchor="middle" x="759" y="-99.8" font-family="Times,serif" font-size="14.00" fill="#000000">ImageViewerModule</text>
</g>
<!-- ImageViewerModule&#45;&gt;AppModule -->
<g id="edge7" class="edge">
<title>ImageViewerModule&#45;&gt;AppModule</title>
<path fill="none" stroke="#000000" d="M759,-122.2396C759,-137.5706 759,-157 759,-157 759,-157 864.3391,-157 864.3391,-157"/>
<polygon fill="#000000" stroke="#000000" points="864.3391,-160.5001 874.3391,-157 864.339,-153.5001 864.3391,-160.5001"/>
</g>
<!-- InfoDialogModule -->
<g id="node9" class="node">
<title>InfoDialogModule</title>
<polygon fill="#8dd3c7" stroke="#000000" points="673.4734,-122 670.4734,-126 649.4734,-126 646.4734,-122 552.5266,-122 552.5266,-86 673.4734,-86 673.4734,-122"/>
<text text-anchor="middle" x="613" y="-99.8" font-family="Times,serif" font-size="14.00" fill="#000000">InfoDialogModule</text>
</g>
<!-- InfoDialogModule&#45;&gt;AppModule -->
<g id="edge8" class="edge">
<title>InfoDialogModule&#45;&gt;AppModule</title>
<path fill="none" stroke="#000000" d="M613,-122.0225C613,-139.3734 613,-163 613,-163 613,-163 864.1873,-163 864.1873,-163"/>
<polygon fill="#000000" stroke="#000000" points="864.1873,-166.5001 874.1873,-163 864.1872,-159.5001 864.1873,-166.5001"/>
</g>
<!-- OntologyExplorationModule -->
<g id="node10" class="node">
<title>OntologyExplorationModule</title>
<polygon fill="#8dd3c7" stroke="#000000" points="534.0378,-122 531.0378,-126 510.0378,-126 507.0378,-122 355.9622,-122 355.9622,-86 534.0378,-86 534.0378,-122"/>
<text text-anchor="middle" x="445" y="-99.8" font-family="Times,serif" font-size="14.00" fill="#000000">OntologyExplorationModule</text>
</g>
<!-- OntologyExplorationModule&#45;&gt;AppModule -->
<g id="edge9" class="edge">
<title>OntologyExplorationModule&#45;&gt;AppModule</title>
<path fill="none" stroke="#000000" d="M445,-122.1061C445,-141.3391 445,-169 445,-169 445,-169 864.2019,-169 864.2019,-169"/>
<polygon fill="#000000" stroke="#000000" points="864.2019,-172.5001 874.2019,-169 864.2019,-165.5001 864.2019,-172.5001"/>
</g>
<!-- ResultsBrowserModule -->
<g id="node11" class="node">
<title>ResultsBrowserModule</title>
<polygon fill="#8dd3c7" stroke="#000000" points="338.1951,-122 335.1951,-126 314.1951,-126 311.1951,-122 189.8049,-122 189.8049,-86 338.1951,-86 338.1951,-122"/>
<text text-anchor="middle" x="264" y="-99.8" font-family="Times,serif" font-size="14.00" fill="#000000">ResultsBrowserModule</text>
</g>
<!-- ResultsBrowserModule&#45;&gt;AppModule -->
<g id="edge10" class="edge">
<title>ResultsBrowserModule&#45;&gt;AppModule</title>
<path fill="none" stroke="#000000" d="M264,-122.2843C264,-143.3211 264,-175 264,-175 264,-175 864.2226,-175 864.2226,-175"/>
<polygon fill="#000000" stroke="#000000" points="864.2227,-178.5001 874.2226,-175 864.2226,-171.5001 864.2227,-178.5001"/>
</g>
<!-- SpinnerOverlayModule -->
<g id="node12" class="node">
<title>SpinnerOverlayModule</title>
<polygon fill="#8dd3c7" stroke="#000000" points="172.1853,-122 169.1853,-126 148.1853,-126 145.1853,-122 23.8147,-122 23.8147,-86 172.1853,-86 172.1853,-122"/>
<text text-anchor="middle" x="98" y="-99.8" font-family="Times,serif" font-size="14.00" fill="#000000">SpinnerOverlayModule</text>
</g>
<!-- SpinnerOverlayModule&#45;&gt;AppModule -->
<g id="edge11" class="edge">
<title>SpinnerOverlayModule&#45;&gt;AppModule</title>
<path fill="none" stroke="#000000" d="M98,-122.2479C98,-145.0179 98,-181 98,-181 98,-181 864.3107,-181 864.3107,-181"/>
<polygon fill="#000000" stroke="#000000" points="864.3107,-184.5001 874.3107,-181 864.3106,-177.5001 864.3107,-184.5001"/>
</g>
</g>
</svg>
