<?xml version="1.0" encoding="UTF-8" standalone="no"?>
<!DOCTYPE svg PUBLIC "-//W3C//DTD SVG 1.1//EN"
 "http://www.w3.org/Graphics/SVG/1.1/DTD/svg11.dtd">
<!-- Generated by graphviz version 2.40.1 (20161225.0304)
 -->
<!-- Title: dependencies Pages: 1 -->
<svg width="1755pt" height="284pt"
 viewBox="0.00 0.00 1755.00 284.00" xmlns="http://www.w3.org/2000/svg" xmlns:xlink="http://www.w3.org/1999/xlink">
<g id="graph0" class="graph" transform="scale(1 1) rotate(0) translate(4 280)">
<title>dependencies</title>
<polygon fill="#ffffff" stroke="transparent" points="-4,4 -4,-280 1751,-280 1751,4 -4,4"/>
<text text-anchor="start" x="852.5091" y="-42.4" font-family="sans-serif" font-weight="bold" font-size="14.00" fill="#000000">Legend</text>
<polygon fill="#ffffb3" stroke="transparent" points="639.5,-10 639.5,-30 659.5,-30 659.5,-10 639.5,-10"/>
<text text-anchor="start" x="663.129" y="-15.4" font-family="sans-serif" font-size="14.00" fill="#000000"> &#160;Declarations</text>
<polygon fill="#8dd3c7" stroke="transparent" points="752.5,-10 752.5,-30 772.5,-30 772.5,-10 752.5,-10"/>
<text text-anchor="start" x="776.2251" y="-15.4" font-family="sans-serif" font-size="14.00" fill="#000000"> &#160;Module</text>
<polygon fill="#80b1d3" stroke="transparent" points="838.5,-10 838.5,-30 858.5,-30 858.5,-10 838.5,-10"/>
<text text-anchor="start" x="862.2812" y="-15.4" font-family="sans-serif" font-size="14.00" fill="#000000"> &#160;Bootstrap</text>
<polygon fill="#fdb462" stroke="transparent" points="935.5,-10 935.5,-30 955.5,-30 955.5,-10 935.5,-10"/>
<text text-anchor="start" x="959.1732" y="-15.4" font-family="sans-serif" font-size="14.00" fill="#000000"> &#160;Providers</text>
<polygon fill="#fb8072" stroke="transparent" points="1031.5,-10 1031.5,-30 1051.5,-30 1051.5,-10 1031.5,-10"/>
<text text-anchor="start" x="1055.2258" y="-15.4" font-family="sans-serif" font-size="14.00" fill="#000000"> &#160;Exports</text>
<g id="clust1" class="cluster">
<title>cluster_AppModule</title>
<polygon fill="none" stroke="#000000" stroke-dasharray="1,5" points="8,-70 8,-268 1739,-268 1739,-70 8,-70"/>
</g>
<g id="clust2" class="cluster">
<title>cluster_AppModule_declarations</title>
<polygon fill="none" stroke="#000000" points="1609,-78 1609,-130 1731,-130 1731,-78 1609,-78"/>
</g>
<g id="clust4" class="cluster">
<title>cluster_AppModule_imports</title>
<polygon fill="none" stroke="#000000" points="16,-78 16,-130 1601,-130 1601,-78 16,-78"/>
</g>
<g id="clust6" class="cluster">
<title>cluster_AppModule_bootstrap</title>
<polygon fill="none" stroke="#000000" points="901,-208 901,-260 1025,-260 1025,-208 901,-208"/>
</g>
<!-- AppComponent -->
<g id="node1" class="node">
<title>AppComponent</title>
<polygon fill="#ffffb3" stroke="#000000" points="1722.9399,-122 1617.0601,-122 1617.0601,-86 1722.9399,-86 1722.9399,-122"/>
<text text-anchor="middle" x="1670" y="-99.8" font-family="Times,serif" font-size="14.00" fill="#000000">AppComponent</text>
</g>
<!-- AppModule -->
<g id="node2" class="node">
<title>AppModule</title>
<polygon fill="#8dd3c7" stroke="#000000" points="1004.6571,-187 1001.6571,-191 980.6571,-191 977.6571,-187 921.3429,-187 921.3429,-151 1004.6571,-151 1004.6571,-187"/>
<text text-anchor="middle" x="963" y="-164.8" font-family="Times,serif" font-size="14.00" fill="#000000">AppModule</text>
</g>
<!-- AppComponent&#45;&gt;AppModule -->
<g id="edge1" class="edge">
<title>AppComponent&#45;&gt;AppModule</title>
<path fill="none" stroke="#000000" d="M1670,-122.2479C1670,-145.0179 1670,-181 1670,-181 1670,-181 1014.8473,-181 1014.8473,-181"/>
<polygon fill="#000000" stroke="#000000" points="1014.8474,-177.5001 1004.8473,-181 1014.8473,-184.5001 1014.8474,-177.5001"/>
</g>
<!-- AppComponent  -->
<g id="node14" class="node">
<title>AppComponent </title>
<polygon fill="#80b1d3" stroke="#000000" points="1017.439,-252 908.561,-252 908.561,-216 1017.439,-216 1017.439,-252"/>
<text text-anchor="middle" x="963" y="-229.8" font-family="Times,serif" font-size="14.00" fill="#000000">AppComponent </text>
</g>
<!-- AppModule&#45;&gt;AppComponent  -->
<g id="edge13" class="edge">
<title>AppModule&#45;&gt;AppComponent </title>
<path fill="none" stroke="#000000" stroke-dasharray="1,5" d="M963,-187.1061C963,-187.1061 963,-205.991 963,-205.991"/>
<polygon fill="#000000" stroke="#000000" points="959.5001,-205.9909 963,-215.991 966.5001,-205.991 959.5001,-205.9909"/>
</g>
<!-- BodyUiModule -->
<g id="node3" class="node">
<title>BodyUiModule</title>
<polygon fill="#8dd3c7" stroke="#000000" points="1592.8837,-122 1589.8837,-126 1568.8837,-126 1565.8837,-122 1489.1163,-122 1489.1163,-86 1592.8837,-86 1592.8837,-122"/>
<text text-anchor="middle" x="1541" y="-99.8" font-family="Times,serif" font-size="14.00" fill="#000000">BodyUiModule</text>
</g>
<!-- BodyUiModule&#45;&gt;AppModule -->
<g id="edge2" class="edge">
<title>BodyUiModule&#45;&gt;AppModule</title>
<path fill="none" stroke="#000000" d="M1541,-122.2843C1541,-143.3211 1541,-175 1541,-175 1541,-175 1015.0339,-175 1015.0339,-175"/>
<polygon fill="#000000" stroke="#000000" points="1015.034,-171.5001 1005.0339,-175 1015.0339,-178.5001 1015.034,-171.5001"/>
</g>
<!-- CoreModule -->
<g id="node4" class="node">
<title>CoreModule</title>
<polygon fill="#8dd3c7" stroke="#000000" points="1471.2619,-122 1468.2619,-126 1447.2619,-126 1444.2619,-122 1384.7381,-122 1384.7381,-86 1471.2619,-86 1471.2619,-122"/>
<text text-anchor="middle" x="1428" y="-99.8" font-family="Times,serif" font-size="14.00" fill="#000000">CoreModule</text>
</g>
<!-- CoreModule&#45;&gt;AppModule -->
<g id="edge3" class="edge">
<title>CoreModule&#45;&gt;AppModule</title>
<path fill="none" stroke="#000000" d="M1428,-122.1061C1428,-141.3391 1428,-169 1428,-169 1428,-169 1014.6749,-169 1014.6749,-169"/>
<polygon fill="#000000" stroke="#000000" points="1014.6749,-165.5001 1004.6749,-169 1014.6748,-172.5001 1014.6749,-165.5001"/>
</g>
<!-- DrawerModule -->
<g id="node5" class="node">
<title>DrawerModule</title>
<polygon fill="#8dd3c7" stroke="#000000" points="1366.5146,-122 1363.5146,-126 1342.5146,-126 1339.5146,-122 1265.4854,-122 1265.4854,-86 1366.5146,-86 1366.5146,-122"/>
<text text-anchor="middle" x="1316" y="-99.8" font-family="Times,serif" font-size="14.00" fill="#000000">DrawerModule</text>
</g>
<!-- DrawerModule&#45;&gt;AppModule -->
<g id="edge4" class="edge">
<title>DrawerModule&#45;&gt;AppModule</title>
<path fill="none" stroke="#000000" d="M1316,-122.0225C1316,-139.3734 1316,-163 1316,-163 1316,-163 1014.8799,-163 1014.8799,-163"/>
<polygon fill="#000000" stroke="#000000" points="1014.88,-159.5001 1004.8799,-163 1014.8799,-166.5001 1014.88,-159.5001"/>
</g>
<!-- DualSliderModule -->
<g id="node6" class="node">
<title>DualSliderModule</title>
<polygon fill="#8dd3c7" stroke="#000000" points="1247.2008,-122 1244.2008,-126 1223.2008,-126 1220.2008,-122 1126.7992,-122 1126.7992,-86 1247.2008,-86 1247.2008,-122"/>
<text text-anchor="middle" x="1187" y="-99.8" font-family="Times,serif" font-size="14.00" fill="#000000">DualSliderModule</text>
</g>
<!-- DualSliderModule&#45;&gt;AppModule -->
<g id="edge5" class="edge">
<title>DualSliderModule&#45;&gt;AppModule</title>
<path fill="none" stroke="#000000" d="M1187,-122.2396C1187,-137.5706 1187,-157 1187,-157 1187,-157 1014.8699,-157 1014.8699,-157"/>
<polygon fill="#000000" stroke="#000000" points="1014.87,-153.5001 1004.8699,-157 1014.8699,-160.5001 1014.87,-153.5001"/>
</g>
<!-- FiltersPopoverModule -->
<g id="node7" class="node">
<title>FiltersPopoverModule</title>
<polygon fill="#8dd3c7" stroke="#000000" points="1108.9818,-122 1105.9818,-126 1084.9818,-126 1081.9818,-122 967.0182,-122 967.0182,-86 1108.9818,-86 1108.9818,-122"/>
<text text-anchor="middle" x="1038" y="-99.8" font-family="Times,serif" font-size="14.00" fill="#000000">FiltersPopoverModule</text>
</g>
<!-- FiltersPopoverModule&#45;&gt;AppModule -->
<g id="edge6" class="edge">
<title>FiltersPopoverModule&#45;&gt;AppModule</title>
<path fill="none" stroke="#000000" d="M985.9187,-122.1061C985.9187,-122.1061 985.9187,-140.991 985.9187,-140.991"/>
<polygon fill="#000000" stroke="#000000" points="982.4187,-140.9909 985.9187,-150.991 989.4187,-140.991 982.4187,-140.9909"/>
</g>
<!-- InfoButtonModule -->
<g id="node8" class="node">
<title>InfoButtonModule</title>
<polygon fill="#8dd3c7" stroke="#000000" points="949.4888,-122 946.4888,-126 925.4888,-126 922.4888,-122 828.5112,-122 828.5112,-86 949.4888,-86 949.4888,-122"/>
<text text-anchor="middle" x="889" y="-99.8" font-family="Times,serif" font-size="14.00" fill="#000000">InfoButtonModule</text>
</g>
<!-- InfoButtonModule&#45;&gt;AppModule -->
<g id="edge7" class="edge">
<title>InfoButtonModule&#45;&gt;AppModule</title>
<path fill="none" stroke="#000000" d="M935.3331,-122.1061C935.3331,-122.1061 935.3331,-140.991 935.3331,-140.991"/>
<polygon fill="#000000" stroke="#000000" points="931.8332,-140.9909 935.3331,-150.991 938.8332,-140.991 931.8332,-140.9909"/>
</g>
<!-- OntologyExplorationModule -->
<g id="node9" class="node">
<title>OntologyExplorationModule</title>
<polygon fill="#8dd3c7" stroke="#000000" points="810.0378,-122 807.0378,-126 786.0378,-126 783.0378,-122 631.9622,-122 631.9622,-86 810.0378,-86 810.0378,-122"/>
<text text-anchor="middle" x="721" y="-99.8" font-family="Times,serif" font-size="14.00" fill="#000000">OntologyExplorationModule</text>
</g>
<!-- OntologyExplorationModule&#45;&gt;AppModule -->
<g id="edge8" class="edge">
<title>OntologyExplorationModule&#45;&gt;AppModule</title>
<path fill="none" stroke="#000000" d="M721,-122.2396C721,-137.5706 721,-157 721,-157 721,-157 911.1231,-157 911.1231,-157"/>
<polygon fill="#000000" stroke="#000000" points="911.1231,-160.5001 921.1231,-157 911.1231,-153.5001 911.1231,-160.5001"/>
</g>
<!-- OrganSelectorModule -->
<g id="node10" class="node">
<title>OrganSelectorModule</title>
<polygon fill="#8dd3c7" stroke="#000000" points="614.4004,-122 611.4004,-126 590.4004,-126 587.4004,-122 473.5996,-122 473.5996,-86 614.4004,-86 614.4004,-122"/>
<text text-anchor="middle" x="544" y="-99.8" font-family="Times,serif" font-size="14.00" fill="#000000">OrganSelectorModule</text>
</g>
<!-- OrganSelectorModule&#45;&gt;AppModule -->
<g id="edge9" class="edge">
<title>OrganSelectorModule&#45;&gt;AppModule</title>
<path fill="none" stroke="#000000" d="M544,-122.0225C544,-139.3734 544,-163 544,-163 544,-163 911.2928,-163 911.2928,-163"/>
<polygon fill="#000000" stroke="#000000" points="911.2929,-166.5001 921.2928,-163 911.2928,-159.5001 911.2929,-166.5001"/>
</g>
<!-- ResultsBrowserModule -->
<g id="node11" class="node">
<title>ResultsBrowserModule</title>
<polygon fill="#8dd3c7" stroke="#000000" points="456.1951,-122 453.1951,-126 432.1951,-126 429.1951,-122 307.8049,-122 307.8049,-86 456.1951,-86 456.1951,-122"/>
<text text-anchor="middle" x="382" y="-99.8" font-family="Times,serif" font-size="14.00" fill="#000000">ResultsBrowserModule</text>
</g>
<!-- ResultsBrowserModule&#45;&gt;AppModule -->
<g id="edge10" class="edge">
<title>ResultsBrowserModule&#45;&gt;AppModule</title>
<path fill="none" stroke="#000000" d="M382,-122.1061C382,-141.3391 382,-169 382,-169 382,-169 911.2159,-169 911.2159,-169"/>
<polygon fill="#000000" stroke="#000000" points="911.2159,-172.5001 921.2159,-169 911.2159,-165.5001 911.2159,-172.5001"/>
</g>
<!-- SpinnerOverlayModule -->
<g id="node12" class="node">
<title>SpinnerOverlayModule</title>
<polygon fill="#8dd3c7" stroke="#000000" points="290.1853,-122 287.1853,-126 266.1853,-126 263.1853,-122 141.8147,-122 141.8147,-86 290.1853,-86 290.1853,-122"/>
<text text-anchor="middle" x="216" y="-99.8" font-family="Times,serif" font-size="14.00" fill="#000000">SpinnerOverlayModule</text>
</g>
<!-- SpinnerOverlayModule&#45;&gt;AppModule -->
<g id="edge11" class="edge">
<title>SpinnerOverlayModule&#45;&gt;AppModule</title>
<path fill="none" stroke="#000000" d="M216,-122.2843C216,-143.3211 216,-175 216,-175 216,-175 911.2374,-175 911.2374,-175"/>
<polygon fill="#000000" stroke="#000000" points="911.2374,-178.5001 921.2374,-175 911.2374,-171.5001 911.2374,-178.5001"/>
</g>
<!-- ViewerModule -->
<g id="node13" class="node">
<title>ViewerModule</title>
<polygon fill="#8dd3c7" stroke="#000000" points="124.2437,-122 121.2437,-126 100.2437,-126 97.2437,-122 23.7563,-122 23.7563,-86 124.2437,-86 124.2437,-122"/>
<text text-anchor="middle" x="74" y="-99.8" font-family="Times,serif" font-size="14.00" fill="#000000">ViewerModule</text>
</g>
<!-- ViewerModule&#45;&gt;AppModule -->
<g id="edge12" class="edge">
<title>ViewerModule&#45;&gt;AppModule</title>
<path fill="none" stroke="#000000" d="M74,-122.2479C74,-145.0179 74,-181 74,-181 74,-181 911.3141,-181 911.3141,-181"/>
<polygon fill="#000000" stroke="#000000" points="911.3141,-184.5001 921.3141,-181 911.314,-177.5001 911.3141,-184.5001"/>
</g>
</g>
</svg>
