<?xml version="1.0" encoding="UTF-8" standalone="no"?>
<!DOCTYPE svg PUBLIC "-//W3C//DTD SVG 1.1//EN"
 "http://www.w3.org/Graphics/SVG/1.1/DTD/svg11.dtd">
<!-- Generated by graphviz version 2.47.3 (20210619.1520)
 -->
<!-- Title: dependencies Pages: 1 -->
<svg width="1919pt" height="174pt"
 viewBox="0.00 0.00 1919.00 173.80" xmlns="http://www.w3.org/2000/svg" xmlns:xlink="http://www.w3.org/1999/xlink">
<g id="graph0" class="graph" transform="scale(1 1) rotate(0) translate(4 169.8)">
<title>dependencies</title>
<polygon fill="white" stroke="transparent" points="-4,4 -4,-169.8 1915,-169.8 1915,4 -4,4"/>
<text text-anchor="middle" x="955.5" y="-8.2" font-family="sans-serif" font-size="14.00">dependencies</text>
<g id="clust1" class="cluster">
<title>cluster_AppModule</title>
<polygon fill="none" stroke="black" stroke-dasharray="1,5" points="8,-32.8 8,-157.8 1903,-157.8 1903,-32.8 8,-32.8"/>
</g>
<g id="clust4" class="cluster">
<title>cluster_AppModule_imports</title>
<polygon fill="none" stroke="black" points="146,-40.8 146,-92.8 1895,-92.8 1895,-40.8 146,-40.8"/>
</g>
<g id="clust2" class="cluster">
<title>cluster_AppModule_declarations</title>
<polygon fill="none" stroke="black" points="16,-40.8 16,-92.8 138,-92.8 138,-40.8 16,-40.8"/>
</g>
<!-- AppComponent -->
<g id="node1" class="node">
<title>AppComponent</title>
<polygon fill="#ffffb3" stroke="black" points="129.94,-84.8 24.06,-84.8 24.06,-48.8 129.94,-48.8 129.94,-84.8"/>
<text text-anchor="middle" x="77" y="-62.6" font-family="Times,serif" font-size="14.00">AppComponent</text>
</g>
<!-- AppModule -->
<g id="node2" class="node">
<title>AppModule</title>
<polygon fill="#8dd3c7" stroke="black" points="1056.66,-149.8 1053.66,-153.8 1032.66,-153.8 1029.66,-149.8 973.34,-149.8 973.34,-113.8 1056.66,-113.8 1056.66,-149.8"/>
<text text-anchor="middle" x="1015" y="-127.6" font-family="Times,serif" font-size="14.00">AppModule</text>
</g>
<!-- AppComponent&#45;&gt;AppModule -->
<g id="edge1" class="edge">
<title>AppComponent&#45;&gt;AppModule</title>
<path fill="none" stroke="black" d="M77,-84.89C77,-107.93 77,-144.8 77,-144.8 77,-144.8 963.18,-144.8 963.18,-144.8"/>
<polygon fill="black" stroke="black" points="963.18,-148.3 973.18,-144.8 963.18,-141.3 963.18,-148.3"/>
</g>
<!-- BodyUiModule -->
<g id="node3" class="node">
<title>BodyUiModule</title>
<polygon fill="#8dd3c7" stroke="black" points="1886.88,-84.8 1883.88,-88.8 1862.88,-88.8 1859.88,-84.8 1783.12,-84.8 1783.12,-48.8 1886.88,-48.8 1886.88,-84.8"/>
<text text-anchor="middle" x="1835" y="-62.6" font-family="Times,serif" font-size="14.00">BodyUiModule</text>
</g>
<!-- BodyUiModule&#45;&gt;AppModule -->
<g id="edge2" class="edge">
<title>BodyUiModule&#45;&gt;AppModule</title>
<path fill="none" stroke="black" d="M1835,-84.89C1835,-107.93 1835,-144.8 1835,-144.8 1835,-144.8 1066.79,-144.8 1066.79,-144.8"/>
<polygon fill="black" stroke="black" points="1066.79,-141.3 1056.79,-144.8 1066.79,-148.3 1066.79,-141.3"/>
</g>
<!-- CoreModule -->
<g id="node4" class="node">
<title>CoreModule</title>
<polygon fill="#8dd3c7" stroke="black" points="1765.26,-84.8 1762.26,-88.8 1741.26,-88.8 1738.26,-84.8 1678.74,-84.8 1678.74,-48.8 1765.26,-48.8 1765.26,-84.8"/>
<text text-anchor="middle" x="1722" y="-62.6" font-family="Times,serif" font-size="14.00">CoreModule</text>
</g>
<!-- CoreModule&#45;&gt;AppModule -->
<g id="edge3" class="edge">
<title>CoreModule&#45;&gt;AppModule</title>
<path fill="none" stroke="black" d="M1722,-84.84C1722,-106.46 1722,-139.8 1722,-139.8 1722,-139.8 1066.85,-139.8 1066.85,-139.8"/>
<polygon fill="black" stroke="black" points="1066.85,-136.3 1056.85,-139.8 1066.85,-143.3 1066.85,-136.3"/>
</g>
<!-- DrawerModule -->
<g id="node5" class="node">
<title>DrawerModule</title>
<polygon fill="#8dd3c7" stroke="black" points="1660.51,-84.8 1657.51,-88.8 1636.51,-88.8 1633.51,-84.8 1559.49,-84.8 1559.49,-48.8 1660.51,-48.8 1660.51,-84.8"/>
<text text-anchor="middle" x="1610" y="-62.6" font-family="Times,serif" font-size="14.00">DrawerModule</text>
</g>
<!-- DrawerModule&#45;&gt;AppModule -->
<g id="edge4" class="edge">
<title>DrawerModule&#45;&gt;AppModule</title>
<path fill="none" stroke="black" d="M1610,-85.02C1610,-105.17 1610,-134.8 1610,-134.8 1610,-134.8 1066.84,-134.8 1066.84,-134.8"/>
<polygon fill="black" stroke="black" points="1066.84,-131.3 1056.84,-134.8 1066.84,-138.3 1066.84,-131.3"/>
</g>
<!-- DualSliderModule -->
<g id="node6" class="node">
<title>DualSliderModule</title>
<polygon fill="#8dd3c7" stroke="black" points="1541.2,-84.8 1538.2,-88.8 1517.2,-88.8 1514.2,-84.8 1420.8,-84.8 1420.8,-48.8 1541.2,-48.8 1541.2,-84.8"/>
<text text-anchor="middle" x="1481" y="-62.6" font-family="Times,serif" font-size="14.00">DualSliderModule</text>
</g>
<!-- DualSliderModule&#45;&gt;AppModule -->
<g id="edge5" class="edge">
<title>DualSliderModule&#45;&gt;AppModule</title>
<path fill="none" stroke="black" d="M1481,-85.02C1481,-103.63 1481,-129.8 1481,-129.8 1481,-129.8 1066.76,-129.8 1066.76,-129.8"/>
<polygon fill="black" stroke="black" points="1066.76,-126.3 1056.76,-129.8 1066.76,-133.3 1066.76,-126.3"/>
</g>
<!-- FiltersPopoverModule -->
<g id="node7" class="node">
<title>FiltersPopoverModule</title>
<polygon fill="#8dd3c7" stroke="black" points="1402.98,-84.8 1399.98,-88.8 1378.98,-88.8 1375.98,-84.8 1261.02,-84.8 1261.02,-48.8 1402.98,-48.8 1402.98,-84.8"/>
<text text-anchor="middle" x="1332" y="-62.6" font-family="Times,serif" font-size="14.00">FiltersPopoverModule</text>
</g>
<!-- FiltersPopoverModule&#45;&gt;AppModule -->
<g id="edge6" class="edge">
<title>FiltersPopoverModule&#45;&gt;AppModule</title>
<path fill="none" stroke="black" d="M1332,-84.83C1332,-101.86 1332,-124.8 1332,-124.8 1332,-124.8 1066.77,-124.8 1066.77,-124.8"/>
<polygon fill="black" stroke="black" points="1066.77,-121.3 1056.77,-124.8 1066.77,-128.3 1066.77,-121.3"/>
</g>
<!-- InfoButtonModule -->
<g id="node8" class="node">
<title>InfoButtonModule</title>
<polygon fill="#8dd3c7" stroke="black" points="1243.49,-84.8 1240.49,-88.8 1219.49,-88.8 1216.49,-84.8 1122.51,-84.8 1122.51,-48.8 1243.49,-48.8 1243.49,-84.8"/>
<text text-anchor="middle" x="1183" y="-62.6" font-family="Times,serif" font-size="14.00">InfoButtonModule</text>
</g>
<!-- InfoButtonModule&#45;&gt;AppModule -->
<g id="edge7" class="edge">
<title>InfoButtonModule&#45;&gt;AppModule</title>
<path fill="none" stroke="black" d="M1183,-85.04C1183,-100.37 1183,-119.8 1183,-119.8 1183,-119.8 1066.96,-119.8 1066.96,-119.8"/>
<polygon fill="black" stroke="black" points="1066.96,-116.3 1056.96,-119.8 1066.96,-123.3 1066.96,-116.3"/>
</g>
<!-- OntologyExplorationModule -->
<g id="node9" class="node">
<title>OntologyExplorationModule</title>
<polygon fill="#8dd3c7" stroke="black" points="1104.04,-84.8 1101.04,-88.8 1080.04,-88.8 1077.04,-84.8 925.96,-84.8 925.96,-48.8 1104.04,-48.8 1104.04,-84.8"/>
<text text-anchor="middle" x="1015" y="-62.6" font-family="Times,serif" font-size="14.00">OntologyExplorationModule</text>
</g>
<!-- OntologyExplorationModule&#45;&gt;AppModule -->
<g id="edge8" class="edge">
<title>OntologyExplorationModule&#45;&gt;AppModule</title>
<path fill="none" stroke="black" d="M1015,-84.91C1015,-84.91 1015,-103.79 1015,-103.79"/>
<polygon fill="black" stroke="black" points="1011.5,-103.79 1015,-113.79 1018.5,-103.79 1011.5,-103.79"/>
</g>
<!-- OrganSelectorModule -->
<g id="node10" class="node">
<title>OrganSelectorModule</title>
<polygon fill="#8dd3c7" stroke="black" points="908.4,-84.8 905.4,-88.8 884.4,-88.8 881.4,-84.8 767.6,-84.8 767.6,-48.8 908.4,-48.8 908.4,-84.8"/>
<text text-anchor="middle" x="838" y="-62.6" font-family="Times,serif" font-size="14.00">OrganSelectorModule</text>
</g>
<!-- OrganSelectorModule&#45;&gt;AppModule -->
<g id="edge9" class="edge">
<title>OrganSelectorModule&#45;&gt;AppModule</title>
<path fill="none" stroke="black" d="M838,-85.04C838,-100.37 838,-119.8 838,-119.8 838,-119.8 963.05,-119.8 963.05,-119.8"/>
<polygon fill="black" stroke="black" points="963.05,-123.3 973.05,-119.8 963.05,-116.3 963.05,-123.3"/>
</g>
<!-- ResultsBrowserModule -->
<g id="node11" class="node">
<title>ResultsBrowserModule</title>
<polygon fill="#8dd3c7" stroke="black" points="750.2,-84.8 747.2,-88.8 726.2,-88.8 723.2,-84.8 601.8,-84.8 601.8,-48.8 750.2,-48.8 750.2,-84.8"/>
<text text-anchor="middle" x="676" y="-62.6" font-family="Times,serif" font-size="14.00">ResultsBrowserModule</text>
</g>
<!-- ResultsBrowserModule&#45;&gt;AppModule -->
<g id="edge10" class="edge">
<title>ResultsBrowserModule&#45;&gt;AppModule</title>
<path fill="none" stroke="black" d="M676,-84.83C676,-101.86 676,-124.8 676,-124.8 676,-124.8 963.09,-124.8 963.09,-124.8"/>
<polygon fill="black" stroke="black" points="963.09,-128.3 973.09,-124.8 963.09,-121.3 963.09,-128.3"/>
</g>
<!-- SpinnerOverlayModule -->
<g id="node12" class="node">
<title>SpinnerOverlayModule</title>
<polygon fill="#8dd3c7" stroke="black" points="584.19,-84.8 581.19,-88.8 560.19,-88.8 557.19,-84.8 435.81,-84.8 435.81,-48.8 584.19,-48.8 584.19,-84.8"/>
<text text-anchor="middle" x="510" y="-62.6" font-family="Times,serif" font-size="14.00">SpinnerOverlayModule</text>
</g>
<!-- SpinnerOverlayModule&#45;&gt;AppModule -->
<g id="edge11" class="edge">
<title>SpinnerOverlayModule&#45;&gt;AppModule</title>
<path fill="none" stroke="black" d="M510,-85.02C510,-103.63 510,-129.8 510,-129.8 510,-129.8 963.24,-129.8 963.24,-129.8"/>
<polygon fill="black" stroke="black" points="963.24,-133.3 973.24,-129.8 963.24,-126.3 963.24,-133.3"/>
</g>
<!-- TrackingPopupModule -->
<g id="node13" class="node">
<title>TrackingPopupModule</title>
<polygon fill="#8dd3c7" stroke="black" points="417.87,-84.8 414.87,-88.8 393.87,-88.8 390.87,-84.8 272.13,-84.8 272.13,-48.8 417.87,-48.8 417.87,-84.8"/>
<text text-anchor="middle" x="345" y="-62.6" font-family="Times,serif" font-size="14.00">TrackingPopupModule</text>
</g>
<!-- TrackingPopupModule&#45;&gt;AppModule -->
<g id="edge12" class="edge">
<title>TrackingPopupModule&#45;&gt;AppModule</title>
<path fill="none" stroke="black" d="M345,-85.02C345,-105.17 345,-134.8 345,-134.8 345,-134.8 963.34,-134.8 963.34,-134.8"/>
<polygon fill="black" stroke="black" points="963.34,-138.3 973.34,-134.8 963.34,-131.3 963.34,-138.3"/>
</g>
<!-- ViewerModule -->
<g id="node14" class="node">
<title>ViewerModule</title>
<polygon fill="#8dd3c7" stroke="black" points="254.24,-84.8 251.24,-88.8 230.24,-88.8 227.24,-84.8 153.76,-84.8 153.76,-48.8 254.24,-48.8 254.24,-84.8"/>
<text text-anchor="middle" x="204" y="-62.6" font-family="Times,serif" font-size="14.00">ViewerModule</text>
</g>
<!-- ViewerModule&#45;&gt;AppModule -->
<g id="edge13" class="edge">
<title>ViewerModule&#45;&gt;AppModule</title>
<path fill="none" stroke="black" d="M204,-84.84C204,-106.46 204,-139.8 204,-139.8 204,-139.8 963.1,-139.8 963.1,-139.8"/>
<polygon fill="black" stroke="black" points="963.1,-143.3 973.1,-139.8 963.1,-136.3 963.1,-143.3"/>
</g>
</g>
</svg>
