<?xml version="1.0" encoding="UTF-8" standalone="no"?>
<!DOCTYPE svg PUBLIC "-//W3C//DTD SVG 1.1//EN"
 "http://www.w3.org/Graphics/SVG/1.1/DTD/svg11.dtd">
<!-- Generated by graphviz version 2.40.1 (20161225.0304)
 -->
<!-- Title: dependencies Pages: 1 -->
<svg width="1777pt" height="284pt"
 viewBox="0.00 0.00 1777.00 284.00" xmlns="http://www.w3.org/2000/svg" xmlns:xlink="http://www.w3.org/1999/xlink">
<g id="graph0" class="graph" transform="scale(1 1) rotate(0) translate(4 280)">
<title>dependencies</title>
<polygon fill="#ffffff" stroke="transparent" points="-4,4 -4,-280 1773,-280 1773,4 -4,4"/>
<text text-anchor="start" x="863.5091" y="-42.4" font-family="sans-serif" font-weight="bold" font-size="14.00" fill="#000000">Legend</text>
<polygon fill="#ffffb3" stroke="transparent" points="650.5,-10 650.5,-30 670.5,-30 670.5,-10 650.5,-10"/>
<text text-anchor="start" x="674.129" y="-15.4" font-family="sans-serif" font-size="14.00" fill="#000000"> &#160;Declarations</text>
<polygon fill="#8dd3c7" stroke="transparent" points="763.5,-10 763.5,-30 783.5,-30 783.5,-10 763.5,-10"/>
<text text-anchor="start" x="787.2251" y="-15.4" font-family="sans-serif" font-size="14.00" fill="#000000"> &#160;Module</text>
<polygon fill="#80b1d3" stroke="transparent" points="849.5,-10 849.5,-30 869.5,-30 869.5,-10 849.5,-10"/>
<text text-anchor="start" x="873.2812" y="-15.4" font-family="sans-serif" font-size="14.00" fill="#000000"> &#160;Bootstrap</text>
<polygon fill="#fdb462" stroke="transparent" points="946.5,-10 946.5,-30 966.5,-30 966.5,-10 946.5,-10"/>
<text text-anchor="start" x="970.1732" y="-15.4" font-family="sans-serif" font-size="14.00" fill="#000000"> &#160;Providers</text>
<polygon fill="#fb8072" stroke="transparent" points="1042.5,-10 1042.5,-30 1062.5,-30 1062.5,-10 1042.5,-10"/>
<text text-anchor="start" x="1066.2258" y="-15.4" font-family="sans-serif" font-size="14.00" fill="#000000"> &#160;Exports</text>
<g id="clust1" class="cluster">
<title>cluster_AppModule</title>
<polygon fill="none" stroke="#000000" stroke-dasharray="1,5" points="8,-70 8,-268 1761,-268 1761,-70 8,-70"/>
</g>
<g id="clust2" class="cluster">
<title>cluster_AppModule_declarations</title>
<polygon fill="none" stroke="#000000" points="1631,-78 1631,-130 1753,-130 1753,-78 1631,-78"/>
</g>
<g id="clust4" class="cluster">
<title>cluster_AppModule_imports</title>
<polygon fill="none" stroke="#000000" points="16,-78 16,-130 1623,-130 1623,-78 16,-78"/>
</g>
<g id="clust6" class="cluster">
<title>cluster_AppModule_bootstrap</title>
<polygon fill="none" stroke="#000000" points="933,-208 933,-260 1057,-260 1057,-208 933,-208"/>
</g>
<!-- AppComponent -->
<g id="node1" class="node">
<title>AppComponent</title>
<polygon fill="#ffffb3" stroke="#000000" points="1744.9399,-122 1639.0601,-122 1639.0601,-86 1744.9399,-86 1744.9399,-122"/>
<text text-anchor="middle" x="1692" y="-99.8" font-family="Times,serif" font-size="14.00" fill="#000000">AppComponent</text>
</g>
<!-- AppModule -->
<g id="node2" class="node">
<title>AppModule</title>
<polygon fill="#8dd3c7" stroke="#000000" points="1036.6571,-187 1033.6571,-191 1012.6571,-191 1009.6571,-187 953.3429,-187 953.3429,-151 1036.6571,-151 1036.6571,-187"/>
<text text-anchor="middle" x="995" y="-164.8" font-family="Times,serif" font-size="14.00" fill="#000000">AppModule</text>
</g>
<!-- AppComponent&#45;&gt;AppModule -->
<g id="edge1" class="edge">
<title>AppComponent&#45;&gt;AppModule</title>
<path fill="none" stroke="#000000" d="M1692,-122.2479C1692,-145.0179 1692,-181 1692,-181 1692,-181 1046.7717,-181 1046.7717,-181"/>
<polygon fill="#000000" stroke="#000000" points="1046.7717,-177.5001 1036.7717,-181 1046.7716,-184.5001 1046.7717,-177.5001"/>
</g>
<!-- AppComponent  -->
<g id="node14" class="node">
<title>AppComponent </title>
<polygon fill="#80b1d3" stroke="#000000" points="1049.439,-252 940.561,-252 940.561,-216 1049.439,-216 1049.439,-252"/>
<text text-anchor="middle" x="995" y="-229.8" font-family="Times,serif" font-size="14.00" fill="#000000">AppComponent </text>
</g>
<!-- AppModule&#45;&gt;AppComponent  -->
<g id="edge13" class="edge">
<title>AppModule&#45;&gt;AppComponent </title>
<path fill="none" stroke="#000000" stroke-dasharray="1,5" d="M995,-187.1061C995,-187.1061 995,-205.991 995,-205.991"/>
<polygon fill="#000000" stroke="#000000" points="991.5001,-205.9909 995,-215.991 998.5001,-205.991 991.5001,-205.9909"/>
</g>
<!-- BodyModule -->
<g id="node3" class="node">
<title>BodyModule</title>
<polygon fill="#8dd3c7" stroke="#000000" points="1614.8865,-122 1611.8865,-126 1590.8865,-126 1587.8865,-122 1525.1135,-122 1525.1135,-86 1614.8865,-86 1614.8865,-122"/>
<text text-anchor="middle" x="1570" y="-99.8" font-family="Times,serif" font-size="14.00" fill="#000000">BodyModule</text>
</g>
<!-- BodyModule&#45;&gt;AppModule -->
<g id="edge2" class="edge">
<title>BodyModule&#45;&gt;AppModule</title>
<path fill="none" stroke="#000000" d="M1570,-122.2843C1570,-143.3211 1570,-175 1570,-175 1570,-175 1046.8158,-175 1046.8158,-175"/>
<polygon fill="#000000" stroke="#000000" points="1046.8158,-171.5001 1036.8158,-175 1046.8157,-178.5001 1046.8158,-171.5001"/>
</g>
<!-- CoreModule -->
<g id="node4" class="node">
<title>CoreModule</title>
<polygon fill="#8dd3c7" stroke="#000000" points="1507.2619,-122 1504.2619,-126 1483.2619,-126 1480.2619,-122 1420.7381,-122 1420.7381,-86 1507.2619,-86 1507.2619,-122"/>
<text text-anchor="middle" x="1464" y="-99.8" font-family="Times,serif" font-size="14.00" fill="#000000">CoreModule</text>
</g>
<!-- CoreModule&#45;&gt;AppModule -->
<g id="edge3" class="edge">
<title>CoreModule&#45;&gt;AppModule</title>
<path fill="none" stroke="#000000" d="M1464,-122.1061C1464,-141.3391 1464,-169 1464,-169 1464,-169 1047.0334,-169 1047.0334,-169"/>
<polygon fill="#000000" stroke="#000000" points="1047.0334,-165.5001 1037.0334,-169 1047.0333,-172.5001 1047.0334,-165.5001"/>
</g>
<!-- DrawerModule -->
<g id="node5" class="node">
<title>DrawerModule</title>
<polygon fill="#8dd3c7" stroke="#000000" points="1402.5146,-122 1399.5146,-126 1378.5146,-126 1375.5146,-122 1301.4854,-122 1301.4854,-86 1402.5146,-86 1402.5146,-122"/>
<text text-anchor="middle" x="1352" y="-99.8" font-family="Times,serif" font-size="14.00" fill="#000000">DrawerModule</text>
</g>
<!-- DrawerModule&#45;&gt;AppModule -->
<g id="edge4" class="edge">
<title>DrawerModule&#45;&gt;AppModule</title>
<path fill="none" stroke="#000000" d="M1352,-122.0225C1352,-139.3734 1352,-163 1352,-163 1352,-163 1047.0022,-163 1047.0022,-163"/>
<polygon fill="#000000" stroke="#000000" points="1047.0023,-159.5001 1037.0022,-163 1047.0022,-166.5001 1047.0023,-159.5001"/>
</g>
<!-- DualSliderModule -->
<g id="node6" class="node">
<title>DualSliderModule</title>
<polygon fill="#8dd3c7" stroke="#000000" points="1283.2008,-122 1280.2008,-126 1259.2008,-126 1256.2008,-122 1162.7992,-122 1162.7992,-86 1283.2008,-86 1283.2008,-122"/>
<text text-anchor="middle" x="1223" y="-99.8" font-family="Times,serif" font-size="14.00" fill="#000000">DualSliderModule</text>
</g>
<!-- DualSliderModule&#45;&gt;AppModule -->
<g id="edge5" class="edge">
<title>DualSliderModule&#45;&gt;AppModule</title>
<path fill="none" stroke="#000000" d="M1223,-122.2396C1223,-137.5706 1223,-157 1223,-157 1223,-157 1046.8187,-157 1046.8187,-157"/>
<polygon fill="#000000" stroke="#000000" points="1046.8187,-153.5001 1036.8187,-157 1046.8187,-160.5001 1046.8187,-153.5001"/>
</g>
<!-- FiltersPopoverModule -->
<g id="node7" class="node">
<title>FiltersPopoverModule</title>
<polygon fill="#8dd3c7" stroke="#000000" points="1144.9818,-122 1141.9818,-126 1120.9818,-126 1117.9818,-122 1003.0182,-122 1003.0182,-86 1144.9818,-86 1144.9818,-122"/>
<text text-anchor="middle" x="1074" y="-99.8" font-family="Times,serif" font-size="14.00" fill="#000000">FiltersPopoverModule</text>
</g>
<!-- FiltersPopoverModule&#45;&gt;AppModule -->
<g id="edge6" class="edge">
<title>FiltersPopoverModule&#45;&gt;AppModule</title>
<path fill="none" stroke="#000000" d="M1019.9187,-122.1061C1019.9187,-122.1061 1019.9187,-140.991 1019.9187,-140.991"/>
<polygon fill="#000000" stroke="#000000" points="1016.4187,-140.9909 1019.9187,-150.991 1023.4187,-140.991 1016.4187,-140.9909"/>
</g>
<!-- ImageViewerModule -->
<g id="node8" class="node">
<title>ImageViewerModule</title>
<polygon fill="#8dd3c7" stroke="#000000" points="984.7241,-122 981.7241,-126 960.7241,-126 957.7241,-122 849.2759,-122 849.2759,-86 984.7241,-86 984.7241,-122"/>
<text text-anchor="middle" x="917" y="-99.8" font-family="Times,serif" font-size="14.00" fill="#000000">ImageViewerModule</text>
</g>
<!-- ImageViewerModule&#45;&gt;AppModule -->
<g id="edge7" class="edge">
<title>ImageViewerModule&#45;&gt;AppModule</title>
<path fill="none" stroke="#000000" d="M969.0169,-122.1061C969.0169,-122.1061 969.0169,-140.991 969.0169,-140.991"/>
<polygon fill="#000000" stroke="#000000" points="965.5169,-140.9909 969.0169,-150.991 972.5169,-140.991 965.5169,-140.9909"/>
</g>
<!-- InfoDialogModule -->
<g id="node9" class="node">
<title>InfoDialogModule</title>
<polygon fill="#8dd3c7" stroke="#000000" points="831.4734,-122 828.4734,-126 807.4734,-126 804.4734,-122 710.5266,-122 710.5266,-86 831.4734,-86 831.4734,-122"/>
<text text-anchor="middle" x="771" y="-99.8" font-family="Times,serif" font-size="14.00" fill="#000000">InfoDialogModule</text>
</g>
<!-- InfoDialogModule&#45;&gt;AppModule -->
<g id="edge8" class="edge">
<title>InfoDialogModule&#45;&gt;AppModule</title>
<path fill="none" stroke="#000000" d="M771,-122.2396C771,-137.5706 771,-157 771,-157 771,-157 943.1301,-157 943.1301,-157"/>
<polygon fill="#000000" stroke="#000000" points="943.1301,-160.5001 953.1301,-157 943.13,-153.5001 943.1301,-160.5001"/>
</g>
<!-- OntologyExplorationModule -->
<g id="node10" class="node">
<title>OntologyExplorationModule</title>
<polygon fill="#8dd3c7" stroke="#000000" points="692.0378,-122 689.0378,-126 668.0378,-126 665.0378,-122 513.9622,-122 513.9622,-86 692.0378,-86 692.0378,-122"/>
<text text-anchor="middle" x="603" y="-99.8" font-family="Times,serif" font-size="14.00" fill="#000000">OntologyExplorationModule</text>
</g>
<!-- OntologyExplorationModule&#45;&gt;AppModule -->
<g id="edge9" class="edge">
<title>OntologyExplorationModule&#45;&gt;AppModule</title>
<path fill="none" stroke="#000000" d="M603,-122.0225C603,-139.3734 603,-163 603,-163 603,-163 943.0491,-163 943.0491,-163"/>
<polygon fill="#000000" stroke="#000000" points="943.0492,-166.5001 953.0491,-163 943.0491,-159.5001 943.0492,-166.5001"/>
</g>
<!-- OrganSelectorModule -->
<g id="node11" class="node">
<title>OrganSelectorModule</title>
<polygon fill="#8dd3c7" stroke="#000000" points="496.4004,-122 493.4004,-126 472.4004,-126 469.4004,-122 355.5996,-122 355.5996,-86 496.4004,-86 496.4004,-122"/>
<text text-anchor="middle" x="426" y="-99.8" font-family="Times,serif" font-size="14.00" fill="#000000">OrganSelectorModule</text>
</g>
<!-- OrganSelectorModule&#45;&gt;AppModule -->
<g id="edge10" class="edge">
<title>OrganSelectorModule&#45;&gt;AppModule</title>
<path fill="none" stroke="#000000" d="M426,-122.1061C426,-141.3391 426,-169 426,-169 426,-169 943.1601,-169 943.1601,-169"/>
<polygon fill="#000000" stroke="#000000" points="943.1601,-172.5001 953.1601,-169 943.16,-165.5001 943.1601,-172.5001"/>
</g>
<!-- ResultsBrowserModule -->
<g id="node12" class="node">
<title>ResultsBrowserModule</title>
<polygon fill="#8dd3c7" stroke="#000000" points="338.1951,-122 335.1951,-126 314.1951,-126 311.1951,-122 189.8049,-122 189.8049,-86 338.1951,-86 338.1951,-122"/>
<text text-anchor="middle" x="264" y="-99.8" font-family="Times,serif" font-size="14.00" fill="#000000">ResultsBrowserModule</text>
</g>
<!-- ResultsBrowserModule&#45;&gt;AppModule -->
<g id="edge11" class="edge">
<title>ResultsBrowserModule&#45;&gt;AppModule</title>
<path fill="none" stroke="#000000" d="M264,-122.2843C264,-143.3211 264,-175 264,-175 264,-175 943.3386,-175 943.3386,-175"/>
<polygon fill="#000000" stroke="#000000" points="943.3387,-178.5001 953.3386,-175 943.3386,-171.5001 943.3387,-178.5001"/>
</g>
<!-- SpinnerOverlayModule -->
<g id="node13" class="node">
<title>SpinnerOverlayModule</title>
<polygon fill="#8dd3c7" stroke="#000000" points="172.1853,-122 169.1853,-126 148.1853,-126 145.1853,-122 23.8147,-122 23.8147,-86 172.1853,-86 172.1853,-122"/>
<text text-anchor="middle" x="98" y="-99.8" font-family="Times,serif" font-size="14.00" fill="#000000">SpinnerOverlayModule</text>
</g>
<!-- SpinnerOverlayModule&#45;&gt;AppModule -->
<g id="edge12" class="edge">
<title>SpinnerOverlayModule&#45;&gt;AppModule</title>
<path fill="none" stroke="#000000" d="M98,-122.2479C98,-145.0179 98,-181 98,-181 98,-181 943.2374,-181 943.2374,-181"/>
<polygon fill="#000000" stroke="#000000" points="943.2374,-184.5001 953.2374,-181 943.2373,-177.5001 943.2374,-184.5001"/>
</g>
</g>
</svg>
