<?xml version="1.0" encoding="UTF-8" standalone="no"?>
<!DOCTYPE svg PUBLIC "-//W3C//DTD SVG 1.1//EN"
 "http://www.w3.org/Graphics/SVG/1.1/DTD/svg11.dtd">
<!-- Generated by graphviz version 2.40.1 (20161225.0304)
 -->
<!-- Title: dependencies Pages: 1 -->
<svg width="1623pt" height="284pt"
 viewBox="0.00 0.00 1623.00 284.00" xmlns="http://www.w3.org/2000/svg" xmlns:xlink="http://www.w3.org/1999/xlink">
<g id="graph0" class="graph" transform="scale(1 1) rotate(0) translate(4 280)">
<title>dependencies</title>
<polygon fill="#ffffff" stroke="transparent" points="-4,4 -4,-280 1619,-280 1619,4 -4,4"/>
<text text-anchor="start" x="786.5091" y="-42.4" font-family="sans-serif" font-weight="bold" font-size="14.00" fill="#000000">Legend</text>
<polygon fill="#ffffb3" stroke="transparent" points="573.5,-10 573.5,-30 593.5,-30 593.5,-10 573.5,-10"/>
<text text-anchor="start" x="597.129" y="-15.4" font-family="sans-serif" font-size="14.00" fill="#000000"> &#160;Declarations</text>
<polygon fill="#8dd3c7" stroke="transparent" points="686.5,-10 686.5,-30 706.5,-30 706.5,-10 686.5,-10"/>
<text text-anchor="start" x="710.2251" y="-15.4" font-family="sans-serif" font-size="14.00" fill="#000000"> &#160;Module</text>
<polygon fill="#80b1d3" stroke="transparent" points="772.5,-10 772.5,-30 792.5,-30 792.5,-10 772.5,-10"/>
<text text-anchor="start" x="796.2812" y="-15.4" font-family="sans-serif" font-size="14.00" fill="#000000"> &#160;Bootstrap</text>
<polygon fill="#fdb462" stroke="transparent" points="869.5,-10 869.5,-30 889.5,-30 889.5,-10 869.5,-10"/>
<text text-anchor="start" x="893.1732" y="-15.4" font-family="sans-serif" font-size="14.00" fill="#000000"> &#160;Providers</text>
<polygon fill="#fb8072" stroke="transparent" points="965.5,-10 965.5,-30 985.5,-30 985.5,-10 965.5,-10"/>
<text text-anchor="start" x="989.2258" y="-15.4" font-family="sans-serif" font-size="14.00" fill="#000000"> &#160;Exports</text>
<g id="clust1" class="cluster">
<title>cluster_AppModule</title>
<polygon fill="none" stroke="#000000" stroke-dasharray="1,5" points="8,-70 8,-268 1607,-268 1607,-70 8,-70"/>
</g>
<g id="clust2" class="cluster">
<title>cluster_AppModule_declarations</title>
<polygon fill="none" stroke="#000000" points="1477,-78 1477,-130 1599,-130 1599,-78 1477,-78"/>
</g>
<g id="clust4" class="cluster">
<title>cluster_AppModule_imports</title>
<polygon fill="none" stroke="#000000" points="16,-78 16,-130 1469,-130 1469,-78 16,-78"/>
</g>
<g id="clust6" class="cluster">
<title>cluster_AppModule_bootstrap</title>
<polygon fill="none" stroke="#000000" points="858,-208 858,-260 982,-260 982,-208 858,-208"/>
</g>
<!-- AppComponent -->
<g id="node1" class="node">
<title>AppComponent</title>
<polygon fill="#ffffb3" stroke="#000000" points="1590.9399,-122 1485.0601,-122 1485.0601,-86 1590.9399,-86 1590.9399,-122"/>
<text text-anchor="middle" x="1538" y="-99.8" font-family="Times,serif" font-size="14.00" fill="#000000">AppComponent</text>
</g>
<!-- AppModule -->
<g id="node2" class="node">
<title>AppModule</title>
<polygon fill="#8dd3c7" stroke="#000000" points="961.6571,-187 958.6571,-191 937.6571,-191 934.6571,-187 878.3429,-187 878.3429,-151 961.6571,-151 961.6571,-187"/>
<text text-anchor="middle" x="920" y="-164.8" font-family="Times,serif" font-size="14.00" fill="#000000">AppModule</text>
</g>
<!-- AppComponent&#45;&gt;AppModule -->
<g id="edge1" class="edge">
<title>AppComponent&#45;&gt;AppModule</title>
<path fill="none" stroke="#000000" d="M1538,-122.2479C1538,-145.0179 1538,-181 1538,-181 1538,-181 971.9918,-181 971.9918,-181"/>
<polygon fill="#000000" stroke="#000000" points="971.9918,-177.5001 961.9918,-181 971.9918,-184.5001 971.9918,-177.5001"/>
</g>
<!-- AppComponent  -->
<g id="node13" class="node">
<title>AppComponent </title>
<polygon fill="#80b1d3" stroke="#000000" points="974.439,-252 865.561,-252 865.561,-216 974.439,-216 974.439,-252"/>
<text text-anchor="middle" x="920" y="-229.8" font-family="Times,serif" font-size="14.00" fill="#000000">AppComponent </text>
</g>
<!-- AppModule&#45;&gt;AppComponent  -->
<g id="edge12" class="edge">
<title>AppModule&#45;&gt;AppComponent </title>
<path fill="none" stroke="#000000" stroke-dasharray="1,5" d="M920,-187.1061C920,-187.1061 920,-205.991 920,-205.991"/>
<polygon fill="#000000" stroke="#000000" points="916.5001,-205.9909 920,-215.991 923.5001,-205.991 916.5001,-205.9909"/>
</g>
<!-- BodyModule -->
<g id="node3" class="node">
<title>BodyModule</title>
<polygon fill="#8dd3c7" stroke="#000000" points="1460.8865,-122 1457.8865,-126 1436.8865,-126 1433.8865,-122 1371.1135,-122 1371.1135,-86 1460.8865,-86 1460.8865,-122"/>
<text text-anchor="middle" x="1416" y="-99.8" font-family="Times,serif" font-size="14.00" fill="#000000">BodyModule</text>
</g>
<!-- BodyModule&#45;&gt;AppModule -->
<g id="edge2" class="edge">
<title>BodyModule&#45;&gt;AppModule</title>
<path fill="none" stroke="#000000" d="M1416,-122.2843C1416,-143.3211 1416,-175 1416,-175 1416,-175 971.8612,-175 971.8612,-175"/>
<polygon fill="#000000" stroke="#000000" points="971.8612,-171.5001 961.8612,-175 971.8612,-178.5001 971.8612,-171.5001"/>
</g>
<!-- CoreModule -->
<g id="node4" class="node">
<title>CoreModule</title>
<polygon fill="#8dd3c7" stroke="#000000" points="1353.2619,-122 1350.2619,-126 1329.2619,-126 1326.2619,-122 1266.7381,-122 1266.7381,-86 1353.2619,-86 1353.2619,-122"/>
<text text-anchor="middle" x="1310" y="-99.8" font-family="Times,serif" font-size="14.00" fill="#000000">CoreModule</text>
</g>
<!-- CoreModule&#45;&gt;AppModule -->
<g id="edge3" class="edge">
<title>CoreModule&#45;&gt;AppModule</title>
<path fill="none" stroke="#000000" d="M1310,-122.1061C1310,-141.3391 1310,-169 1310,-169 1310,-169 971.7368,-169 971.7368,-169"/>
<polygon fill="#000000" stroke="#000000" points="971.7369,-165.5001 961.7368,-169 971.7368,-172.5001 971.7369,-165.5001"/>
</g>
<!-- DrawerModule -->
<g id="node5" class="node">
<title>DrawerModule</title>
<polygon fill="#8dd3c7" stroke="#000000" points="1248.5146,-122 1245.5146,-126 1224.5146,-126 1221.5146,-122 1147.4854,-122 1147.4854,-86 1248.5146,-86 1248.5146,-122"/>
<text text-anchor="middle" x="1198" y="-99.8" font-family="Times,serif" font-size="14.00" fill="#000000">DrawerModule</text>
</g>
<!-- DrawerModule&#45;&gt;AppModule -->
<g id="edge4" class="edge">
<title>DrawerModule&#45;&gt;AppModule</title>
<path fill="none" stroke="#000000" d="M1198,-122.0225C1198,-139.3734 1198,-163 1198,-163 1198,-163 971.9204,-163 971.9204,-163"/>
<polygon fill="#000000" stroke="#000000" points="971.9204,-159.5001 961.9204,-163 971.9204,-166.5001 971.9204,-159.5001"/>
</g>
<!-- DualSliderModule -->
<g id="node6" class="node">
<title>DualSliderModule</title>
<polygon fill="#8dd3c7" stroke="#000000" points="1129.2008,-122 1126.2008,-126 1105.2008,-126 1102.2008,-122 1008.7992,-122 1008.7992,-86 1129.2008,-86 1129.2008,-122"/>
<text text-anchor="middle" x="1069" y="-99.8" font-family="Times,serif" font-size="14.00" fill="#000000">DualSliderModule</text>
</g>
<!-- DualSliderModule&#45;&gt;AppModule -->
<g id="edge5" class="edge">
<title>DualSliderModule&#45;&gt;AppModule</title>
<path fill="none" stroke="#000000" d="M1069,-122.2396C1069,-137.5706 1069,-157 1069,-157 1069,-157 971.9013,-157 971.9013,-157"/>
<polygon fill="#000000" stroke="#000000" points="971.9014,-153.5001 961.9013,-157 971.9013,-160.5001 971.9014,-153.5001"/>
</g>
<!-- FiltersPopoverModule -->
<g id="node7" class="node">
<title>FiltersPopoverModule</title>
<polygon fill="#8dd3c7" stroke="#000000" points="990.9818,-122 987.9818,-126 966.9818,-126 963.9818,-122 849.0182,-122 849.0182,-86 990.9818,-86 990.9818,-122"/>
<text text-anchor="middle" x="920" y="-99.8" font-family="Times,serif" font-size="14.00" fill="#000000">FiltersPopoverModule</text>
</g>
<!-- FiltersPopoverModule&#45;&gt;AppModule -->
<g id="edge6" class="edge">
<title>FiltersPopoverModule&#45;&gt;AppModule</title>
<path fill="none" stroke="#000000" d="M920,-122.1061C920,-122.1061 920,-140.991 920,-140.991"/>
<polygon fill="#000000" stroke="#000000" points="916.5001,-140.9909 920,-150.991 923.5001,-140.991 916.5001,-140.9909"/>
</g>
<!-- InfoButtonModule -->
<g id="node8" class="node">
<title>InfoButtonModule</title>
<polygon fill="#8dd3c7" stroke="#000000" points="831.4888,-122 828.4888,-126 807.4888,-126 804.4888,-122 710.5112,-122 710.5112,-86 831.4888,-86 831.4888,-122"/>
<text text-anchor="middle" x="771" y="-99.8" font-family="Times,serif" font-size="14.00" fill="#000000">InfoButtonModule</text>
</g>
<!-- InfoButtonModule&#45;&gt;AppModule -->
<g id="edge7" class="edge">
<title>InfoButtonModule&#45;&gt;AppModule</title>
<path fill="none" stroke="#000000" d="M771,-122.2396C771,-137.5706 771,-157 771,-157 771,-157 868.0987,-157 868.0987,-157"/>
<polygon fill="#000000" stroke="#000000" points="868.0987,-160.5001 878.0987,-157 868.0986,-153.5001 868.0987,-160.5001"/>
</g>
<!-- OntologyExplorationModule -->
<g id="node9" class="node">
<title>OntologyExplorationModule</title>
<polygon fill="#8dd3c7" stroke="#000000" points="692.0378,-122 689.0378,-126 668.0378,-126 665.0378,-122 513.9622,-122 513.9622,-86 692.0378,-86 692.0378,-122"/>
<text text-anchor="middle" x="603" y="-99.8" font-family="Times,serif" font-size="14.00" fill="#000000">OntologyExplorationModule</text>
</g>
<!-- OntologyExplorationModule&#45;&gt;AppModule -->
<g id="edge8" class="edge">
<title>OntologyExplorationModule&#45;&gt;AppModule</title>
<path fill="none" stroke="#000000" d="M603,-122.0225C603,-139.3734 603,-163 603,-163 603,-163 868.2318,-163 868.2318,-163"/>
<polygon fill="#000000" stroke="#000000" points="868.2318,-166.5001 878.2318,-163 868.2318,-159.5001 868.2318,-166.5001"/>
</g>
<!-- OrganSelectorModule -->
<g id="node10" class="node">
<title>OrganSelectorModule</title>
<polygon fill="#8dd3c7" stroke="#000000" points="496.4004,-122 493.4004,-126 472.4004,-126 469.4004,-122 355.5996,-122 355.5996,-86 496.4004,-86 496.4004,-122"/>
<text text-anchor="middle" x="426" y="-99.8" font-family="Times,serif" font-size="14.00" fill="#000000">OrganSelectorModule</text>
</g>
<!-- OrganSelectorModule&#45;&gt;AppModule -->
<g id="edge9" class="edge">
<title>OrganSelectorModule&#45;&gt;AppModule</title>
<path fill="none" stroke="#000000" d="M426,-122.1061C426,-141.3391 426,-169 426,-169 426,-169 868.3076,-169 868.3076,-169"/>
<polygon fill="#000000" stroke="#000000" points="868.3076,-172.5001 878.3076,-169 868.3076,-165.5001 868.3076,-172.5001"/>
</g>
<!-- ResultsBrowserModule -->
<g id="node11" class="node">
<title>ResultsBrowserModule</title>
<polygon fill="#8dd3c7" stroke="#000000" points="338.1951,-122 335.1951,-126 314.1951,-126 311.1951,-122 189.8049,-122 189.8049,-86 338.1951,-86 338.1951,-122"/>
<text text-anchor="middle" x="264" y="-99.8" font-family="Times,serif" font-size="14.00" fill="#000000">ResultsBrowserModule</text>
</g>
<!-- ResultsBrowserModule&#45;&gt;AppModule -->
<g id="edge10" class="edge">
<title>ResultsBrowserModule&#45;&gt;AppModule</title>
<path fill="none" stroke="#000000" d="M264,-122.2843C264,-143.3211 264,-175 264,-175 264,-175 868.2168,-175 868.2168,-175"/>
<polygon fill="#000000" stroke="#000000" points="868.2168,-178.5001 878.2168,-175 868.2168,-171.5001 868.2168,-178.5001"/>
</g>
<!-- SpinnerOverlayModule -->
<g id="node12" class="node">
<title>SpinnerOverlayModule</title>
<polygon fill="#8dd3c7" stroke="#000000" points="172.1853,-122 169.1853,-126 148.1853,-126 145.1853,-122 23.8147,-122 23.8147,-86 172.1853,-86 172.1853,-122"/>
<text text-anchor="middle" x="98" y="-99.8" font-family="Times,serif" font-size="14.00" fill="#000000">SpinnerOverlayModule</text>
</g>
<!-- SpinnerOverlayModule&#45;&gt;AppModule -->
<g id="edge11" class="edge">
<title>SpinnerOverlayModule&#45;&gt;AppModule</title>
<path fill="none" stroke="#000000" d="M98,-122.2479C98,-145.0179 98,-181 98,-181 98,-181 868.1068,-181 868.1068,-181"/>
<polygon fill="#000000" stroke="#000000" points="868.1068,-184.5001 878.1068,-181 868.1068,-177.5001 868.1068,-184.5001"/>
</g>
</g>
</svg>
