<?xml version="1.0" encoding="UTF-8" standalone="no"?>
<!DOCTYPE svg PUBLIC "-//W3C//DTD SVG 1.1//EN"
 "http://www.w3.org/Graphics/SVG/1.1/DTD/svg11.dtd">
<!-- Generated by graphviz version 2.40.1 (20161225.0304)
 -->
<!-- Title: dependencies Pages: 1 -->
<svg width="682pt" height="284pt"
 viewBox="0.00 0.00 682.00 284.00" xmlns="http://www.w3.org/2000/svg" xmlns:xlink="http://www.w3.org/1999/xlink">
<g id="graph0" class="graph" transform="scale(1 1) rotate(0) translate(4 280)">
<title>dependencies</title>
<polygon fill="#ffffff" stroke="transparent" points="-4,4 -4,-280 678,-280 678,4 -4,4"/>
<text text-anchor="start" x="316.0091" y="-42.4" font-family="sans-serif" font-weight="bold" font-size="14.00" fill="#000000">Legend</text>
<polygon fill="#ffffb3" stroke="transparent" points="103,-10 103,-30 123,-30 123,-10 103,-10"/>
<text text-anchor="start" x="126.629" y="-15.4" font-family="sans-serif" font-size="14.00" fill="#000000"> &#160;Declarations</text>
<polygon fill="#8dd3c7" stroke="transparent" points="216,-10 216,-30 236,-30 236,-10 216,-10"/>
<text text-anchor="start" x="239.7251" y="-15.4" font-family="sans-serif" font-size="14.00" fill="#000000"> &#160;Module</text>
<polygon fill="#80b1d3" stroke="transparent" points="302,-10 302,-30 322,-30 322,-10 302,-10"/>
<text text-anchor="start" x="325.7812" y="-15.4" font-family="sans-serif" font-size="14.00" fill="#000000"> &#160;Bootstrap</text>
<polygon fill="#fdb462" stroke="transparent" points="399,-10 399,-30 419,-30 419,-10 399,-10"/>
<text text-anchor="start" x="422.6732" y="-15.4" font-family="sans-serif" font-size="14.00" fill="#000000"> &#160;Providers</text>
<polygon fill="#fb8072" stroke="transparent" points="495,-10 495,-30 515,-30 515,-10 495,-10"/>
<text text-anchor="start" x="518.7258" y="-15.4" font-family="sans-serif" font-size="14.00" fill="#000000"> &#160;Exports</text>
<g id="clust1" class="cluster">
<title>cluster_RightSidebarModule</title>
<polygon fill="none" stroke="#000000" stroke-dasharray="1,5" points="8,-70 8,-268 666,-268 666,-70 8,-70"/>
</g>
<g id="clust2" class="cluster">
<title>cluster_RightSidebarModule_declarations</title>
<polygon fill="none" stroke="#000000" points="486,-78 486,-130 658,-130 658,-78 486,-78"/>
</g>
<g id="clust4" class="cluster">
<title>cluster_RightSidebarModule_imports</title>
<polygon fill="none" stroke="#000000" points="16,-78 16,-130 478,-130 478,-78 16,-78"/>
</g>
<g id="clust5" class="cluster">
<title>cluster_RightSidebarModule_exports</title>
<polygon fill="none" stroke="#000000" points="229,-208 229,-260 403,-260 403,-208 229,-208"/>
</g>
<!-- RightSidebarComponent -->
<g id="node1" class="node">
<title>RightSidebarComponent</title>
<polygon fill="#ffffb3" stroke="#000000" points="649.7133,-122 494.2867,-122 494.2867,-86 649.7133,-86 649.7133,-122"/>
<text text-anchor="middle" x="572" y="-99.8" font-family="Times,serif" font-size="14.00" fill="#000000">RightSidebarComponent</text>
</g>
<!-- RightSidebarModule -->
<g id="node2" class="node">
<title>RightSidebarModule</title>
<polygon fill="#8dd3c7" stroke="#000000" points="382.9313,-187 379.9313,-191 358.9313,-191 355.9313,-187 249.0687,-187 249.0687,-151 382.9313,-151 382.9313,-187"/>
<text text-anchor="middle" x="316" y="-164.8" font-family="Times,serif" font-size="14.00" fill="#000000">RightSidebarModule</text>
</g>
<!-- RightSidebarComponent&#45;&gt;RightSidebarModule -->
<g id="edge1" class="edge">
<title>RightSidebarComponent&#45;&gt;RightSidebarModule</title>
<path fill="none" stroke="#000000" d="M572,-122.1061C572,-141.3391 572,-169 572,-169 572,-169 392.9266,-169 392.9266,-169"/>
<polygon fill="#000000" stroke="#000000" points="392.9266,-165.5001 382.9266,-169 392.9266,-172.5001 392.9266,-165.5001"/>
</g>
<!-- RightSidebarComponent  -->
<g id="node6" class="node">
<title>RightSidebarComponent </title>
<polygon fill="#fb8072" stroke="#000000" points="395.2135,-252 236.7865,-252 236.7865,-216 395.2135,-216 395.2135,-252"/>
<text text-anchor="middle" x="316" y="-229.8" font-family="Times,serif" font-size="14.00" fill="#000000">RightSidebarComponent </text>
</g>
<!-- RightSidebarModule&#45;&gt;RightSidebarComponent  -->
<g id="edge5" class="edge">
<title>RightSidebarModule&#45;&gt;RightSidebarComponent </title>
<path fill="none" stroke="#000000" stroke-dasharray="5,2" d="M316,-187.1061C316,-187.1061 316,-205.991 316,-205.991"/>
<polygon fill="#000000" stroke="#000000" points="312.5001,-205.9909 316,-215.991 319.5001,-205.991 312.5001,-205.9909"/>
</g>
<!-- BlockSizeInputModule -->
<g id="node3" class="node">
<title>BlockSizeInputModule</title>
<polygon fill="#8dd3c7" stroke="#000000" points="470.1456,-122 467.1456,-126 446.1456,-126 443.1456,-122 323.8544,-122 323.8544,-86 470.1456,-86 470.1456,-122"/>
<text text-anchor="middle" x="397" y="-99.8" font-family="Times,serif" font-size="14.00" fill="#000000">BlockSizeInputModule</text>
</g>
<!-- BlockSizeInputModule&#45;&gt;RightSidebarModule -->
<g id="edge2" class="edge">
<title>BlockSizeInputModule&#45;&gt;RightSidebarModule</title>
<path fill="none" stroke="#000000" d="M353.1964,-122.1061C353.1964,-122.1061 353.1964,-140.991 353.1964,-140.991"/>
<polygon fill="#000000" stroke="#000000" points="349.6964,-140.9909 353.1964,-150.991 356.6964,-140.991 349.6964,-140.9909"/>
</g>
<!-- RotationSliderModule -->
<g id="node4" class="node">
<title>RotationSliderModule</title>
<polygon fill="#8dd3c7" stroke="#000000" points="305.712,-122 302.712,-126 281.712,-126 278.712,-122 164.288,-122 164.288,-86 305.712,-86 305.712,-122"/>
<text text-anchor="middle" x="235" y="-99.8" font-family="Times,serif" font-size="14.00" fill="#000000">RotationSliderModule</text>
</g>
<!-- RotationSliderModule&#45;&gt;RightSidebarModule -->
<g id="edge3" class="edge">
<title>RotationSliderModule&#45;&gt;RightSidebarModule</title>
<path fill="none" stroke="#000000" d="M277.4453,-122.1061C277.4453,-122.1061 277.4453,-140.991 277.4453,-140.991"/>
<polygon fill="#000000" stroke="#000000" points="273.9454,-140.9909 277.4453,-150.991 280.9454,-140.991 273.9454,-140.9909"/>
</g>
<!-- SlicesInputModule -->
<g id="node5" class="node">
<title>SlicesInputModule</title>
<polygon fill="#8dd3c7" stroke="#000000" points="146.0395,-122 143.0395,-126 122.0395,-126 119.0395,-122 23.9605,-122 23.9605,-86 146.0395,-86 146.0395,-122"/>
<text text-anchor="middle" x="85" y="-99.8" font-family="Times,serif" font-size="14.00" fill="#000000">SlicesInputModule</text>
</g>
<!-- SlicesInputModule&#45;&gt;RightSidebarModule -->
<g id="edge4" class="edge">
<title>SlicesInputModule&#45;&gt;RightSidebarModule</title>
<path fill="none" stroke="#000000" d="M85,-122.1061C85,-141.3391 85,-169 85,-169 85,-169 239.1852,-169 239.1852,-169"/>
<polygon fill="#000000" stroke="#000000" points="239.1853,-172.5001 249.1852,-169 239.1852,-165.5001 239.1853,-172.5001"/>
</g>
</g>
</svg>
