<?xml version="1.0" encoding="UTF-8" standalone="no"?>
<!DOCTYPE svg PUBLIC "-//W3C//DTD SVG 1.1//EN"
 "http://www.w3.org/Graphics/SVG/1.1/DTD/svg11.dtd">
<!-- Generated by graphviz version 2.40.1 (20161225.0304)
 -->
<!-- Title: dependencies Pages: 1 -->
<svg width="1100pt" height="284pt"
 viewBox="0.00 0.00 1100.00 284.00" xmlns="http://www.w3.org/2000/svg" xmlns:xlink="http://www.w3.org/1999/xlink">
<g id="graph0" class="graph" transform="scale(1 1) rotate(0) translate(4 280)">
<title>dependencies</title>
<polygon fill="#ffffff" stroke="transparent" points="-4,4 -4,-280 1096,-280 1096,4 -4,4"/>
<text text-anchor="start" x="525.0091" y="-42.4" font-family="sans-serif" font-weight="bold" font-size="14.00" fill="#000000">Legend</text>
<polygon fill="#ffffb3" stroke="transparent" points="312,-10 312,-30 332,-30 332,-10 312,-10"/>
<text text-anchor="start" x="335.629" y="-15.4" font-family="sans-serif" font-size="14.00" fill="#000000"> &#160;Declarations</text>
<polygon fill="#8dd3c7" stroke="transparent" points="425,-10 425,-30 445,-30 445,-10 425,-10"/>
<text text-anchor="start" x="448.7251" y="-15.4" font-family="sans-serif" font-size="14.00" fill="#000000"> &#160;Module</text>
<polygon fill="#80b1d3" stroke="transparent" points="511,-10 511,-30 531,-30 531,-10 511,-10"/>
<text text-anchor="start" x="534.7812" y="-15.4" font-family="sans-serif" font-size="14.00" fill="#000000"> &#160;Bootstrap</text>
<polygon fill="#fdb462" stroke="transparent" points="608,-10 608,-30 628,-30 628,-10 608,-10"/>
<text text-anchor="start" x="631.6732" y="-15.4" font-family="sans-serif" font-size="14.00" fill="#000000"> &#160;Providers</text>
<polygon fill="#fb8072" stroke="transparent" points="704,-10 704,-30 724,-30 724,-10 704,-10"/>
<text text-anchor="start" x="727.7258" y="-15.4" font-family="sans-serif" font-size="14.00" fill="#000000"> &#160;Exports</text>
<g id="clust1" class="cluster">
<title>cluster_RightSidebarModule</title>
<polygon fill="none" stroke="#000000" stroke-dasharray="1,5" points="8,-70 8,-268 1084,-268 1084,-70 8,-70"/>
</g>
<g id="clust2" class="cluster">
<title>cluster_RightSidebarModule_declarations</title>
<polygon fill="none" stroke="#000000" points="904,-78 904,-130 1076,-130 1076,-78 904,-78"/>
</g>
<g id="clust4" class="cluster">
<title>cluster_RightSidebarModule_imports</title>
<polygon fill="none" stroke="#000000" points="16,-78 16,-130 896,-130 896,-78 16,-78"/>
</g>
<g id="clust5" class="cluster">
<title>cluster_RightSidebarModule_exports</title>
<polygon fill="none" stroke="#000000" points="407,-208 407,-260 581,-260 581,-208 407,-208"/>
</g>
<!-- RightSidebarComponent -->
<g id="node1" class="node">
<title>RightSidebarComponent</title>
<polygon fill="#ffffb3" stroke="#000000" points="1067.7133,-122 912.2867,-122 912.2867,-86 1067.7133,-86 1067.7133,-122"/>
<text text-anchor="middle" x="990" y="-99.8" font-family="Times,serif" font-size="14.00" fill="#000000">RightSidebarComponent</text>
</g>
<!-- RightSidebarModule -->
<g id="node2" class="node">
<title>RightSidebarModule</title>
<polygon fill="#8dd3c7" stroke="#000000" points="560.9313,-187 557.9313,-191 536.9313,-191 533.9313,-187 427.0687,-187 427.0687,-151 560.9313,-151 560.9313,-187"/>
<text text-anchor="middle" x="494" y="-164.8" font-family="Times,serif" font-size="14.00" fill="#000000">RightSidebarModule</text>
</g>
<!-- RightSidebarComponent&#45;&gt;RightSidebarModule -->
<g id="edge1" class="edge">
<title>RightSidebarComponent&#45;&gt;RightSidebarModule</title>
<path fill="none" stroke="#000000" d="M990,-122.2921C990,-144.2057 990,-178 990,-178 990,-178 570.8928,-178 570.8928,-178"/>
<polygon fill="#000000" stroke="#000000" points="570.8928,-174.5001 560.8928,-178 570.8927,-181.5001 570.8928,-174.5001"/>
</g>
<!-- RightSidebarComponent  -->
<g id="node9" class="node">
<title>RightSidebarComponent </title>
<polygon fill="#fb8072" stroke="#000000" points="573.2135,-252 414.7865,-252 414.7865,-216 573.2135,-216 573.2135,-252"/>
<text text-anchor="middle" x="494" y="-229.8" font-family="Times,serif" font-size="14.00" fill="#000000">RightSidebarComponent </text>
</g>
<!-- RightSidebarModule&#45;&gt;RightSidebarComponent  -->
<g id="edge8" class="edge">
<title>RightSidebarModule&#45;&gt;RightSidebarComponent </title>
<path fill="none" stroke="#000000" stroke-dasharray="5,2" d="M494,-187.1061C494,-187.1061 494,-205.991 494,-205.991"/>
<polygon fill="#000000" stroke="#000000" points="490.5001,-205.9909 494,-215.991 497.5001,-205.991 490.5001,-205.9909"/>
</g>
<!-- BlockSizeInputModule -->
<g id="node3" class="node">
<title>BlockSizeInputModule</title>
<polygon fill="#8dd3c7" stroke="#000000" points="888.1456,-122 885.1456,-126 864.1456,-126 861.1456,-122 741.8544,-122 741.8544,-86 888.1456,-86 888.1456,-122"/>
<text text-anchor="middle" x="815" y="-99.8" font-family="Times,serif" font-size="14.00" fill="#000000">BlockSizeInputModule</text>
</g>
<!-- BlockSizeInputModule&#45;&gt;RightSidebarModule -->
<g id="edge2" class="edge">
<title>BlockSizeInputModule&#45;&gt;RightSidebarModule</title>
<path fill="none" stroke="#000000" d="M815,-122.1061C815,-141.3391 815,-169 815,-169 815,-169 570.9014,-169 570.9014,-169"/>
<polygon fill="#000000" stroke="#000000" points="570.9014,-165.5001 560.9014,-169 570.9013,-172.5001 570.9014,-165.5001"/>
</g>
<!-- ReviewButtonModule -->
<g id="node4" class="node">
<title>ReviewButtonModule</title>
<polygon fill="#8dd3c7" stroke="#000000" points="723.4313,-122 720.4313,-126 699.4313,-126 696.4313,-122 582.5687,-122 582.5687,-86 723.4313,-86 723.4313,-122"/>
<text text-anchor="middle" x="653" y="-99.8" font-family="Times,serif" font-size="14.00" fill="#000000">ReviewButtonModule</text>
</g>
<!-- ReviewButtonModule&#45;&gt;RightSidebarModule -->
<g id="edge3" class="edge">
<title>ReviewButtonModule&#45;&gt;RightSidebarModule</title>
<path fill="none" stroke="#000000" d="M653,-122.027C653,-138.3976 653,-160 653,-160 653,-160 570.9695,-160 570.9695,-160"/>
<polygon fill="#000000" stroke="#000000" points="570.9695,-156.5001 560.9695,-160 570.9695,-163.5001 570.9695,-156.5001"/>
</g>
<!-- RotationSliderModule -->
<g id="node5" class="node">
<title>RotationSliderModule</title>
<polygon fill="#8dd3c7" stroke="#000000" points="564.712,-122 561.712,-126 540.712,-126 537.712,-122 423.288,-122 423.288,-86 564.712,-86 564.712,-122"/>
<text text-anchor="middle" x="494" y="-99.8" font-family="Times,serif" font-size="14.00" fill="#000000">RotationSliderModule</text>
</g>
<!-- RotationSliderModule&#45;&gt;RightSidebarModule -->
<g id="edge4" class="edge">
<title>RotationSliderModule&#45;&gt;RightSidebarModule</title>
<path fill="none" stroke="#000000" d="M494,-122.1061C494,-122.1061 494,-140.991 494,-140.991"/>
<polygon fill="#000000" stroke="#000000" points="490.5001,-140.9909 494,-150.991 497.5001,-140.991 490.5001,-140.9909"/>
</g>
<!-- SlicesInputModule -->
<g id="node6" class="node">
<title>SlicesInputModule</title>
<polygon fill="#8dd3c7" stroke="#000000" points="405.0395,-122 402.0395,-126 381.0395,-126 378.0395,-122 282.9605,-122 282.9605,-86 405.0395,-86 405.0395,-122"/>
<text text-anchor="middle" x="344" y="-99.8" font-family="Times,serif" font-size="14.00" fill="#000000">SlicesInputModule</text>
</g>
<!-- SlicesInputModule&#45;&gt;RightSidebarModule -->
<g id="edge5" class="edge">
<title>SlicesInputModule&#45;&gt;RightSidebarModule</title>
<path fill="none" stroke="#000000" d="M344,-122.027C344,-138.3976 344,-160 344,-160 344,-160 416.8971,-160 416.8971,-160"/>
<polygon fill="#000000" stroke="#000000" points="416.8972,-163.5001 426.8971,-160 416.8971,-156.5001 416.8972,-163.5001"/>
</g>
<!-- TagListModule -->
<g id="node7" class="node">
<title>TagListModule</title>
<polygon fill="#8dd3c7" stroke="#000000" points="264.5954,-122 261.5954,-126 240.5954,-126 237.5954,-122 161.4046,-122 161.4046,-86 264.5954,-86 264.5954,-122"/>
<text text-anchor="middle" x="213" y="-99.8" font-family="Times,serif" font-size="14.00" fill="#000000">TagListModule</text>
</g>
<!-- TagListModule&#45;&gt;RightSidebarModule -->
<g id="edge6" class="edge">
<title>TagListModule&#45;&gt;RightSidebarModule</title>
<path fill="none" stroke="#000000" d="M213,-122.1061C213,-141.3391 213,-169 213,-169 213,-169 417.0505,-169 417.0505,-169"/>
<polygon fill="#000000" stroke="#000000" points="417.0505,-172.5001 427.0505,-169 417.0505,-165.5001 417.0505,-172.5001"/>
</g>
<!-- TagSearchModule -->
<g id="node8" class="node">
<title>TagSearchModule</title>
<polygon fill="#8dd3c7" stroke="#000000" points="143.9047,-122 140.9047,-126 119.9047,-126 116.9047,-122 24.0953,-122 24.0953,-86 143.9047,-86 143.9047,-122"/>
<text text-anchor="middle" x="84" y="-99.8" font-family="Times,serif" font-size="14.00" fill="#000000">TagSearchModule</text>
</g>
<!-- TagSearchModule&#45;&gt;RightSidebarModule -->
<g id="edge7" class="edge">
<title>TagSearchModule&#45;&gt;RightSidebarModule</title>
<path fill="none" stroke="#000000" d="M84,-122.2921C84,-144.2057 84,-178 84,-178 84,-178 417.2139,-178 417.2139,-178"/>
<polygon fill="#000000" stroke="#000000" points="417.2139,-181.5001 427.2139,-178 417.2139,-174.5001 417.2139,-181.5001"/>
</g>
</g>
</svg>
