<?xml version="1.0" encoding="UTF-8" standalone="no"?>
<!DOCTYPE svg PUBLIC "-//W3C//DTD SVG 1.1//EN"
 "http://www.w3.org/Graphics/SVG/1.1/DTD/svg11.dtd">
<!-- Generated by graphviz version 2.47.3 (20210619.1520)
 -->
<!-- Title: dependencies Pages: 1 -->
<svg width="1239pt" height="247pt"
 viewBox="0.00 0.00 1239.00 246.80" xmlns="http://www.w3.org/2000/svg" xmlns:xlink="http://www.w3.org/1999/xlink">
<g id="graph0" class="graph" transform="scale(1 1) rotate(0) translate(4 242.8)">
<title>dependencies</title>
<polygon fill="white" stroke="transparent" points="-4,4 -4,-242.8 1235,-242.8 1235,4 -4,4"/>
<text text-anchor="middle" x="615.5" y="-8.2" font-family="sans-serif" font-size="14.00">dependencies</text>
<g id="clust1" class="cluster">
<title>cluster_RightSidebarModule</title>
<polygon fill="none" stroke="black" stroke-dasharray="1,5" points="8,-32.8 8,-230.8 1223,-230.8 1223,-32.8 8,-32.8"/>
</g>
<g id="clust4" class="cluster">
<title>cluster_RightSidebarModule_imports</title>
<polygon fill="none" stroke="black" points="196,-40.8 196,-92.8 1215,-92.8 1215,-40.8 196,-40.8"/>
</g>
<g id="clust2" class="cluster">
<title>cluster_RightSidebarModule_declarations</title>
<polygon fill="none" stroke="black" points="16,-40.8 16,-92.8 188,-92.8 188,-40.8 16,-40.8"/>
</g>
<g id="clust5" class="cluster">
<title>cluster_RightSidebarModule_exports</title>
<polygon fill="none" stroke="black" points="512,-170.8 512,-222.8 686,-222.8 686,-170.8 512,-170.8"/>
</g>
<!-- RightSidebarComponent -->
<g id="node1" class="node">
<title>RightSidebarComponent</title>
<polygon fill="#ffffb3" stroke="black" points="179.71,-84.8 24.29,-84.8 24.29,-48.8 179.71,-48.8 179.71,-84.8"/>
<text text-anchor="middle" x="102" y="-62.6" font-family="Times,serif" font-size="14.00">RightSidebarComponent</text>
</g>
<!-- RightSidebarModule -->
<g id="node2" class="node">
<title>RightSidebarModule</title>
<polygon fill="#8dd3c7" stroke="black" points="665.93,-149.8 662.93,-153.8 641.93,-153.8 638.93,-149.8 532.07,-149.8 532.07,-113.8 665.93,-113.8 665.93,-149.8"/>
<text text-anchor="middle" x="599" y="-127.6" font-family="Times,serif" font-size="14.00">RightSidebarModule</text>
</g>
<!-- RightSidebarComponent&#45;&gt;RightSidebarModule -->
<g id="edge1" class="edge">
<title>RightSidebarComponent&#45;&gt;RightSidebarModule</title>
<path fill="none" stroke="black" d="M102,-85.09C102,-107.01 102,-140.8 102,-140.8 102,-140.8 522.23,-140.8 522.23,-140.8"/>
<polygon fill="black" stroke="black" points="522.23,-144.3 532.23,-140.8 522.23,-137.3 522.23,-144.3"/>
</g>
<!-- RightSidebarComponent  -->
<g id="node10" class="node">
<title>RightSidebarComponent </title>
<polygon fill="#fb8072" stroke="black" points="678.21,-214.8 519.79,-214.8 519.79,-178.8 678.21,-178.8 678.21,-214.8"/>
<text text-anchor="middle" x="599" y="-192.6" font-family="Times,serif" font-size="14.00">RightSidebarComponent </text>
</g>
<!-- RightSidebarModule&#45;&gt;RightSidebarComponent  -->
<g id="edge9" class="edge">
<title>RightSidebarModule&#45;&gt;RightSidebarComponent </title>
<path fill="none" stroke="black" stroke-dasharray="5,2" d="M599,-149.91C599,-149.91 599,-168.79 599,-168.79"/>
<polygon fill="black" stroke="black" points="595.5,-168.79 599,-178.79 602.5,-168.79 595.5,-168.79"/>
</g>
<!-- BlockSizeInputModule -->
<g id="node3" class="node">
<title>BlockSizeInputModule</title>
<polygon fill="#8dd3c7" stroke="black" points="1207.15,-84.8 1204.15,-88.8 1183.15,-88.8 1180.15,-84.8 1060.85,-84.8 1060.85,-48.8 1207.15,-48.8 1207.15,-84.8"/>
<text text-anchor="middle" x="1134" y="-62.6" font-family="Times,serif" font-size="14.00">BlockSizeInputModule</text>
</g>
<!-- BlockSizeInputModule&#45;&gt;RightSidebarModule -->
<g id="edge2" class="edge">
<title>BlockSizeInputModule&#45;&gt;RightSidebarModule</title>
<path fill="none" stroke="black" d="M1134,-85.09C1134,-107.01 1134,-140.8 1134,-140.8 1134,-140.8 675.95,-140.8 675.95,-140.8"/>
<polygon fill="black" stroke="black" points="675.95,-137.3 665.95,-140.8 675.95,-144.3 675.95,-137.3"/>
</g>
<!-- InfoButtonModule -->
<g id="node4" class="node">
<title>InfoButtonModule</title>
<polygon fill="#8dd3c7" stroke="black" points="1042.49,-84.8 1039.49,-88.8 1018.49,-88.8 1015.49,-84.8 921.51,-84.8 921.51,-48.8 1042.49,-48.8 1042.49,-84.8"/>
<text text-anchor="middle" x="982" y="-62.6" font-family="Times,serif" font-size="14.00">InfoButtonModule</text>
</g>
<!-- InfoButtonModule&#45;&gt;RightSidebarModule -->
<g id="edge3" class="edge">
<title>InfoButtonModule&#45;&gt;RightSidebarModule</title>
<path fill="none" stroke="black" d="M982,-84.91C982,-104.14 982,-131.8 982,-131.8 982,-131.8 676.15,-131.8 676.15,-131.8"/>
<polygon fill="black" stroke="black" points="676.15,-128.3 666.15,-131.8 676.15,-135.3 676.15,-128.3"/>
</g>
<!-- ReviewButtonModule -->
<g id="node5" class="node">
<title>ReviewButtonModule</title>
<polygon fill="#8dd3c7" stroke="black" points="903.43,-84.8 900.43,-88.8 879.43,-88.8 876.43,-84.8 762.57,-84.8 762.57,-48.8 903.43,-48.8 903.43,-84.8"/>
<text text-anchor="middle" x="833" y="-62.6" font-family="Times,serif" font-size="14.00">ReviewButtonModule</text>
</g>
<!-- ReviewButtonModule&#45;&gt;RightSidebarModule -->
<g id="edge4" class="edge">
<title>ReviewButtonModule&#45;&gt;RightSidebarModule</title>
<path fill="none" stroke="black" d="M833,-84.83C833,-101.2 833,-122.8 833,-122.8 833,-122.8 675.74,-122.8 675.74,-122.8"/>
<polygon fill="black" stroke="black" points="675.74,-119.3 665.74,-122.8 675.74,-126.3 675.74,-119.3"/>
</g>
<!-- RotationSliderModule -->
<g id="node6" class="node">
<title>RotationSliderModule</title>
<polygon fill="#8dd3c7" stroke="black" points="744.71,-84.8 741.71,-88.8 720.71,-88.8 717.71,-84.8 603.29,-84.8 603.29,-48.8 744.71,-48.8 744.71,-84.8"/>
<text text-anchor="middle" x="674" y="-62.6" font-family="Times,serif" font-size="14.00">RotationSliderModule</text>
</g>
<!-- RotationSliderModule&#45;&gt;RightSidebarModule -->
<g id="edge5" class="edge">
<title>RotationSliderModule&#45;&gt;RightSidebarModule</title>
<path fill="none" stroke="black" d="M634.55,-84.91C634.55,-84.91 634.55,-103.79 634.55,-103.79"/>
<polygon fill="black" stroke="black" points="631.05,-103.79 634.55,-113.79 638.05,-103.79 631.05,-103.79"/>
</g>
<!-- SlicesInputModule -->
<g id="node7" class="node">
<title>SlicesInputModule</title>
<polygon fill="#8dd3c7" stroke="black" points="585.04,-84.8 582.04,-88.8 561.04,-88.8 558.04,-84.8 462.96,-84.8 462.96,-48.8 585.04,-48.8 585.04,-84.8"/>
<text text-anchor="middle" x="524" y="-62.6" font-family="Times,serif" font-size="14.00">SlicesInputModule</text>
</g>
<!-- SlicesInputModule&#45;&gt;RightSidebarModule -->
<g id="edge6" class="edge">
<title>SlicesInputModule&#45;&gt;RightSidebarModule</title>
<path fill="none" stroke="black" d="M558.78,-84.91C558.78,-84.91 558.78,-103.79 558.78,-103.79"/>
<polygon fill="black" stroke="black" points="555.28,-103.79 558.78,-113.79 562.28,-103.79 555.28,-103.79"/>
</g>
<!-- TagListModule -->
<g id="node8" class="node">
<title>TagListModule</title>
<polygon fill="#8dd3c7" stroke="black" points="444.6,-84.8 441.6,-88.8 420.6,-88.8 417.6,-84.8 341.4,-84.8 341.4,-48.8 444.6,-48.8 444.6,-84.8"/>
<text text-anchor="middle" x="393" y="-62.6" font-family="Times,serif" font-size="14.00">TagListModule</text>
</g>
<!-- TagListModule&#45;&gt;RightSidebarModule -->
<g id="edge7" class="edge">
<title>TagListModule&#45;&gt;RightSidebarModule</title>
<path fill="none" stroke="black" d="M393,-84.83C393,-101.2 393,-122.8 393,-122.8 393,-122.8 522.12,-122.8 522.12,-122.8"/>
<polygon fill="black" stroke="black" points="522.12,-126.3 532.12,-122.8 522.12,-119.3 522.12,-126.3"/>
</g>
<!-- TagSearchModule -->
<g id="node9" class="node">
<title>TagSearchModule</title>
<polygon fill="#8dd3c7" stroke="black" points="323.9,-84.8 320.9,-88.8 299.9,-88.8 296.9,-84.8 204.1,-84.8 204.1,-48.8 323.9,-48.8 323.9,-84.8"/>
<text text-anchor="middle" x="264" y="-62.6" font-family="Times,serif" font-size="14.00">TagSearchModule</text>
</g>
<!-- TagSearchModule&#45;&gt;RightSidebarModule -->
<g id="edge8" class="edge">
<title>TagSearchModule&#45;&gt;RightSidebarModule</title>
<path fill="none" stroke="black" d="M264,-84.91C264,-104.14 264,-131.8 264,-131.8 264,-131.8 522.01,-131.8 522.01,-131.8"/>
<polygon fill="black" stroke="black" points="522.01,-135.3 532.01,-131.8 522.01,-128.3 522.01,-135.3"/>
</g>
</g>
</svg>
