<?xml version="1.0" encoding="UTF-8" standalone="no"?>
<!DOCTYPE svg PUBLIC "-//W3C//DTD SVG 1.1//EN"
 "http://www.w3.org/Graphics/SVG/1.1/DTD/svg11.dtd">
<!-- Generated by graphviz version 2.47.3 (20210619.1520)
 -->
<!-- Title: dependencies Pages: 1 -->
<svg width="1239pt" height="247pt"
 viewBox="0.00 0.00 1239.00 246.80" xmlns="http://www.w3.org/2000/svg" xmlns:xlink="http://www.w3.org/1999/xlink">
<g id="graph0" class="graph" transform="scale(1 1) rotate(0) translate(4 242.8)">
<title>dependencies</title>
<polygon fill="white" stroke="transparent" points="-4,4 -4,-242.8 1235,-242.8 1235,4 -4,4"/>
<text text-anchor="middle" x="615.5" y="-8.2" font-family="sans-serif" font-size="14.00">dependencies</text>
<g id="clust1" class="cluster">
<title>cluster_RightSidebarModule</title>
<polygon fill="none" stroke="black" stroke-dasharray="1,5" points="8,-32.8 8,-230.8 1223,-230.8 1223,-32.8 8,-32.8"/>
</g>
<g id="clust5" class="cluster">
<title>cluster_RightSidebarModule_exports</title>
<polygon fill="none" stroke="black" points="486,-170.8 486,-222.8 660,-222.8 660,-170.8 486,-170.8"/>
</g>
<g id="clust2" class="cluster">
<title>cluster_RightSidebarModule_declarations</title>
<polygon fill="none" stroke="black" points="1043,-40.8 1043,-92.8 1215,-92.8 1215,-40.8 1043,-40.8"/>
</g>
<g id="clust4" class="cluster">
<title>cluster_RightSidebarModule_imports</title>
<polygon fill="none" stroke="black" points="16,-40.8 16,-92.8 1035,-92.8 1035,-40.8 16,-40.8"/>
</g>
<!-- RightSidebarComponent -->
<g id="node1" class="node">
<title>RightSidebarComponent</title>
<polygon fill="#ffffb3" stroke="black" points="1206.71,-84.8 1051.29,-84.8 1051.29,-48.8 1206.71,-48.8 1206.71,-84.8"/>
<text text-anchor="middle" x="1129" y="-62.6" font-family="Times,serif" font-size="14.00">RightSidebarComponent</text>
</g>
<!-- RightSidebarModule -->
<g id="node2" class="node">
<title>RightSidebarModule</title>
<polygon fill="#8dd3c7" stroke="black" points="639.93,-149.8 636.93,-153.8 615.93,-153.8 612.93,-149.8 506.07,-149.8 506.07,-113.8 639.93,-113.8 639.93,-149.8"/>
<text text-anchor="middle" x="573" y="-127.6" font-family="Times,serif" font-size="14.00">RightSidebarModule</text>
</g>
<!-- RightSidebarComponent&#45;&gt;RightSidebarModule -->
<g id="edge1" class="edge">
<title>RightSidebarComponent&#45;&gt;RightSidebarModule</title>
<path fill="none" stroke="black" d="M1129,-85.09C1129,-107.01 1129,-140.8 1129,-140.8 1129,-140.8 649.79,-140.8 649.79,-140.8"/>
<polygon fill="black" stroke="black" points="649.79,-137.3 639.79,-140.8 649.79,-144.3 649.79,-137.3"/>
</g>
<!-- RightSidebarComponent  -->
<g id="node10" class="node">
<title>RightSidebarComponent </title>
<polygon fill="#fb8072" stroke="black" points="652.21,-214.8 493.79,-214.8 493.79,-178.8 652.21,-178.8 652.21,-214.8"/>
<text text-anchor="middle" x="573" y="-192.6" font-family="Times,serif" font-size="14.00">RightSidebarComponent </text>
</g>
<!-- RightSidebarModule&#45;&gt;RightSidebarComponent  -->
<g id="edge9" class="edge">
<title>RightSidebarModule&#45;&gt;RightSidebarComponent </title>
<path fill="none" stroke="black" stroke-dasharray="5,2" d="M573,-149.91C573,-149.91 573,-168.79 573,-168.79"/>
<polygon fill="black" stroke="black" points="569.5,-168.79 573,-178.79 576.5,-168.79 569.5,-168.79"/>
</g>
<!-- BlockSizeInputModule -->
<g id="node3" class="node">
<title>BlockSizeInputModule</title>
<polygon fill="#8dd3c7" stroke="black" points="1027.15,-84.8 1024.15,-88.8 1003.15,-88.8 1000.15,-84.8 880.85,-84.8 880.85,-48.8 1027.15,-48.8 1027.15,-84.8"/>
<text text-anchor="middle" x="954" y="-62.6" font-family="Times,serif" font-size="14.00">BlockSizeInputModule</text>
</g>
<!-- BlockSizeInputModule&#45;&gt;RightSidebarModule -->
<g id="edge2" class="edge">
<title>BlockSizeInputModule&#45;&gt;RightSidebarModule</title>
<path fill="none" stroke="black" d="M954,-84.91C954,-104.14 954,-131.8 954,-131.8 954,-131.8 649.8,-131.8 649.8,-131.8"/>
<polygon fill="black" stroke="black" points="649.8,-128.3 639.8,-131.8 649.8,-135.3 649.8,-128.3"/>
</g>
<!-- InfoButtonModule -->
<g id="node4" class="node">
<title>InfoButtonModule</title>
<polygon fill="#8dd3c7" stroke="black" points="862.49,-84.8 859.49,-88.8 838.49,-88.8 835.49,-84.8 741.51,-84.8 741.51,-48.8 862.49,-48.8 862.49,-84.8"/>
<text text-anchor="middle" x="802" y="-62.6" font-family="Times,serif" font-size="14.00">InfoButtonModule</text>
</g>
<!-- InfoButtonModule&#45;&gt;RightSidebarModule -->
<g id="edge3" class="edge">
<title>InfoButtonModule&#45;&gt;RightSidebarModule</title>
<path fill="none" stroke="black" d="M802,-84.83C802,-101.2 802,-122.8 802,-122.8 802,-122.8 649.85,-122.8 649.85,-122.8"/>
<polygon fill="black" stroke="black" points="649.85,-119.3 639.85,-122.8 649.85,-126.3 649.85,-119.3"/>
</g>
<!-- ReviewButtonModule -->
<g id="node5" class="node">
<title>ReviewButtonModule</title>
<polygon fill="#8dd3c7" stroke="black" points="723.43,-84.8 720.43,-88.8 699.43,-88.8 696.43,-84.8 582.57,-84.8 582.57,-48.8 723.43,-48.8 723.43,-84.8"/>
<text text-anchor="middle" x="653" y="-62.6" font-family="Times,serif" font-size="14.00">ReviewButtonModule</text>
</g>
<!-- ReviewButtonModule&#45;&gt;RightSidebarModule -->
<g id="edge4" class="edge">
<title>ReviewButtonModule&#45;&gt;RightSidebarModule</title>
<path fill="none" stroke="black" d="M611.25,-84.91C611.25,-84.91 611.25,-103.79 611.25,-103.79"/>
<polygon fill="black" stroke="black" points="607.75,-103.79 611.25,-113.79 614.75,-103.79 607.75,-103.79"/>
</g>
<!-- RotationSliderModule -->
<g id="node6" class="node">
<title>RotationSliderModule</title>
<polygon fill="#8dd3c7" stroke="black" points="564.71,-84.8 561.71,-88.8 540.71,-88.8 537.71,-84.8 423.29,-84.8 423.29,-48.8 564.71,-48.8 564.71,-84.8"/>
<text text-anchor="middle" x="494" y="-62.6" font-family="Times,serif" font-size="14.00">RotationSliderModule</text>
</g>
<!-- RotationSliderModule&#45;&gt;RightSidebarModule -->
<g id="edge5" class="edge">
<title>RotationSliderModule&#45;&gt;RightSidebarModule</title>
<path fill="none" stroke="black" d="M535.45,-84.91C535.45,-84.91 535.45,-103.79 535.45,-103.79"/>
<polygon fill="black" stroke="black" points="531.95,-103.79 535.45,-113.79 538.95,-103.79 531.95,-103.79"/>
</g>
<!-- SlicesInputModule -->
<g id="node7" class="node">
<title>SlicesInputModule</title>
<polygon fill="#8dd3c7" stroke="black" points="405.04,-84.8 402.04,-88.8 381.04,-88.8 378.04,-84.8 282.96,-84.8 282.96,-48.8 405.04,-48.8 405.04,-84.8"/>
<text text-anchor="middle" x="344" y="-62.6" font-family="Times,serif" font-size="14.00">SlicesInputModule</text>
</g>
<!-- SlicesInputModule&#45;&gt;RightSidebarModule -->
<g id="edge6" class="edge">
<title>SlicesInputModule&#45;&gt;RightSidebarModule</title>
<path fill="none" stroke="black" d="M344,-84.83C344,-101.2 344,-122.8 344,-122.8 344,-122.8 496.15,-122.8 496.15,-122.8"/>
<polygon fill="black" stroke="black" points="496.15,-126.3 506.15,-122.8 496.15,-119.3 496.15,-126.3"/>
</g>
<!-- TagListModule -->
<g id="node8" class="node">
<title>TagListModule</title>
<polygon fill="#8dd3c7" stroke="black" points="264.6,-84.8 261.6,-88.8 240.6,-88.8 237.6,-84.8 161.4,-84.8 161.4,-48.8 264.6,-48.8 264.6,-84.8"/>
<text text-anchor="middle" x="213" y="-62.6" font-family="Times,serif" font-size="14.00">TagListModule</text>
</g>
<!-- TagListModule&#45;&gt;RightSidebarModule -->
<g id="edge7" class="edge">
<title>TagListModule&#45;&gt;RightSidebarModule</title>
<path fill="none" stroke="black" d="M213,-84.91C213,-104.14 213,-131.8 213,-131.8 213,-131.8 496.13,-131.8 496.13,-131.8"/>
<polygon fill="black" stroke="black" points="496.13,-135.3 506.13,-131.8 496.13,-128.3 496.13,-135.3"/>
</g>
<!-- TagSearchModule -->
<g id="node9" class="node">
<title>TagSearchModule</title>
<polygon fill="#8dd3c7" stroke="black" points="143.9,-84.8 140.9,-88.8 119.9,-88.8 116.9,-84.8 24.1,-84.8 24.1,-48.8 143.9,-48.8 143.9,-84.8"/>
<text text-anchor="middle" x="84" y="-62.6" font-family="Times,serif" font-size="14.00">TagSearchModule</text>
</g>
<!-- TagSearchModule&#45;&gt;RightSidebarModule -->
<g id="edge8" class="edge">
<title>TagSearchModule&#45;&gt;RightSidebarModule</title>
<path fill="none" stroke="black" d="M84,-85.09C84,-107.01 84,-140.8 84,-140.8 84,-140.8 496.03,-140.8 496.03,-140.8"/>
<polygon fill="black" stroke="black" points="496.03,-144.3 506.03,-140.8 496.03,-137.3 496.03,-144.3"/>
</g>
</g>
</svg>
