<svg id="Layer_1" data-name="Layer 1" xmlns="http://www.w3.org/2000/svg" viewBox="0 0 24 24">
    <path d="M0 0h24v24H0z" fill="none"/>
    <path d="M7.76 13.27c-.2 1.85.44 5.47-1.42 5.41S1.77 15 2.06 12.51 3.65 7.85 6.4 7.85c2.6 0 3.07 1.81 2.8 2.65-.34 1.01-1.2.91-1.44 2.77zM16.33 11.62c.2 1.86-.45 5.48 1.42 5.42s4.56-3.73 4.28-6.17-1.6-4.66-4.35-4.66c-2.58 0-3.07 1.8-2.79 2.64.34 1.01 1.24.92 1.44 2.77zM11.6 20.76h-1.23s.55-6.58.55-8.9S10.37 3 10.37 3h1.23s.55 6.05.55 8.91-.55 8.85-.55 8.85zM13.14 20.76h1.22s-.55-6.58-.55-8.9.55-8.86.55-8.86h-1.22s-.56 6.05-.56 8.91.56 8.85.56 8.85z"/>
    <path d="M11.26 10.12C11 8 8 10 8 10l.73.32s2.27-1.32 2.6.55c.19 1.04.06.27-.07-.75zM13.54 10.62c.2-1 2.28-.9 2.28-.9l.25.65s-2.28 0-2.46 1-.26.26-.07-.75z"/>
</svg>
