<svg xmlns="http://www.w3.org/2000/svg" width="64" height="64" fill="currentColor" viewBox="0 0 64 64">
  <g clip-path="url(#a)">
    <g clip-path="url(#b)">
      <path d="M61.586 32.695c-2.055-.528-3.778-1.913-4.684-3.827-1.06-2.684-9.721-11.99-17.675-16.72A24.67 24.67 0 0 1 27.12-6H21l.707 51.499c.044 2.595 8.639 5.763 8.639 5.763a53 53 0 0 0 6.87 1.584c9.214.88 14.98-1.892 19.399-10.427.508-1.408 2.099-3.608 3.469-3.872a3.25 3.25 0 0 0 2.364-1.386 3.21 3.21 0 0 0-.862-4.466M41.658 20.222c.176-.22.42-.308.706-.308h.089c.95.044 2.253 1.056 3.226 2.508.441.66 1.104 1.188 1.745 1.694.663.528 1.303 1.034 1.458 1.54.199.792 0 1.672-.486 2.31-.685.792-2.43.022-5.037-2.2a7.4 7.4 0 0 1-1.635-3.08v-.066a2.5 2.5 0 0 1-.066-2.398M29.35 25.854c.045-.22.221-.396.509-.55.397-.198.994-.33 1.745-.33.994 0 2.231.22 3.535.748.928.374 2.032.528 3.07.66 1.061.154 2.078.286 2.63.638a2.65 2.65 0 0 1 1.193 2.31c-.11.616-1.127 1.496-6.937.616a10.3 10.3 0 0 1-3.955-1.98l-.265-.154c-1.149-.66-1.745-1.034-1.525-1.98zm12.925 6.49c.575 0 1.237.131 1.922.373.73.264 1.48.198 2.143.132.619-.066 1.171-.11 1.48.11.575.506.907 1.232.929 2.002a.85.85 0 0 1-.266.638c-.574.572-2.054.814-4.308.726a5.45 5.45 0 0 1-2.74-1.342l-.066-.044c-.574-.264-.883-.902-.75-1.54 0-.33.154-.572.419-.748.31-.198.729-.308 1.26-.308zm-13.389 5.411c0-1.254 1.635-1.936 3.138-1.936h.022c.398 0 .817.044 1.215.132h.442c1.237.286 2.01.462 3.844.946a4.08 4.08 0 0 1 2.54 2.464c.133.506 0 1.056-.353 1.452a4.57 4.57 0 0 1-3.49 1.298c-.53 0-1.039-.066-1.547-.176a19 19 0 0 1-3.27-1.144l-.464-.198a2.594 2.594 0 0 1-2.077-2.838m10.208 7.677c-.089.308-1.017 1.144-2.607 1.716-1.15.418-3.337.924-5.104-.286-.884-.616-1.812-1.342-1.922-2.221-.044-.572.154-1.056.574-1.408.486-.418 1.237-.616 2.1-.616.463 0 .971.066 1.48.198.817.22 1.723.088 2.518-.044.773-.11 1.502-.22 1.9 0a2.64 2.64 0 0 1 1.017 2.684zm11.09 1.694c-.508.682-1.28.924-1.944.66-1.193-.462-2.474.022-3.49.44-1.105.44-1.569.572-1.79.132-.42-.814-.53-1.474-.375-1.98.242-.681.972-1.034 1.634-1.342q.3-.13.53-.263c1.923-1.1 3.005-1.518 3.734-1.518s1.127.462 1.635 1.122c.796 1.011.53 2.111.067 2.75M60.239 35.49v.462h-.022v.638h-.618c-1.15.066-2.298.242-3.447.462-.398.374-.773 1.43-1.127 2.53-.707 2.156-1.59 4.818-3.91 5.851-.045-.33-.177-.681-.376-1.033 1.834-.836 2.585-3.124 3.248-5.148.199-.572.375-1.1.574-1.562-.265.22-.53.528-.817.836-1.039 1.122-2.32 2.508-4.905 2.508h-.044c-3.292.528-6.474 1.958-9.147 4.047.022-.417 0-.835-.155-1.231 2.718-2.002 5.877-3.388 9.213-3.916 2.188 0 3.204-1.1 4.198-2.178.619-.66 1.193-1.276 1.989-1.54-.177 0-.376 0-.53.022-.2.154-.398.33-.62.528-1.303 1.122-2.916 2.508-5.478 2.508h-.045c-.906.198-1.745.396-2.518.572-1.724.396-3.027.704-4.53.704-.22 0-.441 0-.662-.044.132-.33.176-.704.132-1.1 1.613.088 2.917-.198 4.795-.638.773-.176 1.635-.374 2.65-.594 1.945 0 3.227-.858 4.31-1.76-.885 0-1.901-.286-3.227-1.188 0-.11.067-.198.067-.308 0-.286-.067-.572-.155-.836l.11-.154c2.077 1.606 3.094 1.452 4.375 1.276.088 0 .199-.022.31-.044.11-.088.242-.176.353-.264-.906-.418-1.724-.99-2.254-1.826-.906-1.386-1.281-1.562-5.081-2.134-1.569-.131-3.093-.637-4.485-1.451 0-.066.066-.11.088-.176 0-.396-.066-.792-.199-1.166a10.2 10.2 0 0 0 4.75 1.694c3.756.572 4.662.77 5.877 2.617.619.946 1.724 1.518 2.895 1.848.088 0 .198 0 .287-.022-.044 0-.066-.022-.11-.044-.95-.572-1.127-.99-1.304-1.65-.155-.506-.354-1.21-1.569-2.53a19 19 0 0 0-4.286-1.98q.331-.46.464-.99a19.6 19.6 0 0 1 4.463 2.069l.11.088c1.436 1.561 1.68 2.441 1.856 3.035.133.462.177.616.796.99a8.04 8.04 0 0 0 3.6.858h.067l-.066.55v.726z"/>
    </g>
  </g>
  <defs>
    <clipPath id="a">
      <path d="M0 0h64v64H0z"/>
    </clipPath>
    <clipPath id="b">
      <path d="M21-6h42v59H21z"/>
    </clipPath>
  </defs>
</svg>
