<svg xmlns="http://www.w3.org/2000/svg" width="64" height="64" fill="currentColor" viewBox="0 0 64 64">
  <path stroke="currentColor" stroke-linecap="round" stroke-miterlimit="10" stroke-width=".75" d="m53.312 59.2-1.557 2.667M27.861 25.6c13.227 3.947 12.31 6.4 14.934 9.216 3.434 3.69 3.221 6.059 5.461 11.861 1.152 2.987 1.643 13.654 9.408 14.336M57.6 55.744l-5.845 1.493"/>
  <path stroke="currentColor" stroke-dasharray="2 2 2 2 2 2" stroke-linecap="round" stroke-linejoin="round" stroke-width="2" d="M36.117 28.715c6.55 4.416 8.683 4.778 14.656 27.029"/>
  <path stroke="currentColor" stroke-linecap="round" stroke-miterlimit="10" stroke-width=".75" d="M13.163 31.21a7.83 7.83 0 0 0-3.478 3.478c-.576 1.493-.853 3.136-3.861 3.819M9.75 36.33l2.175 1.387M11.925 20.95c-3.285.597-5.525-2.625-6.912-4.587M7.936 20.65l-3.35 1.302M22.144 15.296a16.5 16.5 0 0 0 1.323-6.144c-.171-2.667-.427-5.61-.427-5.61M23.616 10.112l4.245-3.883M23.424 7.552 19.52 5.824M29.163 18.688c2.346-.96 3.349-1.13 6.037-2.325s5.099-2.134 5.099-2.134M36.843 15.296l-.3-3.477M23.616 33.493s4.117 3.542 4.117 5.782a7.96 7.96 0 0 0 1.878 4.266M27.435 40.512l-5.141 2.176"/>
  <path fill-rule="evenodd" d="M25.75 35.648c-3.393-3.243-10.134-3.99-14.593-2.965A12.44 12.44 0 0 0 9.43 20.48c5.999-.698 9.292-3.486 11.924-5.713.503-.426.983-.832 1.452-1.199 1.365 4.296 3.35 4.195 5.882 4.065.95-.048 1.978-.101 3.078.074-1.237 1.258-4.608 4.693-2.133 8.362-1.77.726-2.603 1.408-3.136 2.859a12.8 12.8 0 0 0-.747 6.72m-4.102-12.653a3.6 3.6 0 0 0-1.808-1.662 3.54 3.54 0 0 0-4.075 2.176c-.512 1.728.022 3.499 1.302 3.862 1.28.362 4.266-.086 4.906-1.942a3.6 3.6 0 0 0-.325-2.434" clip-rule="evenodd"/>
  <path stroke="currentColor" stroke-linecap="round" stroke-miterlimit="10" stroke-width=".75" d="M25.11 41.493a4.86 4.86 0 0 1-1.217 5.227"/>
</svg>
