<svg xmlns="http://www.w3.org/2000/svg" width="64" height="64" fill="currentColor" viewBox="0 0 64 64">
  <g clip-path="url(#a)">
    <path d="M21.44 48.299a1.067 1.067 0 1 0 0-2.134 1.067 1.067 0 0 0 0 2.134M11.136 48.299a1.067 1.067 0 1 0 0-2.134 1.067 1.067 0 0 0 0 2.134M42.027 48.299a1.067 1.067 0 1 0 0-2.134 1.067 1.067 0 0 0 0 2.134M52.33 48.299a1.067 1.067 0 1 0 0-2.134 1.067 1.067 0 0 0 0 2.134M31.744 48.299a1.067 1.067 0 1 0 0-2.134 1.067 1.067 0 0 0 0 2.134M21.44 54.699a1.067 1.067 0 1 0 0-2.134 1.067 1.067 0 0 0 0 2.134M11.136 54.699a1.067 1.067 0 1 0 0-2.134 1.067 1.067 0 0 0 0 2.134M42.027 54.699a1.067 1.067 0 1 0 0-2.134 1.067 1.067 0 0 0 0 2.134M52.33 54.699a1.067 1.067 0 1 0 0-2.134 1.067 1.067 0 0 0 0 2.134M31.744 54.699a1.067 1.067 0 1 0 0-2.134 1.067 1.067 0 0 0 0 2.134M57.365 40.661a6.4 6.4 0 0 0-4.544-2.261 6.4 6.4 0 0 0-3.114.96 4.86 4.86 0 0 1-2.368.768 4.4 4.4 0 0 1-2.262-.768 6.4 6.4 0 0 0-3.221-.96c-1.301 0-3.947 1.75-4.757 1.75a4.27 4.27 0 0 1-2.134-.747l-.277-.15a5.4 5.4 0 0 0-2.795-.853 6.4 6.4 0 0 0-3.114.96 4.95 4.95 0 0 1-2.39.768 4.55 4.55 0 0 1-2.261-.768 6.4 6.4 0 0 0-3.264-.96c-1.301 0-3.968 1.75-4.779 1.75a4.27 4.27 0 0 1-2.133-.747 5.9 5.9 0 0 0-3.03-1.003 5.93 5.93 0 0 0-4.266 2.347 1.15 1.15 0 0 0 .256 1.6c.19.143.423.218.661.213a1.17 1.17 0 0 0 .96-.49 3.54 3.54 0 0 1 2.454-1.43c.668.06 1.308.296 1.856.683a6.4 6.4 0 0 0 3.306 1.045 13.5 13.5 0 0 0 4.032-1.493 3 3 0 0 1 .854-.192c.32-.017.64.034.938.149l.32.15.704.362a6.57 6.57 0 0 0 3.392 1.045c.49-.005.977-.07 1.451-.192l3.264-1.365a3.2 3.2 0 0 1 .79-.15c1.514 0 3.391 1.686 5.269 1.686a13.7 13.7 0 0 0 4.032-1.493c.272-.11.56-.174.853-.192.32-.013.639.037.939.149l.298.15.704.362a6.66 6.66 0 0 0 3.414 1.045 7.06 7.06 0 0 0 3.477-1.024c.6-.392 1.29-.627 2.005-.682a3.88 3.88 0 0 1 2.667 1.429 1.17 1.17 0 0 0 .939.448c.264 0 .52-.09.725-.256a1.174 1.174 0 0 0 .15-1.643M25.6 22.784a6 6 0 0 1 0-1.067H6.4v2.134h19.2a6 6 0 0 1 0-1.067M38.272 21.717a9 9 0 0 1 0 1.067 9 9 0 0 1 0 1.067h19.2v-2.134z"/>
    <path d="M36.096 21.717q.14.525.15 1.067a4.267 4.267 0 0 1-8.534 0 4.4 4.4 0 0 1 .15-1.067H25.6a6 6 0 0 0 0 1.067 6.4 6.4 0 0 0 12.8 0 9 9 0 0 0 0-1.067zM57.579 32.576h-51.2v2.133h51.2z"/>
    <path d="M38.272 5.696c-.683 0-3.797 4.117-5.973 9.003a20.8 20.8 0 0 0-2.432 8.533 2.134 2.134 0 0 0 4.266 0 19.2 19.2 0 0 1-.213-7.808 32.5 32.5 0 0 1 4.352-9.728"/>
  </g>
  <defs>
    <clipPath id="a">
      <path d="M0 0h64v64H0z"/>
    </clipPath>
  </defs>
</svg>
