<svg xmlns="http://www.w3.org/2000/svg" width="64" height="64" fill="currentColor" viewBox="0 0 64 64">
  <g clip-path="url(#a)">
    <path d="M21.072 6.763c-2.79-2.02-7.785.103-11.178 4.697S6.022 21.41 8.81 23.409c2.79 1.998 7.785-.083 11.178-4.677s3.872-9.95 1.083-11.97m-2.103 8.55c-.104.143-.291.205-.458.143h-.041a.363.363 0 0 1-.083-.514c.999-1.69 1.04-2.802.853-2.947-.187-.144-.75-.04-1.582.495a13.3 13.3 0 0 0-2.852 2.637c-2.081 2.637-2.394 4.841-2.227 4.986.166.144.874.04 2.082-.886.145-.145.395-.145.52 0a.36.36 0 0 1 0 .515c-1.374 1.07-2.664 1.236-3.08.886-.417-.35-.48-.969-.271-1.752a12.1 12.1 0 0 1 2.393-4.12 14.8 14.8 0 0 1 2.998-2.905c1.395-.886 2.102-.741 2.477-.453.999.824-.146 3.028-.75 3.935z"/>
    <path fill="#000" d="m34.081 44.587.063.02h-.063z"/>
    <path d="M50.4 15.044C46.238 10.924 38.433 11.913 33 17.29a15.8 15.8 0 0 0-4.621 8.673c1.145.226 2.789.803 4.204 1.586a4.76 4.76 0 0 1-.145-2.699c.041-.226.291-.37.52-.33H33a.41.41 0 0 1 .291.516c-.395 1.112-.125 2.328.666 3.193a3.34 3.34 0 0 0 3.268.495 9.97 9.97 0 0 0 4.392-2.679 9.9 9.9 0 0 0 2.706-4.367 3.2 3.2 0 0 0-.5-3.235c-.436-.391-.998-.638-1.581-.659a.426.426 0 0 1-.396-.474c0-.226.209-.412.438-.412a3.4 3.4 0 0 1 2.081.927 4.07 4.07 0 0 1 .729 4.12 10.9 10.9 0 0 1-2.915 4.76 11.3 11.3 0 0 1-4.808 2.904c-.479.124-1.228.186-1.728.206-.041-.02-.083-.082-.125-.103 1.853 1.648 2.436 2.74 3.144 4.862.353 1.051.353 1.67.353 1.67s4.788.123 10.367-5.522a10.6 10.6 0 0 0 1.145-1.401c3.226-4.965 3.33-10.857-.125-14.277"/>
    <path d="M26.067 25.963c-7.473-.989-14.092 2.472-14.8 7.725s4.767 10.343 12.219 11.331c7.473.99 14.092-2.472 14.8-7.725s-4.767-10.342-12.219-11.331m-1.77 13.082c-4.808-.639-8.284-3.152-7.95-5.624.186-1.463 1.81-2.7 4.329-3.194.27-.04.52.145.562.392.041.247-.125.515-.375.556-2.06.392-3.434 1.277-3.58 2.349-.25 1.854 3.039 3.893 7.14 4.45 4.1.535 7.805-.557 8.055-2.431.125-.845-.416-1.69-1.436-2.473a.51.51 0 0 1-.125-.68.47.47 0 0 1 .666-.082 3.68 3.68 0 0 1 1.853 3.296c-.333 2.473-4.372 4.059-9.18 3.42zM33.27 44.999c-1.395-.556-1.708.618-1.79.824-.105.226 0 .68.77 1.38.998.845 2.102 1.545 3.288 2.06 3.123 1.504 5.225 1.195 5.329.968.104-.226-.167-.906-1.395-1.874a.41.41 0 0 1 0-.556l.042-.042a.36.36 0 0 1 .5.042c1.373 1.091 1.935 2.1 1.623 2.822a1.67 1.67 0 0 1-1.665.742 12.4 12.4 0 0 1-4.705-1.319 14.5 14.5 0 0 1-3.476-2.287c-1.228-1.153-1.353-1.627-1.082-2.245.062-.144.375-.31.25-.371-.084-.041-.396.082-.604.144-1 .289-1.52.33-2.54.433l-1.27.082c-.957 3.132 2.27 7.087 7.453 9.106 5.35 2.08 10.699 1.174 11.969-2.06.5-1.813-.167-3.997-1.416-5.418-.062-.062-.145-.103-.229-.083-.437.062-1.873.31-3.663.186-1.374-.083-3.726-.495-6.974-2.308l-.416-.206z"/>
    <path d="M49.214 31.793c-.354.35-1.499 1.319-1.499 1.319s2.644 1.339 2.56 3.955c-.166 2.493-3.267 4.553-7.056 4.553h-.645a9.3 9.3 0 0 1-4.642-1.442h-.042c-.707 1.113-1.665 2.08-2.789 2.864 0 0-1.665 1.03-1.665 1.194 0 .124.603.413.603.413.583.309 1.291.659 1.874.968 1.644.618 3.56 1.339 5.308 1.339s3.518-.247 3.518-.247c6.37-.7 11.24-4.512 11.24-9.086-.27-3.255-2.31-6.077-5.308-7.396-.041 0-.104.145-.354.371 0 0-.728.783-1.124 1.175zM47.07 33.73c-1.166.824-2.29 1.586-4.621 2.513-1.166.474-2.893.577-3.268.577-.042 0-.083.041-.083.082-.125.866-.437 1.772-.77 2.493h.041c1.249.804 2.748 1.174 4.226 1.257h.603c3.248 0 5.995-1.504 6.12-3.564.23-1.319-.978-2.781-2.227-3.358z"/>
  </g>
  <defs>
    <clipPath id="a">
      <path d="M7 6h49v50H7z"/>
    </clipPath>
  </defs>
</svg>
