<svg xmlns="http://www.w3.org/2000/svg" width="64" height="64" fill="currentColor" viewBox="0 0 64 64">
  <g clip-path="url(#a)">
    <path d="M59.982 29.082c-1.929-10.644-8.14-.903-22.364 4.283.212.314.402.63.636.923.508.504.53 1.071.339 1.638.212.084.424.147.678.23 1.717-2.854 4.77-4.702 8.12-4.933h.211a.56.56 0 0 1 .445.672.564.564 0 0 1-.678.44c-2.84.232-5.406 1.764-6.91 4.158.656.105 1.314.168 1.97.168 2.523 0 5.046-.273 7.505-.82a.6.6 0 0 1 .72.379v.042a.536.536 0 0 1-.402.65 10.2 10.2 0 0 0-2.268 0c-1.209.231-3.392.861-4.24 1.008-.53.105-1.06.168-1.611.168h-.572a10.3 10.3 0 0 1-2.778-.252 12 12 0 0 1-1.208-.44c-.254.251-.509.482-.742.671.212.252.424.504.679.735 2.374 1.89 3.625 4.807 3.328 7.81.042 1.05.106 2.225.275 3.694a.57.57 0 0 1-.53.61.62.62 0 0 1-.657-.505c-.254-1.49-.254-2.687-.254-3.757 0-.82-.085-1.638-.19-2.436l-.425-1.49a6.9 6.9 0 0 0-1.293-1.995 11.57 11.57 0 0 1-2.798 6.697.62.62 0 0 1-.827 0 .49.49 0 0 1-.212-.462q0-.188.127-.314a10.2 10.2 0 0 0 2.608-7.138 5.2 5.2 0 0 1-.933-.861c-.657.21-1.314.294-1.993.168-1.08.987-1.908 2.225-2.353 3.61l-.509 2.373a22 22 0 0 0 0 2.351 44.5 44.5 0 0 0 .742 9.637c.085.335-.127.671-.487.755a.6.6 0 0 1-.7-.42v-.356a39.6 39.6 0 0 1-1.145-7.033c-.254.357-.53.692-.805 1.05-.276.356-.509.755-.72 1.091-.573.945-.722 3.632-2.227 3.842-.339 0-.954 0-.996-.357s.53-.693.763-.945c.615-.63.848-2.267 1.4-3.19l.126-.19a7.47 7.47 0 0 0-3.943.63c-.296.147-.678 0-.826-.273a.657.657 0 0 1 .296-.86 8.93 8.93 0 0 1 4.728-.735h.55c.616-.798 1.188-1.575 1.59-2.1v-1.511q.001-1.512.446-2.96a20 20 0 0 1 1.59-3.338 13.4 13.4 0 0 0-2.586 1.89c-2.269 2.371-5.576 3.484-8.84 3.001h-4.24a.62.62 0 0 1-.636-.63c0-.357.276-.63.636-.63 1.42-.062 2.82-.062 4.24 0 1.017 0 3.667-.314 3.667-.314a11.2 11.2 0 0 0 3.116-1.365 13.17 13.17 0 0 1-7.27-3.422.67.67 0 0 1 0-.903.66.66 0 0 1 .89 0 11.65 11.65 0 0 0 7.864 3.212c1.166-1.07 2.523-1.91 3.922-2.603-.127-.084-.297-.147-.403-.273-.127-.21 0-1.112-.296-2.624l.17-.105s-.107.021-.15.042c-7.207 1.512-8.521.084-21.452-7.978-7.653-4.765-8.14 9.07-5.3 16.355 3.158 7.914 6.042 12.596 14.33 14.695 6.084 1.47 16.684 5.459 23.043 2.96 5.576-2.162 8.713-5.27 13.78-9.972 6.21-5.794 5.872-13.163 4.24-22.148"/>
    <path d="M59.622 11.07a10.75 10.75 0 0 1-.933-5.081 3.17 3.17 0 0 0-.975-2.351 9.97 9.97 0 0 0-6.53-1.575c-.805 0-1.462.65-1.462 1.449v.042c0 .797.678 1.406 1.484 1.385h.085a7.4 7.4 0 0 1 4.24.756v.189a13.66 13.66 0 0 0 1.144 6.298c.34.65.51 1.364.53 2.1-.042 1.847-3.095 2.98-5.024 2.98-.996 0-1.526-.86-2.522-2.708a18 18 0 0 0-1.294-2.225c-1.462-1.554-3.71-2.1-5.744-1.428-2.947.61-6.17 2.604-6.72 5.69-.213 1.112-.573 1.217-.7 1.26-.7.083-1.42.041-2.12-.127a10.3 10.3 0 0 0-2.65-.294c-.254 0-.275 0-.36-.168a5.08 5.08 0 0 1 .36-3.652c1.802-1.155 1.42-2.52 1.251-2.898-.912-2.225-5.66-2.792-8.628-2.35-2.692.503-5.066 1.993-6.656 4.198q-.573.66-1.209 1.26a4.99 4.99 0 0 0-1.399 6.76A17.5 17.5 0 0 1 15 25.428a3.63 3.63 0 0 0 1.483 2.771c1.823 1.323 4.558.84 6.742.462a15 15 0 0 1 1.653-.21c.933 0 .975.105 1.357 1.05a4.03 4.03 0 0 0 3.243 3.17 4.46 4.46 0 0 1 3.52 4.618c.127.735 1.547.483 2.352.315.806-.168 2.12-1.217 2.12-1.952 0-.168-.657-3.38-6.487-5.48h-.318c-1.08-.272-1.23-.776-1.568-1.637-.53-1.826-2.311-3.023-4.219-2.876-.763.02-1.526.126-2.268.273-1.357.23-3.604.63-4.367 0 0 0-.255-.168-.297-.714a19.5 19.5 0 0 0-1.399-5.563c-.742-1.974-.954-2.394.636-3.653.509-.483.996-.987 1.463-1.533a7.86 7.86 0 0 1 4.812-3.254 11.5 11.5 0 0 1 4.854.357 7.44 7.44 0 0 0-1.038 6.487c.487 1.512 2.014 2.456 3.603 2.247.594 0 1.187.042 1.76.167a7.85 7.85 0 0 0 3.561 0 4.02 4.02 0 0 0 2.714-3.485c.297-1.679 2.416-2.939 4.367-3.338 1.441-.293 2.395 0 2.586.21.403.61.784 1.24 1.102 1.89.975 1.847 2.12 4.199 5.046 4.325 3.752.23 8.098-2.1 8.352-5.606a7.5 7.5 0 0 0-.742-3.4"/>
  </g>
  <defs>
    <clipPath id="a">
      <path d="M3 2h58v60H3z"/>
    </clipPath>
  </defs>
</svg>
