<svg xmlns="http://www.w3.org/2000/svg" width="64" height="64" fill="currentColor" viewBox="0 0 64 64">
  <g clip-path="url(#a)">
    <path d="M27.541 15.765a2.816 2.816 0 0 0-2.922-3.093 4.05 4.05 0 0 0-2.432.875c-.56.415-1.08.88-1.558 1.386a42 42 0 0 0-5.248 6.4 69 69 0 0 0-4.992 8.96 41.8 41.8 0 0 0-3.498 12.011c-.982 7.083-.427 11.136 1.6 12.181 2.624 1.366 12.8.448 17.664-2.73a2.88 2.88 0 0 0 1.152-1.536c.133-.488.212-.989.234-1.494v-32.96M42.667 22.272a6.23 6.23 0 0 1-4.267-5.867V6.55h-4.267v9.856a6.23 6.23 0 0 1-4.266 5.888v3.542h12.8z"/>
  </g>
  <defs>
    <clipPath id="a">
      <path d="M0 0h64v64H0z"/>
    </clipPath>
  </defs>
</svg>
