<svg xmlns="http://www.w3.org/2000/svg" width="64" height="64" fill="currentColor" viewBox="0 0 64 64">
  <g clip-path="url(#a)">
    <path d="M56.725 16.683a1.73 1.73 0 0 0-.405-1.75c.218-.272.338-.61.341-.96a1.729 1.729 0 0 0-3.328-.746 1.75 1.75 0 0 0-2.304 1.045 2 2 0 0 0-.64-.128 1.73 1.73 0 0 0-1.706 1.536h-.278a1.77 1.77 0 0 0-1.77 1.75q.02.252.106.49a1.86 1.86 0 0 0-.768-.192 1.75 1.75 0 0 0-1.728 1.536 1.7 1.7 0 0 0-1.024-.363 1.75 1.75 0 0 0-1.728 1.579 1.7 1.7 0 0 0-1.344-.683 1.77 1.77 0 0 0-1.642 1.131 1.66 1.66 0 0 0-1.067-.384 1.8 1.8 0 0 0-1.365.683 1.69 1.69 0 0 0-1.43-.811 1.7 1.7 0 0 0-1.365.683 1.73 1.73 0 0 0-1.536-.939 1.75 1.75 0 0 0-1.643 1.195 1.8 1.8 0 0 0-.768-.171 1.69 1.69 0 0 0-1.322.661 1.75 1.75 0 0 0-2.838.512 1.73 1.73 0 0 0-2.781-.66 1.75 1.75 0 0 0-.568 1.108 1.7 1.7 0 0 0-.47-.106 1.75 1.75 0 0 0-1.749 1.749 1.6 1.6 0 0 0 0 .555 1.7 1.7 0 0 0-.64-.128 1.75 1.75 0 0 0-1.75 1.749c.005.346.117.681.32.96a1.77 1.77 0 0 0-1.77 1.75q.012.329.128.64a1.728 1.728 0 0 0-.512 3.37c-.54.76-.83 1.67-.832 2.603 0 .691.17 1.372.49 1.984a43 43 0 0 1 4.16-4.63 5.9 5.9 0 0 1 .726-2.325 5.6 5.6 0 0 1 0-1.707c.06-.39.222-.758.47-1.066.239-.242.434-.523.576-.832q.213-.702.298-1.43a8.5 8.5 0 0 1-.106 1.558 2.1 2.1 0 0 1-.47.789c-.261.289-.419.657-.448 1.045q-.036.512 0 1.024c.35-.547.835-.996 1.408-1.301.524-.25 1-.59 1.408-1.003.662-1.002 1.707-2.73 1.707-2.73a21 21 0 0 1-1.301 3.114 4.1 4.1 0 0 1-1.323 1.131 2.86 2.86 0 0 0-1.43 1.621 7 7 0 0 0-.447 1.323 27.6 27.6 0 0 1 3.84-2.859 15.2 15.2 0 0 1 6.4-2.133h.66q.212-.539.492-1.045c.239-.456.61-.828 1.066-1.067l.875-.576a6.6 6.6 0 0 0 1.088-1.728 8 8 0 0 1-.661 1.75c-.277.334-.618.61-1.003.81a1.92 1.92 0 0 0-.96 1.045c0 .278-.17.512-.235.747H32a37 37 0 0 0 5.654-.619c1.25-.303 2.45-.784 3.563-1.429q.685-1.126 1.536-2.133a6.1 6.1 0 0 1 1.813-1.003 6.6 6.6 0 0 0-1.386.981 5 5 0 0 0-.832 1.686 36 36 0 0 0 6.72-4.118s-7.275 7.446-16.256 7.702h-.832q.453.302.938.554c.67.304 1.428.357 2.134.15.362-.128 1.024-.534 1.536-.384.892.114 1.799-.042 2.602-.448 0 0-1.621 1.173-2.645.853-.384-.107-1.173.427-1.515.512a3.8 3.8 0 0 1-2.325 0 8.5 8.5 0 0 1-1.856-1.11 11.84 11.84 0 0 0-6.4 2.454c-1.259.96-2.347 1.792-3.307 2.624q.881.25 1.792.341a3.37 3.37 0 0 0 2.262-.618c.277-.256.66-.875 1.173-.939 1.067-.107 2.133-1.515 2.133-1.515s-.917 1.75-1.984 1.856c-.405 0-.938.982-1.216 1.195a3.4 3.4 0 0 1-2.026.597 8.7 8.7 0 0 1-2.752-.384 21.5 21.5 0 0 0-4.395 4.864 4.5 4.5 0 0 0 2.752 1.131 2.84 2.84 0 0 0 2.859 2.837 2.82 2.82 0 0 0 2.346-1.301c.37.162.77.25 1.174.256a2.86 2.86 0 0 0 2.645-1.792c.3.117.617.182.939.192a2.88 2.88 0 0 0 2.88-2.88 3 3 0 0 0-.3-1.237 1.96 1.96 0 0 0 1.089-1.75q.015-.149 0-.298.16.015.32 0a1.94 1.94 0 0 0 1.963-1.856c.331.252.734.394 1.152.405a1.96 1.96 0 0 0 1.898-1.536 1.7 1.7 0 0 0 1.494.875 1.75 1.75 0 0 0 1.728-1.579q.256.03.512 0a1.73 1.73 0 0 0 1.493-.896c.301.246.678.381 1.067.384a1.73 1.73 0 0 0 1.664-1.323c.202.088.42.131.64.128a1.75 1.75 0 0 0 1.749-1.749 2.1 2.1 0 0 0 0-.533 1.6 1.6 0 0 0 .555 0 1.75 1.75 0 0 0 1.749-1.643q.203.018.405 0a1.75 1.75 0 0 0 1.75-1.75 1.75 1.75 0 0 0 1.472-1.706v-.192a1.71 1.71 0 0 0 1.344-1.664q.104-.22.192-.448c.197-.188.344-.423.426-.683a1.75 1.75 0 0 0 0-.81v-.256c.285-.188.507-.455.64-.768"/>
    <path d="M47.381 34.816a10.67 10.67 0 0 0-4.501-2.645 2.39 2.39 0 0 1-1.75 2.133 2.13 2.13 0 0 1-1.578-.533c-.107 1.386-1.92 1.621-2.944 1.28h-.448q.018.202 0 .405a2.65 2.65 0 0 1-1.515 2.325c.266.507.405 1.07.406 1.643a3.88 3.88 0 0 1-3.968 3.797 4 4 0 0 1-1.323-.256 3.93 3.93 0 0 1-3.67 2.39 4.1 4.1 0 0 1-1.62-.342 3.99 3.99 0 0 1-3.265 1.75 3.884 3.884 0 0 1-3.968-3.798A5.974 5.974 0 0 1 11.35 37.1a5.74 5.74 0 0 1 1.152-3.435 2.134 2.134 0 0 1-.618-3.99v-.511a4.27 4.27 0 0 1 1.536-3.563c.227-.199.487-.358.768-.47-.918 0-2.134-1.066-2.731-2.645a3.46 3.46 0 0 1 0-3.69 7.8 7.8 0 0 0-3.221 1.813 12.12 12.12 0 0 0-3.051 8.768 23.92 23.92 0 0 0 6.805 17.344 11.9 11.9 0 0 0 7.894 3.499h.298c7.958.17 11.499-4.267 14.059-7.659 2.133-2.837 3.157-3.861 5.248-3.861 5.12 0 5.163 9.237 5.163 9.706a3.286 3.286 0 0 0 3.648 2.902c3.093 0 3.69-2.134 3.69-2.795s.214-8.917-4.608-13.696"/>
    <path d="M15.304 24.485c.88-.369 1.04-1.989.358-3.62-.682-1.63-1.949-2.652-2.83-2.284-.88.368-1.04 1.989-.358 3.619s1.95 2.653 2.83 2.285"/>
  </g>
  <defs>
    <clipPath id="a">
      <path d="M0 0h64v64H0z"/>
    </clipPath>
  </defs>
</svg>
