<svg xmlns="http://www.w3.org/2000/svg" width="64" height="64" fill="currentColor" viewBox="0 0 64 64">
  <path stroke="currentColor" stroke-miterlimit="10" d="M20.33 38.4c1.179 0 2.134-2.865 2.134-6.4s-.955-6.4-2.133-6.4-2.134 2.865-2.134 6.4.956 6.4 2.134 6.4Z"/>
  <path d="M49.75 30.848a6.4 6.4 0 0 1-2.454-.704 18.07 18.07 0 0 0-33.259-7.787 17.5 17.5 0 0 1-1.536 1.942A10.92 10.92 0 0 0 9.11 32a10.86 10.86 0 0 0 3.414 7.744 18.4 18.4 0 0 1 1.557 1.963 18.07 18.07 0 0 0 32.512-4.416c1.1.393 2.248.63 3.413.704 1.69-.065 3.35-.464 4.886-1.174V29.1a6.66 6.66 0 0 1-5.142 1.749M29.311 48.064h-.555a6.87 6.87 0 0 1-3.456-1.813c-1.152-1.579-1.472-6.08-3.456-5.974-1.45 0-.469 1.152-1.77 1.216-3.051.128-2.923-6.4-4.843-6.4-1.173 0-.96 2.134-.512 4.118l-.683-.811a8.9 8.9 0 0 1-2.922-6.4 8.92 8.92 0 0 1 2.901-6.4l.79-.939c-.449 1.963-.662 4.075.511 4.118 1.92 0 1.771-6.4 4.843-6.4 1.28 0 .32 1.13 1.75 1.194 1.983.107 2.303-4.266 3.455-5.973a6.53 6.53 0 0 1 3.136-1.728h.811a16.064 16.064 0 1 1 0 32.128z"/>
</svg>
