<svg xmlns="http://www.w3.org/2000/svg" width="64" height="64" fill="currentColor" viewBox="0 0 64 64">
  <g clip-path="url(#a)">
    <path d="M23.275 15.765a2.816 2.816 0 0 0-2.923-3.093 4.05 4.05 0 0 0-2.432.875c-.559.415-1.08.88-1.557 1.386a42 42 0 0 0-5.248 6.4 69 69 0 0 0-4.992 8.96 41.8 41.8 0 0 0-3.5 12.011c-.98 7.083-.49 11.136 1.644 12.181 2.624 1.366 12.8.448 17.664-2.73a2.88 2.88 0 0 0 1.152-1.536c.133-.488.212-.989.234-1.494V30.997c0-7.701-.042-14.933-.042-15.232M40.747 15.765a3.7 3.7 0 0 1 .533-1.77 2.6 2.6 0 0 1 2.39-1.323 4.05 4.05 0 0 1 2.431.875c.56.429 1.082.907 1.558 1.429a42 42 0 0 1 5.248 6.4 69 69 0 0 1 4.992 8.917 42.5 42.5 0 0 1 3.498 12.011c.982 7.083.427 11.136-1.6 12.181-2.624 1.366-12.906.448-17.664-2.73a2.88 2.88 0 0 1-1.152-1.536 6.8 6.8 0 0 1-.234-1.494zM38.4 22.272a6.23 6.23 0 0 1-4.267-5.867V6.55h-4.266v9.856a6.23 6.23 0 0 1-4.267 5.888v3.542h12.8z"/>
  </g>
  <defs>
    <clipPath id="a">
      <path d="M0 0h64v64H0z"/>
    </clipPath>
  </defs>
</svg>
