<svg xmlns="http://www.w3.org/2000/svg" width="64" height="64" fill="currentColor" viewBox="0 0 64 64">
  <g clip-path="url(#a)">
    <path d="M58.667 26.859a2.99 2.99 0 0 0-1.067-2.304 2.92 2.92 0 0 0 .939-2.134 2.99 2.99 0 0 0-1.408-2.496 2.94 2.94 0 0 0 1.408-2.496 3 3 0 0 0-.918-2.133l.278-.661a6.143 6.143 0 0 0-3.648-8.107 6.83 6.83 0 0 0-6.784 1.152 3.5 3.5 0 0 0-1.878-.597 3.01 3.01 0 0 0-3.349 2.602v.47a3.3 3.3 0 0 0-2.688-1.43 3.22 3.22 0 0 0-3.072 1.814 3.3 3.3 0 0 0-2.667-1.344 3.22 3.22 0 0 0-3.05 1.728 2.923 2.923 0 0 0-3.03-2.838c-.345-.002-.69.041-1.024.128a3.905 3.905 0 0 0-3.882-2.986A4.37 4.37 0 0 0 19.2 6.805l-.661-.789a5.205 5.205 0 0 0-6.4-.939 3.63 3.63 0 0 0-1.856 3.67 4.27 4.27 0 0 0-4.075 2.901 3.16 3.16 0 0 0 .832 2.944 3.37 3.37 0 0 0-1.43 1.92 3.456 3.456 0 0 0 1.9 4.096 2.39 2.39 0 0 0-1.985 2.283A2.496 2.496 0 0 0 7.317 25.6a2.6 2.6 0 0 0-1.557 2.347v.576a2.67 2.67 0 0 0 2.133 2.538 5.44 5.44 0 0 0-2.56 4.544v1.216a5.63 5.63 0 0 0 5.718 5.483v2.283a1.152 1.152 0 0 0 2.304 0v-2.283a5.653 5.653 0 0 0 5.589-5.483v-1.216a5.44 5.44 0 0 0-2.603-4.565 2.69 2.69 0 0 0 2.134-2.539v-.576a2.56 2.56 0 0 0-1.088-2.133 2.65 2.65 0 0 0 .81-1.728 2.84 2.84 0 0 0-.469-1.75 3.35 3.35 0 0 0 1.301-1.813 3.48 3.48 0 0 0-1.088-3.626c.44-.083.866-.234 1.259-.448a4.27 4.27 0 0 0 3.136 1.408 4.4 4.4 0 0 0 1.856-.342v.448a2.944 2.944 0 0 0 3.008 2.752 3.24 3.24 0 0 0 3.072-1.728 2.965 2.965 0 0 0 3.093 2.774 3.2 3.2 0 0 0 3.072-1.835 3.27 3.27 0 0 0 2.646 1.365 3.01 3.01 0 0 0 3.285-2.581v-.405a3.37 3.37 0 0 0 2.71 1.429q.442-.004.874-.107.181.188.405.32a3.05 3.05 0 0 0-1.408 2.496 2.97 2.97 0 0 0 1.152 2.283 3 3 0 0 0-.938 2.133 2.97 2.97 0 0 0 .981 2.134A4.26 4.26 0 0 0 44.907 32a4 4 0 0 0 .618 2.133 4.7 4.7 0 0 0-1.706 2.774v.405q-.316.214-.555.512a2.77 2.77 0 0 0-.533 1.408 3.56 3.56 0 0 0-1.622 1.301 4.01 4.01 0 0 0-4.266-.597A6.78 6.78 0 0 0 32 37.931h-.427a6.527 6.527 0 0 0-6.656 6.4v.405a6.1 6.1 0 0 0 1.92 4.437 2.13 2.13 0 0 0-.576 1.408 2.134 2.134 0 0 0 1.814 2.134v.213a2.13 2.13 0 0 0 1.28 1.92V57.6a2.304 2.304 0 0 0 4.586 0v-3.03a2.13 2.13 0 0 0 1.003-1.749v-.128h.555a2.944 2.944 0 0 0 2.602-2.581c0-.81-.106-.853-.106-.853a3.16 3.16 0 0 0 2.624 1.109 2.795 2.795 0 0 0 2.581-2.133 4.27 4.27 0 0 0 4.48 1.173 3.54 3.54 0 0 0 2.133-2.005 2.56 2.56 0 0 0 3.52-.619 3.22 3.22 0 0 0 .448-2.773 4.42 4.42 0 0 0 2.667-3.286 5.27 5.27 0 0 0-1.195-4.65 4.266 4.266 0 0 0 3.2-4.075 4.27 4.27 0 0 0-1.045-2.73 2.92 2.92 0 0 0 1.259-2.411"/>
  </g>
  <defs>
    <clipPath id="a">
      <path d="M0 0h64v64H0z"/>
    </clipPath>
  </defs>
</svg>
