<svg xmlns="http://www.w3.org/2000/svg" width="64" height="64" fill="currentColor" viewBox="0 0 64 64">
  <g clip-path="url(#a)">
    <path d="M50.73 31.253c.193-.469-4.415-2.88-6.527-1.728S39.38 32 37.93 32.62l.597-2.134a3.14 3.14 0 0 0 2.133-2.858c.235-1.664-.426-3.136-1.514-3.414l-.128-2.432a12 12 0 0 1 2.901-2.24c.981-.554 2.39-.832 3.52-1.365a8.28 8.28 0 0 0 3.968-5.27c-.341-.106-1.728 3.286-4.416 4.46-1.13.511-2.56.767-3.541 1.322a12 12 0 0 0-2.518 1.877v-1.088a3.39 3.39 0 0 0 1.792-2.752 4.4 4.4 0 0 0 0-1.408 37 37 0 0 1 1.046-4.842 33.7 33.7 0 0 0 1.792-5.59 12.8 12.8 0 0 0-2.752 5.27 24.6 24.6 0 0 0-.854 3.541 1.58 1.58 0 0 0-.874-.448 1.77 1.77 0 0 0-1.11.277c-.17-2.858-.704-9.962-1.237-9.962s-.107 5.653.128 8.938c-1.515-2.88-4.267-7.914-4.672-7.722s4.075 8.789 4.65 10.005c-.21.422-.347.876-.405 1.344a3.33 3.33 0 0 0 1.046 3.2l.32 5.227a3 3 0 0 0-.363.341c-.981-1.621-3.093-5.227-4.907-8.939-1.408-2.837-7.808-5.29-7.936-4.821s5.888 2.539 7.147 5.397c.235.534.47 1.067.725 1.6a16 16 0 0 0-3.242-1.493 13.25 13.25 0 0 0-6.144-.704c-.128.32 3.136.704 5.845 1.664 1.56.57 3.043 1.329 4.416 2.261a74 74 0 0 0 3.456 5.974c-.18.4-.303.823-.363 1.258a3.73 3.73 0 0 0 .662 2.88l-1.13 3.926a2.92 2.92 0 0 0-1.75 1.493l-2.603-1.259c0-1.045-1.045-2.474-2.837-3.477a6.2 6.2 0 0 0-3.542-.875 23.3 23.3 0 0 0-2.282-5.845 7.5 7.5 0 0 0-3.755-3.37c-.277.127 1.6 1.493 2.837 3.711q.64 1.156 1.11 2.39a6 6 0 0 0-.64-.619 9.43 9.43 0 0 0-4.97-2.133c-.32.149 2.431 1.088 4.266 2.773a9.4 9.4 0 0 1 2.304 3.605l-.107.128a1.52 1.52 0 0 0 0 1.323 30.5 30.5 0 0 1-4.459.256c-3.584 0-7.38-.832-7.424-.49a18.1 18.1 0 0 0 7.403 1.514c1.72.053 3.443-.062 5.141-.341a7 7 0 0 0 2.134 1.685q.595.32 1.237.533l-3.776 3.072h-.555a13.2 13.2 0 0 0-3.22-.874 9 9 0 0 0-4.737.384c0 .362 2.432.298 4.65.64q.998.154 1.963.448a1 1 0 0 0-.213.192c-.962.33-1.946.593-2.944.789-2.517.405-5.376.427-5.29.79a11.2 11.2 0 0 0 5.375.213 15.7 15.7 0 0 0 3.094-.747 3.2 3.2 0 0 0 1.792.299c1.173-.128 2.133-.726 2.005-1.302s-.299-.512-.683-.661l3.52-2.944a3.8 3.8 0 0 0 1.558 0l3.136 1.557a3.41 3.41 0 0 0 .426 2.646l-1.77 3.776a3.33 3.33 0 0 0-2.795 1.877 3.54 3.54 0 0 0-.363 3.136l-.917 1.259h-5.952a2.86 2.86 0 0 0-1.6-.683h-.405a12.6 12.6 0 0 0-3.264-.64 8.53 8.53 0 0 0-4.694.939c0 .341 2.432 0 4.672.17l1.451.171v.15a.7.7 0 0 0 0 .34q-1.01.286-1.963.726c-1.7.66-3.215 1.721-4.416 3.093.128.342 2.56-1.173 4.907-2.133a18 18 0 0 1 2.453-.853q.448.17.918.256a2.88 2.88 0 0 0 1.834-.278l5.1.15-1.004 1.344c-1.045-.214-2.304.704-2.922 2.133a4.4 4.4 0 0 0-.32 1.515q-.646.291-1.238.682c-1.856 1.067-3.562 2.923-3.413 3.2s2.133-1.322 3.968-2.496l.81-.448a1.7 1.7 0 0 0 .918 1.174c.155.032.315.032.47 0q.003.075 0 .149c-.32 1.344-1.089 2.752-.726 2.795.363.042 1.301-1.174 1.728-2.454q.03-.309 0-.618a3.97 3.97 0 0 0 1.664-1.963c.364-.795.446-1.69.235-2.539l3.072-4.266h.384a20.9 20.9 0 0 1 1.301 5.76c0 1.792.15 3.157.384 3.178.235.022.405-1.408.512-3.264a16.7 16.7 0 0 0-1.301-6.08 4.03 4.03 0 0 0 1.344-1.45 3.41 3.41 0 0 0 .362-3.136l.94-1.984 1.898 2.56a2.24 2.24 0 0 0 .896 1.749 6.68 6.68 0 0 0 1.514 3.67 9.96 9.96 0 0 0 5.483 3.029c.299-.214-3.008-1.664-4.779-3.776a6.4 6.4 0 0 1-1.173-2.134c.597.256 1.13.299 1.387 0a.7.7 0 0 0 .128-.362c.576.277 1.216.597 1.856.981 2.133 1.323 4.394 3.157 4.565 2.837.17-.32-1.835-2.304-3.947-3.669a17.3 17.3 0 0 0-3.029-1.472 3.7 3.7 0 0 0-.49-.512 3.1 3.1 0 0 0-1.58-.768l-2.282-3.008.49-1.067a3.18 3.18 0 0 0 2.433-2.474 3.41 3.41 0 0 0-.427-3.264l.128-.47a44 44 0 0 0 4.267-1.962c1.203.227 2.357.66 3.413 1.28 1.899 1.088 3.819 3.008 3.904 2.688a10.2 10.2 0 0 0-3.584-3.606 9.6 9.6 0 0 0-2.453-1.066c.384-.235.768-.448 1.152-.704 2.133-1.366 6.208 1.301 6.464.682"/>
  </g>
  <defs>
    <clipPath id="a">
      <path d="M0 0h64v64H0z"/>
    </clipPath>
  </defs>
</svg>
