<svg xmlns="http://www.w3.org/2000/svg" width="64" height="64" fill="currentColor" viewBox="0 0 64 64">
  <g clip-path="url(#a)">
    <path d="M23.19 25.237a10.4 10.4 0 0 0-.129-4.586s3.414 0 4.416-4.758c1.216-5.504-2.133-9.92-8.064-11.221C8.875 2.411 3.755 15.531 2.603 20.8s-.854 19.563 8.533 21.61c5.504 1.174 10.539 0 11.776-5.802a6.53 6.53 0 0 0-2.901-7.467 7.06 7.06 0 0 0 3.178-3.904M40.81 25.237a10.4 10.4 0 0 1 .129-4.586s-3.414 0-4.416-4.758c-1.216-5.504 2.133-9.92 8.064-11.221C55.125 2.411 60.245 15.531 61.397 20.8s.854 19.563-8.533 21.61c-5.504 1.174-10.539 0-11.776-5.802a6.53 6.53 0 0 1 2.901-7.467 7.06 7.06 0 0 1-3.178-3.904"/>
    <path d="M27.563 31.147v28.245h2.133V31.147a8.53 8.53 0 0 0-4.267-7.296 7 7 0 0 1-.17 1.301 3.6 3.6 0 0 1-.32.917 6.4 6.4 0 0 1 2.624 5.078M36.459 31.147v28.245h-2.134V31.147a8.53 8.53 0 0 1 4.267-7.296c0 .426 0 .853.17 1.301q.128.47.32.917a6.4 6.4 0 0 0-2.623 5.078"/>
  </g>
  <defs>
    <clipPath id="a">
      <path d="M0 0h64v64H0z"/>
    </clipPath>
  </defs>
</svg>
