<svg xmlns="http://www.w3.org/2000/svg" width="64" height="64" fill="currentColor" viewBox="0 0 64 64">
  <g clip-path="url(#a)">
    <path d="M35.627 55h-6.486V37.958c-.02-1.39-.779-2.697-1.98-3.434-7.727-1.727-13.118-7.225-13.118-13.376 0-1.96.548-3.877 1.537-5.562a4.2 4.2 0 0 0-1.137-2.422L10 8.55 14.506 4l4.59 4.613a4.17 4.17 0 0 0 2.76 1.138c3.242-1.685 6.906-2.528 10.55-2.486 3.621-.063 7.243.822 10.486 2.507 1.137.063 2.253-.316 3.074-1.095l4.507-4.53L55 8.72l-4.57 4.508a4.12 4.12 0 0 0-1.137 2.507c.843 1.664 1.348 3.518 1.411 5.371 0 5.54-4.148 10.428-10.844 12.787-.716.253-1.453.464-2.17.632a4.16 4.16 0 0 0-2.042 3.518V55zm-4.38-2.107h2.274V38.021a6.34 6.34 0 0 1 3.264-5.414l.274-.105a17 17 0 0 0 2.085-.59c5.833-2.043 9.455-6.172 9.455-10.764a10.8 10.8 0 0 0-1.306-4.677l-.126-.253v-.274a6.3 6.3 0 0 1 1.747-4.213l3.096-3.054-1.537-1.538-3.054 3.054c-1.368 1.264-3.158 1.854-4.97 1.643l-.378-.126c-2.97-1.58-6.36-2.444-9.687-2.36-3.474 0-6.801.759-9.792 2.36l-.21.105h-.253c-1.684.085-3.327-.568-4.527-1.748l-3.096-3.118-1.558 1.58 3.011 3.139a6.27 6.27 0 0 1 1.748 4.108v.316l-.168.274a8.9 8.9 0 0 0-1.39 4.76c0 5.204 4.78 9.86 11.645 11.355l.294.105c1.896 1.096 3.117 3.118 3.16 5.309v14.998"/>
    <path d="M41.418 35.367c-.906-.316-1.6-.4-2.19-.295-.127.042-.253.084-.38.105a4.16 4.16 0 0 0-2.042 3.518v14.24s.085.064.127.085c1.726.61 6.148-2.402 7.896-7.373 1.748-4.972.61-8.848-3.39-10.28zM27.92 38.61c-.021-1.39-.78-2.696-1.98-3.433-.147-.042-.315-.084-.463-.126-.547-.042-1.179 0-2 .316-4.001 1.432-5.096 5.308-3.37 10.28 1.706 4.887 6.107 7.857 7.792 7.373V38.61z"/>
  </g>
  <defs>
    <clipPath id="a">
      <path d="M10 4h45v51H10z"/>
    </clipPath>
  </defs>
</svg>
