<svg xmlns="http://www.w3.org/2000/svg" width="64" height="64" fill="currentColor" viewBox="0 0 64 64">
  <g clip-path="url(#a)">
    <path d="M22.87 12.096c0 1.813 1.109 7.445 4.8 9.43 2.88 1.557 9.62 1.407 12.18 2.133a8.66 8.66 0 0 1 4.758 5.418c.17.982 1.6-.704 3.712-.384s3.584 4.139 2.965 6.827a7.19 7.19 0 0 1-7.296 4.843 8.1 8.1 0 0 1-5.013-2.987c-1.813-3.243-.576-4.992-2.71-4.032s.726 3.99 1.6 6.4a3.5 3.5 0 0 1-.789 4.096 3.82 3.82 0 0 1-4.885.47 14 14 0 0 0-3.072-1.451c-2.73-.854-5.93-.832-6.144-3.328-.213-2.496 2.005-2.688 2.005-3.051s-5.482-.896-5.162-3.69c.256-2.134 4.266-2.475 4.266-2.475s3.819 0 3.819-.448-8.533-1.451-9.088 2.602c-.384 2.944 3.456 3.264 3.67 6.4s-2.134 4.438-.363 5.248c2.346 1.046 4.565-.832 6.933-.597s4.672 2.56 6.059 2.517c1.984 0 3.008-3.946 6.784-4.522a5.4 5.4 0 0 1 5.802 2.752 6.23 6.23 0 0 1-2.624 7.488 14.36 14.36 0 0 1-14.677.96c.64 3.05-1.6 3.69-2.496 3.733-2.581.17-3.755-3.328-5.568-4.267a13.3 13.3 0 0 0-7.744-1.344c-2.304.512-3.072-2.816-.47-3.434 3.032-.444 6.126.016 8.897 1.322a9.4 9.4 0 0 1 3.264 2.475 3.07 3.07 0 0 1 .618-1.92 8.4 8.4 0 0 1 1.259-1.408l3.115-.81 3.84 2.9 2.133.171s-3.264 0 .192-.106a8.53 8.53 0 0 0 5.888-2.134 1.32 1.32 0 0 0 .213-1.728c-.32-.384-.746-.533-1.6 0-1.344.811-3.093 3.84-4.65 3.904-.982 0-8.235-2.368-9.387-2.133-2.304.555-4.693 1.515-7.168.363a5.74 5.74 0 0 1-3.67-4.438c-.127-1.77 1.131-3.285 1.046-4.266-.085-.982-4.48-3.328-3.392-8.299 1.088-4.97 7.893-6.4 10.667-6.101 2.773.298 6.784 1.386 6.89 4.266.107 2.88-2.602 3.99-2.688 4.267-.085.277.811.768 1.11 2.133a5.3 5.3 0 0 1-.64 2.966 9 9 0 0 1 1.813.405c.79.32 1.472.96 1.557.917a25.2 25.2 0 0 1-2.005-5.653 4.97 4.97 0 0 1 3.541-5.312c2.731-.81 5.888.576 6.4 2.133.512 1.558.448 3.008 1.878 4.267a2.475 2.475 0 0 0 3.541-.363c.448-.661.725-2.837-.15-2.389a4.82 4.82 0 0 1-3.413.405c-2.432-.64-2.837-4.65-4.266-5.397-1.43-.747-6.742-.47-7.894-.725-1.152-.256-7.936-2.006-10.154-6.742a17.6 17.6 0 0 1-2.134-8.405c-.277-1.75 4.075-1.664 4.096.128"/>
  </g>
  <defs>
    <clipPath id="a">
      <path d="M0 0h64v64H0z"/>
    </clipPath>
  </defs>
</svg>
