<svg xmlns="http://www.w3.org/2000/svg" width="64" height="64" fill="currentColor" viewBox="0 0 64 64">
  <g clip-path="url(#a)">
    <path d="M35.072 27.52a10.24 10.24 0 0 0 1.067-4.48s3.349.79 5.525-3.435c2.581-5.013.555-10.133-4.885-12.928-9.6-4.928-17.942 6.4-20.438 11.222s-5.888 18.666 2.71 23.104c4.992 2.56 10.176 2.666 12.8-2.56a6.57 6.57 0 0 0-.875-7.979 6.9 6.9 0 0 0 4.096-2.944"/>
    <path d="M37.397 26.112a7.8 7.8 0 0 1-.597 2.005 5.91 5.91 0 0 1 2.496 4.715v26.453h2.133V32.832a7.83 7.83 0 0 0-4.032-6.72"/>
  </g>
  <defs>
    <clipPath id="a">
      <path d="M0 0h64v64H0z"/>
    </clipPath>
  </defs>
</svg>
