<?xml version="1.0" encoding="utf-8"?>
<!-- Generator: Adobe Illustrator 25.2.0, SVG Export Plug-In . SVG Version: 6.00 Build 0)  -->
<svg version="1.1" id="Layer_1" xmlns="http://www.w3.org/2000/svg" xmlns:xlink="http://www.w3.org/1999/xlink" x="0px" y="0px"
	 viewBox="0 0 361.3 24" style="enable-background:new 0 0 361.3 24;" xml:space="preserve">
<style type="text/css">
	.st0{fill:none;}
	.st1{fill:#8289A3;transform:translate(-100px, 0)}
	.st2{fill:#FFFFFF;}
</style>
<rect x="-0.8" y="0.2" class="st0" width="352" height="23.9"/>
<path class="st1" d="M118.3,8h-1.9c-0.1-0.7-0.4-1.4-0.8-2c-0.4-0.6-0.8-1.2-1.4-1.6c-0.6-0.5-1.2-0.8-1.9-1.1
	c-0.7-0.2-1.5-0.3-2.3-0.3c-1.3,0-2.5,0.3-3.6,1c-1.1,0.7-2.1,1.8-2.6,3.1c-0.7,1.5-1,3.2-1,4.9c-0.1,1.7,0.3,3.4,1,4.9
	c0.6,1.2,1.5,2.3,2.6,3c1.1,0.7,2.4,1,3.6,1c0.8,0,1.6-0.1,2.3-0.4c0.7-0.2,1.3-0.6,1.9-1.1c0.6-0.4,1-1,1.4-1.6
	c0.4-0.6,0.6-1.3,0.8-2h1.9c-0.2,1-0.5,1.9-1,2.7c-0.5,0.8-1.1,1.6-1.8,2.2c-0.7,0.6-1.6,1.1-2.5,1.5c-1,0.4-2,0.5-3.1,0.5
	c-1.7,0-3.3-0.4-4.7-1.3c-1.4-0.9-2.5-2.2-3.2-3.7c-0.8-1.8-1.2-3.8-1.2-5.7c0-2,0.4-3.9,1.2-5.7c0.7-1.5,1.8-2.8,3.2-3.8
	c1.4-0.9,3-1.4,4.7-1.3c1.1,0,2.1,0.2,3.1,0.5c0.9,0.3,1.8,0.8,2.5,1.5C117,4.4,117.9,6.1,118.3,8z"/>
<path class="st1" d="M138.6,8h-1.9c-0.1-0.7-0.4-1.4-0.8-2c-0.4-0.6-0.9-1.2-1.4-1.6c-0.6-0.5-1.2-0.8-1.9-1.1
	C131.8,3.1,131,3,130.2,3c-1.3,0-2.5,0.3-3.6,1c-1.1,0.8-2,1.8-2.6,3.1c-0.7,1.5-1,3.2-1,4.9c0,1.7,0.3,3.4,1,4.9
	c0.6,1.2,1.5,2.3,2.6,3c1.1,0.7,2.4,1,3.6,1c0.8,0,1.6-0.1,2.3-0.4c2.1-0.7,3.7-2.5,4.1-4.7h1.9c-0.2,1-0.5,1.9-1,2.7
	c-0.5,0.8-1.1,1.6-1.8,2.2c-0.7,0.6-1.6,1.1-2.5,1.5c-1,0.4-2,0.5-3.1,0.5c-1.7,0-3.3-0.4-4.7-1.3c-1.4-0.9-2.5-2.2-3.2-3.8
	c-0.8-1.8-1.2-3.7-1.1-5.7c0-2,0.4-3.9,1.2-5.7c0.7-1.5,1.8-2.8,3.2-3.8c1.4-0.9,3.1-1.4,4.7-1.3c1.1,0,2.1,0.2,3.1,0.5
	c0.9,0.3,1.8,0.8,2.5,1.5c0.7,0.6,1.3,1.4,1.8,2.2C138.1,6.2,138.4,7.1,138.6,8z"/>
<path class="st1" d="M142.4,22.5V1.5h12.2v1.7h-10.3v7.9h9.3v1.7h-9.3v9.7H142.4z"/>
<path class="st1" d="M166.1,22.5V1.5h12.2v1.7H168v7.9h9.7v1.7H168v8h10.5v1.7L166.1,22.5z"/>
<path class="st1" d="M182.9,1.5l5.8,9.2h0.1l5.8-9.2h2.3L190.2,12l6.8,10.5h-2.3l-5.8-9h-0.1l-5.8,9h-2.3l6.9-10.5l-6.9-10.6H182.9z
	"/>
<path class="st1" d="M199.9,22.5V1.5h6.8c1.3,0,2.6,0.3,3.8,0.9c1,0.5,1.8,1.4,2.3,2.3c0.5,1,0.8,2.2,0.8,3.4c0,1.2-0.2,2.3-0.8,3.3
	c-0.5,1-1.3,1.8-2.3,2.3c-1.1,0.6-2.4,0.9-3.7,0.9h-5.4v-1.8h5.3c1,0,1.9-0.2,2.8-0.6c0.7-0.4,1.3-1,1.6-1.7
	c0.4-0.8,0.5-1.6,0.5-2.4c0-0.9-0.2-1.7-0.5-2.5c-0.4-0.7-0.9-1.3-1.6-1.7c-0.9-0.4-1.8-0.7-2.8-0.6h-4.8v19.3H199.9z"/>
<path class="st1" d="M217.4,22.5V1.5h1.9v19.4h10.1v1.7L217.4,22.5z"/>
<path class="st1" d="M249.4,12c0,2-0.4,3.9-1.2,5.7c-0.7,1.5-1.8,2.8-3.2,3.8c-2.9,1.8-6.5,1.8-9.4,0c-1.4-0.9-2.5-2.2-3.2-3.8
	c-0.8-1.8-1.2-3.8-1.2-5.7c0-2,0.4-3.9,1.2-5.7c0.7-1.5,1.8-2.8,3.2-3.8c2.9-1.8,6.5-1.8,9.4,0c1.4,0.9,2.5,2.2,3.2,3.8
	C249.1,8.1,249.5,10,249.4,12z M247.5,12c0-1.7-0.3-3.3-0.9-4.9c-0.6-1.3-1.5-2.3-2.6-3.1c-2.3-1.4-5.2-1.4-7.4,0
	c-1.1,0.8-2,1.8-2.6,3.1c-0.7,1.5-1,3.2-1,4.9c0,1.7,0.3,3.3,0.9,4.9c0.6,1.3,1.5,2.3,2.6,3.1c1.1,0.7,2.4,1.1,3.8,1.1
	c1.3,0,2.6-0.3,3.7-1c1.1-0.8,2-1.8,2.6-3.1C247.3,15.4,247.6,13.7,247.5,12L247.5,12z"/>
<path class="st1" d="M253.3,22.5V1.5h6.8c1.3,0,2.6,0.2,3.8,0.8c1,0.5,1.8,1.3,2.3,2.2c0.5,1,0.8,2.1,0.8,3.3c0,1.1-0.2,2.3-0.8,3.3
	c-0.5,0.9-1.3,1.7-2.3,2.2c-1.2,0.6-2.4,0.8-3.7,0.8h-5.8v-1.8h5.8c0.9,0,1.9-0.2,2.7-0.6c0.7-0.3,1.3-0.9,1.6-1.6
	c0.4-0.7,0.6-1.6,0.5-2.4c0-0.8-0.2-1.7-0.5-2.4c-0.4-0.7-0.9-1.3-1.6-1.6c-0.9-0.4-1.8-0.6-2.8-0.6h-4.8v19.4H253.3z M262.6,13
	l5.2,9.5h-2.2l-5.1-9.5L262.6,13z"/>
<path class="st1" d="M270.9,22.5h-2l7.7-21.1h2.1l7.7,21.1h-2L277.7,4h-0.1L270.9,22.5z M272.4,14.5h10.5v1.7h-10.5V14.5z"/>
<path class="st1" d="M285.5,3.2V1.5h15.3v1.7h-6.7v19.4h-1.9V3.2H285.5z"/>
<path class="st1" d="M306.3,1.5v21.1h-1.9V1.5H306.3z"/>
<path class="st1" d="M328.5,12c0,2-0.4,3.9-1.2,5.7c-0.7,1.5-1.8,2.8-3.2,3.8c-2.9,1.8-6.5,1.8-9.5,0c-1.4-0.9-2.5-2.2-3.2-3.8
	c-0.8-1.8-1.2-3.8-1.2-5.7c0-2,0.4-3.9,1.2-5.7c0.7-1.5,1.8-2.8,3.2-3.8c2.9-1.8,6.5-1.8,9.4,0c1.4,0.9,2.5,2.2,3.2,3.8
	C328.1,8.1,328.5,10,328.5,12z M326.6,12c0-1.7-0.3-3.3-0.9-4.9c-0.6-1.3-1.5-2.3-2.6-3.1c-2.3-1.4-5.2-1.4-7.4,0
	c-1.2,0.8-2.1,1.8-2.6,3.1c-0.7,1.5-1,3.2-1,4.9c0,1.7,0.3,3.3,1,4.9c0.5,1.3,1.4,2.3,2.6,3.1c1.1,0.7,2.4,1.1,3.8,1.1
	c1.3,0,2.6-0.3,3.7-1c1.1-0.8,2-1.8,2.6-3.1C326.3,15.4,326.6,13.7,326.6,12z"/>
<path class="st1" d="M348.8,1.5v21.1h-1.9L334.5,4.9h-0.2v17.7h-1.9V1.5h1.9l12.5,17.7h0.2V1.5H348.8z"/>
</svg>
