<svg xmlns="http://www.w3.org/2000/svg" width="64" height="64" fill="currentColor" viewBox="0 0 64 64">
  <path d="M15.296 29.504c2.368 2.133 4.395 2.133 6.635 3.136a6.7 6.7 0 0 0-5.419 1.984c-1.387 1.195-3.84.939-4.565 2.283.106-3.179-3.819-5.91-5.248-8.022C-3.136 14.528 10.283 5.1 25.77 7.872a49.3 49.3 0 0 1 16.896 6.805l-2.134 5.952a34.5 34.5 0 0 0-14.442-6.912C15.424 11.18 3.733 19.371 15.296 29.504"/>
  <path d="M21.205 32.32c.128 0 10.155 2.133 10.155 2.133 4.97 1.92 2.133 3.456-3.67 2.667-4.522-.597-8.298-2.133-8.213-1.152s7.403 4.864 6.57 6.4c-.831 1.536-8.98-4.437-9.706-3.05a8.9 8.9 0 0 0-1.045 2.133c-1.237 2.752-2.432 6.058-3.499 4.266a5.65 5.65 0 0 1 0-5.226 5.8 5.8 0 0 0 0-3.478l1.046-3.114zM56.683 9.003c-6.955-1.195-7.808 5.632-11.456 5.93a7.08 7.08 0 0 1-4.694-1.514l-1.706 5.098s2.133 1.92 2.133 3.286c0 1.365-1.13 6.122.79 9.706s4.607 6.144 5.29 8.811.128 3.584 1.515 9.707a21.84 21.84 0 0 0 4.16 9.194h3.904z"/>
</svg>
