<svg xmlns="http://www.w3.org/2000/svg" width="64" height="64" fill="currentColor" viewBox="0 0 64 64">
  <g clip-path="url(#a)">
    <path d="M34.773 7.403C18.176 4.267 4.267 12.395 4.267 23.659c0 10.325 5.269 12.8 10.666 12.8 0-6.934 11.926-7.915 17.472-5.824-5.162-.662-15.488-.47-15.488 6.976 0 .469 0 5.269 6.635 5.973 2.694.318 5.422.217 8.085-.299a3.18 3.18 0 0 0 2.134 3.328q.836.282 1.706.427a36 36 0 0 0 6.4 7.275 2.6 2.6 0 0 0 1.558-.64c.358-.293.588-.714.64-1.174a9.4 9.4 0 0 1-2.454-5.013h1.664s9.259-.555 8.534-5.312c0-.128 0-.256-.107-.384a9.4 9.4 0 0 0 3.776 0c2.859-.853 4.053-4.01 4.267-8.15.32-7.146-8.406-23.103-24.982-26.24"/>
  </g>
  <defs>
    <clipPath id="a">
      <path d="M0 0h64v64H0z"/>
    </clipPath>
  </defs>
</svg>
