<svg xmlns="http://www.w3.org/2000/svg" width="64" height="64" fill="currentColor" viewBox="0 0 64 64">
  <path stroke="currentColor" stroke-miterlimit="10" d="m35.712 33.557-13.013-12.8-.555 2.582s10.24 5.952 13.163 11.946c.96-2.858.405-1.728.405-1.728Z"/>
  <path d="M7.381 6.4c7.531-1.28 8.534 6.08 12.374 6.4a7.6 7.6 0 0 0 5.034-1.579l1.878 5.483s-2.24 2.133-2.39 3.563c-.149 1.429 1.216 6.57-.853 10.453s-4.97 6.635-5.696 9.493c-.725 2.859-.15 3.883-1.643 10.454a23.7 23.7 0 0 1-4.48 9.941H7.34zM46.204 42.39c2.373-5.107 1.24-10.668-2.533-12.42-3.771-1.753-8.753.967-11.126 6.074s-1.239 10.669 2.533 12.421c3.772 1.753 8.753-.967 11.126-6.075"/>
  <path d="M47.488 22.55a97 97 0 0 0-4.672 4.266 5.78 5.78 0 0 1 4.715 1.75 9.75 9.75 0 0 1 2.453 3.22 45.8 45.8 0 0 0 6.123-8.32C64.64 10.945 52.992 2.71 39.467 5.12a47.5 47.5 0 0 0-15.382 6.4l1.963 5.632a32.8 32.8 0 0 1 13.099-6.933c9.344-2.155 18.453 3.477 8.341 12.33"/>
</svg>
