<svg xmlns="http://www.w3.org/2000/svg" width="64" height="64" fill="currentColor" viewBox="0 0 64 64">
  <g clip-path="url(#a)">
    <path d="M47.948 26.004s-.02 0-.04-.02c-.041-.445-.668-7.214-2.144-10.427a.3.3 0 0 0-.12-.161c-1.274-1.071-2.224-.627-2.75-.384-.08.04-.202.08-.162.1-.808-.242-1.516-.04-1.92.546-.404.546-.425 1.374-.121 2.082-.728.464-.87 1.07-.89 1.414-.02.445.142.89.425 1.233a1.46 1.46 0 0 0-.465 1.07c0 .526.283 1.193 1.091 1.577-.121.141-.222.343-.182.566.02.181.122.323.283.464.04.324.182.728.526 1.071q.879.819 2.79.546c.384.586 1.233 1.455 1.98 1.697.162.06.324.081.486.081.505 0 .97-.263 1.334-.788a.454.454 0 0 0-.121-.626zM35.677 28.166c-.06.142-.1.546-.121.667-.02.06-.768 1.799.06 7.72.041.242-.14.444-.363.484h-.06c-.203 0-.405-.161-.425-.364-.87-6.324 0-7.92.02-8.183 0-.081.06-.202.121-.324 0 0 .02-.04 0-.08s-2.224-.081-2.224-.081c-.505 0-1.111 0-1.88-.04-4.71-.263-6.509 1.838-7.014 2.626-.243.121-.243.505-.243 1.394 0 1.556.162 5.578 1.698 9.194 1.84 4.325 5.074 6.628 9.36 6.628 4.831 0 10.815-2.788 11.866-16.024 0-.222.02-.404.04-.505.061-.121.081-.262.02-.384 0-.04-.04-.08-.08-.121-.728-1.354-4.286-3.01-7.358-3.01-1.254 0-2.325.201-3.093.363 0 0-.283-.02-.324.04"/>
    <path d="M34.222 51c-13.908 0-14.737-20.368-14.737-20.57 0-.263.202-.506.465-.506.303 0 .506.202.506.485 0 .202.788 19.621 13.766 19.621s14.372-13.154 15.06-19.48l.04-.302c.02-.263.243-.485.546-.425.263.02.465.263.425.546l-.04.303c-.668 6.082-2.204 20.348-16.031 20.348zM50.252 28.005a.78.78 0 0 1-.748-.647C47.806 15.355 45.3 9.516 41.843 9.516s-3.68 1.475-3.8 3.334c-.122 1.495-.263 3.556-3.093 3.556-2.467 0-2.71-1.9-2.891-3.294-.263-1.94-.485-3.596-4.508-3.596-2.85 0-5.236 5.86-7.035 17.418a.73.73 0 0 1-.87.626.76.76 0 0 1-.626-.869C21.042 13.76 23.67 8 27.571 8c5.357 0 5.741 2.95 6.004 4.91.222 1.597.364 1.98 1.395 1.98 1.354 0 1.455-.525 1.577-2.141.141-1.9.343-4.749 5.316-4.749C46.33 8 49.14 13.9 51 27.136c.06.424-.222.808-.647.849h-.1z"/>
  </g>
  <defs>
    <clipPath id="a">
      <path d="M19 8h32v43H19z"/>
    </clipPath>
  </defs>
</svg>
