<svg xmlns="http://www.w3.org/2000/svg" width="64" height="64" fill="currentColor" viewBox="0 0 64 64">
  <g clip-path="url(#a)">
    <path d="M26.368 27.307a10.3 10.3 0 0 1-1.067-4.48s-3.328.768-5.504-3.435C17.195 14.379 19.2 9.259 24.683 6.4c9.578-4.864 17.984 6.4 20.416 11.285 2.432 4.886 5.888 18.582-2.71 23.083-4.992 2.56-10.176 2.688-12.8-2.539a6.57 6.57 0 0 1 .875-7.978 7.02 7.02 0 0 1-4.096-2.944"/>
    <path d="M24.043 25.899c.118.692.326 1.366.618 2.005a5.8 5.8 0 0 0-2.517 4.693v26.475h-2.133V32.597a7.85 7.85 0 0 1 4.032-6.698"/>
  </g>
  <defs>
    <clipPath id="a">
      <path d="M0 0h64v64H0z"/>
    </clipPath>
  </defs>
</svg>
