<svg xmlns="http://www.w3.org/2000/svg" width="64" height="64" fill="currentColor" viewBox="0 0 64 64">
  <g clip-path="url(#a)">
    <path d="M23.02 19.19s-1.528.574-1.664 2.11c-.135 1.535.425 4.793.883 5.84s.526 1.366.255 1.738c-.272.371-.764 1.232-.917 2.599s-.05 2.261.594 3.358c.645 1.097 2.58 2.752 3.31 3.224s.9.726 1.663.86c.764.136 5.007.862 5.007 1.047 0 .186-.119 2.313 0 2.481.12.169.39-.05.221.692-.17.743-1.052 1.469-2.105 1.587s-.848 1.215-2.393 1.806c-1.544.59-3.513 1.958-5.177 1.266-1.663-.693-1.612-1.368-1.799-1.942s.187-2.193-.61-3.274c-.799-1.08-1.902-2.447-1.783-3.105s.136-.98.832-.473c.695.507 3.632 1.367 3.632 1.367s-.9 2.97.916 3.764 3.853.101 4.362-.354c.51-.456 1.426-1.182 1.172-1.739-.255-.557-.17-1.08-2.054-1.502s-4.09-.186-6.076-1.13c-1.986-.946-4.057-2.043-4.515-3.241-.459-1.198-.611-3.089-.934-4.169-.322-1.08-1.561-3.122-2.291-3.359-.73-.236-2.92-.32-3.429-1.232s-1.375-3.19-1.035-5.586.73-4.625 2.24-5.367c1.51-.743 4.345-.456 6.535-.068s3.004.928 3.632 1.384 1.562 1.063 1.528 1.418M42.98 19.19s1.528.574 1.664 2.11c.135 1.535-.425 4.793-.883 5.84s-.526 1.366-.255 1.738c.272.37.764 1.232.917 2.599s.05 2.261-.594 3.358c-.645 1.097-2.58 2.752-3.31 3.224s-.9.726-1.663.86c-.764.136-5.007.862-5.007 1.047 0 .186.119 2.313 0 2.481-.12.169-.39-.05-.221.692.17.743 1.052 1.469 2.105 1.587s.848 1.215 2.393 1.806c1.544.59 3.513 1.958 5.177 1.266 1.663-.693 1.612-1.368 1.799-1.942s-.187-2.194.61-3.274c.799-1.08 1.902-2.447 1.783-3.105s-.136-.98-.832-.473c-.695.507-3.632 1.367-3.632 1.367s.9 2.97-.916 3.764-3.853.101-4.363-.354c-.509-.456-1.425-1.182-1.17-1.739.254-.557.17-1.08 2.053-1.502s4.09-.186 6.077-1.13c1.985-.946 4.056-2.043 4.514-3.241s.611-3.089.934-4.169c.322-1.08 1.561-3.122 2.291-3.359.73-.236 2.92-.32 3.429-1.232s1.358-3.206 1.018-5.62-.73-4.624-2.257-5.35-4.345-.473-6.535-.068-3.004.929-3.632 1.384c-.628.456-1.562 1.064-1.528 1.418z"/>
    <path d="M24.225 19.325s-.492-.118-.798.608c-.305.725-1.086 2.177-.95 3.881.135 1.705.865 3.021.712 4.017-.152.996-.322 1.502-.509 1.62-.186.119-.492.49.374.692.865.203 1.375-.168 1.748-.388s1.239-.084 1.867.98c.628 1.063 1.714 3.73 2.648 3.982.933.254 2.342.17 2.46.844.12.675-.406.928-.474.962s-1.087.338-.968.71c.119.37 1.07.556 1.273 1.147.204.59.577.911.832 1.215s-.051 2.38.187 2.464c.237.085.865.203.967-.169.102-.371-.255-2.194 0-2.261s.713-.507.866-.912c.152-.405.509-.86 1.188-1.114.679-.253-.034-.692-.781-1.114-.747-.421-.662-1.097-.187-1.282s2.105-.102 2.767-1.03 1.595-3.325 2.257-3.983 1.358-.827 1.952-.253 1.715.203 1.732 0-1.12-2.143-.985-2.852.883-2.97.832-3.916-.374-3.274-.866-3.696-1.205.658-2.054 1.266c-.848.607-1.408 1.215-3.19.675s-3.022-.321-4.447-.372-4.108.507-4.736.473-2.173-.827-2.682-1.3c-.509-.472-.61-.725-1.018-.894z"/>
  </g>
  <defs>
    <clipPath id="a">
      <path d="M9 16h48v32H9z"/>
    </clipPath>
  </defs>
</svg>
