<svg xmlns="http://www.w3.org/2000/svg" width="64" height="64" fill="currentColor" viewBox="0 0 64 64">
  <g clip-path="url(#a)">
    <path d="M52.992 17.237c-4.437 0-7.85.939-11.712.832s-5.632-2.922-9.28-2.346c-3.648-.576-5.504 2.133-9.28 2.346s-7.275-.832-11.712-.832c-5.803 0-8.533 4.267-8.533 6.635s.789 6.4 7.21 7.957l.939.171a2.73 2.73 0 0 1-1.088-2.133 2.65 2.65 0 0 1 .768-1.835 3.8 3.8 0 0 1-3.2-3.499c-.15-2.624 2.795-3.541 4.053-3.562 3.195.063 6.37.522 9.45 1.365 2.476.96 7.788 10.987 7.852 15.36s.213 13.29.213 13.29h6.656s.128-8.917.213-13.29c.086-4.373 5.376-14.4 7.85-15.36a38.7 38.7 0 0 1 9.452-1.365c1.258 0 4.266.938 4.053 3.562a3.82 3.82 0 0 1-3.072 3.499c.49.486.774 1.144.79 1.835A2.77 2.77 0 0 1 53.503 32l.917-.17c6.4-1.537 7.21-5.718 7.21-7.958s-2.836-6.635-8.64-6.635"/>
    <path d="M21.333 27.925q-.892.27-1.813.406c-.683 0-.896-.192-.896-.192a4.76 4.76 0 0 0-3.69-1.472c-2.347 0-4.267 1.429-4.267 3.2 0 1.77 1.92 3.2 4.266 3.2a3.925 3.925 0 0 0 4.267-2.944s0-.427.619-.747a8.2 8.2 0 0 1 1.685-.512zM42.901 27.925q.902.274 1.835.406c.683 0 .875-.192.875-.192a4.67 4.67 0 0 1 3.605-1.494c2.347 0 4.267 1.43 4.267 3.2s-1.92 3.2-4.267 3.2a3.97 3.97 0 0 1-4.267-2.944s0-.426-.64-.746a7.8 7.8 0 0 0-1.664-.512z"/>
  </g>
  <defs>
    <clipPath id="a">
      <path d="M0 0h64v64H0z"/>
    </clipPath>
  </defs>
</svg>
