<svg xmlns="http://www.w3.org/2000/svg" width="64" height="64" fill="currentColor" viewBox="0 0 64 64">
  <path d="M52.33 4.885a18.77 18.77 0 0 0-9.983 14.528 22.6 22.6 0 0 1-4.01 10.667 23 23 0 0 1-1.345 1.515l-1.003 1.002-.98.96a4.74 4.74 0 0 1-3.18 1.131 18.8 18.8 0 0 0-9.13-2.261 18.94 18.94 0 0 0-9.067 2.133 4.65 4.65 0 0 1-3.584-1.28l-3.392-3.413-1.92 1.92-.832.853 3.413 3.435a4.65 4.65 0 0 1 1.216 3.157 10.4 10.4 0 0 0-1.3 4.608c0 4.65 3.711 8.64 9.044 10.432q.968.319 1.963.533a6.53 6.53 0 0 1 2.41 5.014h3.905A6.55 6.55 0 0 1 26.9 54.89c6.4-1.387 11.072-5.803 11.072-11.008a9.1 9.1 0 0 0-1.365-4.736 5 5 0 0 1 .47-1.835 39 39 0 0 0 4.266-4.267 22.6 22.6 0 0 0 4.63-9.792 25.6 25.6 0 0 1 3.093-9.28 11.73 11.73 0 0 1 5.418-5.44 2.133 2.133 0 0 0-2.154-3.648"/>
</svg>
