<svg width="64" height="64" viewBox="0 0 64 64" fill="none" xmlns="http://www.w3.org/2000/svg">
<g clip-path="url(#clip0_1795_276)">
<path d="M58.6667 26.8587C58.6691 26.4198 58.5747 25.9859 58.3904 25.5877C58.206 25.1894 57.9362 24.8368 57.6 24.5547C57.8945 24.2825 58.1297 23.9526 58.2912 23.5856C58.4527 23.2186 58.5369 22.8223 58.5387 22.4213C58.5321 21.9206 58.3997 21.4296 58.1536 20.9934C57.9076 20.5573 57.5558 20.19 57.1307 19.9253C57.5586 19.6637 57.9125 19.297 58.1589 18.8602C58.4053 18.4234 58.5361 17.9308 58.5387 17.4293C58.5348 17.0307 58.4517 16.6368 58.2942 16.2706C58.1367 15.9043 57.908 15.5731 57.6214 15.296L57.8987 14.6347C58.2115 13.8648 58.3649 13.0394 58.3495 12.2085C58.3342 11.3776 58.1504 10.5585 57.8094 9.8007C57.4684 9.04287 56.9772 8.36211 56.3655 7.79958C55.7538 7.23706 55.0344 6.80447 54.2507 6.52799C53.1192 6.10208 51.8949 5.98431 50.7029 6.18672C49.511 6.38912 48.3942 6.90444 47.4667 7.67999C46.9111 7.30516 46.2594 7.09783 45.5894 7.08265C44.8005 6.986 44.0054 7.20548 43.3779 7.69314C42.7503 8.18081 42.3412 8.89702 42.24 9.68532V10.1547C41.9393 9.71849 41.5381 9.36099 41.0703 9.11224C40.6025 8.8635 40.0818 8.7308 39.552 8.72532C38.9183 8.69135 38.2887 8.84533 37.7421 9.16794C37.1956 9.49055 36.7565 9.9674 36.48 10.5387C36.1721 10.1212 35.7703 9.78196 35.3071 9.54848C34.8438 9.31501 34.3321 9.1938 33.8134 9.19465C33.1923 9.15731 32.5737 9.30062 32.0324 9.60727C31.491 9.91392 31.05 10.3708 30.7627 10.9227C30.7517 10.5369 30.6644 10.1572 30.5059 9.80541C30.3474 9.45359 30.1208 9.13665 29.8392 8.87287C29.5575 8.60908 29.2264 8.40368 28.865 8.26851C28.5036 8.13334 28.119 8.07108 27.7334 8.08532C27.3879 8.08323 27.0437 8.12626 26.7094 8.21332C26.5002 7.34714 26.001 6.57857 25.2948 6.03526C24.5885 5.49196 23.7176 5.20663 22.8267 5.22665C22.1407 5.18635 21.4548 5.30828 20.8247 5.58256C20.1946 5.85684 19.638 6.27575 19.2 6.80532L18.5387 6.01599C17.7342 5.16056 16.6641 4.60229 15.5022 4.43188C14.3403 4.26147 13.155 4.48894 12.1387 5.07732C11.4943 5.42917 10.9718 5.96834 10.6404 6.62352C10.309 7.27871 10.1843 8.01905 10.2827 8.74665C9.38459 8.73985 8.50724 9.01664 7.77561 9.53759C7.04399 10.0585 6.49542 10.7971 6.20804 11.648C6.08586 12.169 6.09812 12.7125 6.24365 13.2275C6.38919 13.7425 6.66323 14.212 7.04004 14.592C6.34475 15.0356 5.83621 15.7187 5.61071 16.512C5.38353 17.3089 5.45028 18.161 5.79879 18.9129C6.14731 19.6647 6.75439 20.2663 7.50937 20.608C6.96613 20.7012 6.47183 20.9795 6.11025 21.3955C5.74867 21.8115 5.54203 22.3397 5.52537 22.8907C5.4516 23.4818 5.59169 24.0798 5.92033 24.5767C6.24898 25.0736 6.7445 25.4365 7.31737 25.6C6.86002 25.8005 6.47 26.1284 6.19387 26.5445C5.91773 26.9606 5.76713 27.4473 5.76004 27.9467V28.5227C5.77682 29.1245 5.99678 29.703 6.38413 30.1639C6.77147 30.6248 7.30341 30.9411 7.89337 31.0613C7.12021 31.5437 6.48062 32.2126 6.03332 33.0065C5.58602 33.8005 5.34533 34.6941 5.33337 35.6053V36.8213C5.37252 38.3039 5.99486 39.7112 7.06528 40.7376C8.13571 41.7641 9.56782 42.327 11.0507 42.304V44.5867C11.0507 44.8922 11.1721 45.1852 11.3881 45.4012C11.6042 45.6173 11.8972 45.7387 12.2027 45.7387C12.5082 45.7387 12.8013 45.6173 13.0173 45.4012C13.2333 45.1852 13.3547 44.8922 13.3547 44.5867V42.304C14.8139 42.2881 16.2104 41.7087 17.2521 40.6868C18.2938 39.665 18.9001 38.2799 18.944 36.8213V35.6053C18.9311 34.6865 18.6857 33.7859 18.2305 32.9875C17.7754 32.1892 17.1255 31.5192 16.3414 31.04C16.9296 30.9163 17.4594 30.599 17.8462 30.1388C18.2329 29.6786 18.4542 29.1021 18.4747 28.5013V27.9253C18.481 27.508 18.3852 27.0954 18.1955 26.7236C18.0059 26.3518 17.7282 26.0319 17.3867 25.792C17.8626 25.3369 18.1516 24.7208 18.1974 24.064C18.2362 23.4453 18.0714 22.8308 17.728 22.3147C18.3564 21.8768 18.8157 21.2368 19.0294 20.5013C19.2178 19.8563 19.2154 19.1705 19.0223 18.5269C18.8292 17.8833 18.4537 17.3094 17.9414 16.8747C18.3819 16.7923 18.8066 16.6412 19.2 16.4267C19.5965 16.866 20.0801 17.2181 20.62 17.4605C21.1598 17.7029 21.7443 17.8303 22.336 17.8347C22.972 17.8553 23.605 17.7389 24.192 17.4933V17.9413C24.2414 18.6996 24.582 19.4094 25.1426 19.9223C25.7032 20.4352 26.4404 20.7114 27.2 20.6933C27.8242 20.7322 28.4463 20.5897 28.9913 20.2832C29.5364 19.9766 29.9811 19.5189 30.272 18.9653C30.3215 19.7407 30.6734 20.4656 31.2519 20.9842C31.8303 21.5029 32.5892 21.7738 33.3654 21.7387C34.0019 21.7736 34.6344 21.6177 35.1818 21.2908C35.7291 20.9639 36.1663 20.481 36.4374 19.904C36.7385 20.325 37.1354 20.6684 37.5953 20.9058C38.0553 21.1432 38.5651 21.2678 39.0827 21.2693C39.858 21.3485 40.6338 21.1236 41.2467 20.6421C41.8595 20.1606 42.2615 19.46 42.368 18.688V18.2827C42.6747 18.718 43.08 19.0744 43.551 19.3229C44.0219 19.5713 44.545 19.7047 45.0774 19.712C45.372 19.7094 45.6654 19.6736 45.952 19.6053C46.0721 19.7298 46.2085 19.8374 46.3574 19.9253C45.9362 20.1942 45.5876 20.5625 45.342 20.9977C45.0965 21.4329 44.9617 21.9218 44.9494 22.4213C44.9589 22.8636 45.0674 23.2982 45.2667 23.6932C45.466 24.0882 45.7512 24.4335 46.1014 24.704C45.8109 24.9793 45.5782 25.3097 45.417 25.676C45.2558 26.0424 45.1694 26.4372 45.1627 26.8373C45.1724 27.241 45.2645 27.6384 45.4332 28.0053C45.602 28.3721 45.8438 28.7006 46.144 28.9707C45.7486 29.3693 45.4357 29.8421 45.2234 30.362C45.0111 30.8818 44.9035 31.4385 44.9067 32C44.908 32.7552 45.1224 33.4946 45.5254 34.1333C44.6437 34.8245 44.0384 35.8082 43.8187 36.9067C43.8187 37.0347 43.8187 37.184 43.8187 37.312C43.6091 37.4538 43.4221 37.6264 43.264 37.824C42.9598 38.2352 42.7752 38.7225 42.7307 39.232C42.0729 39.4949 41.5084 39.948 41.1094 40.5333C40.5287 40.0382 39.8188 39.7189 39.0631 39.6131C38.3073 39.5073 37.537 39.6193 36.8427 39.936C36.2089 39.2973 35.4543 38.791 34.6229 38.4467C33.7915 38.1025 32.8999 37.927 32 37.9307H31.5734C30.7161 37.9137 29.8638 38.0658 29.0653 38.3783C28.2668 38.6907 27.5376 39.1575 26.9195 39.7518C26.3014 40.3461 25.8065 41.0564 25.4629 41.842C25.1194 42.6277 24.934 43.4733 24.9174 44.3307V44.736C24.9182 45.5674 25.0889 46.3899 25.4191 47.153C25.7493 47.916 26.2319 48.6035 26.8374 49.1733C26.4789 49.5559 26.2738 50.0572 26.2614 50.5813C26.2556 51.0958 26.4359 51.5951 26.7691 51.9871C27.1023 52.3791 27.566 52.6375 28.0747 52.7147C28.0747 52.7147 28.0747 52.8427 28.0747 52.928C28.0815 53.3371 28.2058 53.7356 28.4327 54.076C28.6597 54.4164 28.9797 54.6844 29.3547 54.848V57.6C29.4098 58.1701 29.6751 58.6992 30.0991 59.0842C30.5231 59.4692 31.0753 59.6825 31.648 59.6825C32.2208 59.6825 32.773 59.4692 33.1969 59.0842C33.6209 58.6992 33.8863 58.1701 33.9414 57.6V54.5707C34.2398 54.3843 34.4875 54.1271 34.6624 53.8219C34.8374 53.5167 34.9341 53.173 34.944 52.8213C34.944 52.8213 34.944 52.8213 34.944 52.6933H35.4987C36.1605 52.6207 36.7781 52.326 37.2508 51.8572C37.7235 51.3883 38.0233 50.7731 38.1014 50.112C38.1014 49.3013 37.9947 49.2587 37.9947 49.2587C38.3145 49.6363 38.7187 49.9334 39.1745 50.1261C39.6303 50.3188 40.125 50.4017 40.6187 50.368C41.2217 50.3389 41.799 50.1153 42.2643 49.7308C42.7296 49.3462 43.0579 48.8213 43.2 48.2347C43.7546 48.8408 44.4723 49.2739 45.267 49.482C46.0617 49.6902 46.8996 49.6645 47.68 49.408C48.1581 49.2452 48.5957 48.982 48.9637 48.6361C49.3316 48.2903 49.6213 47.8697 49.8134 47.4027C50.3649 47.7789 51.0416 47.9248 51.6992 47.8092C52.3568 47.6937 52.9432 47.3258 53.3334 46.784C53.6126 46.3856 53.798 45.9291 53.8756 45.4487C53.9532 44.9684 53.921 44.4767 53.7814 44.0107C54.4653 43.73 55.0679 43.2822 55.5338 42.7082C55.9997 42.1342 56.3141 41.4524 56.448 40.7253C56.6315 39.9109 56.6189 39.0646 56.4112 38.256C56.2035 37.4474 55.8067 36.6998 55.2534 36.0747C56.1599 35.8407 56.9644 35.315 57.5426 34.5786C58.1209 33.8423 58.4409 32.9362 58.4534 32C58.4374 30.9951 58.0672 30.028 57.408 29.2693C57.7975 28.9996 58.1156 28.6392 58.3348 28.2193C58.5541 27.7994 58.668 27.3324 58.6667 26.8587Z" fill="white"/>
</g>
<defs>
<clipPath id="clip0_1795_276">
<rect width="64" height="64" fill="white"/>
</clipPath>
</defs>
</svg>
