<svg xmlns="http://www.w3.org/2000/svg" viewBox="0 0 30 30"><defs><style>.cls-1{fill:none;}</style></defs><g id="small_intestine" data-name="small intestine"><rect class="cls-1" y="0.02" width="30" height="30"/><path d="M23.41,18.45c-.26,1.92-2.92,2.2-2.92,2.2l-.43.05a3.28,3.28,0,0,1-2.29-.84,3.86,3.86,0,0,1-1.3.6c-1.45.49-4.32.18-5.08-1.56-.8,4.06,2.63,5.38,5.43,4.7-2.91,1.06-7-.09-5.84-5.39h0c.12-.68,1.5-1.85,1-2.9S9.07,14,8.22,13.9c2.37,2.86-1.4,5.48.75,5.67-2.77,0,1.28-2.31-1.15-5.27a.6.6,0,0,1-.09-.64c.24-.53.82-.38,1-.35a9.41,9.41,0,0,1,3.65,1.39c1.41,1-1.17,2.42-.55,3.81s3.51,1.83,4.68,1.33a5.44,5.44,0,0,0,2.44-3.12c1-3.83-1.35-4.41-2.85-4.93,1.81.45,4.72,1.22,3.44,5.07a8.43,8.43,0,0,1-.47,1.2h0c1.42.65,2.72-.86,3-2s.26-2.57-.83-3c-.37-.13.68-.25,1,.17,1.15,1.36-.24,6.22-3.42,5.17a10.87,10.87,0,0,1-.64.92,2.08,2.08,0,0,0,1.84.82,3.46,3.46,0,0,0,3.27-1.8A8.52,8.52,0,0,0,24.54,14c.06-3-2.76-2.13-3.27-2.49s.38-2.45-1.68-3.62-3,.24-3.86-.19-.93-2.41-.93-3.5c0-.7-1.87-.76-2.05,0a6.51,6.51,0,0,0,.67,4A3.82,3.82,0,0,0,15.76,9.9,3,3,0,0,0,18,9.64a4.24,4.24,0,0,1-2.5.68,3.64,3.64,0,0,1-2.55-1.69,1.29,1.29,0,0,0-1.86.1,1.22,1.22,0,0,0,.15,1.65c.21.13,4.4,2.28,4.93,4.26.44,1.65-1.36,2.79-1.36,2.79A2.49,2.49,0,0,0,15,13.58c-1.85-2.16-7.55-4.7-9.64-1.5a2.8,2.8,0,0,0,.49,3.45c.71.71-1,3.71-.29,5.06.94,1.83,3.37.61,3.84.85s-.75,4.93,5.33,4.12c4.36-.59,5.52-1.54,5.24-2.69s-4.52-.78-4.52-.78,5.6-1.25,5.05,1.35c1-.23,3.73-.48,4.08-2.21A2.65,2.65,0,0,0,23.41,18.45Z"/></g></svg>