<?xml version="1.0" encoding="UTF-8" standalone="no"?>
<!DOCTYPE svg PUBLIC "-//W3C//DTD SVG 1.1//EN"
 "http://www.w3.org/Graphics/SVG/1.1/DTD/svg11.dtd">
<!-- Generated by graphviz version 2.47.3 (20210619.1520)
 -->
<!-- Title: dependencies Pages: 1 -->
<svg width="232pt" height="247pt"
 viewBox="0.00 0.00 232.00 246.80" xmlns="http://www.w3.org/2000/svg" xmlns:xlink="http://www.w3.org/1999/xlink">
<g id="graph0" class="graph" transform="scale(1 1) rotate(0) translate(4 242.8)">
<title>dependencies</title>
<polygon fill="white" stroke="transparent" points="-4,4 -4,-242.8 228,-242.8 228,4 -4,4"/>
<text text-anchor="middle" x="112" y="-8.2" font-family="sans-serif" font-size="14.00">dependencies</text>
<g id="clust1" class="cluster">
<title>cluster_OntologySearchModule</title>
<polygon fill="none" stroke="black" stroke-dasharray="1,5" points="8,-32.8 8,-230.8 216,-230.8 216,-32.8 8,-32.8"/>
</g>
<g id="clust2" class="cluster">
<title>cluster_OntologySearchModule_declarations</title>
<polygon fill="none" stroke="black" points="18,-40.8 18,-92.8 206,-92.8 206,-40.8 18,-40.8"/>
</g>
<g id="clust5" class="cluster">
<title>cluster_OntologySearchModule_exports</title>
<polygon fill="none" stroke="black" points="16,-170.8 16,-222.8 208,-222.8 208,-170.8 16,-170.8"/>
</g>
<!-- OntologySearchComponent -->
<g id="node1" class="node">
<title>OntologySearchComponent</title>
<polygon fill="#ffffb3" stroke="black" points="198.31,-84.8 25.69,-84.8 25.69,-48.8 198.31,-48.8 198.31,-84.8"/>
<text text-anchor="middle" x="112" y="-62.6" font-family="Times,serif" font-size="14.00">OntologySearchComponent</text>
</g>
<!-- OntologySearchModule -->
<g id="node2" class="node">
<title>OntologySearchModule</title>
<polygon fill="#8dd3c7" stroke="black" points="187.03,-149.8 184.03,-153.8 163.03,-153.8 160.03,-149.8 36.97,-149.8 36.97,-113.8 187.03,-113.8 187.03,-149.8"/>
<text text-anchor="middle" x="112" y="-127.6" font-family="Times,serif" font-size="14.00">OntologySearchModule</text>
</g>
<!-- OntologySearchComponent&#45;&gt;OntologySearchModule -->
<g id="edge1" class="edge">
<title>OntologySearchComponent&#45;&gt;OntologySearchModule</title>
<path fill="none" stroke="black" d="M112,-84.91C112,-84.91 112,-103.79 112,-103.79"/>
<polygon fill="black" stroke="black" points="108.5,-103.79 112,-113.79 115.5,-103.79 108.5,-103.79"/>
</g>
<!-- OntologySearchComponent  -->
<g id="node3" class="node">
<title>OntologySearchComponent </title>
<polygon fill="#fb8072" stroke="black" points="199.81,-214.8 24.19,-214.8 24.19,-178.8 199.81,-178.8 199.81,-214.8"/>
<text text-anchor="middle" x="112" y="-192.6" font-family="Times,serif" font-size="14.00">OntologySearchComponent </text>
</g>
<!-- OntologySearchModule&#45;&gt;OntologySearchComponent  -->
<g id="edge2" class="edge">
<title>OntologySearchModule&#45;&gt;OntologySearchComponent </title>
<path fill="none" stroke="black" stroke-dasharray="5,2" d="M112,-149.91C112,-149.91 112,-168.79 112,-168.79"/>
<polygon fill="black" stroke="black" points="108.5,-168.79 112,-178.79 115.5,-168.79 108.5,-168.79"/>
</g>
</g>
</svg>
