<?xml version="1.0" encoding="UTF-8" standalone="no"?>
<!DOCTYPE svg PUBLIC "-//W3C//DTD SVG 1.1//EN"
 "http://www.w3.org/Graphics/SVG/1.1/DTD/svg11.dtd">
<!-- Generated by graphviz version 2.47.3 (20210619.1520)
 -->
<!-- Title: dependencies Pages: 1 -->
<svg width="202pt" height="247pt"
 viewBox="0.00 0.00 202.00 246.80" xmlns="http://www.w3.org/2000/svg" xmlns:xlink="http://www.w3.org/1999/xlink">
<g id="graph0" class="graph" transform="scale(1 1) rotate(0) translate(4 242.8)">
<title>dependencies</title>
<polygon fill="white" stroke="transparent" points="-4,4 -4,-242.8 198,-242.8 198,4 -4,4"/>
<text text-anchor="middle" x="97" y="-8.2" font-family="sans-serif" font-size="14.00">dependencies</text>
<g id="clust1" class="cluster">
<title>cluster_DualSliderModule</title>
<polygon fill="none" stroke="black" stroke-dasharray="1,5" points="8,-32.8 8,-230.8 186,-230.8 186,-32.8 8,-32.8"/>
</g>
<g id="clust2" class="cluster">
<title>cluster_DualSliderModule_declarations</title>
<polygon fill="none" stroke="black" points="18,-40.8 18,-92.8 176,-92.8 176,-40.8 18,-40.8"/>
</g>
<g id="clust5" class="cluster">
<title>cluster_DualSliderModule_exports</title>
<polygon fill="none" stroke="black" points="16,-170.8 16,-222.8 178,-222.8 178,-170.8 16,-170.8"/>
</g>
<!-- DualSliderComponent -->
<g id="node1" class="node">
<title>DualSliderComponent</title>
<polygon fill="#ffffb3" stroke="black" points="167.98,-84.8 26.02,-84.8 26.02,-48.8 167.98,-48.8 167.98,-84.8"/>
<text text-anchor="middle" x="97" y="-62.6" font-family="Times,serif" font-size="14.00">DualSliderComponent</text>
</g>
<!-- DualSliderModule -->
<g id="node2" class="node">
<title>DualSliderModule</title>
<polygon fill="#8dd3c7" stroke="black" points="157.2,-149.8 154.2,-153.8 133.2,-153.8 130.2,-149.8 36.8,-149.8 36.8,-113.8 157.2,-113.8 157.2,-149.8"/>
<text text-anchor="middle" x="97" y="-127.6" font-family="Times,serif" font-size="14.00">DualSliderModule</text>
</g>
<!-- DualSliderComponent&#45;&gt;DualSliderModule -->
<g id="edge1" class="edge">
<title>DualSliderComponent&#45;&gt;DualSliderModule</title>
<path fill="none" stroke="black" d="M97,-84.91C97,-84.91 97,-103.79 97,-103.79"/>
<polygon fill="black" stroke="black" points="93.5,-103.79 97,-113.79 100.5,-103.79 93.5,-103.79"/>
</g>
<!-- DualSliderComponent  -->
<g id="node3" class="node">
<title>DualSliderComponent </title>
<polygon fill="#fb8072" stroke="black" points="169.98,-214.8 24.02,-214.8 24.02,-178.8 169.98,-178.8 169.98,-214.8"/>
<text text-anchor="middle" x="97" y="-192.6" font-family="Times,serif" font-size="14.00">DualSliderComponent </text>
</g>
<!-- DualSliderModule&#45;&gt;DualSliderComponent  -->
<g id="edge2" class="edge">
<title>DualSliderModule&#45;&gt;DualSliderComponent </title>
<path fill="none" stroke="black" stroke-dasharray="5,2" d="M97,-149.91C97,-149.91 97,-168.79 97,-168.79"/>
<polygon fill="black" stroke="black" points="93.5,-168.79 97,-178.79 100.5,-168.79 93.5,-168.79"/>
</g>
</g>
</svg>
