<?xml version="1.0" encoding="UTF-8" standalone="no"?>
<!DOCTYPE svg PUBLIC "-//W3C//DTD SVG 1.1//EN"
 "http://www.w3.org/Graphics/SVG/1.1/DTD/svg11.dtd">
<!-- Generated by graphviz version 2.47.0 (20210316.0004)
 -->
<!-- Title: dependencies Pages: 1 -->
<svg width="556pt" height="284pt"
 viewBox="0.00 0.00 556.00 284.00" xmlns="http://www.w3.org/2000/svg" xmlns:xlink="http://www.w3.org/1999/xlink">
<g id="graph0" class="graph" transform="scale(1 1) rotate(0) translate(4 280)">
<title>dependencies</title>
<polygon fill="white" stroke="transparent" points="-4,4 -4,-280 552,-280 552,4 -4,4"/>
<text text-anchor="start" x="253.01" y="-42.4" font-family="Times-12" font-weight="bold" font-size="14.00">Legend</text>
<polygon fill="#ffffb3" stroke="transparent" points="40,-10 40,-30 60,-30 60,-10 40,-10"/>
<text text-anchor="start" x="63.63" y="-15.4" font-family="Times-12" font-size="14.00"> &#160;Declarations</text>
<polygon fill="#8dd3c7" stroke="transparent" points="153,-10 153,-30 173,-30 173,-10 153,-10"/>
<text text-anchor="start" x="176.73" y="-15.4" font-family="Times-12" font-size="14.00"> &#160;Module</text>
<polygon fill="#80b1d3" stroke="transparent" points="239,-10 239,-30 259,-30 259,-10 239,-10"/>
<text text-anchor="start" x="262.78" y="-15.4" font-family="Times-12" font-size="14.00"> &#160;Bootstrap</text>
<polygon fill="#fdb462" stroke="transparent" points="336,-10 336,-30 356,-30 356,-10 336,-10"/>
<text text-anchor="start" x="359.67" y="-15.4" font-family="Times-12" font-size="14.00"> &#160;Providers</text>
<polygon fill="#fb8072" stroke="transparent" points="432,-10 432,-30 452,-30 452,-10 432,-10"/>
<text text-anchor="start" x="455.73" y="-15.4" font-family="Times-12" font-size="14.00"> &#160;Exports</text>
<g id="clust1" class="cluster">
<title>cluster_OntologyExplorationModule</title>
<polygon fill="none" stroke="black" stroke-dasharray="1,5" points="8,-70 8,-268 540,-268 540,-70 8,-70"/>
</g>
<g id="clust3" class="cluster">
<title>cluster_OntologyExplorationModule_imports</title>
<polygon fill="none" stroke="black" points="22,-78 22,-130 527,-130 527,-78 22,-78"/>
</g>
<g id="clust4" class="cluster">
<title>cluster_OntologyExplorationModule_exports</title>
<polygon fill="none" stroke="black" points="16,-208 16,-260 532,-260 532,-208 16,-208"/>
</g>
<!-- OntologySearchModule -->
<g id="node1" class="node">
<title>OntologySearchModule</title>
<polygon fill="#8dd3c7" stroke="black" points="519.03,-122 516.03,-126 495.03,-126 492.03,-122 368.97,-122 368.97,-86 519.03,-86 519.03,-122"/>
<text text-anchor="middle" x="444" y="-99.8" font-family="Times,serif" font-size="14.00">OntologySearchModule</text>
</g>
<!-- OntologyExplorationModule -->
<g id="node4" class="node">
<title>OntologyExplorationModule</title>
<polygon fill="#8dd3c7" stroke="black" points="357.04,-187 354.04,-191 333.04,-191 330.04,-187 178.96,-187 178.96,-151 357.04,-151 357.04,-187"/>
<text text-anchor="middle" x="268" y="-164.8" font-family="Times,serif" font-size="14.00">OntologyExplorationModule</text>
</g>
<!-- OntologySearchModule&#45;&gt;OntologyExplorationModule -->
<g id="edge1" class="edge">
<title>OntologySearchModule&#45;&gt;OntologyExplorationModule</title>
<path fill="none" stroke="black" d="M368.67,-104C359.77,-104 353.77,-104 353.77,-104 353.77,-104 353.77,-140.89 353.77,-140.89"/>
<polygon fill="black" stroke="black" points="350.27,-140.89 353.77,-150.89 357.27,-140.89 350.27,-140.89"/>
</g>
<!-- OntologySelectionModule -->
<g id="node2" class="node">
<title>OntologySelectionModule</title>
<polygon fill="#8dd3c7" stroke="black" points="350.04,-122 347.04,-126 326.04,-126 323.04,-122 185.96,-122 185.96,-86 350.04,-86 350.04,-122"/>
<text text-anchor="middle" x="268" y="-99.8" font-family="Times,serif" font-size="14.00">OntologySelectionModule</text>
</g>
<!-- OntologySelectionModule&#45;&gt;OntologyExplorationModule -->
<g id="edge2" class="edge">
<title>OntologySelectionModule&#45;&gt;OntologyExplorationModule</title>
<path fill="none" stroke="black" d="M268,-122.11C268,-122.11 268,-140.99 268,-140.99"/>
<polygon fill="black" stroke="black" points="264.5,-140.99 268,-150.99 271.5,-140.99 264.5,-140.99"/>
</g>
<!-- OntologyTreeModule -->
<g id="node3" class="node">
<title>OntologyTreeModule</title>
<polygon fill="#8dd3c7" stroke="black" points="168.08,-122 165.08,-126 144.08,-126 141.08,-122 29.92,-122 29.92,-86 168.08,-86 168.08,-122"/>
<text text-anchor="middle" x="99" y="-99.8" font-family="Times,serif" font-size="14.00">OntologyTreeModule</text>
</g>
<!-- OntologyTreeModule&#45;&gt;OntologyExplorationModule -->
<g id="edge3" class="edge">
<title>OntologyTreeModule&#45;&gt;OntologyExplorationModule</title>
<path fill="none" stroke="black" d="M168.11,-104C176.53,-104 182.23,-104 182.23,-104 182.23,-104 182.23,-140.89 182.23,-140.89"/>
<polygon fill="black" stroke="black" points="178.73,-140.89 182.23,-150.89 185.73,-140.89 178.73,-140.89"/>
</g>
<!-- OntologySearchModule  -->
<g id="node5" class="node">
<title>OntologySearchModule </title>
<polygon fill="#fb8072" stroke="black" points="524.02,-252 369.98,-252 369.98,-216 524.02,-216 524.02,-252"/>
<text text-anchor="middle" x="447" y="-229.8" font-family="Times,serif" font-size="14.00">OntologySearchModule </text>
</g>
<!-- OntologyExplorationModule&#45;&gt;OntologySearchModule  -->
<g id="edge4" class="edge">
<title>OntologyExplorationModule&#45;&gt;OntologySearchModule </title>
<path fill="none" stroke="black" stroke-dasharray="5,2" d="M357.09,-169C400.98,-169 444.62,-169 444.62,-169 444.62,-169 444.62,-205.89 444.62,-205.89"/>
<polygon fill="black" stroke="black" points="441.13,-205.89 444.62,-215.89 448.13,-205.89 441.13,-205.89"/>
</g>
<!-- OntologySelectionModule  -->
<g id="node6" class="node">
<title>OntologySelectionModule </title>
<polygon fill="#fb8072" stroke="black" points="352.04,-252 183.96,-252 183.96,-216 352.04,-216 352.04,-252"/>
<text text-anchor="middle" x="268" y="-229.8" font-family="Times,serif" font-size="14.00">OntologySelectionModule </text>
</g>
<!-- OntologyExplorationModule&#45;&gt;OntologySelectionModule  -->
<g id="edge5" class="edge">
<title>OntologyExplorationModule&#45;&gt;OntologySelectionModule </title>
<path fill="none" stroke="black" stroke-dasharray="5,2" d="M268,-187.11C268,-187.11 268,-205.99 268,-205.99"/>
<polygon fill="black" stroke="black" points="264.5,-205.99 268,-215.99 271.5,-205.99 264.5,-205.99"/>
</g>
<!-- OntologyTreeModule  -->
<g id="node7" class="node">
<title>OntologyTreeModule </title>
<polygon fill="#fb8072" stroke="black" points="165.58,-252 24.42,-252 24.42,-216 165.58,-216 165.58,-252"/>
<text text-anchor="middle" x="95" y="-229.8" font-family="Times,serif" font-size="14.00">OntologyTreeModule </text>
</g>
<!-- OntologyExplorationModule&#45;&gt;OntologyTreeModule  -->
<g id="edge6" class="edge">
<title>OntologyExplorationModule&#45;&gt;OntologyTreeModule </title>
<path fill="none" stroke="black" stroke-dasharray="5,2" d="M178.95,-169C137.79,-169 97.88,-169 97.88,-169 97.88,-169 97.88,-205.89 97.88,-205.89"/>
<polygon fill="black" stroke="black" points="94.38,-205.89 97.88,-215.89 101.38,-205.89 94.38,-205.89"/>
</g>
</g>
</svg>
