<?xml version="1.0" encoding="UTF-8" standalone="no"?>
<!DOCTYPE svg PUBLIC "-//W3C//DTD SVG 1.1//EN"
 "http://www.w3.org/Graphics/SVG/1.1/DTD/svg11.dtd">
<!-- Generated by graphviz version 2.47.3 (20210619.1520)
 -->
<!-- Title: dependencies Pages: 1 -->
<svg width="556pt" height="247pt"
 viewBox="0.00 0.00 556.00 246.80" xmlns="http://www.w3.org/2000/svg" xmlns:xlink="http://www.w3.org/1999/xlink">
<g id="graph0" class="graph" transform="scale(1 1) rotate(0) translate(4 242.8)">
<title>dependencies</title>
<polygon fill="white" stroke="transparent" points="-4,4 -4,-242.8 552,-242.8 552,4 -4,4"/>
<text text-anchor="middle" x="274" y="-8.2" font-family="sans-serif" font-size="14.00">dependencies</text>
<g id="clust1" class="cluster">
<title>cluster_OntologyExplorationModule</title>
<polygon fill="none" stroke="black" stroke-dasharray="1,5" points="8,-32.8 8,-230.8 540,-230.8 540,-32.8 8,-32.8"/>
</g>
<g id="clust4" class="cluster">
<title>cluster_OntologyExplorationModule_exports</title>
<polygon fill="none" stroke="black" points="16,-170.8 16,-222.8 532,-222.8 532,-170.8 16,-170.8"/>
</g>
<g id="clust3" class="cluster">
<title>cluster_OntologyExplorationModule_imports</title>
<polygon fill="none" stroke="black" points="22,-40.8 22,-92.8 527,-92.8 527,-40.8 22,-40.8"/>
</g>
<!-- OntologySearchModule -->
<g id="node1" class="node">
<title>OntologySearchModule</title>
<polygon fill="#8dd3c7" stroke="black" points="519.03,-84.8 516.03,-88.8 495.03,-88.8 492.03,-84.8 368.97,-84.8 368.97,-48.8 519.03,-48.8 519.03,-84.8"/>
<text text-anchor="middle" x="444" y="-62.6" font-family="Times,serif" font-size="14.00">OntologySearchModule</text>
</g>
<!-- OntologyExplorationModule -->
<g id="node4" class="node">
<title>OntologyExplorationModule</title>
<polygon fill="#8dd3c7" stroke="black" points="357.04,-149.8 354.04,-153.8 333.04,-153.8 330.04,-149.8 178.96,-149.8 178.96,-113.8 357.04,-113.8 357.04,-149.8"/>
<text text-anchor="middle" x="268" y="-127.6" font-family="Times,serif" font-size="14.00">OntologyExplorationModule</text>
</g>
<!-- OntologySearchModule&#45;&gt;OntologyExplorationModule -->
<g id="edge1" class="edge">
<title>OntologySearchModule&#45;&gt;OntologyExplorationModule</title>
<path fill="none" stroke="black" d="M368.67,-66.8C359.77,-66.8 353.77,-66.8 353.77,-66.8 353.77,-66.8 353.77,-103.69 353.77,-103.69"/>
<polygon fill="black" stroke="black" points="350.27,-103.69 353.77,-113.69 357.27,-103.69 350.27,-103.69"/>
</g>
<!-- OntologySelectionModule -->
<g id="node2" class="node">
<title>OntologySelectionModule</title>
<polygon fill="#8dd3c7" stroke="black" points="350.04,-84.8 347.04,-88.8 326.04,-88.8 323.04,-84.8 185.96,-84.8 185.96,-48.8 350.04,-48.8 350.04,-84.8"/>
<text text-anchor="middle" x="268" y="-62.6" font-family="Times,serif" font-size="14.00">OntologySelectionModule</text>
</g>
<!-- OntologySelectionModule&#45;&gt;OntologyExplorationModule -->
<g id="edge2" class="edge">
<title>OntologySelectionModule&#45;&gt;OntologyExplorationModule</title>
<path fill="none" stroke="black" d="M268,-84.91C268,-84.91 268,-103.79 268,-103.79"/>
<polygon fill="black" stroke="black" points="264.5,-103.79 268,-113.79 271.5,-103.79 264.5,-103.79"/>
</g>
<!-- OntologyTreeModule -->
<g id="node3" class="node">
<title>OntologyTreeModule</title>
<polygon fill="#8dd3c7" stroke="black" points="168.08,-84.8 165.08,-88.8 144.08,-88.8 141.08,-84.8 29.92,-84.8 29.92,-48.8 168.08,-48.8 168.08,-84.8"/>
<text text-anchor="middle" x="99" y="-62.6" font-family="Times,serif" font-size="14.00">OntologyTreeModule</text>
</g>
<!-- OntologyTreeModule&#45;&gt;OntologyExplorationModule -->
<g id="edge3" class="edge">
<title>OntologyTreeModule&#45;&gt;OntologyExplorationModule</title>
<path fill="none" stroke="black" d="M168.11,-66.8C176.53,-66.8 182.23,-66.8 182.23,-66.8 182.23,-66.8 182.23,-103.69 182.23,-103.69"/>
<polygon fill="black" stroke="black" points="178.73,-103.69 182.23,-113.69 185.73,-103.69 178.73,-103.69"/>
</g>
<!-- OntologySearchModule  -->
<g id="node5" class="node">
<title>OntologySearchModule </title>
<polygon fill="#fb8072" stroke="black" points="524.02,-214.8 369.98,-214.8 369.98,-178.8 524.02,-178.8 524.02,-214.8"/>
<text text-anchor="middle" x="447" y="-192.6" font-family="Times,serif" font-size="14.00">OntologySearchModule </text>
</g>
<!-- OntologyExplorationModule&#45;&gt;OntologySearchModule  -->
<g id="edge4" class="edge">
<title>OntologyExplorationModule&#45;&gt;OntologySearchModule </title>
<path fill="none" stroke="black" stroke-dasharray="5,2" d="M357.09,-131.8C400.98,-131.8 444.62,-131.8 444.62,-131.8 444.62,-131.8 444.62,-168.69 444.62,-168.69"/>
<polygon fill="black" stroke="black" points="441.13,-168.69 444.62,-178.69 448.13,-168.69 441.13,-168.69"/>
</g>
<!-- OntologySelectionModule  -->
<g id="node6" class="node">
<title>OntologySelectionModule </title>
<polygon fill="#fb8072" stroke="black" points="352.04,-214.8 183.96,-214.8 183.96,-178.8 352.04,-178.8 352.04,-214.8"/>
<text text-anchor="middle" x="268" y="-192.6" font-family="Times,serif" font-size="14.00">OntologySelectionModule </text>
</g>
<!-- OntologyExplorationModule&#45;&gt;OntologySelectionModule  -->
<g id="edge5" class="edge">
<title>OntologyExplorationModule&#45;&gt;OntologySelectionModule </title>
<path fill="none" stroke="black" stroke-dasharray="5,2" d="M268,-149.91C268,-149.91 268,-168.79 268,-168.79"/>
<polygon fill="black" stroke="black" points="264.5,-168.79 268,-178.79 271.5,-168.79 264.5,-168.79"/>
</g>
<!-- OntologyTreeModule  -->
<g id="node7" class="node">
<title>OntologyTreeModule </title>
<polygon fill="#fb8072" stroke="black" points="165.58,-214.8 24.42,-214.8 24.42,-178.8 165.58,-178.8 165.58,-214.8"/>
<text text-anchor="middle" x="95" y="-192.6" font-family="Times,serif" font-size="14.00">OntologyTreeModule </text>
</g>
<!-- OntologyExplorationModule&#45;&gt;OntologyTreeModule  -->
<g id="edge6" class="edge">
<title>OntologyExplorationModule&#45;&gt;OntologyTreeModule </title>
<path fill="none" stroke="black" stroke-dasharray="5,2" d="M178.95,-131.8C137.79,-131.8 97.88,-131.8 97.88,-131.8 97.88,-131.8 97.88,-168.69 97.88,-168.69"/>
<polygon fill="black" stroke="black" points="94.38,-168.69 97.88,-178.69 101.38,-168.69 94.38,-168.69"/>
</g>
</g>
</svg>
