<svg xmlns="http://www.w3.org/2000/svg" viewBox="0 0 30 30"><defs><style>.cls-1{fill:none;}</style></defs><g id="kidney"><path d="M10.87,11.83a4.88,4.88,0,0,0-.06-2.15s1.6,0,2.07-2.23c.57-2.58-1-4.65-3.78-5.26C4.16,1.13,1.76,7.28,1.22,9.75s-.4,9.17,4,10.13c2.58.55,4.94,0,5.52-2.72a3.06,3.06,0,0,0-1.36-3.5A3.31,3.31,0,0,0,10.87,11.83Z"/><path d="M19.13,11.83a4.88,4.88,0,0,1,.06-2.15s-1.6,0-2.07-2.23c-.57-2.58,1-4.65,3.78-5.26,4.94-1.06,7.34,5.09,7.88,7.56s.4,9.17-4,10.13c-2.58.55-4.94,0-5.52-2.72a3.06,3.06,0,0,1,1.36-3.5A3.31,3.31,0,0,1,19.13,11.83Z"/><path d="M12.92,14.6V27.84h1V14.6a4,4,0,0,0-2-3.42,3.3,3.3,0,0,1-.08.61,1.69,1.69,0,0,1-.15.43A3,3,0,0,1,12.92,14.6Z"/><path d="M17.09,14.6V27.84h-1V14.6a4,4,0,0,1,2-3.42c0,.2,0,.4.08.61a3.12,3.12,0,0,0,.15.43A3,3,0,0,0,17.09,14.6Z"/></g></svg>