<svg xmlns="http://www.w3.org/2000/svg" viewBox="0 0 30 30"><defs><style>.cls-1{fill:none;}</style></defs><g id="heart"><path d="M23.49,15.83s-1-4.15-3.63-5.29c-.77-.25-3,.4-1.65,3.69-.33-.39-1.57-2.81-.53-4.37A4,4,0,0,1,20.76,8.3a1.4,1.4,0,0,0,1.36-1.78C21.9,5,19.91,5.21,19.91,5.21s-5.15-.1-6.38,3.3c0-4.13,5.28-4.15,5.28-4.15,0-1.28-4.43-2.07-7.26.12-3.81,2.94-3.78,8-.73,11.84a6.79,6.79,0,0,1-3-5.25c-.5.64-2,3-1.56,7.3.63,6.5,14.44,11.7,16.71,8.41S23.49,15.83,23.49,15.83Z"/><path d="M8.7,5.74c-.34-.67-3-.62-3,.15v5.64A7,7,0,0,1,7.62,9.26,7,7,0,0,1,8.7,5.74Z"/></g></svg>