<svg xmlns="http://www.w3.org/2000/svg" viewBox="0 0 30 30"><defs><style>.cls-1{fill:none;}</style></defs><g id="vasculature2_copy" data-name="vasculature2 copy"><ellipse cx="22.46" cy="27.51" rx="1.5" ry="1" transform="translate(-12.87 23.94) rotate(-45)"/><path d="M28.37,20.1a1,1,0,0,0-1.4.17,6.57,6.57,0,0,1-1.39,1.24,1.52,1.52,0,0,1-.61.18h0a6.44,6.44,0,0,0,.52-.76,13.53,13.53,0,0,0,1.26-7.52,1,1,0,0,0-2,.27,11.83,11.83,0,0,1-.85,5.94,8.49,8.49,0,0,1-1-1.59,9.53,9.53,0,0,1-.26-2.85,1,1,0,0,0-1-1,1,1,0,0,0-1,.95,11.22,11.22,0,0,0,.4,3.66,12,12,0,0,0,1.58,2.53c-.52.51-1.1,1-1.62,1.43a6.93,6.93,0,0,0-.21-.81,19.1,19.1,0,0,0-.36-2.67,8.42,8.42,0,0,0-1.73-3.12,10.15,10.15,0,0,1-1.25-1.93,8,8,0,0,0,2.91-1.75A13.62,13.62,0,0,0,22.7,8a1,1,0,0,0-1.91-.6A11.89,11.89,0,0,1,19,11a5.17,5.17,0,0,1-1.72,1.09A40,40,0,0,1,19.41,4.2a1.5,1.5,0,1,0-2.8-1.07c-.11.3-.57,1.53-1.06,3.11a13.64,13.64,0,0,0-1.26-1.63,8.36,8.36,0,0,0-3.62-2.1,1,1,0,0,0-.5,1.94A6.26,6.26,0,0,1,12.8,5.94l.42.5a8.3,8.3,0,0,1-2.34.47,8.57,8.57,0,0,1-3-1.09,1,1,0,0,0-1.37.36,1,1,0,0,0,.36,1.36,9.65,9.65,0,0,0,4,1.37h0a11.15,11.15,0,0,0,3.39-.73l.06,0a8.38,8.38,0,0,1,.41.91,16.5,16.5,0,0,0-.56,4.1,27.38,27.38,0,0,0-4.08-1.56,18.12,18.12,0,0,0-6.55-.67,1,1,0,0,0,.25,2,15.9,15.9,0,0,1,5.75.61c.35.1.68.2,1,.31a10.38,10.38,0,0,0-4.82,1.43,1,1,0,0,0,1.12,1.65,9.74,9.74,0,0,1,6-1.05,5.93,5.93,0,0,1,3.73,2.36,5.3,5.3,0,0,1,1,1.67,16.54,16.54,0,0,1,.29,2.36,8.58,8.58,0,0,0,.69,3.31A9.18,9.18,0,0,0,20.7,28a2.19,2.19,0,0,1,.7-1.56,2.33,2.33,0,0,1,1.28-.69,10.54,10.54,0,0,1-1-1c.36-.27.85-.65,1.38-1.11a9.18,9.18,0,0,0,1.23.09,4.55,4.55,0,0,0,2.43-.57,8.71,8.71,0,0,0,1.87-1.68A1,1,0,0,0,28.37,20.1Z"/></g></svg>