<svg xmlns="http://www.w3.org/2000/svg" viewBox="0 0 30 30"><defs><style>.cls-1{fill:none}.cls-2-uterus{fill:none;stroke:none}</style></defs><g id="uterus"><path class="cls-2-uterus" d="M15.31,6.55C13.3,6.55,5,7,2.14,7.83l0,1.52A18,18,0,0,1,7,8.55c1.61.17,4.58.64,4.33,3.81a7.27,7.27,0,0,0,1.15,4.43c.7,1.06,1.69,1.45,2,2.07s.1,3.4-.47,4c-.39.39-.38,2.82-.36,3.51h3.21c0-.69,0-3.12-.4-3.51-.57-.57-.77-3.35-.46-4s1.3-1,2-2.07a7.41,7.41,0,0,0,1.15-4.43c-.26-3.17,2.72-3.64,4.33-3.81a14.2,14.2,0,0,1,4.38.75l0-1.52C25.06,6.94,17.33,6.55,15.31,6.55Z"/><path d="M23.46,8.55c-1.61.17-4.59.64-4.33,3.81A7.41,7.41,0,0,1,18,16.79c-.7,1.06-1.69,1.45-2,2.07s-.11,3.4.46,4,.34,3.51.34,3.51H17.9a26.62,26.62,0,0,0,.17-3.81c.05-3.51,4.31-11.54,6.3-12.3a6.22,6.22,0,0,1,3.45-.48l0-.5h0A14.41,14.41,0,0,0,23.46,8.55Z"/><path d="M22.68,5.8c-3-.41-4.52-2.34-7.44-1.87-2.92-.47-4.45,1.4-7.44,1.87a21.37,21.37,0,0,1-5.74.43l.08,1.69C4.8,7,13.25,6.55,15.31,6.55S25.24,7,27.86,7.89l.08-1.56A26.19,26.19,0,0,1,22.68,5.8Z"/><path d="M6.11,10.23c2,.76,6.24,8.79,6.3,12.3a24.13,24.13,0,0,0,.17,3.81h1.08s-.14-3,.33-3.51.78-3.35.47-4-1.3-1-2-2.07a7.27,7.27,0,0,1-1.15-4.43C11.56,9.19,8.59,8.72,7,8.55a18,18,0,0,0-4.82.72l0,.33A8.48,8.48,0,0,1,6.11,10.23Z"/></g></svg>