<svg xmlns="http://www.w3.org/2000/svg" viewBox="0 0 30 30"><defs><style>.cls-1{fill:none;}</style></defs><g id="knee"><path d="M21.73,9.11C21,8,16.51,5.84,11.46,4c-4-1.42-4.76-1.92-9.54-1.95v5s9.8,1.59,10.89,1.83,2.62-.45,3.65.18,1.32,1.21.9,3.16-1.71,2.85-2.74,2.59c-1.9-.46-1.56-3.06-2.2-3.29-1.33-.47-10.5-2-10.5-2v7.79c6.23-1.52,9-.79,9-.79s-2.33,5-2.52,7.91A11.41,11.41,0,0,0,8.64,28h4.41s1.31-6.8,1.15-8.41-1.88-3.81-1.76-4.41.88.77,2.86.77c1.55,0,2.12-1.38,2.7-1.11s-.66,2.75-.87,4.23S15.75,28,15.75,28H19a62.82,62.82,0,0,0,1.85-10.46C21.09,15.84,23,10.94,21.73,9.11Zm-2.2,4.24c-.76.09-.45-1.52-.6-2.41s-.86-1.9-.2-2a2,2,0,0,1,1.93,1.88C20.67,12.06,20.29,13.25,19.53,13.35Z"/></g></svg>