<svg xmlns="http://www.w3.org/2000/svg" viewBox="0 0 30 30"><defs><style>.cls-1{fill:none;stroke:currentColor;stroke-miterlimit:10;stroke-width:0.71px;}</style></defs><g id="eye"><ellipse class="cls-1" cx="9.53" cy="15" rx="1" ry="3"/><path d="M23.32,14.46a3,3,0,0,1-1.15-.33A8.47,8.47,0,0,0,6.58,10.48a8.18,8.18,0,0,1-.72.91A5.12,5.12,0,0,0,4.27,15a5.09,5.09,0,0,0,1.6,3.63,8.65,8.65,0,0,1,.73.92,8.47,8.47,0,0,0,15.24-2.07,5.83,5.83,0,0,0,1.6.33,6,6,0,0,0,2.29-.55V13.64A3.12,3.12,0,0,1,23.32,14.46Zm-9.58,8.07-.26,0a3.22,3.22,0,0,1-1.62-.85c-.54-.74-.69-2.85-1.62-2.8-.68,0-.22.54-.83.57-1.43.06-1.37-3-2.27-3-.55,0-.45,1-.24,1.93L6.58,18a4.17,4.17,0,0,1-1.37-3,4.18,4.18,0,0,1,1.36-3l.37-.44c-.21.92-.31,1.91.24,1.93.9,0,.83-3,2.27-3,.6,0,.15.53.82.56.93.05,1.08-2,1.62-2.8a3.06,3.06,0,0,1,1.47-.81l.38,0a7.53,7.53,0,0,1,0,15.06Z"/></g></svg>