<svg xmlns="http://www.w3.org/2000/svg" viewBox="0 0 30 30"><defs><style>.cls-1{fill:none;}</style></defs><g id="lymph_nodes" data-name="lymph nodes"><g id="Layer_16_copy" data-name="Layer 16 copy"><path d="M23.78,14.65c.09-.22-2.07-1.35-3.06-.81S18.46,15,17.78,15.29l.28-1a1.47,1.47,0,0,0,1-1.34c.11-.78-.2-1.47-.71-1.6l-.06-1.14a5.61,5.61,0,0,1,1.36-1.05c.46-.26,1.12-.39,1.65-.64a3.88,3.88,0,0,0,1.86-2.47C23,6,22.35,7.59,21.09,8.14c-.53.24-1.2.36-1.66.62a5.6,5.6,0,0,0-1.18.88l0-.51a1.59,1.59,0,0,0,.84-1.29,2.08,2.08,0,0,0,0-.66,17.19,17.19,0,0,1,.49-2.27,15.81,15.81,0,0,0,.84-2.62,6,6,0,0,0-1.29,2.47,11.54,11.54,0,0,0-.4,1.66.74.74,0,0,0-.41-.21.83.83,0,0,0-.52.13c-.08-1.34-.33-4.67-.58-4.67s-.05,2.65.06,4.19c-.71-1.35-2-3.71-2.19-3.62S17,6.36,17.27,6.93a1.94,1.94,0,0,0-.19.63,1.56,1.56,0,0,0,.49,1.5l.15,2.45a1.29,1.29,0,0,0-.17.16c-.46-.76-1.45-2.45-2.3-4.19C14.59,6.15,11.59,5,11.53,5.22s2.76,1.19,3.35,2.53c.11.25.22.5.34.75a7.5,7.5,0,0,0-1.52-.7,6.21,6.21,0,0,0-2.88-.33c-.06.15,1.47.33,2.74.78a9.47,9.47,0,0,1,2.07,1.06c.68,1.32,1.35,2.38,1.62,2.8a2.13,2.13,0,0,0-.17.59,1.75,1.75,0,0,0,.31,1.35l-.53,1.84a1.37,1.37,0,0,0-.82.7L14.82,16c0-.49-.49-1.16-1.33-1.63a2.9,2.9,0,0,0-1.66-.41,10.91,10.91,0,0,0-1.07-2.74A3.51,3.51,0,0,0,9,9.64c-.13.06.75.7,1.33,1.74a8.78,8.78,0,0,1,.52,1.12,2.76,2.76,0,0,0-.3-.29,4.42,4.42,0,0,0-2.33-1c-.15.07,1.14.51,2,1.3a4.42,4.42,0,0,1,1.08,1.69l-.05.06a.71.71,0,0,0,0,.62A14.31,14.31,0,0,1,9.16,15c-1.68,0-3.46-.39-3.48-.23a8.48,8.48,0,0,0,3.47.71,12.48,12.48,0,0,0,2.41-.16,3.27,3.27,0,0,0,1,.79,3.63,3.63,0,0,0,.58.25L11.37,17.8h-.11l-.15,0a6.19,6.19,0,0,0-1.51-.41,4.22,4.22,0,0,0-2.22.18c0,.17,1.14.14,2.18.3a6.61,6.61,0,0,1,.92.21.45.45,0,0,0-.1.09A10.5,10.5,0,0,1,9,18.54c-1.18.19-2.52.2-2.48.37a5.24,5.24,0,0,0,2.52.1,7.34,7.34,0,0,0,1.45-.35,1.5,1.5,0,0,0,.84.14c.55-.06,1-.34.94-.61s-.14-.24-.32-.31L13.6,16.5a1.77,1.77,0,0,0,.73,0l1.47.73A1.6,1.6,0,0,0,16,18.47l-.83,1.77a1.56,1.56,0,0,0-1.31.88,1.66,1.66,0,0,0-.17,1.47l-.43.59-2.79,0a1.34,1.34,0,0,0-.75-.32H9.53A5.9,5.9,0,0,0,8,22.56,4,4,0,0,0,5.8,23c0,.16,1.14,0,2.19.08l.68.08s0,0,0,.07a.32.32,0,0,0,0,.16,6.19,6.19,0,0,0-.92.34,5.3,5.3,0,0,0-2.07,1.45c.06.16,1.2-.55,2.3-1a8.39,8.39,0,0,1,1.15-.4,2.43,2.43,0,0,0,.43.12,1.35,1.35,0,0,0,.86-.13l2.39.07-.47.63c-.49-.1-1.08.33-1.37,1a2.06,2.06,0,0,0-.15.71,4.18,4.18,0,0,0-.58.32C9.37,27,8.57,27.87,8.64,28s1-.62,1.86-1.17l.38-.21a.8.8,0,0,0,.43.55.54.54,0,0,0,.22,0,.64.64,0,0,1,0,.07c-.15.63-.51,1.29-.34,1.31S11.8,28,12,27.4a1.47,1.47,0,0,0,0-.29,1.86,1.86,0,0,0,.78-.92A1.81,1.81,0,0,0,12.89,25l1.44-2,.18,0a9.78,9.78,0,0,1,.61,2.7c0,.84.07,1.48.18,1.49s.19-.66.24-1.53a7.82,7.82,0,0,0-.61-2.85,1.89,1.89,0,0,0,.63-.68,1.6,1.6,0,0,0,.17-1.47l.44-.93.89,1.2a1.05,1.05,0,0,0,.42.82,3.13,3.13,0,0,0,.71,1.72,4.67,4.67,0,0,0,2.57,1.42c.14-.1-1.41-.78-2.24-1.77a3,3,0,0,1-.55-1c.28.12.53.14.65,0a.32.32,0,0,0,.06-.17c.27.13.57.28.87.46,1,.62,2.06,1.48,2.14,1.33s-.86-1.08-1.85-1.72a8.11,8.11,0,0,0-1.42-.69,1.73,1.73,0,0,0-.23-.24,1.45,1.45,0,0,0-.74-.36l-1.07-1.41.23-.5a1.49,1.49,0,0,0,1.14-1.16,1.6,1.6,0,0,0-.2-1.53l.06-.22a20.68,20.68,0,0,0,2-.92,5,5,0,0,1,1.6.6c.89.51,1.79,1.41,1.83,1.26a4.78,4.78,0,0,0-1.68-1.69,4.5,4.5,0,0,0-1.15-.5c.18-.11.36-.21.54-.33C21.75,13.69,23.66,14.94,23.78,14.65Z"/></g></g></svg>