<svg xmlns="http://www.w3.org/2000/svg" viewBox="0 0 30 30"><defs><style>.cls-1{fill:none;}</style></defs><g id="small_intestine" data-name="small intestine"><path d="M10.72,5.67c0,.85.52,3.49,2.25,4.42,1.35.73,4.51.66,5.71,1a4.06,4.06,0,0,1,2.23,2.54c.08.46.75-.33,1.74-.18s1.68,1.94,1.39,3.2a3.37,3.37,0,0,1-3.42,2.27,3.8,3.8,0,0,1-2.35-1.4C17.42,16,18,15.18,17,15.63s.34,1.87.75,3a1.64,1.64,0,0,1-.37,1.92,1.79,1.79,0,0,1-2.29.22,6.52,6.52,0,0,0-1.44-.68c-1.28-.4-2.78-.39-2.88-1.56s.94-1.26.94-1.43-2.57-.42-2.42-1.73c.12-1,2-1.16,2-1.16s1.79,0,1.79-.21-4-.68-4.26,1.22c-.18,1.38,1.62,1.53,1.72,3s-1,2.08-.17,2.46c1.1.49,2.14-.39,3.25-.28s2.19,1.2,2.84,1.18c.93,0,1.41-1.85,3.18-2.12a2.53,2.53,0,0,1,2.72,1.29,2.92,2.92,0,0,1-1.23,3.51,6.73,6.73,0,0,1-6.88.45c.3,1.43-.75,1.73-1.17,1.75-1.21.08-1.76-1.56-2.61-2a6.23,6.23,0,0,0-3.63-.63c-1.08.24-1.44-1.32-.22-1.61a7.3,7.3,0,0,1,4.17.62A4.42,4.42,0,0,1,12.32,24a1.44,1.44,0,0,1,.29-.9,3.92,3.92,0,0,1,.59-.66l1.46-.38,1.8,1.36,1,.08s-1.53,0,.09-.05a4,4,0,0,0,2.76-1,.62.62,0,0,0,.1-.81c-.15-.18-.35-.25-.75,0-.63.38-1.45,1.8-2.18,1.83-.46,0-3.86-1.11-4.4-1-1.08.26-2.2.71-3.36.17A2.69,2.69,0,0,1,8,20.56c-.06-.83.53-1.54.49-2S6.39,17,6.9,14.67s3.7-3,5-2.86,3.18.65,3.23,2-1.22,1.87-1.26,2,.38.36.52,1a2.48,2.48,0,0,1-.3,1.39,4.3,4.3,0,0,1,.85.19c.37.15.69.45.73.43a11.83,11.83,0,0,1-.94-2.65,2.33,2.33,0,0,1,1.66-2.49c1.28-.38,2.76.27,3,1s.21,1.41.88,2a1.16,1.16,0,0,0,1.66-.17c.21-.31.34-1.33-.07-1.12a2.26,2.26,0,0,1-1.6.19c-1.14-.3-1.33-2.18-2-2.53s-3.16-.22-3.7-.34-3.72-.94-4.76-3.16a8.24,8.24,0,0,1-1-3.94C8.67,4.79,10.71,4.83,10.72,5.67Z"/></g></svg>