<svg xmlns="http://www.w3.org/2000/svg" viewBox="0 0 30 30"><g id="fallopian_tube_left" data-name="fallopian tube left"><path d="M7.17,13.83c1.11,1,2.06,1,3.11,1.47a3.14,3.14,0,0,0-2.54.93c-.65.56-1.8.44-2.14,1.07.05-1.49-1.79-2.77-2.46-3.76C-1.47,6.81,4.82,2.39,12.08,3.69A23.12,23.12,0,0,1,20,6.88L19,9.67a16.16,16.16,0,0,0-6.77-3.24C7.23,5.24,1.75,9.08,7.17,13.83Z"/><path d="M9.94,15.15c.06,0,4.76,1,4.76,1,2.33.9,1,1.62-1.72,1.25-2.12-.28-3.89-1-3.85-.54s3.47,2.28,3.08,3S8,17.78,7.66,18.43a4.15,4.15,0,0,0-.49,1c-.58,1.29-1.14,2.84-1.64,2a2.65,2.65,0,0,1,0-2.45,2.71,2.71,0,0,0,0-1.63l.49-1.46Z"/><path d="M26.57,4.22C23.31,3.66,22.91,6.86,21.2,7A3.32,3.32,0,0,1,19,6.29L18.2,8.68s1,.9,1,1.54-.53,2.87.37,4.55,2.16,2.88,2.48,4.13.06,1.68.71,4.55a10.24,10.24,0,0,0,1.95,4.31h1.83Z"/></g></svg>