<?xml version="1.0" encoding="UTF-8" standalone="no"?>
<!DOCTYPE svg PUBLIC "-//W3C//DTD SVG 1.1//EN"
 "http://www.w3.org/Graphics/SVG/1.1/DTD/svg11.dtd">
<!-- Generated by graphviz version 2.40.1 (20161225.0304)
 -->
<!-- Title: dependencies Pages: 1 -->
<svg width="504pt" height="284pt"
 viewBox="0.00 0.00 504.00 284.00" xmlns="http://www.w3.org/2000/svg" xmlns:xlink="http://www.w3.org/1999/xlink">
<g id="graph0" class="graph" transform="scale(1 1) rotate(0) translate(4 280)">
<title>dependencies</title>
<polygon fill="#ffffff" stroke="transparent" points="-4,4 -4,-280 500,-280 500,4 -4,4"/>
<text text-anchor="start" x="227.0091" y="-42.4" font-family="sans-serif" font-weight="bold" font-size="14.00" fill="#000000">Legend</text>
<polygon fill="#ffffb3" stroke="transparent" points="14,-10 14,-30 34,-30 34,-10 14,-10"/>
<text text-anchor="start" x="37.629" y="-15.4" font-family="sans-serif" font-size="14.00" fill="#000000"> &#160;Declarations</text>
<polygon fill="#8dd3c7" stroke="transparent" points="127,-10 127,-30 147,-30 147,-10 127,-10"/>
<text text-anchor="start" x="150.7251" y="-15.4" font-family="sans-serif" font-size="14.00" fill="#000000"> &#160;Module</text>
<polygon fill="#80b1d3" stroke="transparent" points="213,-10 213,-30 233,-30 233,-10 213,-10"/>
<text text-anchor="start" x="236.7812" y="-15.4" font-family="sans-serif" font-size="14.00" fill="#000000"> &#160;Bootstrap</text>
<polygon fill="#fdb462" stroke="transparent" points="310,-10 310,-30 330,-30 330,-10 310,-10"/>
<text text-anchor="start" x="333.6732" y="-15.4" font-family="sans-serif" font-size="14.00" fill="#000000"> &#160;Providers</text>
<polygon fill="#fb8072" stroke="transparent" points="406,-10 406,-30 426,-30 426,-10 406,-10"/>
<text text-anchor="start" x="429.7258" y="-15.4" font-family="sans-serif" font-size="14.00" fill="#000000"> &#160;Exports</text>
<g id="clust1" class="cluster">
<title>cluster_HeaderModule</title>
<polygon fill="none" stroke="#000000" stroke-dasharray="1,5" points="99,-70 99,-268 397,-268 397,-70 99,-70"/>
</g>
<g id="clust2" class="cluster">
<title>cluster_HeaderModule_declarations</title>
<polygon fill="none" stroke="#000000" points="251,-78 251,-130 389,-130 389,-78 251,-78"/>
</g>
<g id="clust4" class="cluster">
<title>cluster_HeaderModule_imports</title>
<polygon fill="none" stroke="#000000" points="107,-78 107,-130 243,-130 243,-78 107,-78"/>
</g>
<g id="clust5" class="cluster">
<title>cluster_HeaderModule_exports</title>
<polygon fill="none" stroke="#000000" points="177,-208 177,-260 319,-260 319,-208 177,-208"/>
</g>
<!-- HeaderComponent -->
<g id="node1" class="node">
<title>HeaderComponent</title>
<polygon fill="#ffffb3" stroke="#000000" points="380.7437,-122 259.2563,-122 259.2563,-86 380.7437,-86 380.7437,-122"/>
<text text-anchor="middle" x="320" y="-99.8" font-family="Times,serif" font-size="14.00" fill="#000000">HeaderComponent</text>
</g>
<!-- HeaderModule -->
<g id="node2" class="node">
<title>HeaderModule</title>
<polygon fill="#8dd3c7" stroke="#000000" points="297.9608,-187 294.9608,-191 273.9608,-191 270.9608,-187 198.0392,-187 198.0392,-151 297.9608,-151 297.9608,-187"/>
<text text-anchor="middle" x="248" y="-164.8" font-family="Times,serif" font-size="14.00" fill="#000000">HeaderModule</text>
</g>
<!-- HeaderComponent&#45;&gt;HeaderModule -->
<g id="edge1" class="edge">
<title>HeaderComponent&#45;&gt;HeaderModule</title>
<path fill="none" stroke="#000000" d="M278.5544,-122.1061C278.5544,-122.1061 278.5544,-140.991 278.5544,-140.991"/>
<polygon fill="#000000" stroke="#000000" points="275.0544,-140.9909 278.5544,-150.991 282.0544,-140.991 275.0544,-140.9909"/>
</g>
<!-- HeaderComponent  -->
<g id="node4" class="node">
<title>HeaderComponent </title>
<polygon fill="#fb8072" stroke="#000000" points="310.7436,-252 185.2564,-252 185.2564,-216 310.7436,-216 310.7436,-252"/>
<text text-anchor="middle" x="248" y="-229.8" font-family="Times,serif" font-size="14.00" fill="#000000">HeaderComponent </text>
</g>
<!-- HeaderModule&#45;&gt;HeaderComponent  -->
<g id="edge3" class="edge">
<title>HeaderModule&#45;&gt;HeaderComponent </title>
<path fill="none" stroke="#000000" stroke-dasharray="5,2" d="M248,-187.1061C248,-187.1061 248,-205.991 248,-205.991"/>
<polygon fill="#000000" stroke="#000000" points="244.5001,-205.9909 248,-215.991 251.5001,-205.991 244.5001,-205.9909"/>
</g>
<!-- InfoButtonModule -->
<g id="node3" class="node">
<title>InfoButtonModule</title>
<polygon fill="#8dd3c7" stroke="#000000" points="235.4888,-122 232.4888,-126 211.4888,-126 208.4888,-122 114.5112,-122 114.5112,-86 235.4888,-86 235.4888,-122"/>
<text text-anchor="middle" x="175" y="-99.8" font-family="Times,serif" font-size="14.00" fill="#000000">InfoButtonModule</text>
</g>
<!-- InfoButtonModule&#45;&gt;HeaderModule -->
<g id="edge2" class="edge">
<title>InfoButtonModule&#45;&gt;HeaderModule</title>
<path fill="none" stroke="#000000" d="M216.757,-122.1061C216.757,-122.1061 216.757,-140.991 216.757,-140.991"/>
<polygon fill="#000000" stroke="#000000" points="213.2571,-140.9909 216.757,-150.991 220.2571,-140.991 213.2571,-140.9909"/>
</g>
</g>
</svg>
