<?xml version="1.0" encoding="UTF-8" standalone="no"?>
<!DOCTYPE svg PUBLIC "-//W3C//DTD SVG 1.1//EN"
 "http://www.w3.org/Graphics/SVG/1.1/DTD/svg11.dtd">
<!-- Generated by graphviz version 2.47.3 (20210619.1520)
 -->
<!-- Title: dependencies Pages: 1 -->
<svg width="372pt" height="247pt"
 viewBox="0.00 0.00 372.00 246.80" xmlns="http://www.w3.org/2000/svg" xmlns:xlink="http://www.w3.org/1999/xlink">
<g id="graph0" class="graph" transform="scale(1 1) rotate(0) translate(4 242.8)">
<title>dependencies</title>
<polygon fill="white" stroke="transparent" points="-4,4 -4,-242.8 368,-242.8 368,4 -4,4"/>
<text text-anchor="middle" x="182" y="-8.2" font-family="sans-serif" font-size="14.00">dependencies</text>
<g id="clust1" class="cluster">
<title>cluster_ResultsBrowserModule</title>
<polygon fill="none" stroke="black" stroke-dasharray="1,5" points="8,-32.8 8,-230.8 356,-230.8 356,-32.8 8,-32.8"/>
</g>
<g id="clust2" class="cluster">
<title>cluster_ResultsBrowserModule_declarations</title>
<polygon fill="none" stroke="black" points="162,-40.8 162,-92.8 348,-92.8 348,-40.8 162,-40.8"/>
</g>
<g id="clust4" class="cluster">
<title>cluster_ResultsBrowserModule_imports</title>
<polygon fill="none" stroke="black" points="16,-40.8 16,-92.8 154,-92.8 154,-40.8 16,-40.8"/>
</g>
<g id="clust5" class="cluster">
<title>cluster_ResultsBrowserModule_exports</title>
<polygon fill="none" stroke="black" points="87,-170.8 87,-222.8 277,-222.8 277,-170.8 87,-170.8"/>
</g>
<!-- ResultsBrowserComponent -->
<g id="node1" class="node">
<title>ResultsBrowserComponent</title>
<polygon fill="#ffffb3" stroke="black" points="339.98,-84.8 170.02,-84.8 170.02,-48.8 339.98,-48.8 339.98,-84.8"/>
<text text-anchor="middle" x="255" y="-62.6" font-family="Times,serif" font-size="14.00">ResultsBrowserComponent</text>
</g>
<!-- ResultsBrowserModule -->
<g id="node2" class="node">
<title>ResultsBrowserModule</title>
<polygon fill="#8dd3c7" stroke="black" points="256.2,-149.8 253.2,-153.8 232.2,-153.8 229.2,-149.8 107.8,-149.8 107.8,-113.8 256.2,-113.8 256.2,-149.8"/>
<text text-anchor="middle" x="182" y="-127.6" font-family="Times,serif" font-size="14.00">ResultsBrowserModule</text>
</g>
<!-- ResultsBrowserComponent&#45;&gt;ResultsBrowserModule -->
<g id="edge1" class="edge">
<title>ResultsBrowserComponent&#45;&gt;ResultsBrowserModule</title>
<path fill="none" stroke="black" d="M213.05,-84.91C213.05,-84.91 213.05,-103.79 213.05,-103.79"/>
<polygon fill="black" stroke="black" points="209.55,-103.79 213.05,-113.79 216.55,-103.79 209.55,-103.79"/>
</g>
<!-- ResultsBrowserComponent  -->
<g id="node4" class="node">
<title>ResultsBrowserComponent </title>
<polygon fill="#fb8072" stroke="black" points="268.98,-214.8 95.02,-214.8 95.02,-178.8 268.98,-178.8 268.98,-214.8"/>
<text text-anchor="middle" x="182" y="-192.6" font-family="Times,serif" font-size="14.00">ResultsBrowserComponent </text>
</g>
<!-- ResultsBrowserModule&#45;&gt;ResultsBrowserComponent  -->
<g id="edge3" class="edge">
<title>ResultsBrowserModule&#45;&gt;ResultsBrowserComponent </title>
<path fill="none" stroke="black" stroke-dasharray="5,2" d="M182,-149.91C182,-149.91 182,-168.79 182,-168.79"/>
<polygon fill="black" stroke="black" points="178.5,-168.79 182,-178.79 185.5,-168.79 178.5,-168.79"/>
</g>
<!-- DonorCardModule -->
<g id="node3" class="node">
<title>DonorCardModule</title>
<polygon fill="#8dd3c7" stroke="black" points="146.03,-84.8 143.03,-88.8 122.03,-88.8 119.03,-84.8 23.97,-84.8 23.97,-48.8 146.03,-48.8 146.03,-84.8"/>
<text text-anchor="middle" x="85" y="-62.6" font-family="Times,serif" font-size="14.00">DonorCardModule</text>
</g>
<!-- DonorCardModule&#45;&gt;ResultsBrowserModule -->
<g id="edge2" class="edge">
<title>DonorCardModule&#45;&gt;ResultsBrowserModule</title>
<path fill="none" stroke="black" d="M127.08,-84.91C127.08,-84.91 127.08,-103.79 127.08,-103.79"/>
<polygon fill="black" stroke="black" points="123.58,-103.79 127.08,-113.79 130.58,-103.79 123.58,-103.79"/>
</g>
</g>
</svg>
