<?xml version="1.0" encoding="UTF-8" standalone="no"?>
<!DOCTYPE svg PUBLIC "-//W3C//DTD SVG 1.1//EN"
 "http://www.w3.org/Graphics/SVG/1.1/DTD/svg11.dtd">
<!-- Generated by graphviz version 2.47.0 (20210316.0004)
 -->
<!-- Title: dependencies Pages: 1 -->
<svg width="504pt" height="284pt"
 viewBox="0.00 0.00 504.00 284.00" xmlns="http://www.w3.org/2000/svg" xmlns:xlink="http://www.w3.org/1999/xlink">
<g id="graph0" class="graph" transform="scale(1 1) rotate(0) translate(4 280)">
<title>dependencies</title>
<polygon fill="white" stroke="transparent" points="-4,4 -4,-280 500,-280 500,4 -4,4"/>
<text text-anchor="start" x="227.01" y="-42.4" font-family="Times-12" font-weight="bold" font-size="14.00">Legend</text>
<polygon fill="#ffffb3" stroke="transparent" points="14,-10 14,-30 34,-30 34,-10 14,-10"/>
<text text-anchor="start" x="37.63" y="-15.4" font-family="Times-12" font-size="14.00"> &#160;Declarations</text>
<polygon fill="#8dd3c7" stroke="transparent" points="127,-10 127,-30 147,-30 147,-10 127,-10"/>
<text text-anchor="start" x="150.73" y="-15.4" font-family="Times-12" font-size="14.00"> &#160;Module</text>
<polygon fill="#80b1d3" stroke="transparent" points="213,-10 213,-30 233,-30 233,-10 213,-10"/>
<text text-anchor="start" x="236.78" y="-15.4" font-family="Times-12" font-size="14.00"> &#160;Bootstrap</text>
<polygon fill="#fdb462" stroke="transparent" points="310,-10 310,-30 330,-30 330,-10 310,-10"/>
<text text-anchor="start" x="333.67" y="-15.4" font-family="Times-12" font-size="14.00"> &#160;Providers</text>
<polygon fill="#fb8072" stroke="transparent" points="406,-10 406,-30 426,-30 426,-10 406,-10"/>
<text text-anchor="start" x="429.73" y="-15.4" font-family="Times-12" font-size="14.00"> &#160;Exports</text>
<g id="clust1" class="cluster">
<title>cluster_ResultsBrowserModule</title>
<polygon fill="none" stroke="black" stroke-dasharray="1,5" points="74,-70 74,-268 422,-268 422,-70 74,-70"/>
</g>
<g id="clust5" class="cluster">
<title>cluster_ResultsBrowserModule_exports</title>
<polygon fill="none" stroke="black" points="153,-208 153,-260 343,-260 343,-208 153,-208"/>
</g>
<g id="clust2" class="cluster">
<title>cluster_ResultsBrowserModule_declarations</title>
<polygon fill="none" stroke="black" points="228,-78 228,-130 414,-130 414,-78 228,-78"/>
</g>
<g id="clust4" class="cluster">
<title>cluster_ResultsBrowserModule_imports</title>
<polygon fill="none" stroke="black" points="82,-78 82,-130 220,-130 220,-78 82,-78"/>
</g>
<!-- ResultsBrowserComponent -->
<g id="node1" class="node">
<title>ResultsBrowserComponent</title>
<polygon fill="#ffffb3" stroke="black" points="405.98,-122 236.02,-122 236.02,-86 405.98,-86 405.98,-122"/>
<text text-anchor="middle" x="321" y="-99.8" font-family="Times,serif" font-size="14.00">ResultsBrowserComponent</text>
</g>
<!-- ResultsBrowserModule -->
<g id="node2" class="node">
<title>ResultsBrowserModule</title>
<polygon fill="#8dd3c7" stroke="black" points="322.2,-187 319.2,-191 298.2,-191 295.2,-187 173.8,-187 173.8,-151 322.2,-151 322.2,-187"/>
<text text-anchor="middle" x="248" y="-164.8" font-family="Times,serif" font-size="14.00">ResultsBrowserModule</text>
</g>
<!-- ResultsBrowserComponent&#45;&gt;ResultsBrowserModule -->
<g id="edge1" class="edge">
<title>ResultsBrowserComponent&#45;&gt;ResultsBrowserModule</title>
<path fill="none" stroke="black" d="M279.05,-122.11C279.05,-122.11 279.05,-140.99 279.05,-140.99"/>
<polygon fill="black" stroke="black" points="275.55,-140.99 279.05,-150.99 282.55,-140.99 275.55,-140.99"/>
</g>
<!-- ResultsBrowserComponent  -->
<g id="node4" class="node">
<title>ResultsBrowserComponent </title>
<polygon fill="#fb8072" stroke="black" points="334.98,-252 161.02,-252 161.02,-216 334.98,-216 334.98,-252"/>
<text text-anchor="middle" x="248" y="-229.8" font-family="Times,serif" font-size="14.00">ResultsBrowserComponent </text>
</g>
<!-- ResultsBrowserModule&#45;&gt;ResultsBrowserComponent  -->
<g id="edge3" class="edge">
<title>ResultsBrowserModule&#45;&gt;ResultsBrowserComponent </title>
<path fill="none" stroke="black" stroke-dasharray="5,2" d="M248,-187.11C248,-187.11 248,-205.99 248,-205.99"/>
<polygon fill="black" stroke="black" points="244.5,-205.99 248,-215.99 251.5,-205.99 244.5,-205.99"/>
</g>
<!-- DonorCardModule -->
<g id="node3" class="node">
<title>DonorCardModule</title>
<polygon fill="#8dd3c7" stroke="black" points="212.03,-122 209.03,-126 188.03,-126 185.03,-122 89.97,-122 89.97,-86 212.03,-86 212.03,-122"/>
<text text-anchor="middle" x="151" y="-99.8" font-family="Times,serif" font-size="14.00">DonorCardModule</text>
</g>
<!-- DonorCardModule&#45;&gt;ResultsBrowserModule -->
<g id="edge2" class="edge">
<title>DonorCardModule&#45;&gt;ResultsBrowserModule</title>
<path fill="none" stroke="black" d="M193.08,-122.11C193.08,-122.11 193.08,-140.99 193.08,-140.99"/>
<polygon fill="black" stroke="black" points="189.58,-140.99 193.08,-150.99 196.58,-140.99 189.58,-140.99"/>
</g>
</g>
</svg>
