<?xml version="1.0" encoding="UTF-8" standalone="no"?>
<!DOCTYPE svg PUBLIC "-//W3C//DTD SVG 1.1//EN"
 "http://www.w3.org/Graphics/SVG/1.1/DTD/svg11.dtd">
<!-- Generated by graphviz version 2.47.3 (20210619.1520)
 -->
<!-- Title: dependencies Pages: 1 -->
<svg width="566pt" height="247pt"
 viewBox="0.00 0.00 566.00 246.80" xmlns="http://www.w3.org/2000/svg" xmlns:xlink="http://www.w3.org/1999/xlink">
<g id="graph0" class="graph" transform="scale(1 1) rotate(0) translate(4 242.8)">
<title>dependencies</title>
<polygon fill="white" stroke="transparent" points="-4,4 -4,-242.8 562,-242.8 562,4 -4,4"/>
<text text-anchor="middle" x="279" y="-8.2" font-family="sans-serif" font-size="14.00">dependencies</text>
<g id="clust1" class="cluster">
<title>cluster_SpatialSearchKeyboardUIBehaviorModule</title>
<polygon fill="none" stroke="black" stroke-dasharray="1,5" points="8,-32.8 8,-230.8 550,-230.8 550,-32.8 8,-32.8"/>
</g>
<g id="clust4" class="cluster">
<title>cluster_SpatialSearchKeyboardUIBehaviorModule_imports</title>
<polygon fill="none" stroke="black" points="320,-40.8 320,-92.8 542,-92.8 542,-40.8 320,-40.8"/>
</g>
<g id="clust5" class="cluster">
<title>cluster_SpatialSearchKeyboardUIBehaviorModule_exports</title>
<polygon fill="none" stroke="black" points="129,-170.8 129,-222.8 429,-222.8 429,-170.8 129,-170.8"/>
</g>
<g id="clust2" class="cluster">
<title>cluster_SpatialSearchKeyboardUIBehaviorModule_declarations</title>
<polygon fill="none" stroke="black" points="16,-40.8 16,-92.8 312,-92.8 312,-40.8 16,-40.8"/>
</g>
<!-- SpatialSearchKeyboardUIBehaviorComponent -->
<g id="node1" class="node">
<title>SpatialSearchKeyboardUIBehaviorComponent</title>
<polygon fill="#ffffb3" stroke="black" points="303.58,-84.8 24.42,-84.8 24.42,-48.8 303.58,-48.8 303.58,-84.8"/>
<text text-anchor="middle" x="164" y="-62.6" font-family="Times,serif" font-size="14.00">SpatialSearchKeyboardUIBehaviorComponent</text>
</g>
<!-- SpatialSearchKeyboardUIBehaviorModule -->
<g id="node2" class="node">
<title>SpatialSearchKeyboardUIBehaviorModule</title>
<polygon fill="#8dd3c7" stroke="black" points="407.8,-149.8 404.8,-153.8 383.8,-153.8 380.8,-149.8 150.2,-149.8 150.2,-113.8 407.8,-113.8 407.8,-149.8"/>
<text text-anchor="middle" x="279" y="-127.6" font-family="Times,serif" font-size="14.00">SpatialSearchKeyboardUIBehaviorModule</text>
</g>
<!-- SpatialSearchKeyboardUIBehaviorComponent&#45;&gt;SpatialSearchKeyboardUIBehaviorModule -->
<g id="edge1" class="edge">
<title>SpatialSearchKeyboardUIBehaviorComponent&#45;&gt;SpatialSearchKeyboardUIBehaviorModule</title>
<path fill="none" stroke="black" d="M226.95,-84.91C226.95,-84.91 226.95,-103.79 226.95,-103.79"/>
<polygon fill="black" stroke="black" points="223.45,-103.79 226.95,-113.79 230.45,-103.79 223.45,-103.79"/>
</g>
<!-- SpatialSearchKeyboardUIBehaviorComponent  -->
<g id="node4" class="node">
<title>SpatialSearchKeyboardUIBehaviorComponent </title>
<polygon fill="#fb8072" stroke="black" points="420.58,-214.8 137.42,-214.8 137.42,-178.8 420.58,-178.8 420.58,-214.8"/>
<text text-anchor="middle" x="279" y="-192.6" font-family="Times,serif" font-size="14.00">SpatialSearchKeyboardUIBehaviorComponent </text>
</g>
<!-- SpatialSearchKeyboardUIBehaviorModule&#45;&gt;SpatialSearchKeyboardUIBehaviorComponent  -->
<g id="edge3" class="edge">
<title>SpatialSearchKeyboardUIBehaviorModule&#45;&gt;SpatialSearchKeyboardUIBehaviorComponent </title>
<path fill="none" stroke="black" stroke-dasharray="5,2" d="M279,-149.91C279,-149.91 279,-168.79 279,-168.79"/>
<polygon fill="black" stroke="black" points="275.5,-168.79 279,-178.79 282.5,-168.79 275.5,-168.79"/>
</g>
<!-- SpatialSearchKeyboardUIModule -->
<g id="node3" class="node">
<title>SpatialSearchKeyboardUIModule</title>
<polygon fill="#8dd3c7" stroke="black" points="534.48,-84.8 531.48,-88.8 510.48,-88.8 507.48,-84.8 327.52,-84.8 327.52,-48.8 534.48,-48.8 534.48,-84.8"/>
<text text-anchor="middle" x="431" y="-62.6" font-family="Times,serif" font-size="14.00">SpatialSearchKeyboardUIModule</text>
</g>
<!-- SpatialSearchKeyboardUIModule&#45;&gt;SpatialSearchKeyboardUIBehaviorModule -->
<g id="edge2" class="edge">
<title>SpatialSearchKeyboardUIModule&#45;&gt;SpatialSearchKeyboardUIBehaviorModule</title>
<path fill="none" stroke="black" d="M367.83,-84.91C367.83,-84.91 367.83,-103.79 367.83,-103.79"/>
<polygon fill="black" stroke="black" points="364.33,-103.79 367.83,-113.79 371.33,-103.79 364.33,-103.79"/>
</g>
</g>
</svg>
