<?xml version="1.0" encoding="UTF-8" standalone="no"?>
<!DOCTYPE svg PUBLIC "-//W3C//DTD SVG 1.1//EN"
 "http://www.w3.org/Graphics/SVG/1.1/DTD/svg11.dtd">
<!-- Generated by graphviz version 2.47.0 (20210316.0004)
 -->
<!-- Title: dependencies Pages: 1 -->
<svg width="566pt" height="284pt"
 viewBox="0.00 0.00 566.00 284.00" xmlns="http://www.w3.org/2000/svg" xmlns:xlink="http://www.w3.org/1999/xlink">
<g id="graph0" class="graph" transform="scale(1 1) rotate(0) translate(4 280)">
<title>dependencies</title>
<polygon fill="white" stroke="transparent" points="-4,4 -4,-280 562,-280 562,4 -4,4"/>
<text text-anchor="start" x="258.01" y="-42.4" font-family="Times-12" font-weight="bold" font-size="14.00">Legend</text>
<polygon fill="#ffffb3" stroke="transparent" points="45,-10 45,-30 65,-30 65,-10 45,-10"/>
<text text-anchor="start" x="68.63" y="-15.4" font-family="Times-12" font-size="14.00"> &#160;Declarations</text>
<polygon fill="#8dd3c7" stroke="transparent" points="158,-10 158,-30 178,-30 178,-10 158,-10"/>
<text text-anchor="start" x="181.73" y="-15.4" font-family="Times-12" font-size="14.00"> &#160;Module</text>
<polygon fill="#80b1d3" stroke="transparent" points="244,-10 244,-30 264,-30 264,-10 244,-10"/>
<text text-anchor="start" x="267.78" y="-15.4" font-family="Times-12" font-size="14.00"> &#160;Bootstrap</text>
<polygon fill="#fdb462" stroke="transparent" points="341,-10 341,-30 361,-30 361,-10 341,-10"/>
<text text-anchor="start" x="364.67" y="-15.4" font-family="Times-12" font-size="14.00"> &#160;Providers</text>
<polygon fill="#fb8072" stroke="transparent" points="437,-10 437,-30 457,-30 457,-10 437,-10"/>
<text text-anchor="start" x="460.73" y="-15.4" font-family="Times-12" font-size="14.00"> &#160;Exports</text>
<g id="clust1" class="cluster">
<title>cluster_SpatialSearchKeyboardUIBehaviorModule</title>
<polygon fill="none" stroke="black" stroke-dasharray="1,5" points="8,-70 8,-268 550,-268 550,-70 8,-70"/>
</g>
<g id="clust4" class="cluster">
<title>cluster_SpatialSearchKeyboardUIBehaviorModule_imports</title>
<polygon fill="none" stroke="black" points="320,-78 320,-130 542,-130 542,-78 320,-78"/>
</g>
<g id="clust5" class="cluster">
<title>cluster_SpatialSearchKeyboardUIBehaviorModule_exports</title>
<polygon fill="none" stroke="black" points="129,-208 129,-260 429,-260 429,-208 129,-208"/>
</g>
<g id="clust2" class="cluster">
<title>cluster_SpatialSearchKeyboardUIBehaviorModule_declarations</title>
<polygon fill="none" stroke="black" points="16,-78 16,-130 312,-130 312,-78 16,-78"/>
</g>
<!-- SpatialSearchKeyboardUIBehaviorComponent -->
<g id="node1" class="node">
<title>SpatialSearchKeyboardUIBehaviorComponent</title>
<polygon fill="#ffffb3" stroke="black" points="303.58,-122 24.42,-122 24.42,-86 303.58,-86 303.58,-122"/>
<text text-anchor="middle" x="164" y="-99.8" font-family="Times,serif" font-size="14.00">SpatialSearchKeyboardUIBehaviorComponent</text>
</g>
<!-- SpatialSearchKeyboardUIBehaviorModule -->
<g id="node2" class="node">
<title>SpatialSearchKeyboardUIBehaviorModule</title>
<polygon fill="#8dd3c7" stroke="black" points="407.8,-187 404.8,-191 383.8,-191 380.8,-187 150.2,-187 150.2,-151 407.8,-151 407.8,-187"/>
<text text-anchor="middle" x="279" y="-164.8" font-family="Times,serif" font-size="14.00">SpatialSearchKeyboardUIBehaviorModule</text>
</g>
<!-- SpatialSearchKeyboardUIBehaviorComponent&#45;&gt;SpatialSearchKeyboardUIBehaviorModule -->
<g id="edge1" class="edge">
<title>SpatialSearchKeyboardUIBehaviorComponent&#45;&gt;SpatialSearchKeyboardUIBehaviorModule</title>
<path fill="none" stroke="black" d="M226.95,-122.11C226.95,-122.11 226.95,-140.99 226.95,-140.99"/>
<polygon fill="black" stroke="black" points="223.45,-140.99 226.95,-150.99 230.45,-140.99 223.45,-140.99"/>
</g>
<!-- SpatialSearchKeyboardUIBehaviorComponent  -->
<g id="node4" class="node">
<title>SpatialSearchKeyboardUIBehaviorComponent </title>
<polygon fill="#fb8072" stroke="black" points="420.58,-252 137.42,-252 137.42,-216 420.58,-216 420.58,-252"/>
<text text-anchor="middle" x="279" y="-229.8" font-family="Times,serif" font-size="14.00">SpatialSearchKeyboardUIBehaviorComponent </text>
</g>
<!-- SpatialSearchKeyboardUIBehaviorModule&#45;&gt;SpatialSearchKeyboardUIBehaviorComponent  -->
<g id="edge3" class="edge">
<title>SpatialSearchKeyboardUIBehaviorModule&#45;&gt;SpatialSearchKeyboardUIBehaviorComponent </title>
<path fill="none" stroke="black" stroke-dasharray="5,2" d="M279,-187.11C279,-187.11 279,-205.99 279,-205.99"/>
<polygon fill="black" stroke="black" points="275.5,-205.99 279,-215.99 282.5,-205.99 275.5,-205.99"/>
</g>
<!-- SpatialSearchKeyboardUIModule -->
<g id="node3" class="node">
<title>SpatialSearchKeyboardUIModule</title>
<polygon fill="#8dd3c7" stroke="black" points="534.48,-122 531.48,-126 510.48,-126 507.48,-122 327.52,-122 327.52,-86 534.48,-86 534.48,-122"/>
<text text-anchor="middle" x="431" y="-99.8" font-family="Times,serif" font-size="14.00">SpatialSearchKeyboardUIModule</text>
</g>
<!-- SpatialSearchKeyboardUIModule&#45;&gt;SpatialSearchKeyboardUIBehaviorModule -->
<g id="edge2" class="edge">
<title>SpatialSearchKeyboardUIModule&#45;&gt;SpatialSearchKeyboardUIBehaviorModule</title>
<path fill="none" stroke="black" d="M367.83,-122.11C367.83,-122.11 367.83,-140.99 367.83,-140.99"/>
<polygon fill="black" stroke="black" points="364.33,-140.99 367.83,-150.99 371.33,-140.99 364.33,-140.99"/>
</g>
</g>
</svg>
