<?xml version="1.0" encoding="UTF-8" standalone="no"?>
<!DOCTYPE svg PUBLIC "-//W3C//DTD SVG 1.1//EN"
 "http://www.w3.org/Graphics/SVG/1.1/DTD/svg11.dtd">
<!-- Generated by graphviz version 2.40.1 (20161225.0304)
 -->
<!-- Title: dependencies Pages: 1 -->
<svg width="760pt" height="284pt"
 viewBox="0.00 0.00 760.00 284.00" xmlns="http://www.w3.org/2000/svg" xmlns:xlink="http://www.w3.org/1999/xlink">
<g id="graph0" class="graph" transform="scale(1 1) rotate(0) translate(4 280)">
<title>dependencies</title>
<polygon fill="#ffffff" stroke="transparent" points="-4,4 -4,-280 756,-280 756,4 -4,4"/>
<text text-anchor="start" x="355.0091" y="-42.4" font-family="sans-serif" font-weight="bold" font-size="14.00" fill="#000000">Legend</text>
<polygon fill="#ffffb3" stroke="transparent" points="142,-10 142,-30 162,-30 162,-10 142,-10"/>
<text text-anchor="start" x="165.629" y="-15.4" font-family="sans-serif" font-size="14.00" fill="#000000"> &#160;Declarations</text>
<polygon fill="#8dd3c7" stroke="transparent" points="255,-10 255,-30 275,-30 275,-10 255,-10"/>
<text text-anchor="start" x="278.7251" y="-15.4" font-family="sans-serif" font-size="14.00" fill="#000000"> &#160;Module</text>
<polygon fill="#80b1d3" stroke="transparent" points="341,-10 341,-30 361,-30 361,-10 341,-10"/>
<text text-anchor="start" x="364.7812" y="-15.4" font-family="sans-serif" font-size="14.00" fill="#000000"> &#160;Bootstrap</text>
<polygon fill="#fdb462" stroke="transparent" points="438,-10 438,-30 458,-30 458,-10 438,-10"/>
<text text-anchor="start" x="461.6732" y="-15.4" font-family="sans-serif" font-size="14.00" fill="#000000"> &#160;Providers</text>
<polygon fill="#fb8072" stroke="transparent" points="534,-10 534,-30 554,-30 554,-10 534,-10"/>
<text text-anchor="start" x="557.7258" y="-15.4" font-family="sans-serif" font-size="14.00" fill="#000000"> &#160;Exports</text>
<g id="clust1" class="cluster">
<title>cluster_TissuesBrowserGridModule</title>
<polygon fill="none" stroke="#000000" stroke-dasharray="1,5" points="8,-70 8,-268 744,-268 744,-70 8,-70"/>
</g>
<g id="clust2" class="cluster">
<title>cluster_TissuesBrowserGridModule_declarations</title>
<polygon fill="none" stroke="#000000" points="524,-78 524,-130 736,-130 736,-78 524,-78"/>
</g>
<g id="clust4" class="cluster">
<title>cluster_TissuesBrowserGridModule_imports</title>
<polygon fill="none" stroke="#000000" points="16,-78 16,-130 516,-130 516,-78 16,-78"/>
</g>
<g id="clust5" class="cluster">
<title>cluster_TissuesBrowserGridModule_exports</title>
<polygon fill="none" stroke="#000000" points="300,-208 300,-260 516,-260 516,-208 300,-208"/>
</g>
<!-- TissuesBrowserGridComponent -->
<g id="node1" class="node">
<title>TissuesBrowserGridComponent</title>
<polygon fill="#ffffb3" stroke="#000000" points="728.4058,-122 531.5942,-122 531.5942,-86 728.4058,-86 728.4058,-122"/>
<text text-anchor="middle" x="630" y="-99.8" font-family="Times,serif" font-size="14.00" fill="#000000">TissuesBrowserGridComponent</text>
</g>
<!-- TissuesBrowserGridModule -->
<g id="node2" class="node">
<title>TissuesBrowserGridModule</title>
<polygon fill="#8dd3c7" stroke="#000000" points="495.1232,-187 492.1232,-191 471.1232,-191 468.1232,-187 320.8768,-187 320.8768,-151 495.1232,-151 495.1232,-187"/>
<text text-anchor="middle" x="408" y="-164.8" font-family="Times,serif" font-size="14.00" fill="#000000">TissuesBrowserGridModule</text>
</g>
<!-- TissuesBrowserGridComponent&#45;&gt;TissuesBrowserGridModule -->
<g id="edge1" class="edge">
<title>TissuesBrowserGridComponent&#45;&gt;TissuesBrowserGridModule</title>
<path fill="none" stroke="#000000" d="M630,-122.1061C630,-141.3391 630,-169 630,-169 630,-169 505.4216,-169 505.4216,-169"/>
<polygon fill="#000000" stroke="#000000" points="505.4216,-165.5001 495.4216,-169 505.4216,-172.5001 505.4216,-165.5001"/>
</g>
<!-- TissuesBrowserGridComponent  -->
<g id="node5" class="node">
<title>TissuesBrowserGridComponent </title>
<polygon fill="#fb8072" stroke="#000000" points="507.9054,-252 308.0946,-252 308.0946,-216 507.9054,-216 507.9054,-252"/>
<text text-anchor="middle" x="408" y="-229.8" font-family="Times,serif" font-size="14.00" fill="#000000">TissuesBrowserGridComponent </text>
</g>
<!-- TissuesBrowserGridModule&#45;&gt;TissuesBrowserGridComponent  -->
<g id="edge4" class="edge">
<title>TissuesBrowserGridModule&#45;&gt;TissuesBrowserGridComponent </title>
<path fill="none" stroke="#000000" stroke-dasharray="5,2" d="M408,-187.1061C408,-187.1061 408,-205.991 408,-205.991"/>
<polygon fill="#000000" stroke="#000000" points="404.5001,-205.9909 408,-215.991 411.5001,-205.991 404.5001,-205.9909"/>
</g>
<!-- TissuesBrowserGridItemModule -->
<g id="node3" class="node">
<title>TissuesBrowserGridItemModule</title>
<polygon fill="#8dd3c7" stroke="#000000" points="508.2794,-122 505.2794,-126 484.2794,-126 481.2794,-122 307.7206,-122 307.7206,-86 508.2794,-86 508.2794,-122"/>
<text text-anchor="middle" x="408" y="-99.8" font-family="Times,serif" font-size="14.00" fill="#000000">TissuesBrowserGridItemModule</text>
</g>
<!-- TissuesBrowserGridItemModule&#45;&gt;TissuesBrowserGridModule -->
<g id="edge2" class="edge">
<title>TissuesBrowserGridItemModule&#45;&gt;TissuesBrowserGridModule</title>
<path fill="none" stroke="#000000" d="M408,-122.1061C408,-122.1061 408,-140.991 408,-140.991"/>
<polygon fill="#000000" stroke="#000000" points="404.5001,-140.9909 408,-150.991 411.5001,-140.991 404.5001,-140.9909"/>
</g>
<!-- TissuesBrowserGridPopoverContentModule -->
<g id="node4" class="node">
<title>TissuesBrowserGridPopoverContentModule</title>
<polygon fill="#8dd3c7" stroke="#000000" points="289.6133,-122 286.6133,-126 265.6133,-126 262.6133,-122 24.3867,-122 24.3867,-86 289.6133,-86 289.6133,-122"/>
<text text-anchor="middle" x="157" y="-99.8" font-family="Times,serif" font-size="14.00" fill="#000000">TissuesBrowserGridPopoverContentModule</text>
</g>
<!-- TissuesBrowserGridPopoverContentModule&#45;&gt;TissuesBrowserGridModule -->
<g id="edge3" class="edge">
<title>TissuesBrowserGridPopoverContentModule&#45;&gt;TissuesBrowserGridModule</title>
<path fill="none" stroke="#000000" d="M157,-122.1061C157,-141.3391 157,-169 157,-169 157,-169 310.5647,-169 310.5647,-169"/>
<polygon fill="#000000" stroke="#000000" points="310.5648,-172.5001 320.5647,-169 310.5647,-165.5001 310.5648,-172.5001"/>
</g>
</g>
</svg>
