<?xml version="1.0" encoding="UTF-8" standalone="no"?>
<!DOCTYPE svg PUBLIC "-//W3C//DTD SVG 1.1//EN"
 "http://www.w3.org/Graphics/SVG/1.1/DTD/svg11.dtd">
<!-- Generated by graphviz version 2.40.1 (20161225.0304)
 -->
<!-- Title: dependencies Pages: 1 -->
<svg width="504pt" height="284pt"
 viewBox="0.00 0.00 504.00 284.00" xmlns="http://www.w3.org/2000/svg" xmlns:xlink="http://www.w3.org/1999/xlink">
<g id="graph0" class="graph" transform="scale(1 1) rotate(0) translate(4 280)">
<title>dependencies</title>
<polygon fill="#ffffff" stroke="transparent" points="-4,4 -4,-280 500,-280 500,4 -4,4"/>
<text text-anchor="start" x="227.0091" y="-42.4" font-family="sans-serif" font-weight="bold" font-size="14.00" fill="#000000">Legend</text>
<polygon fill="#ffffb3" stroke="transparent" points="14,-10 14,-30 34,-30 34,-10 14,-10"/>
<text text-anchor="start" x="37.629" y="-15.4" font-family="sans-serif" font-size="14.00" fill="#000000"> &#160;Declarations</text>
<polygon fill="#8dd3c7" stroke="transparent" points="127,-10 127,-30 147,-30 147,-10 127,-10"/>
<text text-anchor="start" x="150.7251" y="-15.4" font-family="sans-serif" font-size="14.00" fill="#000000"> &#160;Module</text>
<polygon fill="#80b1d3" stroke="transparent" points="213,-10 213,-30 233,-30 233,-10 213,-10"/>
<text text-anchor="start" x="236.7812" y="-15.4" font-family="sans-serif" font-size="14.00" fill="#000000"> &#160;Bootstrap</text>
<polygon fill="#fdb462" stroke="transparent" points="310,-10 310,-30 330,-30 330,-10 310,-10"/>
<text text-anchor="start" x="333.6732" y="-15.4" font-family="sans-serif" font-size="14.00" fill="#000000"> &#160;Providers</text>
<polygon fill="#fb8072" stroke="transparent" points="406,-10 406,-30 426,-30 426,-10 406,-10"/>
<text text-anchor="start" x="429.7258" y="-15.4" font-family="sans-serif" font-size="14.00" fill="#000000"> &#160;Exports</text>
<g id="clust1" class="cluster">
<title>cluster_InfoButtonModule</title>
<polygon fill="none" stroke="#000000" stroke-dasharray="1,5" points="89,-70 89,-268 407,-268 407,-70 89,-70"/>
</g>
<g id="clust2" class="cluster">
<title>cluster_InfoButtonModule_declarations</title>
<polygon fill="none" stroke="#000000" points="241,-78 241,-130 399,-130 399,-78 241,-78"/>
</g>
<g id="clust4" class="cluster">
<title>cluster_InfoButtonModule_imports</title>
<polygon fill="none" stroke="#000000" points="97,-78 97,-130 233,-130 233,-78 97,-78"/>
</g>
<g id="clust5" class="cluster">
<title>cluster_InfoButtonModule_exports</title>
<polygon fill="none" stroke="#000000" points="167,-208 167,-260 329,-260 329,-208 167,-208"/>
</g>
<!-- InfoButtonComponent -->
<g id="node1" class="node">
<title>InfoButtonComponent</title>
<polygon fill="#ffffb3" stroke="#000000" points="391.2716,-122 248.7284,-122 248.7284,-86 391.2716,-86 391.2716,-122"/>
<text text-anchor="middle" x="320" y="-99.8" font-family="Times,serif" font-size="14.00" fill="#000000">InfoButtonComponent</text>
</g>
<!-- InfoButtonModule -->
<g id="node2" class="node">
<title>InfoButtonModule</title>
<polygon fill="#8dd3c7" stroke="#000000" points="308.4888,-187 305.4888,-191 284.4888,-191 281.4888,-187 187.5112,-187 187.5112,-151 308.4888,-151 308.4888,-187"/>
<text text-anchor="middle" x="248" y="-164.8" font-family="Times,serif" font-size="14.00" fill="#000000">InfoButtonModule</text>
</g>
<!-- InfoButtonComponent&#45;&gt;InfoButtonModule -->
<g id="edge1" class="edge">
<title>InfoButtonComponent&#45;&gt;InfoButtonModule</title>
<path fill="none" stroke="#000000" d="M278.5544,-122.1061C278.5544,-122.1061 278.5544,-140.991 278.5544,-140.991"/>
<polygon fill="#000000" stroke="#000000" points="275.0544,-140.9909 278.5544,-150.991 282.0544,-140.991 275.0544,-140.9909"/>
</g>
<!-- InfoButtonComponent  -->
<g id="node4" class="node">
<title>InfoButtonComponent </title>
<polygon fill="#fb8072" stroke="#000000" points="321.2717,-252 174.7283,-252 174.7283,-216 321.2717,-216 321.2717,-252"/>
<text text-anchor="middle" x="248" y="-229.8" font-family="Times,serif" font-size="14.00" fill="#000000">InfoButtonComponent </text>
</g>
<!-- InfoButtonModule&#45;&gt;InfoButtonComponent  -->
<g id="edge3" class="edge">
<title>InfoButtonModule&#45;&gt;InfoButtonComponent </title>
<path fill="none" stroke="#000000" stroke-dasharray="5,2" d="M248,-187.1061C248,-187.1061 248,-205.991 248,-205.991"/>
<polygon fill="#000000" stroke="#000000" points="244.5001,-205.9909 248,-215.991 251.5001,-205.991 244.5001,-205.9909"/>
</g>
<!-- InfoDialogModule -->
<g id="node3" class="node">
<title>InfoDialogModule</title>
<polygon fill="#8dd3c7" stroke="#000000" points="225.4734,-122 222.4734,-126 201.4734,-126 198.4734,-122 104.5266,-122 104.5266,-86 225.4734,-86 225.4734,-122"/>
<text text-anchor="middle" x="165" y="-99.8" font-family="Times,serif" font-size="14.00" fill="#000000">InfoDialogModule</text>
</g>
<!-- InfoDialogModule&#45;&gt;InfoButtonModule -->
<g id="edge2" class="edge">
<title>InfoDialogModule&#45;&gt;InfoButtonModule</title>
<path fill="none" stroke="#000000" d="M206.4962,-122.1061C206.4962,-122.1061 206.4962,-140.991 206.4962,-140.991"/>
<polygon fill="#000000" stroke="#000000" points="202.9962,-140.9909 206.4962,-150.991 209.9962,-140.991 202.9962,-140.9909"/>
</g>
</g>
</svg>
