<?xml version="1.0" encoding="UTF-8" standalone="no"?>
<!DOCTYPE svg PUBLIC "-//W3C//DTD SVG 1.1//EN"
 "http://www.w3.org/Graphics/SVG/1.1/DTD/svg11.dtd">
<!-- Generated by graphviz version 2.40.1 (20161225.0304)
 -->
<!-- Title: dependencies Pages: 1 -->
<svg width="659pt" height="211pt"
 viewBox="0.00 0.00 659.00 211.00" xmlns="http://www.w3.org/2000/svg" xmlns:xlink="http://www.w3.org/1999/xlink">
<g id="graph0" class="graph" transform="scale(1 1) rotate(0) translate(4 207)">
<title>dependencies</title>
<polygon fill="#ffffff" stroke="transparent" points="-4,4 -4,-207 655,-207 655,4 -4,4"/>
<text text-anchor="start" x="304.5091" y="-42.4" font-family="sans-serif" font-weight="bold" font-size="14.00" fill="#000000">Legend</text>
<polygon fill="#ffffb3" stroke="transparent" points="91.5,-10 91.5,-30 111.5,-30 111.5,-10 91.5,-10"/>
<text text-anchor="start" x="115.129" y="-15.4" font-family="sans-serif" font-size="14.00" fill="#000000"> &#160;Declarations</text>
<polygon fill="#8dd3c7" stroke="transparent" points="204.5,-10 204.5,-30 224.5,-30 224.5,-10 204.5,-10"/>
<text text-anchor="start" x="228.2251" y="-15.4" font-family="sans-serif" font-size="14.00" fill="#000000"> &#160;Module</text>
<polygon fill="#80b1d3" stroke="transparent" points="290.5,-10 290.5,-30 310.5,-30 310.5,-10 290.5,-10"/>
<text text-anchor="start" x="314.2812" y="-15.4" font-family="sans-serif" font-size="14.00" fill="#000000"> &#160;Bootstrap</text>
<polygon fill="#fdb462" stroke="transparent" points="387.5,-10 387.5,-30 407.5,-30 407.5,-10 387.5,-10"/>
<text text-anchor="start" x="411.1732" y="-15.4" font-family="sans-serif" font-size="14.00" fill="#000000"> &#160;Providers</text>
<polygon fill="#fb8072" stroke="transparent" points="483.5,-10 483.5,-30 503.5,-30 503.5,-10 483.5,-10"/>
<text text-anchor="start" x="507.2258" y="-15.4" font-family="sans-serif" font-size="14.00" fill="#000000"> &#160;Exports</text>
<g id="clust1" class="cluster">
<title>cluster_TissueModule</title>
<polygon fill="none" stroke="#000000" stroke-dasharray="1,5" points="8,-70 8,-195 643,-195 643,-70 8,-70"/>
</g>
<g id="clust2" class="cluster">
<title>cluster_TissueModule_declarations</title>
<polygon fill="none" stroke="#000000" points="501,-78 501,-130 635,-130 635,-78 501,-78"/>
</g>
<g id="clust4" class="cluster">
<title>cluster_TissueModule_imports</title>
<polygon fill="none" stroke="#000000" points="206,-78 206,-130 493,-130 493,-78 206,-78"/>
</g>
<g id="clust7" class="cluster">
<title>cluster_TissueModule_providers</title>
<polygon fill="none" stroke="#000000" points="16,-78 16,-130 198,-130 198,-78 16,-78"/>
</g>
<!-- TissueComponent -->
<g id="node1" class="node">
<title>TissueComponent</title>
<polygon fill="#ffffb3" stroke="#000000" points="626.8795,-122 509.1205,-122 509.1205,-86 626.8795,-86 626.8795,-122"/>
<text text-anchor="middle" x="568" y="-99.8" font-family="Times,serif" font-size="14.00" fill="#000000">TissueComponent</text>
</g>
<!-- TissueModule -->
<g id="node2" class="node">
<title>TissueModule</title>
<polygon fill="#8dd3c7" stroke="#000000" points="405.0968,-187 402.0968,-191 381.0968,-191 378.0968,-187 308.9032,-187 308.9032,-151 405.0968,-151 405.0968,-187"/>
<text text-anchor="middle" x="357" y="-164.8" font-family="Times,serif" font-size="14.00" fill="#000000">TissueModule</text>
</g>
<!-- TissueComponent&#45;&gt;TissueModule -->
<g id="edge1" class="edge">
<title>TissueComponent&#45;&gt;TissueModule</title>
<path fill="none" stroke="#000000" d="M568,-122.1061C568,-141.3391 568,-169 568,-169 568,-169 415.1432,-169 415.1432,-169"/>
<polygon fill="#000000" stroke="#000000" points="415.1432,-165.5001 405.1432,-169 415.1431,-172.5001 415.1432,-165.5001"/>
</g>
<!-- MetadataModule -->
<g id="node3" class="node">
<title>MetadataModule</title>
<polygon fill="#8dd3c7" stroke="#000000" points="484.6346,-122 481.6346,-126 460.6346,-126 457.6346,-122 373.3654,-122 373.3654,-86 484.6346,-86 484.6346,-122"/>
<text text-anchor="middle" x="429" y="-99.8" font-family="Times,serif" font-size="14.00" fill="#000000">MetadataModule</text>
</g>
<!-- MetadataModule&#45;&gt;TissueModule -->
<g id="edge2" class="edge">
<title>MetadataModule&#45;&gt;TissueModule</title>
<path fill="none" stroke="#000000" d="M389.1157,-122.1061C389.1157,-122.1061 389.1157,-140.991 389.1157,-140.991"/>
<polygon fill="#000000" stroke="#000000" points="385.6158,-140.9909 389.1157,-150.991 392.6158,-140.991 385.6158,-140.9909"/>
</g>
<!-- TissueRoutingModule -->
<g id="node4" class="node">
<title>TissueRoutingModule</title>
<polygon fill="#8dd3c7" stroke="#000000" points="355.7148,-122 352.7148,-126 331.7148,-126 328.7148,-122 214.2852,-122 214.2852,-86 355.7148,-86 355.7148,-122"/>
<text text-anchor="middle" x="285" y="-99.8" font-family="Times,serif" font-size="14.00" fill="#000000">TissueRoutingModule</text>
</g>
<!-- TissueRoutingModule&#45;&gt;TissueModule -->
<g id="edge3" class="edge">
<title>TissueRoutingModule&#45;&gt;TissueModule</title>
<path fill="none" stroke="#000000" d="M332.2795,-122.1061C332.2795,-122.1061 332.2795,-140.991 332.2795,-140.991"/>
<polygon fill="#000000" stroke="#000000" points="328.7795,-140.9909 332.2795,-150.991 335.7795,-140.991 328.7795,-140.9909"/>
</g>
<!-- TissueDataService -->
<g id="node5" class="node">
<title>TissueDataService</title>
<ellipse fill="#fdb462" stroke="#000000" cx="107" cy="-104" rx="83.3596" ry="18"/>
<text text-anchor="middle" x="107" y="-99.8" font-family="Times,serif" font-size="14.00" fill="#000000">TissueDataService</text>
</g>
<!-- TissueDataService&#45;&gt;TissueModule -->
<g id="edge4" class="edge">
<title>TissueDataService&#45;&gt;TissueModule</title>
<path fill="none" stroke="#000000" d="M107,-122.1061C107,-141.3391 107,-169 107,-169 107,-169 298.7975,-169 298.7975,-169"/>
<polygon fill="#000000" stroke="#000000" points="298.7975,-172.5001 308.7975,-169 298.7975,-165.5001 298.7975,-172.5001"/>
</g>
</g>
</svg>
