<?xml version="1.0" encoding="UTF-8" standalone="no"?>
<!DOCTYPE svg PUBLIC "-//W3C//DTD SVG 1.1//EN"
 "http://www.w3.org/Graphics/SVG/1.1/DTD/svg11.dtd">
<!-- Generated by graphviz version 2.47.3 (20210619.1520)
 -->
<!-- Title: dependencies Pages: 1 -->
<svg width="384pt" height="247pt"
 viewBox="0.00 0.00 384.00 246.80" xmlns="http://www.w3.org/2000/svg" xmlns:xlink="http://www.w3.org/1999/xlink">
<g id="graph0" class="graph" transform="scale(1 1) rotate(0) translate(4 242.8)">
<title>dependencies</title>
<polygon fill="white" stroke="transparent" points="-4,4 -4,-242.8 380,-242.8 380,4 -4,4"/>
<text text-anchor="middle" x="188" y="-8.2" font-family="sans-serif" font-size="14.00">dependencies</text>
<g id="clust1" class="cluster">
<title>cluster_VisibilityMenuModule</title>
<polygon fill="none" stroke="black" stroke-dasharray="1,5" points="8,-32.8 8,-230.8 368,-230.8 368,-32.8 8,-32.8"/>
</g>
<g id="clust2" class="cluster">
<title>cluster_VisibilityMenuModule_declarations</title>
<polygon fill="none" stroke="black" points="178,-40.8 178,-92.8 360,-92.8 360,-40.8 178,-40.8"/>
</g>
<g id="clust4" class="cluster">
<title>cluster_VisibilityMenuModule_imports</title>
<polygon fill="none" stroke="black" points="16,-40.8 16,-92.8 170,-92.8 170,-40.8 16,-40.8"/>
</g>
<g id="clust5" class="cluster">
<title>cluster_VisibilityMenuModule_exports</title>
<polygon fill="none" stroke="black" points="95,-170.8 95,-222.8 281,-222.8 281,-170.8 95,-170.8"/>
</g>
<!-- VisibilityMenuComponent -->
<g id="node1" class="node">
<title>VisibilityMenuComponent</title>
<polygon fill="#ffffb3" stroke="black" points="352.39,-84.8 185.61,-84.8 185.61,-48.8 352.39,-48.8 352.39,-84.8"/>
<text text-anchor="middle" x="269" y="-62.6" font-family="Times,serif" font-size="14.00">VisibilityMenuComponent</text>
</g>
<!-- VisibilityMenuModule -->
<g id="node2" class="node">
<title>VisibilityMenuModule</title>
<polygon fill="#8dd3c7" stroke="black" points="260.6,-149.8 257.6,-153.8 236.6,-153.8 233.6,-149.8 115.4,-149.8 115.4,-113.8 260.6,-113.8 260.6,-149.8"/>
<text text-anchor="middle" x="188" y="-127.6" font-family="Times,serif" font-size="14.00">VisibilityMenuModule</text>
</g>
<!-- VisibilityMenuComponent&#45;&gt;VisibilityMenuModule -->
<g id="edge1" class="edge">
<title>VisibilityMenuComponent&#45;&gt;VisibilityMenuModule</title>
<path fill="none" stroke="black" d="M223.05,-84.91C223.05,-84.91 223.05,-103.79 223.05,-103.79"/>
<polygon fill="black" stroke="black" points="219.55,-103.79 223.05,-113.79 226.55,-103.79 219.55,-103.79"/>
</g>
<!-- VisibilityMenuComponent  -->
<g id="node4" class="node">
<title>VisibilityMenuComponent </title>
<polygon fill="#fb8072" stroke="black" points="273.39,-214.8 102.61,-214.8 102.61,-178.8 273.39,-178.8 273.39,-214.8"/>
<text text-anchor="middle" x="188" y="-192.6" font-family="Times,serif" font-size="14.00">VisibilityMenuComponent </text>
</g>
<!-- VisibilityMenuModule&#45;&gt;VisibilityMenuComponent  -->
<g id="edge3" class="edge">
<title>VisibilityMenuModule&#45;&gt;VisibilityMenuComponent </title>
<path fill="none" stroke="black" stroke-dasharray="5,2" d="M188,-149.91C188,-149.91 188,-168.79 188,-168.79"/>
<polygon fill="black" stroke="black" points="184.5,-168.79 188,-178.79 191.5,-168.79 184.5,-168.79"/>
</g>
<!-- OpacitySliderModule -->
<g id="node3" class="node">
<title>OpacitySliderModule</title>
<polygon fill="#8dd3c7" stroke="black" points="161.81,-84.8 158.81,-88.8 137.81,-88.8 134.81,-84.8 24.19,-84.8 24.19,-48.8 161.81,-48.8 161.81,-84.8"/>
<text text-anchor="middle" x="93" y="-62.6" font-family="Times,serif" font-size="14.00">OpacitySliderModule</text>
</g>
<!-- OpacitySliderModule&#45;&gt;VisibilityMenuModule -->
<g id="edge2" class="edge">
<title>OpacitySliderModule&#45;&gt;VisibilityMenuModule</title>
<path fill="none" stroke="black" d="M138.55,-84.91C138.55,-84.91 138.55,-103.79 138.55,-103.79"/>
<polygon fill="black" stroke="black" points="135.05,-103.79 138.55,-113.79 142.05,-103.79 135.05,-103.79"/>
</g>
</g>
</svg>
