<?xml version="1.0" encoding="UTF-8" standalone="no"?>
<!DOCTYPE svg PUBLIC "-//W3C//DTD SVG 1.1//EN"
 "http://www.w3.org/Graphics/SVG/1.1/DTD/svg11.dtd">
<!-- Generated by graphviz version 2.40.1 (20161225.0304)
 -->
<!-- Title: dependencies Pages: 1 -->
<svg width="504pt" height="284pt"
 viewBox="0.00 0.00 504.00 284.00" xmlns="http://www.w3.org/2000/svg" xmlns:xlink="http://www.w3.org/1999/xlink">
<g id="graph0" class="graph" transform="scale(1 1) rotate(0) translate(4 280)">
<title>dependencies</title>
<polygon fill="#ffffff" stroke="transparent" points="-4,4 -4,-280 500,-280 500,4 -4,4"/>
<text text-anchor="start" x="227.0091" y="-42.4" font-family="sans-serif" font-weight="bold" font-size="14.00" fill="#000000">Legend</text>
<polygon fill="#ffffb3" stroke="transparent" points="14,-10 14,-30 34,-30 34,-10 14,-10"/>
<text text-anchor="start" x="37.629" y="-15.4" font-family="sans-serif" font-size="14.00" fill="#000000"> &#160;Declarations</text>
<polygon fill="#8dd3c7" stroke="transparent" points="127,-10 127,-30 147,-30 147,-10 127,-10"/>
<text text-anchor="start" x="150.7251" y="-15.4" font-family="sans-serif" font-size="14.00" fill="#000000"> &#160;Module</text>
<polygon fill="#80b1d3" stroke="transparent" points="213,-10 213,-30 233,-30 233,-10 213,-10"/>
<text text-anchor="start" x="236.7812" y="-15.4" font-family="sans-serif" font-size="14.00" fill="#000000"> &#160;Bootstrap</text>
<polygon fill="#fdb462" stroke="transparent" points="310,-10 310,-30 330,-30 330,-10 310,-10"/>
<text text-anchor="start" x="333.6732" y="-15.4" font-family="sans-serif" font-size="14.00" fill="#000000"> &#160;Providers</text>
<polygon fill="#fb8072" stroke="transparent" points="406,-10 406,-30 426,-30 426,-10 406,-10"/>
<text text-anchor="start" x="429.7258" y="-15.4" font-family="sans-serif" font-size="14.00" fill="#000000"> &#160;Exports</text>
<g id="clust1" class="cluster">
<title>cluster_VisibilityMenuModule</title>
<polygon fill="none" stroke="#000000" stroke-dasharray="1,5" points="68,-70 68,-268 428,-268 428,-70 68,-70"/>
</g>
<g id="clust2" class="cluster">
<title>cluster_VisibilityMenuModule_declarations</title>
<polygon fill="none" stroke="#000000" points="238,-78 238,-130 420,-130 420,-78 238,-78"/>
</g>
<g id="clust4" class="cluster">
<title>cluster_VisibilityMenuModule_imports</title>
<polygon fill="none" stroke="#000000" points="76,-78 76,-130 230,-130 230,-78 76,-78"/>
</g>
<g id="clust5" class="cluster">
<title>cluster_VisibilityMenuModule_exports</title>
<polygon fill="none" stroke="#000000" points="155,-208 155,-260 341,-260 341,-208 155,-208"/>
</g>
<!-- VisibilityMenuComponent -->
<g id="node1" class="node">
<title>VisibilityMenuComponent</title>
<polygon fill="#ffffb3" stroke="#000000" points="412.3864,-122 245.6136,-122 245.6136,-86 412.3864,-86 412.3864,-122"/>
<text text-anchor="middle" x="329" y="-99.8" font-family="Times,serif" font-size="14.00" fill="#000000">VisibilityMenuComponent</text>
</g>
<!-- VisibilityMenuModule -->
<g id="node2" class="node">
<title>VisibilityMenuModule</title>
<polygon fill="#8dd3c7" stroke="#000000" points="320.6038,-187 317.6038,-191 296.6038,-191 293.6038,-187 175.3962,-187 175.3962,-151 320.6038,-151 320.6038,-187"/>
<text text-anchor="middle" x="248" y="-164.8" font-family="Times,serif" font-size="14.00" fill="#000000">VisibilityMenuModule</text>
</g>
<!-- VisibilityMenuComponent&#45;&gt;VisibilityMenuModule -->
<g id="edge1" class="edge">
<title>VisibilityMenuComponent&#45;&gt;VisibilityMenuModule</title>
<path fill="none" stroke="#000000" d="M283.0544,-122.1061C283.0544,-122.1061 283.0544,-140.991 283.0544,-140.991"/>
<polygon fill="#000000" stroke="#000000" points="279.5544,-140.9909 283.0544,-150.991 286.5544,-140.991 279.5544,-140.9909"/>
</g>
<!-- VisibilityMenuComponent  -->
<g id="node4" class="node">
<title>VisibilityMenuComponent </title>
<polygon fill="#fb8072" stroke="#000000" points="333.3868,-252 162.6132,-252 162.6132,-216 333.3868,-216 333.3868,-252"/>
<text text-anchor="middle" x="248" y="-229.8" font-family="Times,serif" font-size="14.00" fill="#000000">VisibilityMenuComponent </text>
</g>
<!-- VisibilityMenuModule&#45;&gt;VisibilityMenuComponent  -->
<g id="edge3" class="edge">
<title>VisibilityMenuModule&#45;&gt;VisibilityMenuComponent </title>
<path fill="none" stroke="#000000" stroke-dasharray="5,2" d="M248,-187.1061C248,-187.1061 248,-205.991 248,-205.991"/>
<polygon fill="#000000" stroke="#000000" points="244.5001,-205.9909 248,-215.991 251.5001,-205.991 244.5001,-205.9909"/>
</g>
<!-- OpacitySliderModule -->
<g id="node3" class="node">
<title>OpacitySliderModule</title>
<polygon fill="#8dd3c7" stroke="#000000" points="221.8061,-122 218.8061,-126 197.8061,-126 194.8061,-122 84.1939,-122 84.1939,-86 221.8061,-86 221.8061,-122"/>
<text text-anchor="middle" x="153" y="-99.8" font-family="Times,serif" font-size="14.00" fill="#000000">OpacitySliderModule</text>
</g>
<!-- OpacitySliderModule&#45;&gt;VisibilityMenuModule -->
<g id="edge2" class="edge">
<title>OpacitySliderModule&#45;&gt;VisibilityMenuModule</title>
<path fill="none" stroke="#000000" d="M198.5505,-122.1061C198.5505,-122.1061 198.5505,-140.991 198.5505,-140.991"/>
<polygon fill="#000000" stroke="#000000" points="195.0506,-140.9909 198.5505,-150.991 202.0506,-140.991 195.0506,-140.9909"/>
</g>
</g>
</svg>
