<svg xmlns="http://www.w3.org/2000/svg" width="64" height="64" fill="currentColor" viewBox="0 0 64 64">
  <g clip-path="url(#a)">
    <path d="M47.445 11.776c-8.96 0-6.293 4.373-11.413 4.416-4.65 0-3.648-8.853-3.648-8.853h-5.333s-.619 8.533 2.56 12.629c5.141 6.656 5.888 19.733-4.267 19.563-4.267 0-4.267-4.139-10.283-4.139A10.54 10.54 0 0 0 6.4 39.36l3.99 2.56a4.1 4.1 0 0 1 3.605-2.261 4.266 4.266 0 0 1 4.138 4.373c0 2.603-3.2 5.035-1.066 9.301 2.133 4.267 8.32 5.76 18.282 4.864 8.79-.597 16.79-10.688 20.31-21.93 4.608-14.934.661-24.491-8.214-24.491"/>
  </g>
  <defs>
    <clipPath id="a">
      <path d="M0 0h64v64H0z"/>
    </clipPath>
  </defs>
</svg>
