<svg xmlns="http://www.w3.org/2000/svg" width="64" height="64" fill="currentColor" viewBox="0 0 64 64">
  <g clip-path="url(#a)">
    <path d="M25.58 27.288c.366 1.852-3.231 2.821-2.391 4.652a3.937 3.937 0 0 0 5.406 1.27c.302-.193.56-.409.797-.667 2.154-1.981-.388-3.704.41-5.126.56-.99.775-.883 1.486-1.27.646-.41 1.4-.582 2.154-.496 1.615 0 2.369 2.972 5.17 1.939 2.8-1.034 2.54-3.662 1.054-5.621-1.227-1.616-3.747 1.12-5.234 0-.84-.69 1.271-3.597-.926-3.188-2.197.41-2.154 1.594-1.852 4.157a2.67 2.67 0 0 1-1.508 1.723 3.97 3.97 0 0 1-2.412.603c-2.154-1.465-3.167-2.046-4.545-.302-1.379 1.745 2.154 1.25 2.39 2.326"/>
    <path d="M58.858 16.95c-1.723-.43-5.557.625-6.03.259-.475-.366-.798-1.314-2.306-2.154a4.33 4.33 0 0 0-3.877-.366c-1.184.452-.409-.818-4.308-.668a10.5 10.5 0 0 0-5.04 1.099h-.086c-3.339-.538-7.13.086-10.62 1.787-3.316 1.594-5.901 3.963-7.538 6.548l.065-.216a11.4 11.4 0 0 0-5.708 5.384c-2.154 3.726-.604 3.683-1.659 4.566a4.85 4.85 0 0 0-1.723 4.006c.086 1.163.345 2.304.754 3.381 0 .517-3.21 4.437-4.308 6.612-.345.366-.56.883-.474 1.421.108.733.69 1.293 1.4 1.4.065 0 .13-.043.215-.064.237 0 .453-.043.668-.151.259-.172.582-.71.905-1.421.43-.647.775-1.314.775-1.723.733-1.637 1.594-3.403 2.628-3.985.71-.84 2.348-.366 4.523.065v1.335l.043-.366s0 5.492 7.475 6.935c5.04.969 12.428.237 12.428-3.941 4.502 1.873 8.38-6.418 8.38-9.433v-4.89c-1.056 1.035-2.693 1.207-3.9.28-.021 0-.043-.042-.086-.064 1.142.43 2.477.237 3.253 0 .043 0 .064-.043.108-.043 1.529-.517 3.683-3.338 4.781-5.276 1.874-3.166 2.542-7.409 4.028-7.732 1.702-.926 4.717.517 5.622 0 .366-.194.625-.538.69-.948.15-.753-.345-1.464-1.1-1.615zM27.54 18.825c2.39-1.163 4.89-1.766 7.258-1.766.711 0 1.4.065 2.09.172 2.779.453 4.846 1.81 5.816 3.813.969 2.002.754 4.458-.625 6.913-1.012 1.83-2.585 3.467-4.502 4.824a46 46 0 0 0-4.372-4.566l-.044.043-.172.13c.711 1.507 1.4 2.928 2.154 4.307.15.43.345.84.582 1.206-.237.13-.453.28-.69.388-6.29 3.036-13.074 2.046-15.142-2.219s1.357-10.208 7.647-13.245m-14.367 21.02a9.7 9.7 0 0 0 .818-7.02 6.72 6.72 0 0 1 3.748-6.699c-.388 1.12-.582 2.218-.582 3.317h-.021v10.51c2.456.021 4.954-.043 7.022-1.314.043-.022.108-.043.15-.086.238-.194.431-.41.56-.69 0 0 0-.02.022-.042h.043c-.71 1.96-4.135 2.52-5.945 2.627-.236 0-.538.022-.818.022h-.108c-.301 0-.625 0-.948-.022-3.015-.13-6.785-.754-3.963-.668zM46.818 25.91c-.625.56-1.013.861-1.357.969v-3.704h-.043a8.1 8.1 0 0 0-.797-3.08c-.97-2.003-2.693-3.49-4.998-4.35 1.874-.84 4.093-.69 5.838.516a8.6 8.6 0 0 0 5.794 2.456c-1.077 2.627-2.585 5.04-4.437 7.193"/>
  </g>
  <defs>
    <clipPath id="a">
      <path d="M6 14h54v37H6z"/>
    </clipPath>
  </defs>
</svg>
