<svg xmlns="http://www.w3.org/2000/svg" width="64" height="64" fill="currentColor" viewBox="0 0 64 64">
  <path d="M3.307 8.256c6.976-1.195 7.808 5.653 11.477 5.888a7.06 7.06 0 0 0 4.672-1.344l1.707 5.077s-2.134 1.942-2.134 3.307 1.131 6.101-.789 9.707c-1.92 3.605-4.672 6.037-5.44 8.682s0 3.606-1.43 9.707a21.85 21.85 0 0 1-4.16 9.195H3.308z"/>
  <path d="M44.8 28.779c-2.368 2.133-4.395 2.133-6.635 3.114a6.7 6.7 0 0 1 5.419 2.006c1.387 1.173 3.84.938 4.565 2.261-.106-3.157 3.819-5.888 5.27-8 9.706-14.357-3.712-23.893-19.286-21.013a47.2 47.2 0 0 0-16.384 6.57l1.558 6.4a35.1 35.1 0 0 1 14.549-7.125c10.71-2.56 22.4 5.632 10.944 15.787"/>
  <path d="M38.784 31.595c-.128 0-10.155 2.133-10.155 2.133-4.97 1.899-2.133 3.435 3.67 2.667 4.522-.619 8.298-2.134 8.213-1.174s-7.403 4.864-6.57 6.294c.831 1.429 8.98-4.395 9.727-3.008.431.664.775 1.381 1.024 2.133 1.238 2.752 2.432 6.059 3.499 4.267a5.59 5.59 0 0 0 0-5.227 5.8 5.8 0 0 1 0-3.477l-1.259-3.158z"/>
</svg>
