<svg xmlns="http://www.w3.org/2000/svg" width="64" height="64" fill="currentColor" viewBox="0 0 64 64">
  <g clip-path="url(#a)">
    <path d="M48 40.533a5.9 5.9 0 0 0-1.067-3.69 6.5 6.5 0 0 0 .704-3.008c0-2.56-1.258-4.63-2.816-4.651v-.512a4.69 4.69 0 0 0-2.24-4.544q.13-.601.128-1.216c0-2.368-1.066-4.267-2.453-4.587q.035-.511 0-1.024a4.97 4.97 0 0 0-1.899-4.266c.043-2.539-1.301-4.502-2.816-4.502s-2.816 2.134-2.816 4.63q.003.633.107 1.258h-.235c-1.578 0-2.837 2.134-2.837 4.651v.32a4.7 4.7 0 0 0-.832 1.472 1.6 1.6 0 0 0-.341-.32 7.4 7.4 0 0 0 .192-1.579c0-2.56-1.28-4.629-2.838-4.629v-.384c0-2.56-1.301-3.541-2.88-3.541s-2.773.981-2.773 3.541q-.016.277 0 .555a5.53 5.53 0 0 0-1.45 4.053c-.02.95.155 1.893.511 2.773a5.04 5.04 0 0 0-1.877 4.267 5 5 0 0 0 0 .576 5.46 5.46 0 0 0-1.515 4.075 6.4 6.4 0 0 0 .918 3.392 6.5 6.5 0 0 0-.726 3.072 6.7 6.7 0 0 0 .64 2.922 8 8 0 0 0-.256 1.942c0 2.538 1.238 4.586 2.795 4.629q-.015.171 0 .341c0 2.347 1.045 4.267 2.432 4.587a3.73 3.73 0 0 0 3.03 1.792 3.99 3.99 0 0 0 3.477-2.581c.325.21.7.328 1.088.341 1.237 0 2.304-1.344 2.666-3.179a2.52 2.52 0 0 0 2.134 1.451h-.022a4.48 4.48 0 0 0 2.134 3.819 4.1 4.1 0 0 0 3.52 2.688c2.133 0 3.84-2.134 4.074-4.886a5.3 5.3 0 0 0 1.664-4.266 8 8 0 0 0-.128-1.238C46.933 44.95 48 42.987 48 40.533"/>
  </g>
  <defs>
    <clipPath id="a">
      <path d="M0 0h64v64H0z"/>
    </clipPath>
  </defs>
</svg>
