<svg xmlns="http://www.w3.org/2000/svg" width="64" height="64" fill="currentColor" viewBox="0 0 64 64">
  <g clip-path="url(#a)">
    <path d="M36.48 15.765a3.7 3.7 0 0 1 .533-1.77 2.6 2.6 0 0 1 2.39-1.323 4.05 4.05 0 0 1 2.432.875q.842.645 1.557 1.429a42 42 0 0 1 5.248 6.4 69 69 0 0 1 4.992 8.917 42.5 42.5 0 0 1 3.499 12.011c.981 7.083.426 11.136-1.6 12.181-2.624 1.366-12.907.448-17.664-2.73a2.88 2.88 0 0 1-1.152-1.536 6.8 6.8 0 0 1-.235-1.494zM34.133 22.272a6.23 6.23 0 0 1-4.266-5.867V6.55H25.6v9.856a6.23 6.23 0 0 1-4.267 5.888v3.542h12.8z"/>
  </g>
  <defs>
    <clipPath id="a">
      <path d="M0 0h64v64H0z"/>
    </clipPath>
  </defs>
</svg>
