<svg xmlns="http://www.w3.org/2000/svg" width="64" height="64" fill="currentColor" viewBox="0 0 64 64">
  <path stroke="currentColor" stroke-miterlimit="10" d="m28.864 32.832 13.013-12.8.555 2.603s-10.24 5.952-13.163 11.946c-.917-2.88-.405-1.749-.405-1.749Z"/>
  <path d="M57.899 5.995c-7.51-1.28-8.406 6.08-12.352 6.4a7.68 7.68 0 0 1-5.014-1.622l-1.856 5.483s2.24 2.133 2.39 3.563c.149 1.429-1.216 6.57.832 10.453s5.034 6.635 5.674 9.493.15 3.883 1.643 10.454c.7 3.617 2.234 7.02 4.48 9.941h4.267zM29.476 47.73c3.772-1.752 4.906-7.313 2.532-12.421s-7.354-7.827-11.126-6.075c-3.772 1.753-4.906 7.314-2.533 12.421 2.373 5.108 7.355 7.827 11.127 6.075"/>
  <path d="M17.813 22.23c2.134 1.834 3.35 3.007 4.672 4.266a5.83 5.83 0 0 0-4.736 1.75 9.7 9.7 0 0 0-2.432 3.22 46 46 0 0 1-6.144-8.277C.597 10.667 12.31 2.432 25.835 4.843a51.3 51.3 0 0 1 16.021 6.762l-2.517 5.462a33.1 33.1 0 0 0-13.206-7.04c-9.322-2.283-18.41 3.349-8.32 12.202"/>
</svg>
