<svg xmlns="http://www.w3.org/2000/svg" width="64" height="64" fill="currentColor" viewBox="0 0 64 64">
  <g clip-path="url(#a)">
    <path d="M35.733 17.899a13.03 13.03 0 0 0-10.56 10.09c-1.237 4.779 0 6.4-1.237 11.691-1.237 5.29-7.68 2.987-9.707 5.781-2.026 2.795-1.621 6.166-4.906 5.27-3.286-.896-6.187-13.803-4.63-20.096 1.558-6.294 3.84-9.728 9.899-12.48s21.141-.256 21.141-.256"/>
    <path d="M59.733 21.333c0-3.136-13.205-4.032-17.557-4.032s-12.33 1.152-14.933 9.238.938 14.592 4.01 14.037 4.395-4.523 7.424-4.736a24.3 24.3 0 0 0 10.667-4.608c3.285-2.283 10.39-6.72 10.39-9.899"/>
  </g>
  <defs>
    <clipPath id="a">
      <path d="M0 0h64v64H0z"/>
    </clipPath>
  </defs>
</svg>
