<svg xmlns="http://www.w3.org/2000/svg" width="64" height="64" fill="currentColor" viewBox="0 0 64 64">
  <g clip-path="url(#a)">
    <path d="M50.306 19.227c-3.484.37-9.932 1.392-9.37 8.29a16.25 16.25 0 0 1-2.445 9.638c-1.514 2.307-3.656 3.155-4.327 4.504-.671 1.35-.238 7.398.995 8.704 1.233 1.305.736 7.637.736 7.637h2.38c.325-2.742.433-5.527.368-8.29.108-7.637 9.326-25.11 13.632-26.763a13.34 13.34 0 0 1 7.465-1.044v-1.088a31 31 0 0 0-9.434-1.588M48.618 13.243c-6.491-.893-9.78-5.092-16.099-4.07-6.318-1.022-9.629 3.047-16.099 4.07A45.9 45.9 0 0 1 4 14.178l.173 3.677c5.756-2.001 24.04-2.98 28.498-2.98 4.457 0 21.487.979 27.156 2.915L60 14.396c-3.83 0-7.638-.392-11.382-1.153M12.764 22.882c4.327 1.653 13.502 19.126 13.632 26.763a53 53 0 0 0 .368 8.29H29.1s-.303-6.528.714-7.638 1.687-7.289 1.017-8.703-2.813-2.176-4.328-4.504a15.93 15.93 0 0 1-2.488-9.639c.54-6.832-5.886-7.855-9.327-8.224a38.6 38.6 0 0 0-10.43 1.566v.718c2.9-.217 5.822.24 8.505 1.37"/>
  </g>
  <defs>
    <clipPath id="a">
      <path d="M4 9h56v49H4z"/>
    </clipPath>
  </defs>
</svg>
