<?xml version="1.0" encoding="UTF-8" standalone="no"?>
<!DOCTYPE svg PUBLIC "-//W3C//DTD SVG 1.1//EN"
 "http://www.w3.org/Graphics/SVG/1.1/DTD/svg11.dtd">
<!-- Generated by graphviz version 2.47.3 (20210619.1520)
 -->
<!-- Title: dependencies Pages: 1 -->
<svg width="3115pt" height="321pt"
 viewBox="0.00 0.00 3115.00 320.80" xmlns="http://www.w3.org/2000/svg" xmlns:xlink="http://www.w3.org/1999/xlink">
<g id="graph0" class="graph" transform="scale(1 1) rotate(0) translate(4 316.8)">
<title>dependencies</title>
<polygon fill="white" stroke="transparent" points="-4,4 -4,-316.8 3111,-316.8 3111,4 -4,4"/>
<text text-anchor="middle" x="1553.5" y="-8.2" font-family="sans-serif" font-size="14.00">dependencies</text>
<g id="clust1" class="cluster">
<title>cluster_AnalyticsModule</title>
<polygon fill="none" stroke="black" stroke-dasharray="1,5" points="8,-32.8 8,-160.8 691,-160.8 691,-32.8 8,-32.8"/>
</g>
<g id="clust6" class="cluster">
<title>cluster_AnalyticsModule_providers</title>
<polygon fill="none" stroke="black" points="16,-40.8 16,-92.8 683,-92.8 683,-40.8 16,-40.8"/>
</g>
<g id="clust7" class="cluster">
<title>cluster_BodyUiModule</title>
<polygon fill="none" stroke="black" stroke-dasharray="1,5" points="699,-32.8 699,-236.8 861,-236.8 861,-32.8 699,-32.8"/>
</g>
<g id="clust8" class="cluster">
<title>cluster_BodyUiModule_declarations</title>
<polygon fill="none" stroke="black" points="709,-40.8 709,-92.8 851,-92.8 851,-40.8 709,-40.8"/>
</g>
<g id="clust11" class="cluster">
<title>cluster_BodyUiModule_exports</title>
<polygon fill="none" stroke="black" points="707,-176.8 707,-228.8 853,-228.8 853,-176.8 707,-176.8"/>
</g>
<g id="clust14" class="cluster">
<title>cluster_DecoratedTextModule</title>
<polygon fill="none" stroke="black" stroke-dasharray="1,5" points="869,-32.8 869,-236.8 1069,-236.8 1069,-32.8 869,-32.8"/>
</g>
<g id="clust15" class="cluster">
<title>cluster_DecoratedTextModule_declarations</title>
<polygon fill="none" stroke="black" points="880,-40.8 880,-92.8 1060,-92.8 1060,-40.8 880,-40.8"/>
</g>
<g id="clust18" class="cluster">
<title>cluster_DecoratedTextModule_exports</title>
<polygon fill="none" stroke="black" points="877,-176.8 877,-228.8 1061,-228.8 1061,-176.8 877,-176.8"/>
</g>
<g id="clust21" class="cluster">
<title>cluster_InfoButtonModule</title>
<polygon fill="none" stroke="black" stroke-dasharray="1,5" points="1455,-32.8 1455,-236.8 1773,-236.8 1773,-32.8 1455,-32.8"/>
</g>
<g id="clust22" class="cluster">
<title>cluster_InfoButtonModule_declarations</title>
<polygon fill="none" stroke="black" points="1463,-40.8 1463,-92.8 1621,-92.8 1621,-40.8 1463,-40.8"/>
</g>
<g id="clust24" class="cluster">
<title>cluster_InfoButtonModule_imports</title>
<polygon fill="none" stroke="black" points="1629,-40.8 1629,-92.8 1765,-92.8 1765,-40.8 1629,-40.8"/>
</g>
<g id="clust25" class="cluster">
<title>cluster_InfoButtonModule_exports</title>
<polygon fill="none" stroke="black" points="1533,-176.8 1533,-228.8 1695,-228.8 1695,-176.8 1533,-176.8"/>
</g>
<g id="clust28" class="cluster">
<title>cluster_InfoDialogModule</title>
<polygon fill="none" stroke="black" stroke-dasharray="1,5" points="1781,-100.8 1781,-168.8 2125,-168.8 2125,-100.8 1781,-100.8"/>
</g>
<g id="clust29" class="cluster">
<title>cluster_InfoDialogModule_declarations</title>
<polygon fill="none" stroke="black" points="1959,-108.8 1959,-160.8 2117,-160.8 2117,-108.8 1959,-108.8"/>
</g>
<g id="clust32" class="cluster">
<title>cluster_InfoDialogModule_exports</title>
<polygon fill="none" stroke="black" points="1789,-108.8 1789,-160.8 1951,-160.8 1951,-108.8 1789,-108.8"/>
</g>
<g id="clust41" class="cluster">
<title>cluster_NumbersOnlyModule</title>
<polygon fill="none" stroke="black" stroke-dasharray="1,5" points="2133,-32.8 2133,-236.8 2287,-236.8 2287,-32.8 2133,-32.8"/>
</g>
<g id="clust42" class="cluster">
<title>cluster_NumbersOnlyModule_declarations</title>
<polygon fill="none" stroke="black" points="2145,-40.8 2145,-92.8 2275,-92.8 2275,-40.8 2145,-40.8"/>
</g>
<g id="clust45" class="cluster">
<title>cluster_NumbersOnlyModule_exports</title>
<polygon fill="none" stroke="black" points="2143,-176.8 2143,-228.8 2277,-228.8 2277,-176.8 2143,-176.8"/>
</g>
<g id="clust48" class="cluster">
<title>cluster_OpacitySliderModule</title>
<polygon fill="none" stroke="black" stroke-dasharray="1,5" points="2295,-32.8 2295,-236.8 2489,-236.8 2489,-32.8 2295,-32.8"/>
</g>
<g id="clust49" class="cluster">
<title>cluster_OpacitySliderModule_declarations</title>
<polygon fill="none" stroke="black" points="2304,-40.8 2304,-92.8 2480,-92.8 2480,-40.8 2304,-40.8"/>
</g>
<g id="clust52" class="cluster">
<title>cluster_OpacitySliderModule_exports</title>
<polygon fill="none" stroke="black" points="2303,-176.8 2303,-228.8 2481,-228.8 2481,-176.8 2303,-176.8"/>
</g>
<g id="clust55" class="cluster">
<title>cluster_OrganSelectorModule</title>
<polygon fill="none" stroke="black" stroke-dasharray="1,5" points="2497,-32.8 2497,-236.8 2695,-236.8 2695,-32.8 2497,-32.8"/>
</g>
<g id="clust56" class="cluster">
<title>cluster_OrganSelectorModule_declarations</title>
<polygon fill="none" stroke="black" points="2507,-40.8 2507,-92.8 2685,-92.8 2685,-40.8 2507,-40.8"/>
</g>
<g id="clust59" class="cluster">
<title>cluster_OrganSelectorModule_exports</title>
<polygon fill="none" stroke="black" points="2505,-176.8 2505,-228.8 2687,-228.8 2687,-176.8 2505,-176.8"/>
</g>
<g id="clust62" class="cluster">
<title>cluster_StoreDebugModule</title>
<polygon fill="none" stroke="black" stroke-dasharray="1,5" points="2703,-32.8 2703,-236.8 2887,-236.8 2887,-32.8 2703,-32.8"/>
</g>
<g id="clust63" class="cluster">
<title>cluster_StoreDebugModule_declarations</title>
<polygon fill="none" stroke="black" points="2713,-40.8 2713,-92.8 2877,-92.8 2877,-40.8 2713,-40.8"/>
</g>
<g id="clust66" class="cluster">
<title>cluster_StoreDebugModule_exports</title>
<polygon fill="none" stroke="black" points="2711,-176.8 2711,-228.8 2879,-228.8 2879,-176.8 2711,-176.8"/>
</g>
<g id="clust69" class="cluster">
<title>cluster_TextSearchModule</title>
<polygon fill="none" stroke="black" stroke-dasharray="1,5" points="1077,-100.8 1077,-304.8 1447,-304.8 1447,-100.8 1077,-100.8"/>
</g>
<g id="clust70" class="cluster">
<title>cluster_TextSearchModule_declarations</title>
<polygon fill="none" stroke="black" points="1151,-108.8 1151,-160.8 1313,-160.8 1313,-108.8 1151,-108.8"/>
</g>
<g id="clust73" class="cluster">
<title>cluster_TextSearchModule_exports</title>
<polygon fill="none" stroke="black" points="1085,-244.8 1085,-296.8 1439,-296.8 1439,-244.8 1085,-244.8"/>
</g>
<g id="clust76" class="cluster">
<title>cluster_TrackingPopupModule</title>
<polygon fill="none" stroke="black" stroke-dasharray="1,5" points="2895,-32.8 2895,-236.8 3099,-236.8 3099,-32.8 2895,-32.8"/>
</g>
<g id="clust77" class="cluster">
<title>cluster_TrackingPopupModule_declarations</title>
<polygon fill="none" stroke="black" points="2905,-40.8 2905,-92.8 3089,-92.8 3089,-40.8 2905,-40.8"/>
</g>
<g id="clust80" class="cluster">
<title>cluster_TrackingPopupModule_exports</title>
<polygon fill="none" stroke="black" points="2903,-176.8 2903,-228.8 3091,-228.8 3091,-176.8 2903,-176.8"/>
</g>
<!-- ConsentService -->
<g id="node1" class="node">
<title>ConsentService</title>
<ellipse fill="#fdb462" stroke="black" cx="603" cy="-66.8" rx="71.79" ry="18"/>
<text text-anchor="middle" x="603" y="-62.6" font-family="Times,serif" font-size="14.00">ConsentService</text>
</g>
<!-- AnalyticsModule -->
<g id="node4" class="node">
<title>AnalyticsModule</title>
<polygon fill="#8dd3c7" stroke="black" points="445.7,-152.8 442.7,-156.8 421.7,-156.8 418.7,-152.8 332.3,-152.8 332.3,-116.8 445.7,-116.8 445.7,-152.8"/>
<text text-anchor="middle" x="389" y="-130.6" font-family="Times,serif" font-size="14.00">AnalyticsModule</text>
</g>
<!-- ConsentService&#45;&gt;AnalyticsModule -->
<g id="edge1" class="edge">
<title>ConsentService&#45;&gt;AnalyticsModule</title>
<path fill="none" stroke="black" d="M603,-85.02C603,-105.17 603,-134.8 603,-134.8 603,-134.8 455.79,-134.8 455.79,-134.8"/>
<polygon fill="black" stroke="black" points="455.79,-131.3 445.79,-134.8 455.79,-138.3 455.79,-131.3"/>
</g>
<!-- GoogleAnalyticsSyncService -->
<g id="node2" class="node">
<title>GoogleAnalyticsSyncService</title>
<ellipse fill="#fdb462" stroke="black" cx="389" cy="-66.8" rx="124.98" ry="18"/>
<text text-anchor="middle" x="389" y="-62.6" font-family="Times,serif" font-size="14.00">GoogleAnalyticsSyncService</text>
</g>
<!-- GoogleAnalyticsSyncService&#45;&gt;AnalyticsModule -->
<g id="edge2" class="edge">
<title>GoogleAnalyticsSyncService&#45;&gt;AnalyticsModule</title>
<path fill="none" stroke="black" d="M389,-85.02C389,-85.02 389,-106.53 389,-106.53"/>
<polygon fill="black" stroke="black" points="385.5,-106.53 389,-116.53 392.5,-106.53 385.5,-106.53"/>
</g>
<!-- LocalStorageSyncService -->
<g id="node3" class="node">
<title>LocalStorageSyncService</title>
<ellipse fill="#fdb462" stroke="black" cx="135" cy="-66.8" rx="110.57" ry="18"/>
<text text-anchor="middle" x="135" y="-62.6" font-family="Times,serif" font-size="14.00">LocalStorageSyncService</text>
</g>
<!-- LocalStorageSyncService&#45;&gt;AnalyticsModule -->
<g id="edge3" class="edge">
<title>LocalStorageSyncService&#45;&gt;AnalyticsModule</title>
<path fill="none" stroke="black" d="M135,-85.02C135,-105.17 135,-134.8 135,-134.8 135,-134.8 322.31,-134.8 322.31,-134.8"/>
<polygon fill="black" stroke="black" points="322.31,-138.3 332.31,-134.8 322.31,-131.3 322.31,-138.3"/>
</g>
<!-- BodyUiComponent -->
<g id="node5" class="node">
<title>BodyUiComponent</title>
<polygon fill="#ffffb3" stroke="black" points="842.67,-84.8 717.33,-84.8 717.33,-48.8 842.67,-48.8 842.67,-84.8"/>
<text text-anchor="middle" x="780" y="-62.6" font-family="Times,serif" font-size="14.00">BodyUiComponent</text>
</g>
<!-- BodyUiModule -->
<g id="node6" class="node">
<title>BodyUiModule</title>
<polygon fill="#8dd3c7" stroke="black" points="831.88,-152.8 828.88,-156.8 807.88,-156.8 804.88,-152.8 728.12,-152.8 728.12,-116.8 831.88,-116.8 831.88,-152.8"/>
<text text-anchor="middle" x="780" y="-130.6" font-family="Times,serif" font-size="14.00">BodyUiModule</text>
</g>
<!-- BodyUiComponent&#45;&gt;BodyUiModule -->
<g id="edge4" class="edge">
<title>BodyUiComponent&#45;&gt;BodyUiModule</title>
<path fill="none" stroke="black" d="M780,-85.02C780,-85.02 780,-106.53 780,-106.53"/>
<polygon fill="black" stroke="black" points="776.5,-106.53 780,-116.53 783.5,-106.53 776.5,-106.53"/>
</g>
<!-- BodyUiComponent  -->
<g id="node7" class="node">
<title>BodyUiComponent </title>
<polygon fill="#fb8072" stroke="black" points="844.67,-220.8 715.33,-220.8 715.33,-184.8 844.67,-184.8 844.67,-220.8"/>
<text text-anchor="middle" x="780" y="-198.6" font-family="Times,serif" font-size="14.00">BodyUiComponent </text>
</g>
<!-- BodyUiModule&#45;&gt;BodyUiComponent  -->
<g id="edge5" class="edge">
<title>BodyUiModule&#45;&gt;BodyUiComponent </title>
<path fill="none" stroke="black" stroke-dasharray="5,2" d="M780,-153.02C780,-153.02 780,-174.53 780,-174.53"/>
<polygon fill="black" stroke="black" points="776.5,-174.53 780,-184.53 783.5,-174.53 776.5,-174.53"/>
</g>
<!-- DecoratedTextComponent -->
<g id="node8" class="node">
<title>DecoratedTextComponent</title>
<polygon fill="#ffffb3" stroke="black" points="1052.01,-84.8 887.99,-84.8 887.99,-48.8 1052.01,-48.8 1052.01,-84.8"/>
<text text-anchor="middle" x="970" y="-62.6" font-family="Times,serif" font-size="14.00">DecoratedTextComponent</text>
</g>
<!-- DecoratedTextModule -->
<g id="node9" class="node">
<title>DecoratedTextModule</title>
<polygon fill="#8dd3c7" stroke="black" points="1041.22,-152.8 1038.22,-156.8 1017.22,-156.8 1014.22,-152.8 898.78,-152.8 898.78,-116.8 1041.22,-116.8 1041.22,-152.8"/>
<text text-anchor="middle" x="970" y="-130.6" font-family="Times,serif" font-size="14.00">DecoratedTextModule</text>
</g>
<!-- DecoratedTextComponent&#45;&gt;DecoratedTextModule -->
<g id="edge6" class="edge">
<title>DecoratedTextComponent&#45;&gt;DecoratedTextModule</title>
<path fill="none" stroke="black" d="M970,-85.02C970,-85.02 970,-106.53 970,-106.53"/>
<polygon fill="black" stroke="black" points="966.5,-106.53 970,-116.53 973.5,-106.53 966.5,-106.53"/>
</g>
<!-- DecoratedTextComponent  -->
<g id="node10" class="node">
<title>DecoratedTextComponent </title>
<polygon fill="#fb8072" stroke="black" points="1053.01,-220.8 884.99,-220.8 884.99,-184.8 1053.01,-184.8 1053.01,-220.8"/>
<text text-anchor="middle" x="969" y="-198.6" font-family="Times,serif" font-size="14.00">DecoratedTextComponent </text>
</g>
<!-- DecoratedTextModule&#45;&gt;DecoratedTextComponent  -->
<g id="edge7" class="edge">
<title>DecoratedTextModule&#45;&gt;DecoratedTextComponent </title>
<path fill="none" stroke="black" stroke-dasharray="5,2" d="M970,-153.02C970,-153.02 970,-174.53 970,-174.53"/>
<polygon fill="black" stroke="black" points="966.5,-174.53 970,-184.53 973.5,-174.53 966.5,-174.53"/>
</g>
<!-- TextSearchModule -->
<g id="node30" class="node">
<title>TextSearchModule</title>
<polygon fill="#8dd3c7" stroke="black" points="1293.79,-220.8 1290.79,-224.8 1269.79,-224.8 1266.79,-220.8 1170.21,-220.8 1170.21,-184.8 1293.79,-184.8 1293.79,-220.8"/>
<text text-anchor="middle" x="1232" y="-198.6" font-family="Times,serif" font-size="14.00">TextSearchModule</text>
</g>
<!-- DecoratedTextModule&#45;&gt;TextSearchModule -->
<g id="edge22" class="edge">
<title>DecoratedTextModule&#45;&gt;TextSearchModule</title>
<path fill="none" stroke="black" d="M1041.44,-134.8C1058.99,-134.8 1072.86,-134.8 1072.86,-134.8 1072.86,-134.8 1072.86,-202.8 1072.86,-202.8 1072.86,-202.8 1160.02,-202.8 1160.02,-202.8"/>
<polygon fill="black" stroke="black" points="1160.02,-206.3 1170.02,-202.8 1160.02,-199.3 1160.02,-206.3"/>
</g>
<!-- InfoButtonComponent -->
<g id="node11" class="node">
<title>InfoButtonComponent</title>
<polygon fill="#ffffb3" stroke="black" points="1613.27,-84.8 1470.73,-84.8 1470.73,-48.8 1613.27,-48.8 1613.27,-84.8"/>
<text text-anchor="middle" x="1542" y="-62.6" font-family="Times,serif" font-size="14.00">InfoButtonComponent</text>
</g>
<!-- InfoButtonModule -->
<g id="node12" class="node">
<title>InfoButtonModule</title>
<polygon fill="#8dd3c7" stroke="black" points="1674.49,-152.8 1671.49,-156.8 1650.49,-156.8 1647.49,-152.8 1553.51,-152.8 1553.51,-116.8 1674.49,-116.8 1674.49,-152.8"/>
<text text-anchor="middle" x="1614" y="-130.6" font-family="Times,serif" font-size="14.00">InfoButtonModule</text>
</g>
<!-- InfoButtonComponent&#45;&gt;InfoButtonModule -->
<g id="edge8" class="edge">
<title>InfoButtonComponent&#45;&gt;InfoButtonModule</title>
<path fill="none" stroke="black" d="M1583.45,-85.02C1583.45,-85.02 1583.45,-106.53 1583.45,-106.53"/>
<polygon fill="black" stroke="black" points="1579.95,-106.53 1583.45,-116.53 1586.95,-106.53 1579.95,-106.53"/>
</g>
<!-- InfoButtonComponent  -->
<g id="node14" class="node">
<title>InfoButtonComponent </title>
<polygon fill="#fb8072" stroke="black" points="1687.27,-220.8 1540.73,-220.8 1540.73,-184.8 1687.27,-184.8 1687.27,-220.8"/>
<text text-anchor="middle" x="1614" y="-198.6" font-family="Times,serif" font-size="14.00">InfoButtonComponent </text>
</g>
<!-- InfoButtonModule&#45;&gt;InfoButtonComponent  -->
<g id="edge10" class="edge">
<title>InfoButtonModule&#45;&gt;InfoButtonComponent </title>
<path fill="none" stroke="black" stroke-dasharray="5,2" d="M1614,-153.02C1614,-153.02 1614,-174.53 1614,-174.53"/>
<polygon fill="black" stroke="black" points="1610.5,-174.53 1614,-184.53 1617.5,-174.53 1610.5,-174.53"/>
</g>
<!-- InfoDialogModule -->
<g id="node13" class="node">
<title>InfoDialogModule</title>
<polygon fill="#8dd3c7" stroke="black" points="1757.47,-84.8 1754.47,-88.8 1733.47,-88.8 1730.47,-84.8 1636.53,-84.8 1636.53,-48.8 1757.47,-48.8 1757.47,-84.8"/>
<text text-anchor="middle" x="1697" y="-62.6" font-family="Times,serif" font-size="14.00">InfoDialogModule</text>
</g>
<!-- InfoDialogModule&#45;&gt;InfoButtonModule -->
<g id="edge9" class="edge">
<title>InfoDialogModule&#45;&gt;InfoButtonModule</title>
<path fill="none" stroke="black" d="M1655.5,-85.02C1655.5,-85.02 1655.5,-106.53 1655.5,-106.53"/>
<polygon fill="black" stroke="black" points="1652,-106.53 1655.5,-116.53 1659,-106.53 1652,-106.53"/>
</g>
<!-- InfoDialogComponent  -->
<g id="node16" class="node">
<title>InfoDialogComponent </title>
<polygon fill="#fb8072" stroke="black" points="1943.26,-152.8 1796.74,-152.8 1796.74,-116.8 1943.26,-116.8 1943.26,-152.8"/>
<text text-anchor="middle" x="1870" y="-130.6" font-family="Times,serif" font-size="14.00">InfoDialogComponent </text>
</g>
<!-- InfoDialogModule&#45;&gt;InfoDialogComponent  -->
<g id="edge12" class="edge">
<title>InfoDialogModule&#45;&gt;InfoDialogComponent </title>
<path fill="none" stroke="black" stroke-dasharray="5,2" d="M1722.31,-85.02C1722.31,-105.17 1722.31,-134.8 1722.31,-134.8 1722.31,-134.8 1786.59,-134.8 1786.59,-134.8"/>
<polygon fill="black" stroke="black" points="1786.59,-138.3 1796.59,-134.8 1786.59,-131.3 1786.59,-138.3"/>
</g>
<!-- InfoDialogComponent -->
<g id="node15" class="node">
<title>InfoDialogComponent</title>
<polygon fill="#ffffb3" stroke="black" points="2109.26,-152.8 1966.74,-152.8 1966.74,-116.8 2109.26,-116.8 2109.26,-152.8"/>
<text text-anchor="middle" x="2038" y="-130.6" font-family="Times,serif" font-size="14.00">InfoDialogComponent</text>
</g>
<!-- InfoDialogComponent&#45;&gt;InfoDialogModule -->
<g id="edge11" class="edge">
<title>InfoDialogComponent&#45;&gt;InfoDialogModule</title>
<path fill="none" stroke="black" d="M2038,-116.58C2038,-96.43 2038,-66.8 2038,-66.8 2038,-66.8 1767.57,-66.8 1767.57,-66.8"/>
<polygon fill="black" stroke="black" points="1767.57,-63.3 1757.57,-66.8 1767.57,-70.3 1767.57,-63.3"/>
</g>
<!-- NumberDirective -->
<g id="node17" class="node">
<title>NumberDirective</title>
<polygon fill="#ffffb3" stroke="black" points="2266.96,-84.8 2153.04,-84.8 2153.04,-48.8 2266.96,-48.8 2266.96,-84.8"/>
<text text-anchor="middle" x="2210" y="-62.6" font-family="Times,serif" font-size="14.00">NumberDirective</text>
</g>
<!-- NumbersOnlyModule -->
<g id="node18" class="node">
<title>NumbersOnlyModule</title>
<polygon fill="#8dd3c7" stroke="black" points="2279.36,-152.8 2276.36,-156.8 2255.36,-156.8 2252.36,-152.8 2140.64,-152.8 2140.64,-116.8 2279.36,-116.8 2279.36,-152.8"/>
<text text-anchor="middle" x="2210" y="-130.6" font-family="Times,serif" font-size="14.00">NumbersOnlyModule</text>
</g>
<!-- NumberDirective&#45;&gt;NumbersOnlyModule -->
<g id="edge13" class="edge">
<title>NumberDirective&#45;&gt;NumbersOnlyModule</title>
<path fill="none" stroke="black" d="M2210,-85.02C2210,-85.02 2210,-106.53 2210,-106.53"/>
<polygon fill="black" stroke="black" points="2206.5,-106.53 2210,-116.53 2213.5,-106.53 2206.5,-106.53"/>
</g>
<!-- NumberDirective  -->
<g id="node19" class="node">
<title>NumberDirective </title>
<polygon fill="#fb8072" stroke="black" points="2268.96,-220.8 2151.04,-220.8 2151.04,-184.8 2268.96,-184.8 2268.96,-220.8"/>
<text text-anchor="middle" x="2210" y="-198.6" font-family="Times,serif" font-size="14.00">NumberDirective </text>
</g>
<!-- NumbersOnlyModule&#45;&gt;NumberDirective  -->
<g id="edge14" class="edge">
<title>NumbersOnlyModule&#45;&gt;NumberDirective </title>
<path fill="none" stroke="black" stroke-dasharray="5,2" d="M2210,-153.02C2210,-153.02 2210,-174.53 2210,-174.53"/>
<polygon fill="black" stroke="black" points="2206.5,-174.53 2210,-184.53 2213.5,-174.53 2206.5,-174.53"/>
</g>
<!-- OpacitySliderComponent -->
<g id="node20" class="node">
<title>OpacitySliderComponent</title>
<polygon fill="#ffffb3" stroke="black" points="2471.59,-84.8 2312.41,-84.8 2312.41,-48.8 2471.59,-48.8 2471.59,-84.8"/>
<text text-anchor="middle" x="2392" y="-62.6" font-family="Times,serif" font-size="14.00">OpacitySliderComponent</text>
</g>
<!-- OpacitySliderModule -->
<g id="node21" class="node">
<title>OpacitySliderModule</title>
<polygon fill="#8dd3c7" stroke="black" points="2460.81,-152.8 2457.81,-156.8 2436.81,-156.8 2433.81,-152.8 2323.19,-152.8 2323.19,-116.8 2460.81,-116.8 2460.81,-152.8"/>
<text text-anchor="middle" x="2392" y="-130.6" font-family="Times,serif" font-size="14.00">OpacitySliderModule</text>
</g>
<!-- OpacitySliderComponent&#45;&gt;OpacitySliderModule -->
<g id="edge15" class="edge">
<title>OpacitySliderComponent&#45;&gt;OpacitySliderModule</title>
<path fill="none" stroke="black" d="M2392,-85.02C2392,-85.02 2392,-106.53 2392,-106.53"/>
<polygon fill="black" stroke="black" points="2388.5,-106.53 2392,-116.53 2395.5,-106.53 2388.5,-106.53"/>
</g>
<!-- OpacitySliderComponent  -->
<g id="node22" class="node">
<title>OpacitySliderComponent </title>
<polygon fill="#fb8072" stroke="black" points="2473.09,-220.8 2310.91,-220.8 2310.91,-184.8 2473.09,-184.8 2473.09,-220.8"/>
<text text-anchor="middle" x="2392" y="-198.6" font-family="Times,serif" font-size="14.00">OpacitySliderComponent </text>
</g>
<!-- OpacitySliderModule&#45;&gt;OpacitySliderComponent  -->
<g id="edge16" class="edge">
<title>OpacitySliderModule&#45;&gt;OpacitySliderComponent </title>
<path fill="none" stroke="black" stroke-dasharray="5,2" d="M2392,-153.02C2392,-153.02 2392,-174.53 2392,-174.53"/>
<polygon fill="black" stroke="black" points="2388.5,-174.53 2392,-184.53 2395.5,-174.53 2388.5,-174.53"/>
</g>
<!-- OrganSelectorComponent -->
<g id="node23" class="node">
<title>OrganSelectorComponent</title>
<polygon fill="#ffffb3" stroke="black" points="2677.18,-84.8 2514.82,-84.8 2514.82,-48.8 2677.18,-48.8 2677.18,-84.8"/>
<text text-anchor="middle" x="2596" y="-62.6" font-family="Times,serif" font-size="14.00">OrganSelectorComponent</text>
</g>
<!-- OrganSelectorModule -->
<g id="node24" class="node">
<title>OrganSelectorModule</title>
<polygon fill="#8dd3c7" stroke="black" points="2666.4,-152.8 2663.4,-156.8 2642.4,-156.8 2639.4,-152.8 2525.6,-152.8 2525.6,-116.8 2666.4,-116.8 2666.4,-152.8"/>
<text text-anchor="middle" x="2596" y="-130.6" font-family="Times,serif" font-size="14.00">OrganSelectorModule</text>
</g>
<!-- OrganSelectorComponent&#45;&gt;OrganSelectorModule -->
<g id="edge17" class="edge">
<title>OrganSelectorComponent&#45;&gt;OrganSelectorModule</title>
<path fill="none" stroke="black" d="M2596,-85.02C2596,-85.02 2596,-106.53 2596,-106.53"/>
<polygon fill="black" stroke="black" points="2592.5,-106.53 2596,-116.53 2599.5,-106.53 2592.5,-106.53"/>
</g>
<!-- OrganSelectorComponent  -->
<g id="node25" class="node">
<title>OrganSelectorComponent </title>
<polygon fill="#fb8072" stroke="black" points="2678.68,-220.8 2513.32,-220.8 2513.32,-184.8 2678.68,-184.8 2678.68,-220.8"/>
<text text-anchor="middle" x="2596" y="-198.6" font-family="Times,serif" font-size="14.00">OrganSelectorComponent </text>
</g>
<!-- OrganSelectorModule&#45;&gt;OrganSelectorComponent  -->
<g id="edge18" class="edge">
<title>OrganSelectorModule&#45;&gt;OrganSelectorComponent </title>
<path fill="none" stroke="black" stroke-dasharray="5,2" d="M2596,-153.02C2596,-153.02 2596,-174.53 2596,-174.53"/>
<polygon fill="black" stroke="black" points="2592.5,-174.53 2596,-184.53 2599.5,-174.53 2592.5,-174.53"/>
</g>
<!-- StoreDebugComponent -->
<g id="node26" class="node">
<title>StoreDebugComponent</title>
<polygon fill="#ffffb3" stroke="black" points="2869.2,-84.8 2720.8,-84.8 2720.8,-48.8 2869.2,-48.8 2869.2,-84.8"/>
<text text-anchor="middle" x="2795" y="-62.6" font-family="Times,serif" font-size="14.00">StoreDebugComponent</text>
</g>
<!-- StoreDebugModule -->
<g id="node27" class="node">
<title>StoreDebugModule</title>
<polygon fill="#8dd3c7" stroke="black" points="2858.42,-152.8 2855.42,-156.8 2834.42,-156.8 2831.42,-152.8 2731.58,-152.8 2731.58,-116.8 2858.42,-116.8 2858.42,-152.8"/>
<text text-anchor="middle" x="2795" y="-130.6" font-family="Times,serif" font-size="14.00">StoreDebugModule</text>
</g>
<!-- StoreDebugComponent&#45;&gt;StoreDebugModule -->
<g id="edge19" class="edge">
<title>StoreDebugComponent&#45;&gt;StoreDebugModule</title>
<path fill="none" stroke="black" d="M2795,-85.02C2795,-85.02 2795,-106.53 2795,-106.53"/>
<polygon fill="black" stroke="black" points="2791.5,-106.53 2795,-116.53 2798.5,-106.53 2791.5,-106.53"/>
</g>
<!-- StoreDebugComponent  -->
<g id="node28" class="node">
<title>StoreDebugComponent </title>
<polygon fill="#fb8072" stroke="black" points="2870.7,-220.8 2719.3,-220.8 2719.3,-184.8 2870.7,-184.8 2870.7,-220.8"/>
<text text-anchor="middle" x="2795" y="-198.6" font-family="Times,serif" font-size="14.00">StoreDebugComponent </text>
</g>
<!-- StoreDebugModule&#45;&gt;StoreDebugComponent  -->
<g id="edge20" class="edge">
<title>StoreDebugModule&#45;&gt;StoreDebugComponent </title>
<path fill="none" stroke="black" stroke-dasharray="5,2" d="M2795,-153.02C2795,-153.02 2795,-174.53 2795,-174.53"/>
<polygon fill="black" stroke="black" points="2791.5,-174.53 2795,-184.53 2798.5,-174.53 2791.5,-174.53"/>
</g>
<!-- TextSearchComponent -->
<g id="node29" class="node">
<title>TextSearchComponent</title>
<polygon fill="#ffffb3" stroke="black" points="1304.58,-152.8 1159.42,-152.8 1159.42,-116.8 1304.58,-116.8 1304.58,-152.8"/>
<text text-anchor="middle" x="1232" y="-130.6" font-family="Times,serif" font-size="14.00">TextSearchComponent</text>
</g>
<!-- TextSearchComponent&#45;&gt;TextSearchModule -->
<g id="edge21" class="edge">
<title>TextSearchComponent&#45;&gt;TextSearchModule</title>
<path fill="none" stroke="black" d="M1232,-153.02C1232,-153.02 1232,-174.53 1232,-174.53"/>
<polygon fill="black" stroke="black" points="1228.5,-174.53 1232,-184.53 1235.5,-174.53 1228.5,-174.53"/>
</g>
<!-- MatPrefix  -->
<g id="node31" class="node">
<title>MatPrefix </title>
<polygon fill="#fb8072" stroke="black" points="1431.26,-288.8 1354.74,-288.8 1354.74,-252.8 1431.26,-252.8 1431.26,-288.8"/>
<text text-anchor="middle" x="1393" y="-266.6" font-family="Times,serif" font-size="14.00">MatPrefix </text>
</g>
<!-- TextSearchModule&#45;&gt;MatPrefix  -->
<g id="edge23" class="edge">
<title>TextSearchModule&#45;&gt;MatPrefix </title>
<path fill="none" stroke="black" stroke-dasharray="5,2" d="M1293.79,-202.8C1339.19,-202.8 1393,-202.8 1393,-202.8 1393,-202.8 1393,-242.58 1393,-242.58"/>
<polygon fill="black" stroke="black" points="1389.5,-242.58 1393,-252.58 1396.5,-242.58 1389.5,-242.58"/>
</g>
<!-- MatSuffix  -->
<g id="node32" class="node">
<title>MatSuffix </title>
<polygon fill="#fb8072" stroke="black" points="1336.54,-288.8 1259.46,-288.8 1259.46,-252.8 1336.54,-252.8 1336.54,-288.8"/>
<text text-anchor="middle" x="1298" y="-266.6" font-family="Times,serif" font-size="14.00">MatSuffix </text>
</g>
<!-- TextSearchModule&#45;&gt;MatSuffix  -->
<g id="edge24" class="edge">
<title>TextSearchModule&#45;&gt;MatSuffix </title>
<path fill="none" stroke="black" stroke-dasharray="5,2" d="M1276.56,-221.02C1276.56,-221.02 1276.56,-242.53 1276.56,-242.53"/>
<polygon fill="black" stroke="black" points="1273.06,-242.53 1276.56,-252.53 1280.06,-242.53 1273.06,-242.53"/>
</g>
<!-- TextSearchComponent  -->
<g id="node33" class="node">
<title>TextSearchComponent </title>
<polygon fill="#fb8072" stroke="black" points="1241.08,-288.8 1092.92,-288.8 1092.92,-252.8 1241.08,-252.8 1241.08,-288.8"/>
<text text-anchor="middle" x="1167" y="-266.6" font-family="Times,serif" font-size="14.00">TextSearchComponent </text>
</g>
<!-- TextSearchModule&#45;&gt;TextSearchComponent  -->
<g id="edge25" class="edge">
<title>TextSearchModule&#45;&gt;TextSearchComponent </title>
<path fill="none" stroke="black" stroke-dasharray="5,2" d="M1205.82,-221.02C1205.82,-221.02 1205.82,-242.53 1205.82,-242.53"/>
<polygon fill="black" stroke="black" points="1202.32,-242.53 1205.82,-252.53 1209.32,-242.53 1202.32,-242.53"/>
</g>
<!-- TrackingPopupComponent -->
<g id="node34" class="node">
<title>TrackingPopupComponent</title>
<polygon fill="#ffffb3" stroke="black" points="3080.65,-84.8 2913.35,-84.8 2913.35,-48.8 3080.65,-48.8 3080.65,-84.8"/>
<text text-anchor="middle" x="2997" y="-62.6" font-family="Times,serif" font-size="14.00">TrackingPopupComponent</text>
</g>
<!-- TrackingPopupModule -->
<g id="node35" class="node">
<title>TrackingPopupModule</title>
<polygon fill="#8dd3c7" stroke="black" points="3069.87,-152.8 3066.87,-156.8 3045.87,-156.8 3042.87,-152.8 2924.13,-152.8 2924.13,-116.8 3069.87,-116.8 3069.87,-152.8"/>
<text text-anchor="middle" x="2997" y="-130.6" font-family="Times,serif" font-size="14.00">TrackingPopupModule</text>
</g>
<!-- TrackingPopupComponent&#45;&gt;TrackingPopupModule -->
<g id="edge26" class="edge">
<title>TrackingPopupComponent&#45;&gt;TrackingPopupModule</title>
<path fill="none" stroke="black" d="M2997,-85.02C2997,-85.02 2997,-106.53 2997,-106.53"/>
<polygon fill="black" stroke="black" points="2993.5,-106.53 2997,-116.53 3000.5,-106.53 2993.5,-106.53"/>
</g>
<!-- TrackingPopupComponent  -->
<g id="node36" class="node">
<title>TrackingPopupComponent </title>
<polygon fill="#fb8072" stroke="black" points="3082.65,-220.8 2911.35,-220.8 2911.35,-184.8 3082.65,-184.8 3082.65,-220.8"/>
<text text-anchor="middle" x="2997" y="-198.6" font-family="Times,serif" font-size="14.00">TrackingPopupComponent </text>
</g>
<!-- TrackingPopupModule&#45;&gt;TrackingPopupComponent  -->
<g id="edge27" class="edge">
<title>TrackingPopupModule&#45;&gt;TrackingPopupComponent </title>
<path fill="none" stroke="black" stroke-dasharray="5,2" d="M2997,-153.02C2997,-153.02 2997,-174.53 2997,-174.53"/>
<polygon fill="black" stroke="black" points="2993.5,-174.53 2997,-184.53 3000.5,-174.53 2993.5,-174.53"/>
</g>
</g>
</svg>
