<?xml version="1.0" encoding="UTF-8" standalone="no"?>
<!DOCTYPE svg PUBLIC "-//W3C//DTD SVG 1.1//EN"
 "http://www.w3.org/Graphics/SVG/1.1/DTD/svg11.dtd">
<!-- Generated by graphviz version 2.47.3 (20210619.1520)
 -->
<!-- Title: dependencies Pages: 1 -->
<svg width="4333pt" height="321pt"
 viewBox="0.00 0.00 4333.00 320.80" xmlns="http://www.w3.org/2000/svg" xmlns:xlink="http://www.w3.org/1999/xlink">
<g id="graph0" class="graph" transform="scale(1 1) rotate(0) translate(4 316.8)">
<title>dependencies</title>
<polygon fill="white" stroke="transparent" points="-4,4 -4,-316.8 4329,-316.8 4329,4 -4,4"/>
<text text-anchor="middle" x="2162.5" y="-8.2" font-family="sans-serif" font-size="14.00">dependencies</text>
<g id="clust1" class="cluster">
<title>cluster_AnalyticsModule</title>
<polygon fill="none" stroke="black" stroke-dasharray="1,5" points="8,-32.8 8,-160.8 691,-160.8 691,-32.8 8,-32.8"/>
</g>
<g id="clust6" class="cluster">
<title>cluster_AnalyticsModule_providers</title>
<polygon fill="none" stroke="black" points="16,-40.8 16,-92.8 683,-92.8 683,-40.8 16,-40.8"/>
</g>
<g id="clust7" class="cluster">
<title>cluster_BodyUiModule</title>
<polygon fill="none" stroke="black" stroke-dasharray="1,5" points="699,-32.8 699,-236.8 861,-236.8 861,-32.8 699,-32.8"/>
</g>
<g id="clust8" class="cluster">
<title>cluster_BodyUiModule_declarations</title>
<polygon fill="none" stroke="black" points="709,-40.8 709,-92.8 851,-92.8 851,-40.8 709,-40.8"/>
</g>
<g id="clust11" class="cluster">
<title>cluster_BodyUiModule_exports</title>
<polygon fill="none" stroke="black" points="707,-176.8 707,-228.8 853,-228.8 853,-176.8 707,-176.8"/>
</g>
<g id="clust14" class="cluster">
<title>cluster_CallToActionBehaviorModule</title>
<polygon fill="none" stroke="black" stroke-dasharray="1,5" points="869,-32.8 869,-236.8 1271,-236.8 1271,-32.8 869,-32.8"/>
</g>
<g id="clust15" class="cluster">
<title>cluster_CallToActionBehaviorModule_declarations</title>
<polygon fill="none" stroke="black" points="877,-40.8 877,-92.8 1103,-92.8 1103,-40.8 877,-40.8"/>
</g>
<g id="clust17" class="cluster">
<title>cluster_CallToActionBehaviorModule_imports</title>
<polygon fill="none" stroke="black" points="1111,-40.8 1111,-92.8 1263,-92.8 1263,-40.8 1111,-40.8"/>
</g>
<g id="clust18" class="cluster">
<title>cluster_CallToActionBehaviorModule_exports</title>
<polygon fill="none" stroke="black" points="955,-176.8 955,-228.8 1185,-228.8 1185,-176.8 955,-176.8"/>
</g>
<g id="clust21" class="cluster">
<title>cluster_CallToActionModule</title>
<polygon fill="none" stroke="black" stroke-dasharray="1,5" points="1279,-100.8 1279,-168.8 1655,-168.8 1655,-100.8 1279,-100.8"/>
</g>
<g id="clust22" class="cluster">
<title>cluster_CallToActionModule_declarations</title>
<polygon fill="none" stroke="black" points="1473,-108.8 1473,-160.8 1647,-160.8 1647,-108.8 1473,-108.8"/>
</g>
<g id="clust25" class="cluster">
<title>cluster_CallToActionModule_exports</title>
<polygon fill="none" stroke="black" points="1287,-108.8 1287,-160.8 1465,-160.8 1465,-108.8 1287,-108.8"/>
</g>
<g id="clust28" class="cluster">
<title>cluster_DecoratedTextModule</title>
<polygon fill="none" stroke="black" stroke-dasharray="1,5" points="1663,-32.8 1663,-236.8 1863,-236.8 1863,-32.8 1663,-32.8"/>
</g>
<g id="clust29" class="cluster">
<title>cluster_DecoratedTextModule_declarations</title>
<polygon fill="none" stroke="black" points="1674,-40.8 1674,-92.8 1854,-92.8 1854,-40.8 1674,-40.8"/>
</g>
<g id="clust32" class="cluster">
<title>cluster_DecoratedTextModule_exports</title>
<polygon fill="none" stroke="black" points="1671,-176.8 1671,-228.8 1855,-228.8 1855,-176.8 1671,-176.8"/>
</g>
<g id="clust35" class="cluster">
<title>cluster_InfoButtonModule</title>
<polygon fill="none" stroke="black" stroke-dasharray="1,5" points="2249,-32.8 2249,-236.8 2567,-236.8 2567,-32.8 2249,-32.8"/>
</g>
<g id="clust36" class="cluster">
<title>cluster_InfoButtonModule_declarations</title>
<polygon fill="none" stroke="black" points="2257,-40.8 2257,-92.8 2415,-92.8 2415,-40.8 2257,-40.8"/>
</g>
<g id="clust38" class="cluster">
<title>cluster_InfoButtonModule_imports</title>
<polygon fill="none" stroke="black" points="2423,-40.8 2423,-92.8 2559,-92.8 2559,-40.8 2423,-40.8"/>
</g>
<g id="clust39" class="cluster">
<title>cluster_InfoButtonModule_exports</title>
<polygon fill="none" stroke="black" points="2327,-176.8 2327,-228.8 2489,-228.8 2489,-176.8 2327,-176.8"/>
</g>
<g id="clust42" class="cluster">
<title>cluster_InfoDialogModule</title>
<polygon fill="none" stroke="black" stroke-dasharray="1,5" points="2575,-100.8 2575,-168.8 2919,-168.8 2919,-100.8 2575,-100.8"/>
</g>
<g id="clust43" class="cluster">
<title>cluster_InfoDialogModule_declarations</title>
<polygon fill="none" stroke="black" points="2753,-108.8 2753,-160.8 2911,-160.8 2911,-108.8 2753,-108.8"/>
</g>
<g id="clust46" class="cluster">
<title>cluster_InfoDialogModule_exports</title>
<polygon fill="none" stroke="black" points="2583,-108.8 2583,-160.8 2745,-160.8 2745,-108.8 2583,-108.8"/>
</g>
<g id="clust55" class="cluster">
<title>cluster_NumbersOnlyModule</title>
<polygon fill="none" stroke="black" stroke-dasharray="1,5" points="2927,-32.8 2927,-236.8 3081,-236.8 3081,-32.8 2927,-32.8"/>
</g>
<g id="clust56" class="cluster">
<title>cluster_NumbersOnlyModule_declarations</title>
<polygon fill="none" stroke="black" points="2939,-40.8 2939,-92.8 3069,-92.8 3069,-40.8 2939,-40.8"/>
</g>
<g id="clust59" class="cluster">
<title>cluster_NumbersOnlyModule_exports</title>
<polygon fill="none" stroke="black" points="2937,-176.8 2937,-228.8 3071,-228.8 3071,-176.8 2937,-176.8"/>
</g>
<g id="clust62" class="cluster">
<title>cluster_OpacitySliderModule</title>
<polygon fill="none" stroke="black" stroke-dasharray="1,5" points="3089,-32.8 3089,-236.8 3283,-236.8 3283,-32.8 3089,-32.8"/>
</g>
<g id="clust63" class="cluster">
<title>cluster_OpacitySliderModule_declarations</title>
<polygon fill="none" stroke="black" points="3098,-40.8 3098,-92.8 3274,-92.8 3274,-40.8 3098,-40.8"/>
</g>
<g id="clust66" class="cluster">
<title>cluster_OpacitySliderModule_exports</title>
<polygon fill="none" stroke="black" points="3097,-176.8 3097,-228.8 3275,-228.8 3275,-176.8 3097,-176.8"/>
</g>
<g id="clust69" class="cluster">
<title>cluster_OrganSelectorModule</title>
<polygon fill="none" stroke="black" stroke-dasharray="1,5" points="3291,-32.8 3291,-236.8 3489,-236.8 3489,-32.8 3291,-32.8"/>
</g>
<g id="clust70" class="cluster">
<title>cluster_OrganSelectorModule_declarations</title>
<polygon fill="none" stroke="black" points="3301,-40.8 3301,-92.8 3479,-92.8 3479,-40.8 3301,-40.8"/>
</g>
<g id="clust73" class="cluster">
<title>cluster_OrganSelectorModule_exports</title>
<polygon fill="none" stroke="black" points="3299,-176.8 3299,-228.8 3481,-228.8 3481,-176.8 3299,-176.8"/>
</g>
<g id="clust76" class="cluster">
<title>cluster_SpatialSearchListModule</title>
<polygon fill="none" stroke="black" stroke-dasharray="1,5" points="3497,-32.8 3497,-236.8 3713,-236.8 3713,-32.8 3497,-32.8"/>
</g>
<g id="clust77" class="cluster">
<title>cluster_SpatialSearchListModule_declarations</title>
<polygon fill="none" stroke="black" points="3507,-40.8 3507,-92.8 3703,-92.8 3703,-40.8 3507,-40.8"/>
</g>
<g id="clust80" class="cluster">
<title>cluster_SpatialSearchListModule_exports</title>
<polygon fill="none" stroke="black" points="3505,-176.8 3505,-228.8 3705,-228.8 3705,-176.8 3505,-176.8"/>
</g>
<g id="clust83" class="cluster">
<title>cluster_StoreDebugModule</title>
<polygon fill="none" stroke="black" stroke-dasharray="1,5" points="3721,-32.8 3721,-236.8 3905,-236.8 3905,-32.8 3721,-32.8"/>
</g>
<g id="clust84" class="cluster">
<title>cluster_StoreDebugModule_declarations</title>
<polygon fill="none" stroke="black" points="3731,-40.8 3731,-92.8 3895,-92.8 3895,-40.8 3731,-40.8"/>
</g>
<g id="clust87" class="cluster">
<title>cluster_StoreDebugModule_exports</title>
<polygon fill="none" stroke="black" points="3729,-176.8 3729,-228.8 3897,-228.8 3897,-176.8 3729,-176.8"/>
</g>
<g id="clust90" class="cluster">
<title>cluster_TextSearchModule</title>
<polygon fill="none" stroke="black" stroke-dasharray="1,5" points="1871,-100.8 1871,-304.8 2241,-304.8 2241,-100.8 1871,-100.8"/>
</g>
<g id="clust91" class="cluster">
<title>cluster_TextSearchModule_declarations</title>
<polygon fill="none" stroke="black" points="1945,-108.8 1945,-160.8 2107,-160.8 2107,-108.8 1945,-108.8"/>
</g>
<g id="clust94" class="cluster">
<title>cluster_TextSearchModule_exports</title>
<polygon fill="none" stroke="black" points="1879,-244.8 1879,-296.8 2233,-296.8 2233,-244.8 1879,-244.8"/>
</g>
<g id="clust97" class="cluster">
<title>cluster_TrackingPopupModule</title>
<polygon fill="none" stroke="black" stroke-dasharray="1,5" points="3913,-32.8 3913,-236.8 4117,-236.8 4117,-32.8 3913,-32.8"/>
</g>
<g id="clust98" class="cluster">
<title>cluster_TrackingPopupModule_declarations</title>
<polygon fill="none" stroke="black" points="3923,-40.8 3923,-92.8 4107,-92.8 4107,-40.8 3923,-40.8"/>
</g>
<g id="clust101" class="cluster">
<title>cluster_TrackingPopupModule_exports</title>
<polygon fill="none" stroke="black" points="3921,-176.8 3921,-228.8 4109,-228.8 4109,-176.8 3921,-176.8"/>
</g>
<g id="clust104" class="cluster">
<title>cluster_XYZPositionModule</title>
<polygon fill="none" stroke="black" stroke-dasharray="1,5" points="4125,-32.8 4125,-236.8 4317,-236.8 4317,-32.8 4125,-32.8"/>
</g>
<g id="clust105" class="cluster">
<title>cluster_XYZPositionModule_declarations</title>
<polygon fill="none" stroke="black" points="4135,-40.8 4135,-92.8 4307,-92.8 4307,-40.8 4135,-40.8"/>
</g>
<g id="clust108" class="cluster">
<title>cluster_XYZPositionModule_exports</title>
<polygon fill="none" stroke="black" points="4133,-176.8 4133,-228.8 4309,-228.8 4309,-176.8 4133,-176.8"/>
</g>
<!-- ConsentService -->
<g id="node1" class="node">
<title>ConsentService</title>
<ellipse fill="#fdb462" stroke="black" cx="603" cy="-66.8" rx="71.79" ry="18"/>
<text text-anchor="middle" x="603" y="-62.6" font-family="Times,serif" font-size="14.00">ConsentService</text>
</g>
<!-- AnalyticsModule -->
<g id="node4" class="node">
<title>AnalyticsModule</title>
<polygon fill="#8dd3c7" stroke="black" points="445.7,-152.8 442.7,-156.8 421.7,-156.8 418.7,-152.8 332.3,-152.8 332.3,-116.8 445.7,-116.8 445.7,-152.8"/>
<text text-anchor="middle" x="389" y="-130.6" font-family="Times,serif" font-size="14.00">AnalyticsModule</text>
</g>
<!-- ConsentService&#45;&gt;AnalyticsModule -->
<g id="edge1" class="edge">
<title>ConsentService&#45;&gt;AnalyticsModule</title>
<path fill="none" stroke="black" d="M603,-85.02C603,-105.17 603,-134.8 603,-134.8 603,-134.8 455.79,-134.8 455.79,-134.8"/>
<polygon fill="black" stroke="black" points="455.79,-131.3 445.79,-134.8 455.79,-138.3 455.79,-131.3"/>
</g>
<!-- GoogleAnalyticsSyncService -->
<g id="node2" class="node">
<title>GoogleAnalyticsSyncService</title>
<ellipse fill="#fdb462" stroke="black" cx="389" cy="-66.8" rx="124.98" ry="18"/>
<text text-anchor="middle" x="389" y="-62.6" font-family="Times,serif" font-size="14.00">GoogleAnalyticsSyncService</text>
</g>
<!-- GoogleAnalyticsSyncService&#45;&gt;AnalyticsModule -->
<g id="edge2" class="edge">
<title>GoogleAnalyticsSyncService&#45;&gt;AnalyticsModule</title>
<path fill="none" stroke="black" d="M389,-85.02C389,-85.02 389,-106.53 389,-106.53"/>
<polygon fill="black" stroke="black" points="385.5,-106.53 389,-116.53 392.5,-106.53 385.5,-106.53"/>
</g>
<!-- LocalStorageSyncService -->
<g id="node3" class="node">
<title>LocalStorageSyncService</title>
<ellipse fill="#fdb462" stroke="black" cx="135" cy="-66.8" rx="110.57" ry="18"/>
<text text-anchor="middle" x="135" y="-62.6" font-family="Times,serif" font-size="14.00">LocalStorageSyncService</text>
</g>
<!-- LocalStorageSyncService&#45;&gt;AnalyticsModule -->
<g id="edge3" class="edge">
<title>LocalStorageSyncService&#45;&gt;AnalyticsModule</title>
<path fill="none" stroke="black" d="M135,-85.02C135,-105.17 135,-134.8 135,-134.8 135,-134.8 322.31,-134.8 322.31,-134.8"/>
<polygon fill="black" stroke="black" points="322.31,-138.3 332.31,-134.8 322.31,-131.3 322.31,-138.3"/>
</g>
<!-- BodyUiComponent -->
<g id="node5" class="node">
<title>BodyUiComponent</title>
<polygon fill="#ffffb3" stroke="black" points="842.67,-84.8 717.33,-84.8 717.33,-48.8 842.67,-48.8 842.67,-84.8"/>
<text text-anchor="middle" x="780" y="-62.6" font-family="Times,serif" font-size="14.00">BodyUiComponent</text>
</g>
<!-- BodyUiModule -->
<g id="node6" class="node">
<title>BodyUiModule</title>
<polygon fill="#8dd3c7" stroke="black" points="831.88,-152.8 828.88,-156.8 807.88,-156.8 804.88,-152.8 728.12,-152.8 728.12,-116.8 831.88,-116.8 831.88,-152.8"/>
<text text-anchor="middle" x="780" y="-130.6" font-family="Times,serif" font-size="14.00">BodyUiModule</text>
</g>
<!-- BodyUiComponent&#45;&gt;BodyUiModule -->
<g id="edge4" class="edge">
<title>BodyUiComponent&#45;&gt;BodyUiModule</title>
<path fill="none" stroke="black" d="M780,-85.02C780,-85.02 780,-106.53 780,-106.53"/>
<polygon fill="black" stroke="black" points="776.5,-106.53 780,-116.53 783.5,-106.53 776.5,-106.53"/>
</g>
<!-- BodyUiComponent  -->
<g id="node7" class="node">
<title>BodyUiComponent </title>
<polygon fill="#fb8072" stroke="black" points="844.67,-220.8 715.33,-220.8 715.33,-184.8 844.67,-184.8 844.67,-220.8"/>
<text text-anchor="middle" x="780" y="-198.6" font-family="Times,serif" font-size="14.00">BodyUiComponent </text>
</g>
<!-- BodyUiModule&#45;&gt;BodyUiComponent  -->
<g id="edge5" class="edge">
<title>BodyUiModule&#45;&gt;BodyUiComponent </title>
<path fill="none" stroke="black" stroke-dasharray="5,2" d="M780,-153.02C780,-153.02 780,-174.53 780,-174.53"/>
<polygon fill="black" stroke="black" points="776.5,-174.53 780,-184.53 783.5,-174.53 776.5,-174.53"/>
</g>
<!-- CallToActionBehaviorComponent -->
<g id="node8" class="node">
<title>CallToActionBehaviorComponent</title>
<polygon fill="#ffffb3" stroke="black" points="1094.64,-84.8 885.36,-84.8 885.36,-48.8 1094.64,-48.8 1094.64,-84.8"/>
<text text-anchor="middle" x="990" y="-62.6" font-family="Times,serif" font-size="14.00">CallToActionBehaviorComponent</text>
</g>
<!-- CallToActionBehaviorModule -->
<g id="node9" class="node">
<title>CallToActionBehaviorModule</title>
<polygon fill="#8dd3c7" stroke="black" points="1163.85,-152.8 1160.85,-156.8 1139.85,-156.8 1136.85,-152.8 976.15,-152.8 976.15,-116.8 1163.85,-116.8 1163.85,-152.8"/>
<text text-anchor="middle" x="1070" y="-130.6" font-family="Times,serif" font-size="14.00">CallToActionBehaviorModule</text>
</g>
<!-- CallToActionBehaviorComponent&#45;&gt;CallToActionBehaviorModule -->
<g id="edge6" class="edge">
<title>CallToActionBehaviorComponent&#45;&gt;CallToActionBehaviorModule</title>
<path fill="none" stroke="black" d="M1035.45,-85.02C1035.45,-85.02 1035.45,-106.53 1035.45,-106.53"/>
<polygon fill="black" stroke="black" points="1031.95,-106.53 1035.45,-116.53 1038.95,-106.53 1031.95,-106.53"/>
</g>
<!-- CallToActionBehaviorComponent  -->
<g id="node11" class="node">
<title>CallToActionBehaviorComponent </title>
<polygon fill="#fb8072" stroke="black" points="1176.64,-220.8 963.36,-220.8 963.36,-184.8 1176.64,-184.8 1176.64,-220.8"/>
<text text-anchor="middle" x="1070" y="-198.6" font-family="Times,serif" font-size="14.00">CallToActionBehaviorComponent </text>
</g>
<!-- CallToActionBehaviorModule&#45;&gt;CallToActionBehaviorComponent  -->
<g id="edge8" class="edge">
<title>CallToActionBehaviorModule&#45;&gt;CallToActionBehaviorComponent </title>
<path fill="none" stroke="black" stroke-dasharray="5,2" d="M1070,-153.02C1070,-153.02 1070,-174.53 1070,-174.53"/>
<polygon fill="black" stroke="black" points="1066.5,-174.53 1070,-184.53 1073.5,-174.53 1066.5,-174.53"/>
</g>
<!-- CallToActionModule -->
<g id="node10" class="node">
<title>CallToActionModule</title>
<polygon fill="#8dd3c7" stroke="black" points="1255.04,-84.8 1252.04,-88.8 1231.04,-88.8 1228.04,-84.8 1118.96,-84.8 1118.96,-48.8 1255.04,-48.8 1255.04,-84.8"/>
<text text-anchor="middle" x="1187" y="-62.6" font-family="Times,serif" font-size="14.00">CallToActionModule</text>
</g>
<!-- CallToActionModule&#45;&gt;CallToActionBehaviorModule -->
<g id="edge7" class="edge">
<title>CallToActionModule&#45;&gt;CallToActionBehaviorModule</title>
<path fill="none" stroke="black" d="M1141.33,-85.02C1141.33,-85.02 1141.33,-106.53 1141.33,-106.53"/>
<polygon fill="black" stroke="black" points="1137.83,-106.53 1141.33,-116.53 1144.83,-106.53 1137.83,-106.53"/>
</g>
<!-- CallToActionComponent  -->
<g id="node13" class="node">
<title>CallToActionComponent </title>
<polygon fill="#fb8072" stroke="black" points="1456.82,-152.8 1295.18,-152.8 1295.18,-116.8 1456.82,-116.8 1456.82,-152.8"/>
<text text-anchor="middle" x="1376" y="-130.6" font-family="Times,serif" font-size="14.00">CallToActionComponent </text>
</g>
<!-- CallToActionModule&#45;&gt;CallToActionComponent  -->
<g id="edge10" class="edge">
<title>CallToActionModule&#45;&gt;CallToActionComponent </title>
<path fill="none" stroke="black" stroke-dasharray="5,2" d="M1215.92,-85.02C1215.92,-105.17 1215.92,-134.8 1215.92,-134.8 1215.92,-134.8 1285.02,-134.8 1285.02,-134.8"/>
<polygon fill="black" stroke="black" points="1285.02,-138.3 1295.02,-134.8 1285.02,-131.3 1285.02,-138.3"/>
</g>
<!-- CallToActionComponent -->
<g id="node12" class="node">
<title>CallToActionComponent</title>
<polygon fill="#ffffb3" stroke="black" points="1639.32,-152.8 1480.68,-152.8 1480.68,-116.8 1639.32,-116.8 1639.32,-152.8"/>
<text text-anchor="middle" x="1560" y="-130.6" font-family="Times,serif" font-size="14.00">CallToActionComponent</text>
</g>
<!-- CallToActionComponent&#45;&gt;CallToActionModule -->
<g id="edge9" class="edge">
<title>CallToActionComponent&#45;&gt;CallToActionModule</title>
<path fill="none" stroke="black" d="M1560,-116.58C1560,-96.43 1560,-66.8 1560,-66.8 1560,-66.8 1265.41,-66.8 1265.41,-66.8"/>
<polygon fill="black" stroke="black" points="1265.41,-63.3 1255.41,-66.8 1265.41,-70.3 1265.41,-63.3"/>
</g>
<!-- DecoratedTextComponent -->
<g id="node14" class="node">
<title>DecoratedTextComponent</title>
<polygon fill="#ffffb3" stroke="black" points="1846.01,-84.8 1681.99,-84.8 1681.99,-48.8 1846.01,-48.8 1846.01,-84.8"/>
<text text-anchor="middle" x="1764" y="-62.6" font-family="Times,serif" font-size="14.00">DecoratedTextComponent</text>
</g>
<!-- DecoratedTextModule -->
<g id="node15" class="node">
<title>DecoratedTextModule</title>
<polygon fill="#8dd3c7" stroke="black" points="1835.22,-152.8 1832.22,-156.8 1811.22,-156.8 1808.22,-152.8 1692.78,-152.8 1692.78,-116.8 1835.22,-116.8 1835.22,-152.8"/>
<text text-anchor="middle" x="1764" y="-130.6" font-family="Times,serif" font-size="14.00">DecoratedTextModule</text>
</g>
<!-- DecoratedTextComponent&#45;&gt;DecoratedTextModule -->
<g id="edge11" class="edge">
<title>DecoratedTextComponent&#45;&gt;DecoratedTextModule</title>
<path fill="none" stroke="black" d="M1764,-85.02C1764,-85.02 1764,-106.53 1764,-106.53"/>
<polygon fill="black" stroke="black" points="1760.5,-106.53 1764,-116.53 1767.5,-106.53 1760.5,-106.53"/>
</g>
<!-- DecoratedTextComponent  -->
<g id="node16" class="node">
<title>DecoratedTextComponent </title>
<polygon fill="#fb8072" stroke="black" points="1847.01,-220.8 1678.99,-220.8 1678.99,-184.8 1847.01,-184.8 1847.01,-220.8"/>
<text text-anchor="middle" x="1763" y="-198.6" font-family="Times,serif" font-size="14.00">DecoratedTextComponent </text>
</g>
<!-- DecoratedTextModule&#45;&gt;DecoratedTextComponent  -->
<g id="edge12" class="edge">
<title>DecoratedTextModule&#45;&gt;DecoratedTextComponent </title>
<path fill="none" stroke="black" stroke-dasharray="5,2" d="M1764,-153.02C1764,-153.02 1764,-174.53 1764,-174.53"/>
<polygon fill="black" stroke="black" points="1760.5,-174.53 1764,-184.53 1767.5,-174.53 1760.5,-174.53"/>
</g>
<!-- TextSearchModule -->
<g id="node39" class="node">
<title>TextSearchModule</title>
<polygon fill="#8dd3c7" stroke="black" points="2087.79,-220.8 2084.79,-224.8 2063.79,-224.8 2060.79,-220.8 1964.21,-220.8 1964.21,-184.8 2087.79,-184.8 2087.79,-220.8"/>
<text text-anchor="middle" x="2026" y="-198.6" font-family="Times,serif" font-size="14.00">TextSearchModule</text>
</g>
<!-- DecoratedTextModule&#45;&gt;TextSearchModule -->
<g id="edge29" class="edge">
<title>DecoratedTextModule&#45;&gt;TextSearchModule</title>
<path fill="none" stroke="black" d="M1835.44,-134.8C1852.99,-134.8 1866.86,-134.8 1866.86,-134.8 1866.86,-134.8 1866.86,-202.8 1866.86,-202.8 1866.86,-202.8 1954.02,-202.8 1954.02,-202.8"/>
<polygon fill="black" stroke="black" points="1954.02,-206.3 1964.02,-202.8 1954.02,-199.3 1954.02,-206.3"/>
</g>
<!-- InfoButtonComponent -->
<g id="node17" class="node">
<title>InfoButtonComponent</title>
<polygon fill="#ffffb3" stroke="black" points="2407.27,-84.8 2264.73,-84.8 2264.73,-48.8 2407.27,-48.8 2407.27,-84.8"/>
<text text-anchor="middle" x="2336" y="-62.6" font-family="Times,serif" font-size="14.00">InfoButtonComponent</text>
</g>
<!-- InfoButtonModule -->
<g id="node18" class="node">
<title>InfoButtonModule</title>
<polygon fill="#8dd3c7" stroke="black" points="2468.49,-152.8 2465.49,-156.8 2444.49,-156.8 2441.49,-152.8 2347.51,-152.8 2347.51,-116.8 2468.49,-116.8 2468.49,-152.8"/>
<text text-anchor="middle" x="2408" y="-130.6" font-family="Times,serif" font-size="14.00">InfoButtonModule</text>
</g>
<!-- InfoButtonComponent&#45;&gt;InfoButtonModule -->
<g id="edge13" class="edge">
<title>InfoButtonComponent&#45;&gt;InfoButtonModule</title>
<path fill="none" stroke="black" d="M2377.45,-85.02C2377.45,-85.02 2377.45,-106.53 2377.45,-106.53"/>
<polygon fill="black" stroke="black" points="2373.95,-106.53 2377.45,-116.53 2380.95,-106.53 2373.95,-106.53"/>
</g>
<!-- InfoButtonComponent  -->
<g id="node20" class="node">
<title>InfoButtonComponent </title>
<polygon fill="#fb8072" stroke="black" points="2481.27,-220.8 2334.73,-220.8 2334.73,-184.8 2481.27,-184.8 2481.27,-220.8"/>
<text text-anchor="middle" x="2408" y="-198.6" font-family="Times,serif" font-size="14.00">InfoButtonComponent </text>
</g>
<!-- InfoButtonModule&#45;&gt;InfoButtonComponent  -->
<g id="edge15" class="edge">
<title>InfoButtonModule&#45;&gt;InfoButtonComponent </title>
<path fill="none" stroke="black" stroke-dasharray="5,2" d="M2408,-153.02C2408,-153.02 2408,-174.53 2408,-174.53"/>
<polygon fill="black" stroke="black" points="2404.5,-174.53 2408,-184.53 2411.5,-174.53 2404.5,-174.53"/>
</g>
<!-- InfoDialogModule -->
<g id="node19" class="node">
<title>InfoDialogModule</title>
<polygon fill="#8dd3c7" stroke="black" points="2551.47,-84.8 2548.47,-88.8 2527.47,-88.8 2524.47,-84.8 2430.53,-84.8 2430.53,-48.8 2551.47,-48.8 2551.47,-84.8"/>
<text text-anchor="middle" x="2491" y="-62.6" font-family="Times,serif" font-size="14.00">InfoDialogModule</text>
</g>
<!-- InfoDialogModule&#45;&gt;InfoButtonModule -->
<g id="edge14" class="edge">
<title>InfoDialogModule&#45;&gt;InfoButtonModule</title>
<path fill="none" stroke="black" d="M2449.5,-85.02C2449.5,-85.02 2449.5,-106.53 2449.5,-106.53"/>
<polygon fill="black" stroke="black" points="2446,-106.53 2449.5,-116.53 2453,-106.53 2446,-106.53"/>
</g>
<!-- InfoDialogComponent  -->
<g id="node22" class="node">
<title>InfoDialogComponent </title>
<polygon fill="#fb8072" stroke="black" points="2737.26,-152.8 2590.74,-152.8 2590.74,-116.8 2737.26,-116.8 2737.26,-152.8"/>
<text text-anchor="middle" x="2664" y="-130.6" font-family="Times,serif" font-size="14.00">InfoDialogComponent </text>
</g>
<!-- InfoDialogModule&#45;&gt;InfoDialogComponent  -->
<g id="edge17" class="edge">
<title>InfoDialogModule&#45;&gt;InfoDialogComponent </title>
<path fill="none" stroke="black" stroke-dasharray="5,2" d="M2516.31,-85.02C2516.31,-105.17 2516.31,-134.8 2516.31,-134.8 2516.31,-134.8 2580.59,-134.8 2580.59,-134.8"/>
<polygon fill="black" stroke="black" points="2580.59,-138.3 2590.59,-134.8 2580.59,-131.3 2580.59,-138.3"/>
</g>
<!-- InfoDialogComponent -->
<g id="node21" class="node">
<title>InfoDialogComponent</title>
<polygon fill="#ffffb3" stroke="black" points="2903.26,-152.8 2760.74,-152.8 2760.74,-116.8 2903.26,-116.8 2903.26,-152.8"/>
<text text-anchor="middle" x="2832" y="-130.6" font-family="Times,serif" font-size="14.00">InfoDialogComponent</text>
</g>
<!-- InfoDialogComponent&#45;&gt;InfoDialogModule -->
<g id="edge16" class="edge">
<title>InfoDialogComponent&#45;&gt;InfoDialogModule</title>
<path fill="none" stroke="black" d="M2832,-116.58C2832,-96.43 2832,-66.8 2832,-66.8 2832,-66.8 2561.57,-66.8 2561.57,-66.8"/>
<polygon fill="black" stroke="black" points="2561.57,-63.3 2551.57,-66.8 2561.57,-70.3 2561.57,-63.3"/>
</g>
<!-- NumberDirective -->
<g id="node23" class="node">
<title>NumberDirective</title>
<polygon fill="#ffffb3" stroke="black" points="3060.96,-84.8 2947.04,-84.8 2947.04,-48.8 3060.96,-48.8 3060.96,-84.8"/>
<text text-anchor="middle" x="3004" y="-62.6" font-family="Times,serif" font-size="14.00">NumberDirective</text>
</g>
<!-- NumbersOnlyModule -->
<g id="node24" class="node">
<title>NumbersOnlyModule</title>
<polygon fill="#8dd3c7" stroke="black" points="3073.36,-152.8 3070.36,-156.8 3049.36,-156.8 3046.36,-152.8 2934.64,-152.8 2934.64,-116.8 3073.36,-116.8 3073.36,-152.8"/>
<text text-anchor="middle" x="3004" y="-130.6" font-family="Times,serif" font-size="14.00">NumbersOnlyModule</text>
</g>
<!-- NumberDirective&#45;&gt;NumbersOnlyModule -->
<g id="edge18" class="edge">
<title>NumberDirective&#45;&gt;NumbersOnlyModule</title>
<path fill="none" stroke="black" d="M3004,-85.02C3004,-85.02 3004,-106.53 3004,-106.53"/>
<polygon fill="black" stroke="black" points="3000.5,-106.53 3004,-116.53 3007.5,-106.53 3000.5,-106.53"/>
</g>
<!-- NumberDirective  -->
<g id="node25" class="node">
<title>NumberDirective </title>
<polygon fill="#fb8072" stroke="black" points="3062.96,-220.8 2945.04,-220.8 2945.04,-184.8 3062.96,-184.8 3062.96,-220.8"/>
<text text-anchor="middle" x="3004" y="-198.6" font-family="Times,serif" font-size="14.00">NumberDirective </text>
</g>
<!-- NumbersOnlyModule&#45;&gt;NumberDirective  -->
<g id="edge19" class="edge">
<title>NumbersOnlyModule&#45;&gt;NumberDirective </title>
<path fill="none" stroke="black" stroke-dasharray="5,2" d="M3004,-153.02C3004,-153.02 3004,-174.53 3004,-174.53"/>
<polygon fill="black" stroke="black" points="3000.5,-174.53 3004,-184.53 3007.5,-174.53 3000.5,-174.53"/>
</g>
<!-- OpacitySliderComponent -->
<g id="node26" class="node">
<title>OpacitySliderComponent</title>
<polygon fill="#ffffb3" stroke="black" points="3265.59,-84.8 3106.41,-84.8 3106.41,-48.8 3265.59,-48.8 3265.59,-84.8"/>
<text text-anchor="middle" x="3186" y="-62.6" font-family="Times,serif" font-size="14.00">OpacitySliderComponent</text>
</g>
<!-- OpacitySliderModule -->
<g id="node27" class="node">
<title>OpacitySliderModule</title>
<polygon fill="#8dd3c7" stroke="black" points="3254.81,-152.8 3251.81,-156.8 3230.81,-156.8 3227.81,-152.8 3117.19,-152.8 3117.19,-116.8 3254.81,-116.8 3254.81,-152.8"/>
<text text-anchor="middle" x="3186" y="-130.6" font-family="Times,serif" font-size="14.00">OpacitySliderModule</text>
</g>
<!-- OpacitySliderComponent&#45;&gt;OpacitySliderModule -->
<g id="edge20" class="edge">
<title>OpacitySliderComponent&#45;&gt;OpacitySliderModule</title>
<path fill="none" stroke="black" d="M3186,-85.02C3186,-85.02 3186,-106.53 3186,-106.53"/>
<polygon fill="black" stroke="black" points="3182.5,-106.53 3186,-116.53 3189.5,-106.53 3182.5,-106.53"/>
</g>
<!-- OpacitySliderComponent  -->
<g id="node28" class="node">
<title>OpacitySliderComponent </title>
<polygon fill="#fb8072" stroke="black" points="3267.09,-220.8 3104.91,-220.8 3104.91,-184.8 3267.09,-184.8 3267.09,-220.8"/>
<text text-anchor="middle" x="3186" y="-198.6" font-family="Times,serif" font-size="14.00">OpacitySliderComponent </text>
</g>
<!-- OpacitySliderModule&#45;&gt;OpacitySliderComponent  -->
<g id="edge21" class="edge">
<title>OpacitySliderModule&#45;&gt;OpacitySliderComponent </title>
<path fill="none" stroke="black" stroke-dasharray="5,2" d="M3186,-153.02C3186,-153.02 3186,-174.53 3186,-174.53"/>
<polygon fill="black" stroke="black" points="3182.5,-174.53 3186,-184.53 3189.5,-174.53 3182.5,-174.53"/>
</g>
<!-- OrganSelectorComponent -->
<g id="node29" class="node">
<title>OrganSelectorComponent</title>
<polygon fill="#ffffb3" stroke="black" points="3471.18,-84.8 3308.82,-84.8 3308.82,-48.8 3471.18,-48.8 3471.18,-84.8"/>
<text text-anchor="middle" x="3390" y="-62.6" font-family="Times,serif" font-size="14.00">OrganSelectorComponent</text>
</g>
<!-- OrganSelectorModule -->
<g id="node30" class="node">
<title>OrganSelectorModule</title>
<polygon fill="#8dd3c7" stroke="black" points="3460.4,-152.8 3457.4,-156.8 3436.4,-156.8 3433.4,-152.8 3319.6,-152.8 3319.6,-116.8 3460.4,-116.8 3460.4,-152.8"/>
<text text-anchor="middle" x="3390" y="-130.6" font-family="Times,serif" font-size="14.00">OrganSelectorModule</text>
</g>
<!-- OrganSelectorComponent&#45;&gt;OrganSelectorModule -->
<g id="edge22" class="edge">
<title>OrganSelectorComponent&#45;&gt;OrganSelectorModule</title>
<path fill="none" stroke="black" d="M3390,-85.02C3390,-85.02 3390,-106.53 3390,-106.53"/>
<polygon fill="black" stroke="black" points="3386.5,-106.53 3390,-116.53 3393.5,-106.53 3386.5,-106.53"/>
</g>
<!-- OrganSelectorComponent  -->
<g id="node31" class="node">
<title>OrganSelectorComponent </title>
<polygon fill="#fb8072" stroke="black" points="3472.68,-220.8 3307.32,-220.8 3307.32,-184.8 3472.68,-184.8 3472.68,-220.8"/>
<text text-anchor="middle" x="3390" y="-198.6" font-family="Times,serif" font-size="14.00">OrganSelectorComponent </text>
</g>
<!-- OrganSelectorModule&#45;&gt;OrganSelectorComponent  -->
<g id="edge23" class="edge">
<title>OrganSelectorModule&#45;&gt;OrganSelectorComponent </title>
<path fill="none" stroke="black" stroke-dasharray="5,2" d="M3390,-153.02C3390,-153.02 3390,-174.53 3390,-174.53"/>
<polygon fill="black" stroke="black" points="3386.5,-174.53 3390,-184.53 3393.5,-174.53 3386.5,-174.53"/>
</g>
<!-- SpatialSearchListComponent -->
<g id="node32" class="node">
<title>SpatialSearchListComponent</title>
<polygon fill="#ffffb3" stroke="black" points="3695.08,-84.8 3514.92,-84.8 3514.92,-48.8 3695.08,-48.8 3695.08,-84.8"/>
<text text-anchor="middle" x="3605" y="-62.6" font-family="Times,serif" font-size="14.00">SpatialSearchListComponent</text>
</g>
<!-- SpatialSearchListModule -->
<g id="node33" class="node">
<title>SpatialSearchListModule</title>
<polygon fill="#8dd3c7" stroke="black" points="3684.3,-152.8 3681.3,-156.8 3660.3,-156.8 3657.3,-152.8 3525.7,-152.8 3525.7,-116.8 3684.3,-116.8 3684.3,-152.8"/>
<text text-anchor="middle" x="3605" y="-130.6" font-family="Times,serif" font-size="14.00">SpatialSearchListModule</text>
</g>
<!-- SpatialSearchListComponent&#45;&gt;SpatialSearchListModule -->
<g id="edge24" class="edge">
<title>SpatialSearchListComponent&#45;&gt;SpatialSearchListModule</title>
<path fill="none" stroke="black" d="M3605,-85.02C3605,-85.02 3605,-106.53 3605,-106.53"/>
<polygon fill="black" stroke="black" points="3601.5,-106.53 3605,-116.53 3608.5,-106.53 3601.5,-106.53"/>
</g>
<!-- SpatialSearchListComponent  -->
<g id="node34" class="node">
<title>SpatialSearchListComponent </title>
<polygon fill="#fb8072" stroke="black" points="3696.58,-220.8 3513.42,-220.8 3513.42,-184.8 3696.58,-184.8 3696.58,-220.8"/>
<text text-anchor="middle" x="3605" y="-198.6" font-family="Times,serif" font-size="14.00">SpatialSearchListComponent </text>
</g>
<!-- SpatialSearchListModule&#45;&gt;SpatialSearchListComponent  -->
<g id="edge25" class="edge">
<title>SpatialSearchListModule&#45;&gt;SpatialSearchListComponent </title>
<path fill="none" stroke="black" stroke-dasharray="5,2" d="M3605,-153.02C3605,-153.02 3605,-174.53 3605,-174.53"/>
<polygon fill="black" stroke="black" points="3601.5,-174.53 3605,-184.53 3608.5,-174.53 3601.5,-174.53"/>
</g>
<!-- StoreDebugComponent -->
<g id="node35" class="node">
<title>StoreDebugComponent</title>
<polygon fill="#ffffb3" stroke="black" points="3887.2,-84.8 3738.8,-84.8 3738.8,-48.8 3887.2,-48.8 3887.2,-84.8"/>
<text text-anchor="middle" x="3813" y="-62.6" font-family="Times,serif" font-size="14.00">StoreDebugComponent</text>
</g>
<!-- StoreDebugModule -->
<g id="node36" class="node">
<title>StoreDebugModule</title>
<polygon fill="#8dd3c7" stroke="black" points="3876.42,-152.8 3873.42,-156.8 3852.42,-156.8 3849.42,-152.8 3749.58,-152.8 3749.58,-116.8 3876.42,-116.8 3876.42,-152.8"/>
<text text-anchor="middle" x="3813" y="-130.6" font-family="Times,serif" font-size="14.00">StoreDebugModule</text>
</g>
<!-- StoreDebugComponent&#45;&gt;StoreDebugModule -->
<g id="edge26" class="edge">
<title>StoreDebugComponent&#45;&gt;StoreDebugModule</title>
<path fill="none" stroke="black" d="M3813,-85.02C3813,-85.02 3813,-106.53 3813,-106.53"/>
<polygon fill="black" stroke="black" points="3809.5,-106.53 3813,-116.53 3816.5,-106.53 3809.5,-106.53"/>
</g>
<!-- StoreDebugComponent  -->
<g id="node37" class="node">
<title>StoreDebugComponent </title>
<polygon fill="#fb8072" stroke="black" points="3888.7,-220.8 3737.3,-220.8 3737.3,-184.8 3888.7,-184.8 3888.7,-220.8"/>
<text text-anchor="middle" x="3813" y="-198.6" font-family="Times,serif" font-size="14.00">StoreDebugComponent </text>
</g>
<!-- StoreDebugModule&#45;&gt;StoreDebugComponent  -->
<g id="edge27" class="edge">
<title>StoreDebugModule&#45;&gt;StoreDebugComponent </title>
<path fill="none" stroke="black" stroke-dasharray="5,2" d="M3813,-153.02C3813,-153.02 3813,-174.53 3813,-174.53"/>
<polygon fill="black" stroke="black" points="3809.5,-174.53 3813,-184.53 3816.5,-174.53 3809.5,-174.53"/>
</g>
<!-- TextSearchComponent -->
<g id="node38" class="node">
<title>TextSearchComponent</title>
<polygon fill="#ffffb3" stroke="black" points="2098.58,-152.8 1953.42,-152.8 1953.42,-116.8 2098.58,-116.8 2098.58,-152.8"/>
<text text-anchor="middle" x="2026" y="-130.6" font-family="Times,serif" font-size="14.00">TextSearchComponent</text>
</g>
<!-- TextSearchComponent&#45;&gt;TextSearchModule -->
<g id="edge28" class="edge">
<title>TextSearchComponent&#45;&gt;TextSearchModule</title>
<path fill="none" stroke="black" d="M2026,-153.02C2026,-153.02 2026,-174.53 2026,-174.53"/>
<polygon fill="black" stroke="black" points="2022.5,-174.53 2026,-184.53 2029.5,-174.53 2022.5,-174.53"/>
</g>
<!-- MatPrefix  -->
<g id="node40" class="node">
<title>MatPrefix </title>
<polygon fill="#fb8072" stroke="black" points="2225.26,-288.8 2148.74,-288.8 2148.74,-252.8 2225.26,-252.8 2225.26,-288.8"/>
<text text-anchor="middle" x="2187" y="-266.6" font-family="Times,serif" font-size="14.00">MatPrefix </text>
</g>
<!-- TextSearchModule&#45;&gt;MatPrefix  -->
<g id="edge30" class="edge">
<title>TextSearchModule&#45;&gt;MatPrefix </title>
<path fill="none" stroke="black" stroke-dasharray="5,2" d="M2087.79,-202.8C2133.19,-202.8 2187,-202.8 2187,-202.8 2187,-202.8 2187,-242.58 2187,-242.58"/>
<polygon fill="black" stroke="black" points="2183.5,-242.58 2187,-252.58 2190.5,-242.58 2183.5,-242.58"/>
</g>
<!-- MatSuffix  -->
<g id="node41" class="node">
<title>MatSuffix </title>
<polygon fill="#fb8072" stroke="black" points="2130.54,-288.8 2053.46,-288.8 2053.46,-252.8 2130.54,-252.8 2130.54,-288.8"/>
<text text-anchor="middle" x="2092" y="-266.6" font-family="Times,serif" font-size="14.00">MatSuffix </text>
</g>
<!-- TextSearchModule&#45;&gt;MatSuffix  -->
<g id="edge31" class="edge">
<title>TextSearchModule&#45;&gt;MatSuffix </title>
<path fill="none" stroke="black" stroke-dasharray="5,2" d="M2070.56,-221.02C2070.56,-221.02 2070.56,-242.53 2070.56,-242.53"/>
<polygon fill="black" stroke="black" points="2067.06,-242.53 2070.56,-252.53 2074.06,-242.53 2067.06,-242.53"/>
</g>
<!-- TextSearchComponent  -->
<g id="node42" class="node">
<title>TextSearchComponent </title>
<polygon fill="#fb8072" stroke="black" points="2035.08,-288.8 1886.92,-288.8 1886.92,-252.8 2035.08,-252.8 2035.08,-288.8"/>
<text text-anchor="middle" x="1961" y="-266.6" font-family="Times,serif" font-size="14.00">TextSearchComponent </text>
</g>
<!-- TextSearchModule&#45;&gt;TextSearchComponent  -->
<g id="edge32" class="edge">
<title>TextSearchModule&#45;&gt;TextSearchComponent </title>
<path fill="none" stroke="black" stroke-dasharray="5,2" d="M1999.82,-221.02C1999.82,-221.02 1999.82,-242.53 1999.82,-242.53"/>
<polygon fill="black" stroke="black" points="1996.32,-242.53 1999.82,-252.53 2003.32,-242.53 1996.32,-242.53"/>
</g>
<!-- TrackingPopupComponent -->
<g id="node43" class="node">
<title>TrackingPopupComponent</title>
<polygon fill="#ffffb3" stroke="black" points="4098.65,-84.8 3931.35,-84.8 3931.35,-48.8 4098.65,-48.8 4098.65,-84.8"/>
<text text-anchor="middle" x="4015" y="-62.6" font-family="Times,serif" font-size="14.00">TrackingPopupComponent</text>
</g>
<!-- TrackingPopupModule -->
<g id="node44" class="node">
<title>TrackingPopupModule</title>
<polygon fill="#8dd3c7" stroke="black" points="4087.87,-152.8 4084.87,-156.8 4063.87,-156.8 4060.87,-152.8 3942.13,-152.8 3942.13,-116.8 4087.87,-116.8 4087.87,-152.8"/>
<text text-anchor="middle" x="4015" y="-130.6" font-family="Times,serif" font-size="14.00">TrackingPopupModule</text>
</g>
<!-- TrackingPopupComponent&#45;&gt;TrackingPopupModule -->
<g id="edge33" class="edge">
<title>TrackingPopupComponent&#45;&gt;TrackingPopupModule</title>
<path fill="none" stroke="black" d="M4015,-85.02C4015,-85.02 4015,-106.53 4015,-106.53"/>
<polygon fill="black" stroke="black" points="4011.5,-106.53 4015,-116.53 4018.5,-106.53 4011.5,-106.53"/>
</g>
<!-- TrackingPopupComponent  -->
<g id="node45" class="node">
<title>TrackingPopupComponent </title>
<polygon fill="#fb8072" stroke="black" points="4100.65,-220.8 3929.35,-220.8 3929.35,-184.8 4100.65,-184.8 4100.65,-220.8"/>
<text text-anchor="middle" x="4015" y="-198.6" font-family="Times,serif" font-size="14.00">TrackingPopupComponent </text>
</g>
<!-- TrackingPopupModule&#45;&gt;TrackingPopupComponent  -->
<g id="edge34" class="edge">
<title>TrackingPopupModule&#45;&gt;TrackingPopupComponent </title>
<path fill="none" stroke="black" stroke-dasharray="5,2" d="M4015,-153.02C4015,-153.02 4015,-174.53 4015,-174.53"/>
<polygon fill="black" stroke="black" points="4011.5,-174.53 4015,-184.53 4018.5,-174.53 4011.5,-174.53"/>
</g>
<!-- XYZPositionComponent -->
<g id="node46" class="node">
<title>XYZPositionComponent</title>
<polygon fill="#ffffb3" stroke="black" points="4299,-84.8 4143,-84.8 4143,-48.8 4299,-48.8 4299,-84.8"/>
<text text-anchor="middle" x="4221" y="-62.6" font-family="Times,serif" font-size="14.00">XYZPositionComponent</text>
</g>
<!-- XYZPositionModule -->
<g id="node47" class="node">
<title>XYZPositionModule</title>
<polygon fill="#8dd3c7" stroke="black" points="4288.21,-152.8 4285.21,-156.8 4264.21,-156.8 4261.21,-152.8 4153.79,-152.8 4153.79,-116.8 4288.21,-116.8 4288.21,-152.8"/>
<text text-anchor="middle" x="4221" y="-130.6" font-family="Times,serif" font-size="14.00">XYZPositionModule</text>
</g>
<!-- XYZPositionComponent&#45;&gt;XYZPositionModule -->
<g id="edge35" class="edge">
<title>XYZPositionComponent&#45;&gt;XYZPositionModule</title>
<path fill="none" stroke="black" d="M4221,-85.02C4221,-85.02 4221,-106.53 4221,-106.53"/>
<polygon fill="black" stroke="black" points="4217.5,-106.53 4221,-116.53 4224.5,-106.53 4217.5,-106.53"/>
</g>
<!-- XYZPositionComponent  -->
<g id="node48" class="node">
<title>XYZPositionComponent </title>
<polygon fill="#fb8072" stroke="black" points="4301,-220.8 4141,-220.8 4141,-184.8 4301,-184.8 4301,-220.8"/>
<text text-anchor="middle" x="4221" y="-198.6" font-family="Times,serif" font-size="14.00">XYZPositionComponent </text>
</g>
<!-- XYZPositionModule&#45;&gt;XYZPositionComponent  -->
<g id="edge36" class="edge">
<title>XYZPositionModule&#45;&gt;XYZPositionComponent </title>
<path fill="none" stroke="black" stroke-dasharray="5,2" d="M4221,-153.02C4221,-153.02 4221,-174.53 4221,-174.53"/>
<polygon fill="black" stroke="black" points="4217.5,-174.53 4221,-184.53 4224.5,-174.53 4217.5,-174.53"/>
</g>
</g>
</svg>
