<?xml version="1.0" encoding="UTF-8" standalone="no"?>
<!DOCTYPE svg PUBLIC "-//W3C//DTD SVG 1.1//EN"
 "http://www.w3.org/Graphics/SVG/1.1/DTD/svg11.dtd">
<!-- Generated by graphviz version 2.47.3 (20210619.1520)
 -->
<!-- Title: dependencies Pages: 1 -->
<svg width="454pt" height="247pt"
 viewBox="0.00 0.00 454.00 246.80" xmlns="http://www.w3.org/2000/svg" xmlns:xlink="http://www.w3.org/1999/xlink">
<g id="graph0" class="graph" transform="scale(1 1) rotate(0) translate(4 242.8)">
<title>dependencies</title>
<polygon fill="white" stroke="transparent" points="-4,4 -4,-242.8 450,-242.8 450,4 -4,4"/>
<text text-anchor="middle" x="223" y="-8.2" font-family="sans-serif" font-size="14.00">dependencies</text>
<g id="clust1" class="cluster">
<title>cluster_SpatialSearchUiBehaviorModule</title>
<polygon fill="none" stroke="black" stroke-dasharray="1,5" points="8,-32.8 8,-230.8 438,-230.8 438,-32.8 8,-32.8"/>
</g>
<g id="clust4" class="cluster">
<title>cluster_SpatialSearchUiBehaviorModule_imports</title>
<polygon fill="none" stroke="black" points="264,-40.8 264,-92.8 430,-92.8 430,-40.8 264,-40.8"/>
</g>
<g id="clust5" class="cluster">
<title>cluster_SpatialSearchUiBehaviorModule_exports</title>
<polygon fill="none" stroke="black" points="101,-170.8 101,-222.8 345,-222.8 345,-170.8 101,-170.8"/>
</g>
<g id="clust2" class="cluster">
<title>cluster_SpatialSearchUiBehaviorModule_declarations</title>
<polygon fill="none" stroke="black" points="16,-40.8 16,-92.8 256,-92.8 256,-40.8 16,-40.8"/>
</g>
<!-- SpatialSearchUiBehaviorComponent -->
<g id="node1" class="node">
<title>SpatialSearchUiBehaviorComponent</title>
<polygon fill="#ffffb3" stroke="black" points="247.62,-84.8 24.38,-84.8 24.38,-48.8 247.62,-48.8 247.62,-84.8"/>
<text text-anchor="middle" x="136" y="-62.6" font-family="Times,serif" font-size="14.00">SpatialSearchUiBehaviorComponent</text>
</g>
<!-- SpatialSearchUiBehaviorModule -->
<g id="node2" class="node">
<title>SpatialSearchUiBehaviorModule</title>
<polygon fill="#8dd3c7" stroke="black" points="323.83,-149.8 320.83,-153.8 299.83,-153.8 296.83,-149.8 122.17,-149.8 122.17,-113.8 323.83,-113.8 323.83,-149.8"/>
<text text-anchor="middle" x="223" y="-127.6" font-family="Times,serif" font-size="14.00">SpatialSearchUiBehaviorModule</text>
</g>
<!-- SpatialSearchUiBehaviorComponent&#45;&gt;SpatialSearchUiBehaviorModule -->
<g id="edge1" class="edge">
<title>SpatialSearchUiBehaviorComponent&#45;&gt;SpatialSearchUiBehaviorModule</title>
<path fill="none" stroke="black" d="M184.95,-84.91C184.95,-84.91 184.95,-103.79 184.95,-103.79"/>
<polygon fill="black" stroke="black" points="181.45,-103.79 184.95,-113.79 188.45,-103.79 181.45,-103.79"/>
</g>
<!-- SpatialSearchUiBehaviorComponent  -->
<g id="node4" class="node">
<title>SpatialSearchUiBehaviorComponent </title>
<polygon fill="#fb8072" stroke="black" points="336.62,-214.8 109.38,-214.8 109.38,-178.8 336.62,-178.8 336.62,-214.8"/>
<text text-anchor="middle" x="223" y="-192.6" font-family="Times,serif" font-size="14.00">SpatialSearchUiBehaviorComponent </text>
</g>
<!-- SpatialSearchUiBehaviorModule&#45;&gt;SpatialSearchUiBehaviorComponent  -->
<g id="edge3" class="edge">
<title>SpatialSearchUiBehaviorModule&#45;&gt;SpatialSearchUiBehaviorComponent </title>
<path fill="none" stroke="black" stroke-dasharray="5,2" d="M223,-149.91C223,-149.91 223,-168.79 223,-168.79"/>
<polygon fill="black" stroke="black" points="219.5,-168.79 223,-178.79 226.5,-168.79 219.5,-168.79"/>
</g>
<!-- SpatialSearchUiModule -->
<g id="node3" class="node">
<title>SpatialSearchUiModule</title>
<polygon fill="#8dd3c7" stroke="black" points="422.02,-84.8 419.02,-88.8 398.02,-88.8 395.02,-84.8 271.98,-84.8 271.98,-48.8 422.02,-48.8 422.02,-84.8"/>
<text text-anchor="middle" x="347" y="-62.6" font-family="Times,serif" font-size="14.00">SpatialSearchUiModule</text>
</g>
<!-- SpatialSearchUiModule&#45;&gt;SpatialSearchUiBehaviorModule -->
<g id="edge2" class="edge">
<title>SpatialSearchUiModule&#45;&gt;SpatialSearchUiBehaviorModule</title>
<path fill="none" stroke="black" d="M297.83,-84.91C297.83,-84.91 297.83,-103.79 297.83,-103.79"/>
<polygon fill="black" stroke="black" points="294.33,-103.79 297.83,-113.79 301.33,-103.79 294.33,-103.79"/>
</g>
</g>
</svg>
