<?xml version="1.0" encoding="UTF-8" standalone="no"?>
<!DOCTYPE svg PUBLIC "-//W3C//DTD SVG 1.1//EN"
 "http://www.w3.org/Graphics/SVG/1.1/DTD/svg11.dtd">
<!-- Generated by graphviz version 2.47.0 (20210316.0004)
 -->
<!-- Title: dependencies Pages: 1 -->
<svg width="504pt" height="284pt"
 viewBox="0.00 0.00 504.00 284.00" xmlns="http://www.w3.org/2000/svg" xmlns:xlink="http://www.w3.org/1999/xlink">
<g id="graph0" class="graph" transform="scale(1 1) rotate(0) translate(4 280)">
<title>dependencies</title>
<polygon fill="white" stroke="transparent" points="-4,4 -4,-280 500,-280 500,4 -4,4"/>
<text text-anchor="start" x="227.01" y="-42.4" font-family="Times-12" font-weight="bold" font-size="14.00">Legend</text>
<polygon fill="#ffffb3" stroke="transparent" points="14,-10 14,-30 34,-30 34,-10 14,-10"/>
<text text-anchor="start" x="37.63" y="-15.4" font-family="Times-12" font-size="14.00"> &#160;Declarations</text>
<polygon fill="#8dd3c7" stroke="transparent" points="127,-10 127,-30 147,-30 147,-10 127,-10"/>
<text text-anchor="start" x="150.73" y="-15.4" font-family="Times-12" font-size="14.00"> &#160;Module</text>
<polygon fill="#80b1d3" stroke="transparent" points="213,-10 213,-30 233,-30 233,-10 213,-10"/>
<text text-anchor="start" x="236.78" y="-15.4" font-family="Times-12" font-size="14.00"> &#160;Bootstrap</text>
<polygon fill="#fdb462" stroke="transparent" points="310,-10 310,-30 330,-30 330,-10 310,-10"/>
<text text-anchor="start" x="333.67" y="-15.4" font-family="Times-12" font-size="14.00"> &#160;Providers</text>
<polygon fill="#fb8072" stroke="transparent" points="406,-10 406,-30 426,-30 426,-10 406,-10"/>
<text text-anchor="start" x="429.73" y="-15.4" font-family="Times-12" font-size="14.00"> &#160;Exports</text>
<g id="clust1" class="cluster">
<title>cluster_SpatialSearchUiBehaviorModule</title>
<polygon fill="none" stroke="black" stroke-dasharray="1,5" points="33,-70 33,-268 463,-268 463,-70 33,-70"/>
</g>
<g id="clust5" class="cluster">
<title>cluster_SpatialSearchUiBehaviorModule_exports</title>
<polygon fill="none" stroke="black" points="126,-208 126,-260 370,-260 370,-208 126,-208"/>
</g>
<g id="clust2" class="cluster">
<title>cluster_SpatialSearchUiBehaviorModule_declarations</title>
<polygon fill="none" stroke="black" points="215,-78 215,-130 455,-130 455,-78 215,-78"/>
</g>
<g id="clust4" class="cluster">
<title>cluster_SpatialSearchUiBehaviorModule_imports</title>
<polygon fill="none" stroke="black" points="41,-78 41,-130 207,-130 207,-78 41,-78"/>
</g>
<!-- SpatialSearchUiBehaviorComponent -->
<g id="node1" class="node">
<title>SpatialSearchUiBehaviorComponent</title>
<polygon fill="#ffffb3" stroke="black" points="446.62,-122 223.38,-122 223.38,-86 446.62,-86 446.62,-122"/>
<text text-anchor="middle" x="335" y="-99.8" font-family="Times,serif" font-size="14.00">SpatialSearchUiBehaviorComponent</text>
</g>
<!-- SpatialSearchUiBehaviorModule -->
<g id="node2" class="node">
<title>SpatialSearchUiBehaviorModule</title>
<polygon fill="#8dd3c7" stroke="black" points="348.83,-187 345.83,-191 324.83,-191 321.83,-187 147.17,-187 147.17,-151 348.83,-151 348.83,-187"/>
<text text-anchor="middle" x="248" y="-164.8" font-family="Times,serif" font-size="14.00">SpatialSearchUiBehaviorModule</text>
</g>
<!-- SpatialSearchUiBehaviorComponent&#45;&gt;SpatialSearchUiBehaviorModule -->
<g id="edge1" class="edge">
<title>SpatialSearchUiBehaviorComponent&#45;&gt;SpatialSearchUiBehaviorModule</title>
<path fill="none" stroke="black" d="M286.05,-122.11C286.05,-122.11 286.05,-140.99 286.05,-140.99"/>
<polygon fill="black" stroke="black" points="282.55,-140.99 286.05,-150.99 289.55,-140.99 282.55,-140.99"/>
</g>
<!-- SpatialSearchUiBehaviorComponent  -->
<g id="node4" class="node">
<title>SpatialSearchUiBehaviorComponent </title>
<polygon fill="#fb8072" stroke="black" points="361.62,-252 134.38,-252 134.38,-216 361.62,-216 361.62,-252"/>
<text text-anchor="middle" x="248" y="-229.8" font-family="Times,serif" font-size="14.00">SpatialSearchUiBehaviorComponent </text>
</g>
<!-- SpatialSearchUiBehaviorModule&#45;&gt;SpatialSearchUiBehaviorComponent  -->
<g id="edge3" class="edge">
<title>SpatialSearchUiBehaviorModule&#45;&gt;SpatialSearchUiBehaviorComponent </title>
<path fill="none" stroke="black" stroke-dasharray="5,2" d="M248,-187.11C248,-187.11 248,-205.99 248,-205.99"/>
<polygon fill="black" stroke="black" points="244.5,-205.99 248,-215.99 251.5,-205.99 244.5,-205.99"/>
</g>
<!-- SpatialSearchUiModule -->
<g id="node3" class="node">
<title>SpatialSearchUiModule</title>
<polygon fill="#8dd3c7" stroke="black" points="199.02,-122 196.02,-126 175.02,-126 172.02,-122 48.98,-122 48.98,-86 199.02,-86 199.02,-122"/>
<text text-anchor="middle" x="124" y="-99.8" font-family="Times,serif" font-size="14.00">SpatialSearchUiModule</text>
</g>
<!-- SpatialSearchUiModule&#45;&gt;SpatialSearchUiBehaviorModule -->
<g id="edge2" class="edge">
<title>SpatialSearchUiModule&#45;&gt;SpatialSearchUiBehaviorModule</title>
<path fill="none" stroke="black" d="M173.17,-122.11C173.17,-122.11 173.17,-140.99 173.17,-140.99"/>
<polygon fill="black" stroke="black" points="169.67,-140.99 173.17,-150.99 176.67,-140.99 169.67,-140.99"/>
</g>
</g>
</svg>
