<?xml version="1.0" encoding="UTF-8" standalone="no"?>
<!DOCTYPE svg PUBLIC "-//W3C//DTD SVG 1.1//EN"
 "http://www.w3.org/Graphics/SVG/1.1/DTD/svg11.dtd">
<!-- Generated by graphviz version 2.40.1 (20161225.0304)
 -->
<!-- Title: dependencies Pages: 1 -->
<svg width="898pt" height="284pt"
 viewBox="0.00 0.00 898.00 284.00" xmlns="http://www.w3.org/2000/svg" xmlns:xlink="http://www.w3.org/1999/xlink">
<g id="graph0" class="graph" transform="scale(1 1) rotate(0) translate(4 280)">
<title>dependencies</title>
<polygon fill="#ffffff" stroke="transparent" points="-4,4 -4,-280 894,-280 894,4 -4,4"/>
<text text-anchor="start" x="424.0091" y="-42.4" font-family="sans-serif" font-weight="bold" font-size="14.00" fill="#000000">Legend</text>
<polygon fill="#ffffb3" stroke="transparent" points="211,-10 211,-30 231,-30 231,-10 211,-10"/>
<text text-anchor="start" x="234.629" y="-15.4" font-family="sans-serif" font-size="14.00" fill="#000000"> &#160;Declarations</text>
<polygon fill="#8dd3c7" stroke="transparent" points="324,-10 324,-30 344,-30 344,-10 324,-10"/>
<text text-anchor="start" x="347.7251" y="-15.4" font-family="sans-serif" font-size="14.00" fill="#000000"> &#160;Module</text>
<polygon fill="#80b1d3" stroke="transparent" points="410,-10 410,-30 430,-30 430,-10 410,-10"/>
<text text-anchor="start" x="433.7812" y="-15.4" font-family="sans-serif" font-size="14.00" fill="#000000"> &#160;Bootstrap</text>
<polygon fill="#fdb462" stroke="transparent" points="507,-10 507,-30 527,-30 527,-10 507,-10"/>
<text text-anchor="start" x="530.6732" y="-15.4" font-family="sans-serif" font-size="14.00" fill="#000000"> &#160;Providers</text>
<polygon fill="#fb8072" stroke="transparent" points="603,-10 603,-30 623,-30 623,-10 603,-10"/>
<text text-anchor="start" x="626.7258" y="-15.4" font-family="sans-serif" font-size="14.00" fill="#000000"> &#160;Exports</text>
<g id="clust1" class="cluster">
<title>cluster_ImageViewerPopoverModule</title>
<polygon fill="none" stroke="#000000" stroke-dasharray="1,5" points="8,-70 8,-268 882,-268 882,-70 8,-70"/>
</g>
<g id="clust2" class="cluster">
<title>cluster_ImageViewerPopoverModule_declarations</title>
<polygon fill="none" stroke="#000000" points="654,-78 654,-130 874,-130 874,-78 654,-78"/>
</g>
<g id="clust4" class="cluster">
<title>cluster_ImageViewerPopoverModule_imports</title>
<polygon fill="none" stroke="#000000" points="16,-78 16,-130 646,-130 646,-78 16,-78"/>
</g>
<g id="clust5" class="cluster">
<title>cluster_ImageViewerPopoverModule_exports</title>
<polygon fill="none" stroke="#000000" points="316,-208 316,-260 540,-260 540,-208 316,-208"/>
</g>
<!-- ImageViewerPopoverComponent -->
<g id="node1" class="node">
<title>ImageViewerPopoverComponent</title>
<polygon fill="#ffffb3" stroke="#000000" points="866.1643,-122 661.8357,-122 661.8357,-86 866.1643,-86 866.1643,-122"/>
<text text-anchor="middle" x="764" y="-99.8" font-family="Times,serif" font-size="14.00" fill="#000000">ImageViewerPopoverComponent</text>
</g>
<!-- ImageViewerPopoverModule -->
<g id="node2" class="node">
<title>ImageViewerPopoverModule</title>
<polygon fill="#8dd3c7" stroke="#000000" points="519.382,-187 516.382,-191 495.382,-191 492.382,-187 336.618,-187 336.618,-151 519.382,-151 519.382,-187"/>
<text text-anchor="middle" x="428" y="-164.8" font-family="Times,serif" font-size="14.00" fill="#000000">ImageViewerPopoverModule</text>
</g>
<!-- ImageViewerPopoverComponent&#45;&gt;ImageViewerPopoverModule -->
<g id="edge1" class="edge">
<title>ImageViewerPopoverComponent&#45;&gt;ImageViewerPopoverModule</title>
<path fill="none" stroke="#000000" d="M764,-122.2843C764,-143.3211 764,-175 764,-175 764,-175 529.3697,-175 529.3697,-175"/>
<polygon fill="#000000" stroke="#000000" points="529.3697,-171.5001 519.3697,-175 529.3696,-178.5001 529.3697,-171.5001"/>
</g>
<!-- ImageViewerPopoverComponent  -->
<g id="node7" class="node">
<title>ImageViewerPopoverComponent </title>
<polygon fill="#fb8072" stroke="#000000" points="531.6645,-252 324.3355,-252 324.3355,-216 531.6645,-216 531.6645,-252"/>
<text text-anchor="middle" x="428" y="-229.8" font-family="Times,serif" font-size="14.00" fill="#000000">ImageViewerPopoverComponent </text>
</g>
<!-- ImageViewerPopoverModule&#45;&gt;ImageViewerPopoverComponent  -->
<g id="edge6" class="edge">
<title>ImageViewerPopoverModule&#45;&gt;ImageViewerPopoverComponent </title>
<path fill="none" stroke="#000000" stroke-dasharray="5,2" d="M428,-187.1061C428,-187.1061 428,-205.991 428,-205.991"/>
<polygon fill="#000000" stroke="#000000" points="424.5001,-205.9909 428,-215.991 431.5001,-205.991 424.5001,-205.9909"/>
</g>
<!-- DrawerModule -->
<g id="node3" class="node">
<title>DrawerModule</title>
<polygon fill="#8dd3c7" stroke="#000000" points="637.5146,-122 634.5146,-126 613.5146,-126 610.5146,-122 536.4854,-122 536.4854,-86 637.5146,-86 637.5146,-122"/>
<text text-anchor="middle" x="587" y="-99.8" font-family="Times,serif" font-size="14.00" fill="#000000">DrawerModule</text>
</g>
<!-- DrawerModule&#45;&gt;ImageViewerPopoverModule -->
<g id="edge2" class="edge">
<title>DrawerModule&#45;&gt;ImageViewerPopoverModule</title>
<path fill="none" stroke="#000000" d="M587,-122.0225C587,-139.3734 587,-163 587,-163 587,-163 529.5697,-163 529.5697,-163"/>
<polygon fill="#000000" stroke="#000000" points="529.5697,-159.5001 519.5697,-163 529.5697,-166.5001 529.5697,-159.5001"/>
</g>
<!-- ImageViewerContentModule -->
<g id="node4" class="node">
<title>ImageViewerContentModule</title>
<polygon fill="#8dd3c7" stroke="#000000" points="518.0562,-122 515.0562,-126 494.0562,-126 491.0562,-122 337.9438,-122 337.9438,-86 518.0562,-86 518.0562,-122"/>
<text text-anchor="middle" x="428" y="-99.8" font-family="Times,serif" font-size="14.00" fill="#000000">ImageViewerContentModule</text>
</g>
<!-- ImageViewerContentModule&#45;&gt;ImageViewerPopoverModule -->
<g id="edge3" class="edge">
<title>ImageViewerContentModule&#45;&gt;ImageViewerPopoverModule</title>
<path fill="none" stroke="#000000" d="M428,-122.1061C428,-122.1061 428,-140.991 428,-140.991"/>
<polygon fill="#000000" stroke="#000000" points="424.5001,-140.9909 428,-150.991 431.5001,-140.991 424.5001,-140.9909"/>
</g>
<!-- ImageViewerLegendModule -->
<g id="node5" class="node">
<title>ImageViewerLegendModule</title>
<polygon fill="#8dd3c7" stroke="#000000" points="319.7058,-122 316.7058,-126 295.7058,-126 292.7058,-122 142.2942,-122 142.2942,-86 319.7058,-86 319.7058,-122"/>
<text text-anchor="middle" x="231" y="-99.8" font-family="Times,serif" font-size="14.00" fill="#000000">ImageViewerLegendModule</text>
</g>
<!-- ImageViewerLegendModule&#45;&gt;ImageViewerPopoverModule -->
<g id="edge4" class="edge">
<title>ImageViewerLegendModule&#45;&gt;ImageViewerPopoverModule</title>
<path fill="none" stroke="#000000" d="M231,-122.0225C231,-139.3734 231,-163 231,-163 231,-163 326.7086,-163 326.7086,-163"/>
<polygon fill="#000000" stroke="#000000" points="326.7087,-166.5001 336.7086,-163 326.7086,-159.5001 326.7087,-166.5001"/>
</g>
<!-- ViewerModule -->
<g id="node6" class="node">
<title>ViewerModule</title>
<polygon fill="#8dd3c7" stroke="#000000" points="124.2437,-122 121.2437,-126 100.2437,-126 97.2437,-122 23.7563,-122 23.7563,-86 124.2437,-86 124.2437,-122"/>
<text text-anchor="middle" x="74" y="-99.8" font-family="Times,serif" font-size="14.00" fill="#000000">ViewerModule</text>
</g>
<!-- ViewerModule&#45;&gt;ImageViewerPopoverModule -->
<g id="edge5" class="edge">
<title>ViewerModule&#45;&gt;ImageViewerPopoverModule</title>
<path fill="none" stroke="#000000" d="M74,-122.2843C74,-143.3211 74,-175 74,-175 74,-175 326.3758,-175 326.3758,-175"/>
<polygon fill="#000000" stroke="#000000" points="326.3759,-178.5001 336.3758,-175 326.3758,-171.5001 326.3759,-178.5001"/>
</g>
</g>
</svg>
