<svg xmlns="http://www.w3.org/2000/svg" viewBox="0 0 30 30"><defs><style>.cls-1{fill:none;stroke:#fff;stroke-width:0.5px;}.cls-1,.cls-2{stroke-miterlimit:10;}.cls-2,.cls-3{fill:#fff;}.cls-2{stroke:currentColor;stroke-width:0.25px;}</style></defs><g id="Breast"><path d="M9.13,1.59a11.22,11.22,0,0,0,5.48,8.25c3.6,2.15,7.52,6.38,8,7.6a3.24,3.24,0,0,0,2.12,1.74,1.46,1.46,0,0,1-.68,2.66c-.62.12-1.34,1.12-1.57,1.76-2,3.88-4.61,5.14-8.78,4.74a23.32,23.32,0,0,1-3.11-.72S6.7,26.18,6.68,25L6.36,1.59Z"/><path class="cls-1" d="M24.12,20.12a3.83,3.83,0,0,1-1.77-.43c-.76-.46-.1-.62-1.25-1.87a8.89,8.89,0,0,0-2.18-1"/><path class="cls-2" d="M17.64,14.44c.4.61,1.3,1,1.47,1.51a1.34,1.34,0,0,1-.25,1.16c-.44.51-1.45-.12-2.47-1a3.48,3.48,0,0,1-.77-1.45,1.27,1.27,0,0,1,0-1.23C16.05,12.93,17,13.49,17.64,14.44Z"/><path class="cls-1" d="M24,20.62a6.91,6.91,0,0,0-2-.09c-1.08-.07-1.56.54-3-.58"/><path class="cls-2" d="M16.91,19.08c.6.23,1.3-.14,1.67.13a1.39,1.39,0,0,1,.46,1c0,.66-1.06.79-2.22.75a2.58,2.58,0,0,1-1.3-.64.75.75,0,0,1-.41-.82C15.13,18.88,16,18.74,16.91,19.08Z"/><path class="cls-1" d="M24.12,20.41s-2.63.16-3.49-1.17c-.48-.74-.78-.82-2.47-1.08a4.75,4.75,0,0,1-2.3-.83"/><path class="cls-2" d="M12.8,15.89c.85.35,2.08.26,2.6.61A1.33,1.33,0,0,1,16,17.67c-.11.68-1.61.64-3.29.38a4.7,4.7,0,0,1-1.82-.91c-.54-.31-1-.52-.87-1.1S11.5,15.36,12.8,15.89Z"/><path class="cls-1" d="M23.89,20.7a11.28,11.28,0,0,0-2.05.3c-.85.25-1.18,1.73-2.89,1.72a9.38,9.38,0,0,0-4.44,2"/><path class="cls-1" d="M24.12,20.12a7.13,7.13,0,0,0-2.16.1c-.85.24-1.56,1.72-3.27,1.71-2.07.42-2.73.79-4.45.43"/><path class="cls-2" d="M12.11,23.65c.71.19,1.58-.25,2.05,0A1.33,1.33,0,0,1,14.67,25c-.12.46-2.27,1.71-3.68.72-.45-.31-.87-.66-.92-1.1C10,23.75,11,23.37,12.11,23.65Z"/><path class="cls-1" d="M24.12,20.7a7.42,7.42,0,0,0-1.8.15c-.85.25-.76,3.19-2.43,3.9"/><path class="cls-2" d="M18.64,26.16c.82.33,1.71-.83,1-1.74-.48-.61-.7-.93-2.59.15-.48.27-1.52.5-.86,1.79C16.51,27,17.65,25.77,18.64,26.16Z"/><path class="cls-3" d="M13.27,23.58a3.45,3.45,0,0,1-.72-.08A7.33,7.33,0,0,1,11,23l-.21-.09a1.3,1.3,0,0,1-1-1.4c0-.66.79-1,1.55-1a2.12,2.12,0,0,1,.57.07l.19,0c.57.13.93.21,1.76.43a2,2,0,0,1,1.25,1.17A.88.88,0,0,1,15,23,2.2,2.2,0,0,1,13.27,23.58Z"/><path d="M11.36,20.6h0a2.51,2.51,0,0,1,.55.06l.2,0c.56.13.91.21,1.74.43A1.86,1.86,0,0,1,15,22.21a.75.75,0,0,1-.16.66,2.07,2.07,0,0,1-1.58.59,3.34,3.34,0,0,1-.7-.08,8.19,8.19,0,0,1-1.48-.52l-.21-.09a1.18,1.18,0,0,1-.94-1.29c0-.57.74-.88,1.42-.88m0-.25c-.87,0-1.67.41-1.67,1.13,0,1.24.83,1.39,1.3,1.6a7.35,7.35,0,0,0,1.53.54,3.2,3.2,0,0,0,.75.09c1.17,0,2.18-.62,2-1.55a2.07,2.07,0,0,0-1.33-1.27c-.93-.25-1.27-.32-2-.48a3,3,0,0,0-.6-.06Z"/></g></svg>
