<svg xmlns="http://www.w3.org/2000/svg" viewBox="0 0 30 30"><defs><style>.cls-1{stroke:#000;stroke-miterlimit:10;}</style></defs><g id="approved"><g id="ovary_right" data-name="ovary right"><path class="cls-1" d="M16.74,15.73l-6.1-6-.26,1.21s4.8,2.79,6.17,5.6C17,15.2,16.74,15.73,16.74,15.73Z"/><path d="M3.46,3c3.53-.6,4,2.85,5.8,3a3.56,3.56,0,0,0,2.36-.74l.88,2.57s-1.05,1-1.12,1.67.57,3.08-.4,4.9-2.33,3.11-2.67,4.45-.07,1.82-.77,4.9a11.11,11.11,0,0,1-2.1,4.66h-2Z"/><ellipse cx="18.46" cy="18.38" rx="4.78" ry="3.53" transform="translate(-5.99 27.38) rotate(-65.08)"/><path d="M22.26,10.57c-1,.86-1.58,1.41-2.19,2a2.71,2.71,0,0,1,2.21.82,4.57,4.57,0,0,1,1.15,1.51A21.45,21.45,0,0,0,26.3,11c4-5.87-1.46-9.73-7.8-8.6a22.27,22.27,0,0,0-7.21,3l.92,2.64a15.39,15.39,0,0,1,6.14-3.25C22.73,3.78,27,6.42,22.26,10.57Z"/></g></g></svg>