<?xml version="1.0" encoding="UTF-8" standalone="no"?>
<!DOCTYPE svg PUBLIC "-//W3C//DTD SVG 1.1//EN"
 "http://www.w3.org/Graphics/SVG/1.1/DTD/svg11.dtd">
<!-- Generated by graphviz version 2.47.3 (20210619.1520)
 -->
<!-- Title: dependencies Pages: 1 -->
<svg width="1402pt" height="247pt"
 viewBox="0.00 0.00 1402.00 246.80" xmlns="http://www.w3.org/2000/svg" xmlns:xlink="http://www.w3.org/1999/xlink">
<g id="graph0" class="graph" transform="scale(1 1) rotate(0) translate(4 242.8)">
<title>dependencies</title>
<polygon fill="white" stroke="transparent" points="-4,4 -4,-242.8 1398,-242.8 1398,4 -4,4"/>
<text text-anchor="middle" x="697" y="-8.2" font-family="sans-serif" font-size="14.00">dependencies</text>
<g id="clust1" class="cluster">
<title>cluster_LeftSidebarModule</title>
<polygon fill="none" stroke="black" stroke-dasharray="1,5" points="8,-32.8 8,-230.8 1386,-230.8 1386,-32.8 8,-32.8"/>
</g>
<g id="clust2" class="cluster">
<title>cluster_LeftSidebarModule_declarations</title>
<polygon fill="none" stroke="black" points="1214,-40.8 1214,-92.8 1378,-92.8 1378,-40.8 1214,-40.8"/>
</g>
<g id="clust5" class="cluster">
<title>cluster_LeftSidebarModule_exports</title>
<polygon fill="none" stroke="black" points="502,-170.8 502,-222.8 668,-222.8 668,-170.8 502,-170.8"/>
</g>
<g id="clust4" class="cluster">
<title>cluster_LeftSidebarModule_imports</title>
<polygon fill="none" stroke="black" points="16,-40.8 16,-92.8 1206,-92.8 1206,-40.8 16,-40.8"/>
</g>
<!-- LeftSidebarComponent -->
<g id="node1" class="node">
<title>LeftSidebarComponent</title>
<polygon fill="#ffffb3" stroke="black" points="1369.91,-84.8 1222.09,-84.8 1222.09,-48.8 1369.91,-48.8 1369.91,-84.8"/>
<text text-anchor="middle" x="1296" y="-62.6" font-family="Times,serif" font-size="14.00">LeftSidebarComponent</text>
</g>
<!-- LeftSidebarModule -->
<g id="node2" class="node">
<title>LeftSidebarModule</title>
<polygon fill="#8dd3c7" stroke="black" points="647.63,-149.8 644.63,-153.8 623.63,-153.8 620.63,-149.8 522.37,-149.8 522.37,-113.8 647.63,-113.8 647.63,-149.8"/>
<text text-anchor="middle" x="585" y="-127.6" font-family="Times,serif" font-size="14.00">LeftSidebarModule</text>
</g>
<!-- LeftSidebarComponent&#45;&gt;LeftSidebarModule -->
<g id="edge1" class="edge">
<title>LeftSidebarComponent&#45;&gt;LeftSidebarModule</title>
<path fill="none" stroke="black" d="M1296,-84.81C1296,-107.29 1296,-142.8 1296,-142.8 1296,-142.8 657.78,-142.8 657.78,-142.8"/>
<polygon fill="black" stroke="black" points="657.78,-139.3 647.78,-142.8 657.78,-146.3 657.78,-139.3"/>
</g>
<!-- LeftSidebarComponent  -->
<g id="node10" class="node">
<title>LeftSidebarComponent </title>
<polygon fill="#fb8072" stroke="black" points="660.41,-214.8 509.59,-214.8 509.59,-178.8 660.41,-178.8 660.41,-214.8"/>
<text text-anchor="middle" x="585" y="-192.6" font-family="Times,serif" font-size="14.00">LeftSidebarComponent </text>
</g>
<!-- LeftSidebarModule&#45;&gt;LeftSidebarComponent  -->
<g id="edge10" class="edge">
<title>LeftSidebarModule&#45;&gt;LeftSidebarComponent </title>
<path fill="none" stroke="black" stroke-dasharray="5,2" d="M585,-149.91C585,-149.91 585,-168.79 585,-168.79"/>
<polygon fill="black" stroke="black" points="581.5,-168.79 585,-178.79 588.5,-168.79 581.5,-168.79"/>
</g>
<!-- DetailsLabelModule -->
<g id="node3" class="node">
<title>DetailsLabelModule</title>
<polygon fill="#8dd3c7" stroke="black" points="1197.57,-84.8 1194.57,-88.8 1173.57,-88.8 1170.57,-84.8 1066.43,-84.8 1066.43,-48.8 1197.57,-48.8 1197.57,-84.8"/>
<text text-anchor="middle" x="1132" y="-62.6" font-family="Times,serif" font-size="14.00">DetailsLabelModule</text>
</g>
<!-- DetailsLabelModule&#45;&gt;LeftSidebarModule -->
<g id="edge2" class="edge">
<title>DetailsLabelModule&#45;&gt;LeftSidebarModule</title>
<path fill="none" stroke="black" d="M1132,-84.93C1132,-105.37 1132,-135.8 1132,-135.8 1132,-135.8 657.75,-135.8 657.75,-135.8"/>
<polygon fill="black" stroke="black" points="657.75,-132.3 647.75,-135.8 657.75,-139.3 657.75,-132.3"/>
</g>
<!-- ExtractionSetDropdownModule -->
<g id="node4" class="node">
<title>ExtractionSetDropdownModule</title>
<polygon fill="#8dd3c7" stroke="black" points="1048.63,-84.8 1045.63,-88.8 1024.63,-88.8 1021.63,-84.8 853.37,-84.8 853.37,-48.8 1048.63,-48.8 1048.63,-84.8"/>
<text text-anchor="middle" x="951" y="-62.6" font-family="Times,serif" font-size="14.00">ExtractionSetDropdownModule</text>
</g>
<!-- ExtractionSetDropdownModule&#45;&gt;LeftSidebarModule -->
<g id="edge3" class="edge">
<title>ExtractionSetDropdownModule&#45;&gt;LeftSidebarModule</title>
<path fill="none" stroke="black" d="M951,-85.07C951,-103.36 951,-128.8 951,-128.8 951,-128.8 657.92,-128.8 657.92,-128.8"/>
<polygon fill="black" stroke="black" points="657.92,-125.3 647.92,-128.8 657.92,-132.3 657.92,-125.3"/>
</g>
<!-- JsonFileReaderModule -->
<g id="node5" class="node">
<title>JsonFileReaderModule</title>
<polygon fill="#8dd3c7" stroke="black" points="834.86,-84.8 831.86,-88.8 810.86,-88.8 807.86,-84.8 689.14,-84.8 689.14,-48.8 834.86,-48.8 834.86,-84.8"/>
<text text-anchor="middle" x="762" y="-62.6" font-family="Times,serif" font-size="14.00">JsonFileReaderModule</text>
</g>
<!-- JsonFileReaderModule&#45;&gt;LeftSidebarModule -->
<g id="edge4" class="edge">
<title>JsonFileReaderModule&#45;&gt;LeftSidebarModule</title>
<path fill="none" stroke="black" d="M762,-84.81C762,-100.85 762,-121.8 762,-121.8 762,-121.8 657.9,-121.8 657.9,-121.8"/>
<polygon fill="black" stroke="black" points="657.9,-118.3 647.9,-121.8 657.9,-125.3 657.9,-118.3"/>
</g>
<!-- LabeledSlideToggleModule -->
<g id="node6" class="node">
<title>LabeledSlideToggleModule</title>
<polygon fill="#8dd3c7" stroke="black" points="671.57,-84.8 668.57,-88.8 647.57,-88.8 644.57,-84.8 498.43,-84.8 498.43,-48.8 671.57,-48.8 671.57,-84.8"/>
<text text-anchor="middle" x="585" y="-62.6" font-family="Times,serif" font-size="14.00">LabeledSlideToggleModule</text>
</g>
<!-- LabeledSlideToggleModule&#45;&gt;LeftSidebarModule -->
<g id="edge5" class="edge">
<title>LabeledSlideToggleModule&#45;&gt;LeftSidebarModule</title>
<path fill="none" stroke="black" d="M585,-84.91C585,-84.91 585,-103.79 585,-103.79"/>
<polygon fill="black" stroke="black" points="581.5,-103.79 585,-113.79 588.5,-103.79 581.5,-103.79"/>
</g>
<!-- NameInputModule -->
<g id="node7" class="node">
<title>NameInputModule</title>
<polygon fill="#8dd3c7" stroke="black" points="480.03,-84.8 477.03,-88.8 456.03,-88.8 453.03,-84.8 357.97,-84.8 357.97,-48.8 480.03,-48.8 480.03,-84.8"/>
<text text-anchor="middle" x="419" y="-62.6" font-family="Times,serif" font-size="14.00">NameInputModule</text>
</g>
<!-- NameInputModule&#45;&gt;LeftSidebarModule -->
<g id="edge6" class="edge">
<title>NameInputModule&#45;&gt;LeftSidebarModule</title>
<path fill="none" stroke="black" d="M419,-84.81C419,-100.85 419,-121.8 419,-121.8 419,-121.8 512.24,-121.8 512.24,-121.8"/>
<polygon fill="black" stroke="black" points="512.24,-125.3 522.24,-121.8 512.24,-118.3 512.24,-125.3"/>
</g>
<!-- VisibilityMenuModule -->
<g id="node8" class="node">
<title>VisibilityMenuModule</title>
<polygon fill="#8dd3c7" stroke="black" points="339.6,-84.8 336.6,-88.8 315.6,-88.8 312.6,-84.8 194.4,-84.8 194.4,-48.8 339.6,-48.8 339.6,-84.8"/>
<text text-anchor="middle" x="267" y="-62.6" font-family="Times,serif" font-size="14.00">VisibilityMenuModule</text>
</g>
<!-- VisibilityMenuModule&#45;&gt;LeftSidebarModule -->
<g id="edge7" class="edge">
<title>VisibilityMenuModule&#45;&gt;LeftSidebarModule</title>
<path fill="none" stroke="black" d="M267,-85.07C267,-103.36 267,-128.8 267,-128.8 267,-128.8 512.17,-128.8 512.17,-128.8"/>
<polygon fill="black" stroke="black" points="512.17,-132.3 522.17,-128.8 512.17,-125.3 512.17,-132.3"/>
</g>
<!-- VisibilityToggleModule -->
<g id="node9" class="node">
<title>VisibilityToggleModule</title>
<polygon fill="#8dd3c7" stroke="black" points="176.1,-84.8 173.1,-88.8 152.1,-88.8 149.1,-84.8 23.9,-84.8 23.9,-48.8 176.1,-48.8 176.1,-84.8"/>
<text text-anchor="middle" x="100" y="-62.6" font-family="Times,serif" font-size="14.00">VisibilityToggleModule</text>
</g>
<!-- VisibilityToggleModule&#45;&gt;LeftSidebarModule -->
<g id="edge8" class="edge">
<title>VisibilityToggleModule&#45;&gt;LeftSidebarModule</title>
<path fill="none" stroke="black" d="M125.35,-84.93C125.35,-105.37 125.35,-135.8 125.35,-135.8 125.35,-135.8 512.05,-135.8 512.05,-135.8"/>
<polygon fill="black" stroke="black" points="512.05,-139.3 522.05,-135.8 512.05,-132.3 512.05,-139.3"/>
</g>
<!-- VisibilityToggleModule&#45;&gt;LeftSidebarModule -->
<g id="edge9" class="edge">
<title>VisibilityToggleModule&#45;&gt;LeftSidebarModule</title>
<path fill="none" stroke="black" d="M74.65,-84.81C74.65,-107.29 74.65,-142.8 74.65,-142.8 74.65,-142.8 512.17,-142.8 512.17,-142.8"/>
<polygon fill="black" stroke="black" points="512.17,-146.3 522.17,-142.8 512.17,-139.3 512.17,-146.3"/>
</g>
</g>
</svg>
