<?xml version="1.0" encoding="UTF-8" standalone="no"?>
<!DOCTYPE svg PUBLIC "-//W3C//DTD SVG 1.1//EN"
 "http://www.w3.org/Graphics/SVG/1.1/DTD/svg11.dtd">
<!-- Generated by graphviz version 2.47.0 (20210316.0004)
 -->
<!-- Title: dependencies Pages: 1 -->
<svg width="1238pt" height="284pt"
 viewBox="0.00 0.00 1238.00 284.00" xmlns="http://www.w3.org/2000/svg" xmlns:xlink="http://www.w3.org/1999/xlink">
<g id="graph0" class="graph" transform="scale(1 1) rotate(0) translate(4 280)">
<title>dependencies</title>
<polygon fill="white" stroke="transparent" points="-4,4 -4,-280 1234,-280 1234,4 -4,4"/>
<text text-anchor="start" x="594.01" y="-42.4" font-family="Times-12" font-weight="bold" font-size="14.00">Legend</text>
<polygon fill="#ffffb3" stroke="transparent" points="381,-10 381,-30 401,-30 401,-10 381,-10"/>
<text text-anchor="start" x="404.63" y="-15.4" font-family="Times-12" font-size="14.00"> &#160;Declarations</text>
<polygon fill="#8dd3c7" stroke="transparent" points="494,-10 494,-30 514,-30 514,-10 494,-10"/>
<text text-anchor="start" x="517.73" y="-15.4" font-family="Times-12" font-size="14.00"> &#160;Module</text>
<polygon fill="#80b1d3" stroke="transparent" points="580,-10 580,-30 600,-30 600,-10 580,-10"/>
<text text-anchor="start" x="603.78" y="-15.4" font-family="Times-12" font-size="14.00"> &#160;Bootstrap</text>
<polygon fill="#fdb462" stroke="transparent" points="677,-10 677,-30 697,-30 697,-10 677,-10"/>
<text text-anchor="start" x="700.67" y="-15.4" font-family="Times-12" font-size="14.00"> &#160;Providers</text>
<polygon fill="#fb8072" stroke="transparent" points="773,-10 773,-30 793,-30 793,-10 773,-10"/>
<text text-anchor="start" x="796.73" y="-15.4" font-family="Times-12" font-size="14.00"> &#160;Exports</text>
<g id="clust1" class="cluster">
<title>cluster_LeftSidebarModule</title>
<polygon fill="none" stroke="black" stroke-dasharray="1,5" points="8,-70 8,-268 1222,-268 1222,-70 8,-70"/>
</g>
<g id="clust5" class="cluster">
<title>cluster_LeftSidebarModule_exports</title>
<polygon fill="none" stroke="black" points="432,-208 432,-260 598,-260 598,-208 432,-208"/>
</g>
<g id="clust4" class="cluster">
<title>cluster_LeftSidebarModule_imports</title>
<polygon fill="none" stroke="black" points="188,-78 188,-130 1214,-130 1214,-78 188,-78"/>
</g>
<g id="clust2" class="cluster">
<title>cluster_LeftSidebarModule_declarations</title>
<polygon fill="none" stroke="black" points="16,-78 16,-130 180,-130 180,-78 16,-78"/>
</g>
<!-- LeftSidebarComponent -->
<g id="node1" class="node">
<title>LeftSidebarComponent</title>
<polygon fill="#ffffb3" stroke="black" points="171.91,-122 24.09,-122 24.09,-86 171.91,-86 171.91,-122"/>
<text text-anchor="middle" x="98" y="-99.8" font-family="Times,serif" font-size="14.00">LeftSidebarComponent</text>
</g>
<!-- LeftSidebarModule -->
<g id="node2" class="node">
<title>LeftSidebarModule</title>
<polygon fill="#8dd3c7" stroke="black" points="577.63,-187 574.63,-191 553.63,-191 550.63,-187 452.37,-187 452.37,-151 577.63,-151 577.63,-187"/>
<text text-anchor="middle" x="515" y="-164.8" font-family="Times,serif" font-size="14.00">LeftSidebarModule</text>
</g>
<!-- LeftSidebarComponent&#45;&gt;LeftSidebarModule -->
<g id="edge1" class="edge">
<title>LeftSidebarComponent&#45;&gt;LeftSidebarModule</title>
<path fill="none" stroke="black" d="M98,-122.29C98,-144.21 98,-178 98,-178 98,-178 442.12,-178 442.12,-178"/>
<polygon fill="black" stroke="black" points="442.12,-181.5 452.12,-178 442.12,-174.5 442.12,-181.5"/>
</g>
<!-- LeftSidebarComponent  -->
<g id="node9" class="node">
<title>LeftSidebarComponent </title>
<polygon fill="#fb8072" stroke="black" points="590.41,-252 439.59,-252 439.59,-216 590.41,-216 590.41,-252"/>
<text text-anchor="middle" x="515" y="-229.8" font-family="Times,serif" font-size="14.00">LeftSidebarComponent </text>
</g>
<!-- LeftSidebarModule&#45;&gt;LeftSidebarComponent  -->
<g id="edge9" class="edge">
<title>LeftSidebarModule&#45;&gt;LeftSidebarComponent </title>
<path fill="none" stroke="black" stroke-dasharray="5,2" d="M515,-187.11C515,-187.11 515,-205.99 515,-205.99"/>
<polygon fill="black" stroke="black" points="511.5,-205.99 515,-215.99 518.5,-205.99 511.5,-205.99"/>
</g>
<!-- DetailsLabelModule -->
<g id="node3" class="node">
<title>DetailsLabelModule</title>
<polygon fill="#8dd3c7" stroke="black" points="1205.57,-122 1202.57,-126 1181.57,-126 1178.57,-122 1074.43,-122 1074.43,-86 1205.57,-86 1205.57,-122"/>
<text text-anchor="middle" x="1140" y="-99.8" font-family="Times,serif" font-size="14.00">DetailsLabelModule</text>
</g>
<!-- DetailsLabelModule&#45;&gt;LeftSidebarModule -->
<g id="edge2" class="edge">
<title>DetailsLabelModule&#45;&gt;LeftSidebarModule</title>
<path fill="none" stroke="black" d="M1140,-122.29C1140,-144.21 1140,-178 1140,-178 1140,-178 587.79,-178 587.79,-178"/>
<polygon fill="black" stroke="black" points="587.79,-174.5 577.79,-178 587.79,-181.5 587.79,-174.5"/>
</g>
<!-- ExtractionSetDropdownModule -->
<g id="node4" class="node">
<title>ExtractionSetDropdownModule</title>
<polygon fill="#8dd3c7" stroke="black" points="1056.63,-122 1053.63,-126 1032.63,-126 1029.63,-122 861.37,-122 861.37,-86 1056.63,-86 1056.63,-122"/>
<text text-anchor="middle" x="959" y="-99.8" font-family="Times,serif" font-size="14.00">ExtractionSetDropdownModule</text>
</g>
<!-- ExtractionSetDropdownModule&#45;&gt;LeftSidebarModule -->
<g id="edge3" class="edge">
<title>ExtractionSetDropdownModule&#45;&gt;LeftSidebarModule</title>
<path fill="none" stroke="black" d="M959,-122.11C959,-141.34 959,-169 959,-169 959,-169 587.67,-169 587.67,-169"/>
<polygon fill="black" stroke="black" points="587.67,-165.5 577.67,-169 587.67,-172.5 587.67,-165.5"/>
</g>
<!-- LabeledSlideToggleModule -->
<g id="node5" class="node">
<title>LabeledSlideToggleModule</title>
<polygon fill="#8dd3c7" stroke="black" points="843.57,-122 840.57,-126 819.57,-126 816.57,-122 670.43,-122 670.43,-86 843.57,-86 843.57,-122"/>
<text text-anchor="middle" x="757" y="-99.8" font-family="Times,serif" font-size="14.00">LabeledSlideToggleModule</text>
</g>
<!-- LabeledSlideToggleModule&#45;&gt;LeftSidebarModule -->
<g id="edge4" class="edge">
<title>LabeledSlideToggleModule&#45;&gt;LeftSidebarModule</title>
<path fill="none" stroke="black" d="M757,-122.03C757,-138.4 757,-160 757,-160 757,-160 587.64,-160 587.64,-160"/>
<polygon fill="black" stroke="black" points="587.64,-156.5 577.64,-160 587.64,-163.5 587.64,-156.5"/>
</g>
<!-- NameInputModule -->
<g id="node6" class="node">
<title>NameInputModule</title>
<polygon fill="#8dd3c7" stroke="black" points="652.03,-122 649.03,-126 628.03,-126 625.03,-122 529.97,-122 529.97,-86 652.03,-86 652.03,-122"/>
<text text-anchor="middle" x="591" y="-99.8" font-family="Times,serif" font-size="14.00">NameInputModule</text>
</g>
<!-- NameInputModule&#45;&gt;LeftSidebarModule -->
<g id="edge5" class="edge">
<title>NameInputModule&#45;&gt;LeftSidebarModule</title>
<path fill="none" stroke="black" d="M553.78,-122.11C553.78,-122.11 553.78,-140.99 553.78,-140.99"/>
<polygon fill="black" stroke="black" points="550.28,-140.99 553.78,-150.99 557.28,-140.99 550.28,-140.99"/>
</g>
<!-- VisibilityMenuModule -->
<g id="node7" class="node">
<title>VisibilityMenuModule</title>
<polygon fill="#8dd3c7" stroke="black" points="511.6,-122 508.6,-126 487.6,-126 484.6,-122 366.4,-122 366.4,-86 511.6,-86 511.6,-122"/>
<text text-anchor="middle" x="439" y="-99.8" font-family="Times,serif" font-size="14.00">VisibilityMenuModule</text>
</g>
<!-- VisibilityMenuModule&#45;&gt;LeftSidebarModule -->
<g id="edge6" class="edge">
<title>VisibilityMenuModule&#45;&gt;LeftSidebarModule</title>
<path fill="none" stroke="black" d="M481.87,-122.11C481.87,-122.11 481.87,-140.99 481.87,-140.99"/>
<polygon fill="black" stroke="black" points="478.37,-140.99 481.87,-150.99 485.37,-140.99 478.37,-140.99"/>
</g>
<!-- VisibilityToggleModule -->
<g id="node8" class="node">
<title>VisibilityToggleModule</title>
<polygon fill="#8dd3c7" stroke="black" points="348.1,-122 345.1,-126 324.1,-126 321.1,-122 195.9,-122 195.9,-86 348.1,-86 348.1,-122"/>
<text text-anchor="middle" x="272" y="-99.8" font-family="Times,serif" font-size="14.00">VisibilityToggleModule</text>
</g>
<!-- VisibilityToggleModule&#45;&gt;LeftSidebarModule -->
<g id="edge7" class="edge">
<title>VisibilityToggleModule&#45;&gt;LeftSidebarModule</title>
<path fill="none" stroke="black" d="M246.65,-122.11C246.65,-141.34 246.65,-169 246.65,-169 246.65,-169 442.08,-169 442.08,-169"/>
<polygon fill="black" stroke="black" points="442.08,-172.5 452.08,-169 442.08,-165.5 442.08,-172.5"/>
</g>
<!-- VisibilityToggleModule&#45;&gt;LeftSidebarModule -->
<g id="edge8" class="edge">
<title>VisibilityToggleModule&#45;&gt;LeftSidebarModule</title>
<path fill="none" stroke="black" d="M297.35,-122.03C297.35,-138.4 297.35,-160 297.35,-160 297.35,-160 442.34,-160 442.34,-160"/>
<polygon fill="black" stroke="black" points="442.34,-163.5 452.34,-160 442.34,-156.5 442.34,-163.5"/>
</g>
</g>
</svg>
