<?xml version="1.0" encoding="UTF-8" standalone="no"?>
<!DOCTYPE svg PUBLIC "-//W3C//DTD SVG 1.1//EN"
 "http://www.w3.org/Graphics/SVG/1.1/DTD/svg11.dtd">
<!-- Generated by graphviz version 2.47.0 (20210316.0004)
 -->
<!-- Title: dependencies Pages: 1 -->
<svg width="1402pt" height="284pt"
 viewBox="0.00 0.00 1402.00 284.00" xmlns="http://www.w3.org/2000/svg" xmlns:xlink="http://www.w3.org/1999/xlink">
<g id="graph0" class="graph" transform="scale(1 1) rotate(0) translate(4 280)">
<title>dependencies</title>
<polygon fill="white" stroke="transparent" points="-4,4 -4,-280 1398,-280 1398,4 -4,4"/>
<text text-anchor="start" x="676.01" y="-42.4" font-family="Times-12" font-weight="bold" font-size="14.00">Legend</text>
<polygon fill="#ffffb3" stroke="transparent" points="463,-10 463,-30 483,-30 483,-10 463,-10"/>
<text text-anchor="start" x="486.63" y="-15.4" font-family="Times-12" font-size="14.00"> &#160;Declarations</text>
<polygon fill="#8dd3c7" stroke="transparent" points="576,-10 576,-30 596,-30 596,-10 576,-10"/>
<text text-anchor="start" x="599.73" y="-15.4" font-family="Times-12" font-size="14.00"> &#160;Module</text>
<polygon fill="#80b1d3" stroke="transparent" points="662,-10 662,-30 682,-30 682,-10 662,-10"/>
<text text-anchor="start" x="685.78" y="-15.4" font-family="Times-12" font-size="14.00"> &#160;Bootstrap</text>
<polygon fill="#fdb462" stroke="transparent" points="759,-10 759,-30 779,-30 779,-10 759,-10"/>
<text text-anchor="start" x="782.67" y="-15.4" font-family="Times-12" font-size="14.00"> &#160;Providers</text>
<polygon fill="#fb8072" stroke="transparent" points="855,-10 855,-30 875,-30 875,-10 855,-10"/>
<text text-anchor="start" x="878.73" y="-15.4" font-family="Times-12" font-size="14.00"> &#160;Exports</text>
<g id="clust1" class="cluster">
<title>cluster_LeftSidebarModule</title>
<polygon fill="none" stroke="black" stroke-dasharray="1,5" points="8,-70 8,-268 1386,-268 1386,-70 8,-70"/>
</g>
<g id="clust5" class="cluster">
<title>cluster_LeftSidebarModule_exports</title>
<polygon fill="none" stroke="black" points="508,-208 508,-260 674,-260 674,-208 508,-208"/>
</g>
<g id="clust4" class="cluster">
<title>cluster_LeftSidebarModule_imports</title>
<polygon fill="none" stroke="black" points="188,-78 188,-130 1378,-130 1378,-78 188,-78"/>
</g>
<g id="clust2" class="cluster">
<title>cluster_LeftSidebarModule_declarations</title>
<polygon fill="none" stroke="black" points="16,-78 16,-130 180,-130 180,-78 16,-78"/>
</g>
<!-- LeftSidebarComponent -->
<g id="node1" class="node">
<title>LeftSidebarComponent</title>
<polygon fill="#ffffb3" stroke="black" points="171.91,-122 24.09,-122 24.09,-86 171.91,-86 171.91,-122"/>
<text text-anchor="middle" x="98" y="-99.8" font-family="Times,serif" font-size="14.00">LeftSidebarComponent</text>
</g>
<!-- LeftSidebarModule -->
<g id="node2" class="node">
<title>LeftSidebarModule</title>
<polygon fill="#8dd3c7" stroke="black" points="653.63,-187 650.63,-191 629.63,-191 626.63,-187 528.37,-187 528.37,-151 653.63,-151 653.63,-187"/>
<text text-anchor="middle" x="591" y="-164.8" font-family="Times,serif" font-size="14.00">LeftSidebarModule</text>
</g>
<!-- LeftSidebarComponent&#45;&gt;LeftSidebarModule -->
<g id="edge1" class="edge">
<title>LeftSidebarComponent&#45;&gt;LeftSidebarModule</title>
<path fill="none" stroke="black" d="M98,-122.01C98,-144.49 98,-180 98,-180 98,-180 518.31,-180 518.31,-180"/>
<polygon fill="black" stroke="black" points="518.31,-183.5 528.31,-180 518.31,-176.5 518.31,-183.5"/>
</g>
<!-- LeftSidebarComponent  -->
<g id="node10" class="node">
<title>LeftSidebarComponent </title>
<polygon fill="#fb8072" stroke="black" points="666.41,-252 515.59,-252 515.59,-216 666.41,-216 666.41,-252"/>
<text text-anchor="middle" x="591" y="-229.8" font-family="Times,serif" font-size="14.00">LeftSidebarComponent </text>
</g>
<!-- LeftSidebarModule&#45;&gt;LeftSidebarComponent  -->
<g id="edge10" class="edge">
<title>LeftSidebarModule&#45;&gt;LeftSidebarComponent </title>
<path fill="none" stroke="black" stroke-dasharray="5,2" d="M591,-187.11C591,-187.11 591,-205.99 591,-205.99"/>
<polygon fill="black" stroke="black" points="587.5,-205.99 591,-215.99 594.5,-205.99 587.5,-205.99"/>
</g>
<!-- DetailsLabelModule -->
<g id="node3" class="node">
<title>DetailsLabelModule</title>
<polygon fill="#8dd3c7" stroke="black" points="1369.57,-122 1366.57,-126 1345.57,-126 1342.57,-122 1238.43,-122 1238.43,-86 1369.57,-86 1369.57,-122"/>
<text text-anchor="middle" x="1304" y="-99.8" font-family="Times,serif" font-size="14.00">DetailsLabelModule</text>
</g>
<!-- DetailsLabelModule&#45;&gt;LeftSidebarModule -->
<g id="edge2" class="edge">
<title>DetailsLabelModule&#45;&gt;LeftSidebarModule</title>
<path fill="none" stroke="black" d="M1304,-122.01C1304,-144.49 1304,-180 1304,-180 1304,-180 663.65,-180 663.65,-180"/>
<polygon fill="black" stroke="black" points="663.65,-176.5 653.65,-180 663.65,-183.5 663.65,-176.5"/>
</g>
<!-- ExtractionSetDropdownModule -->
<g id="node4" class="node">
<title>ExtractionSetDropdownModule</title>
<polygon fill="#8dd3c7" stroke="black" points="1220.63,-122 1217.63,-126 1196.63,-126 1193.63,-122 1025.37,-122 1025.37,-86 1220.63,-86 1220.63,-122"/>
<text text-anchor="middle" x="1123" y="-99.8" font-family="Times,serif" font-size="14.00">ExtractionSetDropdownModule</text>
</g>
<!-- ExtractionSetDropdownModule&#45;&gt;LeftSidebarModule -->
<g id="edge3" class="edge">
<title>ExtractionSetDropdownModule&#45;&gt;LeftSidebarModule</title>
<path fill="none" stroke="black" d="M1123,-122.13C1123,-142.57 1123,-173 1123,-173 1123,-173 663.85,-173 663.85,-173"/>
<polygon fill="black" stroke="black" points="663.85,-169.5 653.85,-173 663.85,-176.5 663.85,-169.5"/>
</g>
<!-- JsonFileReaderModule -->
<g id="node5" class="node">
<title>JsonFileReaderModule</title>
<polygon fill="#8dd3c7" stroke="black" points="1006.86,-122 1003.86,-126 982.86,-126 979.86,-122 861.14,-122 861.14,-86 1006.86,-86 1006.86,-122"/>
<text text-anchor="middle" x="934" y="-99.8" font-family="Times,serif" font-size="14.00">JsonFileReaderModule</text>
</g>
<!-- JsonFileReaderModule&#45;&gt;LeftSidebarModule -->
<g id="edge4" class="edge">
<title>JsonFileReaderModule&#45;&gt;LeftSidebarModule</title>
<path fill="none" stroke="black" d="M934,-122.27C934,-140.56 934,-166 934,-166 934,-166 663.91,-166 663.91,-166"/>
<polygon fill="black" stroke="black" points="663.91,-162.5 653.91,-166 663.91,-169.5 663.91,-162.5"/>
</g>
<!-- LabeledSlideToggleModule -->
<g id="node6" class="node">
<title>LabeledSlideToggleModule</title>
<polygon fill="#8dd3c7" stroke="black" points="843.57,-122 840.57,-126 819.57,-126 816.57,-122 670.43,-122 670.43,-86 843.57,-86 843.57,-122"/>
<text text-anchor="middle" x="757" y="-99.8" font-family="Times,serif" font-size="14.00">LabeledSlideToggleModule</text>
</g>
<!-- LabeledSlideToggleModule&#45;&gt;LeftSidebarModule -->
<g id="edge5" class="edge">
<title>LabeledSlideToggleModule&#45;&gt;LeftSidebarModule</title>
<path fill="none" stroke="black" d="M757,-122.01C757,-138.05 757,-159 757,-159 757,-159 663.76,-159 663.76,-159"/>
<polygon fill="black" stroke="black" points="663.76,-155.5 653.76,-159 663.76,-162.5 663.76,-155.5"/>
</g>
<!-- NameInputModule -->
<g id="node7" class="node">
<title>NameInputModule</title>
<polygon fill="#8dd3c7" stroke="black" points="652.03,-122 649.03,-126 628.03,-126 625.03,-122 529.97,-122 529.97,-86 652.03,-86 652.03,-122"/>
<text text-anchor="middle" x="591" y="-99.8" font-family="Times,serif" font-size="14.00">NameInputModule</text>
</g>
<!-- NameInputModule&#45;&gt;LeftSidebarModule -->
<g id="edge6" class="edge">
<title>NameInputModule&#45;&gt;LeftSidebarModule</title>
<path fill="none" stroke="black" d="M591,-122.11C591,-122.11 591,-140.99 591,-140.99"/>
<polygon fill="black" stroke="black" points="587.5,-140.99 591,-150.99 594.5,-140.99 587.5,-140.99"/>
</g>
<!-- VisibilityMenuModule -->
<g id="node8" class="node">
<title>VisibilityMenuModule</title>
<polygon fill="#8dd3c7" stroke="black" points="511.6,-122 508.6,-126 487.6,-126 484.6,-122 366.4,-122 366.4,-86 511.6,-86 511.6,-122"/>
<text text-anchor="middle" x="439" y="-99.8" font-family="Times,serif" font-size="14.00">VisibilityMenuModule</text>
</g>
<!-- VisibilityMenuModule&#45;&gt;LeftSidebarModule -->
<g id="edge7" class="edge">
<title>VisibilityMenuModule&#45;&gt;LeftSidebarModule</title>
<path fill="none" stroke="black" d="M439,-122.01C439,-138.05 439,-159 439,-159 439,-159 518.3,-159 518.3,-159"/>
<polygon fill="black" stroke="black" points="518.3,-162.5 528.3,-159 518.3,-155.5 518.3,-162.5"/>
</g>
<!-- VisibilityToggleModule -->
<g id="node9" class="node">
<title>VisibilityToggleModule</title>
<polygon fill="#8dd3c7" stroke="black" points="348.1,-122 345.1,-126 324.1,-126 321.1,-122 195.9,-122 195.9,-86 348.1,-86 348.1,-122"/>
<text text-anchor="middle" x="272" y="-99.8" font-family="Times,serif" font-size="14.00">VisibilityToggleModule</text>
</g>
<!-- VisibilityToggleModule&#45;&gt;LeftSidebarModule -->
<g id="edge8" class="edge">
<title>VisibilityToggleModule&#45;&gt;LeftSidebarModule</title>
<path fill="none" stroke="black" d="M297.35,-122.27C297.35,-140.56 297.35,-166 297.35,-166 297.35,-166 518.36,-166 518.36,-166"/>
<polygon fill="black" stroke="black" points="518.37,-169.5 528.36,-166 518.36,-162.5 518.37,-169.5"/>
</g>
<!-- VisibilityToggleModule&#45;&gt;LeftSidebarModule -->
<g id="edge9" class="edge">
<title>VisibilityToggleModule&#45;&gt;LeftSidebarModule</title>
<path fill="none" stroke="black" d="M246.65,-122.13C246.65,-142.57 246.65,-173 246.65,-173 246.65,-173 518.24,-173 518.24,-173"/>
<polygon fill="black" stroke="black" points="518.24,-176.5 528.24,-173 518.24,-169.5 518.24,-176.5"/>
</g>
</g>
</svg>
