<?xml version="1.0" encoding="UTF-8" standalone="no"?>
<!DOCTYPE svg PUBLIC "-//W3C//DTD SVG 1.1//EN"
 "http://www.w3.org/Graphics/SVG/1.1/DTD/svg11.dtd">
<!-- Generated by graphviz version 2.47.0 (20210316.0004)
 -->
<!-- Title: dependencies Pages: 1 -->
<svg width="1402pt" height="284pt"
 viewBox="0.00 0.00 1402.00 284.00" xmlns="http://www.w3.org/2000/svg" xmlns:xlink="http://www.w3.org/1999/xlink">
<g id="graph0" class="graph" transform="scale(1 1) rotate(0) translate(4 280)">
<title>dependencies</title>
<polygon fill="white" stroke="transparent" points="-4,4 -4,-280 1398,-280 1398,4 -4,4"/>
<text text-anchor="start" x="676.01" y="-42.4" font-family="Times-12" font-weight="bold" font-size="14.00">Legend</text>
<polygon fill="#ffffb3" stroke="transparent" points="463,-10 463,-30 483,-30 483,-10 463,-10"/>
<text text-anchor="start" x="486.63" y="-15.4" font-family="Times-12" font-size="14.00"> &#160;Declarations</text>
<polygon fill="#8dd3c7" stroke="transparent" points="576,-10 576,-30 596,-30 596,-10 576,-10"/>
<text text-anchor="start" x="599.73" y="-15.4" font-family="Times-12" font-size="14.00"> &#160;Module</text>
<polygon fill="#80b1d3" stroke="transparent" points="662,-10 662,-30 682,-30 682,-10 662,-10"/>
<text text-anchor="start" x="685.78" y="-15.4" font-family="Times-12" font-size="14.00"> &#160;Bootstrap</text>
<polygon fill="#fdb462" stroke="transparent" points="759,-10 759,-30 779,-30 779,-10 759,-10"/>
<text text-anchor="start" x="782.67" y="-15.4" font-family="Times-12" font-size="14.00"> &#160;Providers</text>
<polygon fill="#fb8072" stroke="transparent" points="855,-10 855,-30 875,-30 875,-10 855,-10"/>
<text text-anchor="start" x="878.73" y="-15.4" font-family="Times-12" font-size="14.00"> &#160;Exports</text>
<g id="clust1" class="cluster">
<title>cluster_LeftSidebarModule</title>
<polygon fill="none" stroke="black" stroke-dasharray="1,5" points="8,-70 8,-268 1386,-268 1386,-70 8,-70"/>
</g>
<g id="clust2" class="cluster">
<title>cluster_LeftSidebarModule_declarations</title>
<polygon fill="none" stroke="black" points="1214,-78 1214,-130 1378,-130 1378,-78 1214,-78"/>
</g>
<g id="clust4" class="cluster">
<title>cluster_LeftSidebarModule_imports</title>
<polygon fill="none" stroke="black" points="16,-78 16,-130 1206,-130 1206,-78 16,-78"/>
</g>
<g id="clust5" class="cluster">
<title>cluster_LeftSidebarModule_exports</title>
<polygon fill="none" stroke="black" points="502,-208 502,-260 668,-260 668,-208 502,-208"/>
</g>
<!-- LeftSidebarComponent -->
<g id="node1" class="node">
<title>LeftSidebarComponent</title>
<polygon fill="#ffffb3" stroke="black" points="1369.91,-122 1222.09,-122 1222.09,-86 1369.91,-86 1369.91,-122"/>
<text text-anchor="middle" x="1296" y="-99.8" font-family="Times,serif" font-size="14.00">LeftSidebarComponent</text>
</g>
<!-- LeftSidebarModule -->
<g id="node2" class="node">
<title>LeftSidebarModule</title>
<polygon fill="#8dd3c7" stroke="black" points="647.63,-187 644.63,-191 623.63,-191 620.63,-187 522.37,-187 522.37,-151 647.63,-151 647.63,-187"/>
<text text-anchor="middle" x="585" y="-164.8" font-family="Times,serif" font-size="14.00">LeftSidebarModule</text>
</g>
<!-- LeftSidebarComponent&#45;&gt;LeftSidebarModule -->
<g id="edge1" class="edge">
<title>LeftSidebarComponent&#45;&gt;LeftSidebarModule</title>
<path fill="none" stroke="black" d="M1296,-122.01C1296,-144.49 1296,-180 1296,-180 1296,-180 657.78,-180 657.78,-180"/>
<polygon fill="black" stroke="black" points="657.78,-176.5 647.78,-180 657.78,-183.5 657.78,-176.5"/>
</g>
<!-- LeftSidebarComponent  -->
<g id="node10" class="node">
<title>LeftSidebarComponent </title>
<polygon fill="#fb8072" stroke="black" points="660.41,-252 509.59,-252 509.59,-216 660.41,-216 660.41,-252"/>
<text text-anchor="middle" x="585" y="-229.8" font-family="Times,serif" font-size="14.00">LeftSidebarComponent </text>
</g>
<!-- LeftSidebarModule&#45;&gt;LeftSidebarComponent  -->
<g id="edge10" class="edge">
<title>LeftSidebarModule&#45;&gt;LeftSidebarComponent </title>
<path fill="none" stroke="black" stroke-dasharray="5,2" d="M585,-187.11C585,-187.11 585,-205.99 585,-205.99"/>
<polygon fill="black" stroke="black" points="581.5,-205.99 585,-215.99 588.5,-205.99 581.5,-205.99"/>
</g>
<!-- DetailsLabelModule -->
<g id="node3" class="node">
<title>DetailsLabelModule</title>
<polygon fill="#8dd3c7" stroke="black" points="1197.57,-122 1194.57,-126 1173.57,-126 1170.57,-122 1066.43,-122 1066.43,-86 1197.57,-86 1197.57,-122"/>
<text text-anchor="middle" x="1132" y="-99.8" font-family="Times,serif" font-size="14.00">DetailsLabelModule</text>
</g>
<!-- DetailsLabelModule&#45;&gt;LeftSidebarModule -->
<g id="edge2" class="edge">
<title>DetailsLabelModule&#45;&gt;LeftSidebarModule</title>
<path fill="none" stroke="black" d="M1132,-122.13C1132,-142.57 1132,-173 1132,-173 1132,-173 657.75,-173 657.75,-173"/>
<polygon fill="black" stroke="black" points="657.75,-169.5 647.75,-173 657.75,-176.5 657.75,-169.5"/>
</g>
<!-- ExtractionSetDropdownModule -->
<g id="node4" class="node">
<title>ExtractionSetDropdownModule</title>
<polygon fill="#8dd3c7" stroke="black" points="1048.63,-122 1045.63,-126 1024.63,-126 1021.63,-122 853.37,-122 853.37,-86 1048.63,-86 1048.63,-122"/>
<text text-anchor="middle" x="951" y="-99.8" font-family="Times,serif" font-size="14.00">ExtractionSetDropdownModule</text>
</g>
<!-- ExtractionSetDropdownModule&#45;&gt;LeftSidebarModule -->
<g id="edge3" class="edge">
<title>ExtractionSetDropdownModule&#45;&gt;LeftSidebarModule</title>
<path fill="none" stroke="black" d="M951,-122.27C951,-140.56 951,-166 951,-166 951,-166 657.92,-166 657.92,-166"/>
<polygon fill="black" stroke="black" points="657.92,-162.5 647.92,-166 657.92,-169.5 657.92,-162.5"/>
</g>
<!-- JsonFileReaderModule -->
<g id="node5" class="node">
<title>JsonFileReaderModule</title>
<polygon fill="#8dd3c7" stroke="black" points="834.86,-122 831.86,-126 810.86,-126 807.86,-122 689.14,-122 689.14,-86 834.86,-86 834.86,-122"/>
<text text-anchor="middle" x="762" y="-99.8" font-family="Times,serif" font-size="14.00">JsonFileReaderModule</text>
</g>
<!-- JsonFileReaderModule&#45;&gt;LeftSidebarModule -->
<g id="edge4" class="edge">
<title>JsonFileReaderModule&#45;&gt;LeftSidebarModule</title>
<path fill="none" stroke="black" d="M762,-122.01C762,-138.05 762,-159 762,-159 762,-159 657.9,-159 657.9,-159"/>
<polygon fill="black" stroke="black" points="657.9,-155.5 647.9,-159 657.9,-162.5 657.9,-155.5"/>
</g>
<!-- LabeledSlideToggleModule -->
<g id="node6" class="node">
<title>LabeledSlideToggleModule</title>
<polygon fill="#8dd3c7" stroke="black" points="671.57,-122 668.57,-126 647.57,-126 644.57,-122 498.43,-122 498.43,-86 671.57,-86 671.57,-122"/>
<text text-anchor="middle" x="585" y="-99.8" font-family="Times,serif" font-size="14.00">LabeledSlideToggleModule</text>
</g>
<!-- LabeledSlideToggleModule&#45;&gt;LeftSidebarModule -->
<g id="edge5" class="edge">
<title>LabeledSlideToggleModule&#45;&gt;LeftSidebarModule</title>
<path fill="none" stroke="black" d="M585,-122.11C585,-122.11 585,-140.99 585,-140.99"/>
<polygon fill="black" stroke="black" points="581.5,-140.99 585,-150.99 588.5,-140.99 581.5,-140.99"/>
</g>
<!-- NameInputModule -->
<g id="node7" class="node">
<title>NameInputModule</title>
<polygon fill="#8dd3c7" stroke="black" points="480.03,-122 477.03,-126 456.03,-126 453.03,-122 357.97,-122 357.97,-86 480.03,-86 480.03,-122"/>
<text text-anchor="middle" x="419" y="-99.8" font-family="Times,serif" font-size="14.00">NameInputModule</text>
</g>
<!-- NameInputModule&#45;&gt;LeftSidebarModule -->
<g id="edge6" class="edge">
<title>NameInputModule&#45;&gt;LeftSidebarModule</title>
<path fill="none" stroke="black" d="M419,-122.01C419,-138.05 419,-159 419,-159 419,-159 512.24,-159 512.24,-159"/>
<polygon fill="black" stroke="black" points="512.24,-162.5 522.24,-159 512.24,-155.5 512.24,-162.5"/>
</g>
<!-- VisibilityMenuModule -->
<g id="node8" class="node">
<title>VisibilityMenuModule</title>
<polygon fill="#8dd3c7" stroke="black" points="339.6,-122 336.6,-126 315.6,-126 312.6,-122 194.4,-122 194.4,-86 339.6,-86 339.6,-122"/>
<text text-anchor="middle" x="267" y="-99.8" font-family="Times,serif" font-size="14.00">VisibilityMenuModule</text>
</g>
<!-- VisibilityMenuModule&#45;&gt;LeftSidebarModule -->
<g id="edge7" class="edge">
<title>VisibilityMenuModule&#45;&gt;LeftSidebarModule</title>
<path fill="none" stroke="black" d="M267,-122.27C267,-140.56 267,-166 267,-166 267,-166 512.17,-166 512.17,-166"/>
<polygon fill="black" stroke="black" points="512.17,-169.5 522.17,-166 512.17,-162.5 512.17,-169.5"/>
</g>
<!-- VisibilityToggleModule -->
<g id="node9" class="node">
<title>VisibilityToggleModule</title>
<polygon fill="#8dd3c7" stroke="black" points="176.1,-122 173.1,-126 152.1,-126 149.1,-122 23.9,-122 23.9,-86 176.1,-86 176.1,-122"/>
<text text-anchor="middle" x="100" y="-99.8" font-family="Times,serif" font-size="14.00">VisibilityToggleModule</text>
</g>
<!-- VisibilityToggleModule&#45;&gt;LeftSidebarModule -->
<g id="edge8" class="edge">
<title>VisibilityToggleModule&#45;&gt;LeftSidebarModule</title>
<path fill="none" stroke="black" d="M125.35,-122.13C125.35,-142.57 125.35,-173 125.35,-173 125.35,-173 512.05,-173 512.05,-173"/>
<polygon fill="black" stroke="black" points="512.05,-176.5 522.05,-173 512.05,-169.5 512.05,-176.5"/>
</g>
<!-- VisibilityToggleModule&#45;&gt;LeftSidebarModule -->
<g id="edge9" class="edge">
<title>VisibilityToggleModule&#45;&gt;LeftSidebarModule</title>
<path fill="none" stroke="black" d="M74.65,-122.01C74.65,-144.49 74.65,-180 74.65,-180 74.65,-180 512.17,-180 512.17,-180"/>
<polygon fill="black" stroke="black" points="512.17,-183.5 522.17,-180 512.17,-176.5 512.17,-183.5"/>
</g>
</g>
</svg>
