<?xml version="1.0" encoding="UTF-8" standalone="no"?>
<!DOCTYPE svg PUBLIC "-//W3C//DTD SVG 1.1//EN"
 "http://www.w3.org/Graphics/SVG/1.1/DTD/svg11.dtd">
<!-- Generated by graphviz version 2.47.3 (20210619.1520)
 -->
<!-- Title: dependencies Pages: 1 -->
<svg width="426pt" height="174pt"
 viewBox="0.00 0.00 426.00 173.80" xmlns="http://www.w3.org/2000/svg" xmlns:xlink="http://www.w3.org/1999/xlink">
<g id="graph0" class="graph" transform="scale(1 1) rotate(0) translate(4 169.8)">
<title>dependencies</title>
<polygon fill="white" stroke="transparent" points="-4,4 -4,-169.8 422,-169.8 422,4 -4,4"/>
<text text-anchor="middle" x="209" y="-8.2" font-family="sans-serif" font-size="14.00">dependencies</text>
<g id="clust1" class="cluster">
<title>cluster_AppModule</title>
<polygon fill="none" stroke="black" stroke-dasharray="1,5" points="8,-32.8 8,-157.8 410,-157.8 410,-32.8 8,-32.8"/>
</g>
<g id="clust2" class="cluster">
<title>cluster_AppModule_declarations</title>
<polygon fill="none" stroke="black" points="130,-40.8 130,-92.8 402,-92.8 402,-40.8 130,-40.8"/>
</g>
<g id="clust5" class="cluster">
<title>cluster_AppModule_imports</title>
<polygon fill="none" stroke="black" points="16,-40.8 16,-92.8 122,-92.8 122,-40.8 16,-40.8"/>
</g>
<!-- AppComponent -->
<g id="node1" class="node">
<title>AppComponent</title>
<polygon fill="#ffffb3" stroke="black" points="393.94,-84.8 288.06,-84.8 288.06,-48.8 393.94,-48.8 393.94,-84.8"/>
<text text-anchor="middle" x="341" y="-62.6" font-family="Times,serif" font-size="14.00">AppComponent</text>
</g>
<!-- AppModule -->
<g id="node3" class="node">
<title>AppModule</title>
<polygon fill="#8dd3c7" stroke="black" points="245.66,-149.8 242.66,-153.8 221.66,-153.8 218.66,-149.8 162.34,-149.8 162.34,-113.8 245.66,-113.8 245.66,-149.8"/>
<text text-anchor="middle" x="204" y="-127.6" font-family="Times,serif" font-size="14.00">AppModule</text>
</g>
<!-- AppComponent&#45;&gt;AppModule -->
<g id="edge1" class="edge">
<title>AppComponent&#45;&gt;AppModule</title>
<path fill="none" stroke="black" d="M341,-84.91C341,-104.14 341,-131.8 341,-131.8 341,-131.8 255.85,-131.8 255.85,-131.8"/>
<polygon fill="black" stroke="black" points="255.85,-128.3 245.85,-131.8 255.85,-135.3 255.85,-128.3"/>
</g>
<!-- AppWebComponent -->
<g id="node2" class="node">
<title>AppWebComponent</title>
<polygon fill="#ffffb3" stroke="black" points="269.87,-84.8 138.13,-84.8 138.13,-48.8 269.87,-48.8 269.87,-84.8"/>
<text text-anchor="middle" x="204" y="-62.6" font-family="Times,serif" font-size="14.00">AppWebComponent</text>
</g>
<!-- AppWebComponent&#45;&gt;AppModule -->
<g id="edge2" class="edge">
<title>AppWebComponent&#45;&gt;AppModule</title>
<path fill="none" stroke="black" d="M204,-84.91C204,-84.91 204,-103.79 204,-103.79"/>
<polygon fill="black" stroke="black" points="200.5,-103.79 204,-113.79 207.5,-103.79 200.5,-103.79"/>
</g>
<!-- StoreModule -->
<g id="node4" class="node">
<title>StoreModule</title>
<polygon fill="#8dd3c7" stroke="black" points="113.6,-84.8 110.6,-88.8 89.6,-88.8 86.6,-84.8 24.4,-84.8 24.4,-48.8 113.6,-48.8 113.6,-84.8"/>
<text text-anchor="middle" x="69" y="-62.6" font-family="Times,serif" font-size="14.00">StoreModule</text>
</g>
<!-- StoreModule&#45;&gt;AppModule -->
<g id="edge3" class="edge">
<title>StoreModule&#45;&gt;AppModule</title>
<path fill="none" stroke="black" d="M69,-84.91C69,-104.14 69,-131.8 69,-131.8 69,-131.8 152.03,-131.8 152.03,-131.8"/>
<polygon fill="black" stroke="black" points="152.03,-135.3 162.03,-131.8 152.03,-128.3 152.03,-135.3"/>
</g>
</g>
</svg>
