<?xml version="1.0" encoding="UTF-8" standalone="no"?>
<!DOCTYPE svg PUBLIC "-//W3C//DTD SVG 1.1//EN"
 "http://www.w3.org/Graphics/SVG/1.1/DTD/svg11.dtd">
<!-- Generated by graphviz version 2.40.1 (20161225.0304)
 -->
<!-- Title: dependencies Pages: 1 -->
<svg width="546pt" height="284pt"
 viewBox="0.00 0.00 546.00 284.00" xmlns="http://www.w3.org/2000/svg" xmlns:xlink="http://www.w3.org/1999/xlink">
<g id="graph0" class="graph" transform="scale(1 1) rotate(0) translate(4 280)">
<title>dependencies</title>
<polygon fill="#ffffff" stroke="transparent" points="-4,4 -4,-280 542,-280 542,4 -4,4"/>
<text text-anchor="start" x="248.0091" y="-42.4" font-family="sans-serif" font-weight="bold" font-size="14.00" fill="#000000">Legend</text>
<polygon fill="#ffffb3" stroke="transparent" points="35,-10 35,-30 55,-30 55,-10 35,-10"/>
<text text-anchor="start" x="58.629" y="-15.4" font-family="sans-serif" font-size="14.00" fill="#000000"> &#160;Declarations</text>
<polygon fill="#8dd3c7" stroke="transparent" points="148,-10 148,-30 168,-30 168,-10 148,-10"/>
<text text-anchor="start" x="171.7251" y="-15.4" font-family="sans-serif" font-size="14.00" fill="#000000"> &#160;Module</text>
<polygon fill="#80b1d3" stroke="transparent" points="234,-10 234,-30 254,-30 254,-10 234,-10"/>
<text text-anchor="start" x="257.7812" y="-15.4" font-family="sans-serif" font-size="14.00" fill="#000000"> &#160;Bootstrap</text>
<polygon fill="#fdb462" stroke="transparent" points="331,-10 331,-30 351,-30 351,-10 331,-10"/>
<text text-anchor="start" x="354.6732" y="-15.4" font-family="sans-serif" font-size="14.00" fill="#000000"> &#160;Providers</text>
<polygon fill="#fb8072" stroke="transparent" points="427,-10 427,-30 447,-30 447,-10 427,-10"/>
<text text-anchor="start" x="450.7258" y="-15.4" font-family="sans-serif" font-size="14.00" fill="#000000"> &#160;Exports</text>
<g id="clust1" class="cluster">
<title>cluster_MainModule</title>
<polygon fill="none" stroke="#000000" stroke-dasharray="1,5" points="8,-70 8,-268 530,-268 530,-70 8,-70"/>
</g>
<g id="clust2" class="cluster">
<title>cluster_MainModule_declarations</title>
<polygon fill="none" stroke="#000000" points="396,-78 396,-130 522,-130 522,-78 396,-78"/>
</g>
<g id="clust4" class="cluster">
<title>cluster_MainModule_imports</title>
<polygon fill="none" stroke="#000000" points="16,-78 16,-130 388,-130 388,-78 16,-78"/>
</g>
<g id="clust5" class="cluster">
<title>cluster_MainModule_exports</title>
<polygon fill="none" stroke="#000000" points="200,-208 200,-260 330,-260 330,-208 200,-208"/>
</g>
<!-- MainComponent -->
<g id="node1" class="node">
<title>MainComponent</title>
<polygon fill="#ffffb3" stroke="#000000" points="514.3823,-122 403.6177,-122 403.6177,-86 514.3823,-86 514.3823,-122"/>
<text text-anchor="middle" x="459" y="-99.8" font-family="Times,serif" font-size="14.00" fill="#000000">MainComponent</text>
</g>
<!-- MainModule -->
<g id="node2" class="node">
<title>MainModule</title>
<polygon fill="#8dd3c7" stroke="#000000" points="309.5997,-187 306.5997,-191 285.5997,-191 282.5997,-187 220.4003,-187 220.4003,-151 309.5997,-151 309.5997,-187"/>
<text text-anchor="middle" x="265" y="-164.8" font-family="Times,serif" font-size="14.00" fill="#000000">MainModule</text>
</g>
<!-- MainComponent&#45;&gt;MainModule -->
<g id="edge1" class="edge">
<title>MainComponent&#45;&gt;MainModule</title>
<path fill="none" stroke="#000000" d="M459,-122.1061C459,-141.3391 459,-169 459,-169 459,-169 319.9951,-169 319.9951,-169"/>
<polygon fill="#000000" stroke="#000000" points="319.9952,-165.5001 309.9951,-169 319.9951,-172.5001 319.9952,-165.5001"/>
</g>
<!-- MainComponent  -->
<g id="node6" class="node">
<title>MainComponent </title>
<polygon fill="#fb8072" stroke="#000000" points="322.3828,-252 207.6172,-252 207.6172,-216 322.3828,-216 322.3828,-252"/>
<text text-anchor="middle" x="265" y="-229.8" font-family="Times,serif" font-size="14.00" fill="#000000">MainComponent </text>
</g>
<!-- MainModule&#45;&gt;MainComponent  -->
<g id="edge5" class="edge">
<title>MainModule&#45;&gt;MainComponent </title>
<path fill="none" stroke="#000000" stroke-dasharray="5,2" d="M265,-187.1061C265,-187.1061 265,-205.991 265,-205.991"/>
<polygon fill="#000000" stroke="#000000" points="261.5001,-205.9909 265,-215.991 268.5001,-205.991 261.5001,-205.9909"/>
</g>
<!-- HeaderModule -->
<g id="node3" class="node">
<title>HeaderModule</title>
<polygon fill="#8dd3c7" stroke="#000000" points="379.9608,-122 376.9608,-126 355.9608,-126 352.9608,-122 280.0392,-122 280.0392,-86 379.9608,-86 379.9608,-122"/>
<text text-anchor="middle" x="330" y="-99.8" font-family="Times,serif" font-size="14.00" fill="#000000">HeaderModule</text>
</g>
<!-- HeaderModule&#45;&gt;MainModule -->
<g id="edge2" class="edge">
<title>HeaderModule&#45;&gt;MainModule</title>
<path fill="none" stroke="#000000" d="M294.7847,-122.1061C294.7847,-122.1061 294.7847,-140.991 294.7847,-140.991"/>
<polygon fill="#000000" stroke="#000000" points="291.2848,-140.9909 294.7847,-150.991 298.2848,-140.991 291.2848,-140.9909"/>
</g>
<!-- NavigationModule -->
<g id="node4" class="node">
<title>NavigationModule</title>
<polygon fill="#8dd3c7" stroke="#000000" points="261.7576,-122 258.7576,-126 237.7576,-126 234.7576,-122 140.2424,-122 140.2424,-86 261.7576,-86 261.7576,-122"/>
<text text-anchor="middle" x="201" y="-99.8" font-family="Times,serif" font-size="14.00" fill="#000000">NavigationModule</text>
</g>
<!-- NavigationModule&#45;&gt;MainModule -->
<g id="edge3" class="edge">
<title>NavigationModule&#45;&gt;MainModule</title>
<path fill="none" stroke="#000000" d="M241.1645,-122.1061C241.1645,-122.1061 241.1645,-140.991 241.1645,-140.991"/>
<polygon fill="#000000" stroke="#000000" points="237.6645,-140.9909 241.1645,-150.991 244.6645,-140.991 237.6645,-140.9909"/>
</g>
<!-- SearchModule -->
<g id="node5" class="node">
<title>SearchModule</title>
<polygon fill="#8dd3c7" stroke="#000000" points="121.6375,-122 118.6375,-126 97.6375,-126 94.6375,-122 24.3625,-122 24.3625,-86 121.6375,-86 121.6375,-122"/>
<text text-anchor="middle" x="73" y="-99.8" font-family="Times,serif" font-size="14.00" fill="#000000">SearchModule</text>
</g>
<!-- SearchModule&#45;&gt;MainModule -->
<g id="edge4" class="edge">
<title>SearchModule&#45;&gt;MainModule</title>
<path fill="none" stroke="#000000" d="M73,-122.1061C73,-141.3391 73,-169 73,-169 73,-169 209.9845,-169 209.9845,-169"/>
<polygon fill="#000000" stroke="#000000" points="209.9846,-172.5001 219.9845,-169 209.9845,-165.5001 209.9846,-172.5001"/>
</g>
</g>
</svg>
