<?xml version="1.0" encoding="UTF-8" standalone="no"?>
<!DOCTYPE svg PUBLIC "-//W3C//DTD SVG 1.1//EN"
 "http://www.w3.org/Graphics/SVG/1.1/DTD/svg11.dtd">
<!-- Generated by graphviz version 2.40.1 (20161225.0304)
 -->
<!-- Title: dependencies Pages: 1 -->
<svg width="564pt" height="284pt"
 viewBox="0.00 0.00 564.00 284.00" xmlns="http://www.w3.org/2000/svg" xmlns:xlink="http://www.w3.org/1999/xlink">
<g id="graph0" class="graph" transform="scale(1 1) rotate(0) translate(4 280)">
<title>dependencies</title>
<polygon fill="#ffffff" stroke="transparent" points="-4,4 -4,-280 560,-280 560,4 -4,4"/>
<text text-anchor="start" x="257.0091" y="-42.4" font-family="sans-serif" font-weight="bold" font-size="14.00" fill="#000000">Legend</text>
<polygon fill="#ffffb3" stroke="transparent" points="44,-10 44,-30 64,-30 64,-10 44,-10"/>
<text text-anchor="start" x="67.629" y="-15.4" font-family="sans-serif" font-size="14.00" fill="#000000"> &#160;Declarations</text>
<polygon fill="#8dd3c7" stroke="transparent" points="157,-10 157,-30 177,-30 177,-10 157,-10"/>
<text text-anchor="start" x="180.7251" y="-15.4" font-family="sans-serif" font-size="14.00" fill="#000000"> &#160;Module</text>
<polygon fill="#80b1d3" stroke="transparent" points="243,-10 243,-30 263,-30 263,-10 243,-10"/>
<text text-anchor="start" x="266.7812" y="-15.4" font-family="sans-serif" font-size="14.00" fill="#000000"> &#160;Bootstrap</text>
<polygon fill="#fdb462" stroke="transparent" points="340,-10 340,-30 360,-30 360,-10 340,-10"/>
<text text-anchor="start" x="363.6732" y="-15.4" font-family="sans-serif" font-size="14.00" fill="#000000"> &#160;Providers</text>
<polygon fill="#fb8072" stroke="transparent" points="436,-10 436,-30 456,-30 456,-10 436,-10"/>
<text text-anchor="start" x="459.7258" y="-15.4" font-family="sans-serif" font-size="14.00" fill="#000000"> &#160;Exports</text>
<g id="clust1" class="cluster">
<title>cluster_ResultsBrowserModule</title>
<polygon fill="none" stroke="#000000" stroke-dasharray="1,5" points="8,-70 8,-268 548,-268 548,-70 8,-70"/>
</g>
<g id="clust2" class="cluster">
<title>cluster_ResultsBrowserModule_declarations</title>
<polygon fill="none" stroke="#000000" points="354,-78 354,-130 540,-130 540,-78 354,-78"/>
</g>
<g id="clust4" class="cluster">
<title>cluster_ResultsBrowserModule_imports</title>
<polygon fill="none" stroke="#000000" points="16,-78 16,-130 346,-130 346,-78 16,-78"/>
</g>
<g id="clust5" class="cluster">
<title>cluster_ResultsBrowserModule_exports</title>
<polygon fill="none" stroke="#000000" points="182,-208 182,-260 372,-260 372,-208 182,-208"/>
</g>
<!-- ResultsBrowserComponent -->
<g id="node1" class="node">
<title>ResultsBrowserComponent</title>
<polygon fill="#ffffb3" stroke="#000000" points="531.9776,-122 362.0224,-122 362.0224,-86 531.9776,-86 531.9776,-122"/>
<text text-anchor="middle" x="447" y="-99.8" font-family="Times,serif" font-size="14.00" fill="#000000">ResultsBrowserComponent</text>
</g>
<!-- ResultsBrowserModule -->
<g id="node2" class="node">
<title>ResultsBrowserModule</title>
<polygon fill="#8dd3c7" stroke="#000000" points="351.1951,-187 348.1951,-191 327.1951,-191 324.1951,-187 202.8049,-187 202.8049,-151 351.1951,-151 351.1951,-187"/>
<text text-anchor="middle" x="277" y="-164.8" font-family="Times,serif" font-size="14.00" fill="#000000">ResultsBrowserModule</text>
</g>
<!-- ResultsBrowserComponent&#45;&gt;ResultsBrowserModule -->
<g id="edge1" class="edge">
<title>ResultsBrowserComponent&#45;&gt;ResultsBrowserModule</title>
<path fill="none" stroke="#000000" d="M361.5769,-104C351.4818,-104 344.681,-104 344.681,-104 344.681,-104 344.681,-140.8939 344.681,-140.8939"/>
<polygon fill="#000000" stroke="#000000" points="341.181,-140.8938 344.681,-150.8939 348.181,-140.8939 341.181,-140.8938"/>
</g>
<!-- ResultsBrowserComponent  -->
<g id="node5" class="node">
<title>ResultsBrowserComponent </title>
<polygon fill="#fb8072" stroke="#000000" points="363.9783,-252 190.0217,-252 190.0217,-216 363.9783,-216 363.9783,-252"/>
<text text-anchor="middle" x="277" y="-229.8" font-family="Times,serif" font-size="14.00" fill="#000000">ResultsBrowserComponent </text>
</g>
<!-- ResultsBrowserModule&#45;&gt;ResultsBrowserComponent  -->
<g id="edge4" class="edge">
<title>ResultsBrowserModule&#45;&gt;ResultsBrowserComponent </title>
<path fill="none" stroke="#000000" stroke-dasharray="5,2" d="M277,-187.1061C277,-187.1061 277,-205.991 277,-205.991"/>
<polygon fill="#000000" stroke="#000000" points="273.5001,-205.9909 277,-215.991 280.5001,-205.991 273.5001,-205.9909"/>
</g>
<!-- DonorCardModule -->
<g id="node3" class="node">
<title>DonorCardModule</title>
<polygon fill="#8dd3c7" stroke="#000000" points="338.0297,-122 335.0297,-126 314.0297,-126 311.0297,-122 215.9703,-122 215.9703,-86 338.0297,-86 338.0297,-122"/>
<text text-anchor="middle" x="277" y="-99.8" font-family="Times,serif" font-size="14.00" fill="#000000">DonorCardModule</text>
</g>
<!-- DonorCardModule&#45;&gt;ResultsBrowserModule -->
<g id="edge2" class="edge">
<title>DonorCardModule&#45;&gt;ResultsBrowserModule</title>
<path fill="none" stroke="#000000" d="M277,-122.1061C277,-122.1061 277,-140.991 277,-140.991"/>
<polygon fill="#000000" stroke="#000000" points="273.5001,-140.9909 277,-150.991 280.5001,-140.991 273.5001,-140.9909"/>
</g>
<!-- ResultsBrowserItemModule -->
<g id="node4" class="node">
<title>ResultsBrowserItemModule</title>
<polygon fill="#8dd3c7" stroke="#000000" points="197.8515,-122 194.8515,-126 173.8515,-126 170.8515,-122 24.1485,-122 24.1485,-86 197.8515,-86 197.8515,-122"/>
<text text-anchor="middle" x="111" y="-99.8" font-family="Times,serif" font-size="14.00" fill="#000000">ResultsBrowserItemModule</text>
</g>
<!-- ResultsBrowserItemModule&#45;&gt;ResultsBrowserModule -->
<g id="edge3" class="edge">
<title>ResultsBrowserItemModule&#45;&gt;ResultsBrowserModule</title>
<path fill="none" stroke="#000000" d="M194.0935,-122.1061C194.0935,-141.3391 194.0935,-169 194.0935,-169 194.0935,-169 194.9495,-169 194.9495,-169"/>
<polygon fill="#000000" stroke="#000000" points="192.6537,-172.5001 202.6536,-169 192.6536,-165.5001 192.6537,-172.5001"/>
</g>
</g>
</svg>
