<?xml version="1.0" encoding="UTF-8" standalone="no"?>
<!DOCTYPE svg PUBLIC "-//W3C//DTD SVG 1.1//EN"
 "http://www.w3.org/Graphics/SVG/1.1/DTD/svg11.dtd">
<!-- Generated by graphviz version 2.40.1 (20161225.0304)
 -->
<!-- Title: dependencies Pages: 1 -->
<svg width="504pt" height="284pt"
 viewBox="0.00 0.00 504.00 284.00" xmlns="http://www.w3.org/2000/svg" xmlns:xlink="http://www.w3.org/1999/xlink">
<g id="graph0" class="graph" transform="scale(1 1) rotate(0) translate(4 280)">
<title>dependencies</title>
<polygon fill="#ffffff" stroke="transparent" points="-4,4 -4,-280 500,-280 500,4 -4,4"/>
<text text-anchor="start" x="227.0091" y="-42.4" font-family="sans-serif" font-weight="bold" font-size="14.00" fill="#000000">Legend</text>
<polygon fill="#ffffb3" stroke="transparent" points="14,-10 14,-30 34,-30 34,-10 14,-10"/>
<text text-anchor="start" x="37.629" y="-15.4" font-family="sans-serif" font-size="14.00" fill="#000000"> &#160;Declarations</text>
<polygon fill="#8dd3c7" stroke="transparent" points="127,-10 127,-30 147,-30 147,-10 127,-10"/>
<text text-anchor="start" x="150.7251" y="-15.4" font-family="sans-serif" font-size="14.00" fill="#000000"> &#160;Module</text>
<polygon fill="#80b1d3" stroke="transparent" points="213,-10 213,-30 233,-30 233,-10 213,-10"/>
<text text-anchor="start" x="236.7812" y="-15.4" font-family="sans-serif" font-size="14.00" fill="#000000"> &#160;Bootstrap</text>
<polygon fill="#fdb462" stroke="transparent" points="310,-10 310,-30 330,-30 330,-10 310,-10"/>
<text text-anchor="start" x="333.6732" y="-15.4" font-family="sans-serif" font-size="14.00" fill="#000000"> &#160;Providers</text>
<polygon fill="#fb8072" stroke="transparent" points="406,-10 406,-30 426,-30 426,-10 406,-10"/>
<text text-anchor="start" x="429.7258" y="-15.4" font-family="sans-serif" font-size="14.00" fill="#000000"> &#160;Exports</text>
<g id="clust1" class="cluster">
<title>cluster_ResultsBrowserModule</title>
<polygon fill="none" stroke="#000000" stroke-dasharray="1,5" points="48,-70 48,-268 448,-268 448,-70 48,-70"/>
</g>
<g id="clust2" class="cluster">
<title>cluster_ResultsBrowserModule_declarations</title>
<polygon fill="none" stroke="#000000" points="254,-78 254,-130 440,-130 440,-78 254,-78"/>
</g>
<g id="clust4" class="cluster">
<title>cluster_ResultsBrowserModule_imports</title>
<polygon fill="none" stroke="#000000" points="56,-78 56,-130 246,-130 246,-78 56,-78"/>
</g>
<g id="clust5" class="cluster">
<title>cluster_ResultsBrowserModule_exports</title>
<polygon fill="none" stroke="#000000" points="153,-208 153,-260 343,-260 343,-208 153,-208"/>
</g>
<!-- ResultsBrowserComponent -->
<g id="node1" class="node">
<title>ResultsBrowserComponent</title>
<polygon fill="#ffffb3" stroke="#000000" points="431.9776,-122 262.0224,-122 262.0224,-86 431.9776,-86 431.9776,-122"/>
<text text-anchor="middle" x="347" y="-99.8" font-family="Times,serif" font-size="14.00" fill="#000000">ResultsBrowserComponent</text>
</g>
<!-- ResultsBrowserModule -->
<g id="node2" class="node">
<title>ResultsBrowserModule</title>
<polygon fill="#8dd3c7" stroke="#000000" points="322.1951,-187 319.1951,-191 298.1951,-191 295.1951,-187 173.8049,-187 173.8049,-151 322.1951,-151 322.1951,-187"/>
<text text-anchor="middle" x="248" y="-164.8" font-family="Times,serif" font-size="14.00" fill="#000000">ResultsBrowserModule</text>
</g>
<!-- ResultsBrowserComponent&#45;&gt;ResultsBrowserModule -->
<g id="edge1" class="edge">
<title>ResultsBrowserComponent&#45;&gt;ResultsBrowserModule</title>
<path fill="none" stroke="#000000" d="M292.0544,-122.1061C292.0544,-122.1061 292.0544,-140.991 292.0544,-140.991"/>
<polygon fill="#000000" stroke="#000000" points="288.5544,-140.9909 292.0544,-150.991 295.5544,-140.991 288.5544,-140.9909"/>
</g>
<!-- ResultsBrowserComponent  -->
<g id="node4" class="node">
<title>ResultsBrowserComponent </title>
<polygon fill="#fb8072" stroke="#000000" points="334.9783,-252 161.0217,-252 161.0217,-216 334.9783,-216 334.9783,-252"/>
<text text-anchor="middle" x="248" y="-229.8" font-family="Times,serif" font-size="14.00" fill="#000000">ResultsBrowserComponent </text>
</g>
<!-- ResultsBrowserModule&#45;&gt;ResultsBrowserComponent  -->
<g id="edge3" class="edge">
<title>ResultsBrowserModule&#45;&gt;ResultsBrowserComponent </title>
<path fill="none" stroke="#000000" stroke-dasharray="5,2" d="M248,-187.1061C248,-187.1061 248,-205.991 248,-205.991"/>
<polygon fill="#000000" stroke="#000000" points="244.5001,-205.9909 248,-215.991 251.5001,-205.991 244.5001,-205.9909"/>
</g>
<!-- ResultsBrowserItemModule -->
<g id="node3" class="node">
<title>ResultsBrowserItemModule</title>
<polygon fill="#8dd3c7" stroke="#000000" points="237.8515,-122 234.8515,-126 213.8515,-126 210.8515,-122 64.1485,-122 64.1485,-86 237.8515,-86 237.8515,-122"/>
<text text-anchor="middle" x="151" y="-99.8" font-family="Times,serif" font-size="14.00" fill="#000000">ResultsBrowserItemModule</text>
</g>
<!-- ResultsBrowserItemModule&#45;&gt;ResultsBrowserModule -->
<g id="edge2" class="edge">
<title>ResultsBrowserItemModule&#45;&gt;ResultsBrowserModule</title>
<path fill="none" stroke="#000000" d="M205.9141,-122.1061C205.9141,-122.1061 205.9141,-140.991 205.9141,-140.991"/>
<polygon fill="#000000" stroke="#000000" points="202.4142,-140.9909 205.9141,-150.991 209.4142,-140.991 202.4142,-140.9909"/>
</g>
</g>
</svg>
