<?xml version="1.0" encoding="UTF-8" standalone="no"?>
<!DOCTYPE svg PUBLIC "-//W3C//DTD SVG 1.1//EN"
 "http://www.w3.org/Graphics/SVG/1.1/DTD/svg11.dtd">
<!-- Generated by graphviz version 2.40.1 (20161225.0304)
 -->
<!-- Title: dependencies Pages: 1 -->
<svg width="504pt" height="284pt"
 viewBox="0.00 0.00 504.00 284.00" xmlns="http://www.w3.org/2000/svg" xmlns:xlink="http://www.w3.org/1999/xlink">
<g id="graph0" class="graph" transform="scale(1 1) rotate(0) translate(4 280)">
<title>dependencies</title>
<polygon fill="#ffffff" stroke="transparent" points="-4,4 -4,-280 500,-280 500,4 -4,4"/>
<text text-anchor="start" x="227.0091" y="-42.4" font-family="sans-serif" font-weight="bold" font-size="14.00" fill="#000000">Legend</text>
<polygon fill="#ffffb3" stroke="transparent" points="14,-10 14,-30 34,-30 34,-10 14,-10"/>
<text text-anchor="start" x="37.629" y="-15.4" font-family="sans-serif" font-size="14.00" fill="#000000"> &#160;Declarations</text>
<polygon fill="#8dd3c7" stroke="transparent" points="127,-10 127,-30 147,-30 147,-10 127,-10"/>
<text text-anchor="start" x="150.7251" y="-15.4" font-family="sans-serif" font-size="14.00" fill="#000000"> &#160;Module</text>
<polygon fill="#80b1d3" stroke="transparent" points="213,-10 213,-30 233,-30 233,-10 213,-10"/>
<text text-anchor="start" x="236.7812" y="-15.4" font-family="sans-serif" font-size="14.00" fill="#000000"> &#160;Bootstrap</text>
<polygon fill="#fdb462" stroke="transparent" points="310,-10 310,-30 330,-30 330,-10 310,-10"/>
<text text-anchor="start" x="333.6732" y="-15.4" font-family="sans-serif" font-size="14.00" fill="#000000"> &#160;Providers</text>
<polygon fill="#fb8072" stroke="transparent" points="406,-10 406,-30 426,-30 426,-10 406,-10"/>
<text text-anchor="start" x="429.7258" y="-15.4" font-family="sans-serif" font-size="14.00" fill="#000000"> &#160;Exports</text>
<g id="clust1" class="cluster">
<title>cluster_FiltersPopoverModule</title>
<polygon fill="none" stroke="#000000" stroke-dasharray="1,5" points="68,-70 68,-268 428,-268 428,-70 68,-70"/>
</g>
<g id="clust2" class="cluster">
<title>cluster_FiltersPopoverModule_declarations</title>
<polygon fill="none" stroke="#000000" points="240,-78 240,-130 420,-130 420,-78 240,-78"/>
</g>
<g id="clust4" class="cluster">
<title>cluster_FiltersPopoverModule_imports</title>
<polygon fill="none" stroke="#000000" points="76,-78 76,-130 232,-130 232,-78 76,-78"/>
</g>
<g id="clust5" class="cluster">
<title>cluster_FiltersPopoverModule_exports</title>
<polygon fill="none" stroke="#000000" points="156,-208 156,-260 340,-260 340,-208 156,-208"/>
</g>
<!-- FiltersPopoverComponent -->
<g id="node1" class="node">
<title>FiltersPopoverComponent</title>
<polygon fill="#ffffb3" stroke="#000000" points="411.7646,-122 248.2354,-122 248.2354,-86 411.7646,-86 411.7646,-122"/>
<text text-anchor="middle" x="330" y="-99.8" font-family="Times,serif" font-size="14.00" fill="#000000">FiltersPopoverComponent</text>
</g>
<!-- FiltersPopoverModule -->
<g id="node2" class="node">
<title>FiltersPopoverModule</title>
<polygon fill="#8dd3c7" stroke="#000000" points="318.9818,-187 315.9818,-191 294.9818,-191 291.9818,-187 177.0182,-187 177.0182,-151 318.9818,-151 318.9818,-187"/>
<text text-anchor="middle" x="248" y="-164.8" font-family="Times,serif" font-size="14.00" fill="#000000">FiltersPopoverModule</text>
</g>
<!-- FiltersPopoverComponent&#45;&gt;FiltersPopoverModule -->
<g id="edge1" class="edge">
<title>FiltersPopoverComponent&#45;&gt;FiltersPopoverModule</title>
<path fill="none" stroke="#000000" d="M283.5544,-122.1061C283.5544,-122.1061 283.5544,-140.991 283.5544,-140.991"/>
<polygon fill="#000000" stroke="#000000" points="280.0544,-140.9909 283.5544,-150.991 287.0544,-140.991 280.0544,-140.9909"/>
</g>
<!-- FiltersPopoverComponent  -->
<g id="node4" class="node">
<title>FiltersPopoverComponent </title>
<polygon fill="#fb8072" stroke="#000000" points="331.7646,-252 164.2354,-252 164.2354,-216 331.7646,-216 331.7646,-252"/>
<text text-anchor="middle" x="248" y="-229.8" font-family="Times,serif" font-size="14.00" fill="#000000">FiltersPopoverComponent </text>
</g>
<!-- FiltersPopoverModule&#45;&gt;FiltersPopoverComponent  -->
<g id="edge3" class="edge">
<title>FiltersPopoverModule&#45;&gt;FiltersPopoverComponent </title>
<path fill="none" stroke="#000000" stroke-dasharray="5,2" d="M248,-187.1061C248,-187.1061 248,-205.991 248,-205.991"/>
<polygon fill="#000000" stroke="#000000" points="244.5001,-205.9909 248,-215.991 251.5001,-205.991 244.5001,-205.9909"/>
</g>
<!-- FiltersContentModule -->
<g id="node3" class="node">
<title>FiltersContentModule</title>
<polygon fill="#8dd3c7" stroke="#000000" points="223.6568,-122 220.6568,-126 199.6568,-126 196.6568,-122 84.3432,-122 84.3432,-86 223.6568,-86 223.6568,-122"/>
<text text-anchor="middle" x="154" y="-99.8" font-family="Times,serif" font-size="14.00" fill="#000000">FiltersContentModule</text>
</g>
<!-- FiltersContentModule&#45;&gt;FiltersPopoverModule -->
<g id="edge2" class="edge">
<title>FiltersContentModule&#45;&gt;FiltersPopoverModule</title>
<path fill="none" stroke="#000000" d="M200.4187,-122.1061C200.4187,-122.1061 200.4187,-140.991 200.4187,-140.991"/>
<polygon fill="#000000" stroke="#000000" points="196.9187,-140.9909 200.4187,-150.991 203.9187,-140.991 196.9187,-140.9909"/>
</g>
</g>
</svg>
