<?xml version="1.0" encoding="UTF-8" standalone="no"?>
<!DOCTYPE svg PUBLIC "-//W3C//DTD SVG 1.1//EN"
 "http://www.w3.org/Graphics/SVG/1.1/DTD/svg11.dtd">
<!-- Generated by graphviz version 2.47.3 (20210619.1520)
 -->
<!-- Title: dependencies Pages: 1 -->
<svg width="324pt" height="247pt"
 viewBox="0.00 0.00 324.00 246.80" xmlns="http://www.w3.org/2000/svg" xmlns:xlink="http://www.w3.org/1999/xlink">
<g id="graph0" class="graph" transform="scale(1 1) rotate(0) translate(4 242.8)">
<title>dependencies</title>
<polygon fill="white" stroke="transparent" points="-4,4 -4,-242.8 320,-242.8 320,4 -4,4"/>
<text text-anchor="middle" x="158" y="-8.2" font-family="sans-serif" font-size="14.00">dependencies</text>
<g id="clust1" class="cluster">
<title>cluster_OrganModule</title>
<polygon fill="none" stroke="black" stroke-dasharray="1,5" points="8,-32.8 8,-230.8 308,-230.8 308,-32.8 8,-32.8"/>
</g>
<g id="clust4" class="cluster">
<title>cluster_OrganModule_imports</title>
<polygon fill="none" stroke="black" points="156,-40.8 156,-92.8 300,-92.8 300,-40.8 156,-40.8"/>
</g>
<g id="clust5" class="cluster">
<title>cluster_OrganModule_exports</title>
<polygon fill="none" stroke="black" points="88,-170.8 88,-222.8 224,-222.8 224,-170.8 88,-170.8"/>
</g>
<g id="clust2" class="cluster">
<title>cluster_OrganModule_declarations</title>
<polygon fill="none" stroke="black" points="16,-40.8 16,-92.8 148,-92.8 148,-40.8 16,-40.8"/>
</g>
<!-- OrganComponent -->
<g id="node1" class="node">
<title>OrganComponent</title>
<polygon fill="#ffffb3" stroke="black" points="140.31,-84.8 23.69,-84.8 23.69,-48.8 140.31,-48.8 140.31,-84.8"/>
<text text-anchor="middle" x="82" y="-62.6" font-family="Times,serif" font-size="14.00">OrganComponent</text>
</g>
<!-- OrganModule -->
<g id="node2" class="node">
<title>OrganModule</title>
<polygon fill="#8dd3c7" stroke="black" points="203.03,-149.8 200.03,-153.8 179.03,-153.8 176.03,-149.8 108.97,-149.8 108.97,-113.8 203.03,-113.8 203.03,-149.8"/>
<text text-anchor="middle" x="156" y="-127.6" font-family="Times,serif" font-size="14.00">OrganModule</text>
</g>
<!-- OrganComponent&#45;&gt;OrganModule -->
<g id="edge1" class="edge">
<title>OrganComponent&#45;&gt;OrganModule</title>
<path fill="none" stroke="black" d="M124.45,-84.91C124.45,-84.91 124.45,-103.79 124.45,-103.79"/>
<polygon fill="black" stroke="black" points="120.95,-103.79 124.45,-113.79 127.95,-103.79 120.95,-103.79"/>
</g>
<!-- OrganComponent  -->
<g id="node4" class="node">
<title>OrganComponent </title>
<polygon fill="#fb8072" stroke="black" points="215.81,-214.8 96.19,-214.8 96.19,-178.8 215.81,-178.8 215.81,-214.8"/>
<text text-anchor="middle" x="156" y="-192.6" font-family="Times,serif" font-size="14.00">OrganComponent </text>
</g>
<!-- OrganModule&#45;&gt;OrganComponent  -->
<g id="edge3" class="edge">
<title>OrganModule&#45;&gt;OrganComponent </title>
<path fill="none" stroke="black" stroke-dasharray="5,2" d="M156,-149.91C156,-149.91 156,-168.79 156,-168.79"/>
<polygon fill="black" stroke="black" points="152.5,-168.79 156,-178.79 159.5,-168.79 152.5,-168.79"/>
</g>
<!-- SlideToggleModule -->
<g id="node3" class="node">
<title>SlideToggleModule</title>
<polygon fill="#8dd3c7" stroke="black" points="291.99,-84.8 288.99,-88.8 267.99,-88.8 264.99,-84.8 164.01,-84.8 164.01,-48.8 291.99,-48.8 291.99,-84.8"/>
<text text-anchor="middle" x="228" y="-62.6" font-family="Times,serif" font-size="14.00">SlideToggleModule</text>
</g>
<!-- SlideToggleModule&#45;&gt;OrganModule -->
<g id="edge2" class="edge">
<title>SlideToggleModule&#45;&gt;OrganModule</title>
<path fill="none" stroke="black" d="M183.64,-84.91C183.64,-84.91 183.64,-103.79 183.64,-103.79"/>
<polygon fill="black" stroke="black" points="180.14,-103.79 183.64,-113.79 187.14,-103.79 180.14,-103.79"/>
</g>
</g>
</svg>
