<?xml version="1.0" encoding="UTF-8" standalone="no"?>
<!DOCTYPE svg PUBLIC "-//W3C//DTD SVG 1.1//EN"
 "http://www.w3.org/Graphics/SVG/1.1/DTD/svg11.dtd">
<!-- Generated by graphviz version 2.47.0 (20210316.0004)
 -->
<!-- Title: dependencies Pages: 1 -->
<svg width="504pt" height="284pt"
 viewBox="0.00 0.00 504.00 284.00" xmlns="http://www.w3.org/2000/svg" xmlns:xlink="http://www.w3.org/1999/xlink">
<g id="graph0" class="graph" transform="scale(1 1) rotate(0) translate(4 280)">
<title>dependencies</title>
<polygon fill="white" stroke="transparent" points="-4,4 -4,-280 500,-280 500,4 -4,4"/>
<text text-anchor="start" x="227.01" y="-42.4" font-family="Times-12" font-weight="bold" font-size="14.00">Legend</text>
<polygon fill="#ffffb3" stroke="transparent" points="14,-10 14,-30 34,-30 34,-10 14,-10"/>
<text text-anchor="start" x="37.63" y="-15.4" font-family="Times-12" font-size="14.00"> &#160;Declarations</text>
<polygon fill="#8dd3c7" stroke="transparent" points="127,-10 127,-30 147,-30 147,-10 127,-10"/>
<text text-anchor="start" x="150.73" y="-15.4" font-family="Times-12" font-size="14.00"> &#160;Module</text>
<polygon fill="#80b1d3" stroke="transparent" points="213,-10 213,-30 233,-30 233,-10 213,-10"/>
<text text-anchor="start" x="236.78" y="-15.4" font-family="Times-12" font-size="14.00"> &#160;Bootstrap</text>
<polygon fill="#fdb462" stroke="transparent" points="310,-10 310,-30 330,-30 330,-10 310,-10"/>
<text text-anchor="start" x="333.67" y="-15.4" font-family="Times-12" font-size="14.00"> &#160;Providers</text>
<polygon fill="#fb8072" stroke="transparent" points="406,-10 406,-30 426,-30 426,-10 406,-10"/>
<text text-anchor="start" x="429.73" y="-15.4" font-family="Times-12" font-size="14.00"> &#160;Exports</text>
<g id="clust1" class="cluster">
<title>cluster_OrganModule</title>
<polygon fill="none" stroke="black" stroke-dasharray="1,5" points="98,-70 98,-268 398,-268 398,-70 98,-70"/>
</g>
<g id="clust2" class="cluster">
<title>cluster_OrganModule_declarations</title>
<polygon fill="none" stroke="black" points="258,-78 258,-130 390,-130 390,-78 258,-78"/>
</g>
<g id="clust4" class="cluster">
<title>cluster_OrganModule_imports</title>
<polygon fill="none" stroke="black" points="106,-78 106,-130 250,-130 250,-78 106,-78"/>
</g>
<g id="clust5" class="cluster">
<title>cluster_OrganModule_exports</title>
<polygon fill="none" stroke="black" points="182,-208 182,-260 318,-260 318,-208 182,-208"/>
</g>
<!-- OrganComponent -->
<g id="node1" class="node">
<title>OrganComponent</title>
<polygon fill="#ffffb3" stroke="black" points="382.31,-122 265.69,-122 265.69,-86 382.31,-86 382.31,-122"/>
<text text-anchor="middle" x="324" y="-99.8" font-family="Times,serif" font-size="14.00">OrganComponent</text>
</g>
<!-- OrganModule -->
<g id="node2" class="node">
<title>OrganModule</title>
<polygon fill="#8dd3c7" stroke="black" points="297.03,-187 294.03,-191 273.03,-191 270.03,-187 202.97,-187 202.97,-151 297.03,-151 297.03,-187"/>
<text text-anchor="middle" x="250" y="-164.8" font-family="Times,serif" font-size="14.00">OrganModule</text>
</g>
<!-- OrganComponent&#45;&gt;OrganModule -->
<g id="edge1" class="edge">
<title>OrganComponent&#45;&gt;OrganModule</title>
<path fill="none" stroke="black" d="M281.55,-122.11C281.55,-122.11 281.55,-140.99 281.55,-140.99"/>
<polygon fill="black" stroke="black" points="278.05,-140.99 281.55,-150.99 285.05,-140.99 278.05,-140.99"/>
</g>
<!-- OrganComponent  -->
<g id="node4" class="node">
<title>OrganComponent </title>
<polygon fill="#fb8072" stroke="black" points="309.81,-252 190.19,-252 190.19,-216 309.81,-216 309.81,-252"/>
<text text-anchor="middle" x="250" y="-229.8" font-family="Times,serif" font-size="14.00">OrganComponent </text>
</g>
<!-- OrganModule&#45;&gt;OrganComponent  -->
<g id="edge3" class="edge">
<title>OrganModule&#45;&gt;OrganComponent </title>
<path fill="none" stroke="black" stroke-dasharray="5,2" d="M250,-187.11C250,-187.11 250,-205.99 250,-205.99"/>
<polygon fill="black" stroke="black" points="246.5,-205.99 250,-215.99 253.5,-205.99 246.5,-205.99"/>
</g>
<!-- SlideToggleModule -->
<g id="node3" class="node">
<title>SlideToggleModule</title>
<polygon fill="#8dd3c7" stroke="black" points="241.99,-122 238.99,-126 217.99,-126 214.99,-122 114.01,-122 114.01,-86 241.99,-86 241.99,-122"/>
<text text-anchor="middle" x="178" y="-99.8" font-family="Times,serif" font-size="14.00">SlideToggleModule</text>
</g>
<!-- SlideToggleModule&#45;&gt;OrganModule -->
<g id="edge2" class="edge">
<title>SlideToggleModule&#45;&gt;OrganModule</title>
<path fill="none" stroke="black" d="M222.36,-122.11C222.36,-122.11 222.36,-140.99 222.36,-140.99"/>
<polygon fill="black" stroke="black" points="218.86,-140.99 222.36,-150.99 225.86,-140.99 218.86,-140.99"/>
</g>
</g>
</svg>
