<svg xmlns="http://www.w3.org/2000/svg" viewBox="0 0 30 30"><defs><style>.cls-1{fill:none;}</style></defs><g id="vasculature2_copy" data-name="vasculature2 copy"><rect class="cls-1" width="30" height="30"/><ellipse cx="22.28" cy="27.44" rx="1.53" ry="1.19" transform="translate(-12.88 23.8) rotate(-45)"/><path d="M3.56,11a20.48,20.48,0,0,1,7.68,1.14,15.32,15.32,0,0,1,3,1.3A12.54,12.54,0,0,1,14.5,10a1.17,1.17,0,0,1-.15-.27c-.13-.38-.3-.82-.49-1.27a10.16,10.16,0,0,1-2.72.44,4.27,4.27,0,0,1-1.53-.25C8.28,8.09,7,7.49,7,7.47a1,1,0,1,1,.85-1.81s1.26.6,2.53,1.1A5.4,5.4,0,0,0,13,6.59a5.18,5.18,0,0,0-.65-1,6,6,0,0,0-2.24-1.19,1,1,0,0,1,.52-1.93,7.67,7.67,0,0,1,3.15,1.73,10.3,10.3,0,0,1,1.54,2.6c.51-1.69,1-3.11,1.26-3.64a1.5,1.5,0,0,1,2.79,1.1,37.93,37.93,0,0,0-2.17,7.64,12.91,12.91,0,0,0,1.4-.69c.53-.3,1.51-2.09,2.09-3.58a1,1,0,1,1,1.87.73c-.35.87-1.57,3.79-3,4.59a18.76,18.76,0,0,1-2.17,1,10.93,10.93,0,0,0,1.43,2.44,9.37,9.37,0,0,1,1.51,2.71,13.68,13.68,0,0,1,.41,2.74c0,.25.05.58.09.92a10.6,10.6,0,0,0,1.51-1.43,16.29,16.29,0,0,1-1.33-2.71,8.88,8.88,0,0,1-.42-3.42,1,1,0,0,1,2,.18A7,7,0,0,0,22.94,18a11.43,11.43,0,0,0,.6,1.34A10.65,10.65,0,0,0,24.47,14s-.16-1.09.38-1.28a1.07,1.07,0,0,1,1.07.14c1.08.6.66,4.64-.84,8a5.19,5.19,0,0,1-.35.66.75.75,0,0,0,.47-.07,5.66,5.66,0,0,0,1.67-1.29,1,1,0,0,1,1.55,1.25,7.26,7.26,0,0,1-2.34,1.83,2.78,2.78,0,0,1-1.22.29,2.7,2.7,0,0,1-1.39-.38,13.79,13.79,0,0,1-1.93,1.63,6.16,6.16,0,0,0,.78.71,1.64,1.64,0,0,1,.33.26,2.06,2.06,0,0,0-2.12,1.94,1.81,1.81,0,0,0,0,.23,11.07,11.07,0,0,1-1.48-1.37c-1-1.07-1.14-2.79-1.28-4.44a13.54,13.54,0,0,0-.29-2.14,4.75,4.75,0,0,0-.67-1.23,29.39,29.39,0,0,0-3.3-2.22c-.73-.35-4.15,0-6.89.52a1,1,0,1,1-.38-2,36.93,36.93,0,0,1,5.36-.69c-.32-.13-.65-.26-1-.37a18.63,18.63,0,0,0-6.86-1.05,1,1,0,0,1-.21-2Z"/></g></svg>