<?xml version="1.0" encoding="UTF-8" standalone="no"?>
<!DOCTYPE svg PUBLIC "-//W3C//DTD SVG 1.1//EN"
 "http://www.w3.org/Graphics/SVG/1.1/DTD/svg11.dtd">
<!-- Generated by graphviz version 2.47.3 (20210619.1520)
 -->
<!-- Title: dependencies Pages: 1 -->
<svg width="707pt" height="174pt"
 viewBox="0.00 0.00 707.00 173.80" xmlns="http://www.w3.org/2000/svg" xmlns:xlink="http://www.w3.org/1999/xlink">
<g id="graph0" class="graph" transform="scale(1 1) rotate(0) translate(4 169.8)">
<title>dependencies</title>
<polygon fill="white" stroke="transparent" points="-4,4 -4,-169.8 703,-169.8 703,4 -4,4"/>
<text text-anchor="middle" x="349.5" y="-8.2" font-family="sans-serif" font-size="14.00">dependencies</text>
<g id="clust1" class="cluster">
<title>cluster_AnalyticsModule</title>
<polygon fill="none" stroke="black" stroke-dasharray="1,5" points="8,-32.8 8,-157.8 691,-157.8 691,-32.8 8,-32.8"/>
</g>
<g id="clust6" class="cluster">
<title>cluster_AnalyticsModule_providers</title>
<polygon fill="none" stroke="black" points="16,-40.8 16,-92.8 683,-92.8 683,-40.8 16,-40.8"/>
</g>
<!-- ConsentService -->
<g id="node1" class="node">
<title>ConsentService</title>
<ellipse fill="#fdb462" stroke="black" cx="603" cy="-66.8" rx="71.79" ry="18"/>
<text text-anchor="middle" x="603" y="-62.6" font-family="Times,serif" font-size="14.00">ConsentService</text>
</g>
<!-- AnalyticsModule -->
<g id="node4" class="node">
<title>AnalyticsModule</title>
<polygon fill="#8dd3c7" stroke="black" points="445.7,-149.8 442.7,-153.8 421.7,-153.8 418.7,-149.8 332.3,-149.8 332.3,-113.8 445.7,-113.8 445.7,-149.8"/>
<text text-anchor="middle" x="389" y="-127.6" font-family="Times,serif" font-size="14.00">AnalyticsModule</text>
</g>
<!-- ConsentService&#45;&gt;AnalyticsModule -->
<g id="edge1" class="edge">
<title>ConsentService&#45;&gt;AnalyticsModule</title>
<path fill="none" stroke="black" d="M603,-84.91C603,-104.14 603,-131.8 603,-131.8 603,-131.8 455.79,-131.8 455.79,-131.8"/>
<polygon fill="black" stroke="black" points="455.79,-128.3 445.79,-131.8 455.79,-135.3 455.79,-128.3"/>
</g>
<!-- GoogleAnalyticsSyncService -->
<g id="node2" class="node">
<title>GoogleAnalyticsSyncService</title>
<ellipse fill="#fdb462" stroke="black" cx="389" cy="-66.8" rx="124.98" ry="18"/>
<text text-anchor="middle" x="389" y="-62.6" font-family="Times,serif" font-size="14.00">GoogleAnalyticsSyncService</text>
</g>
<!-- GoogleAnalyticsSyncService&#45;&gt;AnalyticsModule -->
<g id="edge2" class="edge">
<title>GoogleAnalyticsSyncService&#45;&gt;AnalyticsModule</title>
<path fill="none" stroke="black" d="M389,-84.91C389,-84.91 389,-103.79 389,-103.79"/>
<polygon fill="black" stroke="black" points="385.5,-103.79 389,-113.79 392.5,-103.79 385.5,-103.79"/>
</g>
<!-- LocalStorageSyncService -->
<g id="node3" class="node">
<title>LocalStorageSyncService</title>
<ellipse fill="#fdb462" stroke="black" cx="135" cy="-66.8" rx="110.57" ry="18"/>
<text text-anchor="middle" x="135" y="-62.6" font-family="Times,serif" font-size="14.00">LocalStorageSyncService</text>
</g>
<!-- LocalStorageSyncService&#45;&gt;AnalyticsModule -->
<g id="edge3" class="edge">
<title>LocalStorageSyncService&#45;&gt;AnalyticsModule</title>
<path fill="none" stroke="black" d="M135,-84.91C135,-104.14 135,-131.8 135,-131.8 135,-131.8 322.31,-131.8 322.31,-131.8"/>
<polygon fill="black" stroke="black" points="322.31,-135.3 332.31,-131.8 322.31,-128.3 322.31,-135.3"/>
</g>
</g>
</svg>
