<?xml version="1.0" encoding="UTF-8" standalone="no"?>
<!DOCTYPE svg PUBLIC "-//W3C//DTD SVG 1.1//EN"
 "http://www.w3.org/Graphics/SVG/1.1/DTD/svg11.dtd">
<!-- Generated by graphviz version 2.47.0 (20210316.0004)
 -->
<!-- Title: dependencies Pages: 1 -->
<svg width="707pt" height="211pt"
 viewBox="0.00 0.00 707.00 211.00" xmlns="http://www.w3.org/2000/svg" xmlns:xlink="http://www.w3.org/1999/xlink">
<g id="graph0" class="graph" transform="scale(1 1) rotate(0) translate(4 207)">
<title>dependencies</title>
<polygon fill="white" stroke="transparent" points="-4,4 -4,-207 703,-207 703,4 -4,4"/>
<text text-anchor="start" x="328.51" y="-42.4" font-family="Times-12" font-weight="bold" font-size="14.00">Legend</text>
<polygon fill="#ffffb3" stroke="transparent" points="115.5,-10 115.5,-30 135.5,-30 135.5,-10 115.5,-10"/>
<text text-anchor="start" x="139.13" y="-15.4" font-family="Times-12" font-size="14.00"> &#160;Declarations</text>
<polygon fill="#8dd3c7" stroke="transparent" points="228.5,-10 228.5,-30 248.5,-30 248.5,-10 228.5,-10"/>
<text text-anchor="start" x="252.23" y="-15.4" font-family="Times-12" font-size="14.00"> &#160;Module</text>
<polygon fill="#80b1d3" stroke="transparent" points="314.5,-10 314.5,-30 334.5,-30 334.5,-10 314.5,-10"/>
<text text-anchor="start" x="338.28" y="-15.4" font-family="Times-12" font-size="14.00"> &#160;Bootstrap</text>
<polygon fill="#fdb462" stroke="transparent" points="411.5,-10 411.5,-30 431.5,-30 431.5,-10 411.5,-10"/>
<text text-anchor="start" x="435.17" y="-15.4" font-family="Times-12" font-size="14.00"> &#160;Providers</text>
<polygon fill="#fb8072" stroke="transparent" points="507.5,-10 507.5,-30 527.5,-30 527.5,-10 507.5,-10"/>
<text text-anchor="start" x="531.23" y="-15.4" font-family="Times-12" font-size="14.00"> &#160;Exports</text>
<g id="clust1" class="cluster">
<title>cluster_AnalyticsModule</title>
<polygon fill="none" stroke="black" stroke-dasharray="1,5" points="8,-70 8,-195 691,-195 691,-70 8,-70"/>
</g>
<g id="clust6" class="cluster">
<title>cluster_AnalyticsModule_providers</title>
<polygon fill="none" stroke="black" points="16,-78 16,-130 683,-130 683,-78 16,-78"/>
</g>
<!-- ConsentService -->
<g id="node1" class="node">
<title>ConsentService</title>
<ellipse fill="#fdb462" stroke="black" cx="603" cy="-104" rx="71.79" ry="18"/>
<text text-anchor="middle" x="603" y="-99.8" font-family="Times,serif" font-size="14.00">ConsentService</text>
</g>
<!-- AnalyticsModule -->
<g id="node4" class="node">
<title>AnalyticsModule</title>
<polygon fill="#8dd3c7" stroke="black" points="445.7,-187 442.7,-191 421.7,-191 418.7,-187 332.3,-187 332.3,-151 445.7,-151 445.7,-187"/>
<text text-anchor="middle" x="389" y="-164.8" font-family="Times,serif" font-size="14.00">AnalyticsModule</text>
</g>
<!-- ConsentService&#45;&gt;AnalyticsModule -->
<g id="edge1" class="edge">
<title>ConsentService&#45;&gt;AnalyticsModule</title>
<path fill="none" stroke="black" d="M603,-122.11C603,-141.34 603,-169 603,-169 603,-169 455.79,-169 455.79,-169"/>
<polygon fill="black" stroke="black" points="455.79,-165.5 445.79,-169 455.79,-172.5 455.79,-165.5"/>
</g>
<!-- GoogleAnalyticsSyncService -->
<g id="node2" class="node">
<title>GoogleAnalyticsSyncService</title>
<ellipse fill="#fdb462" stroke="black" cx="389" cy="-104" rx="124.98" ry="18"/>
<text text-anchor="middle" x="389" y="-99.8" font-family="Times,serif" font-size="14.00">GoogleAnalyticsSyncService</text>
</g>
<!-- GoogleAnalyticsSyncService&#45;&gt;AnalyticsModule -->
<g id="edge2" class="edge">
<title>GoogleAnalyticsSyncService&#45;&gt;AnalyticsModule</title>
<path fill="none" stroke="black" d="M389,-122.11C389,-122.11 389,-140.99 389,-140.99"/>
<polygon fill="black" stroke="black" points="385.5,-140.99 389,-150.99 392.5,-140.99 385.5,-140.99"/>
</g>
<!-- LocalStorageSyncService -->
<g id="node3" class="node">
<title>LocalStorageSyncService</title>
<ellipse fill="#fdb462" stroke="black" cx="135" cy="-104" rx="110.57" ry="18"/>
<text text-anchor="middle" x="135" y="-99.8" font-family="Times,serif" font-size="14.00">LocalStorageSyncService</text>
</g>
<!-- LocalStorageSyncService&#45;&gt;AnalyticsModule -->
<g id="edge3" class="edge">
<title>LocalStorageSyncService&#45;&gt;AnalyticsModule</title>
<path fill="none" stroke="black" d="M135,-122.11C135,-141.34 135,-169 135,-169 135,-169 322.31,-169 322.31,-169"/>
<polygon fill="black" stroke="black" points="322.31,-172.5 332.31,-169 322.31,-165.5 322.31,-172.5"/>
</g>
</g>
</svg>
