<?xml version="1.0" encoding="UTF-8" standalone="no"?>
<!DOCTYPE svg PUBLIC "-//W3C//DTD SVG 1.1//EN"
 "http://www.w3.org/Graphics/SVG/1.1/DTD/svg11.dtd">
<!-- Generated by graphviz version 2.47.0 (20210316.0004)
 -->
<!-- Title: dependencies Pages: 1 -->
<svg width="568pt" height="284pt"
 viewBox="0.00 0.00 568.00 284.00" xmlns="http://www.w3.org/2000/svg" xmlns:xlink="http://www.w3.org/1999/xlink">
<g id="graph0" class="graph" transform="scale(1 1) rotate(0) translate(4 280)">
<title>dependencies</title>
<polygon fill="white" stroke="transparent" points="-4,4 -4,-280 564,-280 564,4 -4,4"/>
<text text-anchor="start" x="259.01" y="-42.4" font-family="Times-12" font-weight="bold" font-size="14.00">Legend</text>
<polygon fill="#ffffb3" stroke="transparent" points="46,-10 46,-30 66,-30 66,-10 46,-10"/>
<text text-anchor="start" x="69.63" y="-15.4" font-family="Times-12" font-size="14.00"> &#160;Declarations</text>
<polygon fill="#8dd3c7" stroke="transparent" points="159,-10 159,-30 179,-30 179,-10 159,-10"/>
<text text-anchor="start" x="182.73" y="-15.4" font-family="Times-12" font-size="14.00"> &#160;Module</text>
<polygon fill="#80b1d3" stroke="transparent" points="245,-10 245,-30 265,-30 265,-10 245,-10"/>
<text text-anchor="start" x="268.78" y="-15.4" font-family="Times-12" font-size="14.00"> &#160;Bootstrap</text>
<polygon fill="#fdb462" stroke="transparent" points="342,-10 342,-30 362,-30 362,-10 342,-10"/>
<text text-anchor="start" x="365.67" y="-15.4" font-family="Times-12" font-size="14.00"> &#160;Providers</text>
<polygon fill="#fb8072" stroke="transparent" points="438,-10 438,-30 458,-30 458,-10 438,-10"/>
<text text-anchor="start" x="461.73" y="-15.4" font-family="Times-12" font-size="14.00"> &#160;Exports</text>
<g id="clust1" class="cluster">
<title>cluster_RegistrationMetadataModule</title>
<polygon fill="none" stroke="black" stroke-dasharray="1,5" points="8,-70 8,-268 552,-268 552,-70 8,-70"/>
</g>
<g id="clust4" class="cluster">
<title>cluster_RegistrationMetadataModule_imports</title>
<polygon fill="none" stroke="black" points="242,-78 242,-130 544,-130 544,-78 242,-78"/>
</g>
<g id="clust2" class="cluster">
<title>cluster_RegistrationMetadataModule_declarations</title>
<polygon fill="none" stroke="black" points="16,-78 16,-130 234,-130 234,-78 16,-78"/>
</g>
<g id="clust5" class="cluster">
<title>cluster_RegistrationMetadataModule_exports</title>
<polygon fill="none" stroke="black" points="200,-208 200,-260 422,-260 422,-208 200,-208"/>
</g>
<!-- RegistrationMetadataComponent -->
<g id="node1" class="node">
<title>RegistrationMetadataComponent</title>
<polygon fill="#ffffb3" stroke="black" points="225.85,-122 24.15,-122 24.15,-86 225.85,-86 225.85,-122"/>
<text text-anchor="middle" x="125" y="-99.8" font-family="Times,serif" font-size="14.00">RegistrationMetadataComponent</text>
</g>
<!-- RegistrationMetadataModule -->
<g id="node2" class="node">
<title>RegistrationMetadataModule</title>
<polygon fill="#8dd3c7" stroke="black" points="401.07,-187 398.07,-191 377.07,-191 374.07,-187 220.93,-187 220.93,-151 401.07,-151 401.07,-187"/>
<text text-anchor="middle" x="311" y="-164.8" font-family="Times,serif" font-size="14.00">RegistrationMetadataModule</text>
</g>
<!-- RegistrationMetadataComponent&#45;&gt;RegistrationMetadataModule -->
<g id="edge1" class="edge">
<title>RegistrationMetadataComponent&#45;&gt;RegistrationMetadataModule</title>
<path fill="none" stroke="black" d="M214.65,-122.11C214.65,-141.34 214.65,-169 214.65,-169 214.65,-169 215.25,-169 215.25,-169"/>
<polygon fill="black" stroke="black" points="210.67,-172.5 220.67,-169 210.67,-165.5 210.67,-172.5"/>
</g>
<!-- RegistrationMetadataComponent  -->
<g id="node5" class="node">
<title>RegistrationMetadataComponent </title>
<polygon fill="#fb8072" stroke="black" points="413.85,-252 208.15,-252 208.15,-216 413.85,-216 413.85,-252"/>
<text text-anchor="middle" x="311" y="-229.8" font-family="Times,serif" font-size="14.00">RegistrationMetadataComponent </text>
</g>
<!-- RegistrationMetadataModule&#45;&gt;RegistrationMetadataComponent  -->
<g id="edge4" class="edge">
<title>RegistrationMetadataModule&#45;&gt;RegistrationMetadataComponent </title>
<path fill="none" stroke="black" stroke-dasharray="5,2" d="M311,-187.11C311,-187.11 311,-205.99 311,-205.99"/>
<polygon fill="black" stroke="black" points="307.5,-205.99 311,-215.99 314.5,-205.99 307.5,-205.99"/>
</g>
<!-- JsonFileReaderModule -->
<g id="node3" class="node">
<title>JsonFileReaderModule</title>
<polygon fill="#8dd3c7" stroke="black" points="535.86,-122 532.86,-126 511.86,-126 508.86,-122 390.14,-122 390.14,-86 535.86,-86 535.86,-122"/>
<text text-anchor="middle" x="463" y="-99.8" font-family="Times,serif" font-size="14.00">JsonFileReaderModule</text>
</g>
<!-- JsonFileReaderModule&#45;&gt;RegistrationMetadataModule -->
<g id="edge2" class="edge">
<title>JsonFileReaderModule&#45;&gt;RegistrationMetadataModule</title>
<path fill="none" stroke="black" d="M395.55,-122.11C395.55,-122.11 395.55,-140.99 395.55,-140.99"/>
<polygon fill="black" stroke="black" points="392.05,-140.99 395.55,-150.99 399.05,-140.99 392.05,-140.99"/>
</g>
<!-- NameInputModule -->
<g id="node4" class="node">
<title>NameInputModule</title>
<polygon fill="#8dd3c7" stroke="black" points="372.03,-122 369.03,-126 348.03,-126 345.03,-122 249.97,-122 249.97,-86 372.03,-86 372.03,-122"/>
<text text-anchor="middle" x="311" y="-99.8" font-family="Times,serif" font-size="14.00">NameInputModule</text>
</g>
<!-- NameInputModule&#45;&gt;RegistrationMetadataModule -->
<g id="edge3" class="edge">
<title>NameInputModule&#45;&gt;RegistrationMetadataModule</title>
<path fill="none" stroke="black" d="M311,-122.11C311,-122.11 311,-140.99 311,-140.99"/>
<polygon fill="black" stroke="black" points="307.5,-140.99 311,-150.99 314.5,-140.99 307.5,-140.99"/>
</g>
</g>
</svg>
