<?xml version="1.0" encoding="UTF-8"?>
<svg id="trachea" xmlns="http://www.w3.org/2000/svg" viewBox="0 0 30 30">
  <defs>
    <style>
      .cls-1-trachea {
        stroke-miterlimit: 10;
      }

      .cls-1-trachea, .cls-2-trachea, .cls-3-trachea {
        stroke: currentColor;
      }

      .cls-1-trachea, .cls-3-trachea {
        fill: #fff;
        stroke-width: .75px;
      }

      .cls-2-trachea {
        fill: currentColor;
      }

      .cls-2-trachea, .cls-3-trachea {
        stroke-linecap: round;
        stroke-linejoin: round;
      }
    </style>
  </defs>
  <path class="cls-2-trachea" d="m18.4,21.41c-.7-1.12-1.05-2.35-1.05-3.59l-.15-15.31s-.9.1-1.47.22c-1,.11-1.91.03-1.91.03l-1.57-.23.11,15.3c0,1.2-.4,2.42-1.06,3.53.59,1.12.77,1.71,3.61,1.63,2.84-.08,2.64-.61,3.49-1.57Z"/>
  <path class="cls-3-trachea" d="m18.49,21.35c1.16,2.05,3.76,3.45,5.64,4.09,0,0,.38,1.05-.31,2.14-.39.61-1.36.96-1.36.96,0,0-4.64-2.33-7.48-2.25s-6.9,2.63-6.9,2.63c0,0-1.18-.45-1.59-1.6s.06-2.04.06-2.04c1.81-.6,3.79-1.93,4.89-3.77l3.61,2.35,3.44-2.5Z"/>
  <path class="cls-1-trachea" d="m14.38,17.49c-1.23,0-1.89-.19-2.47-.9-.29.35-.46.76-.46,1.19,0,1.32,1.49,2.39,3.34,2.39s3.73-.32,3.59-1.11-2.71.12-2.79-.2c-.12-.44,3.06-.66,2.54-2.02-.32-.83-2.51.64-3.74.64Z"/>
  <path class="cls-1-trachea" d="m14.8,14.41c-1.22,0-2.28-.44-2.86-1.09-.28.32-.46.69-.46,1.09,0,1.2,1.48,2.18,3.32,2.18s3.32-.98,3.32-2.18c0-.4-.18-.77-.46-1.09-.57.65-1.63,1.09-2.86,1.09Z"/>
  <path class="cls-1-trachea" d="m14.8,4.05c-1.22,0-2.28-.44-2.86-1.09-.28.32-.46.69-.46,1.09,0,1.2,1.48,2.18,3.32,2.18s3.32-.98,3.32-2.18c0-.4-.18-.77-.46-1.09-.57.65-1.63,1.09-2.86,1.09Z"/>
  <path class="cls-1-trachea" d="m14.72,11.18c-1.23,0-2.3-.5-2.87-1.23-.29.36-.46.78-.46,1.23,0,1.36,1.23,2.47,3.34,2.47s3.34-1.1,3.34-2.47c0-.45-.18-.87-.46-1.23-.58.73-1.64,1.23-2.87,1.23Z"/>
  <path class="cls-1-trachea" d="m14.67,23c-1.48,0-2.92-2.65-3.44-2.44-.31.12-.66.4-.77,1.09-.14.87,1.53.87,2.33,2.38.57,1.09,1.22,2.86,2.27,2.87,1.11.01,1.41-1.42,2.16-2.87.92-1.76,1.88-1.71,1.78-2.52-.07-.55-.47-1.03-.89-.95-.68.38-1.97,2.44-3.44,2.44Z"/>
  <path class="cls-1-trachea" d="m15.25,7.2c1.23,0,1.89-.19,2.47-.9.29.35.46.76.46,1.19,0,1.8-1.49,2.39-3.34,2.39s-3.67-.31-3.59-1.11c.12-1.16,2.72.48,2.79-.2.05-.46-3.06-.66-2.54-2.02.32-.83,2.51.64,3.74.64Z"/>
</svg>