<svg xmlns="http://www.w3.org/2000/svg" viewBox="0 0 30 30"><defs><style>.cls-1{fill:none;}</style></defs><g id="spleen"><path d="M22.31,10.61C18.42,2.66,11.72,3.34,9.63,5s-3.1,3.51-2.46,6.1c.4,1.59,2.23,2.42,3.76,3.53a3.51,3.51,0,0,0-.69,1.86h0A6.44,6.44,0,0,1,8.4,17.79a24.45,24.45,0,0,1-2.89.87l.67,1.48a19.12,19.12,0,0,0,2.72-.87,8.71,8.71,0,0,0,2-1.38,3.56,3.56,0,0,0,2.48.75c.35,1.93.21,4,.79,5.42.8,2,3.12,2.07,4.86,1.76C22.65,25.18,26.2,18.56,22.31,10.61Zm-6.4,5.86c-.27.15-.67.36-1.1.55a6.84,6.84,0,0,0-.8-1.78,10.43,10.43,0,0,0-.75-1,14.38,14.38,0,0,1,1.46-.63,6.39,6.39,0,0,1,.61,1A6.9,6.9,0,0,1,15.91,16.47Zm-2-3.65c-.39.15-.93.37-1.44.62a6.54,6.54,0,0,0-1.77-1.14A3.69,3.69,0,0,1,13.9,12.82Zm-2.55,4a2,2,0,0,1,.49-1.41,4.76,4.76,0,0,1,.85,1.1,6.42,6.42,0,0,1,.39.94C12.11,17.47,11.46,17.11,11.35,16.83Zm3.71,1.27.93-.47a4.58,4.58,0,0,1-.86,2.61A8.35,8.35,0,0,0,15.06,18.1Z"/></g></svg>