<svg xmlns="http://www.w3.org/2000/svg" viewBox="0 0 30 30"><defs><style>.cls-1{fill:none;}</style></defs><g id="thymus"><path d="M22.5,19A2.76,2.76,0,0,0,22,17.27a3.06,3.06,0,0,0,.33-1.41c0-1.2-.59-2.17-1.32-2.18,0-.08,0-.16,0-.24a2.2,2.2,0,0,0-1.05-2.13,2.62,2.62,0,0,0,.06-.57c0-1.11-.5-2-1.15-2.15a3.64,3.64,0,0,0,0-.48,2.33,2.33,0,0,0-.89-2C18,4.92,17.37,4,16.66,4s-1.32,1-1.32,2.17a3.7,3.7,0,0,0,.05.59l-.11,0c-.74,0-1.33,1-1.33,2.18,0,.05,0,.1,0,.15a2.18,2.18,0,0,0-.39.69.75.75,0,0,0-.16-.15,3.49,3.49,0,0,0,.09-.74c0-1.2-.6-2.17-1.33-2.17h0c0-.06,0-.12,0-.18,0-1.2-.61-1.66-1.35-1.66s-1.3.46-1.3,1.66a2.11,2.11,0,0,0,0,.26A2.59,2.59,0,0,0,8.83,8.7,3.29,3.29,0,0,0,9.07,10a2.36,2.36,0,0,0-.88,2,2.45,2.45,0,0,0,0,.27,2.56,2.56,0,0,0-.71,1.91,3,3,0,0,0,.43,1.59,3.06,3.06,0,0,0-.34,1.44,3.15,3.15,0,0,0,.3,1.37,3.71,3.71,0,0,0-.12.91c0,1.19.58,2.15,1.31,2.17a.86.86,0,0,0,0,.16c0,1.1.49,2,1.14,2.15a1.75,1.75,0,0,0,1.42.84,1.87,1.87,0,0,0,1.63-1.21,1,1,0,0,0,.51.16c.58,0,1.08-.63,1.25-1.49a1.18,1.18,0,0,0,1,.68H16a2.1,2.1,0,0,0,1,1.79A1.92,1.92,0,0,0,18.65,26c1,0,1.8-1,1.91-2.29a2.48,2.48,0,0,0,.78-2,3.68,3.68,0,0,0-.06-.58C22,21.07,22.5,20.15,22.5,19Z"/></g></svg>