<?xml version="1.0" encoding="UTF-8" standalone="no"?>
<!DOCTYPE svg PUBLIC "-//W3C//DTD SVG 1.1//EN"
 "http://www.w3.org/Graphics/SVG/1.1/DTD/svg11.dtd">
<!-- Generated by graphviz version 2.47.0 (20210316.0004)
 -->
<!-- Title: dependencies Pages: 1 -->
<svg width="1260pt" height="211pt"
 viewBox="0.00 0.00 1260.00 211.00" xmlns="http://www.w3.org/2000/svg" xmlns:xlink="http://www.w3.org/1999/xlink">
<g id="graph0" class="graph" transform="scale(1 1) rotate(0) translate(4 207)">
<title>dependencies</title>
<polygon fill="white" stroke="transparent" points="-4,4 -4,-207 1256,-207 1256,4 -4,4"/>
<text text-anchor="start" x="605.01" y="-42.4" font-family="Times-12" font-weight="bold" font-size="14.00">Legend</text>
<polygon fill="#ffffb3" stroke="transparent" points="392,-10 392,-30 412,-30 412,-10 392,-10"/>
<text text-anchor="start" x="415.63" y="-15.4" font-family="Times-12" font-size="14.00"> &#160;Declarations</text>
<polygon fill="#8dd3c7" stroke="transparent" points="505,-10 505,-30 525,-30 525,-10 505,-10"/>
<text text-anchor="start" x="528.73" y="-15.4" font-family="Times-12" font-size="14.00"> &#160;Module</text>
<polygon fill="#80b1d3" stroke="transparent" points="591,-10 591,-30 611,-30 611,-10 591,-10"/>
<text text-anchor="start" x="614.78" y="-15.4" font-family="Times-12" font-size="14.00"> &#160;Bootstrap</text>
<polygon fill="#fdb462" stroke="transparent" points="688,-10 688,-30 708,-30 708,-10 688,-10"/>
<text text-anchor="start" x="711.67" y="-15.4" font-family="Times-12" font-size="14.00"> &#160;Providers</text>
<polygon fill="#fb8072" stroke="transparent" points="784,-10 784,-30 804,-30 804,-10 784,-10"/>
<text text-anchor="start" x="807.73" y="-15.4" font-family="Times-12" font-size="14.00"> &#160;Exports</text>
<g id="clust1" class="cluster">
<title>cluster_AppModule</title>
<polygon fill="none" stroke="black" stroke-dasharray="1,5" points="8,-70 8,-195 1244,-195 1244,-70 8,-70"/>
</g>
<g id="clust2" class="cluster">
<title>cluster_AppModule_declarations</title>
<polygon fill="none" stroke="black" points="964,-78 964,-130 1236,-130 1236,-78 964,-78"/>
</g>
<g id="clust5" class="cluster">
<title>cluster_AppModule_imports</title>
<polygon fill="none" stroke="black" points="16,-78 16,-130 956,-130 956,-78 16,-78"/>
</g>
<!-- AppComponent -->
<g id="node1" class="node">
<title>AppComponent</title>
<polygon fill="#ffffb3" stroke="black" points="1227.94,-122 1122.06,-122 1122.06,-86 1227.94,-86 1227.94,-122"/>
<text text-anchor="middle" x="1175" y="-99.8" font-family="Times,serif" font-size="14.00">AppComponent</text>
</g>
<!-- AppModule -->
<g id="node3" class="node">
<title>AppModule</title>
<polygon fill="#8dd3c7" stroke="black" points="712.66,-187 709.66,-191 688.66,-191 685.66,-187 629.34,-187 629.34,-151 712.66,-151 712.66,-187"/>
<text text-anchor="middle" x="671" y="-164.8" font-family="Times,serif" font-size="14.00">AppModule</text>
</g>
<!-- AppComponent&#45;&gt;AppModule -->
<g id="edge1" class="edge">
<title>AppComponent&#45;&gt;AppModule</title>
<path fill="none" stroke="black" d="M1175,-122.01C1175,-144.49 1175,-180 1175,-180 1175,-180 722.67,-180 722.67,-180"/>
<polygon fill="black" stroke="black" points="722.67,-176.5 712.67,-180 722.67,-183.5 722.67,-176.5"/>
</g>
<!-- AppWebComponent -->
<g id="node2" class="node">
<title>AppWebComponent</title>
<polygon fill="#ffffb3" stroke="black" points="1103.87,-122 972.13,-122 972.13,-86 1103.87,-86 1103.87,-122"/>
<text text-anchor="middle" x="1038" y="-99.8" font-family="Times,serif" font-size="14.00">AppWebComponent</text>
</g>
<!-- AppWebComponent&#45;&gt;AppModule -->
<g id="edge2" class="edge">
<title>AppWebComponent&#45;&gt;AppModule</title>
<path fill="none" stroke="black" d="M1038,-122.13C1038,-142.57 1038,-173 1038,-173 1038,-173 722.74,-173 722.74,-173"/>
<polygon fill="black" stroke="black" points="722.74,-169.5 712.74,-173 722.74,-176.5 722.74,-169.5"/>
</g>
<!-- ContentModule -->
<g id="node4" class="node">
<title>ContentModule</title>
<polygon fill="#8dd3c7" stroke="black" points="947.88,-122 944.88,-126 923.88,-126 920.88,-122 844.12,-122 844.12,-86 947.88,-86 947.88,-122"/>
<text text-anchor="middle" x="896" y="-99.8" font-family="Times,serif" font-size="14.00">ContentModule</text>
</g>
<!-- ContentModule&#45;&gt;AppModule -->
<g id="edge3" class="edge">
<title>ContentModule&#45;&gt;AppModule</title>
<path fill="none" stroke="black" d="M896,-122.27C896,-140.56 896,-166 896,-166 896,-166 722.79,-166 722.79,-166"/>
<polygon fill="black" stroke="black" points="722.79,-162.5 712.79,-166 722.79,-169.5 722.79,-162.5"/>
</g>
<!-- CoreModule -->
<g id="node5" class="node">
<title>CoreModule</title>
<polygon fill="#8dd3c7" stroke="black" points="826.26,-122 823.26,-126 802.26,-126 799.26,-122 739.74,-122 739.74,-86 826.26,-86 826.26,-122"/>
<text text-anchor="middle" x="783" y="-99.8" font-family="Times,serif" font-size="14.00">CoreModule</text>
</g>
<!-- CoreModule&#45;&gt;AppModule -->
<g id="edge4" class="edge">
<title>CoreModule&#45;&gt;AppModule</title>
<path fill="none" stroke="black" d="M783,-122.01C783,-138.05 783,-159 783,-159 783,-159 722.7,-159 722.7,-159"/>
<polygon fill="black" stroke="black" points="722.7,-155.5 712.7,-159 722.7,-162.5 722.7,-155.5"/>
</g>
<!-- DrawerModule -->
<g id="node6" class="node">
<title>DrawerModule</title>
<polygon fill="#8dd3c7" stroke="black" points="721.51,-122 718.51,-126 697.51,-126 694.51,-122 620.49,-122 620.49,-86 721.51,-86 721.51,-122"/>
<text text-anchor="middle" x="671" y="-99.8" font-family="Times,serif" font-size="14.00">DrawerModule</text>
</g>
<!-- DrawerModule&#45;&gt;AppModule -->
<g id="edge5" class="edge">
<title>DrawerModule&#45;&gt;AppModule</title>
<path fill="none" stroke="black" d="M671,-122.11C671,-122.11 671,-140.99 671,-140.99"/>
<polygon fill="black" stroke="black" points="667.5,-140.99 671,-150.99 674.5,-140.99 667.5,-140.99"/>
</g>
<!-- HeaderModule -->
<g id="node7" class="node">
<title>HeaderModule</title>
<polygon fill="#8dd3c7" stroke="black" points="601.96,-122 598.96,-126 577.96,-126 574.96,-122 502.04,-122 502.04,-86 601.96,-86 601.96,-122"/>
<text text-anchor="middle" x="552" y="-99.8" font-family="Times,serif" font-size="14.00">HeaderModule</text>
</g>
<!-- HeaderModule&#45;&gt;AppModule -->
<g id="edge6" class="edge">
<title>HeaderModule&#45;&gt;AppModule</title>
<path fill="none" stroke="black" d="M552,-122.01C552,-138.05 552,-159 552,-159 552,-159 619.05,-159 619.05,-159"/>
<polygon fill="black" stroke="black" points="619.05,-162.5 629.05,-159 619.05,-155.5 619.05,-162.5"/>
</g>
<!-- LeftSidebarModule -->
<g id="node8" class="node">
<title>LeftSidebarModule</title>
<polygon fill="#8dd3c7" stroke="black" points="483.63,-122 480.63,-126 459.63,-126 456.63,-122 358.37,-122 358.37,-86 483.63,-86 483.63,-122"/>
<text text-anchor="middle" x="421" y="-99.8" font-family="Times,serif" font-size="14.00">LeftSidebarModule</text>
</g>
<!-- LeftSidebarModule&#45;&gt;AppModule -->
<g id="edge7" class="edge">
<title>LeftSidebarModule&#45;&gt;AppModule</title>
<path fill="none" stroke="black" d="M421,-122.27C421,-140.56 421,-166 421,-166 421,-166 619.16,-166 619.16,-166"/>
<polygon fill="black" stroke="black" points="619.16,-169.5 629.16,-166 619.16,-162.5 619.16,-169.5"/>
</g>
<!-- RegistrationModalModule -->
<g id="node9" class="node">
<title>RegistrationModalModule</title>
<polygon fill="#8dd3c7" stroke="black" points="340.03,-122 337.03,-126 316.03,-126 313.03,-122 175.97,-122 175.97,-86 340.03,-86 340.03,-122"/>
<text text-anchor="middle" x="258" y="-99.8" font-family="Times,serif" font-size="14.00">RegistrationModalModule</text>
</g>
<!-- RegistrationModalModule&#45;&gt;AppModule -->
<g id="edge8" class="edge">
<title>RegistrationModalModule&#45;&gt;AppModule</title>
<path fill="none" stroke="black" d="M258,-122.13C258,-142.57 258,-173 258,-173 258,-173 619.13,-173 619.13,-173"/>
<polygon fill="black" stroke="black" points="619.13,-176.5 629.13,-173 619.13,-169.5 619.13,-176.5"/>
</g>
<!-- RightSidebarModule -->
<g id="node10" class="node">
<title>RightSidebarModule</title>
<polygon fill="#8dd3c7" stroke="black" points="157.93,-122 154.93,-126 133.93,-126 130.93,-122 24.07,-122 24.07,-86 157.93,-86 157.93,-122"/>
<text text-anchor="middle" x="91" y="-99.8" font-family="Times,serif" font-size="14.00">RightSidebarModule</text>
</g>
<!-- RightSidebarModule&#45;&gt;AppModule -->
<g id="edge9" class="edge">
<title>RightSidebarModule&#45;&gt;AppModule</title>
<path fill="none" stroke="black" d="M91,-122.01C91,-144.49 91,-180 91,-180 91,-180 619.29,-180 619.29,-180"/>
<polygon fill="black" stroke="black" points="619.29,-183.5 629.29,-180 619.29,-176.5 619.29,-183.5"/>
</g>
</g>
</svg>
