<?xml version="1.0" encoding="UTF-8" standalone="no"?>
<!DOCTYPE svg PUBLIC "-//W3C//DTD SVG 1.1//EN"
 "http://www.w3.org/Graphics/SVG/1.1/DTD/svg11.dtd">
<!-- Generated by graphviz version 2.47.3 (20210619.1520)
 -->
<!-- Title: dependencies Pages: 1 -->
<svg width="1260pt" height="174pt"
 viewBox="0.00 0.00 1260.00 173.80" xmlns="http://www.w3.org/2000/svg" xmlns:xlink="http://www.w3.org/1999/xlink">
<g id="graph0" class="graph" transform="scale(1 1) rotate(0) translate(4 169.8)">
<title>dependencies</title>
<polygon fill="white" stroke="transparent" points="-4,4 -4,-169.8 1256,-169.8 1256,4 -4,4"/>
<text text-anchor="middle" x="626" y="-8.2" font-family="sans-serif" font-size="14.00">dependencies</text>
<g id="clust1" class="cluster">
<title>cluster_AppModule</title>
<polygon fill="none" stroke="black" stroke-dasharray="1,5" points="8,-32.8 8,-157.8 1244,-157.8 1244,-32.8 8,-32.8"/>
</g>
<g id="clust2" class="cluster">
<title>cluster_AppModule_declarations</title>
<polygon fill="none" stroke="black" points="964,-40.8 964,-92.8 1236,-92.8 1236,-40.8 964,-40.8"/>
</g>
<g id="clust5" class="cluster">
<title>cluster_AppModule_imports</title>
<polygon fill="none" stroke="black" points="16,-40.8 16,-92.8 956,-92.8 956,-40.8 16,-40.8"/>
</g>
<!-- AppComponent -->
<g id="node1" class="node">
<title>AppComponent</title>
<polygon fill="#ffffb3" stroke="black" points="1227.94,-84.8 1122.06,-84.8 1122.06,-48.8 1227.94,-48.8 1227.94,-84.8"/>
<text text-anchor="middle" x="1175" y="-62.6" font-family="Times,serif" font-size="14.00">AppComponent</text>
</g>
<!-- AppModule -->
<g id="node3" class="node">
<title>AppModule</title>
<polygon fill="#8dd3c7" stroke="black" points="712.66,-149.8 709.66,-153.8 688.66,-153.8 685.66,-149.8 629.34,-149.8 629.34,-113.8 712.66,-113.8 712.66,-149.8"/>
<text text-anchor="middle" x="671" y="-127.6" font-family="Times,serif" font-size="14.00">AppModule</text>
</g>
<!-- AppComponent&#45;&gt;AppModule -->
<g id="edge1" class="edge">
<title>AppComponent&#45;&gt;AppModule</title>
<path fill="none" stroke="black" d="M1175,-84.81C1175,-107.29 1175,-142.8 1175,-142.8 1175,-142.8 722.67,-142.8 722.67,-142.8"/>
<polygon fill="black" stroke="black" points="722.67,-139.3 712.67,-142.8 722.67,-146.3 722.67,-139.3"/>
</g>
<!-- AppWebComponent -->
<g id="node2" class="node">
<title>AppWebComponent</title>
<polygon fill="#ffffb3" stroke="black" points="1103.87,-84.8 972.13,-84.8 972.13,-48.8 1103.87,-48.8 1103.87,-84.8"/>
<text text-anchor="middle" x="1038" y="-62.6" font-family="Times,serif" font-size="14.00">AppWebComponent</text>
</g>
<!-- AppWebComponent&#45;&gt;AppModule -->
<g id="edge2" class="edge">
<title>AppWebComponent&#45;&gt;AppModule</title>
<path fill="none" stroke="black" d="M1038,-84.93C1038,-105.37 1038,-135.8 1038,-135.8 1038,-135.8 722.74,-135.8 722.74,-135.8"/>
<polygon fill="black" stroke="black" points="722.74,-132.3 712.74,-135.8 722.74,-139.3 722.74,-132.3"/>
</g>
<!-- ContentModule -->
<g id="node4" class="node">
<title>ContentModule</title>
<polygon fill="#8dd3c7" stroke="black" points="947.88,-84.8 944.88,-88.8 923.88,-88.8 920.88,-84.8 844.12,-84.8 844.12,-48.8 947.88,-48.8 947.88,-84.8"/>
<text text-anchor="middle" x="896" y="-62.6" font-family="Times,serif" font-size="14.00">ContentModule</text>
</g>
<!-- ContentModule&#45;&gt;AppModule -->
<g id="edge3" class="edge">
<title>ContentModule&#45;&gt;AppModule</title>
<path fill="none" stroke="black" d="M896,-85.07C896,-103.36 896,-128.8 896,-128.8 896,-128.8 722.79,-128.8 722.79,-128.8"/>
<polygon fill="black" stroke="black" points="722.79,-125.3 712.79,-128.8 722.79,-132.3 722.79,-125.3"/>
</g>
<!-- CoreModule -->
<g id="node5" class="node">
<title>CoreModule</title>
<polygon fill="#8dd3c7" stroke="black" points="826.26,-84.8 823.26,-88.8 802.26,-88.8 799.26,-84.8 739.74,-84.8 739.74,-48.8 826.26,-48.8 826.26,-84.8"/>
<text text-anchor="middle" x="783" y="-62.6" font-family="Times,serif" font-size="14.00">CoreModule</text>
</g>
<!-- CoreModule&#45;&gt;AppModule -->
<g id="edge4" class="edge">
<title>CoreModule&#45;&gt;AppModule</title>
<path fill="none" stroke="black" d="M783,-84.81C783,-100.85 783,-121.8 783,-121.8 783,-121.8 722.7,-121.8 722.7,-121.8"/>
<polygon fill="black" stroke="black" points="722.7,-118.3 712.7,-121.8 722.7,-125.3 722.7,-118.3"/>
</g>
<!-- DrawerModule -->
<g id="node6" class="node">
<title>DrawerModule</title>
<polygon fill="#8dd3c7" stroke="black" points="721.51,-84.8 718.51,-88.8 697.51,-88.8 694.51,-84.8 620.49,-84.8 620.49,-48.8 721.51,-48.8 721.51,-84.8"/>
<text text-anchor="middle" x="671" y="-62.6" font-family="Times,serif" font-size="14.00">DrawerModule</text>
</g>
<!-- DrawerModule&#45;&gt;AppModule -->
<g id="edge5" class="edge">
<title>DrawerModule&#45;&gt;AppModule</title>
<path fill="none" stroke="black" d="M671,-84.91C671,-84.91 671,-103.79 671,-103.79"/>
<polygon fill="black" stroke="black" points="667.5,-103.79 671,-113.79 674.5,-103.79 667.5,-103.79"/>
</g>
<!-- HeaderModule -->
<g id="node7" class="node">
<title>HeaderModule</title>
<polygon fill="#8dd3c7" stroke="black" points="601.96,-84.8 598.96,-88.8 577.96,-88.8 574.96,-84.8 502.04,-84.8 502.04,-48.8 601.96,-48.8 601.96,-84.8"/>
<text text-anchor="middle" x="552" y="-62.6" font-family="Times,serif" font-size="14.00">HeaderModule</text>
</g>
<!-- HeaderModule&#45;&gt;AppModule -->
<g id="edge6" class="edge">
<title>HeaderModule&#45;&gt;AppModule</title>
<path fill="none" stroke="black" d="M552,-84.81C552,-100.85 552,-121.8 552,-121.8 552,-121.8 619.05,-121.8 619.05,-121.8"/>
<polygon fill="black" stroke="black" points="619.05,-125.3 629.05,-121.8 619.05,-118.3 619.05,-125.3"/>
</g>
<!-- LeftSidebarModule -->
<g id="node8" class="node">
<title>LeftSidebarModule</title>
<polygon fill="#8dd3c7" stroke="black" points="483.63,-84.8 480.63,-88.8 459.63,-88.8 456.63,-84.8 358.37,-84.8 358.37,-48.8 483.63,-48.8 483.63,-84.8"/>
<text text-anchor="middle" x="421" y="-62.6" font-family="Times,serif" font-size="14.00">LeftSidebarModule</text>
</g>
<!-- LeftSidebarModule&#45;&gt;AppModule -->
<g id="edge7" class="edge">
<title>LeftSidebarModule&#45;&gt;AppModule</title>
<path fill="none" stroke="black" d="M421,-85.07C421,-103.36 421,-128.8 421,-128.8 421,-128.8 619.16,-128.8 619.16,-128.8"/>
<polygon fill="black" stroke="black" points="619.16,-132.3 629.16,-128.8 619.16,-125.3 619.16,-132.3"/>
</g>
<!-- RegistrationModalModule -->
<g id="node9" class="node">
<title>RegistrationModalModule</title>
<polygon fill="#8dd3c7" stroke="black" points="340.03,-84.8 337.03,-88.8 316.03,-88.8 313.03,-84.8 175.97,-84.8 175.97,-48.8 340.03,-48.8 340.03,-84.8"/>
<text text-anchor="middle" x="258" y="-62.6" font-family="Times,serif" font-size="14.00">RegistrationModalModule</text>
</g>
<!-- RegistrationModalModule&#45;&gt;AppModule -->
<g id="edge8" class="edge">
<title>RegistrationModalModule&#45;&gt;AppModule</title>
<path fill="none" stroke="black" d="M258,-84.93C258,-105.37 258,-135.8 258,-135.8 258,-135.8 619.13,-135.8 619.13,-135.8"/>
<polygon fill="black" stroke="black" points="619.13,-139.3 629.13,-135.8 619.13,-132.3 619.13,-139.3"/>
</g>
<!-- RightSidebarModule -->
<g id="node10" class="node">
<title>RightSidebarModule</title>
<polygon fill="#8dd3c7" stroke="black" points="157.93,-84.8 154.93,-88.8 133.93,-88.8 130.93,-84.8 24.07,-84.8 24.07,-48.8 157.93,-48.8 157.93,-84.8"/>
<text text-anchor="middle" x="91" y="-62.6" font-family="Times,serif" font-size="14.00">RightSidebarModule</text>
</g>
<!-- RightSidebarModule&#45;&gt;AppModule -->
<g id="edge9" class="edge">
<title>RightSidebarModule&#45;&gt;AppModule</title>
<path fill="none" stroke="black" d="M91,-84.81C91,-107.29 91,-142.8 91,-142.8 91,-142.8 619.29,-142.8 619.29,-142.8"/>
<polygon fill="black" stroke="black" points="619.29,-146.3 629.29,-142.8 619.29,-139.3 619.29,-146.3"/>
</g>
</g>
</svg>
