<?xml version="1.0" encoding="UTF-8" standalone="no"?>
<!DOCTYPE svg PUBLIC "-//W3C//DTD SVG 1.1//EN"
 "http://www.w3.org/Graphics/SVG/1.1/DTD/svg11.dtd">
<!-- Generated by graphviz version 2.47.3 (20210619.1520)
 -->
<!-- Title: dependencies Pages: 1 -->
<svg width="390pt" height="174pt"
 viewBox="0.00 0.00 390.00 173.80" xmlns="http://www.w3.org/2000/svg" xmlns:xlink="http://www.w3.org/1999/xlink">
<g id="graph0" class="graph" transform="scale(1 1) rotate(0) translate(4 169.8)">
<title>dependencies</title>
<polygon fill="white" stroke="transparent" points="-4,4 -4,-169.8 386,-169.8 386,4 -4,4"/>
<text text-anchor="middle" x="191" y="-8.2" font-family="sans-serif" font-size="14.00">dependencies</text>
<g id="clust1" class="cluster">
<title>cluster_CoreModule</title>
<polygon fill="none" stroke="black" stroke-dasharray="1,5" points="8,-32.8 8,-157.8 374,-157.8 374,-32.8 8,-32.8"/>
</g>
<g id="clust3" class="cluster">
<title>cluster_CoreModule_imports</title>
<polygon fill="none" stroke="black" points="16,-40.8 16,-92.8 366,-92.8 366,-40.8 16,-40.8"/>
</g>
<!-- ConfigModule -->
<g id="node1" class="node">
<title>ConfigModule</title>
<polygon fill="#8dd3c7" stroke="black" points="358.44,-84.8 355.44,-88.8 334.44,-88.8 331.44,-84.8 259.56,-84.8 259.56,-48.8 358.44,-48.8 358.44,-84.8"/>
<text text-anchor="middle" x="309" y="-62.6" font-family="Times,serif" font-size="14.00">ConfigModule</text>
</g>
<!-- CoreModule -->
<g id="node4" class="node">
<title>CoreModule</title>
<polygon fill="#8dd3c7" stroke="black" points="240.26,-149.8 237.26,-153.8 216.26,-153.8 213.26,-149.8 153.74,-149.8 153.74,-113.8 240.26,-113.8 240.26,-149.8"/>
<text text-anchor="middle" x="197" y="-127.6" font-family="Times,serif" font-size="14.00">CoreModule</text>
</g>
<!-- ConfigModule&#45;&gt;CoreModule -->
<g id="edge1" class="edge">
<title>ConfigModule&#45;&gt;CoreModule</title>
<path fill="none" stroke="black" d="M309,-84.91C309,-104.14 309,-131.8 309,-131.8 309,-131.8 250.3,-131.8 250.3,-131.8"/>
<polygon fill="black" stroke="black" points="250.3,-128.3 240.3,-131.8 250.3,-135.3 250.3,-128.3"/>
</g>
<!-- StoreModule -->
<g id="node2" class="node">
<title>StoreModule</title>
<polygon fill="#8dd3c7" stroke="black" points="241.6,-84.8 238.6,-88.8 217.6,-88.8 214.6,-84.8 152.4,-84.8 152.4,-48.8 241.6,-48.8 241.6,-84.8"/>
<text text-anchor="middle" x="197" y="-62.6" font-family="Times,serif" font-size="14.00">StoreModule</text>
</g>
<!-- StoreModule&#45;&gt;CoreModule -->
<g id="edge2" class="edge">
<title>StoreModule&#45;&gt;CoreModule</title>
<path fill="none" stroke="black" d="M197,-84.91C197,-84.91 197,-103.79 197,-103.79"/>
<polygon fill="black" stroke="black" points="193.5,-103.79 197,-113.79 200.5,-103.79 193.5,-103.79"/>
</g>
<!-- ThemingModule -->
<g id="node3" class="node">
<title>ThemingModule</title>
<polygon fill="#8dd3c7" stroke="black" points="134.1,-84.8 131.1,-88.8 110.1,-88.8 107.1,-84.8 23.9,-84.8 23.9,-48.8 134.1,-48.8 134.1,-84.8"/>
<text text-anchor="middle" x="79" y="-62.6" font-family="Times,serif" font-size="14.00">ThemingModule</text>
</g>
<!-- ThemingModule&#45;&gt;CoreModule -->
<g id="edge3" class="edge">
<title>ThemingModule&#45;&gt;CoreModule</title>
<path fill="none" stroke="black" d="M79,-84.91C79,-104.14 79,-131.8 79,-131.8 79,-131.8 143.73,-131.8 143.73,-131.8"/>
<polygon fill="black" stroke="black" points="143.73,-135.3 153.73,-131.8 143.73,-128.3 143.73,-135.3"/>
</g>
</g>
</svg>
