<?xml version="1.0" encoding="UTF-8" standalone="no"?>
<!DOCTYPE svg PUBLIC "-//W3C//DTD SVG 1.1//EN"
 "http://www.w3.org/Graphics/SVG/1.1/DTD/svg11.dtd">
<!-- Generated by graphviz version 2.47.3 (20210619.1520)
 -->
<!-- Title: dependencies Pages: 1 -->
<svg width="182pt" height="247pt"
 viewBox="0.00 0.00 182.00 246.80" xmlns="http://www.w3.org/2000/svg" xmlns:xlink="http://www.w3.org/1999/xlink">
<g id="graph0" class="graph" transform="scale(1 1) rotate(0) translate(4 242.8)">
<title>dependencies</title>
<polygon fill="white" stroke="transparent" points="-4,4 -4,-242.8 178,-242.8 178,4 -4,4"/>
<text text-anchor="middle" x="87" y="-8.2" font-family="sans-serif" font-size="14.00">dependencies</text>
<g id="clust1" class="cluster">
<title>cluster_ViewerModule</title>
<polygon fill="none" stroke="black" stroke-dasharray="1,5" points="8,-32.8 8,-230.8 166,-230.8 166,-32.8 8,-32.8"/>
</g>
<g id="clust5" class="cluster">
<title>cluster_ViewerModule_exports</title>
<polygon fill="none" stroke="black" points="16,-170.8 16,-222.8 158,-222.8 158,-170.8 16,-170.8"/>
</g>
<g id="clust2" class="cluster">
<title>cluster_ViewerModule_declarations</title>
<polygon fill="none" stroke="black" points="18,-40.8 18,-92.8 156,-92.8 156,-40.8 18,-40.8"/>
</g>
<!-- ViewerComponent -->
<g id="node1" class="node">
<title>ViewerComponent</title>
<polygon fill="#ffffb3" stroke="black" points="148.03,-84.8 25.97,-84.8 25.97,-48.8 148.03,-48.8 148.03,-84.8"/>
<text text-anchor="middle" x="87" y="-62.6" font-family="Times,serif" font-size="14.00">ViewerComponent</text>
</g>
<!-- ViewerModule -->
<g id="node2" class="node">
<title>ViewerModule</title>
<polygon fill="#8dd3c7" stroke="black" points="137.24,-149.8 134.24,-153.8 113.24,-153.8 110.24,-149.8 36.76,-149.8 36.76,-113.8 137.24,-113.8 137.24,-149.8"/>
<text text-anchor="middle" x="87" y="-127.6" font-family="Times,serif" font-size="14.00">ViewerModule</text>
</g>
<!-- ViewerComponent&#45;&gt;ViewerModule -->
<g id="edge1" class="edge">
<title>ViewerComponent&#45;&gt;ViewerModule</title>
<path fill="none" stroke="black" d="M87,-84.91C87,-84.91 87,-103.79 87,-103.79"/>
<polygon fill="black" stroke="black" points="83.5,-103.79 87,-113.79 90.5,-103.79 83.5,-103.79"/>
</g>
<!-- ViewerComponent  -->
<g id="node3" class="node">
<title>ViewerComponent </title>
<polygon fill="#fb8072" stroke="black" points="150.03,-214.8 23.97,-214.8 23.97,-178.8 150.03,-178.8 150.03,-214.8"/>
<text text-anchor="middle" x="87" y="-192.6" font-family="Times,serif" font-size="14.00">ViewerComponent </text>
</g>
<!-- ViewerModule&#45;&gt;ViewerComponent  -->
<g id="edge2" class="edge">
<title>ViewerModule&#45;&gt;ViewerComponent </title>
<path fill="none" stroke="black" stroke-dasharray="5,2" d="M87,-149.91C87,-149.91 87,-168.79 87,-168.79"/>
<polygon fill="black" stroke="black" points="83.5,-168.79 87,-178.79 90.5,-168.79 83.5,-168.79"/>
</g>
</g>
</svg>
