<?xml version="1.0" encoding="UTF-8" standalone="no"?>
<!DOCTYPE svg PUBLIC "-//W3C//DTD SVG 1.1//EN"
 "http://www.w3.org/Graphics/SVG/1.1/DTD/svg11.dtd">
<!-- Generated by graphviz version 2.47.3 (20210619.1520)
 -->
<!-- Title: dependencies Pages: 1 -->
<svg width="264pt" height="247pt"
 viewBox="0.00 0.00 264.00 246.80" xmlns="http://www.w3.org/2000/svg" xmlns:xlink="http://www.w3.org/1999/xlink">
<g id="graph0" class="graph" transform="scale(1 1) rotate(0) translate(4 242.8)">
<title>dependencies</title>
<polygon fill="white" stroke="transparent" points="-4,4 -4,-242.8 260,-242.8 260,4 -4,4"/>
<text text-anchor="middle" x="128" y="-8.2" font-family="sans-serif" font-size="14.00">dependencies</text>
<g id="clust1" class="cluster">
<title>cluster_VideoModalLauncherModule</title>
<polygon fill="none" stroke="black" stroke-dasharray="1,5" points="8,-32.8 8,-230.8 248,-230.8 248,-32.8 8,-32.8"/>
</g>
<g id="clust5" class="cluster">
<title>cluster_VideoModalLauncherModule_exports</title>
<polygon fill="none" stroke="black" points="16,-170.8 16,-222.8 240,-222.8 240,-170.8 16,-170.8"/>
</g>
<g id="clust2" class="cluster">
<title>cluster_VideoModalLauncherModule_declarations</title>
<polygon fill="none" stroke="black" points="18,-40.8 18,-92.8 238,-92.8 238,-40.8 18,-40.8"/>
</g>
<!-- VideoModalLauncherComponent -->
<g id="node1" class="node">
<title>VideoModalLauncherComponent</title>
<polygon fill="#ffffb3" stroke="black" points="230.45,-84.8 25.55,-84.8 25.55,-48.8 230.45,-48.8 230.45,-84.8"/>
<text text-anchor="middle" x="128" y="-62.6" font-family="Times,serif" font-size="14.00">VideoModalLauncherComponent</text>
</g>
<!-- VideoModalLauncherModule -->
<g id="node2" class="node">
<title>VideoModalLauncherModule</title>
<polygon fill="#8dd3c7" stroke="black" points="219.67,-149.8 216.67,-153.8 195.67,-153.8 192.67,-149.8 36.33,-149.8 36.33,-113.8 219.67,-113.8 219.67,-149.8"/>
<text text-anchor="middle" x="128" y="-127.6" font-family="Times,serif" font-size="14.00">VideoModalLauncherModule</text>
</g>
<!-- VideoModalLauncherComponent&#45;&gt;VideoModalLauncherModule -->
<g id="edge1" class="edge">
<title>VideoModalLauncherComponent&#45;&gt;VideoModalLauncherModule</title>
<path fill="none" stroke="black" d="M128,-84.91C128,-84.91 128,-103.79 128,-103.79"/>
<polygon fill="black" stroke="black" points="124.5,-103.79 128,-113.79 131.5,-103.79 124.5,-103.79"/>
</g>
<!-- VideoModalLauncherComponent  -->
<g id="node3" class="node">
<title>VideoModalLauncherComponent </title>
<polygon fill="#fb8072" stroke="black" points="232.45,-214.8 23.55,-214.8 23.55,-178.8 232.45,-178.8 232.45,-214.8"/>
<text text-anchor="middle" x="128" y="-192.6" font-family="Times,serif" font-size="14.00">VideoModalLauncherComponent </text>
</g>
<!-- VideoModalLauncherModule&#45;&gt;VideoModalLauncherComponent  -->
<g id="edge2" class="edge">
<title>VideoModalLauncherModule&#45;&gt;VideoModalLauncherComponent </title>
<path fill="none" stroke="black" stroke-dasharray="5,2" d="M128,-149.91C128,-149.91 128,-168.79 128,-168.79"/>
<polygon fill="black" stroke="black" points="124.5,-168.79 128,-178.79 131.5,-168.79 124.5,-168.79"/>
</g>
</g>
</svg>
