<svg xmlns="http://www.w3.org/2000/svg" viewBox="0 0 30 30"><defs><style>.cls-1{fill:none;}</style></defs><g id="blood"><path d="M9.36,5.37c-.18-.14-.52-.21-1.19.22A7.18,7.18,0,0,0,6.73,7,5.93,5.93,0,0,0,5.58,9c-.1.38-.07.68.13.85s.82.09,1.48-.43a.18.18,0,0,0,0-.25.18.18,0,0,0-.26,0c-.58.45-.92.5-1,.43S6,8.46,7,7.18A6.61,6.61,0,0,1,8.37,5.9c.4-.26.67-.31.76-.24s.07.61-.41,1.43a.18.18,0,0,0,.06.26A.18.18,0,0,0,9,7.28C9.29,6.84,9.84,5.77,9.36,5.37Z"/><path d="M16,16.5a1.64,1.64,0,0,0-1-1.34.21.21,0,0,0-.29.08.22.22,0,0,0,.09.29c.49.28.77.62.77,1,0,.83-1.54,1.53-3.35,1.53s-3.36-.7-3.36-1.53c0-.48.54-.95,1.41-1.24a.21.21,0,0,0,.13-.27.22.22,0,0,0-.27-.14c-1.06.36-1.69,1-1.69,1.65,0,1.1,1.66,2,3.78,2S16,17.6,16,16.5Z"/><path d="M9.49,8.94c1.63-2.23,1.86-4.83.52-5.81s-3.74.05-5.37,2.28-1.86,4.83-.52,5.8S7.86,11.17,9.49,8.94ZM4.71,10.41c-.89-.65-.56-2.63.74-4.41s3.08-2.71,4-2.06S10,6.57,8.68,8.35,5.6,11.06,4.71,10.41Z"/><path d="M26.63,18.09a4.29,4.29,0,0,0-2.71-3.65c1.78-2.48,1.93-5.55.18-7.29-2-2-5.75-1.52-8.36,1.09a7.65,7.65,0,0,0-2.27,4.44,9.73,9.73,0,0,0-1.34-.09c-3.59,0-6.5,2-6.5,4.5s2.91,4.5,6.5,4.5l.48,0v0c-.6,1.54,1,3.6,3.57,4.61s5.14.57,5.75-1a2.72,2.72,0,0,0-.77-2.69C24.25,22.19,26.63,20.33,26.63,18.09ZM16.46,9c2.21-2.21,5.31-2.69,6.91-1.09s1.12,4.7-1.09,6.91a6.73,6.73,0,0,1-3.67,2,3.89,3.89,0,0,0-1.46-2.5,3,3,0,0,0,.7-.1,5.38,5.38,0,0,0,2.31-1.41,5.3,5.3,0,0,0,1.4-2.31,2,2,0,0,0-.35-2,1.61,1.61,0,0,0-1-.45h0a.22.22,0,0,0-.21.2.21.21,0,0,0,.19.23,1.18,1.18,0,0,1,.76.32,1.58,1.58,0,0,1,.24,1.57,4.87,4.87,0,0,1-1.3,2.12,4.79,4.79,0,0,1-2.11,1.3,1.59,1.59,0,0,1-1.57-.24A1.55,1.55,0,0,1,15.89,12a.2.2,0,0,0-.16-.25.21.21,0,0,0-.25.16,2.25,2.25,0,0,0,.07,1.33,8.8,8.8,0,0,0-1.06-.36A6.68,6.68,0,0,1,16.46,9Zm2.09,8.82a7.52,7.52,0,0,0,3.68-1.59,1.86,1.86,0,0,1,1.14,1.58c-.06,1-1.33,1.74-2.89,1.74h-.29a4.19,4.19,0,0,1-2.06-.67A3.4,3.4,0,0,0,18.55,17.78ZM6.63,17.09c0-1.93,2.47-3.5,5.5-3.5s5.5,1.57,5.5,3.5c0,1.32-1.15,2.47-2.86,3.07a3.8,3.8,0,0,0-.85.24,8.54,8.54,0,0,1-1.79.19C9.1,20.59,6.63,19,6.63,17.09ZM21,24.86c-.41,1-2.4,1.21-4.46.41s-3.4-2.29-3-3.32a1.15,1.15,0,0,1,.51-.56,7.67,7.67,0,0,0,1.12-.32h.11l.24.18c-.4,0-.77.05-.9.35s-.09.58.5,1.14a6.92,6.92,0,0,0,1.67,1.11,5.82,5.82,0,0,0,2.26.64.81.81,0,0,0,.8-.36c.15-.35-.12-.84-.78-1.37a.17.17,0,0,0-.26,0,.2.2,0,0,0,0,.27c.59.47.72.8.67.91s-1.06.26-2.56-.47a6.46,6.46,0,0,1-1.58-1c-.36-.34-.47-.59-.42-.7s.57-.23,1.49.05c0,0,0,0,0,0a8.54,8.54,0,0,0,3.34.77C20.75,23.32,21.25,24.18,21,24.86Zm-.86-3.27a7.33,7.33,0,0,1-3.85-1,5.49,5.49,0,0,0,1.56-1.32,4.54,4.54,0,0,0,2.33.76h.31c1.82,0,3.31-1,3.39-2.21a2.23,2.23,0,0,0-1.24-1.94l.38-.35.26-.28a3.41,3.41,0,0,1,2.36,2.86C25.63,20,23.17,21.59,20.13,21.59Z"/></g></svg>