<svg xmlns="http://www.w3.org/2000/svg" viewBox="0 0 30 30"><defs><style>.cls-1{fill:none;}</style></defs><g id="bladder"><path d="M22.85,11.63A2.49,2.49,0,0,1,23.53,10l1.83-1.83h0l-.45-.44-1-1L22.08,8.47a2.43,2.43,0,0,1-1.91.68,10.44,10.44,0,0,0-9.72,0,2.45,2.45,0,0,1-1.79-.68L6.83,6.66h0l-.44.45-1,1L7.16,10a2.43,2.43,0,0,1,.69,1.62,4.89,4.89,0,0,0-.73,2.52c0,2.79,2.5,5.14,5.91,5.88a2.49,2.49,0,0,1,1.26,2.1v2.59h2.08V22.1A2.5,2.5,0,0,1,17.66,20a8.35,8.35,0,0,0,1-.29h0c2.85-1,4.82-3.1,4.83-5.58A5.67,5.67,0,0,0,22.85,11.63Z"/></g></svg>