<svg xmlns="http://www.w3.org/2000/svg" viewBox="0 0 30 30"><defs><style>.cls-1{fill:none;}</style></defs><g id="colon"><path d="M27.5,12.59A1.4,1.4,0,0,0,27,11.51a1.37,1.37,0,0,0,.44-1,1.4,1.4,0,0,0-.66-1.17,1.38,1.38,0,0,0,.66-1.17,1.41,1.41,0,0,0-.43-1l.13-.31a2.88,2.88,0,0,0-1.71-3.8,3.2,3.2,0,0,0-3.18.54,1.64,1.64,0,0,0-.88-.28A1.41,1.41,0,0,0,19.8,4.54v.22a1.55,1.55,0,0,0-1.26-.67,1.51,1.51,0,0,0-1.44.85,1.55,1.55,0,0,0-1.25-.63,1.51,1.51,0,0,0-1.43.81v0A1.37,1.37,0,0,0,13,3.79a1.86,1.86,0,0,0-.48.06,1.83,1.83,0,0,0-1.82-1.4A2.05,2.05,0,0,0,9,3.19l-.31-.37a2.44,2.44,0,0,0-3-.44A1.7,1.7,0,0,0,4.82,4.1,2,2,0,0,0,2.91,5.46,1.48,1.48,0,0,0,3.3,6.84a1.58,1.58,0,0,0-.67.9,1.62,1.62,0,0,0,.89,1.92,1.12,1.12,0,0,0-.93,1.07A1.17,1.17,0,0,0,3.43,12a1.22,1.22,0,0,0-.73,1.1v.27a1.25,1.25,0,0,0,1,1.19A2.55,2.55,0,0,0,2.5,16.69v.57a2.64,2.64,0,0,0,2.68,2.57V20.9a.54.54,0,0,0,1.08,0V19.83a2.65,2.65,0,0,0,2.62-2.57v-.57a2.55,2.55,0,0,0-1.22-2.14,1.26,1.26,0,0,0,1-1.19v-.27a1.2,1.2,0,0,0-.51-1,1.24,1.24,0,0,0,.38-.81,1.33,1.33,0,0,0-.22-.82,1.57,1.57,0,0,0,.61-.85,1.63,1.63,0,0,0-.51-1.7A2,2,0,0,0,9,7.7a2,2,0,0,0,1.47.66,2.08,2.08,0,0,0,.87-.16v.21A1.38,1.38,0,0,0,12.75,9.7a1.52,1.52,0,0,0,1.44-.81v0a1.39,1.39,0,0,0,1.45,1.3h0a1.5,1.5,0,0,0,1.44-.86,1.53,1.53,0,0,0,1.24.64,1.41,1.41,0,0,0,1.54-1.21V8.57a1.58,1.58,0,0,0,1.27.67,1.84,1.84,0,0,0,.41-.05.9.9,0,0,0,.19.15,1.43,1.43,0,0,0-.66,1.17,1.39,1.39,0,0,0,.54,1.07,1.41,1.41,0,0,0-.44,1,1.39,1.39,0,0,0,.46,1A2,2,0,0,0,21.05,15a1.88,1.88,0,0,0,.29,1,2.2,2.2,0,0,0-.8,1.3c0,.06,0,.13,0,.19a1.18,1.18,0,0,0-.26.24,1.3,1.3,0,0,0-.25.66,1.67,1.67,0,0,0-.76.61,1.88,1.88,0,0,0-2-.28A3.18,3.18,0,0,0,15,17.78h-.2a3.06,3.06,0,0,0-3.12,3v.19a2.86,2.86,0,0,0,.9,2.08,1,1,0,0,0-.27.66,1,1,0,0,0,.85,1s0,.06,0,.1h0a1,1,0,0,0,.6.9V27a1.08,1.08,0,0,0,2.15,0V25.58a1,1,0,0,0,.47-.82h0s0,0,0-.06h.26a1.38,1.38,0,0,0,1.22-1.21c0-.38-.05-.4-.05-.4a1.48,1.48,0,0,0,1.23.52,1.31,1.31,0,0,0,1.21-1,2,2,0,0,0,2.1.55,1.66,1.66,0,0,0,1-.94A1.2,1.2,0,0,0,25,21.93a1.51,1.51,0,0,0,.21-1.3,2.07,2.07,0,0,0,1.25-1.54,2.47,2.47,0,0,0-.56-2.18A2,2,0,0,0,27.4,15a2,2,0,0,0-.49-1.28A1.37,1.37,0,0,0,27.5,12.59Z"/></g></svg>