<svg xmlns="http://www.w3.org/2000/svg" viewBox="0 0 30 30"><defs><style>.cls-1{fill:none;}</style></defs><g id="vasculature"><path d="M26.49,11.48c-1.38.18-2.51.26-3.51.32-2.94.2-4.72.32-7.35,3a11.22,11.22,0,0,1-2,1.63,13.83,13.83,0,0,0,1.08-2.69,6.84,6.84,0,0,0,.15-2.33V11c0-.23,0-.46,0-.7.3-.48.72-1.13,1.17-1.79h.48a8.27,8.27,0,0,0,4-.91.48.48,0,0,0,.18-.68.56.56,0,0,0-.73-.16,7.11,7.11,0,0,1-3.29.76,1.09,1.09,0,0,0,.08-.15c.41-.77.32-2.26,1.05-2.41a.5.5,0,0,0,.4-.59A.53.53,0,0,0,17.44,4c-1.26.25-1.36,2.16-1.77,2.93a8.06,8.06,0,0,1-.53.9c-.2.29-.4.59-.58.87A29.75,29.75,0,0,0,13,3.29L12.94,3a.53.53,0,0,0-.66-.33.49.49,0,0,0-.35.62,32,32,0,0,1,1.4,7.43,10.76,10.76,0,0,1-.07,1.66,7.38,7.38,0,0,1-4-5.61.52.52,0,0,0-.55-.47.51.51,0,0,0-.51.51C8.18,7,8.42,11,13,13.42a9.54,9.54,0,0,1-2.09,3.76A5.1,5.1,0,0,0,10,18.53v0h0a11,11,0,0,0-.74,3.24A17.64,17.64,0,0,1,9,23.56a2.46,2.46,0,0,1-.3.76,46.75,46.75,0,0,1-1.38-5.58,13.46,13.46,0,0,1,0-1.48,5.63,5.63,0,0,0,3-2.41.47.47,0,0,0-.21-.67.55.55,0,0,0-.72.19,4.48,4.48,0,0,1-2.07,1.81c.1-1.66.31-3.31.31-3.33a.5.5,0,0,0-.46-.55.53.53,0,0,0-.59.43,35.35,35.35,0,0,0-.31,6.11,14.42,14.42,0,0,0,.33,1.72,5,5,0,0,1-2.49-2.37A.56.56,0,0,0,3.4,18a.48.48,0,0,0-.25.66,6.12,6.12,0,0,0,3.73,3.12c.37,1.43.8,2.86,1,3.5a3.35,3.35,0,0,1-.67.37.93.93,0,0,1,.8.09c.4.21.81.75.65,1,0,.05-.07.07-.1.1a4.33,4.33,0,0,0,2.54-3.06c.14-.71.21-1.29.27-1.84a9.83,9.83,0,0,1,.67-3,3.18,3.18,0,0,1,.35-.62,15,15,0,0,0,3.93-2.71,10.71,10.71,0,0,1,6.93,1.92.55.55,0,0,0,.32.1.53.53,0,0,0,.42-.2.46.46,0,0,0-.11-.69,12,12,0,0,0-6.47-2.15,6.59,6.59,0,0,1,1.86-1.15,9.2,9.2,0,0,0,4.32.9,17,17,0,0,0,2.24-.16.5.5,0,0,0,.45-.56.54.54,0,0,0-.6-.42A13.43,13.43,0,0,1,20.8,13c.66-.11,1.38-.16,2.25-.22s2.17-.15,3.59-.33a.5.5,0,0,0,.45-.56A.52.52,0,0,0,26.49,11.48Z"/><path d="M8.4,26.63c-.13.17-.6.1-.89-.1s-.41-.5-.28-.68.49-.15.78,0S8.54,26.46,8.4,26.63Z"/></g></svg>