<?xml version="1.0" encoding="UTF-8" standalone="no"?>
<!DOCTYPE svg PUBLIC "-//W3C//DTD SVG 1.1//EN"
 "http://www.w3.org/Graphics/SVG/1.1/DTD/svg11.dtd">
<!-- Generated by graphviz version 2.40.1 (20161225.0304)
 -->
<!-- Title: dependencies Pages: 1 -->
<svg width="788pt" height="284pt"
 viewBox="0.00 0.00 788.00 284.00" xmlns="http://www.w3.org/2000/svg" xmlns:xlink="http://www.w3.org/1999/xlink">
<g id="graph0" class="graph" transform="scale(1 1) rotate(0) translate(4 280)">
<title>dependencies</title>
<polygon fill="#ffffff" stroke="transparent" points="-4,4 -4,-280 784,-280 784,4 -4,4"/>
<text text-anchor="start" x="369.0091" y="-42.4" font-family="sans-serif" font-weight="bold" font-size="14.00" fill="#000000">Legend</text>
<polygon fill="#ffffb3" stroke="transparent" points="156,-10 156,-30 176,-30 176,-10 156,-10"/>
<text text-anchor="start" x="179.629" y="-15.4" font-family="sans-serif" font-size="14.00" fill="#000000"> &#160;Declarations</text>
<polygon fill="#8dd3c7" stroke="transparent" points="269,-10 269,-30 289,-30 289,-10 269,-10"/>
<text text-anchor="start" x="292.7251" y="-15.4" font-family="sans-serif" font-size="14.00" fill="#000000"> &#160;Module</text>
<polygon fill="#80b1d3" stroke="transparent" points="355,-10 355,-30 375,-30 375,-10 355,-10"/>
<text text-anchor="start" x="378.7812" y="-15.4" font-family="sans-serif" font-size="14.00" fill="#000000"> &#160;Bootstrap</text>
<polygon fill="#fdb462" stroke="transparent" points="452,-10 452,-30 472,-30 472,-10 452,-10"/>
<text text-anchor="start" x="475.6732" y="-15.4" font-family="sans-serif" font-size="14.00" fill="#000000"> &#160;Providers</text>
<polygon fill="#fb8072" stroke="transparent" points="548,-10 548,-30 568,-30 568,-10 548,-10"/>
<text text-anchor="start" x="571.7258" y="-15.4" font-family="sans-serif" font-size="14.00" fill="#000000"> &#160;Exports</text>
<g id="clust1" class="cluster">
<title>cluster_ContentModule</title>
<polygon fill="none" stroke="#000000" stroke-dasharray="1,5" points="8,-70 8,-268 772,-268 772,-70 8,-70"/>
</g>
<g id="clust2" class="cluster">
<title>cluster_ContentModule_declarations</title>
<polygon fill="none" stroke="#000000" points="622,-78 622,-130 764,-130 764,-78 622,-78"/>
</g>
<g id="clust4" class="cluster">
<title>cluster_ContentModule_imports</title>
<polygon fill="none" stroke="#000000" points="16,-78 16,-130 614,-130 614,-78 16,-78"/>
</g>
<g id="clust5" class="cluster">
<title>cluster_ContentModule_exports</title>
<polygon fill="none" stroke="#000000" points="354,-208 354,-260 500,-260 500,-208 354,-208"/>
</g>
<!-- ContentComponent -->
<g id="node1" class="node">
<title>ContentComponent</title>
<polygon fill="#ffffb3" stroke="#000000" points="755.6652,-122 630.3348,-122 630.3348,-86 755.6652,-86 755.6652,-122"/>
<text text-anchor="middle" x="693" y="-99.8" font-family="Times,serif" font-size="14.00" fill="#000000">ContentComponent</text>
</g>
<!-- ContentModule -->
<g id="node2" class="node">
<title>ContentModule</title>
<polygon fill="#8dd3c7" stroke="#000000" points="478.8823,-187 475.8823,-191 454.8823,-191 451.8823,-187 375.1177,-187 375.1177,-151 478.8823,-151 478.8823,-187"/>
<text text-anchor="middle" x="427" y="-164.8" font-family="Times,serif" font-size="14.00" fill="#000000">ContentModule</text>
</g>
<!-- ContentComponent&#45;&gt;ContentModule -->
<g id="edge1" class="edge">
<title>ContentComponent&#45;&gt;ContentModule</title>
<path fill="none" stroke="#000000" d="M693,-122.2843C693,-143.3211 693,-175 693,-175 693,-175 488.9189,-175 488.9189,-175"/>
<polygon fill="#000000" stroke="#000000" points="488.919,-171.5001 478.9189,-175 488.9189,-178.5001 488.919,-171.5001"/>
</g>
<!-- ContentComponent  -->
<g id="node7" class="node">
<title>ContentComponent </title>
<polygon fill="#fb8072" stroke="#000000" points="491.6649,-252 362.3351,-252 362.3351,-216 491.6649,-216 491.6649,-252"/>
<text text-anchor="middle" x="427" y="-229.8" font-family="Times,serif" font-size="14.00" fill="#000000">ContentComponent </text>
</g>
<!-- ContentModule&#45;&gt;ContentComponent  -->
<g id="edge6" class="edge">
<title>ContentModule&#45;&gt;ContentComponent </title>
<path fill="none" stroke="#000000" stroke-dasharray="5,2" d="M427,-187.1061C427,-187.1061 427,-205.991 427,-205.991"/>
<polygon fill="#000000" stroke="#000000" points="423.5001,-205.9909 427,-215.991 430.5001,-205.991 423.5001,-205.9909"/>
</g>
<!-- BodyUiModule -->
<g id="node3" class="node">
<title>BodyUiModule</title>
<polygon fill="#8dd3c7" stroke="#000000" points="605.8837,-122 602.8837,-126 581.8837,-126 578.8837,-122 502.1163,-122 502.1163,-86 605.8837,-86 605.8837,-122"/>
<text text-anchor="middle" x="554" y="-99.8" font-family="Times,serif" font-size="14.00" fill="#000000">BodyUiModule</text>
</g>
<!-- BodyUiModule&#45;&gt;ContentModule -->
<g id="edge2" class="edge">
<title>BodyUiModule&#45;&gt;ContentModule</title>
<path fill="none" stroke="#000000" d="M554,-122.0225C554,-139.3734 554,-163 554,-163 554,-163 489.0222,-163 489.0222,-163"/>
<polygon fill="#000000" stroke="#000000" points="489.0222,-159.5001 479.0222,-163 489.0222,-166.5001 489.0222,-159.5001"/>
</g>
<!-- StageNavModule -->
<g id="node4" class="node">
<title>StageNavModule</title>
<polygon fill="#8dd3c7" stroke="#000000" points="483.9734,-122 480.9734,-126 459.9734,-126 456.9734,-122 370.0266,-122 370.0266,-86 483.9734,-86 483.9734,-122"/>
<text text-anchor="middle" x="427" y="-99.8" font-family="Times,serif" font-size="14.00" fill="#000000">StageNavModule</text>
</g>
<!-- StageNavModule&#45;&gt;ContentModule -->
<g id="edge3" class="edge">
<title>StageNavModule&#45;&gt;ContentModule</title>
<path fill="none" stroke="#000000" d="M427,-122.1061C427,-122.1061 427,-140.991 427,-140.991"/>
<polygon fill="#000000" stroke="#000000" points="423.5001,-140.9909 427,-150.991 430.5001,-140.991 423.5001,-140.9909"/>
</g>
<!-- StoreDebugModule -->
<g id="node5" class="node">
<title>StoreDebugModule</title>
<polygon fill="#8dd3c7" stroke="#000000" points="352.4201,-122 349.4201,-126 328.4201,-126 325.4201,-122 225.5799,-122 225.5799,-86 352.4201,-86 352.4201,-122"/>
<text text-anchor="middle" x="289" y="-99.8" font-family="Times,serif" font-size="14.00" fill="#000000">StoreDebugModule</text>
</g>
<!-- StoreDebugModule&#45;&gt;ContentModule -->
<g id="edge4" class="edge">
<title>StoreDebugModule&#45;&gt;ContentModule</title>
<path fill="none" stroke="#000000" d="M289,-122.0225C289,-139.3734 289,-163 289,-163 289,-163 364.8281,-163 364.8281,-163"/>
<polygon fill="#000000" stroke="#000000" points="364.8282,-166.5001 374.8281,-163 364.8281,-159.5001 364.8282,-166.5001"/>
</g>
<!-- VideoModalLauncherModule -->
<g id="node6" class="node">
<title>VideoModalLauncherModule</title>
<polygon fill="#8dd3c7" stroke="#000000" points="207.6685,-122 204.6685,-126 183.6685,-126 180.6685,-122 24.3315,-122 24.3315,-86 207.6685,-86 207.6685,-122"/>
<text text-anchor="middle" x="116" y="-99.8" font-family="Times,serif" font-size="14.00" fill="#000000">VideoModalLauncherModule</text>
</g>
<!-- VideoModalLauncherModule&#45;&gt;ContentModule -->
<g id="edge5" class="edge">
<title>VideoModalLauncherModule&#45;&gt;ContentModule</title>
<path fill="none" stroke="#000000" d="M116,-122.2843C116,-143.3211 116,-175 116,-175 116,-175 364.9456,-175 364.9456,-175"/>
<polygon fill="#000000" stroke="#000000" points="364.9456,-178.5001 374.9456,-175 364.9456,-171.5001 364.9456,-178.5001"/>
</g>
</g>
</svg>
