<?xml version="1.0" encoding="UTF-8" standalone="no"?>
<!DOCTYPE svg PUBLIC "-//W3C//DTD SVG 1.1//EN"
 "http://www.w3.org/Graphics/SVG/1.1/DTD/svg11.dtd">
<!-- Generated by graphviz version 2.40.1 (20161225.0304)
 -->
<!-- Title: dependencies Pages: 1 -->
<svg width="504pt" height="284pt"
 viewBox="0.00 0.00 504.00 284.00" xmlns="http://www.w3.org/2000/svg" xmlns:xlink="http://www.w3.org/1999/xlink">
<g id="graph0" class="graph" transform="scale(1 1) rotate(0) translate(4 280)">
<title>dependencies</title>
<polygon fill="#ffffff" stroke="transparent" points="-4,4 -4,-280 500,-280 500,4 -4,4"/>
<text text-anchor="start" x="227.0091" y="-42.4" font-family="sans-serif" font-weight="bold" font-size="14.00" fill="#000000">Legend</text>
<polygon fill="#ffffb3" stroke="transparent" points="14,-10 14,-30 34,-30 34,-10 14,-10"/>
<text text-anchor="start" x="37.629" y="-15.4" font-family="sans-serif" font-size="14.00" fill="#000000"> &#160;Declarations</text>
<polygon fill="#8dd3c7" stroke="transparent" points="127,-10 127,-30 147,-30 147,-10 127,-10"/>
<text text-anchor="start" x="150.7251" y="-15.4" font-family="sans-serif" font-size="14.00" fill="#000000"> &#160;Module</text>
<polygon fill="#80b1d3" stroke="transparent" points="213,-10 213,-30 233,-30 233,-10 213,-10"/>
<text text-anchor="start" x="236.7812" y="-15.4" font-family="sans-serif" font-size="14.00" fill="#000000"> &#160;Bootstrap</text>
<polygon fill="#fdb462" stroke="transparent" points="310,-10 310,-30 330,-30 330,-10 310,-10"/>
<text text-anchor="start" x="333.6732" y="-15.4" font-family="sans-serif" font-size="14.00" fill="#000000"> &#160;Providers</text>
<polygon fill="#fb8072" stroke="transparent" points="406,-10 406,-30 426,-30 426,-10 406,-10"/>
<text text-anchor="start" x="429.7258" y="-15.4" font-family="sans-serif" font-size="14.00" fill="#000000"> &#160;Exports</text>
<g id="clust1" class="cluster">
<title>cluster_ContentModule</title>
<polygon fill="none" stroke="#000000" stroke-dasharray="1,5" points="28,-70 28,-268 468,-268 468,-70 28,-70"/>
</g>
<g id="clust2" class="cluster">
<title>cluster_ContentModule_declarations</title>
<polygon fill="none" stroke="#000000" points="318,-78 318,-130 460,-130 460,-78 318,-78"/>
</g>
<g id="clust4" class="cluster">
<title>cluster_ContentModule_imports</title>
<polygon fill="none" stroke="#000000" points="36,-78 36,-130 310,-130 310,-78 36,-78"/>
</g>
<g id="clust5" class="cluster">
<title>cluster_ContentModule_exports</title>
<polygon fill="none" stroke="#000000" points="172,-208 172,-260 318,-260 318,-208 172,-208"/>
</g>
<!-- ContentComponent -->
<g id="node1" class="node">
<title>ContentComponent</title>
<polygon fill="#ffffb3" stroke="#000000" points="451.6652,-122 326.3348,-122 326.3348,-86 451.6652,-86 451.6652,-122"/>
<text text-anchor="middle" x="389" y="-99.8" font-family="Times,serif" font-size="14.00" fill="#000000">ContentComponent</text>
</g>
<!-- ContentModule -->
<g id="node2" class="node">
<title>ContentModule</title>
<polygon fill="#8dd3c7" stroke="#000000" points="296.8823,-187 293.8823,-191 272.8823,-191 269.8823,-187 193.1177,-187 193.1177,-151 296.8823,-151 296.8823,-187"/>
<text text-anchor="middle" x="245" y="-164.8" font-family="Times,serif" font-size="14.00" fill="#000000">ContentModule</text>
</g>
<!-- ContentComponent&#45;&gt;ContentModule -->
<g id="edge1" class="edge">
<title>ContentComponent&#45;&gt;ContentModule</title>
<path fill="none" stroke="#000000" d="M389,-122.1061C389,-141.3391 389,-169 389,-169 389,-169 306.9873,-169 306.9873,-169"/>
<polygon fill="#000000" stroke="#000000" points="306.9873,-165.5001 296.9873,-169 306.9873,-172.5001 306.9873,-165.5001"/>
</g>
<!-- ContentComponent  -->
<g id="node5" class="node">
<title>ContentComponent </title>
<polygon fill="#fb8072" stroke="#000000" points="309.6649,-252 180.3351,-252 180.3351,-216 309.6649,-216 309.6649,-252"/>
<text text-anchor="middle" x="245" y="-229.8" font-family="Times,serif" font-size="14.00" fill="#000000">ContentComponent </text>
</g>
<!-- ContentModule&#45;&gt;ContentComponent  -->
<g id="edge4" class="edge">
<title>ContentModule&#45;&gt;ContentComponent </title>
<path fill="none" stroke="#000000" stroke-dasharray="5,2" d="M245,-187.1061C245,-187.1061 245,-205.991 245,-205.991"/>
<polygon fill="#000000" stroke="#000000" points="241.5001,-205.9909 245,-215.991 248.5001,-205.991 241.5001,-205.9909"/>
</g>
<!-- StageNavModule -->
<g id="node3" class="node">
<title>StageNavModule</title>
<polygon fill="#8dd3c7" stroke="#000000" points="301.9734,-122 298.9734,-126 277.9734,-126 274.9734,-122 188.0266,-122 188.0266,-86 301.9734,-86 301.9734,-122"/>
<text text-anchor="middle" x="245" y="-99.8" font-family="Times,serif" font-size="14.00" fill="#000000">StageNavModule</text>
</g>
<!-- StageNavModule&#45;&gt;ContentModule -->
<g id="edge2" class="edge">
<title>StageNavModule&#45;&gt;ContentModule</title>
<path fill="none" stroke="#000000" d="M245,-122.1061C245,-122.1061 245,-140.991 245,-140.991"/>
<polygon fill="#000000" stroke="#000000" points="241.5001,-140.9909 245,-150.991 248.5001,-140.991 241.5001,-140.9909"/>
</g>
<!-- StoreDebugModule -->
<g id="node4" class="node">
<title>StoreDebugModule</title>
<polygon fill="#8dd3c7" stroke="#000000" points="170.4201,-122 167.4201,-126 146.4201,-126 143.4201,-122 43.5799,-122 43.5799,-86 170.4201,-86 170.4201,-122"/>
<text text-anchor="middle" x="107" y="-99.8" font-family="Times,serif" font-size="14.00" fill="#000000">StoreDebugModule</text>
</g>
<!-- StoreDebugModule&#45;&gt;ContentModule -->
<g id="edge3" class="edge">
<title>StoreDebugModule&#45;&gt;ContentModule</title>
<path fill="none" stroke="#000000" d="M107,-122.1061C107,-141.3391 107,-169 107,-169 107,-169 182.8281,-169 182.8281,-169"/>
<polygon fill="#000000" stroke="#000000" points="182.8282,-172.5001 192.8281,-169 182.8281,-165.5001 182.8282,-172.5001"/>
</g>
</g>
</svg>
