<?xml version="1.0" encoding="UTF-8" standalone="no"?>
<!DOCTYPE svg PUBLIC "-//W3C//DTD SVG 1.1//EN"
 "http://www.w3.org/Graphics/SVG/1.1/DTD/svg11.dtd">
<!-- Generated by graphviz version 2.40.1 (20161225.0304)
 -->
<!-- Title: dependencies Pages: 1 -->
<svg width="969pt" height="284pt"
 viewBox="0.00 0.00 969.00 284.00" xmlns="http://www.w3.org/2000/svg" xmlns:xlink="http://www.w3.org/1999/xlink">
<g id="graph0" class="graph" transform="scale(1 1) rotate(0) translate(4 280)">
<title>dependencies</title>
<polygon fill="#ffffff" stroke="transparent" points="-4,4 -4,-280 965,-280 965,4 -4,4"/>
<text text-anchor="start" x="459.5091" y="-42.4" font-family="sans-serif" font-weight="bold" font-size="14.00" fill="#000000">Legend</text>
<polygon fill="#ffffb3" stroke="transparent" points="246.5,-10 246.5,-30 266.5,-30 266.5,-10 246.5,-10"/>
<text text-anchor="start" x="270.129" y="-15.4" font-family="sans-serif" font-size="14.00" fill="#000000"> &#160;Declarations</text>
<polygon fill="#8dd3c7" stroke="transparent" points="359.5,-10 359.5,-30 379.5,-30 379.5,-10 359.5,-10"/>
<text text-anchor="start" x="383.2251" y="-15.4" font-family="sans-serif" font-size="14.00" fill="#000000"> &#160;Module</text>
<polygon fill="#80b1d3" stroke="transparent" points="445.5,-10 445.5,-30 465.5,-30 465.5,-10 445.5,-10"/>
<text text-anchor="start" x="469.2812" y="-15.4" font-family="sans-serif" font-size="14.00" fill="#000000"> &#160;Bootstrap</text>
<polygon fill="#fdb462" stroke="transparent" points="542.5,-10 542.5,-30 562.5,-30 562.5,-10 542.5,-10"/>
<text text-anchor="start" x="566.1732" y="-15.4" font-family="sans-serif" font-size="14.00" fill="#000000"> &#160;Providers</text>
<polygon fill="#fb8072" stroke="transparent" points="638.5,-10 638.5,-30 658.5,-30 658.5,-10 638.5,-10"/>
<text text-anchor="start" x="662.2258" y="-15.4" font-family="sans-serif" font-size="14.00" fill="#000000"> &#160;Exports</text>
<g id="clust1" class="cluster">
<title>cluster_ContentModule</title>
<polygon fill="none" stroke="#000000" stroke-dasharray="1,5" points="8,-70 8,-268 953,-268 953,-70 8,-70"/>
</g>
<g id="clust2" class="cluster">
<title>cluster_ContentModule_declarations</title>
<polygon fill="none" stroke="#000000" points="803,-78 803,-130 945,-130 945,-78 803,-78"/>
</g>
<g id="clust4" class="cluster">
<title>cluster_ContentModule_imports</title>
<polygon fill="none" stroke="#000000" points="16,-78 16,-130 795,-130 795,-78 16,-78"/>
</g>
<g id="clust5" class="cluster">
<title>cluster_ContentModule_exports</title>
<polygon fill="none" stroke="#000000" points="466,-208 466,-260 612,-260 612,-208 466,-208"/>
</g>
<!-- ContentComponent -->
<g id="node1" class="node">
<title>ContentComponent</title>
<polygon fill="#ffffb3" stroke="#000000" points="936.6652,-122 811.3348,-122 811.3348,-86 936.6652,-86 936.6652,-122"/>
<text text-anchor="middle" x="874" y="-99.8" font-family="Times,serif" font-size="14.00" fill="#000000">ContentComponent</text>
</g>
<!-- ContentModule -->
<g id="node2" class="node">
<title>ContentModule</title>
<polygon fill="#8dd3c7" stroke="#000000" points="590.8823,-187 587.8823,-191 566.8823,-191 563.8823,-187 487.1177,-187 487.1177,-151 590.8823,-151 590.8823,-187"/>
<text text-anchor="middle" x="539" y="-164.8" font-family="Times,serif" font-size="14.00" fill="#000000">ContentModule</text>
</g>
<!-- ContentComponent&#45;&gt;ContentModule -->
<g id="edge1" class="edge">
<title>ContentComponent&#45;&gt;ContentModule</title>
<path fill="none" stroke="#000000" d="M874,-122.2843C874,-143.3211 874,-175 874,-175 874,-175 600.9762,-175 600.9762,-175"/>
<polygon fill="#000000" stroke="#000000" points="600.9762,-171.5001 590.9762,-175 600.9762,-178.5001 600.9762,-171.5001"/>
</g>
<!-- ContentComponent  -->
<g id="node8" class="node">
<title>ContentComponent </title>
<polygon fill="#fb8072" stroke="#000000" points="603.6649,-252 474.3351,-252 474.3351,-216 603.6649,-216 603.6649,-252"/>
<text text-anchor="middle" x="539" y="-229.8" font-family="Times,serif" font-size="14.00" fill="#000000">ContentComponent </text>
</g>
<!-- ContentModule&#45;&gt;ContentComponent  -->
<g id="edge7" class="edge">
<title>ContentModule&#45;&gt;ContentComponent </title>
<path fill="none" stroke="#000000" stroke-dasharray="5,2" d="M539,-187.1061C539,-187.1061 539,-205.991 539,-205.991"/>
<polygon fill="#000000" stroke="#000000" points="535.5001,-205.9909 539,-215.991 542.5001,-205.991 535.5001,-205.9909"/>
</g>
<!-- BodyUiModule -->
<g id="node3" class="node">
<title>BodyUiModule</title>
<polygon fill="#8dd3c7" stroke="#000000" points="786.8837,-122 783.8837,-126 762.8837,-126 759.8837,-122 683.1163,-122 683.1163,-86 786.8837,-86 786.8837,-122"/>
<text text-anchor="middle" x="735" y="-99.8" font-family="Times,serif" font-size="14.00" fill="#000000">BodyUiModule</text>
</g>
<!-- BodyUiModule&#45;&gt;ContentModule -->
<g id="edge2" class="edge">
<title>BodyUiModule&#45;&gt;ContentModule</title>
<path fill="none" stroke="#000000" d="M735,-122.0225C735,-139.3734 735,-163 735,-163 735,-163 601.0098,-163 601.0098,-163"/>
<polygon fill="#000000" stroke="#000000" points="601.0099,-159.5001 591.0098,-163 601.0098,-166.5001 601.0099,-159.5001"/>
</g>
<!-- StageNavModule -->
<g id="node4" class="node">
<title>StageNavModule</title>
<polygon fill="#8dd3c7" stroke="#000000" points="664.9734,-122 661.9734,-126 640.9734,-126 637.9734,-122 551.0266,-122 551.0266,-86 664.9734,-86 664.9734,-122"/>
<text text-anchor="middle" x="608" y="-99.8" font-family="Times,serif" font-size="14.00" fill="#000000">StageNavModule</text>
</g>
<!-- StageNavModule&#45;&gt;ContentModule -->
<g id="edge3" class="edge">
<title>StageNavModule&#45;&gt;ContentModule</title>
<path fill="none" stroke="#000000" d="M570.9772,-122.1061C570.9772,-122.1061 570.9772,-140.991 570.9772,-140.991"/>
<polygon fill="#000000" stroke="#000000" points="567.4773,-140.9909 570.9772,-150.991 574.4773,-140.991 567.4773,-140.9909"/>
</g>
<!-- StoreDebugModule -->
<g id="node5" class="node">
<title>StoreDebugModule</title>
<polygon fill="#8dd3c7" stroke="#000000" points="533.4201,-122 530.4201,-126 509.4201,-126 506.4201,-122 406.5799,-122 406.5799,-86 533.4201,-86 533.4201,-122"/>
<text text-anchor="middle" x="470" y="-99.8" font-family="Times,serif" font-size="14.00" fill="#000000">StoreDebugModule</text>
</g>
<!-- StoreDebugModule&#45;&gt;ContentModule -->
<g id="edge4" class="edge">
<title>StoreDebugModule&#45;&gt;ContentModule</title>
<path fill="none" stroke="#000000" d="M510.1343,-122.1061C510.1343,-122.1061 510.1343,-140.991 510.1343,-140.991"/>
<polygon fill="#000000" stroke="#000000" points="506.6344,-140.9909 510.1343,-150.991 513.6344,-140.991 506.6344,-140.9909"/>
</g>
<!-- ToggleableTooltipModule -->
<g id="node6" class="node">
<title>ToggleableTooltipModule</title>
<polygon fill="#8dd3c7" stroke="#000000" points="388.752,-122 385.752,-126 364.752,-126 361.752,-122 225.248,-122 225.248,-86 388.752,-86 388.752,-122"/>
<text text-anchor="middle" x="307" y="-99.8" font-family="Times,serif" font-size="14.00" fill="#000000">ToggleableTooltipModule</text>
</g>
<!-- ToggleableTooltipModule&#45;&gt;ContentModule -->
<g id="edge5" class="edge">
<title>ToggleableTooltipModule&#45;&gt;ContentModule</title>
<path fill="none" stroke="#000000" d="M307,-122.0225C307,-139.3734 307,-163 307,-163 307,-163 476.9347,-163 476.9347,-163"/>
<polygon fill="#000000" stroke="#000000" points="476.9347,-166.5001 486.9347,-163 476.9346,-159.5001 476.9347,-166.5001"/>
</g>
<!-- VideoModalLauncherModule -->
<g id="node7" class="node">
<title>VideoModalLauncherModule</title>
<polygon fill="#8dd3c7" stroke="#000000" points="207.6685,-122 204.6685,-126 183.6685,-126 180.6685,-122 24.3315,-122 24.3315,-86 207.6685,-86 207.6685,-122"/>
<text text-anchor="middle" x="116" y="-99.8" font-family="Times,serif" font-size="14.00" fill="#000000">VideoModalLauncherModule</text>
</g>
<!-- VideoModalLauncherModule&#45;&gt;ContentModule -->
<g id="edge6" class="edge">
<title>VideoModalLauncherModule&#45;&gt;ContentModule</title>
<path fill="none" stroke="#000000" d="M116,-122.2843C116,-143.3211 116,-175 116,-175 116,-175 476.7076,-175 476.7076,-175"/>
<polygon fill="#000000" stroke="#000000" points="476.7077,-178.5001 486.7076,-175 476.7076,-171.5001 476.7077,-178.5001"/>
</g>
</g>
</svg>
