<?xml version="1.0" encoding="UTF-8" standalone="no"?>
<!DOCTYPE svg PUBLIC "-//W3C//DTD SVG 1.1//EN"
 "http://www.w3.org/Graphics/SVG/1.1/DTD/svg11.dtd">
<!-- Generated by graphviz version 2.47.3 (20210619.1520)
 -->
<!-- Title: dependencies Pages: 1 -->
<svg width="788pt" height="247pt"
 viewBox="0.00 0.00 788.00 246.80" xmlns="http://www.w3.org/2000/svg" xmlns:xlink="http://www.w3.org/1999/xlink">
<g id="graph0" class="graph" transform="scale(1 1) rotate(0) translate(4 242.8)">
<title>dependencies</title>
<polygon fill="white" stroke="transparent" points="-4,4 -4,-242.8 784,-242.8 784,4 -4,4"/>
<text text-anchor="middle" x="390" y="-8.2" font-family="sans-serif" font-size="14.00">dependencies</text>
<g id="clust1" class="cluster">
<title>cluster_ContentModule</title>
<polygon fill="none" stroke="black" stroke-dasharray="1,5" points="8,-32.8 8,-230.8 772,-230.8 772,-32.8 8,-32.8"/>
</g>
<g id="clust2" class="cluster">
<title>cluster_ContentModule_declarations</title>
<polygon fill="none" stroke="black" points="622,-40.8 622,-92.8 764,-92.8 764,-40.8 622,-40.8"/>
</g>
<g id="clust4" class="cluster">
<title>cluster_ContentModule_imports</title>
<polygon fill="none" stroke="black" points="16,-40.8 16,-92.8 614,-92.8 614,-40.8 16,-40.8"/>
</g>
<g id="clust5" class="cluster">
<title>cluster_ContentModule_exports</title>
<polygon fill="none" stroke="black" points="354,-170.8 354,-222.8 500,-222.8 500,-170.8 354,-170.8"/>
</g>
<!-- ContentComponent -->
<g id="node1" class="node">
<title>ContentComponent</title>
<polygon fill="#ffffb3" stroke="black" points="755.67,-84.8 630.33,-84.8 630.33,-48.8 755.67,-48.8 755.67,-84.8"/>
<text text-anchor="middle" x="693" y="-62.6" font-family="Times,serif" font-size="14.00">ContentComponent</text>
</g>
<!-- ContentModule -->
<g id="node2" class="node">
<title>ContentModule</title>
<polygon fill="#8dd3c7" stroke="black" points="478.88,-149.8 475.88,-153.8 454.88,-153.8 451.88,-149.8 375.12,-149.8 375.12,-113.8 478.88,-113.8 478.88,-149.8"/>
<text text-anchor="middle" x="427" y="-127.6" font-family="Times,serif" font-size="14.00">ContentModule</text>
</g>
<!-- ContentComponent&#45;&gt;ContentModule -->
<g id="edge1" class="edge">
<title>ContentComponent&#45;&gt;ContentModule</title>
<path fill="none" stroke="black" d="M693,-85.08C693,-106.12 693,-137.8 693,-137.8 693,-137.8 488.92,-137.8 488.92,-137.8"/>
<polygon fill="black" stroke="black" points="488.92,-134.3 478.92,-137.8 488.92,-141.3 488.92,-134.3"/>
</g>
<!-- ContentComponent  -->
<g id="node7" class="node">
<title>ContentComponent </title>
<polygon fill="#fb8072" stroke="black" points="491.66,-214.8 362.34,-214.8 362.34,-178.8 491.66,-178.8 491.66,-214.8"/>
<text text-anchor="middle" x="427" y="-192.6" font-family="Times,serif" font-size="14.00">ContentComponent </text>
</g>
<!-- ContentModule&#45;&gt;ContentComponent  -->
<g id="edge6" class="edge">
<title>ContentModule&#45;&gt;ContentComponent </title>
<path fill="none" stroke="black" stroke-dasharray="5,2" d="M427,-149.91C427,-149.91 427,-168.79 427,-168.79"/>
<polygon fill="black" stroke="black" points="423.5,-168.79 427,-178.79 430.5,-168.79 423.5,-168.79"/>
</g>
<!-- BodyUiModule -->
<g id="node3" class="node">
<title>BodyUiModule</title>
<polygon fill="#8dd3c7" stroke="black" points="605.88,-84.8 602.88,-88.8 581.88,-88.8 578.88,-84.8 502.12,-84.8 502.12,-48.8 605.88,-48.8 605.88,-84.8"/>
<text text-anchor="middle" x="554" y="-62.6" font-family="Times,serif" font-size="14.00">BodyUiModule</text>
</g>
<!-- BodyUiModule&#45;&gt;ContentModule -->
<g id="edge2" class="edge">
<title>BodyUiModule&#45;&gt;ContentModule</title>
<path fill="none" stroke="black" d="M554,-84.82C554,-102.17 554,-125.8 554,-125.8 554,-125.8 489.02,-125.8 489.02,-125.8"/>
<polygon fill="black" stroke="black" points="489.02,-122.3 479.02,-125.8 489.02,-129.3 489.02,-122.3"/>
</g>
<!-- StageNavModule -->
<g id="node4" class="node">
<title>StageNavModule</title>
<polygon fill="#8dd3c7" stroke="black" points="483.97,-84.8 480.97,-88.8 459.97,-88.8 456.97,-84.8 370.03,-84.8 370.03,-48.8 483.97,-48.8 483.97,-84.8"/>
<text text-anchor="middle" x="427" y="-62.6" font-family="Times,serif" font-size="14.00">StageNavModule</text>
</g>
<!-- StageNavModule&#45;&gt;ContentModule -->
<g id="edge3" class="edge">
<title>StageNavModule&#45;&gt;ContentModule</title>
<path fill="none" stroke="black" d="M427,-84.91C427,-84.91 427,-103.79 427,-103.79"/>
<polygon fill="black" stroke="black" points="423.5,-103.79 427,-113.79 430.5,-103.79 423.5,-103.79"/>
</g>
<!-- StoreDebugModule -->
<g id="node5" class="node">
<title>StoreDebugModule</title>
<polygon fill="#8dd3c7" stroke="black" points="352.42,-84.8 349.42,-88.8 328.42,-88.8 325.42,-84.8 225.58,-84.8 225.58,-48.8 352.42,-48.8 352.42,-84.8"/>
<text text-anchor="middle" x="289" y="-62.6" font-family="Times,serif" font-size="14.00">StoreDebugModule</text>
</g>
<!-- StoreDebugModule&#45;&gt;ContentModule -->
<g id="edge4" class="edge">
<title>StoreDebugModule&#45;&gt;ContentModule</title>
<path fill="none" stroke="black" d="M289,-84.82C289,-102.17 289,-125.8 289,-125.8 289,-125.8 364.83,-125.8 364.83,-125.8"/>
<polygon fill="black" stroke="black" points="364.83,-129.3 374.83,-125.8 364.83,-122.3 364.83,-129.3"/>
</g>
<!-- VideoModalLauncherModule -->
<g id="node6" class="node">
<title>VideoModalLauncherModule</title>
<polygon fill="#8dd3c7" stroke="black" points="207.67,-84.8 204.67,-88.8 183.67,-88.8 180.67,-84.8 24.33,-84.8 24.33,-48.8 207.67,-48.8 207.67,-84.8"/>
<text text-anchor="middle" x="116" y="-62.6" font-family="Times,serif" font-size="14.00">VideoModalLauncherModule</text>
</g>
<!-- VideoModalLauncherModule&#45;&gt;ContentModule -->
<g id="edge5" class="edge">
<title>VideoModalLauncherModule&#45;&gt;ContentModule</title>
<path fill="none" stroke="black" d="M116,-85.08C116,-106.12 116,-137.8 116,-137.8 116,-137.8 364.95,-137.8 364.95,-137.8"/>
<polygon fill="black" stroke="black" points="364.95,-141.3 374.95,-137.8 364.95,-134.3 364.95,-141.3"/>
</g>
</g>
</svg>
