<svg id="Layer_1" data-name="Layer 1" xmlns="http://www.w3.org/2000/svg" viewBox="0 0 169.24 30.44">
    <path d="M25.21 31H19V18.16H7V31H.76V1H7v12.17h12V1h6.19zM43.58 28.76a7 7 0 0 1-2.55 2 8.33 8.33 0 0 1-3.55.7 9.23 9.23 0 0 1-3-.46 5.92 5.92 0 0 1-2.34-1.46 6.69 6.69 0 0 1-1.52-2.58 11.77 11.77 0 0 1-.54-3.79V8.71h6v14.48a4.67 4.67 0 0 0 .24 1.59 2.67 2.67 0 0 0 .66 1.06 2.53 2.53 0 0 0 1 .59 4 4 0 0 0 1.28.19 5.41 5.41 0 0 0 2.62-.56 3.85 3.85 0 0 0 1.55-1.55V8.71h6V31h-5.68zM54.25 31V1h10.52a20.17 20.17 0 0 1 4.68.5A10 10 0 0 1 72.94 3a6.69 6.69 0 0 1 2.19 2.57 8.29 8.29 0 0 1 .75 3.65 7.57 7.57 0 0 1-.25 2 6.7 6.7 0 0 1-.79 1.78 6.46 6.46 0 0 1-1.33 1.5 6.61 6.61 0 0 1-1.92 1.1 6.69 6.69 0 0 1 2.26 1 6.21 6.21 0 0 1 2.44 3.49 8.4 8.4 0 0 1 .27 2.13c0 2.92-.93 5.12-2.81 6.6S69.2 31 65.74 31zm6.19-17.45H65a5.6 5.6 0 0 0 3.53-1 3.35 3.35 0 0 0 1.17-2.7 3.46 3.46 0 0 0-1.19-2.94A6.22 6.22 0 0 0 64.77 6h-4.33zm0 4.37v8.11h5.3a6.35 6.35 0 0 0 2.06-.3 4 4 0 0 0 1.44-.82 3.31 3.31 0 0 0 .86-1.24 4.37 4.37 0 0 0 .28-1.56 5.85 5.85 0 0 0-.25-1.74 3.34 3.34 0 0 0-.77-1.32 3.39 3.39 0 0 0-1.36-.81 6.3 6.3 0 0 0-2-.24zM89.29 1L97 22.78 104.68 1h8.12v30h-6.2v-8.18l.61-14.17L99.11 31h-4.25L86.77 8.67l.62 14.15V31h-6.18V1zM135.53 24.84h-10.85L122.62 31H116l11.22-30H133l11.2 30h-6.58zm-9.17-5h7.5l-3.77-11.25zM153.19 20.45V31H147V1h11.72a14.27 14.27 0 0 1 4.75.74A10.28 10.28 0 0 1 167 3.82 8.76 8.76 0 0 1 169.24 7a10.18 10.18 0 0 1 .76 4 9.75 9.75 0 0 1-.76 3.94 8.11 8.11 0 0 1-2.22 3 10.15 10.15 0 0 1-3.55 1.91 15.44 15.44 0 0 1-4.75.67zm0-5h5.53a7 7 0 0 0 2.28-.33 4.11 4.11 0 0 0 1.56-.92 3.49 3.49 0 0 0 .9-1.41 5.48 5.48 0 0 0 .29-1.8 6.08 6.08 0 0 0-.29-1.86A4.31 4.31 0 0 0 161 6.42a5.84 5.84 0 0 0-2.28-.42h-5.53z" transform="translate(-.76 -1)"/>
</svg>
