<svg xmlns="http://www.w3.org/2000/svg" viewBox="0 0 800.18 601.13"><defs><style>.cls-1{opacity:0.2;}.cls-2{fill:#2f3346;}.cls-3{fill:#fff;}.cls-4{opacity:0.49;}</style></defs><g id="body_white_copy_2" data-name="body white copy 2"><rect id="_2f3346" data-name="2f3346" class="cls-2" y="0.57" width="800" height="600"/><g id="regions_copy_4" data-name="regions copy 4" class="cls-1"><g id="orange_copy_4" data-name="orange copy 4"><path class="cls-3" d="M327.6,0c-5.82,46.74,8.57,58.76,13.12,92.44,4.78,35.39-27,116.69-5.74,155s50.69,103.29,155.9,103.29,153-110,153-110S733.81,125,754.85,52.28c4-13.77,5.71-31.76,5.95-52.28C760.8,0,327.9-2.36,327.6,0Z" transform="translate(0.18 1.05)"/><path class="cls-3" d="M800,81.85C756.22,114,651.6,204.41,641,340.16c-8.79,113,89.69,164.19,159,186Z" transform="translate(0.18 1.05)"/><path class="cls-3" d="M30.83-1C97,144.67,217.42,364.27,263.25,301c64.33-88.9,32.05-116.69,41.37-175,5.91-37,4.62-87.39-8.32-125.69Z" transform="translate(0.18 1.05)"/><path class="cls-3" d="M0,403c52.79-4.27,119.77-36.06,134.14-81C152.37,264.9,39.47,119.72.33,71.75Z" transform="translate(0.18 1.05)"/></g><g id="blue_copy_6" data-name="blue copy 6"><path class="cls-3" d="M599.26,600.06C575,594,549.45,585.75,522.12,571.61,449.44,534,420.07,454.21,298.29,424.24,198.85,399.78,70.1,443-.18,474.54L0,457.91c40.12-28.39,106.36-64.7,170.16-73.76,127.49-18.1,329-10.2,420.83,46.55,38.29,23.67,100.22,92.38,160,169.39Z" transform="translate(0.18 1.05)"/><path class="cls-3" d="M158.63,600H.19l-.37-81.79c65.64-14.94,171.67-32,234.74-5.26,40.91,17.34,75.11,51.72,105.15,87.13Z" transform="translate(0.18 1.05)"/></g></g><g id="dots_copy_4" data-name="dots copy 4" class="cls-1"><g id="magenta_copy_4" data-name="magenta copy 4"><circle class="cls-3" cx="357.94" cy="475.52" r="15.97"/><circle class="cls-3" cx="435.8" cy="438.22" r="15.97"/><circle class="cls-3" cx="487.45" cy="422.25" r="15.97"/><circle class="cls-3" cx="467.73" cy="485.55" r="15.97"/><circle class="cls-3" cx="357.94" cy="549.13" r="15.97"/><path class="cls-3" d="M457.67,600a16,16,0,0,1,27.27,0Z" transform="translate(0.18 1.05)"/><circle class="cls-3" cx="108.53" cy="541.71" r="15.97"/><circle class="cls-3" cx="258.21" cy="478.58" r="15.97"/><circle class="cls-3" cx="341.98" cy="330.63" r="15.97"/><circle class="cls-3" cx="432.25" cy="357.79" r="15.97"/><circle class="cls-3" cx="319.4" cy="254.61" r="15.97"/><circle class="cls-3" cx="205.9" cy="363.65" r="15.97"/><circle class="cls-3" cx="47.52" cy="406.28" r="15.97"/><circle class="cls-3" cx="40.88" cy="549.13" r="15.97"/><path class="cls-3" d="M18.54,600a16,16,0,0,1,15.94-15.15,15.73,15.73,0,0,1,16,15.15Z" transform="translate(0.18 1.05)"/><path class="cls-3" d="M126.05,600c-3.31-13.19-2-25.64,4.85-35.29C148,540.54,193,543,231.47,570.24A126,126,0,0,1,261.63,600Z" transform="translate(0.18 1.05)"/><ellipse class="cls-3" cx="573.06" cy="498.17" rx="53.56" ry="85.31" transform="matrix(0.58, -0.82, 0.82, 0.58, -164.43, 679.26)"/><path class="cls-3" d="M800,391.15a48.76,48.76,0,0,1,0-97.25Z" transform="translate(0.18 1.05)"/><circle class="cls-3" cx="513.69" cy="89.03" r="39.21"/><circle class="cls-3" cx="214.9" cy="108.4" r="27.34"/></g><g id="green_copy_6-2" data-name="green copy 6"><circle class="cls-3" cx="29.91" cy="40.1" r="19.85"/><circle class="cls-3" cx="56.84" cy="111.19" r="19.85"/><circle class="cls-3" cx="143.64" cy="40.1" r="19.85"/><circle class="cls-3" cx="149.63" cy="131.03" r="19.85"/><circle class="cls-3" cx="266.31" cy="150.88" r="19.85"/><circle class="cls-3" cx="324.78" cy="93.51" r="19.85"/><circle class="cls-3" cx="424.25" cy="61.21" r="19.85"/><circle class="cls-3" cx="506.5" cy="163.55" r="19.85"/><circle class="cls-3" cx="416.25" cy="241.42" r="19.85"/><circle class="cls-3" cx="533.26" cy="267.6" r="19.85"/><circle class="cls-3" cx="667.43" cy="40.1" r="19.85"/><circle class="cls-3" cx="773.92" cy="229.3" r="19.85"/><circle class="cls-3" cx="703.31" cy="352.13" r="19.85"/><path class="cls-3" d="M790.63,484.28A19.85,19.85,0,1,1,800,447.74v33.47A19.77,19.77,0,0,1,790.63,484.28Z" transform="translate(0.18 1.05)"/><circle class="cls-3" cx="594.39" cy="388.01" r="19.85"/><circle class="cls-3" cx="660.7" cy="574.79" r="19.85"/><circle class="cls-3" cx="712.54" cy="525.74" r="19.85"/><path class="cls-3" d="M800,600.09H779a20.31,20.31,0,0,1-.91-4.79,19.85,19.85,0,0,1,18.5-21.11,20.6,20.6,0,0,1,3.43.07Z" transform="translate(0.18 1.05)"/><circle class="cls-3" cx="692.69" cy="191.05" r="19.85"/><path class="cls-3" d="M800,174.65A19.85,19.85,0,0,1,800,135Z" transform="translate(0.18 1.05)"/><circle class="cls-3" cx="64.19" cy="197.05" r="19.85"/><circle class="cls-3" cx="47.52" cy="245.85" r="19.85"/><path class="cls-3" d="M15.19,360.37A19.77,19.77,0,0,1,.05,354.8l0-28.41a19.84,19.84,0,1,1,15.19,34Z" transform="translate(0.18 1.05)"/><circle class="cls-3" cx="246.47" cy="238.33" r="19.85"/><circle class="cls-3" cx="173.78" cy="304.32" r="19.85"/></g></g></g><g id="_10x" data-name="10x"><path class="cls-3" d="M313.64,232V355.63H287.56V264h-1.14q-2,3.09-8.46,6.13t-16.72,3.05V252.4a26.86,26.86,0,0,0,13.95-3.53,29.71,29.71,0,0,0,9.36-8.33q3.38-4.8,3.5-8.54Z" transform="translate(0.18 1.05)"/><path class="cls-3" d="M391.52,358.35q-15.57-.06-26.77-7.67t-17.21-22q-6-14.43-6-34.71.06-30.37,13.38-47t36.55-16.63q15.51,0,26.71,7.48t17.24,21.71q6,14.21,6,34.44-.06,30.54-13.34,47.48T391.52,358.35Zm0-21.67q10.62,0,17-10.69t6.28-32.05q0-21.07-6.34-31.64t-16.9-10.56q-10.56,0-16.9,10.56t-6.4,31.64q-.06,21.36,6.31,32.05T391.52,336.68Z" transform="translate(0.18 1.05)"/><path class="cls-3" d="M481.77,262.91l17,32.42,17.45-32.42h26.38l-26.86,46.36,27.59,46.36H517.09l-18.3-32.05-18,32.05H454.24l27.53-46.36-26.56-46.36Z" transform="translate(0.18 1.05)"/></g></svg>