<svg data-name="Layer 4" xmlns="http://www.w3.org/2000/svg" viewBox="0 0 24 24">
    <path fill="none" d="M0 0h24v24H0z"/>
    <circle data-name="Ellipse 708" cx="11.76" cy="3.67" r="1.67"/>
    <path d="M15.91 8.86a3.11 3.11 0 0 0-3.11-3h-2.71A2.48 2.48 0 0 0 7.6 8.38v.21a.57.57 0 0 0 0 .18.86.86 0 0 0 0 .17v5a.83.83 0 0 0 .83.83.83.83 0 0 0 .83-.83V9.22h.56v11.93a.84.84 0 0 0 .83.84.84.84 0 0 0 .83-.84v-6.94H12v6.94a.84.84 0 0 0 .83.84.84.84 0 0 0 .83-.84V9.22h.56v4.72a.83.83 0 0 0 .83.83.83.83 0 0 0 .83-.83v-5s.03-.05.03-.08z"/>
</svg>
