<svg id="Layer_4" data-name="Layer 4" xmlns="http://www.w3.org/2000/svg" viewBox="0 0 24 24"><defs><style>.cls-1{fill:none;}</style></defs><title>body</title><rect class="cls-1" width="24" height="24"/><circle id="Ellipse_708" data-name="Ellipse 708" cx="11.76" cy="3.67" r="1.67"/><path d="M15.91,8.86a3.11,3.11,0,0,0-3.11-3H10.09A2.48,2.48,0,0,0,7.6,8.38v.21a.57.57,0,0,0,0,.18.86.86,0,0,0,0,.17v5a.83.83,0,0,0,.83.83h0a.83.83,0,0,0,.83-.83V9.22h.56V21.15a.84.84,0,0,0,.83.84h0a.84.84,0,0,0,.83-.84V14.21H12v6.94a.84.84,0,0,0,.83.84h0a.84.84,0,0,0,.83-.84V9.22h.56v4.72a.83.83,0,0,0,.83.83h0a.83.83,0,0,0,.83-.83v-5S15.91,8.89,15.91,8.86Z"/></svg>