<?xml version="1.0" encoding="UTF-8" standalone="no"?>
<!DOCTYPE svg PUBLIC "-//W3C//DTD SVG 1.1//EN"
 "http://www.w3.org/Graphics/SVG/1.1/DTD/svg11.dtd">
<!-- Generated by graphviz version 2.40.1 (20161225.0304)
 -->
<!-- Title: dependencies Pages: 1 -->
<svg width="504pt" height="284pt"
 viewBox="0.00 0.00 504.00 284.00" xmlns="http://www.w3.org/2000/svg" xmlns:xlink="http://www.w3.org/1999/xlink">
<g id="graph0" class="graph" transform="scale(1 1) rotate(0) translate(4 280)">
<title>dependencies</title>
<polygon fill="#ffffff" stroke="transparent" points="-4,4 -4,-280 500,-280 500,4 -4,4"/>
<text text-anchor="start" x="227.0091" y="-42.4" font-family="sans-serif" font-weight="bold" font-size="14.00" fill="#000000">Legend</text>
<polygon fill="#ffffb3" stroke="transparent" points="14,-10 14,-30 34,-30 34,-10 14,-10"/>
<text text-anchor="start" x="37.629" y="-15.4" font-family="sans-serif" font-size="14.00" fill="#000000"> &#160;Declarations</text>
<polygon fill="#8dd3c7" stroke="transparent" points="127,-10 127,-30 147,-30 147,-10 127,-10"/>
<text text-anchor="start" x="150.7251" y="-15.4" font-family="sans-serif" font-size="14.00" fill="#000000"> &#160;Module</text>
<polygon fill="#80b1d3" stroke="transparent" points="213,-10 213,-30 233,-30 233,-10 213,-10"/>
<text text-anchor="start" x="236.7812" y="-15.4" font-family="sans-serif" font-size="14.00" fill="#000000"> &#160;Bootstrap</text>
<polygon fill="#fdb462" stroke="transparent" points="310,-10 310,-30 330,-30 330,-10 310,-10"/>
<text text-anchor="start" x="333.6732" y="-15.4" font-family="sans-serif" font-size="14.00" fill="#000000"> &#160;Providers</text>
<polygon fill="#fb8072" stroke="transparent" points="406,-10 406,-30 426,-30 426,-10 406,-10"/>
<text text-anchor="start" x="429.7258" y="-15.4" font-family="sans-serif" font-size="14.00" fill="#000000"> &#160;Exports</text>
<g id="clust1" class="cluster">
<title>cluster_ImageViewerContentModule</title>
<polygon fill="none" stroke="#000000" stroke-dasharray="1,5" points="22,-70 22,-268 474,-268 474,-70 22,-70"/>
</g>
<g id="clust2" class="cluster">
<title>cluster_ImageViewerContentModule_declarations</title>
<polygon fill="none" stroke="#000000" points="248,-78 248,-130 466,-130 466,-78 248,-78"/>
</g>
<g id="clust4" class="cluster">
<title>cluster_ImageViewerContentModule_imports</title>
<polygon fill="none" stroke="#000000" points="30,-78 30,-130 240,-130 240,-78 30,-78"/>
</g>
<g id="clust5" class="cluster">
<title>cluster_ImageViewerContentModule_exports</title>
<polygon fill="none" stroke="#000000" points="137,-208 137,-260 359,-260 359,-208 137,-208"/>
</g>
<!-- ImageViewerContentComponent -->
<g id="node1" class="node">
<title>ImageViewerContentComponent</title>
<polygon fill="#ffffb3" stroke="#000000" points="457.8389,-122 256.1611,-122 256.1611,-86 457.8389,-86 457.8389,-122"/>
<text text-anchor="middle" x="357" y="-99.8" font-family="Times,serif" font-size="14.00" fill="#000000">ImageViewerContentComponent</text>
</g>
<!-- ImageViewerContentModule -->
<g id="node2" class="node">
<title>ImageViewerContentModule</title>
<polygon fill="#8dd3c7" stroke="#000000" points="338.0562,-187 335.0562,-191 314.0562,-191 311.0562,-187 157.9438,-187 157.9438,-151 338.0562,-151 338.0562,-187"/>
<text text-anchor="middle" x="248" y="-164.8" font-family="Times,serif" font-size="14.00" fill="#000000">ImageViewerContentModule</text>
</g>
<!-- ImageViewerContentComponent&#45;&gt;ImageViewerContentModule -->
<g id="edge1" class="edge">
<title>ImageViewerContentComponent&#45;&gt;ImageViewerContentModule</title>
<path fill="none" stroke="#000000" d="M297.0544,-122.1061C297.0544,-122.1061 297.0544,-140.991 297.0544,-140.991"/>
<polygon fill="#000000" stroke="#000000" points="293.5544,-140.9909 297.0544,-150.991 300.5544,-140.991 293.5544,-140.9909"/>
</g>
<!-- ImageViewerContentComponent  -->
<g id="node4" class="node">
<title>ImageViewerContentComponent </title>
<polygon fill="#fb8072" stroke="#000000" points="350.8391,-252 145.1609,-252 145.1609,-216 350.8391,-216 350.8391,-252"/>
<text text-anchor="middle" x="248" y="-229.8" font-family="Times,serif" font-size="14.00" fill="#000000">ImageViewerContentComponent </text>
</g>
<!-- ImageViewerContentModule&#45;&gt;ImageViewerContentComponent  -->
<g id="edge3" class="edge">
<title>ImageViewerContentModule&#45;&gt;ImageViewerContentComponent </title>
<path fill="none" stroke="#000000" stroke-dasharray="5,2" d="M248,-187.1061C248,-187.1061 248,-205.991 248,-205.991"/>
<polygon fill="#000000" stroke="#000000" points="244.5001,-205.9909 248,-215.991 251.5001,-205.991 244.5001,-205.9909"/>
</g>
<!-- ImageViewerAccordionModule -->
<g id="node3" class="node">
<title>ImageViewerAccordionModule</title>
<polygon fill="#8dd3c7" stroke="#000000" points="232.3109,-122 229.3109,-126 208.3109,-126 205.3109,-122 37.6891,-122 37.6891,-86 232.3109,-86 232.3109,-122"/>
<text text-anchor="middle" x="135" y="-99.8" font-family="Times,serif" font-size="14.00" fill="#000000">ImageViewerAccordionModule</text>
</g>
<!-- ImageViewerAccordionModule&#45;&gt;ImageViewerContentModule -->
<g id="edge2" class="edge">
<title>ImageViewerAccordionModule&#45;&gt;ImageViewerContentModule</title>
<path fill="none" stroke="#000000" d="M195.1887,-122.1061C195.1887,-122.1061 195.1887,-140.991 195.1887,-140.991"/>
<polygon fill="#000000" stroke="#000000" points="191.6887,-140.9909 195.1887,-150.991 198.6887,-140.991 191.6887,-140.9909"/>
</g>
</g>
</svg>
