<?xml version="1.0" encoding="UTF-8" standalone="no"?>
<!DOCTYPE svg PUBLIC "-//W3C//DTD SVG 1.1//EN"
 "http://www.w3.org/Graphics/SVG/1.1/DTD/svg11.dtd">
<!-- Generated by graphviz version 2.40.1 (20161225.0304)
 -->
<!-- Title: dependencies Pages: 1 -->
<svg width="898pt" height="211pt"
 viewBox="0.00 0.00 898.00 211.00" xmlns="http://www.w3.org/2000/svg" xmlns:xlink="http://www.w3.org/1999/xlink">
<g id="graph0" class="graph" transform="scale(1 1) rotate(0) translate(4 207)">
<title>dependencies</title>
<polygon fill="#ffffff" stroke="transparent" points="-4,4 -4,-207 894,-207 894,4 -4,4"/>
<text text-anchor="start" x="424.0091" y="-42.4" font-family="sans-serif" font-weight="bold" font-size="14.00" fill="#000000">Legend</text>
<polygon fill="#ffffb3" stroke="transparent" points="211,-10 211,-30 231,-30 231,-10 211,-10"/>
<text text-anchor="start" x="234.629" y="-15.4" font-family="sans-serif" font-size="14.00" fill="#000000"> &#160;Declarations</text>
<polygon fill="#8dd3c7" stroke="transparent" points="324,-10 324,-30 344,-30 344,-10 324,-10"/>
<text text-anchor="start" x="347.7251" y="-15.4" font-family="sans-serif" font-size="14.00" fill="#000000"> &#160;Module</text>
<polygon fill="#80b1d3" stroke="transparent" points="410,-10 410,-30 430,-30 430,-10 410,-10"/>
<text text-anchor="start" x="433.7812" y="-15.4" font-family="sans-serif" font-size="14.00" fill="#000000"> &#160;Bootstrap</text>
<polygon fill="#fdb462" stroke="transparent" points="507,-10 507,-30 527,-30 527,-10 507,-10"/>
<text text-anchor="start" x="530.6732" y="-15.4" font-family="sans-serif" font-size="14.00" fill="#000000"> &#160;Providers</text>
<polygon fill="#fb8072" stroke="transparent" points="603,-10 603,-30 623,-30 623,-10 603,-10"/>
<text text-anchor="start" x="626.7258" y="-15.4" font-family="sans-serif" font-size="14.00" fill="#000000"> &#160;Exports</text>
<g id="clust1" class="cluster">
<title>cluster_OrganModule</title>
<polygon fill="none" stroke="#000000" stroke-dasharray="1,5" points="8,-70 8,-195 882,-195 882,-70 8,-70"/>
</g>
<g id="clust2" class="cluster">
<title>cluster_OrganModule_declarations</title>
<polygon fill="none" stroke="#000000" points="742,-78 742,-130 874,-130 874,-78 742,-78"/>
</g>
<g id="clust4" class="cluster">
<title>cluster_OrganModule_imports</title>
<polygon fill="none" stroke="#000000" points="204,-78 204,-130 734,-130 734,-78 204,-78"/>
</g>
<g id="clust7" class="cluster">
<title>cluster_OrganModule_providers</title>
<polygon fill="none" stroke="#000000" points="16,-78 16,-130 196,-130 196,-78 16,-78"/>
</g>
<!-- OrganComponent -->
<g id="node1" class="node">
<title>OrganComponent</title>
<polygon fill="#ffffb3" stroke="#000000" points="866.3146,-122 749.6854,-122 749.6854,-86 866.3146,-86 866.3146,-122"/>
<text text-anchor="middle" x="808" y="-99.8" font-family="Times,serif" font-size="14.00" fill="#000000">OrganComponent</text>
</g>
<!-- OrganModule -->
<g id="node2" class="node">
<title>OrganModule</title>
<polygon fill="#8dd3c7" stroke="#000000" points="535.0328,-187 532.0328,-191 511.0328,-191 508.0328,-187 440.9672,-187 440.9672,-151 535.0328,-151 535.0328,-187"/>
<text text-anchor="middle" x="488" y="-164.8" font-family="Times,serif" font-size="14.00" fill="#000000">OrganModule</text>
</g>
<!-- OrganComponent&#45;&gt;OrganModule -->
<g id="edge1" class="edge">
<title>OrganComponent&#45;&gt;OrganModule</title>
<path fill="none" stroke="#000000" d="M808,-122.2843C808,-143.3211 808,-175 808,-175 808,-175 545.2171,-175 545.2171,-175"/>
<polygon fill="#000000" stroke="#000000" points="545.2171,-171.5001 535.2171,-175 545.2171,-178.5001 545.2171,-171.5001"/>
</g>
<!-- CalloutModule -->
<g id="node3" class="node">
<title>CalloutModule</title>
<polygon fill="#8dd3c7" stroke="#000000" points="726.2731,-122 723.2731,-126 702.2731,-126 699.2731,-122 625.7269,-122 625.7269,-86 726.2731,-86 726.2731,-122"/>
<text text-anchor="middle" x="676" y="-99.8" font-family="Times,serif" font-size="14.00" fill="#000000">CalloutModule</text>
</g>
<!-- CalloutModule&#45;&gt;OrganModule -->
<g id="edge2" class="edge">
<title>CalloutModule&#45;&gt;OrganModule</title>
<path fill="none" stroke="#000000" d="M676,-122.0225C676,-139.3734 676,-163 676,-163 676,-163 545.4403,-163 545.4403,-163"/>
<polygon fill="#000000" stroke="#000000" points="545.4404,-159.5001 535.4403,-163 545.4403,-166.5001 545.4404,-159.5001"/>
</g>
<!-- MetadataModule -->
<g id="node4" class="node">
<title>MetadataModule</title>
<polygon fill="#8dd3c7" stroke="#000000" points="607.6346,-122 604.6346,-126 583.6346,-126 580.6346,-122 496.3654,-122 496.3654,-86 607.6346,-86 607.6346,-122"/>
<text text-anchor="middle" x="552" y="-99.8" font-family="Times,serif" font-size="14.00" fill="#000000">MetadataModule</text>
</g>
<!-- MetadataModule&#45;&gt;OrganModule -->
<g id="edge3" class="edge">
<title>MetadataModule&#45;&gt;OrganModule</title>
<path fill="none" stroke="#000000" d="M515.7244,-122.1061C515.7244,-122.1061 515.7244,-140.991 515.7244,-140.991"/>
<polygon fill="#000000" stroke="#000000" points="512.2245,-140.9909 515.7244,-150.991 519.2245,-140.991 512.2245,-140.9909"/>
</g>
<!-- Organ3dModule -->
<g id="node5" class="node">
<title>Organ3dModule</title>
<polygon fill="#8dd3c7" stroke="#000000" points="478.0326,-122 475.0326,-126 454.0326,-126 451.0326,-122 369.9674,-122 369.9674,-86 478.0326,-86 478.0326,-122"/>
<text text-anchor="middle" x="424" y="-99.8" font-family="Times,serif" font-size="14.00" fill="#000000">Organ3dModule</text>
</g>
<!-- Organ3dModule&#45;&gt;OrganModule -->
<g id="edge4" class="edge">
<title>Organ3dModule&#45;&gt;OrganModule</title>
<path fill="none" stroke="#000000" d="M459.5,-122.1061C459.5,-122.1061 459.5,-140.991 459.5,-140.991"/>
<polygon fill="#000000" stroke="#000000" points="456.0001,-140.9909 459.5,-150.991 463.0001,-140.991 456.0001,-140.9909"/>
</g>
<!-- OrganRoutingModule -->
<g id="node6" class="node">
<title>OrganRoutingModule</title>
<polygon fill="#8dd3c7" stroke="#000000" points="351.6498,-122 348.6498,-126 327.6498,-126 324.6498,-122 212.3502,-122 212.3502,-86 351.6498,-86 351.6498,-122"/>
<text text-anchor="middle" x="282" y="-99.8" font-family="Times,serif" font-size="14.00" fill="#000000">OrganRoutingModule</text>
</g>
<!-- OrganRoutingModule&#45;&gt;OrganModule -->
<g id="edge5" class="edge">
<title>OrganRoutingModule&#45;&gt;OrganModule</title>
<path fill="none" stroke="#000000" d="M282,-122.0225C282,-139.3734 282,-163 282,-163 282,-163 430.7394,-163 430.7394,-163"/>
<polygon fill="#000000" stroke="#000000" points="430.7395,-166.5001 440.7394,-163 430.7394,-159.5001 430.7395,-166.5001"/>
</g>
<!-- OrganDataService -->
<g id="node7" class="node">
<title>OrganDataService</title>
<ellipse fill="#fdb462" stroke="#000000" cx="106" cy="-104" rx="82.2006" ry="18"/>
<text text-anchor="middle" x="106" y="-99.8" font-family="Times,serif" font-size="14.00" fill="#000000">OrganDataService</text>
</g>
<!-- OrganDataService&#45;&gt;OrganModule -->
<g id="edge6" class="edge">
<title>OrganDataService&#45;&gt;OrganModule</title>
<path fill="none" stroke="#000000" d="M106,-122.2843C106,-143.3211 106,-175 106,-175 106,-175 430.7762,-175 430.7762,-175"/>
<polygon fill="#000000" stroke="#000000" points="430.7762,-178.5001 440.7762,-175 430.7761,-171.5001 430.7762,-178.5001"/>
</g>
</g>
</svg>
